<?xml version="1.0" encoding="UTF-8"?>
<!DOCTYPE svg PUBLIC "-//W3C//DTD SVG 1.1//EN" "http://www.w3.org/Graphics/SVG/1.1/DTD/svg11.dtd">
<svg version="1.1" xmlns="http://www.w3.org/2000/svg" xmlns:xlink="http://www.w3.org/1999/xlink" width="152" height="153"  xml:space="preserve">
    <path id="bezier" stroke="none" fill="rgb(64, 176, 164)" d="M 129.6,21.9 C 159.2,51.5 159.2,99.5 129.6,129.1 100,158.7 52,158.7 22.4,129.1 -7.2,99.5 -7.2,51.5 22.4,21.9 52,-7.7 100,-7.7 129.6,21.9 Z M 129.6,21.9" />
    <g id="group">
        <g id="group2">
            <g id="group3">
                <g id="sVGID_4_" clip-path="url(#bezier2)">
                    <clipPath id="bezier2">
                        <path d="M 77.82,151.28 L 79.64,151.21 81.45,151.1 83.27,150.95 85.08,150.76 86.88,150.52 88.68,150.24 90.48,149.91 92.27,149.54 94.05,149.13 95.82,148.68 97.58,148.18 99.33,147.64 101.08,147.05 102.81,146.42 104.52,145.75 106.23,145.03 107.92,144.28 109.59,143.47 111.25,142.63 112.89,141.74 114.52,140.81 116.12,139.83 117.71,138.81 119.27,137.75 120.82,136.64 122.34,135.49 123.84,134.3 125.32,133.07 126.77,131.79 128.2,130.46 129.6,129.1 130.96,127.7 132.29,126.27 133.57,124.82 134.8,123.34 135.99,121.84 137.14,120.32 138.25,118.77 139.31,117.21 140.33,115.62 141.31,114.02 142.24,112.39 143.13,110.75 143.97,109.09 144.78,107.42 145.53,105.73 146.25,104.02 146.92,102.31 147.55,100.58 148.14,98.83 148.68,97.08 149.18,95.32 149.63,93.55 150.04,91.77 150.41,89.98 150.74,88.18 151.02,86.38 151.26,84.58 151.45,82.77 151.6,80.95 151.71,79.14 151.78,77.32 151.8,75.5 151.78,73.68 151.71,71.86 151.6,70.05 151.45,68.23 151.26,66.42 151.02,64.62 150.74,62.82 150.41,61.02 150.04,59.23 149.63,57.45 149.18,55.68 148.68,53.92 148.14,52.17 147.55,50.42 146.92,48.69 146.25,46.98 145.53,45.27 144.78,43.58 143.97,41.91 143.13,40.25 142.24,38.61 141.31,36.98 140.33,35.38 139.31,33.79 138.25,32.23 137.14,30.68 135.99,29.16 134.8,27.66 133.57,26.18 132.29,24.73 130.96,23.3 129.6,21.9 128.2,20.54 126.77,19.21 125.32,17.93 123.84,16.7 122.34,15.51 120.82,14.36 119.27,13.25 117.71,12.19 116.12,11.17 114.52,10.19 112.89,9.26 111.25,8.37 109.59,7.53 107.92,6.72 106.23,5.97 104.52,5.25 102.81,4.58 101.08,3.95 99.33,3.36 97.58,2.82 95.82,2.32 94.05,1.87 92.27,1.46 90.48,1.09 88.68,0.76 86.88,0.48 85.08,0.24 83.27,0.05 81.45,-0.1 79.64,-0.21 77.82,-0.28 76,-0.3 74.18,-0.28 72.36,-0.21 70.55,-0.1 68.73,0.05 66.92,0.24 65.12,0.48 63.32,0.76 61.52,1.09 59.73,1.46 57.95,1.87 56.18,2.32 54.42,2.82 52.67,3.36 50.92,3.95 49.19,4.58 47.48,5.25 45.77,5.97 44.08,6.72 42.41,7.53 40.75,8.37 39.11,9.26 37.48,10.19 35.88,11.17 34.29,12.19 32.73,13.25 31.18,14.36 29.66,15.51 28.16,16.7 26.68,17.93 25.23,19.21 23.8,20.54 22.4,21.9 21.04,23.3 19.71,24.73 18.43,26.18 17.2,27.66 16.01,29.16 14.86,30.68 13.75,32.23 12.69,33.79 11.67,35.38 10.69,36.98 9.76,38.61 8.87,40.25 8.03,41.91 7.22,43.58 6.47,45.27 5.75,46.98 5.08,48.69 4.45,50.42 3.86,52.17 3.32,53.92 2.82,55.68 2.37,57.45 1.96,59.23 1.59,61.02 1.26,62.82 0.98,64.62 0.74,66.42 0.55,68.23 0.4,70.05 0.29,71.86 0.22,73.68 0.2,75.5 0.22,77.32 0.29,79.14 0.4,80.95 0.55,82.77 0.74,84.58 0.98,86.38 1.26,88.18 1.59,89.98 1.96,91.77 2.37,93.55 2.82,95.32 3.32,97.08 3.86,98.83 4.45,100.58 5.08,102.31 5.75,104.02 6.47,105.73 7.22,107.42 8.03,109.09 8.87,110.75 9.76,112.39 10.69,114.02 11.67,115.62 12.69,117.21 13.75,118.77 14.86,120.32 16.01,121.84 17.2,123.34 18.43,124.82 19.71,126.27 21.04,127.7 22.4,129.1 23.8,130.46 25.23,131.79 26.68,133.07 28.16,134.3 29.66,135.49 31.18,136.64 32.73,137.75 34.29,138.81 35.88,139.83 37.48,140.81 39.11,141.74 40.75,142.63 42.41,143.47 44.08,144.28 45.77,145.03 47.48,145.75 49.19,146.42 50.92,147.05 52.67,147.64 54.42,148.18 56.18,148.68 57.95,149.13 59.73,149.54 61.52,149.91 63.32,150.24 65.12,150.52 66.92,150.76 68.73,150.95 70.55,151.1 72.36,151.21 74.18,151.28 76,151.3 77.82,151.28 Z M 77.82,151.28" />
                    </clipPath>
                    <g id="group5">
                        <path id="bezier3" stroke="none" fill="rgb(0, 0, 0)" d="M 85.3,43.9 L 104.4,78 C 104.4,78 106,80.9 101.2,80.9 96.4,80.9 94.9,80.9 94.9,80.9 L 94.9,97 C 94.9,97 88.1,98.9 81,95.3 73.7,91.6 76.8,94.8 76.8,96.5 76.8,104.6 80.5,109.7 83.7,116.7 85.1,119.8 94.4,157.5 92.6,157.9 82.5,160 71.1,159.4 61.4,156.2 57.4,154.9 53.5,153.3 49.4,151.9 41.6,149.2 38.4,145.5 38.1,137.1 37.7,127.7 36.6,116.9 42.9,109 46,105.2 53.5,101.4 50.5,95.4 50.5,95.4 37.2,69.4 35.8,67.6 33.6,69.3 30.7,73.2 27.6,71.4 24.5,69.6 26.8,64.3 30.6,59.8 28.8,54.6 24.8,35.3 36.1,26.3 44.4,19.6 57.6,16 67.7,20.7 72.3,22.8 75.8,26.1 79,30 79.2,30.3 81.1,33.2 81.4,33.1 83.5,33 85.5,32.9 87.6,32.7 89.3,32.5 91.3,32.1 92.9,32.9 94.3,33.5 95.3,35.1 95.2,36.6 95.1,38.9 92.8,39.5 90.9,39.8 90.3,39.9 87.1,42.1 85.3,43.9 Z M 85.3,43.9" />
                    </g>
                    <g id="group6">
                        <g id="group7">
                            <g id="sVGID_8_" clip-path="url(#bezier4)">
                                <clipPath id="bezier4">
                                    <path d="M 85.3,43.9 L 104.4,78 C 104.4,78 106,80.9 101.2,80.9 96.4,80.9 94.9,80.9 94.9,80.9 L 94.9,97 C 94.9,97 88.1,98.9 81,95.3 73.7,91.6 76.8,94.8 76.8,96.5 76.8,104.6 80.5,109.7 83.7,116.7 85.1,119.8 94.4,157.5 92.6,157.9 82.5,160 71.1,159.4 61.4,156.2 57.4,154.9 53.5,153.3 49.4,151.9 41.6,149.2 38.4,145.5 38.1,137.1 37.7,127.7 36.6,116.9 42.9,109 46,105.2 53.5,101.4 50.5,95.4 50.5,95.4 37.2,69.4 35.8,67.6 33.6,69.3 30.7,73.2 27.6,71.4 24.5,69.6 26.8,64.3 30.6,59.8 28.8,54.6 24.8,35.3 36.1,26.3 44.4,19.6 57.6,16 67.7,20.7 72.3,22.8 75.8,26.1 79,30 79.2,30.3 81.1,33.2 81.4,33.1 83.5,33 85.5,32.9 87.6,32.7 89.3,32.5 91.3,32.1 92.9,32.9 94.3,33.5 95.3,35.1 95.2,36.6 95.1,38.9 92.8,39.5 90.9,39.8 90.3,39.9 87.1,42.1 85.3,43.9 Z M 85.3,43.9" />
                                </clipPath>
                                <path id="bezier5" stroke="none" fill="rgb(42, 39, 38)" d="M 45.5,63 L 83.3,46.9 C 83.3,46.9 83.7,72.5 83.9,78.2 84.3,89.6 86.5,97.2 90.4,96.9 90.3,119.4 92,118.1 93.5,118.5 93.5,125.5 125.7,118 125.7,118 L 85,44.2 40.4,65.4 C 40.4,65.4 38.5,63.9 43.2,74.5 49.7,88.9 52.8,94.3 52.8,94.3 52.8,94.3 38.5,68.1 45.5,63 Z M 45.5,63" />
                            </g>
                        </g>
                        <path id="bezier6" stroke="none" fill="rgb(255, 255, 255)" d="M 94.3,85.3 C 94.3,85.3 87.1,86.3 86.8,84.2 86.9,88.5 89.4,88.5 94.3,88.5 94.3,86.3 94.3,85.3 94.3,85.3 Z M 94.3,85.3" />
                        <path id="bezier7" stroke="none" fill="rgb(244, 112, 111)" d="M 42.2,24.6 C 42.2,24.6 24,30.1 32.2,58.6 32,53.4 28.9,42.9 33.3,34.6 37.7,26.3 43.2,24.6 43.2,24.6" />
                        <path id="bezier8" stroke="none" fill="rgb(0, 0, 0)" d="M 92.6,61.6 L 92.6,78.2 102.6,78.2 92.6,61.6 Z M 92.6,61.6" />
                        <path id="bezier9" stroke="none" fill="rgb(42, 39, 38)" d="M 70.9,69.3 C 70.9,69.3 84.4,64.8 84.4,77.5 84.4,84.2 85,89.9 85,89.9 85,89.9 75.7,68.9 70.9,69.3 Z M 70.9,69.3" />
                        <path id="bezier10" stroke="none" fill="rgb(0, 0, 0)" d="M 76.2,68.5 C 76.2,68.5 83.4,67.9 83.9,75.1 84.4,81.2 84.7,89.3 84.7,89.3 84.7,89.3 82.9,71.1 76.5,70 76.5,70 72.2,68.6 70.9,69.3 74.9,68.5 76.2,68.5 76.2,68.5 Z M 76.2,68.5" />
                        <path id="bezier11" stroke="none" fill="rgb(85, 83, 82)" d="M 52.5,22 C 52.5,22 66,16.1 79.9,33.6 81.7,35.8 81.7,35.8 81.7,35.8 81.7,35.8 87.6,34.3 90,34.9 84.1,38.4 49.1,57 49.1,57 49.1,57 81,39.9 78.7,34.6 74.9,26.1 67.1,20.4 52.5,22 Z M 52.5,22" />
                        <path id="bezier12" stroke="none" fill="rgb(42, 39, 38)" d="M 55.5,67.4 C 55.5,67.4 43.9,56.9 46.6,77.3 46.6,77.3 44.4,61.6 55.5,67.4 Z M 55.5,67.4" />
                        <path id="bezier13" stroke="none" fill="rgb(255, 255, 255)" d="M 88.93,61.97 C 91.42,64.47 91.42,68.53 88.93,71.03 86.43,73.52 82.37,73.52 79.87,71.03 77.38,68.53 77.38,64.47 79.87,61.97 82.37,59.48 86.43,59.48 88.93,61.97 Z M 88.93,61.97" />
                        <path id="bezier14" stroke="none" fill="rgb(54, 30, 32)" d="M 88.17,66.13 C 88.88,66.83 88.88,67.97 88.17,68.67 87.47,69.38 86.33,69.38 85.63,68.67 84.92,67.97 84.92,66.83 85.63,66.13 86.33,65.42 87.47,65.42 88.17,66.13 Z M 88.17,66.13" />
                        <path id="bezier15" stroke="none" fill="none" d="M 126.8,104.2 C 126.6,103.3 122.5,103.3 121.7,102.8 120.9,102.2 120.3,103.7 119.5,103.5 118.7,103.3 119.1,103.6 118,104 116.9,104.4 118,106 118,106 118,106 119,111.5 119.2,112.7 119.4,113.9 119.3,115 118.5,115.1 117.7,115.2 118,116.2 118,116.2 118,116.2 118.7,121.4 118.9,122.6 119.1,123.8 119.1,123.4 119.7,123.4 120.4,123.4 120.8,125.6 121.1,126.5 121.4,127.4 120.9,128.5 120.2,129 119.5,129.5 119.8,130.3 119.8,130.3 119.8,130.3 120.2,134.6 120.4,135.5 120.6,136.4 121.8,135.5 121.8,135.5 121.8,135.5 126.4,114.9 126.9,111.5 127.5,108.2 127,105.1 126.8,104.2 Z M 126.8,104.2" />
                        <path id="bezier16" stroke="none" fill="rgb(26, 23, 24)" d="M 132.8,185.4 C 131.4,184.4 129.6,185.4 128.9,186 128.3,186.6 128.2,185.4 128.2,185.4 128.2,185.4 121.3,145.4 120.9,143.3 120.5,141.2 122,140.7 122.9,139.1 123.8,137.5 122.9,133.7 122.9,133.7 122.9,133.7 127.2,110.7 127,106.2 126.8,101.7 125.8,103.2 126.2,100.8 126.6,98.3 125.2,98 124.4,97.3 123.6,96.5 120.6,96 120.6,96 120.5,95.3 119.2,94.8 119.2,94.8 L 108.2,90.1 C 108.2,90.1 108.3,90.3 108,89.8 107.7,89.2 106.2,87.6 104.9,87.4 103.6,87.1 101.8,87.1 99.7,89.2 97.5,91.3 97.5,94.5 99.7,97.3 102,100.1 106.1,98.6 106.6,98 107.1,97.5 107.2,98.5 107.6,99.1 108,99.6 109.1,99.7 109.9,100.1 110.7,100.4 111.1,101.2 111.4,101.7 111.8,102.2 111.3,102.4 110.5,102.6 109.7,102.7 109.7,104.1 109.7,104.1 109.7,104.1 110.7,112.2 110.9,113.2 111.1,114.3 111.9,114.5 112.3,114.5 112.7,114.5 112.7,115 112.7,115 112.7,115 115.7,131.9 115.9,133 116.1,134.1 115.6,134.1 115.6,134.1 114.1,134.9 115.7,140.7 115.8,141.5 115.9,142.3 117.5,141.9 117.5,141.9 117.5,141.9 117.9,145 118.2,146.9 118.6,148.8 118.1,149.3 118.1,149.3 116.3,154.9 110.3,191.2 110.3,191.2 L 111.7,191.5 C 111.7,191.5 115.8,166.4 116.1,164.3 116.4,162.2 118,155.3 118.6,153.3 119.2,151.4 119,153.4 119,153.4 119,153.4 124.1,183.4 124.3,184.9 124.5,186.4 125.1,187.6 124.4,187.9 123.6,188.3 124.3,193.5 124.3,193.5 L 131.6,194.7 C 131.6,194.7 130.7,191.5 131.4,191.6 132.1,191.7 132.7,191.3 133.9,190 135.2,188.6 134.2,186.4 132.8,185.4 Z M 121.2,135.1 C 121.2,135.1 120,136.2 119.7,135.2 119.5,134.2 118.9,129.7 118.9,129.7 118.9,129.7 118.5,128.9 119.2,128.3 119.9,127.7 120.4,126.6 120,125.6 119.7,124.6 119.1,122.3 118.4,122.4 117.7,122.4 117.8,122.9 117.5,121.6 117.2,120.4 116.3,114.9 116.3,114.9 116.3,114.9 116,113.9 116.8,113.7 117.6,113.5 117.7,112.4 117.4,111.1 117.1,109.8 115.8,104.1 115.8,104.1 115.8,104.1 114.6,102.5 115.8,102 116.9,101.5 116.5,101.2 117.4,101.4 118.2,101.5 118.8,100 119.6,100.5 120.4,101.1 124.8,100.8 125.1,101.8 125.3,102.8 126.1,106 125.6,109.7 125.1,113.4 121.2,135.1 121.2,135.1 Z M 121.2,135.1" />
                    </g>
                </g>
            </g>
        </g>
    </g>
</svg>
