<?xml version="1.0" encoding="UTF-8"?>
<!DOCTYPE svg PUBLIC "-//W3C//DTD SVG 1.1//EN" "http://www.w3.org/Graphics/SVG/1.1/DTD/svg11.dtd">
<svg version="1.1" xmlns="http://www.w3.org/2000/svg" xmlns:xlink="http://www.w3.org/1999/xlink" width="152" height="153"  xml:space="preserve">
    <g id="group2">
        <path id="bezier" stroke="none" fill="rgb(54, 162, 147)" d="M 129.83,22.78 C 159.44,52.39 159.44,100.39 129.83,130 100.22,159.6 52.23,159.6 22.62,130 -6.99,100.39 -6.99,52.39 22.62,22.78 52.23,-6.82 100.22,-6.82 129.83,22.78 Z M 129.83,22.78" />
        <g id="sVGID_2_" clip-path="url(#bezier2)">
            <clipPath id="bezier2">
                <path d="M 129.83,22.78 C 159.44,52.39 159.44,100.39 129.83,130 100.22,159.6 52.23,159.6 22.62,130 -6.99,100.39 -6.99,52.39 22.62,22.78 52.23,-6.82 100.22,-6.82 129.83,22.78 Z M 129.83,22.78" />
            </clipPath>
            <g id="group5">
                <g id="group7">
                    <g id="group9">
                        <path id="bezier3" stroke="none" fill="rgb(0, 0, 0)" d="M 66.9,44.1 L 47.78,78.23 C 47.78,78.23 46.2,81.12 51.02,81.12 55.83,81.12 57.35,81.12 57.35,81.12 L 57.35,97.17 C 57.35,97.17 64.15,99.03 71.21,95.47 78.47,91.8 75.42,94.93 75.42,96.64 75.42,104.71 71.75,109.87 68.54,116.81 67.1,119.91 57.86,157.6 59.63,157.98 69.7,160.1 81.09,159.48 90.83,156.32 94.86,155.01 98.77,153.37 102.78,152.01 110.59,149.36 113.77,145.61 114.08,137.21 114.44,127.76 115.59,117.03 109.26,109.13 106.19,105.3 98.62,101.52 101.65,95.57 101.65,95.57 114.93,69.56 116.32,67.74 118.57,69.45 121.38,73.38 124.49,71.56 127.59,69.74 121.46,59.92 121.46,59.92 L 128.88,34.74 116,26.42 84.43,20.86 C 84.43,20.86 76.3,26.27 73.08,30.13 72.85,30.41 70.96,33.28 70.71,33.27 68.65,33.19 66.6,33.1 64.54,32.9 62.86,32.74 60.87,32.35 59.26,33.08 57.88,33.71 56.89,35.25 56.93,36.76 56.99,39.05 59.04,39.74 60.73,40.56 61.87,41.11 64.05,42.7 66.9,44.1 Z M 66.9,44.1" />
                        <g id="sVGID_4_" clip-path="url(#bezier4)">
                            <clipPath id="bezier4">
                                <path d="M 66.9,44.1 L 47.78,78.23 C 47.78,78.23 46.2,81.12 51.02,81.12 55.83,81.12 57.35,81.12 57.35,81.12 L 57.35,97.17 C 57.35,97.17 64.15,99.03 71.21,95.47 78.47,91.8 75.42,94.93 75.42,96.64 75.42,104.71 71.75,109.87 68.54,116.81 67.1,119.91 57.86,157.6 59.63,157.98 69.7,160.1 81.09,159.48 90.83,156.32 94.86,155.01 98.77,153.37 102.78,152.01 110.59,149.36 113.77,145.61 114.08,137.21 114.44,127.76 115.59,117.03 109.26,109.13 106.19,105.3 98.62,101.52 101.65,95.57 101.65,95.57 114.93,69.56 116.32,67.74 118.57,69.45 121.38,73.38 124.49,71.56 127.59,69.74 121.46,59.92 121.46,59.92 L 128.88,34.74 116,26.42 84.43,20.86 C 84.43,20.86 76.3,26.27 73.08,30.13 72.85,30.41 70.96,33.28 70.71,33.27 68.65,33.19 66.6,33.1 64.54,32.9 62.86,32.74 60.87,32.35 59.26,33.08 57.88,33.71 56.89,35.25 56.93,36.76 56.99,39.05 59.04,39.74 60.73,40.56 61.87,41.11 64.05,42.7 66.9,44.1 Z M 66.9,44.1" />
                            </clipPath>
                            <path id="bezier5" stroke="none" fill="rgb(31, 29, 29)" d="M 106.74,63.18 L 68.98,47.03 C 68.98,47.03 68.59,72.65 68.41,78.37 68.03,89.74 65.78,97.37 61.9,97.02 62.02,119.54 60.31,118.25 58.81,118.62 58.81,125.62 26.56,118.08 26.56,118.08 L 67.18,44.37 111.83,65.6 C 111.83,65.6 113.68,64.12 109.02,74.75 102.49,89.17 99.43,94.5 99.43,94.5 99.43,94.5 113.74,68.31 106.74,63.18 Z M 106.74,63.18" />
                        </g>
                    </g>
                    <path id="bezier6" stroke="none" fill="rgb(255, 255, 255)" d="M 57.9,85.48 C 57.9,85.48 65.14,86.5 65.36,84.33 65.22,88.67 62.81,88.65 57.9,88.65 57.9,86.48 57.9,85.48 57.9,85.48 Z M 57.9,85.48" />
                    <path id="bezier7" stroke="none" fill="rgb(0, 0, 0)" d="M 59.6,61.76 L 59.6,78.37 49.61,78.37 59.6,61.76 Z M 59.6,61.76" />
                    <path id="bezier8" stroke="none" fill="rgb(31, 29, 29)" d="M 81.32,69.45 C 81.32,69.45 67.82,64.94 67.82,77.65 67.82,84.37 67.18,90.07 67.18,90.07 67.18,90.07 76.49,69.11 81.32,69.45 Z M 81.32,69.45" />
                    <path id="bezier9" stroke="none" fill="rgb(0, 0, 0)" d="M 76.01,68.68 C 76.01,68.68 68.85,68.11 68.28,75.25 67.8,81.37 67.47,89.45 67.47,89.45 67.47,89.45 69.32,71.33 75.76,70.16 75.76,70.16 80.06,68.76 81.32,69.45 77.3,68.71 76.01,68.68 76.01,68.68 Z M 76.01,68.68" />
                    <path id="bezier10" stroke="none" fill="rgb(67, 65, 65)" d="M 85.55,22.17 L 88.52,22.1 85.21,21.48 76.23,27.77 C 76.23,27.77 74.42,31.23 72.4,33.77 70.64,35.96 70.64,35.96 70.64,35.96 70.64,35.96 64.79,34.5 62.31,35.08 68.16,38.59 103.11,57.17 103.11,57.17 103.11,57.17 70.49,39.66 73.57,34.79 75.26,32.12 76.91,28.26 76.91,28.26 L 85.55,22.17 Z M 85.55,22.17" />
                    <path id="bezier11" stroke="none" fill="rgb(31, 29, 29)" d="M 96.68,67.63 C 96.68,67.63 108.23,57.17 105.6,77.5 105.6,77.5 107.79,61.76 96.68,67.63 Z M 96.68,67.63" />
                    <path id="bezier12" stroke="none" fill="rgb(255, 255, 255)" d="M 72.37,62.13 C 74.87,64.63 74.87,68.7 72.37,71.21 69.86,73.72 65.79,73.72 63.28,71.21 60.77,68.7 60.77,64.63 63.28,62.13 65.79,59.62 69.86,59.62 72.37,62.13 Z M 72.37,62.13" />
                    <path id="bezier13" stroke="none" fill="rgb(40, 22, 24)" d="M 66.65,66.34 C 67.36,67.05 67.36,68.21 66.65,68.92 65.94,69.63 64.79,69.63 64.08,68.92 63.36,68.21 63.36,67.05 64.08,66.34 64.79,65.63 65.94,65.63 66.65,66.34 Z M 66.65,66.34" />
                </g>
                <g id="group12">
                    <path id="bezier14" stroke="none" fill="none" d="M 25.42,104.36 C 25.59,103.44 29.76,103.49 30.52,102.92 31.29,102.34 31.9,103.81 32.67,103.66 33.45,103.5 33.09,103.79 34.19,104.2 35.29,104.61 34.24,106.2 34.24,106.2 34.24,106.2 33.26,111.68 33.01,112.89 32.76,114.1 32.9,115.19 33.67,115.32 34.43,115.45 34.18,116.45 34.18,116.45 34.18,116.45 33.5,121.69 33.28,122.86 33.06,124.03 33.12,123.64 32.45,123.63 31.78,123.62 31.32,125.8 31.05,126.73 30.78,127.66 31.24,128.73 31.95,129.26 32.65,129.79 32.32,130.59 32.32,130.59 32.32,130.59 31.91,134.9 31.74,135.82 31.57,136.73 30.36,135.78 30.36,135.78 30.36,135.78 25.76,115.21 25.22,111.81 24.68,108.4 25.25,105.28 25.42,104.36 Z M 25.42,104.36" />
                    <path id="bezier15" stroke="none" fill="rgb(20, 18, 19)" d="M 18.2,190.09 C 19.41,191.42 20,191.8 20.74,191.68 21.48,191.56 20.58,194.76 20.58,194.76 L 27.84,193.56 C 27.84,193.56 28.54,188.34 27.78,187.99 27.03,187.64 27.61,186.5 27.84,184.99 28.07,183.49 33.14,153.49 33.14,153.49 33.14,153.49 33,151.48 33.58,153.43 34.16,155.38 35.76,162.3 36.05,164.39 36.35,166.49 40.46,191.55 40.46,191.55 L 41.85,191.29 C 41.85,191.29 35.92,155.01 34.08,149.37 34.08,149.37 33.61,148.9 33.99,146.97 34.38,145.05 34.73,141.97 34.73,141.97 34.73,141.97 36.33,142.43 36.43,141.59 36.54,140.75 38.21,134.98 36.67,134.16 36.67,134.16 36.2,134.12 36.38,133.04 36.56,131.95 39.53,115.06 39.53,115.06 39.53,115.06 39.53,114.55 39.93,114.56 40.33,114.57 41.17,114.32 41.35,113.25 41.53,112.18 42.53,104.12 42.53,104.12 42.53,104.12 42.5,102.71 41.71,102.6 40.93,102.49 40.43,102.24 40.79,101.75 41.15,101.25 41.51,100.44 42.31,100.11 43.1,99.78 44.2,99.67 44.59,99.13 44.97,98.6 45.1,97.53 45.62,98.06 46.14,98.6 50.32,100.14 52.57,97.32 54.82,94.5 54.77,91.35 52.61,89.22 50.46,87.1 48.68,87.11 47.4,87.37 46.12,87.63 44.62,89.25 44.32,89.82 44.03,90.4 44.1,90.16 44.1,90.16 L 33.11,94.85 C 33.11,94.85 31.74,95.38 31.66,96.09 31.66,96.09 28.73,96.68 27.9,97.44 27.08,98.2 25.67,98.49 26.06,100.95 26.44,103.41 25.45,101.93 25.21,106.38 24.96,110.83 29.28,133.87 29.28,133.87 29.28,133.87 28.35,137.61 29.24,139.24 30.13,140.87 31.6,141.39 31.23,143.47 30.87,145.55 23.94,185.54 23.94,185.54 23.94,185.54 23.9,186.78 23.27,186.18 22.65,185.57 20.84,184.51 19.42,185.55 18,186.6 16.99,188.75 18.2,190.09 Z M 26.68,109.71 C 26.26,106.08 27,102.81 27.22,101.85 27.43,100.88 31.84,101.12 32.67,100.55 33.5,99.97 34.09,101.55 34.91,101.42 35.75,101.29 35.35,101.57 36.49,102.06 37.64,102.54 36.45,104.17 36.45,104.17 36.45,104.17 35.18,109.92 34.86,111.19 34.55,112.46 34.65,113.62 35.46,113.79 36.26,113.96 35.94,115.01 35.94,115.01 35.94,115.01 35,120.52 34.71,121.75 34.43,122.97 34.51,122.55 33.8,122.52 33.09,122.48 32.52,124.76 32.19,125.74 31.87,126.71 32.31,127.86 33.03,128.45 33.75,129.04 33.36,129.87 33.36,129.87 33.36,129.87 32.75,134.41 32.53,135.37 32.31,136.33 31.07,135.26 31.07,135.26 31.07,135.26 27.1,113.33 26.68,109.71 Z M 26.68,109.71" />
                </g>
            </g>
            <path id="bezier16" stroke="none" fill="rgb(137, 201, 167)" d="M 115.86,29.11 L 126.99,36.03 119.77,57.31 119.39,55.65 126.16,36.33 115.86,29.11 Z M 115.86,29.11" />
        </g>
    </g>
</svg>
