<?xml version="1.0" encoding="UTF-8"?>
<!DOCTYPE svg PUBLIC "-//W3C//DTD SVG 1.1//EN" "http://www.w3.org/Graphics/SVG/1.1/DTD/svg11.dtd">
<svg version="1.1" xmlns="http://www.w3.org/2000/svg" xmlns:xlink="http://www.w3.org/1999/xlink" width="99" height="83"  xml:space="preserve">
    <path id="bezier" stroke="rgb(0, 0, 0)" stroke-width="2" stroke-miterlimit="10" fill="rgb(255, 255, 255)" d="M 75.39,19.28 C 75.39,19.28 97.27,16.99 97.27,42.61 97.27,68.22 97.27,76.42 97.27,76.42 L 62.93,76.42 C 62.93,76.42 75.39,52.88 75.39,19.28 Z M 75.39,19.28" />
    <path id="bezier2" stroke="rgb(0, 0, 0)" stroke-width="2" stroke-miterlimit="10" fill="rgb(255, 255, 255)" d="M 76.5,51.04 C 78.23,47.79 85.39,46.84 83.77,56.29 83.26,59.22 81.78,62.5 79.65,64.65 78.18,66.12 73.88,65.6 73.88,65.6 73.88,65.6 73.72,62.76 73.89,60.98 73.98,60.09 74.76,54.29 76.5,51.04 Z M 76.5,51.04" />
    <path id="bezier3" stroke="rgb(0, 0, 0)" stroke-width="2" stroke-miterlimit="10" fill="rgb(255, 255, 255)" d="M 23.34,19.28 C 23.34,19.28 1.46,16.99 1.46,42.61 1.46,68.22 1.46,76.42 1.46,76.42 L 35.8,76.42 C 35.8,76.42 23.34,52.88 23.34,19.28 Z M 23.34,19.28" />
    <path id="bezier4" stroke="rgb(0, 0, 0)" stroke-width="2" stroke-miterlimit="10" fill="rgb(255, 255, 255)" d="M 21.94,51.04 C 20.21,47.79 13.05,46.84 14.68,56.29 15.18,59.22 16.66,62.5 18.8,64.65 20.26,66.12 24.56,65.6 24.56,65.6 24.56,65.6 24.72,62.76 24.55,60.98 24.46,60.09 23.68,54.29 21.94,51.04 Z M 21.94,51.04" />
    <g id="group">
        <path id="bezier5" stroke="none" fill="rgb(255, 255, 255)" d="M 48.33,81.62 C 31.89,81.62 19.01,62.57 19.01,38.24 19.01,16 30.52,1.62 48.33,1.62 63.63,1.62 79.08,12.94 79.08,38.24 79.08,61.75 65,81.62 48.33,81.62 Z M 48.33,81.62" />
        <path id="bezier6" stroke="none" fill="rgb(0, 0, 0)" d="M 48.33,2.62 C 66.12,2.62 78.08,16.94 78.08,38.24 78.08,61.21 64.46,80.62 48.33,80.62 40.77,80.62 33.69,76.32 28.4,68.5 22.99,60.51 20.01,49.77 20.01,38.24 20.01,27.07 22.87,17.84 28.26,11.54 33.27,5.7 40.21,2.62 48.33,2.62 Z M 48.33,0.62 C 31.19,0.62 18.01,13.74 18.01,38.24 18.01,62.75 31.19,82.62 48.33,82.62 65.47,82.62 80.08,62.75 80.08,38.24 80.08,13.73 65.47,0.62 48.33,0.62 L 48.33,0.62 Z M 48.33,0.62" />
    </g>
    <path id="bezier7" stroke="rgb(0, 0, 0)" stroke-width="2" stroke-miterlimit="10" fill="none" d="M 23.17,45.47 C 28.95,36.18 43.89,37.94 44.11,49.83 44.21,55.19 44.13,52.13 44.13,57.5 44.13,58.74 44.08,59.98 44.12,61.22 44.12,61.22 43.5,61.22 50.07,61.22" />
    <path id="bezier8" stroke="rgb(0, 0, 0)" stroke-width="2" stroke-miterlimit="10" fill="rgb(255, 255, 255)" d="M 19.34,29.23 L 78.91,29.23" />
</svg>
