<?xml version="1.0" encoding="UTF-8"?>
<!DOCTYPE svg PUBLIC "-//W3C//DTD SVG 1.1//EN" "http://www.w3.org/Graphics/SVG/1.1/DTD/svg11.dtd">
<svg version="1.1" xmlns="http://www.w3.org/2000/svg" xmlns:xlink="http://www.w3.org/1999/xlink" width="72" height="83"  xml:space="preserve">
    <path id="bezier" stroke="rgb(0, 0, 0)" stroke-width="2" stroke-miterlimit="10" fill="rgb(255, 255, 255)" d="M 63.5,51.29 C 65.23,48.04 72.39,47.09 70.77,56.54 70.26,59.48 68.78,62.75 66.65,64.9 65.18,66.37 60.88,65.85 60.88,65.85 60.88,65.85 60.72,63.01 60.89,61.23 60.98,60.34 61.76,54.54 63.5,51.29 Z M 63.5,51.29" />
    <path id="bezier2" stroke="rgb(0, 0, 0)" stroke-width="2" stroke-miterlimit="10" fill="rgb(255, 255, 255)" d="M 8.94,51.29 C 7.21,48.04 0.05,47.09 1.68,56.54 2.18,59.48 3.66,62.75 5.8,64.9 7.26,66.37 11.56,65.85 11.56,65.85 11.56,65.85 11.72,63.01 11.55,61.23 11.46,60.34 10.68,54.54 8.94,51.29 Z M 8.94,51.29" />
    <g id="group">
        <path id="bezier3" stroke="none" fill="rgb(255, 255, 255)" d="M 35.33,81.87 C 18.89,81.87 6.01,62.82 6.01,38.49 6.01,16.76 16.7,4.3 35.33,4.3 42.54,4.3 66.08,6.76 66.08,38.49 66.08,62.01 52,81.87 35.33,81.87 Z M 35.33,81.87" />
        <path id="bezier4" stroke="none" fill="rgb(0, 0, 0)" d="M 35.33,5.3 C 43.83,5.3 51.05,8 56.22,13.13 62.1,18.94 65.08,27.48 65.08,38.49 65.08,61.46 51.46,80.87 35.33,80.87 27.77,80.87 20.69,76.57 15.4,68.75 9.99,60.76 7.01,50.02 7.01,38.49 7.01,17.4 17.34,5.3 35.33,5.3 Z M 35.33,3.3 C 18.19,3.3 5.01,13.99 5.01,38.49 5.01,63 18.19,82.87 35.33,82.87 52.47,82.87 67.08,63 67.08,38.49 67.08,13.99 52.47,3.3 35.33,3.3 L 35.33,3.3 Z M 35.33,3.3" />
    </g>
    <path id="bezier5" stroke="rgb(0, 0, 0)" stroke-width="2" stroke-miterlimit="10" fill="none" d="M 10.17,45.72 C 15.95,36.43 30.89,38.2 31.11,50.08 31.21,55.44 31.13,56.39 31.13,61.75 31.13,62.99 31.08,64.23 31.12,65.47 31.12,65.47 34.68,65.47 41.25,65.47" />
    <path id="bezier6" stroke="rgb(0, 0, 0)" stroke-width="2" stroke-miterlimit="10" fill="rgb(255, 255, 255)" d="M 5.01,48.09 C 5.01,48.09 0.81,22.27 5.01,11.69 8.64,2.58 25.71,1.55 25.71,1.55 25.71,1.55 25.75,12.2 18.45,23.32 11.15,34.43 5.01,42.08 5.01,42.08" />
    <path id="bezier7" stroke="rgb(0, 0, 0)" stroke-width="2" stroke-miterlimit="10" fill="rgb(255, 255, 255)" d="M 26.5,1.43 C 26.5,1.43 30.2,1.43 41.25,1.43 65.91,1.43 67.98,5.28 66.92,34.28 26.08,34.28 26.5,6.25 26.5,6.25 L 26.5,1.43 Z M 26.5,1.43" />
    <path id="bezier8" stroke="none" fill="rgb(0, 0, 0)" d="M 65.91,35.1 L 67.98,35.1 67.98,48.68 65.91,48.68 65.91,35.1 Z M 65.91,35.1" />
</svg>
