<?xml version="1.0" encoding="utf-8"?>
<!-- Generator: Adobe Illustrator 16.0.0, SVG Export Plug-In . SVG Version: 6.00 Build 0)  -->
<!DOCTYPE svg PUBLIC "-//W3C//DTD SVG 1.1//EN" "http://www.w3.org/Graphics/SVG/1.1/DTD/svg11.dtd">
<svg version="1.1" id="Layer_1" xmlns="http://www.w3.org/2000/svg" xmlns:xlink="http://www.w3.org/1999/xlink" x="0px" y="0px"
	 width="64px" height="44px" viewBox="0 0 64 44" enable-background="new 0 0 64 44" xml:space="preserve">
<path fill="#FFFFFF" d="M22,10h-5V5c0-0.552-0.447-1-1-1s-1,0.448-1,1v5h-5c-0.552,0-1,0.448-1,1s0.447,1,1,1h5v5
	c0,0.552,0.447,1,1,1s1-0.448,1-1v-5h5c0.552,0,1-0.448,1-1S22.553,10,22,10z"></path>
<g>
	<path fill="#FFFFFF" d="M34.5,18c4.136,0,7.5,3.364,7.5,7.5S38.636,33,34.5,33S27,29.636,27,25.5S30.364,18,34.5,18 M34.5,16
		c-5.247,0-9.5,4.253-9.5,9.5c0,5.246,4.253,9.5,9.5,9.5s9.5-4.254,9.5-9.5C44,20.253,39.747,16,34.5,16L34.5,16z"></path>
	<circle fill="#FFFFFF" cx="34.5" cy="25.5" r="4.5"></circle>
</g>
</svg>
