<?xml version="1.0" encoding="utf-8"?>
<!-- Generator: Adobe Illustrator 16.0.0, SVG Export Plug-In . SVG Version: 6.00 Build 0)  -->
<!DOCTYPE svg PUBLIC "-//W3C//DTD SVG 1.1//EN" "http://www.w3.org/Graphics/SVG/1.1/DTD/svg11.dtd">
<svg version="1.1" id="Layer_1" xmlns="http://www.w3.org/2000/svg" xmlns:xlink="http://www.w3.org/1999/xlink" x="0px" y="0px"
	 width="64px" height="44px" viewBox="0 0 64 44" enable-background="new 0 0 64 44" xml:space="preserve">
<path fill="#FFFFFF" d="M19.413,30l2.293,2.293c0.391,0.391,0.391,1.023,0,1.414s-1.023,0.391-1.414,0l-3.999-4
	c-0.093-0.092-0.166-0.203-0.217-0.325c-0.102-0.244-0.102-0.52,0-0.765c0.051-0.122,0.124-0.232,0.217-0.324l3.999-4
	C20.487,24.098,20.743,24,20.999,24s0.512,0.098,0.707,0.293c0.391,0.391,0.391,1.023,0,1.414L19.413,28h25.174l-2.293-2.293
	c-0.391-0.391-0.391-1.023,0-1.414s1.023-0.391,1.414,0l3.999,4c0.093,0.092,0.166,0.203,0.217,0.325
	c0.102,0.244,0.102,0.52,0,0.765c-0.051,0.122-0.124,0.232-0.217,0.324l-3.999,4C43.513,33.902,43.257,34,43.001,34
	s-0.512-0.098-0.707-0.293c-0.391-0.391-0.391-1.023,0-1.414L44.587,30H19.413z"/>
<path fill="#FFFFFF" d="M19.413,16l2.293,2.293c0.391,0.39,0.391,1.023,0,1.414s-1.023,0.39-1.414,0l-3.999-4
	c-0.093-0.092-0.166-0.203-0.217-0.325c-0.102-0.244-0.102-0.52,0-0.764c0.051-0.123,0.124-0.233,0.217-0.325l3.999-4
	C20.487,10.097,20.743,10,20.999,10c0.256,0,0.512,0.097,0.707,0.293c0.391,0.391,0.391,1.023,0,1.414L19.413,14l25.174,0
	l-2.293-2.293c-0.391-0.39-0.391-1.023,0-1.414s1.023-0.39,1.414,0l3.999,4c0.093,0.092,0.166,0.203,0.217,0.325
	c0.102,0.244,0.102,0.52,0,0.764c-0.051,0.123-0.124,0.233-0.217,0.325l-3.999,4C43.513,19.903,43.257,20,43.001,20
	c-0.256,0-0.512-0.097-0.707-0.293c-0.391-0.391-0.391-1.023,0-1.414L44.587,16L19.413,16z"/>
</svg>
