<?xml version="1.0" encoding="utf-8"?>
<!-- Generator: Adobe Illustrator 16.0.0, SVG Export Plug-In . SVG Version: 6.00 Build 0)  -->
<!DOCTYPE svg PUBLIC "-//W3C//DTD SVG 1.1//EN" "http://www.w3.org/Graphics/SVG/1.1/DTD/svg11.dtd">
<svg version="1.1" id="Layer_1" xmlns="http://www.w3.org/2000/svg" xmlns:xlink="http://www.w3.org/1999/xlink" x="0px" y="0px"
	 width="64px" height="44px" viewBox="0 0 64 44" enable-background="new 0 0 64 44" xml:space="preserve">
<path fill="#FFFFFF" d="M22,10h-5V5c0-0.552-0.447-1-1-1s-1,0.448-1,1v5h-5c-0.552,0-1,0.448-1,1s0.447,1,1,1h5v5
	c0,0.552,0.447,1,1,1s1-0.448,1-1v-5h5c0.552,0,1-0.448,1-1S22.553,10,22,10z"/>
<path fill="#FFFFFF" d="M56.924,27.618c-0.051-0.123-0.124-0.233-0.217-0.325l-3.999-4c-0.391-0.391-1.023-0.391-1.414,0
	s-0.391,1.023,0,1.414L53.587,27H47v-6c0-0.552-0.447-1-1-1H26c-0.553,0-1,0.448-1,1v6h-6.587l2.293-2.293
	c0.391-0.391,0.391-1.023,0-1.414C20.511,23.098,20.255,23,19.999,23s-0.512,0.098-0.707,0.293l-3.999,4
	c-0.093,0.092-0.166,0.202-0.217,0.324c-0.102,0.245-0.102,0.521,0,0.765c0.051,0.122,0.124,0.233,0.217,0.325l3.999,4
	c0.391,0.391,1.023,0.391,1.414,0s0.391-1.023,0-1.414L18.413,29H25v6c0,0.553,0.447,1,1,1h20c0.553,0,1-0.447,1-1v-6h6.587
	l-2.293,2.293c-0.391,0.391-0.391,1.023,0,1.414C51.489,32.902,51.745,33,52.001,33s0.512-0.098,0.707-0.293l3.999-4
	c0.093-0.092,0.166-0.202,0.217-0.325C57.025,28.138,57.025,27.862,56.924,27.618z M43,29v3h-2v-3h-4v3h-2v-3h-4v3h-2v-3h-3l0,0v-2
	h3v-3h2v3h4v-3h2v3h4v-3h2v3h3v2H43z"/>
</svg>
