<?xml version="1.0" encoding="utf-8"?>
<!-- Generator: Adobe Illustrator 16.0.0, SVG Export Plug-In . SVG Version: 6.00 Build 0)  -->
<!DOCTYPE svg PUBLIC "-//W3C//DTD SVG 1.1//EN" "http://www.w3.org/Graphics/SVG/1.1/DTD/svg11.dtd">
<svg version="1.1" id="Layer_1" xmlns="http://www.w3.org/2000/svg" xmlns:xlink="http://www.w3.org/1999/xlink" x="0px" y="0px"
	 width="64px" height="44px" viewBox="0 0 64 44" enable-background="new 0 0 64 44" xml:space="preserve">
<g>
	<path fill="#FFFFFF" d="M18.707,15H25v-1h-6.293l3.146-3.146c0.195-0.195,0.195-0.512,0-0.707s-0.512-0.195-0.707,0l-4,4
		c-0.195,0.195-0.195,0.512,0,0.707l4,4C21.244,18.951,21.372,19,21.5,19s0.256-0.049,0.354-0.146c0.195-0.195,0.195-0.512,0-0.707
		L18.707,15z"/>
	<path fill="#FFFFFF" d="M48.854,14.146l-4-4c-0.195-0.195-0.512-0.195-0.707,0s-0.195,0.512,0,0.707L47.293,14H34v1h13.293
		l-3.146,3.147c-0.195,0.195-0.195,0.512,0,0.707C44.244,18.951,44.372,19,44.5,19s0.256-0.049,0.354-0.146l4-4
		C49.049,14.658,49.049,14.342,48.854,14.146z"/>
</g>
<g>
	<path fill="#FFFFFF" d="M18.707,30H32v-1H18.707l3.146-3.146c0.195-0.195,0.195-0.512,0-0.707s-0.512-0.195-0.707,0l-4,4
		c-0.195,0.195-0.195,0.512,0,0.707l4,4C21.244,33.951,21.372,34,21.5,34s0.256-0.049,0.354-0.146c0.195-0.195,0.195-0.512,0-0.707
		L18.707,30z"/>
	<path fill="#FFFFFF" d="M48.854,29.146l-4-4c-0.195-0.195-0.512-0.195-0.707,0s-0.195,0.512,0,0.707L47.293,29H41v1h6.293
		l-3.146,3.146c-0.195,0.195-0.195,0.512,0,0.707C44.244,33.951,44.372,34,44.5,34s0.256-0.049,0.354-0.146l4-4
		C49.049,29.658,49.049,29.342,48.854,29.146z"/>
</g>
<circle fill="#FFFFFF" cx="29.5" cy="14.5" r="3.5"/>
<circle fill="#FFFFFF" cx="36.5" cy="29.5" r="3.5"/>
<path fill="#FFFFFF" d="M36.5,30c-0.183,0-0.359-0.102-0.447-0.276l-7-14c-0.123-0.247-0.023-0.547,0.224-0.671
	c0.248-0.122,0.547-0.023,0.671,0.224l7,14c0.123,0.247,0.023,0.548-0.224,0.671C36.651,29.982,36.575,30,36.5,30z"/>
</svg>
