<?xml version="1.0" encoding="utf-8"?>
<!-- Generator: Adobe Illustrator 16.0.0, SVG Export Plug-In . SVG Version: 6.00 Build 0)  -->
<!DOCTYPE svg PUBLIC "-//W3C//DTD SVG 1.1//EN" "http://www.w3.org/Graphics/SVG/1.1/DTD/svg11.dtd">
<svg version="1.1" id="Layer_1" xmlns="http://www.w3.org/2000/svg" xmlns:xlink="http://www.w3.org/1999/xlink" x="0px" y="0px"
	 width="64px" height="44px" viewBox="0 0 64 44" enable-background="new 0 0 64 44" xml:space="preserve">
<path fill="#FFFFFF" d="M23,10h-5V5c0-0.552-0.447-1-1-1s-1,0.448-1,1v5h-5c-0.552,0-1,0.448-1,1s0.447,1,1,1h5v5
	c0,0.552,0.447,1,1,1s1-0.448,1-1v-5h5c0.552,0,1-0.448,1-1S23.553,10,23,10z"/>
<path fill="#FFFFFF" d="M20.413,29l2.293,2.293c0.391,0.391,0.391,1.023,0,1.414s-1.023,0.391-1.414,0l-3.999-4
	c-0.093-0.092-0.166-0.203-0.217-0.325c-0.102-0.244-0.102-0.52,0-0.765c0.051-0.122,0.124-0.232,0.217-0.324l3.999-4
	C21.487,23.098,21.743,23,21.999,23s0.512,0.098,0.707,0.293c0.391,0.391,0.391,1.023,0,1.414L20.413,27h25.174l-2.293-2.293
	c-0.391-0.391-0.391-1.023,0-1.414s1.023-0.391,1.414,0l3.999,4c0.093,0.092,0.166,0.203,0.217,0.325
	c0.102,0.244,0.102,0.52,0,0.765c-0.051,0.122-0.124,0.232-0.217,0.324l-3.999,4C44.513,32.902,44.257,33,44.001,33
	s-0.512-0.098-0.707-0.293c-0.391-0.391-0.391-1.023,0-1.414L45.587,29H20.413z"/>
<path fill="#FFFFFF" d="M48.854,15.146l-3-3c-0.195-0.195-0.512-0.195-0.707,0s-0.195,0.512,0,0.707L47.293,15H33.908
	c-0.207-0.581-0.757-1-1.408-1c-0.828,0-1.499,0.671-1.5,1.499v0l0,0v0c0,0.829,0.672,1.5,1.5,1.5c0.652,0,1.202-0.419,1.408-1
	h13.385l-2.146,2.147c-0.195,0.195-0.195,0.512,0,0.707C45.244,18.951,45.372,19,45.5,19s0.256-0.049,0.354-0.146l3-3
	C49.049,15.658,49.049,15.342,48.854,15.146z"/>
</svg>
