<?xml version="1.0" standalone="no"?><!DOCTYPE svg PUBLIC "-//W3C//DTD SVG 1.1//EN" "http://www.w3.org/Graphics/SVG/1.1/DTD/svg11.dtd" ><svg version="1.1" xmlns="http://www.w3.org/2000/svg"><defs><font horiz-adv-x="0" id="font"><font-face ascent="750" bbox="5 -223 3751 830" cap-height="700" descent="-250" font-family="Amplify Numbers" font-stretch="normal" font-style="normal" font-weight="600" units-per-em="1000" x-height="490" /><missing-glyph horiz-adv-x="500" /><glyph d="M174 305Q194 305 224 293Q254 281 286 268Q326 252 355.5 239.5Q385 227 398 227Q405 227 414.5 229Q424 231 431.5 237.5Q439 244 444.5 255.5Q450 267 450 285Q450 293 456.5 299Q463 305 471 305Q479 305 485 299Q491 293 491 283Q491 254 482 235Q473 216 459 205Q445 194 428.5 189.5Q412 185 397 185Q377 185 347 197Q317 209 285 222Q245 238 215.5 250.5Q186 263 173 263Q165 263 156 261Q147 259 139.5 252.5Q132 246 126.5 234.5Q121 223 121 205Q121 197 114.5 191Q108 185 100 185Q92 185 86 191Q80 197 80 207Q80 236 89 255Q98 274 112 285Q126 296 142.5 300.5Q159 305 174 305ZM174 496Q194 496 224 484Q254 472 286 459Q326 443 355.5 430.5Q385 418 398 418Q405 418 414.5 420Q424 422 431.5 428.5Q439 435 444.5 446.5Q450 458 450 476Q450 484 456.5 490Q463 496 471 496Q479 496 485 490Q491 484 491 474Q491 445 482 426Q473 407 459 396Q445 385 428.5 380.5Q412 376 397 376Q377 376 347 388Q317 400 285 413Q245 429 215.5 441.5Q186 454 173 454Q165 454 156 452Q147 450 139.5 443.5Q132 437 126.5 425.5Q121 414 121 396Q121 388 114.5 382Q108 376 100 376Q92 376 86 382Q80 388 80 398Q80 427 89 446Q98 465 112 476Q126 487 142.5 491.5Q159 496 174 496Z" glyph-name="approxequal" horiz-adv-x="571" unicode="&#8776;" /><glyph d="M98 248Q98 159 132.5 107Q167 55 221 38L241 460Q211 456 185 441.5Q159 427 139.5 401Q120 375 109 337Q98 299 98 248ZM428 354Q428 346 422.5 340Q417 334 409 334Q401 334 396 339.5Q391 345 389 353L385 365Q374 397 350 425Q326 453 282 459L262 30H277Q303 30 333 37Q363 44 399 66Q412 74 422 68.5Q432 63 432 52Q432 40 420.5 31Q409 22 398 17Q378 7 346.5 -1.5Q315 -10 271 -10H260L252 -169Q252 -179 245 -183.5Q238 -188 230.5 -187.5Q223 -187 217 -182.5Q211 -178 211 -169L219 -4Q183 3 152 22.5Q121 42 98.5 73Q76 104 63.5 146.5Q51 189 51 244Q51 305 66 351.5Q81 398 107 430Q133 462 168 479Q203 496 243 499L252 668Q252 678 259 682.5Q266 687 273.5 686.5Q281 686 287 681.5Q293 677 293 668L284 498Q319 493 346.5 476Q374 459 388 436L391 477Q391 486 396.5 490.5Q402 495 408.5 494.5Q415 494 420.5 489.5Q426 485 426 476Z" glyph-name="cent" horiz-adv-x="492" unicode="&#162;" /><glyph d="M181 448Q224 448 251.5 476.5Q279 505 279 561Q279 618 251.5 647Q224 676 181 676Q137 676 109.5 647Q82 618 82 561Q82 505 109.5 476.5Q137 448 181 448ZM181 710Q241 710 280 671Q319 632 319 561Q319 491 280 452.5Q241 414 181 414Q120 414 81 452.5Q42 491 42 561Q42 632 81 671Q120 710 181 710Z" glyph-name="degree" horiz-adv-x="361" unicode="&#176;" /><glyph d="M69 322Q61 322 55.5 327.5Q50 333 50 341Q50 349 55.5 354.5Q61 360 69 360H419Q427 360 432.5 354.5Q438 349 438 341Q438 333 432.5 327.5Q427 322 419 322ZM180 514Q180 540 199 559Q218 578 244 578Q270 578 289 559Q308 540 308 514Q308 488 289 469Q270 450 244 450Q218 450 199 469Q180 488 180 514ZM180 162Q180 188 199 207Q218 226 244 226Q270 226 289 207Q308 188 308 162Q308 136 289 117Q270 98 244 98Q218 98 199 117Q180 136 180 162Z" glyph-name="divide" horiz-adv-x="488" unicode="&#247;" /><glyph d="M113 533Q113 501 124.5 478.5Q136 456 155.5 439Q175 422 201 410Q227 398 256 388V669Q227 665 201 655.5Q175 646 155.5 629.5Q136 613 124.5 589Q113 565 113 533ZM377 303Q358 311 337.5 318Q317 325 295 332V30Q328 33 358.5 43.5Q389 54 412 72.5Q435 91 449 119Q463 147 463 186Q463 232 439.5 259Q416 286 377 303ZM432 654Q397 662 362.5 667Q328 672 297 672H295V376Q334 364 372 351Q410 338 440 317.5Q470 297 489 267Q508 237 508 192Q508 109 456 55.5Q404 2 295 -8V-130Q295 -138 289.5 -144Q284 -150 276 -150Q268 -150 262 -144Q256 -138 256 -130V-10H250Q195 -10 155 0Q115 10 93 19Q70 28 70 54V168Q70 177 76 183Q82 189 91 189Q100 189 105.5 183Q111 177 112 168L118 56Q149 45 183.5 36.5Q218 28 256 28V343Q220 354 186.5 368Q153 382 127 403.5Q101 425 85 455.5Q69 486 69 531Q69 574 83.5 605Q98 636 123.5 657.5Q149 679 183 691Q217 703 256 707V800Q256 808 262 814Q268 820 276 820Q284 820 289.5 814Q295 808 295 800V710H300Q389 710 459 688Q482 679 482 653L480 540Q480 531 474 525Q468 519 459 519Q450 519 444.5 525Q439 531 438 540Z" glyph-name="dollar" horiz-adv-x="565" unicode="$" /><glyph d="M153 494Q168 465 201 446Q234 427 282 410Q330 427 363 446Q396 465 411 494Q424 518 424 548Q424 575 413 597Q402 619 383 635.5Q364 652 338 661Q312 670 282 670Q252 670 226 661Q200 652 181 635.5Q162 619 151 597Q140 575 140 548Q140 518 153 494ZM452 187Q452 230 436.5 260Q421 290 396.5 311Q372 332 342 345.5Q312 359 282 369Q252 359 222 345.5Q192 332 167.5 311Q143 290 127.5 260Q112 230 112 187Q112 153 124.5 124.5Q137 96 159.5 75Q182 54 213 42.5Q244 31 282 31Q319 31 350.5 42.5Q382 54 404.5 75Q427 96 439.5 124.5Q452 153 452 187ZM471 548Q471 504 453 475.5Q435 447 409 428Q392 415 374.5 406.5Q357 398 339 390Q368 378 396.5 361.5Q425 345 448 320.5Q471 296 485.5 263Q500 230 500 187Q500 144 484 108Q468 72 439 45.5Q410 19 370 4.5Q330 -10 282 -10Q234 -10 194 4.5Q154 19 125 45.5Q96 72 80 108Q64 144 64 187Q64 230 78 263Q92 296 115 320.5Q138 345 167 361.5Q196 378 225 390Q206 398 189 406.5Q172 415 155 428Q129 447 111 475.5Q93 504 93 548Q93 583 107.5 613Q122 643 147.5 664.5Q173 686 207.5 698Q242 710 282 710Q322 710 356.5 698Q391 686 416.5 664.5Q442 643 456.5 613Q471 583 471 548Z" glyph-name="eight" horiz-adv-x="564" unicode="8" /><glyph d="M99 285Q91 285 85.5 290.5Q80 296 80 304Q80 312 85.5 317.5Q91 323 99 323H896Q904 323 909.5 317.5Q915 312 915 304Q915 296 909.5 290.5Q904 285 896 285Z" glyph-name="emdash" horiz-adv-x="995" unicode="&#8212;" /><glyph d="M99 285Q91 285 85.5 290.5Q80 296 80 304Q80 312 85.5 317.5Q91 323 99 323H564Q572 323 577.5 317.5Q583 312 583 304Q583 296 577.5 290.5Q572 285 564 285Z" glyph-name="endash" horiz-adv-x="663" unicode="&#8211;" /><glyph d="M69 221Q61 221 55.5 226.5Q50 232 50 240Q50 248 55.5 253.5Q61 259 69 259H419Q427 259 432.5 253.5Q438 248 438 240Q438 232 432.5 226.5Q427 221 419 221ZM69 422Q61 422 55.5 427.5Q50 433 50 441Q50 449 55.5 454.5Q61 460 69 460H419Q427 460 432.5 454.5Q438 449 438 441Q438 433 432.5 427.5Q427 422 419 422Z" glyph-name="equal" horiz-adv-x="488" unicode="=" /><glyph d="M273 31Q308 31 338.5 45.5Q369 60 392 85Q415 110 428 144Q441 178 441 216Q441 259 428 293Q415 327 392 350Q369 373 338.5 385Q308 397 273 397Q254 397 234 393Q214 389 194 381Q177 374 162.5 364Q148 354 137 345Q127 337 119 337Q111 337 105.5 342Q100 347 101 360L117 681Q117 689 122.5 694.5Q128 700 136 700H434Q442 700 447.5 694.5Q453 689 453 681Q453 673 447.5 667.5Q442 662 434 662H155L142 392Q171 413 206 424.5Q241 436 276 436Q321 436 359.5 419.5Q398 403 426.5 374Q455 345 471.5 304.5Q488 264 488 216Q488 169 471 128Q454 87 425 56.5Q396 26 357 8Q318 -10 273 -10Q234 -10 199.5 1.5Q165 13 137 35Q109 57 89.5 87Q70 117 62 155Q60 165 60 171Q60 181 66.5 187Q73 193 82 193Q95 193 98.5 185Q102 177 103 173Q104 165 106 158Q108 152 110 145.5Q112 139 114 134Q134 85 177.5 58Q221 31 273 31Z" glyph-name="five" horiz-adv-x="548" unicode="5" /><glyph d="M368 212V664L97 212ZM412 212H493Q501 212 506.5 206.5Q512 201 512 193Q512 185 506.5 179.5Q501 174 493 174H412V12Q412 3 405.5 -3.5Q399 -10 390 -10Q381 -10 374.5 -3.5Q368 3 368 12V174H75Q62 174 55.5 178.5Q49 183 47 189.5Q45 196 46.5 203Q48 210 51 215L339 690Q346 702 358.5 707Q371 712 383 709.5Q395 707 403.5 696Q412 685 412 666Z" glyph-name="four" horiz-adv-x="557" unicode="4" /><glyph d="M426 655Q426 641 435 631.5Q444 622 458 622Q472 622 481 632Q490 642 490 654Q490 668 481 677.5Q472 687 458 687Q444 687 435 677.5Q426 668 426 655ZM571 3Q571 -11 580 -20.5Q589 -30 603 -30Q617 -30 626 -20Q635 -10 635 2Q635 16 626 25.5Q617 35 603 35Q589 35 580 25.5Q571 16 571 3ZM828 613 887 645 912 595Q918 583 912 571Q906 559 895 553Q884 548 872 549Q860 550 854 561ZM231 412 345 372Q353 369 359.5 372Q366 375 368 383Q371 390 368 397Q365 404 357 406L242 447L257 494Q259 502 256 508.5Q253 515 245 517Q238 519 231 516Q224 513 222 505L179 373Q177 366 180 359Q183 352 191 350Q199 348 205.5 351Q212 354 214 362ZM259 575Q251 573 247 567Q243 561 245 553Q247 545 253 541Q259 537 267 539L371 562L380 540Q373 531 373 522Q373 511 380.5 503.5Q388 496 399 496Q410 496 416 504Q424 511 423.5 520.5Q423 530 420 538L357 697Q354 704 347.5 707Q341 710 333 707Q326 704 323 697.5Q320 691 323 683L357 597ZM603 506Q555 506 511 520Q531 555 554.5 588.5Q578 622 605 650Q630 624 653 591Q676 558 698 521Q654 506 603 506ZM996 492Q993 499 986 502Q978 504 972 501L843 439Q836 435 833.5 428.5Q831 422 834 415L881 310Q888 294 904 301Q912 304 914.5 311Q917 318 914 324L874 414L907 429L922 396Q925 389 932 386.5Q939 384 946 387Q962 394 955 411L940 445L971 460L1003 388Q1006 381 1013 378.5Q1020 376 1027 379Q1034 382 1036.5 389Q1039 396 1036 403ZM822 545Q833 523 857 515Q886 507 912 522Q938 536 947 562Q956 588 944 611L911 678Q908 686 900 687.5Q892 689 886 686L751 612Q744 608 742 601Q740 594 744 587Q748 580 755 578Q762 576 769 580L796 595ZM752 97Q752 105 747 110Q742 115 734 115H555Q580 128 610.5 146Q641 164 667 187.5Q693 211 710.5 240Q728 269 728 304Q728 327 720 349Q712 371 696.5 388.5Q681 406 658 417Q635 428 605 428Q578 428 554 419.5Q530 411 512 396Q494 381 484 359.5Q474 338 474 312Q474 295 480 278.5Q486 262 497.5 248.5Q509 235 525 227Q541 219 561 219Q574 219 588 223Q602 227 613 236Q624 245 631.5 259Q639 273 639 292Q639 318 626 327Q613 336 603 336Q589 336 579.5 326.5Q570 317 570 304Q570 287 585 277Q586 275 582 265Q578 255 559 255Q536 255 524 274.5Q512 294 512 313Q512 349 537 371Q562 393 603 393Q646 393 667 365.5Q688 338 688 305Q688 282 678.5 262.5Q669 243 653 225.5Q637 208 617.5 193.5Q598 179 579 166Q541 142 511.5 127.5Q482 113 479 110Q471 100 475 90Q480 79 492 79H733Q752 79 752 97ZM823 751Q926 751 995 682Q1035 643 1056.5 588Q1078 533 1078 473Q1078 402 1053.5 339Q1029 276 994 223Q932 134 830 53Q792 23 755 -1.5Q718 -26 687.5 -44Q657 -62 634.5 -74Q612 -86 603 -90Q594 -86 571.5 -74Q549 -62 518.5 -44Q488 -26 451.5 -1Q415 24 377 54Q274 136 214 226Q175 283 153 346.5Q131 410 131 474Q131 535 153 590Q175 645 215 684Q286 752 387 752Q444 752 492.5 729.5Q541 707 579 675Q553 647 528 614Q503 581 480 540Q454 495 434 449.5Q414 404 399 361.5Q384 319 373.5 282.5Q363 246 357 221L307 231Q300 233 294 229Q288 225 286 218Q284 211 288 205.5Q292 200 300 198L435 169Q442 167 447.5 171Q453 175 455 182Q458 199 442 203L394 213Q399 234 407.5 264.5Q416 295 428.5 331Q441 367 457 407Q473 447 494 487Q546 468 603 468Q663 468 715 488Q735 449 751 409Q767 369 779 333Q791 297 799.5 265.5Q808 234 813 212L765 202Q749 198 751 182Q753 174 759 170Q765 166 772 168L907 196Q914 198 918 203.5Q922 209 920 216Q919 224 913 228Q907 232 900 230L851 220Q851 221 850.5 221.5Q850 222 850 223Q844 248 833.5 284.5Q823 321 808 363.5Q793 406 772.5 452Q752 498 727 543Q684 621 632 674Q674 710 722 730.5Q770 751 823 751ZM1115 474Q1115 541 1090.5 602Q1066 663 1021 708Q939 787 823 787Q757 787 702.5 762.5Q648 738 605 700Q555 743 500 765.5Q445 788 384 788Q270 788 189 710Q144 665 119 603.5Q94 542 94 473Q94 400 119 331.5Q144 263 184 205Q216 157 258.5 112Q301 67 355 25Q400 -11 442 -38.5Q484 -66 517 -85Q550 -104 571 -113.5Q592 -123 594 -124Q603 -128 612 -124Q614 -123 635 -113.5Q656 -104 689.5 -85Q723 -66 765.5 -39Q808 -12 853 24Q959 107 1024 203Q1067 266 1091 334.5Q1115 403 1115 474ZM1058 734Q1106 684 1132.5 615.5Q1159 547 1159 473Q1159 400 1136.5 332Q1114 264 1075.5 202Q1037 140 985.5 85.5Q934 31 876 -15Q818 -61 755.5 -98Q693 -135 634 -162Q618 -170 603 -170Q588 -170 572 -162Q510 -134 447 -96Q384 -58 326 -11Q268 36 217.5 91Q167 146 130 207.5Q93 269 71.5 336.5Q50 404 50 475Q50 550 77 618.5Q104 687 152 737Q198 784 258.5 807Q319 830 387 830Q454 830 509.5 806Q565 782 609 744Q657 787 711.5 807.5Q766 828 826 828Q893 828 953 804.5Q1013 781 1058 734Z" glyph-name="glyph00034" horiz-adv-x="1209" /><glyph d="M507 58Q500 50 491.5 51Q483 52 477 57.5Q471 63 470.5 72Q470 81 479 90L731 330H100Q92 330 86 336Q80 342 80 350Q80 358 86 364Q92 370 100 370H731L479 610Q470 619 470.5 628Q471 637 477 642.5Q483 648 491.5 648.5Q500 649 507 642L802 355Q807 350 802 345Z" glyph-name="greater" horiz-adv-x="885" unicode="&gt;" /><glyph d="M449 38Q457 38 462.5 32.5Q468 27 468 19Q468 11 462.5 5.5Q457 0 449 0H79Q71 0 65.5 5.5Q60 11 60 19Q60 27 65.5 32.5Q71 38 79 38ZM136 117Q127 110 118.5 112Q110 114 105 120Q100 126 101 134.5Q102 143 113 151L404 363L113 575Q102 582 101 591Q100 600 105 606Q110 612 118.5 614Q127 616 136 609L439 385Q453 375 453 362.5Q453 350 440 341Z" glyph-name="greaterequal" horiz-adv-x="528" unicode="&#8805;" /><glyph d="M83 345Q78 350 83 355L378 642Q385 649 393.5 648.5Q402 648 408 642.5Q414 637 414.5 628Q415 619 406 610L154 370H785Q793 370 799 364Q805 358 805 350Q805 342 799 336Q793 330 785 330H154L406 90Q415 81 414.5 72Q414 63 408 57.5Q402 52 393.5 51Q385 50 378 58Z" glyph-name="less" horiz-adv-x="885" unicode="&lt;" /><glyph d="M449 38Q457 38 462.5 32.5Q468 27 468 19Q468 11 462.5 5.5Q457 0 449 0H79Q71 0 65.5 5.5Q60 11 60 19Q60 27 65.5 32.5Q71 38 79 38ZM88 341Q75 350 75 362.5Q75 375 89 385L392 609Q401 616 409.5 614Q418 612 423 606Q428 600 426.5 591Q425 582 415 575L124 363L415 151Q425 143 426.5 134.5Q428 126 423 120Q418 114 409.5 112Q401 110 392 117Z" glyph-name="lessequal" horiz-adv-x="528" unicode="&#8804;" /><glyph d="M3721 495Q3734 495 3742.5 486.5Q3751 478 3751 465Q3751 452 3742.5 443.5Q3734 435 3721 435H3684L3502 1Q3482 -46 3462.5 -87Q3443 -128 3417 -158Q3391 -188 3355 -205.5Q3319 -223 3267 -223Q3247 -223 3228.5 -220.5Q3210 -218 3198 -214Q3181 -208 3175.5 -196Q3170 -184 3172.5 -172Q3175 -160 3185 -151.5Q3195 -143 3209 -146Q3223 -148 3237 -151Q3251 -154 3264 -154Q3296 -154 3319 -143.5Q3342 -133 3359 -114Q3376 -95 3388.5 -71.5Q3401 -48 3409 -28L3419 -4L3244 435H3074V60H3150Q3163 60 3171.5 51.5Q3180 43 3180 30Q3180 17 3171.5 8.5Q3163 0 3150 0H2927Q2914 0 2905.5 8.5Q2897 17 2897 30Q2897 43 2905.5 51.5Q2914 60 2927 60H2993V435H2927Q2914 435 2905.5 443.5Q2897 452 2897 465Q2897 478 2905.5 486.5Q2914 495 2927 495H2993V565Q2993 606 3005.5 638Q3018 670 3041 692Q3064 714 3096 725.5Q3128 737 3167 737Q3199 737 3227 731.5Q3255 726 3274 719Q3291 713 3296.5 699.5Q3302 686 3298 673.5Q3294 661 3281.5 653.5Q3269 646 3250 653Q3234 658 3214 663Q3194 668 3172 668Q3119 668 3096.5 636.5Q3074 605 3074 558V495H3381Q3394 495 3402.5 486.5Q3411 478 3411 465Q3411 452 3402.5 443.5Q3394 435 3381 435H3328L3464 84L3604 435H3547Q3534 435 3525.5 443.5Q3517 452 3517 465Q3517 478 3525.5 486.5Q3534 495 3547 495ZM2638 642Q2638 671 2657.5 690.5Q2677 710 2705 710Q2734 710 2753.5 690.5Q2773 671 2773 642Q2773 614 2753.5 594.5Q2734 575 2705 575Q2677 575 2657.5 594.5Q2638 614 2638 642ZM378 640H349L265 342H461ZM2751 60H2817Q2830 60 2838.5 51.5Q2847 43 2847 30Q2847 17 2838.5 8.5Q2830 0 2817 0H2604Q2591 0 2582.5 8.5Q2574 17 2574 30Q2574 43 2582.5 51.5Q2591 60 2604 60H2670V435H2604Q2591 435 2582.5 443.5Q2574 452 2574 465Q2574 478 2582.5 486.5Q2591 495 2604 495H2721Q2734 495 2742.5 486.5Q2751 478 2751 465ZM2428 60H2494Q2507 60 2515.5 51.5Q2524 43 2524 30Q2524 17 2515.5 8.5Q2507 0 2494 0H2281Q2268 0 2259.5 8.5Q2251 17 2251 30Q2251 43 2259.5 51.5Q2268 60 2281 60H2347V660H2281Q2268 660 2259.5 668.5Q2251 677 2251 690Q2251 703 2259.5 711.5Q2268 720 2281 720H2398Q2411 720 2419.5 711.5Q2428 703 2428 690ZM1960 56Q1992 56 2020 67.5Q2048 79 2068.5 102.5Q2089 126 2101 162Q2113 198 2113 247Q2113 296 2101 332Q2089 368 2068 391.5Q2047 415 2019 426.5Q1991 438 1960 438Q1928 438 1900.5 426.5Q1873 415 1852 391.5Q1831 368 1819 332Q1807 296 1807 247Q1807 198 1819 162Q1831 126 1852 102.5Q1873 79 1900.5 67.5Q1928 56 1960 56ZM1806 415Q1832 457 1875 481Q1918 505 1975 505Q2024 505 2064 487Q2104 469 2133 436Q2162 403 2178 356Q2194 309 2194 250Q2194 193 2178.5 145Q2163 97 2134.5 62.5Q2106 28 2065 9Q2024 -10 1972 -10Q1921 -10 1878.5 10Q1836 30 1808 75V-160H1880Q1893 -160 1901.5 -168.5Q1910 -177 1910 -190Q1910 -203 1901.5 -211.5Q1893 -220 1880 -220H1671Q1658 -220 1649.5 -211.5Q1641 -203 1641 -190Q1641 -177 1649.5 -168.5Q1658 -160 1671 -160H1727V435H1679Q1666 435 1657.5 443.5Q1649 452 1649 465Q1649 478 1657.5 486.5Q1666 495 1679 495H1776Q1789 495 1797.5 486.5Q1806 478 1806 465ZM746 435Q733 435 724.5 443.5Q716 452 716 465Q716 478 724.5 486.5Q733 495 746 495H843Q856 495 864.5 486.5Q873 478 873 465V415Q924 462 968 483.5Q1012 505 1060 505Q1121 505 1152 476.5Q1183 448 1192 411Q1242 461 1290.5 483Q1339 505 1390 505Q1435 505 1462 490Q1489 475 1504 453.5Q1519 432 1523.5 407Q1528 382 1528 362V60H1580Q1593 60 1601.5 51.5Q1610 43 1610 30Q1610 17 1601.5 8.5Q1593 0 1580 0H1391Q1378 0 1369.5 8.5Q1361 17 1361 30Q1361 43 1369.5 51.5Q1378 60 1391 60H1447V356Q1447 392 1428 413.5Q1409 435 1369 435Q1328 435 1286 412.5Q1244 390 1201 350V60H1253Q1266 60 1274.5 51.5Q1283 43 1283 30Q1283 17 1274.5 8.5Q1266 0 1253 0H1064Q1051 0 1042.5 8.5Q1034 17 1034 30Q1034 43 1042.5 51.5Q1051 60 1064 60H1120V356Q1120 392 1101 413.5Q1082 435 1042 435Q1001 435 959 412.5Q917 390 875 350V60H931Q944 60 952.5 51.5Q961 43 961 30Q961 17 952.5 8.5Q944 0 931 0H476Q463 0 454.5 8.5Q446 17 446 30Q446 43 454.5 51.5Q463 60 476 60H544L481 277H244L183 60H251Q264 60 272.5 51.5Q281 43 281 30Q281 17 272.5 8.5Q264 0 251 0H35Q22 0 13.5 8.5Q5 17 5 30Q5 43 13.5 51.5Q22 60 35 60H99L276 640H191Q178 640 169.5 648.5Q161 657 161 670Q161 683 169.5 691.5Q178 700 191 700H408Q423 700 433 692Q443 684 447 670L634 60H794V435Z" glyph-name="logicalnot" horiz-adv-x="3757" unicode="&#172;" /><glyph d="M69 322Q61 322 55.5 327.5Q50 333 50 341Q50 349 55.5 354.5Q61 360 69 360H419Q427 360 432.5 354.5Q438 349 438 341Q438 333 432.5 327.5Q427 322 419 322Z" glyph-name="minus" horiz-adv-x="488" unicode="&#8722;" /><glyph d="M249 314 93 158Q88 153 79.5 153Q71 153 66 158Q61 163 61 171.5Q61 180 66 185L222 341L66 497Q61 502 61 510.5Q61 519 66 524Q71 529 79.5 529Q88 529 93 524L249 368L405 524Q410 529 418.5 529Q427 529 432 524Q437 519 437 510.5Q437 502 432 497L276 341L432 185Q437 180 437 171.5Q437 163 432 158Q427 153 418.5 153Q410 153 405 158Z" glyph-name="multiply" horiz-adv-x="498" unicode="&#215;" /><glyph d="M107 484Q107 445 120 411.5Q133 378 156 353.5Q179 329 209.5 314.5Q240 300 275 300Q310 300 341 314.5Q372 329 395 353.5Q418 378 431.5 411.5Q445 445 445 484Q445 523 431.5 556.5Q418 590 395 614.5Q372 639 341 653.5Q310 668 275 668Q240 668 209.5 653.5Q179 639 156 614.5Q133 590 120 556.5Q107 523 107 484ZM350 279Q334 271 314 266Q294 261 270 261Q225 261 186.5 278.5Q148 296 120 326.5Q92 357 76 397.5Q60 438 60 484Q60 530 77 571.5Q94 613 123 643.5Q152 674 191.5 692Q231 710 276 710Q321 710 360 692Q399 674 428 643.5Q457 613 474 571.5Q491 530 491 484Q491 454 483 426.5Q475 399 462.5 373Q450 347 433.5 321.5Q417 296 399 270Q388 253 371.5 229Q355 205 332.5 172.5Q310 140 280 97Q250 54 211 0Q205 -9 195.5 -10Q186 -11 178.5 -6.5Q171 -2 168.5 6.5Q166 15 173 25Z" glyph-name="nine" horiz-adv-x="551" unicode="9" /><glyph d="M192 221 131 115Q127 108 120 107Q113 106 107 109Q101 112 98.5 118.5Q96 125 101 133L152 221H69Q61 221 55.5 226.5Q50 232 50 240Q50 248 55.5 253.5Q61 259 69 259H174L268 422H69Q61 422 55.5 427.5Q50 433 50 441Q50 449 55.5 454.5Q61 460 69 460H290L365 588Q369 595 376 596Q383 597 389 594Q395 591 397.5 584.5Q400 578 395 570L331 460H419Q427 460 432.5 454.5Q438 449 438 441Q438 433 432.5 427.5Q427 422 419 422H309L214 259H419Q427 259 432.5 253.5Q438 248 438 240Q438 232 432.5 226.5Q427 221 419 221Z" glyph-name="notequal" horiz-adv-x="488" unicode="&#8800;" /><glyph d="M240 290H401L429 413H268ZM480 452H596Q615 452 615 433Q615 425 609.5 419Q604 413 596 413H472L444 290H567Q586 290 586 271Q586 263 580.5 257Q575 251 567 251H436L382 9Q380 -1 372 -5Q364 -9 356.5 -8Q349 -7 343.5 -1.5Q338 4 340 13L393 251H232L178 9Q176 -1 168 -5Q160 -9 152.5 -8Q145 -7 139.5 -1.5Q134 4 136 13L189 251H79Q60 251 60 270Q60 278 65.5 284Q71 290 79 290H197L225 413H108Q89 413 89 432Q89 440 94.5 446Q100 452 108 452H233L286 688Q288 698 296 702Q304 706 311.5 705Q319 704 324.5 698.5Q330 693 328 684L276 452H437L490 688Q492 698 500 702Q508 706 515.5 705Q523 704 528.5 698.5Q534 693 532 684Z" glyph-name="numbersign" horiz-adv-x="675" unicode="#" /><glyph d="M180 645 73 555Q63 547 54 548Q45 549 40 555Q35 561 35.5 570Q36 579 45 587L177 699Q194 714 209 706.5Q224 699 224 682V18Q224 8 217.5 1.5Q211 -5 201 -5Q191 -5 185.5 1.5Q180 8 180 18Z" glyph-name="one" horiz-adv-x="334" unicode="1" /><glyph d="M441 150Q441 87 464 57.5Q487 28 521 28Q556 28 579 57.5Q602 87 602 150Q602 212 579 242Q556 272 521 272Q487 272 464 242Q441 212 441 150ZM399 150Q399 190 409 220Q419 250 436 269.5Q453 289 475 299Q497 309 521 309Q545 309 567 299Q589 289 606.5 269.5Q624 250 634 220Q644 190 644 150Q644 110 634 80Q624 50 606.5 30Q589 10 567 0Q545 -10 521 -10Q497 -10 475 0Q453 10 436 30Q419 50 409 80Q399 110 399 150ZM89 541Q89 479 112 449Q135 419 169 419Q204 419 227 449Q250 479 250 541Q250 603 227 633Q204 663 169 663Q135 663 112 633Q89 603 89 541ZM47 541Q47 581 57 611Q67 641 84 660.5Q101 680 123 690Q145 700 169 700Q193 700 215 690Q237 680 254.5 660.5Q272 641 282 611Q292 581 292 541Q292 501 282 471Q272 441 254.5 421.5Q237 402 215 392Q193 382 169 382Q145 382 123 392Q101 402 84 421.5Q67 441 57 471Q47 501 47 541ZM95 -2Q89 -10 80.5 -10.5Q72 -11 66.5 -6.5Q61 -2 59.5 6Q58 14 65 23L609 702Q615 710 623.5 710Q632 710 637.5 705.5Q643 701 644.5 693.5Q646 686 639 677Z" glyph-name="percent" horiz-adv-x="693" unicode="%" /><glyph d="M763 150Q763 87 786 57.5Q809 28 843 28Q878 28 901 57.5Q924 87 924 150Q924 212 901 242Q878 272 843 272Q809 272 786 242Q763 212 763 150ZM721 150Q721 190 731 220Q741 250 758 269.5Q775 289 797 299Q819 309 843 309Q867 309 889 299Q911 289 928.5 269.5Q946 250 956 220Q966 190 966 150Q966 110 956 80Q946 50 928.5 30Q911 10 889 0Q867 -10 843 -10Q819 -10 797 0Q775 10 758 30Q741 50 731 80Q721 110 721 150ZM448 150Q448 87 471 57.5Q494 28 528 28Q563 28 586 57.5Q609 87 609 150Q609 212 586 242Q563 272 528 272Q494 272 471 242Q448 212 448 150ZM406 150Q406 190 416 220Q426 250 443 269.5Q460 289 482 299Q504 309 528 309Q552 309 574 299Q596 289 613.5 269.5Q631 250 641 220Q651 190 651 150Q651 110 641 80Q631 50 613.5 30Q596 10 574 0Q552 -10 528 -10Q504 -10 482 0Q460 10 443 30Q426 50 416 80Q406 110 406 150ZM96 541Q96 479 119 449Q142 419 176 419Q211 419 234 449Q257 479 257 541Q257 603 234 633Q211 663 176 663Q142 663 119 633Q96 603 96 541ZM54 541Q54 581 64 611Q74 641 91 660.5Q108 680 130 690Q152 700 176 700Q200 700 222 690Q244 680 261.5 660.5Q279 641 289 611Q299 581 299 541Q299 501 289 471Q279 441 261.5 421.5Q244 402 222 392Q200 382 176 382Q152 382 130 392Q108 402 91 421.5Q74 441 64 471Q54 501 54 541ZM102 -2Q96 -10 87.5 -10.5Q79 -11 73.5 -6.5Q68 -2 66.5 6Q65 14 72 23L616 702Q622 710 630.5 710Q639 710 644.5 705.5Q650 701 651.5 693.5Q653 686 646 677Z" glyph-name="perthousand" horiz-adv-x="1000" unicode="&#8240;" /><glyph d="M284 360H449Q457 360 462.5 354.5Q468 349 468 341Q468 333 462.5 327.5Q457 322 449 322H284V156Q284 148 278 142.5Q272 137 264 137Q256 137 250 142.5Q244 148 244 156V322H79Q71 322 65.5 327.5Q60 333 60 341Q60 349 65.5 354.5Q71 360 79 360H244V526Q244 534 250 539.5Q256 545 264 545Q272 545 278 539.5Q284 534 284 526Z" glyph-name="plus" horiz-adv-x="528" unicode="+" /><glyph d="M284 360H449Q457 360 462.5 354.5Q468 349 468 341Q468 333 462.5 327.5Q457 322 449 322H284V156Q284 148 278 142.5Q272 137 264 137Q256 137 250 142.5Q244 148 244 156V322H79Q71 322 65.5 327.5Q60 333 60 341Q60 349 65.5 354.5Q71 360 79 360H244V526Q244 534 250 539.5Q256 545 264 545Q272 545 278 539.5Q284 534 284 526ZM79 0Q71 0 65.5 5.5Q60 11 60 19Q60 27 65.5 32.5Q71 38 79 38H449Q457 38 462.5 32.5Q468 27 468 19Q468 11 462.5 5.5Q457 0 449 0Z" glyph-name="plusminus" horiz-adv-x="528" unicode="&#177;" /><glyph d="M300 -67Q250 -67 216.5 -58Q183 -49 168 -44Q149 -38 149 -16L151 66Q151 74 156.5 80Q162 86 170 86Q188 86 190 67L194 -10Q207 -15 236 -22Q265 -29 297 -29Q321 -29 345.5 -24Q370 -19 390 -7.5Q410 4 422.5 23.5Q435 43 435 72Q435 102 423 124Q411 146 388 162Q361 181 325 193.5Q289 206 251 218Q213 230 176.5 243.5Q140 257 113 278Q90 296 75 321.5Q60 347 60 382Q60 399 66.5 423Q73 447 94 469Q114 490 149 505Q158 508 165 504.5Q172 501 175.5 494.5Q179 488 177 480.5Q175 473 165 469Q132 455 118.5 432Q105 409 105 387Q105 349 129 325.5Q153 302 190 285Q216 273 246.5 264Q277 255 307.5 245Q338 235 367 223Q396 211 419 194Q446 174 463.5 145.5Q481 117 481 75Q481 38 465 11Q449 -16 423.5 -33Q398 -50 365.5 -58.5Q333 -67 300 -67ZM359 775Q409 775 442.5 766Q476 757 491 752Q510 746 510 724L508 642Q508 634 502.5 628Q497 622 489 622Q471 622 469 641L465 718Q452 723 423 730Q394 737 362 737Q338 737 313.5 732Q289 727 269 715.5Q249 704 236.5 684.5Q224 665 224 636Q224 606 236 584Q248 562 271 546Q295 529 325.5 517.5Q356 506 389.5 495.5Q423 485 456 474Q489 463 517 448Q552 429 575.5 400Q599 371 599 326Q599 309 592.5 285Q586 261 565 239Q545 218 510 203Q501 200 494 203.5Q487 207 483.5 213.5Q480 220 482 227Q484 234 494 239Q527 253 540.5 276Q554 299 554 321Q554 359 530 382.5Q506 406 469 423Q443 435 412.5 444Q382 453 351.5 463Q321 473 292 485Q263 497 240 514Q213 534 195.5 562.5Q178 591 178 633Q178 670 194 697Q210 724 235.5 741Q261 758 293.5 766.5Q326 775 359 775Z" glyph-name="section" horiz-adv-x="659" unicode="&#167;" /><glyph d="M192 12Q188 1 181.5 -2.5Q175 -6 167 -6Q156 -6 148.5 2.5Q141 11 146 25L381 660H65Q57 660 51 666Q45 672 45 680Q45 688 51 694Q57 700 65 700H397Q418 700 426.5 687.5Q435 675 428 655Z" glyph-name="seven" horiz-adv-x="476" unicode="7" /><glyph d="M444 216Q444 255 431 288.5Q418 322 395 346.5Q372 371 341.5 385.5Q311 400 276 400Q241 400 210 385.5Q179 371 156 346.5Q133 322 119.5 288.5Q106 255 106 216Q106 177 119.5 143.5Q133 110 156 85.5Q179 61 210 46.5Q241 32 276 32Q311 32 341.5 46.5Q372 61 395 85.5Q418 110 431 143.5Q444 177 444 216ZM201 421Q217 429 237 434Q257 439 281 439Q326 439 364.5 421.5Q403 404 431 373.5Q459 343 475 302.5Q491 262 491 216Q491 169 474 128Q457 87 428 56.5Q399 26 359.5 8Q320 -10 275 -10Q230 -10 191 8Q152 26 123 56.5Q94 87 77 128Q60 169 60 216Q60 246 68 273.5Q76 301 88.5 327Q101 353 117.5 378.5Q134 404 152 430Q174 464 218.5 527.5Q263 591 340 700Q346 709 355.5 710Q365 711 372.5 706.5Q380 702 382.5 693.5Q385 685 378 675Z" glyph-name="six" horiz-adv-x="551" unicode="6" /><glyph glyph-name="space" horiz-adv-x="500" unicode=" " /><glyph d="M206 386Q207 356 208 326.5Q209 297 209 265H413Q421 265 426.5 259.5Q432 254 432 246Q432 238 426.5 232.5Q421 227 413 227H208Q207 200 202.5 173.5Q198 147 187.5 122Q177 97 159.5 75.5Q142 54 115 38H516Q524 38 529.5 32.5Q535 27 535 19Q535 11 529.5 5.5Q524 0 516 0H65Q58 0 53.5 4.5Q49 9 48 15Q47 21 49.5 27.5Q52 34 59 38Q90 56 110.5 78.5Q131 101 142.5 126Q154 151 159 177Q164 203 165 227H78Q70 227 64.5 232.5Q59 238 59 246Q59 254 64.5 259.5Q70 265 78 265H166Q165 299 164 327.5Q163 356 161 386H78Q70 386 64.5 391.5Q59 397 59 405Q59 413 64.5 418.5Q70 424 78 424H159Q158 444 157.5 467.5Q157 491 157 519Q157 565 172.5 601Q188 637 215 661Q242 685 278 697.5Q314 710 355 710Q390 710 433 700.5Q476 691 509 674Q517 670 518.5 662Q520 654 517 647Q514 640 506 636Q498 632 488 637Q460 649 426 659.5Q392 670 360 670Q328 670 300 661Q272 652 251 633Q230 614 217.5 585.5Q205 557 205 517Q205 491 205 468Q205 445 206 424H413Q421 424 426.5 418.5Q432 413 432 405Q432 397 426.5 391.5Q421 386 413 386Z" glyph-name="sterling" horiz-adv-x="575" unicode="&#163;" /><glyph d="M262 426Q298 429 338 419.5Q378 410 411.5 385Q445 360 466.5 317.5Q488 275 488 212Q488 165 471 124.5Q454 84 425 54Q396 24 357 7Q318 -10 273 -10Q234 -10 199.5 1.5Q165 13 137 35Q109 57 89.5 87Q70 117 62 155Q60 165 60 171Q60 181 66.5 187Q73 193 82 193Q95 193 98.5 185Q102 177 103 173Q104 165 106 158Q108 152 110 145.5Q112 139 114 134Q134 85 177.5 58Q221 31 273 31Q308 31 338.5 45Q369 59 392 83.5Q415 108 428 141.5Q441 175 441 213Q441 252 430.5 282Q420 312 401.5 333Q383 354 359 366.5Q335 379 308 383Q289 386 269 387.5Q249 389 230 384Q217 381 209.5 384.5Q202 388 199.5 394.5Q197 401 198.5 408Q200 415 205 419L409 662H115Q107 662 101.5 667.5Q96 673 96 681Q96 689 101.5 694.5Q107 700 115 700H442Q462 700 467 684.5Q472 669 458 655Z" glyph-name="three" horiz-adv-x="548" unicode="3" /><glyph d="M268 710Q309 710 345.5 696Q382 682 409 657Q436 632 451.5 596Q467 560 467 517Q467 456 435.5 400Q404 344 347 280L134 39L461 40Q469 40 474.5 34Q480 28 480 20Q480 12 474.5 6Q469 0 461 0H93Q78 0 73 14Q68 28 78 39L273 258Q318 309 346.5 344Q375 379 391 408Q408 439 414.5 465Q421 491 421 520Q421 553 409 580.5Q397 608 376 627.5Q355 647 327 658Q299 669 267 669Q210 669 165.5 636Q121 603 107 545Q105 540 105 535.5Q105 531 103 524Q102 521 98.5 514Q95 507 81 507Q74 507 68.5 511.5Q63 516 61 524Q59 534 62 545Q70 582 88.5 612.5Q107 643 134 665Q161 687 195 698.5Q229 710 268 710Z" glyph-name="two" horiz-adv-x="540" unicode="2" /><glyph d="M478 662Q470 662 464.5 667.5Q459 673 459 681Q459 689 464.5 694.5Q470 700 478 700H678Q686 700 691.5 694.5Q697 689 697 681Q697 673 691.5 667.5Q686 662 678 662H612L487 444H595Q603 444 608.5 438.5Q614 433 614 425Q614 417 608.5 411.5Q603 406 595 406H465L396 285H595Q603 285 608.5 279.5Q614 274 614 266Q614 258 608.5 252.5Q603 247 595 247H382V38H478Q486 38 491.5 32.5Q497 27 497 19Q497 11 491.5 5.5Q486 0 478 0H239Q231 0 225.5 5.5Q220 11 220 19Q220 27 225.5 32.5Q231 38 239 38H335V247H119Q111 247 105.5 252.5Q100 258 100 266Q100 274 105.5 279.5Q111 285 119 285H320L250 406H119Q111 406 105.5 411.5Q100 417 100 425Q100 433 105.5 438.5Q111 444 119 444H228L102 662H36Q28 662 22.5 667.5Q17 673 17 681Q17 689 22.5 694.5Q28 700 36 700H236Q244 700 249.5 694.5Q255 689 255 681Q255 673 249.5 667.5Q244 662 236 662H154L359 300L564 662Z" glyph-name="yen" horiz-adv-x="714" unicode="&#165;" /><glyph d="M450 350Q450 510 402 590Q354 670 279 670Q204 670 156 590Q108 510 108 350Q108 190 156 110Q204 30 279 30Q354 30 402 110Q450 190 450 350ZM60 350Q60 440 77 507.5Q94 575 123.5 620Q153 665 193 687.5Q233 710 279 710Q325 710 365 687.5Q405 665 434.5 620Q464 575 481 507.5Q498 440 498 350Q498 260 481 192.5Q464 125 434.5 80Q405 35 365 12.5Q325 -10 279 -10Q233 -10 193 12.5Q153 35 123.5 80Q94 125 77 192.5Q60 260 60 350Z" glyph-name="zero" horiz-adv-x="558" unicode="0" /></font>
</defs>
</svg>
