<?xml version="1.0" encoding="utf-8"?>
<!-- Generator: Adobe Illustrator 16.0.0, SVG Export Plug-In . SVG Version: 6.00 Build 0)  -->
<!DOCTYPE svg PUBLIC "-//W3C//DTD SVG 1.1//EN" "http://www.w3.org/Graphics/SVG/1.1/DTD/svg11.dtd">
<svg version="1.1" id="Layer_1" xmlns="http://www.w3.org/2000/svg" xmlns:xlink="http://www.w3.org/1999/xlink" x="0px" y="0px"
	 width="21px" height="44px" viewBox="0 0 21 44" enable-background="new 0 0 21 44" xml:space="preserve">
<path fill="#FFFFFF" d="M19.503,13h-4.5c0-1.104-0.896-2-2.001-2h-5c-1.104,0-2,0.896-2,2h-4.5c-0.829,0-1.5,0.671-1.5,1.5
	s0.671,1.5,1.5,1.5h0.5v13c0,2.205,1.794,4,4,4h9.001c2.205,0,4-1.795,4-4V16h0.5c0.828,0,1.5-0.671,1.5-1.5S20.331,13,19.503,13z
	 M12.002,16v15h-3V16H12.002z M4.002,29V16h3v15h-1C4.899,31,4.002,30.104,4.002,29z M17.003,29c0,1.104-0.897,2-2,2h-1.001V16
	h3.001V29z"></path>
</svg>
