<?xml version="1.0" encoding="utf-8"?>
<!-- Generator: Adobe Illustrator 16.0.0, SVG Export Plug-In . SVG Version: 6.00 Build 0)  -->
<!DOCTYPE svg PUBLIC "-//W3C//DTD SVG 1.1//EN" "http://www.w3.org/Graphics/SVG/1.1/DTD/svg11.dtd">
<svg version="1.1" id="Layer_1" xmlns="http://www.w3.org/2000/svg" xmlns:xlink="http://www.w3.org/1999/xlink" x="0px" y="0px"
	 width="64px" height="44px" viewBox="0 0 64 44" enable-background="new 0 0 64 44" xml:space="preserve">
<path fill="#FFFFFF" d="M44.447,12.105l-8-4c-0.385-0.192-0.849-0.118-1.154,0.188l-15,15C20.106,23.48,20,23.734,20,24v8
	c0,0.379,0.214,0.725,0.553,0.895l8,4C28.696,36.965,28.848,37,29,37c0.259,0,0.515-0.102,0.707-0.293l15-15
	C44.895,21.52,45,21.266,45,21v-8C45,12.621,44.786,12.275,44.447,12.105z M36.197,10.217l6.114,3.057L28.803,26.783l-6.114-3.057
	L36.197,10.217z M22,25.618l6,3v5.764l-6-3V25.618z M30,33.586v-5.172l13-13v5.172L30,33.586z"/>
</svg>
