<?xml version="1.0" encoding="utf-8"?>
<!-- Generator: Adobe Illustrator 16.0.0, SVG Export Plug-In . SVG Version: 6.00 Build 0)  -->
<!DOCTYPE svg PUBLIC "-//W3C//DTD SVG 1.0//EN" "http://www.w3.org/TR/2001/REC-SVG-20010904/DTD/svg10.dtd">
<svg version="1.0" id="Layer_1" xmlns="http://www.w3.org/2000/svg" xmlns:xlink="http://www.w3.org/1999/xlink" x="0px" y="0px"
	 width="45px" height="45px" viewBox="0 0 45 45" enable-background="new 0 0 45 45" xml:space="preserve">
<path fill="none" stroke="#B3B3B3" stroke-width="1.5" stroke-miterlimit="10" d="M30.551,22.167
	c-0.598-0.43-5.123-3.037-6.438-3.791v-4.799c0-0.977-0.791-1.766-1.764-1.766c-0.977,0-1.766,0.789-1.766,1.766c0,0,0,6.801,0,7.85
	c0,1.053-0.283,2.189-0.979,2.42c-0.652,0.219-1.445-0.27-1.922-0.639l-1.131-1.113c-0.707-0.707-1.887-0.67-2.637,0.078
	c-0.75,0.75-0.785,1.932-0.078,2.639l6.457,6.441c0.379,0.383,0.9,0.562,1.418,0.518c0,0,8.361,0,8.926,0
	c0.725,0,1.031-0.449,1.031-1.568c0-1.912,0-5.492,0-6.02C31.67,23.427,31.25,22.675,30.551,22.167z"/>
</svg>
