<?xml version="1.0" encoding="utf-8"?>
<!-- Generator: Adobe Illustrator 16.0.0, SVG Export Plug-In . SVG Version: 6.00 Build 0)  -->
<!DOCTYPE svg PUBLIC "-//W3C//DTD SVG 1.1//EN" "http://www.w3.org/Graphics/SVG/1.1/DTD/svg11.dtd">
<svg version="1.1" id="Layer_1" xmlns="http://www.w3.org/2000/svg" xmlns:xlink="http://www.w3.org/1999/xlink" x="0px" y="0px"
	 width="64px" height="44px" viewBox="0 0 64 44" enable-background="new 0 0 64 44" xml:space="preserve">
<path fill="#FFFFFF" d="M48.5,13h-18c-1.381,0-2.5,1.119-2.5,2.5V36h23V15.5C51,14.119,49.881,13,48.5,13z M49,34H30V19h19V34z"/>
<path fill="#FFFFFF" d="M22,18h-5v-5c0-0.552-0.447-1-1-1s-1,0.448-1,1v5h-5c-0.553,0-1,0.448-1,1s0.447,1,1,1h5v5
	c0,0.553,0.447,1,1,1s1-0.447,1-1v-5h5c0.553,0,1-0.448,1-1S22.553,18,22,18z"/>
</svg>
