<?xml version="1.0" encoding="utf-8"?>
<!-- Generator: Adobe Illustrator 16.0.0, SVG Export Plug-In . SVG Version: 6.00 Build 0)  -->
<!DOCTYPE svg PUBLIC "-//W3C//DTD SVG 1.0//EN" "http://www.w3.org/TR/2001/REC-SVG-20010904/DTD/svg10.dtd">
<svg version="1.0" id="Layer_1" xmlns="http://www.w3.org/2000/svg" xmlns:xlink="http://www.w3.org/1999/xlink" x="0px" y="0px"
	 width="45px" height="45px" viewBox="0 0 45 45" enable-background="new 0 0 45 45" xml:space="preserve">
<g>
	<polygon fill="none" stroke="#B3B3B3" stroke-width="1.5" stroke-linejoin="round" stroke-miterlimit="10" points="32.212,22.854
		32.212,20.643 31.901,20.543 29.53,19.77 28.899,18.242 30.114,15.678 28.552,14.113 28.257,14.26 26.038,15.385 24.517,14.756
		23.556,12.084 21.347,12.084 21.237,12.396 20.47,14.762 18.948,15.396 16.376,14.176 14.812,15.742 14.964,16.033 16.097,18.252
		15.456,19.779 12.788,20.738 12.788,22.945 13.099,23.049 15.462,23.822 16.099,25.342 14.88,27.912 16.44,29.473 16.743,29.328
		18.956,28.201 20.483,28.836 21.438,31.504 23.647,31.504 23.751,31.197 24.522,28.828 26.05,28.193 28.62,29.41 30.181,27.844
		30.032,27.553 28.903,25.336 29.538,23.809	"/>
	<path fill="none" stroke="#B3B3B3" stroke-width="1.5" stroke-miterlimit="10" d="M22.497,24.578c-1.535,0-2.785-1.242-2.785-2.781
		c0-1.545,1.25-2.791,2.785-2.791s2.787,1.246,2.787,2.791C25.284,23.336,24.032,24.578,22.497,24.578"/>
</g>
</svg>
