<?xml version="1.0" encoding="utf-8"?>
<!-- Generator: Adobe Illustrator 16.0.0, SVG Export Plug-In . SVG Version: 6.00 Build 0)  -->
<!DOCTYPE svg PUBLIC "-//W3C//DTD SVG 1.1//EN" "http://www.w3.org/Graphics/SVG/1.1/DTD/svg11.dtd">
<svg version="1.1" id="Layer_1" xmlns="http://www.w3.org/2000/svg" xmlns:xlink="http://www.w3.org/1999/xlink" x="0px" y="0px"
	 width="64px" height="44px" viewBox="0 0 64 44" enable-background="new 0 0 64 44" xml:space="preserve">
<path fill="#FFFFFF" d="M45.707,29.293l-8-8c-0.391-0.391-1.023-0.391-1.414,0s-0.391,1.023,0,1.414L42.586,29H28
	c-4.411,0-8-3.589-8-8s3.589-8,8-8h14c0.553,0,1-0.448,1-1s-0.447-1-1-1H28c-5.514,0-10,4.486-10,10c0,5.514,4.486,10,10,10h14.586
	l-6.293,6.293c-0.391,0.391-0.391,1.023,0,1.414C36.488,38.902,36.744,39,37,39s0.512-0.098,0.707-0.293l8-8
	C46.098,30.316,46.098,29.684,45.707,29.293z"/>
</svg>
