<svg class="test" version="1.1" id="Layer_1" xmlns="http://www.w3.org/2000/svg" xmlns:xlink="http://www.w3.org/1999/xlink" x="0px" y="0px"
	 width="64px" height="44px" viewBox="0 0 64 44" enable-background="new 0 0 64 44" xml:space="preserve">
	<path fill="#FFFFFF" d="M18.293,15.707l8,8c0.391,0.391,1.023,0.391,1.414,0s0.391-1.023,0-1.414L21.414,16H36c4.411,0,8,3.589,8,8
	s-3.589,8-8,8H22c-0.553,0-1,0.447-1,1s0.447,1,1,1h14c5.514,0,10-4.486,10-10c0-5.514-4.486-10-10-10H21.414l6.293-6.293
	c0.391-0.391,0.391-1.023,0-1.414C27.512,6.098,27.256,6,27,6s-0.512,0.098-0.707,0.293l-8,8
	C17.902,14.684,17.902,15.316,18.293,15.707z"/>
</svg>
