<?xml version="1.0" encoding="utf-8"?>
<!-- Generator: Adobe Illustrator 16.0.0, SVG Export Plug-In . SVG Version: 6.00 Build 0)  -->
<!DOCTYPE svg PUBLIC "-//W3C//DTD SVG 1.1//EN" "http://www.w3.org/Graphics/SVG/1.1/DTD/svg11.dtd">
<svg version="1.1" id="Layer_1" xmlns="http://www.w3.org/2000/svg" xmlns:xlink="http://www.w3.org/1999/xlink" x="0px" y="0px"
	 width="64px" height="44px" viewBox="0 0 64 44" enable-background="new 0 0 64 44" xml:space="preserve">
<path fill="none" d="M64,41c0,1.656-1.343,3-3,3H3c-1.657,0-3-1.344-3-3V3c0-1.657,1.343-3,3-3h58c1.657,0,3,1.343,3,3V41z"/>
<polygon fill="#FFFFFF" points="35,32 35,35 22,35 22,17 27,17 27,15 20,15 20,37 37,37 37,32 "/>
<polygon fill="#FFFFFF" points="29,8 29,13 39,13 39,30 46,30 46,8 "/>
<g>
	<polygon fill="#FFFFFF" points="29,25.232 37,17.232 37,15 36.768,15 29,22.768 	"/>
	<polygon fill="#FFFFFF" points="29,30 30.232,30 37,23.232 37,20.768 29,28.768 	"/>
	<polygon fill="#FFFFFF" points="33.768,30 37,30 37,26.768 	"/>
	<polygon fill="#FFFFFF" points="29,19.232 33.232,15 30.768,15 29,16.768 	"/>
</g>
</svg>
