<?xml version="1.0" encoding="utf-8"?>
<!-- Generator: Adobe Illustrator 16.0.0, SVG Export Plug-In . SVG Version: 6.00 Build 0)  -->
<!DOCTYPE svg PUBLIC "-//W3C//DTD SVG 1.1//EN" "http://www.w3.org/Graphics/SVG/1.1/DTD/svg11.dtd">
<svg version="1.1" id="Layer_1" xmlns="http://www.w3.org/2000/svg" xmlns:xlink="http://www.w3.org/1999/xlink" x="0px" y="0px"
	 width="64px" height="44px" viewBox="0 0 64 44" enable-background="new 0 0 64 44" xml:space="preserve">
<g>
	<g>
		<path fill="#FFFFFF" d="M26.412,21.871c0-2.329-1.762-3.719-4.711-3.719c-2.95,0-4.709,1.39-4.709,3.719
			c0,3.01,2.506,4.199,7.592,3.719c0.572-0.054,1.061-0.154,1.787-0.232c0.205-0.868,0.433-1.812,0.668-2.781
			C26.369,22.645,26.412,22.182,26.412,21.871z M21.701,23.73c-2.826,0-2.826-1.398-2.826-1.859c0-0.46,0-1.859,2.826-1.859
			c2.826,0,2.826,1.399,2.826,1.859C24.527,22.332,24.527,23.73,21.701,23.73z M35.626,19.785c-0.657,1.837-1.347,2.891-1.915,3.707
			c-0.259,0.374-0.498,0.729-0.727,1.148c4.258-0.507,7.422-0.91,7.422-0.91C45.284,22.824,47,18.152,47,18.152
			S35.675,19.777,35.626,19.785z M31.047,26.736c-0.334-0.039-0.873-0.25-0.613-1.012c1.008-2.979,2.468-2.752,3.768-6.99
			l3.015-11.74c0,0-4.905,1.132-6.391,5.805c0,0-2.731,10.722-3.735,15.287c-1.084,4.929-0.184,7.527,2.847,7.881
			c2.344,0.275,3.951-1.286,4.298-4.177C34.582,28.9,33.391,27.012,31.047,26.736z M29.57,22.823c0.516,0,0.934,0.413,0.934,0.921
			s-0.418,0.92-0.934,0.92c-0.514,0-0.933-0.412-0.933-0.92S29.057,22.823,29.57,22.823z M32.363,31.572
			c-0.333,2.77-1.74,2.604-2.203,2.551c-0.464-0.055-1.872-0.219-1.539-2.989c0.332-2.769,1.741-2.604,2.204-2.55
			C31.287,28.637,32.695,28.803,32.363,31.572z"/>
	</g>
</g>
</svg>
