<?xml version="1.0" encoding="utf-8"?>
<!-- Generator: Adobe Illustrator 16.0.0, SVG Export Plug-In . SVG Version: 6.00 Build 0)  -->
<!DOCTYPE svg PUBLIC "-//W3C//DTD SVG 1.1//EN" "http://www.w3.org/Graphics/SVG/1.1/DTD/svg11.dtd">
<svg version="1.1" id="Layer_1" xmlns="http://www.w3.org/2000/svg" xmlns:xlink="http://www.w3.org/1999/xlink" x="0px" y="0px"
	 width="64px" height="44px" viewBox="0 0 64 44" enable-background="new 0 0 64 44" xml:space="preserve">
<polygon fill="#FFFFFF" points="31,13 31,10 44,10 44,28 39,28 39,30 46,30 46,8 29,8 29,13 "/>
<polygon fill="#FFFFFF" points="37,20.232 37,17.768 29,25.768 29,22.232 36.232,15 33.768,15 29,19.768 29,16.232 30.232,15 20,15 
	20,37 37,37 37,30 37,29.768 36.768,30 33.232,30 37,26.232 37,23.768 30.768,30 29,30 29,28.232 "/>
</svg>
