<?xml version="1.0" encoding="utf-8"?>
<!-- Generator: Adobe Illustrator 16.0.0, SVG Export Plug-In . SVG Version: 6.00 Build 0)  -->
<!DOCTYPE svg PUBLIC "-//W3C//DTD SVG 1.1//EN" "http://www.w3.org/Graphics/SVG/1.1/DTD/svg11.dtd">
<svg version="1.1" id="Layer_1" xmlns="http://www.w3.org/2000/svg" xmlns:xlink="http://www.w3.org/1999/xlink" x="0px" y="0px"
	 width="64px" height="44px" viewBox="0 0 64 44" enable-background="new 0 0 64 44" xml:space="preserve">
<path fill="none" d="M64,41c0,1.656-1.343,3-3,3H3c-1.657,0-3-1.344-3-3V3c0-1.657,1.343-3,3-3h58c1.657,0,3,1.343,3,3V41z"/>
<path fill="#FFFFFF" d="M33.914,8.5l2.793-2.793c0.391-0.391,0.391-1.023,0-1.414s-1.023-0.391-1.414,0L32.5,7.086l-2.793-2.793
	c-0.391-0.391-1.023-0.391-1.414,0s-0.391,1.023,0,1.414L31.086,8.5l-2.793,2.793c-0.391,0.391-0.391,1.023,0,1.414
	C28.488,12.902,28.744,13,29,13s0.512-0.098,0.707-0.293L32.5,9.914l2.793,2.793C35.488,12.902,35.744,13,36,13
	s0.512-0.098,0.707-0.293c0.391-0.391,0.391-1.023,0-1.414L33.914,8.5z"/>
<path fill="#FFFFFF" d="M42,11l-6,5.95l-3.5-3.5l-3.5,3.5L23,11h-3v26h25V11H42z M32,35H22v-8h10V35z M32,26.001H22v-8h10V26.001z
	 M43,35H33v-8h10V35z M43,26.001H33v-8h10V26.001z"/>
</svg>
