<?xml version="1.0" encoding="utf-8"?>
<!-- Generator: Adobe Illustrator 16.0.0, SVG Export Plug-In . SVG Version: 6.00 Build 0)  -->
<!DOCTYPE svg PUBLIC "-//W3C//DTD SVG 1.1//EN" "http://www.w3.org/Graphics/SVG/1.1/DTD/svg11.dtd">
<svg version="1.1" id="Layer_1" xmlns="http://www.w3.org/2000/svg" xmlns:xlink="http://www.w3.org/1999/xlink" x="0px" y="0px"
	 width="64px" height="44px" viewBox="0 0 64 44" enable-background="new 0 0 64 44" xml:space="preserve">
<line fill="none" stroke="#FFFFFF" stroke-width="2" stroke-linecap="round" stroke-miterlimit="10" x1="22" y1="18" x2="22" y2="37"/>
<line fill="none" stroke="#FFFFFF" stroke-width="2" stroke-linecap="round" stroke-miterlimit="10" x1="19" y1="34" x2="47" y2="34"/>
<path fill="#FFFFFF" d="M32.923,14.382c0.103-0.244,0.103-0.52,0-0.764c-0.051-0.123-0.124-0.233-0.217-0.326l-3.999-4
	c-0.391-0.391-1.023-0.391-1.414,0s-0.391,1.023,0,1.414L29.586,13H24c-0.553,0-1,0.448-1,1s0.447,1,1,1h5.586l-2.293,2.293
	c-0.391,0.391-0.391,1.023,0,1.414C27.488,18.902,27.744,19,28,19s0.512-0.098,0.707-0.293l3.999-4
	C32.799,14.615,32.872,14.505,32.923,14.382z"/>
<path fill="#FFFFFF" d="M11.077,13.618c-0.102,0.245-0.102,0.52,0,0.764c0.051,0.123,0.124,0.233,0.217,0.325l3.999,4
	c0.391,0.39,1.023,0.391,1.414,0s0.391-1.024,0-1.414L14.414,15H20c0.553,0,1-0.447,1-1c0-0.552-0.447-1-1-1h-5.586l2.293-2.293
	c0.391-0.391,0.391-1.023,0-1.414C16.512,9.097,16.256,9,16,9s-0.512,0.097-0.707,0.292l-3.999,4
	C11.201,13.384,11.128,13.495,11.077,13.618z"/>
<path fill="#FFFFFF" d="M46,13.5c0-1.381-1.119-2.5-2.5-2.5S41,12.119,41,13.5c0,1.209,0.857,2.217,1.997,2.449
	C42.997,15.966,43,15.983,43,16c0,6.065-4.936,11-11,11c-0.018,0-0.033-0.002-0.051-0.002C31.717,25.857,30.709,25,29.5,25
	c-1.381,0-2.5,1.119-2.5,2.5s1.119,2.5,2.5,2.5c1.211,0,2.219-0.859,2.45-2.002C31.967,27.998,31.983,28,32,28
	c6.617,0,12-5.383,12-12c0-0.017-0.002-0.033-0.002-0.05C45.141,15.719,46,14.71,46,13.5z"/>
</svg>
