<?xml version="1.0" standalone="no"?><!DOCTYPE svg PUBLIC "-//W3C//DTD SVG 1.1//EN" "http://www.w3.org/Graphics/SVG/1.1/DTD/svg11.dtd" ><svg version="1.1" xmlns="http://www.w3.org/2000/svg"><defs><font horiz-adv-x="0" id="font"><font-face ascent="750" bbox="-36.7273 -249 3776 947.0952" cap-height="700" descent="-250" font-family="Amplify Light" font-stretch="normal" font-style="normal" font-weight="600" units-per-em="1000" x-height="490" /><missing-glyph horiz-adv-x="250" /><glyph d="M470 300H214L140 38H225Q233 38 238.5 32.5Q244 27 244 19Q244 11 238.5 5.5Q233 0 225 0H26Q18 0 12.5 5.5Q7 11 7 19Q7 27 12.5 32.5Q18 38 26 38H92L276 662H199Q191 662 185.5 667.5Q180 673 180 681Q180 689 185.5 694.5Q191 700 199 700H378Q389 700 396 694.5Q403 689 405 681L597 38H662Q670 38 675.5 32.5Q681 27 681 19Q681 11 675.5 5.5Q670 0 662 0H463Q455 0 449.5 5.5Q444 11 444 19Q444 27 449.5 32.5Q455 38 463 38H547ZM225 338H459L366 662H319Z" glyph-name="A" horiz-adv-x="685" unicode="A" /><glyph d="M292 374H497V662H435ZM497 38V336H273L126 38H221Q229 38 234.5 32.5Q240 27 240 19Q240 11 234.5 5.5Q229 0 221 0H12Q4 0 -1.5 5.5Q-7 11 -7 19Q-7 27 -1.5 32.5Q4 38 12 38H75L388 662H311Q303 662 297.5 667.5Q292 673 292 681Q292 689 297.5 694.5Q303 700 311 700H899Q907 700 912 694.5Q917 689 918 681L930 561Q931 550 925.5 544.5Q920 539 912.5 538.5Q905 538 898 542.5Q891 547 890 557L874 662H544V374H718V455Q718 465 724.5 471.5Q731 478 741 478Q751 478 757.5 471.5Q764 465 764 455V255Q764 245 757.5 238.5Q751 232 741 232Q731 232 724.5 238.5Q718 245 718 255V336H544V38H904L920 153Q921 163 928 167.5Q935 172 942.5 171.5Q950 171 955.5 165.5Q961 160 960 149L948 19Q947 11 942 5.5Q937 0 929 0H411Q403 0 397.5 5.5Q392 11 392 19Q392 27 397.5 32.5Q403 38 411 38Z" glyph-name="AE" horiz-adv-x="1009" unicode="&#198;" /><glyph d="M247 768Q238 762 230.5 763.5Q223 765 219 771Q215 777 216 784.5Q217 792 225 798L418 941Q429 949 439.5 946.5Q450 944 455.5 936.5Q461 929 459.5 918.5Q458 908 446 900ZM470 300H214L140 38H225Q233 38 238.5 32.5Q244 27 244 19Q244 11 238.5 5.5Q233 0 225 0H26Q18 0 12.5 5.5Q7 11 7 19Q7 27 12.5 32.5Q18 38 26 38H92L276 662H199Q191 662 185.5 667.5Q180 673 180 681Q180 689 185.5 694.5Q191 700 199 700H378Q389 700 396 694.5Q403 689 405 681L597 38H662Q670 38 675.5 32.5Q681 27 681 19Q681 11 675.5 5.5Q670 0 662 0H463Q455 0 449.5 5.5Q444 11 444 19Q444 27 449.5 32.5Q455 38 463 38H547ZM225 338H459L366 662H319Z" glyph-name="Aacute" horiz-adv-x="685" unicode="&#193;" /><glyph d="M341 947Q350 947 359 938L501 798Q508 791 507.5 783.5Q507 776 502 770.5Q497 765 489 764.5Q481 764 472 772L341 896L210 772Q201 764 193 764.5Q185 765 180 770.5Q175 776 174.5 783.5Q174 791 181 798L323 938Q332 947 341 947ZM470 300H214L140 38H225Q233 38 238.5 32.5Q244 27 244 19Q244 11 238.5 5.5Q233 0 225 0H26Q18 0 12.5 5.5Q7 11 7 19Q7 27 12.5 32.5Q18 38 26 38H92L276 662H199Q191 662 185.5 667.5Q180 673 180 681Q180 689 185.5 694.5Q191 700 199 700H378Q389 700 396 694.5Q403 689 405 681L597 38H662Q670 38 675.5 32.5Q681 27 681 19Q681 11 675.5 5.5Q670 0 662 0H463Q455 0 449.5 5.5Q444 11 444 19Q444 27 449.5 32.5Q455 38 463 38H547ZM225 338H459L366 662H319Z" glyph-name="Acircumflex" horiz-adv-x="685" unicode="&#194;" /><glyph d="M385 845Q385 865 398.5 878.5Q412 892 432 892Q452 892 465.5 878.5Q479 865 479 845Q479 825 465.5 811.5Q452 798 432 798Q412 798 398.5 811.5Q385 825 385 845ZM201 845Q201 865 214.5 878.5Q228 892 248 892Q268 892 281.5 878.5Q295 865 295 845Q295 825 281.5 811.5Q268 798 248 798Q228 798 214.5 811.5Q201 825 201 845ZM470 300H214L140 38H225Q233 38 238.5 32.5Q244 27 244 19Q244 11 238.5 5.5Q233 0 225 0H26Q18 0 12.5 5.5Q7 11 7 19Q7 27 12.5 32.5Q18 38 26 38H92L276 662H199Q191 662 185.5 667.5Q180 673 180 681Q180 689 185.5 694.5Q191 700 199 700H378Q389 700 396 694.5Q403 689 405 681L597 38H662Q670 38 675.5 32.5Q681 27 681 19Q681 11 675.5 5.5Q670 0 662 0H463Q455 0 449.5 5.5Q444 11 444 19Q444 27 449.5 32.5Q455 38 463 38H547ZM225 338H459L366 662H319Z" glyph-name="Adieresis" horiz-adv-x="685" unicode="&#196;" /><glyph d="M235 900Q223 908 221.5 918.5Q220 929 225.5 936.5Q231 944 241.5 946.5Q252 949 263 941L456 798Q464 792 465 784.5Q466 777 462 771Q458 765 450.5 763.5Q443 762 434 768ZM470 300H214L140 38H225Q233 38 238.5 32.5Q244 27 244 19Q244 11 238.5 5.5Q233 0 225 0H26Q18 0 12.5 5.5Q7 11 7 19Q7 27 12.5 32.5Q18 38 26 38H92L276 662H199Q191 662 185.5 667.5Q180 673 180 681Q180 689 185.5 694.5Q191 700 199 700H378Q389 700 396 694.5Q403 689 405 681L597 38H662Q670 38 675.5 32.5Q681 27 681 19Q681 11 675.5 5.5Q670 0 662 0H463Q455 0 449.5 5.5Q444 11 444 19Q444 27 449.5 32.5Q455 38 463 38H547ZM225 338H459L366 662H319Z" glyph-name="Agrave" horiz-adv-x="685" unicode="&#192;" /><glyph d="M342 830Q317 830 299 813.5Q281 797 281 765Q281 733 299 716.5Q317 700 342 700Q367 700 385 716.5Q403 733 403 765Q403 797 385 813.5Q367 830 342 830ZM225 338H459L366 662H319ZM470 300H214L140 38H225Q233 38 238.5 32.5Q244 27 244 19Q244 11 238.5 5.5Q233 0 225 0H26Q18 0 12.5 5.5Q7 11 7 19Q7 27 12.5 32.5Q18 38 26 38H92L276 662H199Q191 662 185.5 667.5Q180 673 180 681Q180 689 185.5 694.5Q191 700 199 700H261Q239 727 239 765Q239 789 247.5 807.5Q256 826 270 839.5Q284 853 302.5 860Q321 867 342 867Q363 867 381.5 860Q400 853 414 839.5Q428 826 436.5 807.5Q445 789 445 765Q445 737 434 716.5Q423 696 404 682L405 681L597 38H662Q670 38 675.5 32.5Q681 27 681 19Q681 11 675.5 5.5Q670 0 662 0H463Q455 0 449.5 5.5Q444 11 444 19Q444 27 449.5 32.5Q455 38 463 38H547Z" glyph-name="Aring" horiz-adv-x="685" unicode="&#197;" /><glyph d="M230 899Q251 899 272 886Q293 873 312.5 857Q332 841 349.5 828Q367 815 383 815Q407 815 415 833Q423 851 424 875V880Q424 888 429.5 893.5Q435 899 443 899Q451 899 456.5 893.5Q462 888 462 880V869Q462 833 441.5 805Q421 777 379 777Q357 777 336 790Q315 803 296 819Q277 835 259.5 848Q242 861 226 861Q202 861 194 843Q186 825 185 801V796Q185 788 179.5 782.5Q174 777 166 777Q158 777 152.5 782.5Q147 788 147 796V807Q147 843 167.5 871Q188 899 230 899ZM470 300H214L140 38H225Q233 38 238.5 32.5Q244 27 244 19Q244 11 238.5 5.5Q233 0 225 0H26Q18 0 12.5 5.5Q7 11 7 19Q7 27 12.5 32.5Q18 38 26 38H92L276 662H199Q191 662 185.5 667.5Q180 673 180 681Q180 689 185.5 694.5Q191 700 199 700H378Q389 700 396 694.5Q403 689 405 681L597 38H662Q670 38 675.5 32.5Q681 27 681 19Q681 11 675.5 5.5Q670 0 662 0H463Q455 0 449.5 5.5Q444 11 444 19Q444 27 449.5 32.5Q455 38 463 38H547ZM225 338H459L366 662H319Z" glyph-name="Atilde" horiz-adv-x="685" unicode="&#195;" /><glyph d="M64 0Q56 0 50.5 5.5Q45 11 45 19Q45 27 50.5 32.5Q56 38 64 38H150V662H64Q56 662 50.5 667.5Q45 673 45 681Q45 689 50.5 694.5Q56 700 64 700H350Q394 700 430.5 688.5Q467 677 493 656Q519 635 533.5 605Q548 575 548 538Q548 504 538.5 477Q529 450 514.5 429.5Q500 409 481.5 393.5Q463 378 445 367Q477 361 507 348Q537 335 560.5 313Q584 291 598 260Q612 229 612 186Q612 150 599 116.5Q586 83 560.5 57Q535 31 498 15.5Q461 0 413 0ZM565 190Q565 224 551 251Q537 278 512.5 297Q488 316 455 326Q422 336 383 336H197V38H405Q483 38 524 79.5Q565 121 565 190ZM501 531Q501 558 491 582Q481 606 460.5 624Q440 642 408.5 652Q377 662 333 662H197V374H394Q441 399 471 440Q501 481 501 531Z" glyph-name="B" horiz-adv-x="665" unicode="B" /><glyph d="M506 500Q494 551 476.5 583Q459 615 435 635Q389 673 329 673Q281 673 240.5 652.5Q200 632 170.5 590.5Q141 549 124.5 487.5Q108 426 108 345Q108 263 126.5 203.5Q145 144 177.5 105.5Q210 67 254 48.5Q298 30 349 30Q382 30 411.5 36Q441 42 466 52Q491 62 512 73.5Q533 85 549 96Q557 101 565 98.5Q573 96 576.5 89Q580 82 578 73Q576 64 564 57Q557 53 540 42Q523 31 495 19.5Q467 8 429.5 -1Q392 -10 344 -10Q284 -10 232.5 11.5Q181 33 143 76.5Q105 120 83.5 186.5Q62 253 62 343Q62 433 82.5 502Q103 571 138.5 617Q174 663 222 686.5Q270 710 326 710Q361 710 390 701Q419 692 441 678Q463 664 478 646.5Q493 629 502 611L507 691Q508 700 514.5 704.5Q521 709 528.5 709Q536 709 542.5 704Q549 699 549 689V500Q549 491 543 485Q537 479 528 479Q511 479 506 500Z" glyph-name="C" horiz-adv-x="619" unicode="C" /><glyph d="M506 500Q494 551 476.5 583Q459 615 435 635Q389 673 329 673Q281 673 240.5 652.5Q200 632 170.5 590.5Q141 549 124.5 487.5Q108 426 108 345Q108 263 126.5 203.5Q145 144 177.5 105.5Q210 67 254 48.5Q298 30 349 30Q382 30 411.5 36Q441 42 466 52Q491 62 512 73.5Q533 85 549 96Q557 101 565 98.5Q573 96 576.5 89Q580 82 578 73Q576 64 564 57Q557 53 540 42Q523 31 495 19.5Q467 8 429.5 -1Q392 -10 344 -10H336L315 -69Q325 -70 344.5 -73Q364 -76 382.5 -85Q401 -94 415 -111.5Q429 -129 429 -159Q429 -183 418 -200Q407 -217 390.5 -228Q374 -239 354 -244Q334 -249 315 -249Q290 -249 266 -244Q242 -239 226 -230Q216 -223 216 -213Q216 -203 224 -196.5Q232 -190 247 -197Q258 -202 276.5 -206.5Q295 -211 308 -211Q346 -211 365 -197Q384 -183 384 -157Q384 -131 359.5 -118.5Q335 -106 292 -105Q281 -105 272 -96Q263 -87 271 -67L297 -6Q246 1 203 26Q160 51 128.5 94.5Q97 138 79.5 200Q62 262 62 343Q62 433 82.5 502Q103 571 138.5 617Q174 663 222 686.5Q270 710 326 710Q361 710 390 701Q419 692 441 678Q463 664 478 646.5Q493 629 502 611L507 691Q508 700 514.5 704.5Q521 709 528.5 709Q536 709 542.5 704Q549 699 549 689V500Q549 491 543 485Q537 479 528 479Q511 479 506 500Z" glyph-name="Ccedilla" horiz-adv-x="619" unicode="&#199;" /><glyph d="M348 700Q410 700 466.5 681Q523 662 565.5 620Q608 578 633.5 511.5Q659 445 659 350Q659 255 633 188.5Q607 122 563.5 80Q520 38 462.5 19Q405 0 343 0H64Q56 0 50.5 5.5Q45 11 45 19Q45 27 50.5 32.5Q56 38 64 38H150V662H64Q56 662 50.5 667.5Q45 673 45 681Q45 689 50.5 694.5Q56 700 64 700ZM197 662V38H333Q395 38 446.5 56Q498 74 535 112Q572 150 592.5 209Q613 268 613 350Q613 432 592.5 491.5Q572 551 535 588.5Q498 626 446.5 644Q395 662 332 662Z" glyph-name="D" horiz-adv-x="721" unicode="D" /><glyph d="M687 38H763Q771 38 776.5 32.5Q782 27 782 19Q782 11 776.5 5.5Q771 0 763 0H47Q39 0 33.5 5.5Q28 11 28 19Q28 27 33.5 32.5Q39 38 47 38H123L356 665Q364 686 375.5 698Q387 710 404 710Q421 710 432.5 698Q444 686 452 665ZM170 38H637L407 663H400Z" glyph-name="Delta" horiz-adv-x="810" unicode="&#8710;" /><glyph d="M573 153Q574 163 581 167.5Q588 172 595.5 171.5Q603 171 608.5 165.5Q614 160 613 149L601 19Q600 11 595 5.5Q590 0 582 0H64Q56 0 50.5 5.5Q45 11 45 19Q45 27 50.5 32.5Q56 38 64 38H150V662H64Q56 662 50.5 667.5Q45 673 45 681Q45 689 50.5 694.5Q56 700 64 700H552Q560 700 565 694.5Q570 689 571 681L583 561Q584 550 578.5 544.5Q573 539 565.5 538.5Q558 538 551 542.5Q544 547 543 557L527 662H197V374H371V455Q371 465 377.5 471.5Q384 478 394 478Q404 478 410.5 471.5Q417 465 417 455V255Q417 245 410.5 238.5Q404 232 394 232Q384 232 377.5 238.5Q371 245 371 255V336H197V38H557Z" glyph-name="E" horiz-adv-x="662" unicode="E" /><glyph d="M234 768Q225 762 217.5 763.5Q210 765 206 771Q202 777 203 784.5Q204 792 212 798L405 941Q416 949 426.5 946.5Q437 944 442.5 936.5Q448 929 446.5 918.5Q445 908 433 900ZM573 153Q574 163 581 167.5Q588 172 595.5 171.5Q603 171 608.5 165.5Q614 160 613 149L601 19Q600 11 595 5.5Q590 0 582 0H64Q56 0 50.5 5.5Q45 11 45 19Q45 27 50.5 32.5Q56 38 64 38H150V662H64Q56 662 50.5 667.5Q45 673 45 681Q45 689 50.5 694.5Q56 700 64 700H552Q560 700 565 694.5Q570 689 571 681L583 561Q584 550 578.5 544.5Q573 539 565.5 538.5Q558 538 551 542.5Q544 547 543 557L527 662H197V374H371V455Q371 465 377.5 471.5Q384 478 394 478Q404 478 410.5 471.5Q417 465 417 455V255Q417 245 410.5 238.5Q404 232 394 232Q384 232 377.5 238.5Q371 245 371 255V336H197V38H557Z" glyph-name="Eacute" horiz-adv-x="662" unicode="&#201;" /><glyph d="M328 947Q337 947 346 938L488 798Q495 791 494.5 783.5Q494 776 489 770.5Q484 765 476 764.5Q468 764 459 772L328 896L197 772Q188 764 180 764.5Q172 765 167 770.5Q162 776 161.5 783.5Q161 791 168 798L310 938Q319 947 328 947ZM573 153Q574 163 581 167.5Q588 172 595.5 171.5Q603 171 608.5 165.5Q614 160 613 149L601 19Q600 11 595 5.5Q590 0 582 0H64Q56 0 50.5 5.5Q45 11 45 19Q45 27 50.5 32.5Q56 38 64 38H150V662H64Q56 662 50.5 667.5Q45 673 45 681Q45 689 50.5 694.5Q56 700 64 700H552Q560 700 565 694.5Q570 689 571 681L583 561Q584 550 578.5 544.5Q573 539 565.5 538.5Q558 538 551 542.5Q544 547 543 557L527 662H197V374H371V455Q371 465 377.5 471.5Q384 478 394 478Q404 478 410.5 471.5Q417 465 417 455V255Q417 245 410.5 238.5Q404 232 394 232Q384 232 377.5 238.5Q371 245 371 255V336H197V38H557Z" glyph-name="Ecircumflex" horiz-adv-x="662" unicode="&#202;" /><glyph d="M373 845Q373 865 386.5 878.5Q400 892 420 892Q440 892 453.5 878.5Q467 865 467 845Q467 825 453.5 811.5Q440 798 420 798Q400 798 386.5 811.5Q373 825 373 845ZM189 845Q189 865 202.5 878.5Q216 892 236 892Q256 892 269.5 878.5Q283 865 283 845Q283 825 269.5 811.5Q256 798 236 798Q216 798 202.5 811.5Q189 825 189 845ZM573 153Q574 163 581 167.5Q588 172 595.5 171.5Q603 171 608.5 165.5Q614 160 613 149L601 19Q600 11 595 5.5Q590 0 582 0H64Q56 0 50.5 5.5Q45 11 45 19Q45 27 50.5 32.5Q56 38 64 38H150V662H64Q56 662 50.5 667.5Q45 673 45 681Q45 689 50.5 694.5Q56 700 64 700H552Q560 700 565 694.5Q570 689 571 681L583 561Q584 550 578.5 544.5Q573 539 565.5 538.5Q558 538 551 542.5Q544 547 543 557L527 662H197V374H371V455Q371 465 377.5 471.5Q384 478 394 478Q404 478 410.5 471.5Q417 465 417 455V255Q417 245 410.5 238.5Q404 232 394 232Q384 232 377.5 238.5Q371 245 371 255V336H197V38H557Z" glyph-name="Edieresis" horiz-adv-x="662" unicode="&#203;" /><glyph d="M222 900Q210 908 208.5 918.5Q207 929 212.5 936.5Q218 944 228.5 946.5Q239 949 250 941L443 798Q451 792 452 784.5Q453 777 449 771Q445 765 437.5 763.5Q430 762 421 768ZM573 153Q574 163 581 167.5Q588 172 595.5 171.5Q603 171 608.5 165.5Q614 160 613 149L601 19Q600 11 595 5.5Q590 0 582 0H64Q56 0 50.5 5.5Q45 11 45 19Q45 27 50.5 32.5Q56 38 64 38H150V662H64Q56 662 50.5 667.5Q45 673 45 681Q45 689 50.5 694.5Q56 700 64 700H552Q560 700 565 694.5Q570 689 571 681L583 561Q584 550 578.5 544.5Q573 539 565.5 538.5Q558 538 551 542.5Q544 547 543 557L527 662H197V374H371V455Q371 465 377.5 471.5Q384 478 394 478Q404 478 410.5 471.5Q417 465 417 455V255Q417 245 410.5 238.5Q404 232 394 232Q384 232 377.5 238.5Q371 245 371 255V336H197V38H557Z" glyph-name="Egrave" horiz-adv-x="662" unicode="&#200;" /><glyph d="M206 662V374H401Q409 374 414.5 368.5Q420 363 420 355Q420 347 414.5 341.5Q409 336 401 336H206V38H342Q404 38 455.5 56Q507 74 544 112Q581 150 601.5 209Q622 268 622 350Q622 432 601.5 491.5Q581 551 544 588.5Q507 626 455.5 644Q404 662 341 662ZM357 700Q419 700 475.5 681Q532 662 574.5 620Q617 578 642.5 511.5Q668 445 668 350Q668 255 642 188.5Q616 122 572.5 80Q529 38 471.5 19Q414 0 352 0H73Q65 0 59.5 5.5Q54 11 54 19Q54 27 59.5 32.5Q65 38 73 38H159V336H46Q38 336 32.5 341.5Q27 347 27 355Q27 363 32.5 368.5Q38 374 46 374H159V662H73Q65 662 59.5 667.5Q54 673 54 681Q54 689 59.5 694.5Q65 700 73 700Z" glyph-name="Eth" horiz-adv-x="730" unicode="&#208;" /><glyph d="M68 406Q60 406 54.5 411.5Q49 417 49 425Q49 433 54.5 438.5Q60 444 68 444H145Q155 510 179 559.5Q203 609 236.5 642.5Q270 676 312.5 693Q355 710 402 710Q437 710 466 701Q495 692 517 678Q539 664 554 646.5Q569 629 578 611L583 691Q584 700 590.5 704.5Q597 709 604.5 709Q612 709 618.5 704Q625 699 625 689V500Q625 491 619 485Q613 479 604 479Q587 479 582 500Q570 551 552.5 583Q535 615 511 635Q465 673 405 673Q325 673 267.5 615.5Q210 558 191 444H444Q452 444 457.5 438.5Q463 433 463 425Q463 417 457.5 411.5Q452 406 444 406H187Q184 376 184 345Q184 313 187 285H444Q452 285 457.5 279.5Q463 274 463 266Q463 258 457.5 252.5Q452 247 444 247H192Q202 191 223.5 150Q245 109 275.5 82.5Q306 56 344 43Q382 30 425 30Q458 30 484.5 36Q511 42 532.5 52Q554 62 571.5 73.5Q589 85 605 96Q613 101 621 98.5Q629 96 632.5 89Q636 82 634 73Q632 64 620 57Q613 53 599 42Q585 31 561 19.5Q537 8 502.5 -1Q468 -10 420 -10Q369 -10 323.5 5.5Q278 21 242 53Q206 85 181 133Q156 181 145 247H68Q60 247 54.5 252.5Q49 258 49 266Q49 274 54.5 279.5Q60 285 68 285H140Q139 299 138.5 313Q138 327 138 343Q138 376 141 406Z" glyph-name="Euro" horiz-adv-x="700" unicode="&#8364;" /><glyph d="M313 38Q321 38 326.5 32.5Q332 27 332 19Q332 11 326.5 5.5Q321 0 313 0H64Q56 0 50.5 5.5Q45 11 45 19Q45 27 50.5 32.5Q56 38 64 38H150V662H64Q56 662 50.5 667.5Q45 673 45 681Q45 689 50.5 694.5Q56 700 64 700H542Q550 700 555 694.5Q560 689 561 681L573 561Q574 550 568 544.5Q562 539 554.5 538.5Q547 538 540 542.5Q533 547 532 557L517 662H197V364H361V445Q361 455 367.5 461.5Q374 468 384 468Q394 468 400.5 461.5Q407 455 407 445V245Q407 235 400.5 228.5Q394 222 384 222Q374 222 367.5 228.5Q361 235 361 245V326H197V38Z" glyph-name="F" horiz-adv-x="599" unicode="F" /><glyph d="M330 673Q282 673 241.5 652.5Q201 632 171.5 590.5Q142 549 125.5 487.5Q109 426 109 345Q109 263 128 203.5Q147 144 180.5 105.5Q214 67 259 48.5Q304 30 356 30Q386 30 414 35.5Q442 41 465 48.5Q488 56 506 65Q524 74 534 80V293H380Q372 293 366.5 298.5Q361 304 361 312Q361 320 366.5 325.5Q372 331 380 331H639Q647 331 652.5 325.5Q658 320 658 312Q658 304 652.5 298.5Q647 293 639 293H581V81Q581 68 577 62Q573 56 567 52Q532 30 479 10Q426 -10 349 -10Q289 -10 237 11.5Q185 33 146 76.5Q107 120 85 186.5Q63 253 63 343Q63 433 83.5 502Q104 571 139.5 617Q175 663 223 686.5Q271 710 327 710Q362 710 391 701Q420 692 442 678Q464 664 479 646.5Q494 629 503 611L508 691Q509 700 515.5 704.5Q522 709 529.5 709Q537 709 543.5 704Q550 699 550 689V500Q550 491 544 485Q538 479 529 479Q512 479 507 500Q495 551 477.5 583Q460 615 436 635Q390 673 330 673Z" glyph-name="G" horiz-adv-x="686" unicode="G" /><glyph d="M499 662Q491 662 485.5 667.5Q480 673 480 681Q480 689 485.5 694.5Q491 700 499 700H718Q726 700 731.5 694.5Q737 689 737 681Q737 673 731.5 667.5Q726 662 718 662H632V38H718Q726 38 731.5 32.5Q737 27 737 19Q737 11 731.5 5.5Q726 0 718 0H499Q491 0 485.5 5.5Q480 11 480 19Q480 27 485.5 32.5Q491 38 499 38H585V336H197V38H283Q291 38 296.5 32.5Q302 27 302 19Q302 11 296.5 5.5Q291 0 283 0H64Q56 0 50.5 5.5Q45 11 45 19Q45 27 50.5 32.5Q56 38 64 38H150V662H64Q56 662 50.5 667.5Q45 673 45 681Q45 689 50.5 694.5Q56 700 64 700H283Q291 700 296.5 694.5Q302 689 302 681Q302 673 296.5 667.5Q291 662 283 662H197V374H585V662Z" glyph-name="H" horiz-adv-x="782" unicode="H" /><glyph d="M64 662Q56 662 50.5 667.5Q45 673 45 681Q45 689 50.5 694.5Q56 700 64 700H283Q291 700 296.5 694.5Q302 689 302 681Q302 673 296.5 667.5Q291 662 283 662H197V38H283Q291 38 296.5 32.5Q302 27 302 19Q302 11 296.5 5.5Q291 0 283 0H64Q56 0 50.5 5.5Q45 11 45 19Q45 27 50.5 32.5Q56 38 64 38H150V662Z" glyph-name="I" horiz-adv-x="347" unicode="I" /><glyph d="M80 768Q71 762 63.5 763.5Q56 765 52 771Q48 777 49 784.5Q50 792 58 798L251 941Q262 949 272.5 946.5Q283 944 288.5 936.5Q294 929 292.5 918.5Q291 908 279 900ZM64 662Q56 662 50.5 667.5Q45 673 45 681Q45 689 50.5 694.5Q56 700 64 700H283Q291 700 296.5 694.5Q302 689 302 681Q302 673 296.5 667.5Q291 662 283 662H197V38H283Q291 38 296.5 32.5Q302 27 302 19Q302 11 296.5 5.5Q291 0 283 0H64Q56 0 50.5 5.5Q45 11 45 19Q45 27 50.5 32.5Q56 38 64 38H150V662Z" glyph-name="Iacute" horiz-adv-x="347" unicode="&#205;" /><glyph d="M174 947Q183 947 192 938L334 798Q341 791 340.5 783.5Q340 776 335 770.5Q330 765 322 764.5Q314 764 305 772L174 896L43 772Q34 764 26 764.5Q18 765 13 770.5Q8 776 7.5 783.5Q7 791 14 798L156 938Q165 947 174 947ZM64 662Q56 662 50.5 667.5Q45 673 45 681Q45 689 50.5 694.5Q56 700 64 700H283Q291 700 296.5 694.5Q302 689 302 681Q302 673 296.5 667.5Q291 662 283 662H197V38H283Q291 38 296.5 32.5Q302 27 302 19Q302 11 296.5 5.5Q291 0 283 0H64Q56 0 50.5 5.5Q45 11 45 19Q45 27 50.5 32.5Q56 38 64 38H150V662Z" glyph-name="Icircumflex" horiz-adv-x="347" unicode="&#206;" /><glyph d="M219 845Q219 865 232.5 878.5Q246 892 266 892Q286 892 299.5 878.5Q313 865 313 845Q313 825 299.5 811.5Q286 798 266 798Q246 798 232.5 811.5Q219 825 219 845ZM35 845Q35 865 48.5 878.5Q62 892 82 892Q102 892 115.5 878.5Q129 865 129 845Q129 825 115.5 811.5Q102 798 82 798Q62 798 48.5 811.5Q35 825 35 845ZM64 662Q56 662 50.5 667.5Q45 673 45 681Q45 689 50.5 694.5Q56 700 64 700H283Q291 700 296.5 694.5Q302 689 302 681Q302 673 296.5 667.5Q291 662 283 662H197V38H283Q291 38 296.5 32.5Q302 27 302 19Q302 11 296.5 5.5Q291 0 283 0H64Q56 0 50.5 5.5Q45 11 45 19Q45 27 50.5 32.5Q56 38 64 38H150V662Z" glyph-name="Idieresis" horiz-adv-x="347" unicode="&#207;" /><glyph d="M68 900Q56 908 54.5 918.5Q53 929 58.5 936.5Q64 944 74.5 946.5Q85 949 96 941L289 798Q297 792 298 784.5Q299 777 295 771Q291 765 283.5 763.5Q276 762 267 768ZM64 662Q56 662 50.5 667.5Q45 673 45 681Q45 689 50.5 694.5Q56 700 64 700H283Q291 700 296.5 694.5Q302 689 302 681Q302 673 296.5 667.5Q291 662 283 662H197V38H283Q291 38 296.5 32.5Q302 27 302 19Q302 11 296.5 5.5Q291 0 283 0H64Q56 0 50.5 5.5Q45 11 45 19Q45 27 50.5 32.5Q56 38 64 38H150V662Z" glyph-name="Igrave" horiz-adv-x="347" unicode="&#204;" /><glyph d="M147 662H71Q63 662 57.5 667.5Q52 673 52 681Q52 689 57.5 694.5Q63 700 71 700H241Q249 700 254.5 694.5Q260 689 260 681Q260 673 254.5 667.5Q249 662 241 662H195V7Q195 -52 162.5 -82Q130 -112 73 -112Q52 -112 31 -109Q10 -106 -1 -101Q-19 -94 -19 -78Q-19 -69 -10 -62.5Q-1 -56 14 -61Q22 -63 40.5 -66Q59 -69 71 -69Q89 -69 104 -65Q119 -61 129 -50Q147 -29 147 18Z" glyph-name="J" horiz-adv-x="321" unicode="J" /><glyph d="M356 362Q399 345 425 313.5Q451 282 472 248L604 38H680Q688 38 693.5 32.5Q699 27 699 19Q699 11 693.5 5.5Q688 0 680 0H592Q580 0 573.5 4Q567 8 562 16L437 219Q421 245 405.5 266.5Q390 288 373 303.5Q356 319 335.5 327.5Q315 336 290 336H197V38H293Q301 38 306.5 32.5Q312 27 312 19Q312 11 306.5 5.5Q301 0 293 0H64Q56 0 50.5 5.5Q45 11 45 19Q45 27 50.5 32.5Q56 38 64 38H150V662H64Q56 662 50.5 667.5Q45 673 45 681Q45 689 50.5 694.5Q56 700 64 700H293Q301 700 306.5 694.5Q312 689 312 681Q312 673 306.5 667.5Q301 662 293 662H197V374H317L555 662H459Q451 662 445.5 667.5Q440 673 440 681Q440 689 445.5 694.5Q451 700 459 700H658Q666 700 671.5 694.5Q677 689 677 681Q677 673 671.5 667.5Q666 662 658 662H607Z" glyph-name="K" horiz-adv-x="713" unicode="K" /><glyph d="M197 38H517L532 153Q533 163 540 167.5Q547 172 554.5 171.5Q562 171 568 165.5Q574 160 573 149L561 19Q560 11 555 5.5Q550 0 542 0H64Q56 0 50.5 5.5Q45 11 45 19Q45 27 50.5 32.5Q56 38 64 38H150V662H64Q56 662 50.5 667.5Q45 673 45 681Q45 689 50.5 694.5Q56 700 64 700H303Q311 700 316.5 694.5Q322 689 322 681Q322 673 316.5 667.5Q311 662 303 662H197Z" glyph-name="L" horiz-adv-x="601" unicode="L" /><glyph d="M200 352 364 426Q373 430 380 427Q387 424 390 418Q393 412 391 404Q389 396 380 391L200 310V38H520L535 153Q536 163 543 167.5Q550 172 557.5 171.5Q565 171 571 165.5Q577 160 576 149L564 19Q563 11 558 5.5Q553 0 545 0H67Q59 0 53.5 5.5Q48 11 48 19Q48 27 53.5 32.5Q59 38 67 38H153V289L71 252Q62 248 55 251.5Q48 255 45 261.5Q42 268 44 275.5Q46 283 56 288L153 331V662H67Q59 662 53.5 667.5Q48 673 48 681Q48 689 53.5 694.5Q59 700 67 700H306Q314 700 319.5 694.5Q325 689 325 681Q325 673 319.5 667.5Q314 662 306 662H200Z" glyph-name="Lslash" horiz-adv-x="603" unicode="&#321;" /><glyph d="M752 38H838Q846 38 851.5 32.5Q857 27 857 19Q857 11 851.5 5.5Q846 0 838 0H609Q601 0 595.5 5.5Q590 11 590 19Q590 27 595.5 32.5Q601 38 609 38H705V640L471 208Q464 195 450 195Q436 195 429 208L197 640V38H293Q301 38 306.5 32.5Q312 27 312 19Q312 11 306.5 5.5Q301 0 293 0H64Q56 0 50.5 5.5Q45 11 45 19Q45 27 50.5 32.5Q56 38 64 38H150V662H64Q56 662 50.5 667.5Q45 673 45 681Q45 689 50.5 694.5Q56 700 64 700H190Q208 700 217.5 693Q227 686 232 676L452 263L672 676Q678 687 687 693.5Q696 700 714 700H838Q846 700 851.5 694.5Q857 689 857 681Q857 673 851.5 667.5Q846 662 838 662H752Z" glyph-name="M" horiz-adv-x="902" unicode="M" /><glyph d="M644 29Q644 11 634 2Q624 -7 611 -7Q601 -7 592 -2.5Q583 2 576 13L194 641V38H300Q308 38 313.5 32.5Q319 27 319 19Q319 11 313.5 5.5Q308 0 300 0H64Q56 0 50.5 5.5Q45 11 45 19Q45 27 50.5 32.5Q56 38 64 38H150V662H64Q56 662 50.5 667.5Q45 673 45 681Q45 689 50.5 694.5Q56 700 64 700H184Q202 700 211.5 692Q221 684 226 676L600 59V662H514Q506 662 500.5 667.5Q495 673 495 681Q495 689 500.5 694.5Q506 700 514 700H730Q738 700 743.5 694.5Q749 689 749 681Q749 673 743.5 667.5Q738 662 730 662H644Z" glyph-name="N" horiz-adv-x="785" unicode="N" /><glyph d="M325 899Q346 899 367 886Q388 873 407.5 857Q427 841 444.5 828Q462 815 478 815Q502 815 510 833Q518 851 519 875V880Q519 888 524.5 893.5Q530 899 538 899Q546 899 551.5 893.5Q557 888 557 880V869Q557 833 536.5 805Q516 777 474 777Q452 777 431 790Q410 803 391 819Q372 835 354.5 848Q337 861 321 861Q297 861 289 843Q281 825 280 801V796Q280 788 274.5 782.5Q269 777 261 777Q253 777 247.5 782.5Q242 788 242 796V807Q242 843 262.5 871Q283 899 325 899ZM644 29Q644 11 634 2Q624 -7 611 -7Q601 -7 592 -2.5Q583 2 576 13L194 641V38H300Q308 38 313.5 32.5Q319 27 319 19Q319 11 313.5 5.5Q308 0 300 0H64Q56 0 50.5 5.5Q45 11 45 19Q45 27 50.5 32.5Q56 38 64 38H150V662H64Q56 662 50.5 667.5Q45 673 45 681Q45 689 50.5 694.5Q56 700 64 700H184Q202 700 211.5 692Q221 684 226 676L600 59V662H514Q506 662 500.5 667.5Q495 673 495 681Q495 689 500.5 694.5Q506 700 514 700H730Q738 700 743.5 694.5Q749 689 749 681Q749 673 743.5 667.5Q738 662 730 662H644Z" glyph-name="Ntilde" horiz-adv-x="785" unicode="&#209;" /><glyph d="M108 350Q108 271 125.5 211Q143 151 174 110.5Q205 70 246.5 49Q288 28 335 28Q382 28 423.5 49Q465 70 496 110.5Q527 151 545 211Q563 271 563 350Q563 429 545 488.5Q527 548 496 588.5Q465 629 423.5 649.5Q382 670 335 670Q288 670 246.5 649.5Q205 629 174 588.5Q143 548 125.5 488.5Q108 429 108 350ZM62 350Q62 440 83.5 507.5Q105 575 142 620Q179 665 229 687.5Q279 710 335 710Q391 710 441 687.5Q491 665 528.5 620Q566 575 587.5 507.5Q609 440 609 350Q609 260 587.5 192.5Q566 125 528.5 80Q491 35 441 12.5Q391 -10 335 -10Q279 -10 229 12.5Q179 35 142 80Q105 125 83.5 192.5Q62 260 62 350Z" glyph-name="O" horiz-adv-x="671" unicode="O" /><glyph d="M392 662Q329 662 276.5 644Q224 626 186.5 588.5Q149 551 128.5 491.5Q108 432 108 350Q108 268 129 209Q150 150 187.5 112Q225 74 277 56Q329 38 391 38H523V662ZM368 0Q306 0 250.5 21Q195 42 153 85Q111 128 86.5 194Q62 260 62 350Q62 440 85.5 506Q109 572 150 615Q191 658 246 679Q301 700 363 700H925Q933 700 938 694.5Q943 689 944 681L956 561Q957 550 951 544.5Q945 539 937.5 538.5Q930 538 923 542.5Q916 547 915 557L900 662H570V374H744V455Q744 465 750.5 471.5Q757 478 767 478Q777 478 783.5 471.5Q790 465 790 455V255Q790 245 783.5 238.5Q777 232 767 232Q757 232 750.5 238.5Q744 245 744 255V336H570V38H930L945 153Q946 163 953 167.5Q960 172 967.5 171.5Q975 171 981 165.5Q987 160 986 149L974 19Q973 11 968 5.5Q963 0 955 0Z" glyph-name="OE" horiz-adv-x="1035" unicode="&#338;" /><glyph d="M241 768Q232 762 224.5 763.5Q217 765 213 771Q209 777 210 784.5Q211 792 219 798L412 941Q423 949 433.5 946.5Q444 944 449.5 936.5Q455 929 453.5 918.5Q452 908 440 900ZM108 350Q108 271 125.5 211Q143 151 174 110.5Q205 70 246.5 49Q288 28 335 28Q382 28 423.5 49Q465 70 496 110.5Q527 151 545 211Q563 271 563 350Q563 429 545 488.5Q527 548 496 588.5Q465 629 423.5 649.5Q382 670 335 670Q288 670 246.5 649.5Q205 629 174 588.5Q143 548 125.5 488.5Q108 429 108 350ZM62 350Q62 440 83.5 507.5Q105 575 142 620Q179 665 229 687.5Q279 710 335 710Q391 710 441 687.5Q491 665 528.5 620Q566 575 587.5 507.5Q609 440 609 350Q609 260 587.5 192.5Q566 125 528.5 80Q491 35 441 12.5Q391 -10 335 -10Q279 -10 229 12.5Q179 35 142 80Q105 125 83.5 192.5Q62 260 62 350Z" glyph-name="Oacute" horiz-adv-x="671" unicode="&#211;" /><glyph d="M335 947Q344 947 353 938L495 798Q502 791 501.5 783.5Q501 776 496 770.5Q491 765 483 764.5Q475 764 466 772L335 896L204 772Q195 764 187 764.5Q179 765 174 770.5Q169 776 168.5 783.5Q168 791 175 798L317 938Q326 947 335 947ZM108 350Q108 271 125.5 211Q143 151 174 110.5Q205 70 246.5 49Q288 28 335 28Q382 28 423.5 49Q465 70 496 110.5Q527 151 545 211Q563 271 563 350Q563 429 545 488.5Q527 548 496 588.5Q465 629 423.5 649.5Q382 670 335 670Q288 670 246.5 649.5Q205 629 174 588.5Q143 548 125.5 488.5Q108 429 108 350ZM62 350Q62 440 83.5 507.5Q105 575 142 620Q179 665 229 687.5Q279 710 335 710Q391 710 441 687.5Q491 665 528.5 620Q566 575 587.5 507.5Q609 440 609 350Q609 260 587.5 192.5Q566 125 528.5 80Q491 35 441 12.5Q391 -10 335 -10Q279 -10 229 12.5Q179 35 142 80Q105 125 83.5 192.5Q62 260 62 350Z" glyph-name="Ocircumflex" horiz-adv-x="671" unicode="&#212;" /><glyph d="M380 845Q380 865 393.5 878.5Q407 892 427 892Q447 892 460.5 878.5Q474 865 474 845Q474 825 460.5 811.5Q447 798 427 798Q407 798 393.5 811.5Q380 825 380 845ZM196 845Q196 865 209.5 878.5Q223 892 243 892Q263 892 276.5 878.5Q290 865 290 845Q290 825 276.5 811.5Q263 798 243 798Q223 798 209.5 811.5Q196 825 196 845ZM108 350Q108 271 125.5 211Q143 151 174 110.5Q205 70 246.5 49Q288 28 335 28Q382 28 423.5 49Q465 70 496 110.5Q527 151 545 211Q563 271 563 350Q563 429 545 488.5Q527 548 496 588.5Q465 629 423.5 649.5Q382 670 335 670Q288 670 246.5 649.5Q205 629 174 588.5Q143 548 125.5 488.5Q108 429 108 350ZM62 350Q62 440 83.5 507.5Q105 575 142 620Q179 665 229 687.5Q279 710 335 710Q391 710 441 687.5Q491 665 528.5 620Q566 575 587.5 507.5Q609 440 609 350Q609 260 587.5 192.5Q566 125 528.5 80Q491 35 441 12.5Q391 -10 335 -10Q279 -10 229 12.5Q179 35 142 80Q105 125 83.5 192.5Q62 260 62 350Z" glyph-name="Odieresis" horiz-adv-x="671" unicode="&#214;" /><glyph d="M229 900Q217 908 215.5 918.5Q214 929 219.5 936.5Q225 944 235.5 946.5Q246 949 257 941L450 798Q458 792 459 784.5Q460 777 456 771Q452 765 444.5 763.5Q437 762 428 768ZM108 350Q108 271 125.5 211Q143 151 174 110.5Q205 70 246.5 49Q288 28 335 28Q382 28 423.5 49Q465 70 496 110.5Q527 151 545 211Q563 271 563 350Q563 429 545 488.5Q527 548 496 588.5Q465 629 423.5 649.5Q382 670 335 670Q288 670 246.5 649.5Q205 629 174 588.5Q143 548 125.5 488.5Q108 429 108 350ZM62 350Q62 440 83.5 507.5Q105 575 142 620Q179 665 229 687.5Q279 710 335 710Q391 710 441 687.5Q491 665 528.5 620Q566 575 587.5 507.5Q609 440 609 350Q609 260 587.5 192.5Q566 125 528.5 80Q491 35 441 12.5Q391 -10 335 -10Q279 -10 229 12.5Q179 35 142 80Q105 125 83.5 192.5Q62 260 62 350Z" glyph-name="Ograve" horiz-adv-x="671" unicode="&#210;" /><glyph d="M351 710Q424 710 479.5 686.5Q535 663 572.5 624Q610 585 628.5 534.5Q647 484 647 430Q647 388 635.5 348Q624 308 600 275.5Q576 243 538 219Q500 195 446 185V38H566Q574 38 579.5 32.5Q585 27 585 19Q585 11 579.5 5.5Q574 0 566 0H418Q410 0 404.5 5.5Q399 11 399 19V192Q399 206 405 212Q411 218 422 221Q450 228 481 238.5Q512 249 538 271Q564 293 581 332Q598 371 598 435Q598 497 576 541.5Q554 586 518.5 614.5Q483 643 439 656Q395 669 351 669Q307 669 263 656Q219 643 183.5 614.5Q148 586 126 541.5Q104 497 104 435Q104 371 121 332Q138 293 164 271Q190 249 221 238.5Q252 228 280 221Q291 218 297 212Q303 206 303 192V19Q303 11 297.5 5.5Q292 0 284 0H136Q128 0 122.5 5.5Q117 11 117 19Q117 27 122.5 32.5Q128 38 136 38H256V185Q202 195 164 219Q126 243 102 275.5Q78 308 66.5 348Q55 388 55 430Q55 484 73.5 534.5Q92 585 129.5 624Q167 663 222 686.5Q277 710 351 710Z" glyph-name="Omega" horiz-adv-x="702" unicode="&#8486;" /><glyph d="M563 350Q563 428 545.5 487Q528 546 498 586L208 74Q235 51 267.5 39.5Q300 28 335 28Q382 28 423.5 49Q465 70 496 110.5Q527 151 545 211Q563 271 563 350ZM108 350Q108 268 127 206.5Q146 145 179 104L469 618Q412 670 335 670Q288 670 246.5 649.5Q205 629 174 588.5Q143 548 125.5 488.5Q108 429 108 350ZM62 350Q62 440 83.5 507.5Q105 575 142 620Q179 665 229 687.5Q279 710 335 710Q423 710 491 656L550 761Q555 770 563.5 772Q572 774 578.5 770.5Q585 767 588 759Q591 751 586 742L521 628Q562 583 585.5 514Q609 445 609 350Q609 260 587.5 192.5Q566 125 528.5 80Q491 35 441 12.5Q391 -10 335 -10Q252 -10 187 37L130 -65Q125 -74 116.5 -76Q108 -78 101.5 -74.5Q95 -71 92 -63Q89 -55 94 -46L156 64Q112 109 87 179.5Q62 250 62 350Z" glyph-name="Oslash" horiz-adv-x="671" unicode="&#216;" /><glyph d="M261 899Q282 899 303 886Q324 873 343.5 857Q363 841 380.5 828Q398 815 414 815Q438 815 446 833Q454 851 455 875V880Q455 888 460.5 893.5Q466 899 474 899Q482 899 487.5 893.5Q493 888 493 880V869Q493 833 472.5 805Q452 777 410 777Q388 777 367 790Q346 803 327 819Q308 835 290.5 848Q273 861 257 861Q233 861 225 843Q217 825 216 801V796Q216 788 210.5 782.5Q205 777 197 777Q189 777 183.5 782.5Q178 788 178 796V807Q178 843 198.5 871Q219 899 261 899ZM108 350Q108 271 125.5 211Q143 151 174 110.5Q205 70 246.5 49Q288 28 335 28Q382 28 423.5 49Q465 70 496 110.5Q527 151 545 211Q563 271 563 350Q563 429 545 488.5Q527 548 496 588.5Q465 629 423.5 649.5Q382 670 335 670Q288 670 246.5 649.5Q205 629 174 588.5Q143 548 125.5 488.5Q108 429 108 350ZM62 350Q62 440 83.5 507.5Q105 575 142 620Q179 665 229 687.5Q279 710 335 710Q391 710 441 687.5Q491 665 528.5 620Q566 575 587.5 507.5Q609 440 609 350Q609 260 587.5 192.5Q566 125 528.5 80Q491 35 441 12.5Q391 -10 335 -10Q279 -10 229 12.5Q179 35 142 80Q105 125 83.5 192.5Q62 260 62 350Z" glyph-name="Otilde" horiz-adv-x="671" unicode="&#213;" /><glyph d="M502 504Q502 579 456.5 620.5Q411 662 341 662H197V342H331Q412 342 457 385.5Q502 429 502 504ZM64 662Q56 662 50.5 667.5Q45 673 45 681Q45 689 50.5 694.5Q56 700 64 700H349Q395 700 432 685.5Q469 671 495 645Q521 619 535.5 583Q550 547 550 505Q550 463 535 426Q520 389 492.5 362Q465 335 425.5 319.5Q386 304 338 304H197V38H303Q311 38 316.5 32.5Q322 27 322 19Q322 11 316.5 5.5Q311 0 303 0H64Q56 0 50.5 5.5Q45 11 45 19Q45 27 50.5 32.5Q56 38 64 38H150V662Z" glyph-name="P" horiz-adv-x="590" unicode="P" /><glyph d="M108 350Q108 271 125.5 211Q143 151 174 110.5Q205 70 246.5 49Q288 28 335 28Q392 28 442 59L300 228Q294 236 295 245Q296 254 303 260Q311 266 320 265Q329 264 335 257L477 88Q516 128 539.5 193.5Q563 259 563 350Q563 429 545 488.5Q527 548 496 588.5Q465 629 423.5 649.5Q382 670 335 670Q288 670 246.5 649.5Q205 629 174 588.5Q143 548 125.5 488.5Q108 429 108 350ZM62 350Q62 440 83.5 507.5Q105 575 142 620Q179 665 229 687.5Q279 710 335 710Q391 710 441 687.5Q491 665 528.5 620Q566 575 587.5 507.5Q609 440 609 350Q609 246 581 172.5Q553 99 505 55L612 -72Q618 -80 617 -89Q616 -98 609 -104Q601 -110 592 -109Q583 -108 577 -101L469 27Q439 8 405 -1Q371 -10 335 -10Q279 -10 229 12.5Q179 35 142 80Q105 125 83.5 192.5Q62 260 62 350Z" glyph-name="Q" horiz-adv-x="672" unicode="Q" /><glyph d="M597 0 465 201Q432 251 399 284Q366 317 320 317H197V38H303Q311 38 316.5 32.5Q322 27 322 19Q322 11 316.5 5.5Q311 0 303 0H64Q56 0 50.5 5.5Q45 11 45 19Q45 27 50.5 32.5Q56 38 64 38H150V662H64Q56 662 50.5 667.5Q45 673 45 681Q45 689 50.5 694.5Q56 700 64 700H374Q420 700 457.5 686.5Q495 673 521.5 648Q548 623 562.5 588Q577 553 577 511Q577 476 564 445.5Q551 415 527.5 391Q504 367 471 351Q438 335 399 329Q415 323 430.5 309.5Q446 296 459.5 281Q473 266 483 252Q493 238 499 230L631 38H691Q699 38 704.5 32.5Q710 27 710 19Q710 11 704.5 5.5Q699 0 691 0ZM197 355H348Q384 355 417 365.5Q450 376 474.5 396Q499 416 514 445Q529 474 529 511Q529 548 517 576.5Q505 605 483.5 624Q462 643 432.5 652.5Q403 662 368 662H197Z" glyph-name="R" horiz-adv-x="687" unicode="R" /><glyph d="M430 654Q395 662 360.5 667Q326 672 295 672Q260 672 227 664.5Q194 657 168.5 640.5Q143 624 127 597.5Q111 571 111 533Q111 494 128 468.5Q145 443 172.5 425Q200 407 235.5 395Q271 383 308.5 371.5Q346 360 381.5 346.5Q417 333 444.5 313Q472 293 489 264Q506 235 506 192Q506 147 490.5 110Q475 73 443.5 46Q412 19 363 4.5Q314 -10 248 -10Q193 -10 153 0Q113 10 91 19Q68 28 68 54V168Q68 177 74 183Q80 189 89 189Q98 189 103.5 183Q109 177 110 168L116 56Q147 45 181.5 36.5Q216 28 254 28Q293 28 330 36Q367 44 396 62.5Q425 81 443 111.5Q461 142 461 186Q461 232 437.5 259Q414 286 375 303Q346 316 312 326Q278 336 243.5 347Q209 358 177.5 372Q146 386 121.5 407Q97 428 82 458Q67 488 67 531Q67 580 86 614Q105 648 137 669.5Q169 691 211 700.5Q253 710 298 710Q387 710 457 688Q480 679 480 653L478 540Q478 531 472 525Q466 519 457 519Q448 519 442.5 525Q437 531 436 540Z" glyph-name="S" horiz-adv-x="562" unicode="S" /><glyph d="M281 764Q272 764 263 773L121 913Q114 920 114.5 927.5Q115 935 120 940.5Q125 946 133 946.5Q141 947 150 939L281 815L412 939Q421 947 429 946.5Q437 946 442 940.5Q447 935 447.5 927.5Q448 920 441 913L299 773Q290 764 281 764ZM430 654Q395 662 360.5 667Q326 672 295 672Q260 672 227 664.5Q194 657 168.5 640.5Q143 624 127 597.5Q111 571 111 533Q111 494 128 468.5Q145 443 172.5 425Q200 407 235.5 395Q271 383 308.5 371.5Q346 360 381.5 346.5Q417 333 444.5 313Q472 293 489 264Q506 235 506 192Q506 147 490.5 110Q475 73 443.5 46Q412 19 363 4.5Q314 -10 248 -10Q193 -10 153 0Q113 10 91 19Q68 28 68 54V168Q68 177 74 183Q80 189 89 189Q98 189 103.5 183Q109 177 110 168L116 56Q147 45 181.5 36.5Q216 28 254 28Q293 28 330 36Q367 44 396 62.5Q425 81 443 111.5Q461 142 461 186Q461 232 437.5 259Q414 286 375 303Q346 316 312 326Q278 336 243.5 347Q209 358 177.5 372Q146 386 121.5 407Q97 428 82 458Q67 488 67 531Q67 580 86 614Q105 648 137 669.5Q169 691 211 700.5Q253 710 298 710Q387 710 457 688Q480 679 480 653L478 540Q478 531 472 525Q466 519 457 519Q448 519 442.5 525Q437 531 436 540Z" glyph-name="Scaron" horiz-adv-x="562" unicode="&#352;" /><glyph d="M535 662H330V38H426Q434 38 439.5 32.5Q445 27 445 19Q445 11 439.5 5.5Q434 0 426 0H187Q179 0 173.5 5.5Q168 11 168 19Q168 27 173.5 32.5Q179 38 187 38H283V662H78L67 568Q64 550 46 550Q39 550 33 555Q27 560 28 570L36 675Q38 700 64 700H549Q575 700 577 675L585 570Q586 560 580 555Q574 550 567 550Q549 550 546 568Z" glyph-name="T" horiz-adv-x="613" unicode="T" /><glyph d="M502 358Q502 433 456.5 474.5Q411 516 341 516H197V196H331Q412 196 457 239.5Q502 283 502 358ZM303 38Q311 38 316.5 32.5Q322 27 322 19Q322 11 316.5 5.5Q311 0 303 0H64Q56 0 50.5 5.5Q45 11 45 19Q45 27 50.5 32.5Q56 38 64 38H150V662H64Q56 662 50.5 667.5Q45 673 45 681Q45 689 50.5 694.5Q56 700 64 700H303Q311 700 316.5 694.5Q322 689 322 681Q322 673 316.5 667.5Q311 662 303 662H197V554H349Q395 554 432 539.5Q469 525 495 499Q521 473 535.5 437Q550 401 550 359Q550 317 535 280Q520 243 492.5 216Q465 189 425.5 173.5Q386 158 338 158H197V38Z" glyph-name="Thorn" horiz-adv-x="594" unicode="&#222;" /><glyph d="M642 252Q642 173 621 122Q600 71 564 42Q528 13 481.5 1.5Q435 -10 384 -10Q333 -10 286.5 1Q240 12 204 41Q168 70 147 120.5Q126 171 126 250V662H60Q52 662 46.5 667.5Q41 673 41 681Q41 689 46.5 694.5Q52 700 60 700H259Q267 700 272.5 694.5Q278 689 278 681Q278 673 272.5 667.5Q267 662 259 662H173V253Q173 185 190.5 142Q208 99 237.5 74Q267 49 305 39.5Q343 30 384 30Q425 30 463 39.5Q501 49 530.5 74Q560 99 577.5 142Q595 185 595 253V662H509Q501 662 495.5 667.5Q490 673 490 681Q490 689 495.5 694.5Q501 700 509 700H708Q716 700 721.5 694.5Q727 689 727 681Q727 673 721.5 667.5Q716 662 708 662H642Z" glyph-name="U" horiz-adv-x="768" unicode="U" /><glyph d="M290 768Q281 762 273.5 763.5Q266 765 262 771Q258 777 259 784.5Q260 792 268 798L461 941Q472 949 482.5 946.5Q493 944 498.5 936.5Q504 929 502.5 918.5Q501 908 489 900ZM642 252Q642 173 621 122Q600 71 564 42Q528 13 481.5 1.5Q435 -10 384 -10Q333 -10 286.5 1Q240 12 204 41Q168 70 147 120.5Q126 171 126 250V662H60Q52 662 46.5 667.5Q41 673 41 681Q41 689 46.5 694.5Q52 700 60 700H259Q267 700 272.5 694.5Q278 689 278 681Q278 673 272.5 667.5Q267 662 259 662H173V253Q173 185 190.5 142Q208 99 237.5 74Q267 49 305 39.5Q343 30 384 30Q425 30 463 39.5Q501 49 530.5 74Q560 99 577.5 142Q595 185 595 253V662H509Q501 662 495.5 667.5Q490 673 490 681Q490 689 495.5 694.5Q501 700 509 700H708Q716 700 721.5 694.5Q727 689 727 681Q727 673 721.5 667.5Q716 662 708 662H642Z" glyph-name="Uacute" horiz-adv-x="768" unicode="&#218;" /><glyph d="M384 947Q393 947 402 938L544 798Q551 791 550.5 783.5Q550 776 545 770.5Q540 765 532 764.5Q524 764 515 772L384 896L253 772Q244 764 236 764.5Q228 765 223 770.5Q218 776 217.5 783.5Q217 791 224 798L366 938Q375 947 384 947ZM642 252Q642 173 621 122Q600 71 564 42Q528 13 481.5 1.5Q435 -10 384 -10Q333 -10 286.5 1Q240 12 204 41Q168 70 147 120.5Q126 171 126 250V662H60Q52 662 46.5 667.5Q41 673 41 681Q41 689 46.5 694.5Q52 700 60 700H259Q267 700 272.5 694.5Q278 689 278 681Q278 673 272.5 667.5Q267 662 259 662H173V253Q173 185 190.5 142Q208 99 237.5 74Q267 49 305 39.5Q343 30 384 30Q425 30 463 39.5Q501 49 530.5 74Q560 99 577.5 142Q595 185 595 253V662H509Q501 662 495.5 667.5Q490 673 490 681Q490 689 495.5 694.5Q501 700 509 700H708Q716 700 721.5 694.5Q727 689 727 681Q727 673 721.5 667.5Q716 662 708 662H642Z" glyph-name="Ucircumflex" horiz-adv-x="768" unicode="&#219;" /><glyph d="M428 845Q428 865 441.5 878.5Q455 892 475 892Q495 892 508.5 878.5Q522 865 522 845Q522 825 508.5 811.5Q495 798 475 798Q455 798 441.5 811.5Q428 825 428 845ZM244 845Q244 865 257.5 878.5Q271 892 291 892Q311 892 324.5 878.5Q338 865 338 845Q338 825 324.5 811.5Q311 798 291 798Q271 798 257.5 811.5Q244 825 244 845ZM642 252Q642 173 621 122Q600 71 564 42Q528 13 481.5 1.5Q435 -10 384 -10Q333 -10 286.5 1Q240 12 204 41Q168 70 147 120.5Q126 171 126 250V662H60Q52 662 46.5 667.5Q41 673 41 681Q41 689 46.5 694.5Q52 700 60 700H259Q267 700 272.5 694.5Q278 689 278 681Q278 673 272.5 667.5Q267 662 259 662H173V253Q173 185 190.5 142Q208 99 237.5 74Q267 49 305 39.5Q343 30 384 30Q425 30 463 39.5Q501 49 530.5 74Q560 99 577.5 142Q595 185 595 253V662H509Q501 662 495.5 667.5Q490 673 490 681Q490 689 495.5 694.5Q501 700 509 700H708Q716 700 721.5 694.5Q727 689 727 681Q727 673 721.5 667.5Q716 662 708 662H642Z" glyph-name="Udieresis" horiz-adv-x="768" unicode="&#220;" /><glyph d="M278 900Q266 908 264.5 918.5Q263 929 268.5 936.5Q274 944 284.5 946.5Q295 949 306 941L499 798Q507 792 508 784.5Q509 777 505 771Q501 765 493.5 763.5Q486 762 477 768ZM642 252Q642 173 621 122Q600 71 564 42Q528 13 481.5 1.5Q435 -10 384 -10Q333 -10 286.5 1Q240 12 204 41Q168 70 147 120.5Q126 171 126 250V662H60Q52 662 46.5 667.5Q41 673 41 681Q41 689 46.5 694.5Q52 700 60 700H259Q267 700 272.5 694.5Q278 689 278 681Q278 673 272.5 667.5Q267 662 259 662H173V253Q173 185 190.5 142Q208 99 237.5 74Q267 49 305 39.5Q343 30 384 30Q425 30 463 39.5Q501 49 530.5 74Q560 99 577.5 142Q595 185 595 253V662H509Q501 662 495.5 667.5Q490 673 490 681Q490 689 495.5 694.5Q501 700 509 700H708Q716 700 721.5 694.5Q727 689 727 681Q727 673 721.5 667.5Q716 662 708 662H642Z" glyph-name="Ugrave" horiz-adv-x="768" unicode="&#217;" /><glyph d="M386 35Q372 -10 338 -10Q304 -10 290 35L87 662H21Q13 662 7.5 667.5Q2 673 2 681Q2 689 7.5 694.5Q13 700 21 700H221Q229 700 234.5 694.5Q240 689 240 681Q240 673 234.5 667.5Q229 662 221 662H135L335 37H342L542 662H455Q447 662 441.5 667.5Q436 673 436 681Q436 689 441.5 694.5Q447 700 455 700H655Q663 700 668.5 694.5Q674 689 674 681Q674 673 668.5 667.5Q663 662 655 662H589Z" glyph-name="V" horiz-adv-x="676" unicode="V" /><glyph d="M822 35Q808 -10 774 -10Q740 -10 726 35L551 630L376 35Q362 -10 328 -10Q294 -10 280 35L87 662H21Q13 662 7.5 667.5Q2 673 2 681Q2 689 7.5 694.5Q13 700 21 700H221Q229 700 234.5 694.5Q240 689 240 681Q240 673 234.5 667.5Q229 662 221 662H135L325 37H332L519 662H445Q437 662 431.5 667.5Q426 673 426 681Q426 689 431.5 694.5Q437 700 445 700H657Q665 700 670.5 694.5Q676 689 676 681Q676 673 670.5 667.5Q665 662 657 662H584L771 37H778L968 662H881Q873 662 867.5 667.5Q862 673 862 681Q862 689 867.5 694.5Q873 700 881 700H1081Q1089 700 1094.5 694.5Q1100 689 1100 681Q1100 673 1094.5 667.5Q1089 662 1081 662H1015Z" glyph-name="W" horiz-adv-x="1102" unicode="W" /><glyph d="M341 317 162 38H253Q261 38 266.5 32.5Q272 27 272 19Q272 11 266.5 5.5Q261 0 253 0H35Q27 0 21.5 5.5Q16 11 16 19Q16 27 21.5 32.5Q27 38 35 38H109L314 352L117 662H51Q43 662 37.5 667.5Q32 673 32 681Q32 689 37.5 694.5Q43 700 51 700H259Q267 700 272.5 694.5Q278 689 278 681Q278 673 272.5 667.5Q267 662 259 662H173L342 386L518 662H429Q421 662 415.5 667.5Q410 673 410 681Q410 689 415.5 694.5Q421 700 429 700H637Q645 700 650.5 694.5Q656 689 656 681Q656 673 650.5 667.5Q645 662 637 662H571L369 352L573 38H647Q655 38 660.5 32.5Q666 27 666 19Q666 11 660.5 5.5Q655 0 647 0H429Q421 0 415.5 5.5Q410 11 410 19Q410 27 415.5 32.5Q421 38 429 38H517Z" glyph-name="X" horiz-adv-x="685" unicode="X" /><glyph d="M462 662Q454 662 448.5 667.5Q443 673 443 681Q443 689 448.5 694.5Q454 700 462 700H662Q670 700 675.5 694.5Q681 689 681 681Q681 673 675.5 667.5Q670 662 662 662H596L366 260V38H462Q470 38 475.5 32.5Q481 27 481 19Q481 11 475.5 5.5Q470 0 462 0H223Q215 0 209.5 5.5Q204 11 204 19Q204 27 209.5 32.5Q215 38 223 38H319V260L86 662H20Q12 662 6.5 667.5Q1 673 1 681Q1 689 6.5 694.5Q12 700 20 700H220Q228 700 233.5 694.5Q239 689 239 681Q239 673 233.5 667.5Q228 662 220 662H138L343 300L548 662Z" glyph-name="Y" horiz-adv-x="684" unicode="Y" /><glyph d="M247 768Q238 762 230.5 763.5Q223 765 219 771Q215 777 216 784.5Q217 792 225 798L418 941Q429 949 439.5 946.5Q450 944 455.5 936.5Q461 929 459.5 918.5Q458 908 446 900ZM462 662Q454 662 448.5 667.5Q443 673 443 681Q443 689 448.5 694.5Q454 700 462 700H662Q670 700 675.5 694.5Q681 689 681 681Q681 673 675.5 667.5Q670 662 662 662H596L366 260V38H462Q470 38 475.5 32.5Q481 27 481 19Q481 11 475.5 5.5Q470 0 462 0H223Q215 0 209.5 5.5Q204 11 204 19Q204 27 209.5 32.5Q215 38 223 38H319V260L86 662H20Q12 662 6.5 667.5Q1 673 1 681Q1 689 6.5 694.5Q12 700 20 700H220Q228 700 233.5 694.5Q239 689 239 681Q239 673 233.5 667.5Q228 662 220 662H138L343 300L548 662Z" glyph-name="Yacute" horiz-adv-x="684" unicode="&#221;" /><glyph d="M386 845Q386 865 399.5 878.5Q413 892 433 892Q453 892 466.5 878.5Q480 865 480 845Q480 825 466.5 811.5Q453 798 433 798Q413 798 399.5 811.5Q386 825 386 845ZM202 845Q202 865 215.5 878.5Q229 892 249 892Q269 892 282.5 878.5Q296 865 296 845Q296 825 282.5 811.5Q269 798 249 798Q229 798 215.5 811.5Q202 825 202 845ZM462 662Q454 662 448.5 667.5Q443 673 443 681Q443 689 448.5 694.5Q454 700 462 700H662Q670 700 675.5 694.5Q681 689 681 681Q681 673 675.5 667.5Q670 662 662 662H596L366 260V38H462Q470 38 475.5 32.5Q481 27 481 19Q481 11 475.5 5.5Q470 0 462 0H223Q215 0 209.5 5.5Q204 11 204 19Q204 27 209.5 32.5Q215 38 223 38H319V260L86 662H20Q12 662 6.5 667.5Q1 673 1 681Q1 689 6.5 694.5Q12 700 20 700H220Q228 700 233.5 694.5Q239 689 239 681Q239 673 233.5 667.5Q228 662 220 662H138L343 300L548 662Z" glyph-name="Ydieresis" horiz-adv-x="684" unicode="&#376;" /><glyph d="M54 0Q39 0 34.5 13.5Q30 27 39 39L508 662H128L122 540Q122 531 116 525Q110 519 101 519Q92 519 86 525Q80 531 80 540L78 675Q78 686 85.5 694Q93 702 103 700H546Q561 700 566 687Q571 674 562 662L92 38H512L528 153Q529 163 536 167.5Q543 172 550.5 171.5Q558 171 563.5 165.5Q569 160 568 149L556 19Q555 11 550 5.5Q545 0 537 0Z" glyph-name="Z" horiz-adv-x="622" unicode="Z" /><glyph d="M315 764Q306 764 297 773L155 913Q148 920 148.5 927.5Q149 935 154 940.5Q159 946 167 946.5Q175 947 184 939L315 815L446 939Q455 947 463 946.5Q471 946 476 940.5Q481 935 481.5 927.5Q482 920 475 913L333 773Q324 764 315 764ZM54 0Q39 0 34.5 13.5Q30 27 39 39L508 662H128L122 540Q122 531 116 525Q110 519 101 519Q92 519 86 525Q80 531 80 540L78 675Q78 686 85.5 694Q93 702 103 700H546Q561 700 566 687Q571 674 562 662L92 38H512L528 153Q529 163 536 167.5Q543 172 550.5 171.5Q558 171 563.5 165.5Q569 160 568 149L556 19Q555 11 550 5.5Q545 0 537 0Z" glyph-name="Zcaron" horiz-adv-x="622" unicode="&#381;" /><glyph d="M246 500Q281 500 311 491.5Q341 483 362.5 464.5Q384 446 396.5 417Q409 388 409 347V110Q409 72 416 50Q423 28 458 28Q463 28 471.5 29.5Q480 31 488 33Q500 35 505.5 29.5Q511 24 511 17Q511 3 494 -3.5Q477 -10 450 -10Q424 -10 407.5 -1Q391 8 382 21Q373 34 369.5 49Q366 64 366 77Q355 63 338.5 47.5Q322 32 300 19Q278 6 251 -2Q224 -10 193 -10Q126 -10 86.5 27.5Q47 65 47 123Q47 175 81 206.5Q115 238 167 252Q211 264 261 270.5Q311 277 362 279V340Q362 406 331 433Q300 460 238 460Q209 460 178 451.5Q147 443 124 432L119 343Q119 335 112.5 330.5Q106 326 99 326Q92 326 86 330Q80 334 80 343V480Q80 488 84 494Q88 500 98 500Q113 500 116 484L119 469Q139 479 171.5 489.5Q204 500 246 500ZM362 240Q341 239 315.5 237Q290 235 263.5 231Q237 227 211.5 221.5Q186 216 164 208Q133 197 113.5 174.5Q94 152 94 120Q94 80 124 54.5Q154 29 200 29Q225 29 249.5 37.5Q274 46 295.5 59.5Q317 73 334 89.5Q351 106 362 123Z" glyph-name="a" horiz-adv-x="513" unicode="a" /><glyph d="M159 558Q150 552 142.5 553.5Q135 555 131 561Q127 567 128 574.5Q129 582 137 588L330 731Q341 739 351.5 736.5Q362 734 367.5 726.5Q373 719 371.5 708.5Q370 698 358 690ZM246 500Q281 500 311 491.5Q341 483 362.5 464.5Q384 446 396.5 417Q409 388 409 347V110Q409 72 416 50Q423 28 458 28Q463 28 471.5 29.5Q480 31 488 33Q500 35 505.5 29.5Q511 24 511 17Q511 3 494 -3.5Q477 -10 450 -10Q424 -10 407.5 -1Q391 8 382 21Q373 34 369.5 49Q366 64 366 77Q355 63 338.5 47.5Q322 32 300 19Q278 6 251 -2Q224 -10 193 -10Q126 -10 86.5 27.5Q47 65 47 123Q47 175 81 206.5Q115 238 167 252Q211 264 261 270.5Q311 277 362 279V340Q362 406 331 433Q300 460 238 460Q209 460 178 451.5Q147 443 124 432L119 343Q119 335 112.5 330.5Q106 326 99 326Q92 326 86 330Q80 334 80 343V480Q80 488 84 494Q88 500 98 500Q113 500 116 484L119 469Q139 479 171.5 489.5Q204 500 246 500ZM362 240Q341 239 315.5 237Q290 235 263.5 231Q237 227 211.5 221.5Q186 216 164 208Q133 197 113.5 174.5Q94 152 94 120Q94 80 124 54.5Q154 29 200 29Q225 29 249.5 37.5Q274 46 295.5 59.5Q317 73 334 89.5Q351 106 362 123Z" glyph-name="aacute" horiz-adv-x="513" unicode="&#225;" /><glyph d="M253 737Q262 737 271 728L413 588Q420 581 419.5 573.5Q419 566 414 560.5Q409 555 401 554.5Q393 554 384 562L253 686L122 562Q113 554 105 554.5Q97 555 92 560.5Q87 566 86.5 573.5Q86 581 93 588L235 728Q244 737 253 737ZM246 500Q281 500 311 491.5Q341 483 362.5 464.5Q384 446 396.5 417Q409 388 409 347V110Q409 72 416 50Q423 28 458 28Q463 28 471.5 29.5Q480 31 488 33Q500 35 505.5 29.5Q511 24 511 17Q511 3 494 -3.5Q477 -10 450 -10Q424 -10 407.5 -1Q391 8 382 21Q373 34 369.5 49Q366 64 366 77Q355 63 338.5 47.5Q322 32 300 19Q278 6 251 -2Q224 -10 193 -10Q126 -10 86.5 27.5Q47 65 47 123Q47 175 81 206.5Q115 238 167 252Q211 264 261 270.5Q311 277 362 279V340Q362 406 331 433Q300 460 238 460Q209 460 178 451.5Q147 443 124 432L119 343Q119 335 112.5 330.5Q106 326 99 326Q92 326 86 330Q80 334 80 343V480Q80 488 84 494Q88 500 98 500Q113 500 116 484L119 469Q139 479 171.5 489.5Q204 500 246 500ZM362 240Q341 239 315.5 237Q290 235 263.5 231Q237 227 211.5 221.5Q186 216 164 208Q133 197 113.5 174.5Q94 152 94 120Q94 80 124 54.5Q154 29 200 29Q225 29 249.5 37.5Q274 46 295.5 59.5Q317 73 334 89.5Q351 106 362 123Z" glyph-name="acircumflex" horiz-adv-x="513" unicode="&#226;" /><glyph d="M73 558Q64 552 56.5 553.5Q49 555 45 561Q41 567 42 574.5Q43 582 51 588L244 731Q255 739 265.5 736.5Q276 734 281.5 726.5Q287 719 285.5 708.5Q284 698 272 690Z" glyph-name="acute" horiz-adv-x="333" unicode="&#180;" /><glyph d="M297 635Q297 655 310.5 668.5Q324 682 344 682Q364 682 377.5 668.5Q391 655 391 635Q391 615 377.5 601.5Q364 588 344 588Q324 588 310.5 601.5Q297 615 297 635ZM113 635Q113 655 126.5 668.5Q140 682 160 682Q180 682 193.5 668.5Q207 655 207 635Q207 615 193.5 601.5Q180 588 160 588Q140 588 126.5 601.5Q113 615 113 635ZM246 500Q281 500 311 491.5Q341 483 362.5 464.5Q384 446 396.5 417Q409 388 409 347V110Q409 72 416 50Q423 28 458 28Q463 28 471.5 29.5Q480 31 488 33Q500 35 505.5 29.5Q511 24 511 17Q511 3 494 -3.5Q477 -10 450 -10Q424 -10 407.5 -1Q391 8 382 21Q373 34 369.5 49Q366 64 366 77Q355 63 338.5 47.5Q322 32 300 19Q278 6 251 -2Q224 -10 193 -10Q126 -10 86.5 27.5Q47 65 47 123Q47 175 81 206.5Q115 238 167 252Q211 264 261 270.5Q311 277 362 279V340Q362 406 331 433Q300 460 238 460Q209 460 178 451.5Q147 443 124 432L119 343Q119 335 112.5 330.5Q106 326 99 326Q92 326 86 330Q80 334 80 343V480Q80 488 84 494Q88 500 98 500Q113 500 116 484L119 469Q139 479 171.5 489.5Q204 500 246 500ZM362 240Q341 239 315.5 237Q290 235 263.5 231Q237 227 211.5 221.5Q186 216 164 208Q133 197 113.5 174.5Q94 152 94 120Q94 80 124 54.5Q154 29 200 29Q225 29 249.5 37.5Q274 46 295.5 59.5Q317 73 334 89.5Q351 106 362 123Z" glyph-name="adieresis" horiz-adv-x="513" unicode="&#228;" /><glyph d="M244 500Q299 500 341.5 478Q384 456 396 407Q421 454 465 477Q509 500 560 500Q585 500 617 491.5Q649 483 677.5 460Q706 437 725 396.5Q744 356 744 293V280Q744 271 738.5 262.5Q733 254 713 253L408 238Q410 133 455 81.5Q500 30 578 30Q604 30 634 37Q664 44 700 66Q713 74 723 68.5Q733 63 733 52Q733 40 721.5 31Q710 22 699 17Q679 7 648 -1.5Q617 -10 573 -10Q516 -10 471.5 13.5Q427 37 399 85Q358 37 306 13.5Q254 -10 194 -10Q158 -10 130.5 1.5Q103 13 84.5 32Q66 51 56.5 74.5Q47 98 47 122Q47 164 68.5 192.5Q90 221 125 238Q169 258 231 263.5Q293 269 362 272V340Q362 406 329.5 433.5Q297 461 236 460Q210 460 178.5 451.5Q147 443 124 432L119 343Q119 335 112.5 330.5Q106 326 99 326Q92 326 86 330Q80 334 80 343V480Q80 488 84 494Q88 500 98 500Q113 500 116 484L119 469Q139 479 170.5 489.5Q202 500 244 500ZM408 276 701 291Q702 331 692 363Q682 395 662.5 417Q643 439 616.5 450.5Q590 462 560 462Q528 462 500.5 451Q473 440 452.5 418.5Q432 397 420 364Q408 331 408 288ZM206 28Q241 28 271.5 40.5Q302 53 325 68.5Q348 84 363 99Q378 114 382 119Q372 144 367.5 172.5Q363 201 362 235Q312 232 264.5 228.5Q217 225 179 214Q141 203 118 181.5Q95 160 95 122Q95 105 102 88Q109 71 123 57.5Q137 44 158 36Q179 28 206 28Z" glyph-name="ae" horiz-adv-x="795" unicode="&#230;" /><glyph d="M147 690Q135 698 133.5 708.5Q132 719 137.5 726.5Q143 734 153.5 736.5Q164 739 175 731L368 588Q376 582 377 574.5Q378 567 374 561Q370 555 362.5 553.5Q355 552 346 558ZM246 500Q281 500 311 491.5Q341 483 362.5 464.5Q384 446 396.5 417Q409 388 409 347V110Q409 72 416 50Q423 28 458 28Q463 28 471.5 29.5Q480 31 488 33Q500 35 505.5 29.5Q511 24 511 17Q511 3 494 -3.5Q477 -10 450 -10Q424 -10 407.5 -1Q391 8 382 21Q373 34 369.5 49Q366 64 366 77Q355 63 338.5 47.5Q322 32 300 19Q278 6 251 -2Q224 -10 193 -10Q126 -10 86.5 27.5Q47 65 47 123Q47 175 81 206.5Q115 238 167 252Q211 264 261 270.5Q311 277 362 279V340Q362 406 331 433Q300 460 238 460Q209 460 178 451.5Q147 443 124 432L119 343Q119 335 112.5 330.5Q106 326 99 326Q92 326 86 330Q80 334 80 343V480Q80 488 84 494Q88 500 98 500Q113 500 116 484L119 469Q139 479 171.5 489.5Q204 500 246 500ZM362 240Q341 239 315.5 237Q290 235 263.5 231Q237 227 211.5 221.5Q186 216 164 208Q133 197 113.5 174.5Q94 152 94 120Q94 80 124 54.5Q154 29 200 29Q225 29 249.5 37.5Q274 46 295.5 59.5Q317 73 334 89.5Q351 106 362 123Z" glyph-name="agrave" horiz-adv-x="513" unicode="&#224;" /><glyph d="M716 416Q699 386 677.5 351.5Q656 317 632.5 281.5Q609 246 585 212.5Q561 179 538 151L571 120Q611 83 651 60Q691 37 716 33Q721 32 725.5 31Q730 30 734 28Q742 23 742 11Q742 4 736 -3Q730 -10 716 -10Q672 -10 620 26.5Q568 63 510 118Q486 92 461 69Q436 46 406.5 28.5Q377 11 342.5 0.5Q308 -10 264 -10Q219 -10 183.5 5.5Q148 21 123.5 46.5Q99 72 85.5 104.5Q72 137 72 170Q72 219 89.5 255Q107 291 131.5 317Q156 343 182 361Q208 379 225 391Q178 434 157.5 473Q137 512 137 562Q137 586 147 612Q157 638 177 660Q197 682 227.5 696Q258 710 299 710Q341 710 370 696.5Q399 683 417.5 663Q436 643 444 619.5Q452 596 452 575Q452 552 445 532.5Q438 513 427.5 497.5Q417 482 404 471Q391 460 379 453Q365 445 356 442.5Q347 440 342 440Q334 440 328 446Q322 452 322 460Q322 469 329 474Q333 477 339 480Q345 483 358 490Q375 499 391 520.5Q407 542 407 571Q407 589 401 607Q395 625 381.5 639Q368 653 347 662Q326 671 297 671Q270 671 248.5 661.5Q227 652 212.5 636.5Q198 621 190.5 601Q183 581 183 560Q183 531 195.5 501Q208 471 243 437L510 178Q552 235 593 296Q634 357 666 416H560Q552 416 546.5 421.5Q541 427 541 435Q541 443 546.5 448.5Q552 454 560 454H779Q787 454 792.5 448.5Q798 443 798 435Q798 427 792.5 421.5Q787 416 779 416ZM268 29Q333 29 382.5 60Q432 91 482 145L256 364Q234 349 209.5 331.5Q185 314 165 291Q145 268 131.5 239Q118 210 118 173Q118 147 128 121.5Q138 96 157.5 75.5Q177 55 204.5 42Q232 29 268 29Z" glyph-name="ampersand" horiz-adv-x="826" unicode="&amp;" /><glyph d="M426 655Q426 641 435 631.5Q444 622 458 622Q472 622 481 632Q490 642 490 654Q490 668 481 677.5Q472 687 458 687Q444 687 435 677.5Q426 668 426 655ZM571 3Q571 -11 580 -20.5Q589 -30 603 -30Q617 -30 626 -20Q635 -10 635 2Q635 16 626 25.5Q617 35 603 35Q589 35 580 25.5Q571 16 571 3ZM828 613 887 645 912 595Q918 583 912 571Q906 559 895 553Q884 548 872 549Q860 550 854 561ZM231 412 345 372Q353 369 359.5 372Q366 375 368 383Q371 390 368 397Q365 404 357 406L242 447L257 494Q259 502 256 508.5Q253 515 245 517Q238 519 231 516Q224 513 222 505L179 373Q177 366 180 359Q183 352 191 350Q199 348 205.5 351Q212 354 214 362ZM259 575Q251 573 247 567Q243 561 245 553Q247 545 253 541Q259 537 267 539L371 562L380 540Q373 531 373 522Q373 511 380.5 503.5Q388 496 399 496Q410 496 416 504Q424 511 423.5 520.5Q423 530 420 538L357 697Q354 704 347.5 707Q341 710 333 707Q326 704 323 697.5Q320 691 323 683L357 597ZM603 506Q555 506 511 520Q531 555 554.5 588.5Q578 622 605 650Q630 624 653 591Q676 558 698 521Q654 506 603 506ZM996 492Q993 499 986 502Q978 504 972 501L843 439Q836 435 833.5 428.5Q831 422 834 415L881 310Q888 294 904 301Q912 304 914.5 311Q917 318 914 324L874 414L907 429L922 396Q925 389 932 386.5Q939 384 946 387Q962 394 955 411L940 445L971 460L1003 388Q1006 381 1013 378.5Q1020 376 1027 379Q1034 382 1036.5 389Q1039 396 1036 403ZM822 545Q833 523 857 515Q886 507 912 522Q938 536 947 562Q956 588 944 611L911 678Q908 686 900 687.5Q892 689 886 686L751 612Q744 608 742 601Q740 594 744 587Q748 580 755 578Q762 576 769 580L796 595ZM752 97Q752 105 747 110Q742 115 734 115H555Q580 128 610.5 146Q641 164 667 187.5Q693 211 710.5 240Q728 269 728 304Q728 327 720 349Q712 371 696.5 388.5Q681 406 658 417Q635 428 605 428Q578 428 554 419.5Q530 411 512 396Q494 381 484 359.5Q474 338 474 312Q474 295 480 278.5Q486 262 497.5 248.5Q509 235 525 227Q541 219 561 219Q574 219 588 223Q602 227 613 236Q624 245 631.5 259Q639 273 639 292Q639 318 626 327Q613 336 603 336Q589 336 579.5 326.5Q570 317 570 304Q570 287 585 277Q586 275 582 265Q578 255 559 255Q536 255 524 274.5Q512 294 512 313Q512 349 537 371Q562 393 603 393Q646 393 667 365.5Q688 338 688 305Q688 282 678.5 262.5Q669 243 653 225.5Q637 208 617.5 193.5Q598 179 579 166Q541 142 511.5 127.5Q482 113 479 110Q471 100 475 90Q480 79 492 79H733Q752 79 752 97ZM823 751Q926 751 995 682Q1035 643 1056.5 588Q1078 533 1078 473Q1078 402 1053.5 339Q1029 276 994 223Q932 134 830 53Q792 23 755 -1.5Q718 -26 687.5 -44Q657 -62 634.5 -74Q612 -86 603 -90Q594 -86 571.5 -74Q549 -62 518.5 -44Q488 -26 451.5 -1Q415 24 377 54Q274 136 214 226Q175 283 153 346.5Q131 410 131 474Q131 535 153 590Q175 645 215 684Q286 752 387 752Q444 752 492.5 729.5Q541 707 579 675Q553 647 528 614Q503 581 480 540Q454 495 434 449.5Q414 404 399 361.5Q384 319 373.5 282.5Q363 246 357 221L307 231Q300 233 294 229Q288 225 286 218Q284 211 288 205.5Q292 200 300 198L435 169Q442 167 447.5 171Q453 175 455 182Q458 199 442 203L394 213Q399 234 407.5 264.5Q416 295 428.5 331Q441 367 457 407Q473 447 494 487Q546 468 603 468Q663 468 715 488Q735 449 751 409Q767 369 779 333Q791 297 799.5 265.5Q808 234 813 212L765 202Q749 198 751 182Q753 174 759 170Q765 166 772 168L907 196Q914 198 918 203.5Q922 209 920 216Q919 224 913 228Q907 232 900 230L851 220Q851 221 850.5 221.5Q850 222 850 223Q844 248 833.5 284.5Q823 321 808 363.5Q793 406 772.5 452Q752 498 727 543Q684 621 632 674Q674 710 722 730.5Q770 751 823 751ZM1115 474Q1115 541 1090.5 602Q1066 663 1021 708Q939 787 823 787Q757 787 702.5 762.5Q648 738 605 700Q555 743 500 765.5Q445 788 384 788Q270 788 189 710Q144 665 119 603.5Q94 542 94 473Q94 400 119 331.5Q144 263 184 205Q216 157 258.5 112Q301 67 355 25Q400 -11 442 -38.5Q484 -66 517 -85Q550 -104 571 -113.5Q592 -123 594 -124Q603 -128 612 -124Q614 -123 635 -113.5Q656 -104 689.5 -85Q723 -66 765.5 -39Q808 -12 853 24Q959 107 1024 203Q1067 266 1091 334.5Q1115 403 1115 474ZM1058 734Q1106 684 1132.5 615.5Q1159 547 1159 473Q1159 400 1136.5 332Q1114 264 1075.5 202Q1037 140 985.5 85.5Q934 31 876 -15Q818 -61 755.5 -98Q693 -135 634 -162Q618 -170 603 -170Q588 -170 572 -162Q510 -134 447 -96Q384 -58 326 -11Q268 36 217.5 91Q167 146 130 207.5Q93 269 71.5 336.5Q50 404 50 475Q50 550 77 618.5Q104 687 152 737Q198 784 258.5 807Q319 830 387 830Q454 830 509.5 806Q565 782 609 744Q657 787 711.5 807.5Q766 828 826 828Q893 828 953 804.5Q1013 781 1058 734Z" glyph-name="apple" horiz-adv-x="1209" /><glyph d="M159 305Q179 305 209 293Q239 281 271 268Q311 252 340.5 239.5Q370 227 383 227Q390 227 399.5 229Q409 231 416.5 237.5Q424 244 429.5 255.5Q435 267 435 285Q435 293 441.5 299Q448 305 456 305Q464 305 470 299Q476 293 476 283Q476 254 467 235Q458 216 444 205Q430 194 413.5 189.5Q397 185 382 185Q362 185 332 197Q302 209 270 222Q230 238 200.5 250.5Q171 263 158 263Q150 263 141 261Q132 259 124.5 252.5Q117 246 111.5 234.5Q106 223 106 205Q106 197 99.5 191Q93 185 85 185Q77 185 71 191Q65 197 65 207Q65 236 74 255Q83 274 97 285Q111 296 127.5 300.5Q144 305 159 305ZM159 496Q179 496 209 484Q239 472 271 459Q311 443 340.5 430.5Q370 418 383 418Q390 418 399.5 420Q409 422 416.5 428.5Q424 435 429.5 446.5Q435 458 435 476Q435 484 441.5 490Q448 496 456 496Q464 496 470 490Q476 484 476 474Q476 445 467 426Q458 407 444 396Q430 385 413.5 380.5Q397 376 382 376Q362 376 332 388Q302 400 270 413Q230 429 200.5 441.5Q171 454 158 454Q150 454 141 452Q132 450 124.5 443.5Q117 437 111.5 425.5Q106 414 106 396Q106 388 99.5 382Q93 376 85 376Q77 376 71 382Q65 388 65 398Q65 427 74 446Q83 465 97 476Q111 487 127.5 491.5Q144 496 159 496Z" glyph-name="approxequal" horiz-adv-x="540" unicode="&#8776;" /><glyph d="M248 723Q223 723 205 706.5Q187 690 187 658Q187 626 205 609.5Q223 593 248 593Q273 593 291 609.5Q309 626 309 658Q309 690 291 706.5Q273 723 248 723ZM248 556Q227 556 208.5 563Q190 570 176 583.5Q162 597 153.5 615.5Q145 634 145 658Q145 682 153.5 700.5Q162 719 176 732.5Q190 746 208.5 753Q227 760 248 760Q269 760 287.5 753Q306 746 320 732.5Q334 719 342.5 700.5Q351 682 351 658Q351 634 342.5 615.5Q334 597 320 583.5Q306 570 287.5 563Q269 556 248 556ZM246 500Q281 500 311 491.5Q341 483 362.5 464.5Q384 446 396.5 417Q409 388 409 347V110Q409 72 416 50Q423 28 458 28Q463 28 471.5 29.5Q480 31 488 33Q500 35 505.5 29.5Q511 24 511 17Q511 3 494 -3.5Q477 -10 450 -10Q424 -10 407.5 -1Q391 8 382 21Q373 34 369.5 49Q366 64 366 77Q355 63 338.5 47.5Q322 32 300 19Q278 6 251 -2Q224 -10 193 -10Q126 -10 86.5 27.5Q47 65 47 123Q47 175 81 206.5Q115 238 167 252Q211 264 261 270.5Q311 277 362 279V340Q362 406 331 433Q300 460 238 460Q209 460 178 451.5Q147 443 124 432L119 343Q119 335 112.5 330.5Q106 326 99 326Q92 326 86 330Q80 334 80 343V480Q80 488 84 494Q88 500 98 500Q113 500 116 484L119 469Q139 479 171.5 489.5Q204 500 246 500ZM362 240Q341 239 315.5 237Q290 235 263.5 231Q237 227 211.5 221.5Q186 216 164 208Q133 197 113.5 174.5Q94 152 94 120Q94 80 124 54.5Q154 29 200 29Q225 29 249.5 37.5Q274 46 295.5 59.5Q317 73 334 89.5Q351 106 362 123Z" glyph-name="aring" horiz-adv-x="513" unicode="&#229;" /><glyph d="M270 710Q291 710 300 687L452 335Q456 325 452 317Q448 309 440 306Q432 303 423 306.5Q414 310 408 323L270 653L132 323Q126 310 117 306.5Q108 303 100 306Q92 309 88 317Q84 325 88 335L240 687Q250 710 270 710Z" glyph-name="asciicircum" horiz-adv-x="540" unicode="^" /><glyph d="M159 408Q179 408 209 396Q239 384 271 371Q311 355 340.5 342.5Q370 330 383 330Q390 330 399.5 332Q409 334 416.5 340.5Q424 347 429.5 358.5Q435 370 435 388Q435 396 441.5 402Q448 408 456 408Q464 408 470 402Q476 396 476 386Q476 357 467 338Q458 319 444 308Q430 297 413.5 292.5Q397 288 382 288Q362 288 332 300Q302 312 270 325Q230 341 200.5 353.5Q171 366 158 366Q150 366 141 364Q132 362 124.5 355.5Q117 349 111.5 337.5Q106 326 106 308Q106 300 99.5 294Q93 288 85 288Q77 288 71 294Q65 300 65 310Q65 339 74 358Q83 377 97 388Q111 399 127.5 403.5Q144 408 159 408Z" glyph-name="asciitilde" horiz-adv-x="540" unicode="~" /><glyph d="M279 735Q290 735 298 728.5Q306 722 305 708L296 515L467 586Q480 591 489 585.5Q498 580 501 571Q504 562 500.5 552Q497 542 484 538L306 484L450 322Q459 313 456.5 303Q454 293 446.5 287Q439 281 428.5 281Q418 281 409 292L279 461L149 292Q140 281 129.5 281Q119 281 111.5 287Q104 293 101.5 303Q99 313 108 322L252 484L74 538Q61 542 57.5 552Q54 562 57 571Q60 580 69 585.5Q78 591 91 586L262 515L253 708Q252 722 260 728.5Q268 735 279 735Z" glyph-name="asterisk" horiz-adv-x="558" unicode="*" /><glyph d="M722 110Q722 76 740 52.5Q758 29 792 29Q817 29 840.5 45Q864 61 882 92Q900 123 911 169.5Q922 216 922 276Q922 374 887.5 448Q853 522 797 571.5Q741 621 669.5 646Q598 671 525 671Q438 671 361.5 642.5Q285 614 227.5 561Q170 508 136.5 431Q103 354 103 257Q103 142 142 59Q181 -24 242.5 -77Q304 -130 380.5 -155.5Q457 -181 531 -181Q600 -181 678.5 -162.5Q757 -144 826 -112Q836 -107 844.5 -110.5Q853 -114 856.5 -120.5Q860 -127 858 -135.5Q856 -144 846 -149Q825 -160 796.5 -171Q768 -182 730 -193Q688 -204 636.5 -213Q585 -222 523 -222Q433 -222 348.5 -190.5Q264 -159 199 -98.5Q134 -38 94.5 50Q55 138 55 251Q55 360 91.5 445.5Q128 531 192 590Q256 649 342.5 680.5Q429 712 528 712Q620 712 700.5 680Q781 648 841 591Q901 534 935.5 454.5Q970 375 970 280Q970 206 955.5 151.5Q941 97 916.5 61Q892 25 860 7.5Q828 -10 793 -10Q745 -10 712 16.5Q679 43 675 96Q648 45 601.5 17.5Q555 -10 496 -10Q448 -10 408 8Q368 26 339 59Q310 92 293.5 139Q277 186 277 245Q277 303 293.5 350.5Q310 398 339 431Q368 464 408 482Q448 500 496 500Q555 500 601.5 472.5Q648 445 675 394V476Q675 486 681.5 493Q688 500 698 500Q708 500 715 493Q722 486 722 476ZM678 245Q678 300 664 340.5Q650 381 625.5 408Q601 435 569 448Q537 461 501 461Q465 461 433 448Q401 435 377 408Q353 381 339 340.5Q325 300 325 245Q325 190 339 149.5Q353 109 377 82Q401 55 433 42Q465 29 501 29Q537 29 569 42Q601 55 625.5 82Q650 109 664 149.5Q678 190 678 245Z" glyph-name="at" horiz-adv-x="1032" unicode="@" /><glyph d="M172 689Q193 689 214 676Q235 663 254.5 647Q274 631 291.5 618Q309 605 325 605Q349 605 357 623Q365 641 366 665V670Q366 678 371.5 683.5Q377 689 385 689Q393 689 398.5 683.5Q404 678 404 670V659Q404 623 383.5 595Q363 567 321 567Q299 567 278 580Q257 593 238 609Q219 625 201.5 638Q184 651 168 651Q144 651 136 633Q128 615 127 591V586Q127 578 121.5 572.5Q116 567 108 567Q100 567 94.5 572.5Q89 578 89 586V597Q89 633 109.5 661Q130 689 172 689ZM246 500Q281 500 311 491.5Q341 483 362.5 464.5Q384 446 396.5 417Q409 388 409 347V110Q409 72 416 50Q423 28 458 28Q463 28 471.5 29.5Q480 31 488 33Q500 35 505.5 29.5Q511 24 511 17Q511 3 494 -3.5Q477 -10 450 -10Q424 -10 407.5 -1Q391 8 382 21Q373 34 369.5 49Q366 64 366 77Q355 63 338.5 47.5Q322 32 300 19Q278 6 251 -2Q224 -10 193 -10Q126 -10 86.5 27.5Q47 65 47 123Q47 175 81 206.5Q115 238 167 252Q211 264 261 270.5Q311 277 362 279V340Q362 406 331 433Q300 460 238 460Q209 460 178 451.5Q147 443 124 432L119 343Q119 335 112.5 330.5Q106 326 99 326Q92 326 86 330Q80 334 80 343V480Q80 488 84 494Q88 500 98 500Q113 500 116 484L119 469Q139 479 171.5 489.5Q204 500 246 500ZM362 240Q341 239 315.5 237Q290 235 263.5 231Q237 227 211.5 221.5Q186 216 164 208Q133 197 113.5 174.5Q94 152 94 120Q94 80 124 54.5Q154 29 200 29Q225 29 249.5 37.5Q274 46 295.5 59.5Q317 73 334 89.5Q351 106 362 123Z" glyph-name="atilde" horiz-adv-x="513" unicode="&#227;" /><glyph d="M132 245Q132 190 146 149.5Q160 109 184.5 82Q209 55 241 42Q273 29 309 29Q345 29 377 42Q409 55 433 82Q457 109 471 149.5Q485 190 485 245Q485 300 471 340.5Q457 381 433 408Q409 435 377 448Q345 461 309 461Q273 461 241 448Q209 435 184.5 408Q160 381 146 340.5Q132 300 132 245ZM88 662H42Q34 662 28.5 667.5Q23 673 23 681Q23 689 28.5 694.5Q34 700 42 700H116Q124 700 129.5 694.5Q135 689 135 681V394Q162 445 208.5 472.5Q255 500 314 500Q362 500 402 482Q442 464 471 431Q500 398 516.5 350.5Q533 303 533 245Q533 186 516.5 139Q500 92 471 59Q442 26 402 8Q362 -10 314 -10Q255 -10 208.5 17.5Q162 45 135 96L131 19Q131 -3 109 -3Q88 -3 88 19Z" glyph-name="b" horiz-adv-x="585" unicode="b" /><glyph d="M454 -63Q459 -73 455.5 -81Q452 -89 445 -92Q438 -95 429.5 -92.5Q421 -90 416 -80L28 723Q23 733 26.5 741Q30 749 37 752Q44 755 52.5 752.5Q61 750 66 740Z" glyph-name="backslash" horiz-adv-x="482" unicode="\" /><glyph d="M97 804Q97 814 103.5 821Q110 828 120 828Q130 828 137 821Q144 814 144 804V-100Q144 -110 137 -117Q130 -124 120 -124Q110 -124 103.5 -117Q97 -110 97 -100Z" glyph-name="bar" horiz-adv-x="241" unicode="|" /><glyph d="M31 318Q23 318 17.5 323.5Q12 329 12 337Q12 345 17.5 350.5Q23 356 31 356H71Q103 356 125.5 378.5Q148 401 148 452V729Q148 737 153.5 742.5Q159 748 167 748H348Q356 748 361.5 742.5Q367 737 367 729Q367 721 361.5 715.5Q356 710 348 710H195V454Q195 425 188 404Q181 383 170 369Q159 355 146 347Q133 339 121 337Q133 335 146 327Q159 319 170 304.5Q181 290 188 268.5Q195 247 195 219V-70H348Q356 -70 361.5 -75.5Q367 -81 367 -89Q367 -97 361.5 -102.5Q356 -108 348 -108H167Q159 -108 153.5 -102.5Q148 -97 148 -89V221Q148 272 125.5 295Q103 318 71 318Z" glyph-name="braceleft" horiz-adv-x="393" unicode="{" /><glyph d="M322 318Q290 318 267.5 295Q245 272 245 221V-89Q245 -97 239.5 -102.5Q234 -108 226 -108H45Q37 -108 31.5 -102.5Q26 -97 26 -89Q26 -81 31.5 -75.5Q37 -70 45 -70H198V219Q198 247 205 268.5Q212 290 223 304.5Q234 319 247 327Q260 335 272 337Q260 339 247 347Q234 355 223 369Q212 383 205 404Q198 425 198 454V710H45Q37 710 31.5 715.5Q26 721 26 729Q26 737 31.5 742.5Q37 748 45 748H226Q234 748 239.5 742.5Q245 737 245 729V452Q245 401 267.5 378.5Q290 356 322 356H362Q370 356 375.5 350.5Q381 345 381 337Q381 329 375.5 323.5Q370 318 362 318Z" glyph-name="braceright" horiz-adv-x="393" unicode="}" /><glyph d="M298 -70Q306 -70 311.5 -75.5Q317 -81 317 -89Q317 -97 311.5 -102.5Q306 -108 298 -108H117Q109 -108 103.5 -102.5Q98 -97 98 -89V729Q98 737 103.5 742.5Q109 748 117 748H298Q306 748 311.5 742.5Q317 737 317 729Q317 721 311.5 715.5Q306 710 298 710H145V-70Z" glyph-name="bracketleft" horiz-adv-x="343" unicode="[" /><glyph d="M198 -70V710H45Q37 710 31.5 715.5Q26 721 26 729Q26 737 31.5 742.5Q37 748 45 748H226Q234 748 239.5 742.5Q245 737 245 729V-89Q245 -97 239.5 -102.5Q234 -108 226 -108H45Q37 -108 31.5 -102.5Q26 -97 26 -89Q26 -81 31.5 -75.5Q37 -70 45 -70Z" glyph-name="bracketright" horiz-adv-x="343" unicode="]" /><glyph d="M166 592Q208 592 230.5 616.5Q253 641 253 685V690Q253 698 259 704Q265 710 273 710Q281 710 286.5 704Q292 698 292 690V686Q292 628 261.5 591Q231 554 166 554Q101 554 70.5 591Q40 628 40 686V690Q40 698 45.5 704Q51 710 59 710Q67 710 73 704Q79 698 79 690V685Q79 641 101.5 616.5Q124 592 166 592Z" glyph-name="breve" horiz-adv-x="332" unicode="&#728;" /><glyph d="M97 286Q97 296 103.5 303Q110 310 120 310Q130 310 137 303Q144 296 144 286V-100Q144 -110 137 -117Q130 -124 120 -124Q110 -124 103.5 -117Q97 -110 97 -100ZM97 804Q97 814 103.5 821Q110 828 120 828Q130 828 137 821Q144 814 144 804V420Q144 410 137 403Q130 396 120 396Q110 396 103.5 403Q97 410 97 420Z" glyph-name="brokenbar" horiz-adv-x="241" unicode="&#166;" /><glyph d="M92 354Q92 373 99 390Q106 407 118.5 419.5Q131 432 148 439.5Q165 447 184 447Q203 447 220 439.5Q237 432 249.5 419.5Q262 407 269.5 390Q277 373 277 354Q277 335 269.5 318Q262 301 249.5 288.5Q237 276 220 269Q203 262 184 262Q165 262 148 269Q131 276 118.5 288.5Q106 301 99 318Q92 335 92 354Z" glyph-name="bullet" horiz-adv-x="368" unicode="&#8226;" /><glyph d="M430 354Q430 346 424.5 340Q419 334 411 334Q403 334 398 339.5Q393 345 391 353L387 365Q381 383 371 400Q361 417 346 430.5Q331 444 310.5 452.5Q290 461 263 461Q230 461 200.5 448Q171 435 148.5 409Q126 383 113 343Q100 303 100 248Q100 193 114 152Q128 111 152 84Q176 57 208.5 43.5Q241 30 279 30Q305 30 335 37Q365 44 401 66Q414 74 424 68.5Q434 63 434 52Q434 40 422.5 31Q411 22 400 17Q380 7 348.5 -1.5Q317 -10 273 -10Q228 -10 188 5.5Q148 21 118 52.5Q88 84 70.5 132Q53 180 53 244Q53 308 69.5 356Q86 404 114 436Q142 468 180 484Q218 500 260 500Q304 500 339 481.5Q374 463 390 436L393 477Q393 486 398.5 490.5Q404 495 410.5 494.5Q417 494 422.5 489.5Q428 485 428 476Z" glyph-name="c" horiz-adv-x="481" unicode="c" /><glyph d="M430 354Q430 346 424.5 340Q419 334 411 334Q403 334 398 339.5Q393 345 391 353L387 365Q381 383 371 400Q361 417 346 430.5Q331 444 310.5 452.5Q290 461 263 461Q230 461 200.5 448Q171 435 148.5 409Q126 383 113 343Q100 303 100 248Q100 193 114 152Q128 111 152 84Q176 57 208.5 43.5Q241 30 279 30Q305 30 335 37Q365 44 401 66Q414 74 424 68.5Q434 63 434 52Q434 40 422.5 31Q411 22 400 17Q380 7 348.5 -1.5Q317 -10 273 -10Q228 -10 188 5.5Q148 21 118 52.5Q88 84 70.5 132Q53 180 53 244Q53 305 68 351Q83 397 108.5 429Q134 461 168.5 478.5Q203 496 242 499V539Q242 579 254.5 609Q267 639 289 659.5Q311 680 341 690Q371 700 407 700H632Q642 700 649 693Q656 686 656 676V490H835Q843 490 848.5 484.5Q854 479 854 471Q854 463 848.5 457.5Q843 452 835 452H656V128Q656 86 676.5 58Q697 30 748 30Q769 30 786 33.5Q803 37 816 41.5Q829 46 838 50Q847 54 851 54Q860 54 865.5 48.5Q871 43 871 35Q871 18 842 7Q820 -1 794 -5.5Q768 -10 748 -10Q709 -10 682.5 1.5Q656 13 639.5 31.5Q623 50 616 73.5Q609 97 609 121V452H530Q522 452 516.5 457.5Q511 463 511 471Q511 479 516.5 484.5Q522 490 530 490H609V663H408Q348 663 314.5 628.5Q281 594 281 533V498Q318 494 347 476.5Q376 459 390 436L393 477Q393 486 398.5 490.5Q404 495 410.5 494.5Q417 494 422.5 489.5Q428 485 428 476Z" glyph-name="c_t" horiz-adv-x="882" unicode="&#57439;" /><glyph d="M207 554Q198 554 189 563L47 703Q40 710 40.5 717.5Q41 725 46 730.5Q51 736 59 736.5Q67 737 76 729L207 605L338 729Q347 737 355 736.5Q363 736 368 730.5Q373 725 373.5 717.5Q374 710 367 703L225 563Q216 554 207 554Z" glyph-name="caron" horiz-adv-x="414" unicode="&#711;" /><glyph d="M430 354Q430 346 424.5 340Q419 334 411 334Q403 334 398 339.5Q393 345 391 353L387 365Q381 383 371 400Q361 417 346 430.5Q331 444 310.5 452.5Q290 461 263 461Q230 461 200.5 448Q171 435 148.5 409Q126 383 113 343Q100 303 100 248Q100 193 114 152Q128 111 152 84Q176 57 208.5 43.5Q241 30 279 30Q305 30 335 37Q365 44 401 66Q414 74 424 68.5Q434 63 434 52Q434 40 422.5 31Q411 22 400 17Q380 7 348.5 -1.5Q317 -10 273 -10Q268 -10 263 -10Q258 -10 253 -9L231 -69Q241 -70 260.5 -73Q280 -76 298.5 -85Q317 -94 331 -111.5Q345 -129 345 -159Q345 -183 334 -200Q323 -217 306.5 -228Q290 -239 270 -244Q250 -249 231 -249Q206 -249 182 -244Q158 -239 142 -230Q132 -223 132 -213Q132 -203 140 -196.5Q148 -190 163 -197Q174 -202 192.5 -206.5Q211 -211 224 -211Q262 -211 281 -197Q300 -183 300 -157Q300 -131 275.5 -118.5Q251 -106 208 -105Q197 -105 188 -96Q179 -87 187 -67L214 -3Q144 14 98.5 75.5Q53 137 53 244Q53 308 69.5 356Q86 404 114 436Q142 468 180 484Q218 500 260 500Q304 500 339 481.5Q374 463 390 436L393 477Q393 486 398.5 490.5Q404 495 410.5 494.5Q417 494 422.5 489.5Q428 485 428 476Z" glyph-name="ccedilla" horiz-adv-x="481" unicode="&#231;" /><glyph d="M139 -69Q149 -70 168.5 -73Q188 -76 206.5 -85Q225 -94 239 -111.5Q253 -129 253 -159Q253 -183 242 -200Q231 -217 214.5 -228Q198 -239 178 -244Q158 -249 139 -249Q114 -249 90 -244Q66 -239 50 -230Q40 -223 40 -213Q40 -203 48 -196.5Q56 -190 71 -197Q82 -202 100.5 -206.5Q119 -211 132 -211Q170 -211 189 -197Q208 -183 208 -157Q208 -131 183.5 -118.5Q159 -106 116 -105Q105 -105 96 -96Q87 -87 95 -67L128 10H168Z" glyph-name="cedilla" horiz-adv-x="291" unicode="&#184;" /><glyph d="M90 248Q90 159 124.5 107Q159 55 213 38L233 460Q203 456 177 441.5Q151 427 131.5 401Q112 375 101 337Q90 299 90 248ZM420 354Q420 346 414.5 340Q409 334 401 334Q393 334 388 339.5Q383 345 381 353L377 365Q366 397 342 425Q318 453 274 459L254 30H269Q295 30 325 37Q355 44 391 66Q404 74 414 68.5Q424 63 424 52Q424 40 412.5 31Q401 22 390 17Q370 7 338.5 -1.5Q307 -10 263 -10H252L244 -169Q244 -179 237 -183.5Q230 -188 222.5 -187.5Q215 -187 209 -182.5Q203 -178 203 -169L211 -4Q175 3 144 22.5Q113 42 90.5 73Q68 104 55.5 146.5Q43 189 43 244Q43 305 58 351.5Q73 398 99 430Q125 462 160 479Q195 496 235 499L244 668Q244 678 251 682.5Q258 687 265.5 686.5Q273 686 279 681.5Q285 677 285 668L276 498Q311 493 338.5 476Q366 459 380 436L383 477Q383 486 388.5 490.5Q394 495 400.5 494.5Q407 494 412.5 489.5Q418 485 418 476Z" glyph-name="cent" horiz-adv-x="487" unicode="&#162;" /><glyph d="M207 737Q216 737 225 728L367 588Q374 581 373.5 573.5Q373 566 368 560.5Q363 555 355 554.5Q347 554 338 562L207 686L76 562Q67 554 59 554.5Q51 555 46 560.5Q41 566 40.5 573.5Q40 581 47 588L189 728Q198 737 207 737Z" glyph-name="circumflex" horiz-adv-x="414" unicode="&#710;" /><glyph d="M75 426Q75 452 94 471Q113 490 139 490Q165 490 184 471Q203 452 203 426Q203 400 184 381Q165 362 139 362Q113 362 94 381Q75 400 75 426ZM75 54Q75 80 94 99Q113 118 139 118Q165 118 184 99Q203 80 203 54Q203 28 184 9Q165 -10 139 -10Q113 -10 94 9Q75 28 75 54Z" glyph-name="colon" horiz-adv-x="278" unicode=":" /><glyph d="M124 116Q153 116 172.5 96Q192 76 192 43Q192 1 164 -35Q136 -71 99 -92Q93 -95 87 -95Q79 -95 73.5 -90Q68 -85 68 -78Q68 -70 80 -61Q102 -44 115.5 -30.5Q129 -17 137 -2Q123 -5 109.5 -2Q96 1 85.5 9Q75 17 69 29Q63 41 63 56Q63 81 81 98.5Q99 116 124 116Z" glyph-name="comma" horiz-adv-x="256" unicode="," /><glyph d="M552 442Q552 432 547 427.5Q542 423 534 423Q525 423 521 428.5Q517 434 514 441L510 451Q495 488 472 511Q449 534 404 534Q375 534 349.5 523Q324 512 305 489.5Q286 467 274.5 432Q263 397 263 349Q263 301 275 265.5Q287 230 308 206.5Q329 183 357 171.5Q385 160 418 160Q440 160 466 166Q492 172 524 192Q537 200 546.5 194.5Q556 189 556 178Q556 166 544.5 158Q533 150 524 145Q507 137 479 129Q451 121 413 121Q372 121 336.5 135Q301 149 275 177Q249 205 233.5 247Q218 289 218 346Q218 403 232.5 445Q247 487 272 515.5Q297 544 330 558Q363 572 401 572Q443 572 471 555Q499 538 515 515L516 550Q516 558 521.5 562Q527 566 533.5 566Q540 566 545 562Q550 558 550 550ZM105 350Q105 269 128 208Q151 147 191.5 107Q232 67 286.5 47Q341 27 404 27Q467 27 521.5 47Q576 67 617 107Q658 147 681.5 208Q705 269 705 350Q705 431 681.5 492Q658 553 617 593Q576 633 521.5 653Q467 673 404 673Q341 673 286.5 653Q232 633 191.5 593Q151 553 128 492Q105 431 105 350ZM62 350Q62 440 90 507.5Q118 575 165 620Q212 665 274 687.5Q336 710 404 710Q472 710 534.5 687.5Q597 665 644.5 620Q692 575 720 507.5Q748 440 748 350Q748 260 720 192.5Q692 125 644.5 80Q597 35 534.5 12.5Q472 -10 404 -10Q336 -10 274 12.5Q212 35 165 80Q118 125 90 192.5Q62 260 62 350Z" glyph-name="copyright" horiz-adv-x="810" unicode="&#169;" /><glyph d="M453 245Q453 300 439 340.5Q425 381 400.5 408Q376 435 344 448Q312 461 276 461Q240 461 208 448Q176 435 152 408Q128 381 114 340.5Q100 300 100 245Q100 190 114 149.5Q128 109 152 82Q176 55 208 42Q240 29 276 29Q312 29 344 42Q376 55 400.5 82Q425 109 439 149.5Q453 190 453 245ZM497 38H563Q571 38 576.5 32.5Q582 27 582 19Q582 11 576.5 5.5Q571 0 563 0H469Q461 0 455.5 5.5Q450 11 450 19V96Q423 45 376.5 17.5Q330 -10 271 -10Q223 -10 183 8Q143 26 114 59Q85 92 68.5 139Q52 186 52 245Q52 303 68.5 350.5Q85 398 114 431Q143 464 183 482Q223 500 271 500Q330 500 376.5 472.5Q423 445 450 394V662H394Q386 662 380.5 667.5Q375 673 375 681Q375 689 380.5 694.5Q386 700 394 700H478Q486 700 491.5 694.5Q497 689 497 681Z" glyph-name="d" horiz-adv-x="606" unicode="d" /><glyph d="M218 395H53Q45 395 39.5 400.5Q34 406 34 414Q34 422 39.5 427.5Q45 433 53 433H218V686Q218 696 224.5 703Q231 710 241 710Q251 710 258 703Q265 696 265 686V433H430Q438 433 443.5 427.5Q449 422 449 414Q449 406 443.5 400.5Q438 395 430 395H265V14Q265 4 258 -3Q251 -10 241 -10Q231 -10 224.5 -3Q218 4 218 14Z" glyph-name="dagger" horiz-adv-x="483" unicode="&#8224;" /><glyph d="M237 395H72Q64 395 58.5 400.5Q53 406 53 414Q53 422 58.5 427.5Q64 433 72 433H237V686Q237 696 243.5 703Q250 710 260 710Q270 710 277 703Q284 696 284 686V433H449Q457 433 462.5 427.5Q468 422 468 414Q468 406 462.5 400.5Q457 395 449 395H284V185H449Q457 185 462.5 179.5Q468 174 468 166Q468 158 462.5 152.5Q457 147 449 147H284V-106Q284 -116 277 -123Q270 -130 260 -130Q250 -130 243.5 -123Q237 -116 237 -106V147H72Q64 147 58.5 152.5Q53 158 53 166Q53 174 58.5 179.5Q64 185 72 185H237Z" glyph-name="daggerdbl" horiz-adv-x="521" unicode="&#8225;" /><glyph d="M195 448Q238 448 265.5 476.5Q293 505 293 561Q293 618 265.5 647Q238 676 195 676Q151 676 123.5 647Q96 618 96 561Q96 505 123.5 476.5Q151 448 195 448ZM195 710Q255 710 294 671Q333 632 333 561Q333 491 294 452.5Q255 414 195 414Q134 414 95 452.5Q56 491 56 561Q56 632 95 671Q134 710 195 710Z" glyph-name="degree" horiz-adv-x="389" unicode="&#176;" /><glyph d="M232 635Q232 655 245.5 668.5Q259 682 279 682Q299 682 312.5 668.5Q326 655 326 635Q326 615 312.5 601.5Q299 588 279 588Q259 588 245.5 601.5Q232 615 232 635ZM48 635Q48 655 61.5 668.5Q75 682 95 682Q115 682 128.5 668.5Q142 655 142 635Q142 615 128.5 601.5Q115 588 95 588Q75 588 61.5 601.5Q48 615 48 635Z" glyph-name="dieresis" horiz-adv-x="374" unicode="&#168;" /><glyph d="M95 322Q87 322 81.5 327.5Q76 333 76 341Q76 349 81.5 354.5Q87 360 95 360H445Q453 360 458.5 354.5Q464 349 464 341Q464 333 458.5 327.5Q453 322 445 322ZM206 514Q206 540 225 559Q244 578 270 578Q296 578 315 559Q334 540 334 514Q334 488 315 469Q296 450 270 450Q244 450 225 469Q206 488 206 514ZM206 162Q206 188 225 207Q244 226 270 226Q296 226 315 207Q334 188 334 162Q334 136 315 117Q296 98 270 98Q244 98 225 117Q206 136 206 162Z" glyph-name="divide" horiz-adv-x="540" unicode="&#247;" /><glyph d="M107 533Q107 501 118.5 478.5Q130 456 149.5 439Q169 422 195 410Q221 398 250 388V669Q221 665 195 655.5Q169 646 149.5 629.5Q130 613 118.5 589Q107 565 107 533ZM371 303Q352 311 331.5 318Q311 325 289 332V30Q322 33 352.5 43.5Q383 54 406 72.5Q429 91 443 119Q457 147 457 186Q457 232 433.5 259Q410 286 371 303ZM426 654Q391 662 356.5 667Q322 672 291 672H289V376Q328 364 366 351Q404 338 434 317.5Q464 297 483 267Q502 237 502 192Q502 109 450 55.5Q398 2 289 -8V-130Q289 -138 283.5 -144Q278 -150 270 -150Q262 -150 256 -144Q250 -138 250 -130V-10H244Q189 -10 149 0Q109 10 87 19Q64 28 64 54V168Q64 177 70 183Q76 189 85 189Q94 189 99.5 183Q105 177 106 168L112 56Q143 45 177.5 36.5Q212 28 250 28V343Q214 354 180.5 368Q147 382 121 403.5Q95 425 79 455.5Q63 486 63 531Q63 574 77.5 605Q92 636 117.5 657.5Q143 679 177 691Q211 703 250 707V800Q250 808 256 814Q262 820 270 820Q278 820 283.5 814Q289 808 289 800V710H294Q383 710 453 688Q476 679 476 653L474 540Q474 531 468 525Q462 519 453 519Q444 519 438.5 525Q433 531 432 540Z" glyph-name="dollar" horiz-adv-x="552" unicode="$" /><glyph d="M40 635Q40 655 53.5 668.5Q67 682 87 682Q107 682 120.5 668.5Q134 655 134 635Q134 615 120.5 601.5Q107 588 87 588Q67 588 53.5 601.5Q40 615 40 635Z" glyph-name="dotaccent" horiz-adv-x="174" unicode="&#729;" /><glyph d="M150 490Q158 490 163.5 484.5Q169 479 169 471V38H235Q243 38 248.5 32.5Q254 27 254 19Q254 11 248.5 5.5Q243 0 235 0H56Q48 0 42.5 5.5Q37 11 37 19Q37 27 42.5 32.5Q48 38 56 38H122V452H56Q48 452 42.5 457.5Q37 463 37 471Q37 479 42.5 484.5Q48 490 56 490Z" glyph-name="dotlessi" horiz-adv-x="278" unicode="&#305;" /><glyph d="M53 246Q53 308 69 355.5Q85 403 113.5 435Q142 467 180.5 483.5Q219 500 264 500Q348 500 397 446.5Q446 393 446 293V288Q446 271 437 263Q428 255 413 255H101V248Q101 191 116.5 150Q132 109 157.5 82Q183 55 216.5 42.5Q250 30 286 30Q312 30 342 37Q372 44 408 66Q421 74 431 68.5Q441 63 441 52Q441 40 429.5 31Q418 22 407 17Q387 7 356 -1.5Q325 -10 281 -10Q236 -10 194.5 6Q153 22 121.5 54Q90 86 71.5 134Q53 182 53 246ZM263 462Q231 462 203.5 450Q176 438 154.5 415.5Q133 393 119.5 362Q106 331 103 292H402Q402 336 391.5 368Q381 400 362 421Q343 442 318 452Q293 462 263 462Z" glyph-name="e" horiz-adv-x="499" unicode="e" /><glyph d="M161 558Q152 552 144.5 553.5Q137 555 133 561Q129 567 130 574.5Q131 582 139 588L332 731Q343 739 353.5 736.5Q364 734 369.5 726.5Q375 719 373.5 708.5Q372 698 360 690ZM53 246Q53 308 69 355.5Q85 403 113.5 435Q142 467 180.5 483.5Q219 500 264 500Q348 500 397 446.5Q446 393 446 293V288Q446 271 437 263Q428 255 413 255H101V248Q101 191 116.5 150Q132 109 157.5 82Q183 55 216.5 42.5Q250 30 286 30Q312 30 342 37Q372 44 408 66Q421 74 431 68.5Q441 63 441 52Q441 40 429.5 31Q418 22 407 17Q387 7 356 -1.5Q325 -10 281 -10Q236 -10 194.5 6Q153 22 121.5 54Q90 86 71.5 134Q53 182 53 246ZM263 462Q231 462 203.5 450Q176 438 154.5 415.5Q133 393 119.5 362Q106 331 103 292H402Q402 336 391.5 368Q381 400 362 421Q343 442 318 452Q293 462 263 462Z" glyph-name="eacute" horiz-adv-x="499" unicode="&#233;" /><glyph d="M255 737Q264 737 273 728L415 588Q422 581 421.5 573.5Q421 566 416 560.5Q411 555 403 554.5Q395 554 386 562L255 686L124 562Q115 554 107 554.5Q99 555 94 560.5Q89 566 88.5 573.5Q88 581 95 588L237 728Q246 737 255 737ZM53 246Q53 308 69 355.5Q85 403 113.5 435Q142 467 180.5 483.5Q219 500 264 500Q348 500 397 446.5Q446 393 446 293V288Q446 271 437 263Q428 255 413 255H101V248Q101 191 116.5 150Q132 109 157.5 82Q183 55 216.5 42.5Q250 30 286 30Q312 30 342 37Q372 44 408 66Q421 74 431 68.5Q441 63 441 52Q441 40 429.5 31Q418 22 407 17Q387 7 356 -1.5Q325 -10 281 -10Q236 -10 194.5 6Q153 22 121.5 54Q90 86 71.5 134Q53 182 53 246ZM263 462Q231 462 203.5 450Q176 438 154.5 415.5Q133 393 119.5 362Q106 331 103 292H402Q402 336 391.5 368Q381 400 362 421Q343 442 318 452Q293 462 263 462Z" glyph-name="ecircumflex" horiz-adv-x="499" unicode="&#234;" /><glyph d="M299 635Q299 655 312.5 668.5Q326 682 346 682Q366 682 379.5 668.5Q393 655 393 635Q393 615 379.5 601.5Q366 588 346 588Q326 588 312.5 601.5Q299 615 299 635ZM115 635Q115 655 128.5 668.5Q142 682 162 682Q182 682 195.5 668.5Q209 655 209 635Q209 615 195.5 601.5Q182 588 162 588Q142 588 128.5 601.5Q115 615 115 635ZM53 246Q53 308 69 355.5Q85 403 113.5 435Q142 467 180.5 483.5Q219 500 264 500Q348 500 397 446.5Q446 393 446 293V288Q446 271 437 263Q428 255 413 255H101V248Q101 191 116.5 150Q132 109 157.5 82Q183 55 216.5 42.5Q250 30 286 30Q312 30 342 37Q372 44 408 66Q421 74 431 68.5Q441 63 441 52Q441 40 429.5 31Q418 22 407 17Q387 7 356 -1.5Q325 -10 281 -10Q236 -10 194.5 6Q153 22 121.5 54Q90 86 71.5 134Q53 182 53 246ZM263 462Q231 462 203.5 450Q176 438 154.5 415.5Q133 393 119.5 362Q106 331 103 292H402Q402 336 391.5 368Q381 400 362 421Q343 442 318 452Q293 462 263 462Z" glyph-name="edieresis" horiz-adv-x="499" unicode="&#235;" /><glyph d="M149 690Q137 698 135.5 708.5Q134 719 139.5 726.5Q145 734 155.5 736.5Q166 739 177 731L370 588Q378 582 379 574.5Q380 567 376 561Q372 555 364.5 553.5Q357 552 348 558ZM53 246Q53 308 69 355.5Q85 403 113.5 435Q142 467 180.5 483.5Q219 500 264 500Q348 500 397 446.5Q446 393 446 293V288Q446 271 437 263Q428 255 413 255H101V248Q101 191 116.5 150Q132 109 157.5 82Q183 55 216.5 42.5Q250 30 286 30Q312 30 342 37Q372 44 408 66Q421 74 431 68.5Q441 63 441 52Q441 40 429.5 31Q418 22 407 17Q387 7 356 -1.5Q325 -10 281 -10Q236 -10 194.5 6Q153 22 121.5 54Q90 86 71.5 134Q53 182 53 246ZM263 462Q231 462 203.5 450Q176 438 154.5 415.5Q133 393 119.5 362Q106 331 103 292H402Q402 336 391.5 368Q381 400 362 421Q343 442 318 452Q293 462 263 462Z" glyph-name="egrave" horiz-adv-x="499" unicode="&#232;" /><glyph d="M270 710Q313 710 350 699Q387 688 414 667Q441 646 456.5 615.5Q472 585 472 546Q472 512 459 484Q446 456 424 433.5Q402 411 374.5 394.5Q347 378 318 366Q351 354 382.5 337Q414 320 439 297Q464 274 479 243Q494 212 494 172Q494 124 475.5 90Q457 56 426 33.5Q395 11 354.5 0.5Q314 -10 270 -10Q226 -10 185.5 0.5Q145 11 114 33.5Q83 56 64.5 90Q46 124 46 172Q46 212 61 243Q76 274 101 297Q126 320 157.5 337Q189 354 222 366Q193 378 165.5 394.5Q138 411 116 433.5Q94 456 81 484Q68 512 68 546Q68 585 83.5 615.5Q99 646 126 667Q153 688 190 699Q227 710 270 710ZM270 26Q306 26 339 35.5Q372 45 396.5 63.5Q421 82 436 109Q451 136 451 172Q451 209 435 237Q419 265 393 286Q367 307 334.5 322.5Q302 338 270 350Q238 338 205.5 322.5Q173 307 147 286Q121 265 105 237Q89 209 89 172Q89 136 104 109Q119 82 143.5 63.5Q168 45 201 35.5Q234 26 270 26ZM270 383Q296 393 324 408Q352 423 375.5 443.5Q399 464 414 489Q429 514 429 546Q429 606 384.5 640Q340 674 270 674Q200 674 155.5 640Q111 606 111 546Q111 514 126 489Q141 464 164.5 443.5Q188 423 216 408Q244 393 270 383Z" glyph-name="eight" horiz-adv-x="540" unicode="8" /><glyph d="M739 54Q739 80 758 99Q777 118 803 118Q829 118 848 99Q867 80 867 54Q867 28 848 9Q829 -10 803 -10Q777 -10 758 9Q739 28 739 54ZM401 54Q401 80 420 99Q439 118 465 118Q491 118 510 99Q529 80 529 54Q529 28 510 9Q491 -10 465 -10Q439 -10 420 9Q401 28 401 54ZM63 54Q63 80 82 99Q101 118 127 118Q153 118 172 99Q191 80 191 54Q191 28 172 9Q153 -10 127 -10Q101 -10 82 9Q63 28 63 54Z" glyph-name="ellipsis" horiz-adv-x="930" unicode="&#8230;" /><glyph d="M94 285Q86 285 80.5 290.5Q75 296 75 304Q75 312 80.5 317.5Q86 323 94 323H891Q899 323 904.5 317.5Q910 312 910 304Q910 296 904.5 290.5Q899 285 891 285Z" glyph-name="emdash" horiz-adv-x="985" unicode="&#8212;" /><glyph d="M94 285Q86 285 80.5 290.5Q75 296 75 304Q75 312 80.5 317.5Q86 323 94 323H559Q567 323 572.5 317.5Q578 312 578 304Q578 296 572.5 290.5Q567 285 559 285Z" glyph-name="endash" horiz-adv-x="653" unicode="&#8211;" /><glyph d="M95 221Q87 221 81.5 226.5Q76 232 76 240Q76 248 81.5 253.5Q87 259 95 259H445Q453 259 458.5 253.5Q464 248 464 240Q464 232 458.5 226.5Q453 221 445 221ZM95 422Q87 422 81.5 427.5Q76 433 76 441Q76 449 81.5 454.5Q87 460 95 460H445Q453 460 458.5 454.5Q464 449 464 441Q464 433 458.5 427.5Q453 422 445 422Z" glyph-name="equal" horiz-adv-x="540" unicode="=" /><glyph d="M271 461Q235 461 204 448Q173 435 149.5 408Q126 381 113 340.5Q100 300 100 245Q100 190 114 149.5Q128 109 151.5 82Q175 55 207 42Q239 29 275 29Q311 29 343 42Q375 55 398.5 82Q422 109 436 149.5Q450 190 450 245Q450 300 435.5 340.5Q421 381 396.5 408Q372 435 339.5 448Q307 461 271 461ZM53 245Q53 305 69 352Q85 399 114 432Q143 465 182.5 482.5Q222 500 270 500Q313 500 348.5 486Q384 472 413 441Q392 489 357 533.5Q322 578 281 614L197 566Q191 562 183 564Q175 566 171 573Q167 580 169.5 588Q172 596 178 599L249 639Q223 658 196.5 672.5Q170 687 145 701Q139 704 137 712Q135 720 138.5 726.5Q142 733 150.5 736Q159 739 173 733Q195 723 225.5 705.5Q256 688 289 662L387 718Q393 722 401 720Q409 718 413 711Q417 704 414.5 696Q412 688 406 685L320 636L338 619Q371 587 399.5 549Q428 511 449.5 465.5Q471 420 483.5 365.5Q496 311 496 246Q496 185 479 137.5Q462 90 432.5 57Q403 24 362.5 7Q322 -10 274 -10Q226 -10 185.5 6Q145 22 115.5 53.5Q86 85 69.5 133Q53 181 53 245Z" glyph-name="eth" horiz-adv-x="551" unicode="&#240;" /><glyph d="M153 233Q153 225 147.5 219Q142 213 133 213Q124 213 118.5 219Q113 225 113 233L102 681Q102 694 111 702Q120 710 133 710Q146 710 155 702Q164 694 164 681ZM69 54Q69 80 88 99Q107 118 133 118Q159 118 178 99Q197 80 197 54Q197 28 178 9Q159 -10 133 -10Q107 -10 88 9Q69 28 69 54Z" glyph-name="exclam" horiz-adv-x="266" unicode="!" /><glyph d="M156 -191Q156 -204 147 -212Q138 -220 125 -220Q112 -220 103 -212Q94 -204 94 -191L105 257Q105 265 110.5 271Q116 277 125 277Q134 277 139.5 271Q145 265 145 257ZM61 436Q61 462 80 481Q99 500 125 500Q151 500 170 481Q189 462 189 436Q189 410 170 391Q151 372 125 372Q99 372 80 391Q61 410 61 436Z" glyph-name="exclamdown" horiz-adv-x="250" unicode="&#161;" /><glyph d="M122 557Q122 638 165.5 679Q209 720 281 720Q310 720 332.5 716Q355 712 372 705Q383 700 385.5 692Q388 684 384.5 677Q381 670 373.5 666.5Q366 663 357 666Q343 671 324.5 675Q306 679 282 679Q245 679 221.5 666.5Q198 654 186 634Q175 615 172 593Q169 571 169 550V490H253Q261 490 266.5 484.5Q272 479 272 471Q272 463 266.5 457.5Q261 452 253 452H169V38H255Q263 38 268.5 32.5Q274 27 274 19Q274 11 268.5 5.5Q263 0 255 0H56Q48 0 42.5 5.5Q37 11 37 19Q37 27 42.5 32.5Q48 38 56 38H122V452H56Q48 452 42.5 457.5Q37 463 37 471Q37 479 42.5 484.5Q48 490 56 490H122Z" glyph-name="f" horiz-adv-x="309" unicode="f" /><glyph d="M498 490Q506 490 511.5 484.5Q517 479 517 471V38H603Q611 38 616.5 32.5Q622 27 622 19Q622 11 616.5 5.5Q611 0 603 0H384Q376 0 370.5 5.5Q365 11 365 19Q365 27 370.5 32.5Q376 38 384 38H470V452H187V38H293Q301 38 306.5 32.5Q312 27 312 19Q312 11 306.5 5.5Q301 0 293 0H54Q46 0 40.5 5.5Q35 11 35 19Q35 27 40.5 32.5Q46 38 54 38H140V452H54Q46 452 40.5 457.5Q35 463 35 471Q35 479 40.5 484.5Q46 490 54 490H140V536Q140 576 153.5 610Q167 644 193 668.5Q219 693 256.5 706.5Q294 720 342 720Q379 720 409 714Q439 708 462 700Q488 691 509 680Q517 675 518.5 667.5Q520 660 516 653Q512 646 505 642Q498 638 489 642Q460 656 421.5 667.5Q383 679 345 679Q312 679 283.5 671Q255 663 233.5 644.5Q212 626 199.5 597Q187 568 187 526V490Z" glyph-name="fi" horiz-adv-x="632" unicode="&#64257;" /><glyph d="M97 681Q97 689 102.5 694.5Q108 700 116 700H464Q472 700 477.5 694.5Q483 689 483 681Q483 673 477.5 667.5Q472 662 464 662H135L124 419Q138 424 173.5 433.5Q209 443 254 443Q305 443 345.5 429Q386 415 414.5 389.5Q443 364 458.5 328Q474 292 474 248Q474 209 462.5 175.5Q451 142 431 115Q411 88 383.5 67Q356 46 325 32Q271 8 210.5 -1Q150 -10 94 -10Q85 -10 76.5 -8.5Q68 -7 62 -3Q53 3 53 14Q53 22 59.5 27.5Q66 33 81 33Q85 33 92.5 33Q100 33 108 33Q116 33 124 33.5Q132 34 137 34Q184 37 227.5 46Q271 55 306 72Q361 98 393.5 140.5Q426 183 426 243Q426 287 411.5 317.5Q397 348 372.5 366.5Q348 385 316 393Q284 401 249 401Q216 401 182 393.5Q148 386 118 375Q102 369 92 375Q82 381 83 395Z" glyph-name="five" horiz-adv-x="540" unicode="5" /><glyph d="M480 720Q488 720 493.5 714.5Q499 709 499 701V38H565Q573 38 578.5 32.5Q584 27 584 19Q584 11 578.5 5.5Q573 0 565 0H386Q378 0 372.5 5.5Q367 11 367 19Q367 27 372.5 32.5Q378 38 386 38H452V682H299Q218 682 187 633Q176 616 172.5 595Q169 574 169 546V490H253Q261 490 266.5 484.5Q272 479 272 471Q272 463 266.5 457.5Q261 452 253 452H169V38H255Q263 38 268.5 32.5Q274 27 274 19Q274 11 268.5 5.5Q263 0 255 0H56Q48 0 42.5 5.5Q37 11 37 19Q37 27 42.5 32.5Q48 38 56 38H122V452H56Q48 452 42.5 457.5Q37 463 37 471Q37 479 42.5 484.5Q48 490 56 490H122V557Q122 638 166.5 679Q211 720 283 720Z" glyph-name="fl" horiz-adv-x="611" unicode="&#64258;" /><glyph d="M204 281H98Q90 281 84.5 286.5Q79 292 79 300Q79 308 84.5 313.5Q90 319 98 319H204V570Q204 651 247.5 692Q291 733 363 733Q405 733 433.5 724Q462 715 479 707Q489 702 491 694.5Q493 687 489.5 680.5Q486 674 478.5 670.5Q471 667 462 670Q448 675 424 683.5Q400 692 364 692Q327 692 303.5 679.5Q280 667 268 647Q257 628 254 606Q251 584 251 563V319H363Q371 319 376.5 313.5Q382 308 382 300Q382 292 376.5 286.5Q371 281 363 281H251V-57Q251 -138 207.5 -179Q164 -220 92 -220Q50 -220 21.5 -211Q-7 -202 -24 -194Q-34 -189 -36 -181.5Q-38 -174 -34.5 -167.5Q-31 -161 -23.5 -157.5Q-16 -154 -7 -157Q7 -162 31 -170.5Q55 -179 91 -179Q128 -179 151.5 -166.5Q175 -154 187 -134Q198 -115 201 -93Q204 -71 204 -50Z" glyph-name="florin" horiz-adv-x="509" unicode="&#402;" /><glyph d="M403 232H514Q522 232 527.5 226.5Q533 221 533 213Q533 205 527.5 199.5Q522 194 514 194H403V12Q403 3 396.5 -3.5Q390 -10 381 -10Q372 -10 365.5 -3.5Q359 3 359 12V194H38Q25 194 18 198Q11 202 8.5 208Q6 214 7 221Q8 228 11 233L275 698Q281 708 289.5 710Q298 712 305.5 708Q313 704 316.5 696Q320 688 314 678L59 232H359V422Q359 431 365.5 437.5Q372 444 381 444Q390 444 396.5 437.5Q403 431 403 422Z" glyph-name="four" horiz-adv-x="540" unicode="4" /><glyph d="M48 -3Q42 -10 34 -10Q26 -10 21 -5.5Q16 -1 14.5 6Q13 13 19 20L614 703Q620 710 628 710Q636 710 641 705.5Q646 701 647.5 693.5Q649 686 642 678Z" glyph-name="fraction" horiz-adv-x="661" unicode="&#8260;" /><glyph d="M427 490Q435 490 440.5 484.5Q446 479 446 471Q446 463 440.5 457.5Q435 452 427 452H361L527 56L690 452H617Q609 452 603.5 457.5Q598 463 598 471Q598 479 603.5 484.5Q609 490 617 490H783Q791 490 796.5 484.5Q802 479 802 471Q802 463 796.5 457.5Q791 452 783 452H740L558 21Q535 -34 513 -82Q491 -130 461 -162Q429 -197 394 -209.5Q359 -222 321 -222Q303 -222 286.5 -219.5Q270 -217 259 -212Q247 -207 247 -193Q247 -183 255 -176.5Q263 -170 275 -173Q286 -176 297.5 -178.5Q309 -181 328 -181Q359 -181 383 -168Q407 -155 426 -135Q440 -120 451.5 -102.5Q463 -85 472 -67Q481 -49 488 -32.5Q495 -16 500 -4L502 1L311 452H169V38H255Q263 38 268.5 32.5Q274 27 274 19Q274 11 268.5 5.5Q263 0 255 0H56Q48 0 42.5 5.5Q37 11 37 19Q37 27 42.5 32.5Q48 38 56 38H122V452H56Q48 452 42.5 457.5Q37 463 37 471Q37 479 42.5 484.5Q48 490 56 490H122V557Q122 638 165.5 679Q209 720 281 720Q310 720 332.5 716Q355 712 372 705Q383 700 385.5 692Q388 684 384.5 677Q381 670 373.5 666.5Q366 663 357 666Q343 671 324.5 675Q306 679 282 679Q245 679 221.5 666.5Q198 654 186 634Q175 615 172 593Q169 571 169 550V490Z" glyph-name="fy" horiz-adv-x="814" /><glyph d="M130 329Q130 266 169 229.5Q208 193 269 193Q330 193 369 229.5Q408 266 408 329Q408 359 397.5 383.5Q387 408 368.5 425.5Q350 443 324.5 453Q299 463 269 463Q239 463 213.5 453Q188 443 169.5 425.5Q151 408 140.5 383.5Q130 359 130 329ZM481 -78Q481 -49 464 -31Q447 -13 419.5 -2.5Q392 8 356 12.5Q320 17 282 17Q235 18 191.5 13Q148 8 116 -9Q92 -21 78 -43Q64 -65 64 -85Q64 -119 83 -142Q102 -165 130.5 -178.5Q159 -192 193.5 -197.5Q228 -203 258 -203Q361 -203 421 -168Q481 -133 481 -78ZM19 -89Q19 -44 52 -12Q85 20 137 34Q102 44 79 68.5Q56 93 56 131Q56 163 76 188.5Q96 214 119 225Q105 246 95.5 271.5Q86 297 86 329Q86 368 99.5 400Q113 432 137 454.5Q161 477 194.5 489Q228 501 268 501Q313 501 349 487Q385 473 409 446L510 529Q516 534 525 535Q534 536 542 528Q549 520 547.5 511.5Q546 503 541 498L432 410Q440 393 446 372.5Q452 352 452 329Q452 289 438 257Q424 225 399.5 202.5Q375 180 341.5 168Q308 156 268 156Q189 156 140 200Q123 191 110 173Q97 155 97 129Q97 103 121.5 81.5Q146 60 194 59L277 58Q319 58 363 52.5Q407 47 443.5 32.5Q480 18 503.5 -8.5Q527 -35 527 -77Q527 -108 512 -137Q497 -166 464.5 -188.5Q432 -211 380.5 -225Q329 -239 256 -239Q187 -239 141.5 -225.5Q96 -212 68.5 -190.5Q41 -169 30 -142.5Q19 -116 19 -89Z" glyph-name="g" horiz-adv-x="553" unicode="g" /><glyph d="M122 521Q122 560 134.5 598Q147 636 172 665Q197 694 234.5 712Q272 730 322 730Q358 730 390 719.5Q422 709 445.5 690Q469 671 482.5 643Q496 615 496 581Q496 540 475.5 512.5Q455 485 430.5 463Q406 441 385.5 421.5Q365 402 365 377Q365 360 371 348Q377 336 388 325Q408 305 439 289.5Q470 274 499 253.5Q528 233 548.5 204.5Q569 176 569 131Q569 68 524 29Q479 -10 394 -10Q374 -10 356 -7.5Q338 -5 321 -1Q310 1 306 8Q302 15 303.5 22Q305 29 311 33.5Q317 38 327 37Q341 35 357.5 31.5Q374 28 394 28Q400 28 421 30.5Q442 33 465 43Q488 53 506 73.5Q524 94 524 130Q524 162 509 184Q494 206 471 222.5Q448 239 422 252.5Q396 266 373 282.5Q350 299 335 320.5Q320 342 320 375Q320 409 340.5 432.5Q361 456 385.5 477.5Q410 499 430.5 522.5Q451 546 451 580Q451 599 444 618Q437 637 422 653Q407 669 382.5 679Q358 689 323 689Q273 689 239 666Q205 643 188 607Q177 584 173 557Q169 530 169 500V19Q169 11 163.5 5.5Q158 0 150 0H56Q48 0 42.5 5.5Q37 11 37 19Q37 27 42.5 32.5Q48 38 56 38H122V452H56Q48 452 42.5 457.5Q37 463 37 471Q37 479 42.5 484.5Q48 490 56 490H122Z" glyph-name="germandbls" horiz-adv-x="604" unicode="&#223;" /><glyph d="M60 690Q48 698 46.5 708.5Q45 719 50.5 726.5Q56 734 66.5 736.5Q77 739 88 731L281 588Q289 582 290 574.5Q291 567 287 561Q283 555 275.5 553.5Q268 552 259 558Z" glyph-name="grave" horiz-adv-x="333" unicode="`" /><glyph d="M498 58Q491 50 482.5 51Q474 52 468 57.5Q462 63 461.5 72Q461 81 470 90L722 330H91Q83 330 77 336Q71 342 71 350Q71 358 77 364Q83 370 91 370H722L470 610Q461 619 461.5 628Q462 637 468 642.5Q474 648 482.5 648.5Q491 649 498 642L793 355Q798 350 793 345Z" glyph-name="greater" horiz-adv-x="840" unicode="&gt;" /><glyph d="M452 38Q460 38 465.5 32.5Q471 27 471 19Q471 11 465.5 5.5Q460 0 452 0H82Q74 0 68.5 5.5Q63 11 63 19Q63 27 68.5 32.5Q74 38 82 38ZM139 117Q130 110 121.5 112Q113 114 108 120Q103 126 104 134.5Q105 143 116 151L407 363L116 575Q105 582 104 591Q103 600 108 606Q113 612 121.5 614Q130 616 139 609L442 385Q456 375 456 362.5Q456 350 443 341Z" glyph-name="greaterequal" horiz-adv-x="540" unicode="&#8805;" /><glyph d="M225 241V250L400 489Q407 498 416 499Q425 500 432 495.5Q439 491 441 482Q443 473 436 463L280 249V242L436 28Q443 18 441 9Q439 0 432 -4.5Q425 -9 416 -8Q407 -7 400 2ZM43 241V250L218 489Q225 498 234 499Q243 500 250 495.5Q257 491 259 482Q261 473 254 463L98 249V242L254 28Q261 18 259 9Q257 0 250 -4.5Q243 -9 234 -8Q225 -7 218 2Z" glyph-name="guillemotleft" horiz-adv-x="486" unicode="&#171;" /><glyph d="M85 2Q78 -7 69 -8Q60 -9 53 -4.5Q46 0 43.5 9Q41 18 49 28L205 242V249L49 463Q41 473 43.5 482Q46 491 53 495.5Q60 500 69 499Q78 498 85 489L260 250V241ZM267 2Q260 -7 251 -8Q242 -9 235 -4.5Q228 0 225.5 9Q223 18 231 28L387 242V249L231 463Q223 473 225.5 482Q228 491 235 495.5Q242 500 251 499Q260 498 267 489L442 250V241Z" glyph-name="guillemotright" horiz-adv-x="486" unicode="&#187;" /><glyph d="M43 241V250L218 489Q225 498 234 499Q243 500 250 495.5Q257 491 259 482Q261 473 254 463L98 249V242L254 28Q261 18 259 9Q257 0 250 -4.5Q243 -9 234 -8Q225 -7 218 2Z" glyph-name="guilsinglleft" horiz-adv-x="304" unicode="&#8249;" /><glyph d="M85 2Q78 -7 69 -8Q60 -9 53 -4.5Q46 0 43.5 9Q41 18 49 28L205 242V249L49 463Q41 473 43.5 482Q46 491 53 495.5Q60 500 69 499Q78 498 85 489L260 250V241Z" glyph-name="guilsinglright" horiz-adv-x="304" unicode="&#8250;" /><glyph d="M222 38Q230 38 235.5 32.5Q241 27 241 19Q241 11 235.5 5.5Q230 0 222 0H43Q35 0 29.5 5.5Q24 11 24 19Q24 27 29.5 32.5Q35 38 43 38H109V662H43Q35 662 29.5 667.5Q24 673 24 681Q24 689 29.5 694.5Q35 700 43 700H137Q145 700 150.5 694.5Q156 689 156 681V397Q216 445 269 472.5Q322 500 373 500Q415 500 440 487Q465 474 478 454Q491 434 495 410.5Q499 387 499 366V38H565Q573 38 578.5 32.5Q584 27 584 19Q584 11 578.5 5.5Q573 0 565 0H386Q378 0 372.5 5.5Q367 11 367 19Q367 27 372.5 32.5Q378 38 386 38H452V366Q452 405 435 431Q418 457 374 457Q323 457 272 429Q221 401 156 354V38Z" glyph-name="h" horiz-adv-x="606" unicode="h" /><glyph d="M283 558Q274 552 266.5 553.5Q259 555 255 561Q251 567 252 574.5Q253 582 261 588L454 731Q465 739 475.5 736.5Q486 734 491.5 726.5Q497 719 495.5 708.5Q494 698 482 690ZM72 558Q63 552 55.5 553.5Q48 555 44 561Q40 567 41 574.5Q42 582 50 588L243 731Q254 739 264.5 736.5Q275 734 280.5 726.5Q286 719 284.5 708.5Q283 698 271 690Z" glyph-name="hungarumlaut" horiz-adv-x="536" unicode="&#733;" /><glyph d="M94 284Q86 284 80.5 289.5Q75 295 75 303Q75 311 80.5 316.5Q86 322 94 322H318Q326 322 331.5 316.5Q337 311 337 303Q337 295 331.5 289.5Q326 284 318 284Z" glyph-name="hyphen" horiz-adv-x="412" unicode="-" /><glyph d="M95 663Q95 683 108.5 696.5Q122 710 142 710Q162 710 175.5 696.5Q189 683 189 663Q189 643 175.5 629.5Q162 616 142 616Q122 616 108.5 629.5Q95 643 95 663ZM150 490Q158 490 163.5 484.5Q169 479 169 471V38H235Q243 38 248.5 32.5Q254 27 254 19Q254 11 248.5 5.5Q243 0 235 0H56Q48 0 42.5 5.5Q37 11 37 19Q37 27 42.5 32.5Q48 38 56 38H122V452H56Q48 452 42.5 457.5Q37 463 37 471Q37 479 42.5 484.5Q48 490 56 490Z" glyph-name="i" horiz-adv-x="278" unicode="i" /><glyph d="M46 558Q37 552 29.5 553.5Q22 555 18 561Q14 567 15 574.5Q16 582 24 588L217 731Q228 739 238.5 736.5Q249 734 254.5 726.5Q260 719 258.5 708.5Q257 698 245 690ZM150 490Q158 490 163.5 484.5Q169 479 169 471V38H235Q243 38 248.5 32.5Q254 27 254 19Q254 11 248.5 5.5Q243 0 235 0H56Q48 0 42.5 5.5Q37 11 37 19Q37 27 42.5 32.5Q48 38 56 38H122V452H56Q48 452 42.5 457.5Q37 463 37 471Q37 479 42.5 484.5Q48 490 56 490Z" glyph-name="iacute" horiz-adv-x="278" unicode="&#237;" /><glyph d="M139 737Q148 737 157 728L299 588Q306 581 305.5 573.5Q305 566 300 560.5Q295 555 287 554.5Q279 554 270 562L139 686L8 562Q-1 554 -9 554.5Q-17 555 -22 560.5Q-27 566 -27.5 573.5Q-28 581 -21 588L121 728Q130 737 139 737ZM150 490Q158 490 163.5 484.5Q169 479 169 471V38H235Q243 38 248.5 32.5Q254 27 254 19Q254 11 248.5 5.5Q243 0 235 0H56Q48 0 42.5 5.5Q37 11 37 19Q37 27 42.5 32.5Q48 38 56 38H122V452H56Q48 452 42.5 457.5Q37 463 37 471Q37 479 42.5 484.5Q48 490 56 490Z" glyph-name="icircumflex" horiz-adv-x="278" unicode="&#238;" /><glyph d="M184 635Q184 655 197.5 668.5Q211 682 231 682Q251 682 264.5 668.5Q278 655 278 635Q278 615 264.5 601.5Q251 588 231 588Q211 588 197.5 601.5Q184 615 184 635ZM0 635Q0 655 13.5 668.5Q27 682 47 682Q67 682 80.5 668.5Q94 655 94 635Q94 615 80.5 601.5Q67 588 47 588Q27 588 13.5 601.5Q0 615 0 635ZM150 490Q158 490 163.5 484.5Q169 479 169 471V38H235Q243 38 248.5 32.5Q254 27 254 19Q254 11 248.5 5.5Q243 0 235 0H56Q48 0 42.5 5.5Q37 11 37 19Q37 27 42.5 32.5Q48 38 56 38H122V452H56Q48 452 42.5 457.5Q37 463 37 471Q37 479 42.5 484.5Q48 490 56 490Z" glyph-name="idieresis" horiz-adv-x="278" unicode="&#239;" /><glyph d="M33 690Q21 698 19.5 708.5Q18 719 23.5 726.5Q29 734 39.5 736.5Q50 739 61 731L254 588Q262 582 263 574.5Q264 567 260 561Q256 555 248.5 553.5Q241 552 232 558ZM149 490Q157 490 162.5 484.5Q168 479 168 471V38H234Q242 38 247.5 32.5Q253 27 253 19Q253 11 247.5 5.5Q242 0 234 0H55Q47 0 41.5 5.5Q36 11 36 19Q36 27 41.5 32.5Q47 38 55 38H121V452H55Q47 452 41.5 457.5Q36 463 36 471Q36 479 41.5 484.5Q47 490 55 490Z" glyph-name="igrave" horiz-adv-x="278" unicode="&#236;" /><glyph d="M592 353Q611 325 636 292.5Q661 260 691.5 232Q722 204 759 185.5Q796 167 838 167Q878 167 911 180.5Q944 194 966.5 219Q989 244 1001.5 278Q1014 312 1014 353Q1014 394 1001.5 428Q989 462 966.5 487Q944 512 911 525.5Q878 539 838 539Q796 539 759 520.5Q722 502 691.5 474Q661 446 636 413.5Q611 381 592 353ZM542 353Q523 381 498 413.5Q473 446 442.5 474Q412 502 375 520.5Q338 539 296 539Q255 539 222.5 525.5Q190 512 167.5 487Q145 462 132.5 428Q120 394 120 353Q120 312 132.5 278Q145 244 167.5 219Q190 194 222.5 180.5Q255 167 296 167Q338 167 375 185.5Q412 204 442.5 232Q473 260 498 292.5Q523 325 542 353ZM567 388Q588 418 615 452Q642 486 676 514.5Q710 543 751 562Q792 581 839 581Q888 581 929 564.5Q970 548 998.5 518Q1027 488 1043 446Q1059 404 1059 353Q1059 302 1043 260Q1027 218 998.5 188Q970 158 929 141.5Q888 125 839 125Q792 125 751 144Q710 163 676 191.5Q642 220 615 254Q588 288 567 318Q546 288 519 254Q492 220 458 191.5Q424 163 383 144Q342 125 295 125Q245 125 204.5 141.5Q164 158 135.5 188Q107 218 91 260Q75 302 75 353Q75 404 91 446Q107 488 135.5 518Q164 548 204.5 564.5Q245 581 295 581Q342 581 383 562Q424 543 458 514.5Q492 486 519 452Q546 418 567 388Z" glyph-name="infinity" horiz-adv-x="1134" unicode="&#8734;" /><glyph d="M256 570Q256 651 299.5 692Q343 733 415 733Q457 733 485.5 724Q514 715 531 707Q541 702 543 694.5Q545 687 541.5 680.5Q538 674 530.5 670.5Q523 667 514 670Q500 675 476 683.5Q452 692 416 692Q379 692 355.5 679.5Q332 667 320 647Q309 628 306 606Q303 584 303 563V-57Q303 -138 259.5 -179Q216 -220 144 -220Q102 -220 73.5 -211Q45 -202 28 -194Q18 -189 16 -181.5Q14 -174 17.5 -167.5Q21 -161 28.5 -157.5Q36 -154 45 -157Q59 -162 83 -170.5Q107 -179 143 -179Q180 -179 203.5 -166.5Q227 -154 239 -134Q250 -115 253 -93Q256 -71 256 -50Z" glyph-name="integral" horiz-adv-x="560" unicode="&#8747;" /><glyph d="M80 663Q80 683 93.5 696.5Q107 710 127 710Q147 710 160.5 696.5Q174 683 174 663Q174 643 160.5 629.5Q147 616 127 616Q107 616 93.5 629.5Q80 643 80 663ZM154 -56Q154 -147 105 -189Q87 -204 63.5 -212Q40 -220 8 -220Q-4 -220 -10.5 -213.5Q-17 -207 -17 -199Q-17 -191 -12 -185.5Q-7 -180 2 -180Q27 -180 45.5 -173Q64 -166 76 -155Q93 -138 100 -112Q107 -86 107 -50V452H51Q43 452 37.5 457.5Q32 463 32 471Q32 479 37.5 484.5Q43 490 51 490H135Q143 490 148.5 484.5Q154 479 154 471Z" glyph-name="j" horiz-adv-x="242" unicode="j" /><glyph d="M313 275Q335 262 351.5 242Q368 222 381 203L487 38H538Q546 38 551.5 32.5Q557 27 557 19Q557 11 551.5 5.5Q546 0 538 0H457L350 167Q337 187 325 204Q313 221 298.5 234Q284 247 265.5 254Q247 261 221 261H156V38H242Q250 38 255.5 32.5Q261 27 261 19Q261 11 255.5 5.5Q250 0 242 0H43Q35 0 29.5 5.5Q24 11 24 19Q24 27 29.5 32.5Q35 38 43 38H109V662H43Q35 662 29.5 667.5Q24 673 24 681Q24 689 29.5 694.5Q35 700 43 700H137Q145 700 150.5 694.5Q156 689 156 681V299H228Q240 299 254 297.5Q268 296 278 293L418 452H348Q340 452 334.5 457.5Q329 463 329 471Q329 479 334.5 484.5Q340 490 348 490H525Q533 490 538.5 484.5Q544 479 544 471Q544 463 538.5 457.5Q533 452 525 452H471Z" glyph-name="k" horiz-adv-x="580" unicode="k" /><glyph d="M140 700Q148 700 153.5 694.5Q159 689 159 681V38H225Q233 38 238.5 32.5Q244 27 244 19Q244 11 238.5 5.5Q233 0 225 0H46Q38 0 32.5 5.5Q27 11 27 19Q27 27 32.5 32.5Q38 38 46 38H112V662H46Q38 662 32.5 667.5Q27 673 27 681Q27 689 32.5 694.5Q38 700 46 700Z" glyph-name="l" horiz-adv-x="271" unicode="l" /><glyph d="M46 345Q41 350 46 355L341 642Q348 649 356.5 648.5Q365 648 371 642.5Q377 637 377.5 628Q378 619 369 610L117 370H748Q756 370 762 364Q768 358 768 350Q768 342 762 336Q756 330 748 330H117L369 90Q378 81 377.5 72Q377 63 371 57.5Q365 52 356.5 51Q348 50 341 58Z" glyph-name="less" horiz-adv-x="840" unicode="&lt;" /><glyph d="M457 38Q465 38 470.5 32.5Q476 27 476 19Q476 11 470.5 5.5Q465 0 457 0H87Q79 0 73.5 5.5Q68 11 68 19Q68 27 73.5 32.5Q79 38 87 38ZM96 341Q83 350 83 362.5Q83 375 97 385L400 609Q409 616 417.5 614Q426 612 431 606Q436 600 434.5 591Q433 582 423 575L132 363L423 151Q433 143 434.5 134.5Q436 126 431 120Q426 114 417.5 112Q409 110 400 117Z" glyph-name="lessequal" horiz-adv-x="540" unicode="&#8804;" /><glyph d="M3746 495Q3759 495 3767.5 486.5Q3776 478 3776 465Q3776 452 3767.5 443.5Q3759 435 3746 435H3709L3527 1Q3507 -46 3487.5 -87Q3468 -128 3442 -158Q3416 -188 3380 -205.5Q3344 -223 3292 -223Q3272 -223 3253.5 -220.5Q3235 -218 3223 -214Q3206 -208 3200.5 -196Q3195 -184 3197.5 -172Q3200 -160 3210 -151.5Q3220 -143 3234 -146Q3248 -148 3262 -151Q3276 -154 3289 -154Q3321 -154 3344 -143.5Q3367 -133 3384 -114Q3401 -95 3413.5 -71.5Q3426 -48 3434 -28L3444 -4L3269 435H3099V60H3175Q3188 60 3196.5 51.5Q3205 43 3205 30Q3205 17 3196.5 8.5Q3188 0 3175 0H2952Q2939 0 2930.5 8.5Q2922 17 2922 30Q2922 43 2930.5 51.5Q2939 60 2952 60H3018V435H2952Q2939 435 2930.5 443.5Q2922 452 2922 465Q2922 478 2930.5 486.5Q2939 495 2952 495H3018V565Q3018 606 3030.5 638Q3043 670 3066 692Q3089 714 3121 725.5Q3153 737 3192 737Q3224 737 3252 731.5Q3280 726 3299 719Q3316 713 3321.5 699.5Q3327 686 3323 673.5Q3319 661 3306.5 653.5Q3294 646 3275 653Q3259 658 3239 663Q3219 668 3197 668Q3144 668 3121.5 636.5Q3099 605 3099 558V495H3406Q3419 495 3427.5 486.5Q3436 478 3436 465Q3436 452 3427.5 443.5Q3419 435 3406 435H3353L3489 84L3629 435H3572Q3559 435 3550.5 443.5Q3542 452 3542 465Q3542 478 3550.5 486.5Q3559 495 3572 495ZM2663 642Q2663 671 2682.5 690.5Q2702 710 2730 710Q2759 710 2778.5 690.5Q2798 671 2798 642Q2798 614 2778.5 594.5Q2759 575 2730 575Q2702 575 2682.5 594.5Q2663 614 2663 642ZM403 640H374L290 342H486ZM2776 60H2842Q2855 60 2863.5 51.5Q2872 43 2872 30Q2872 17 2863.5 8.5Q2855 0 2842 0H2629Q2616 0 2607.5 8.5Q2599 17 2599 30Q2599 43 2607.5 51.5Q2616 60 2629 60H2695V435H2629Q2616 435 2607.5 443.5Q2599 452 2599 465Q2599 478 2607.5 486.5Q2616 495 2629 495H2746Q2759 495 2767.5 486.5Q2776 478 2776 465ZM2453 60H2519Q2532 60 2540.5 51.5Q2549 43 2549 30Q2549 17 2540.5 8.5Q2532 0 2519 0H2306Q2293 0 2284.5 8.5Q2276 17 2276 30Q2276 43 2284.5 51.5Q2293 60 2306 60H2372V660H2306Q2293 660 2284.5 668.5Q2276 677 2276 690Q2276 703 2284.5 711.5Q2293 720 2306 720H2423Q2436 720 2444.5 711.5Q2453 703 2453 690ZM1985 56Q2017 56 2045 67.5Q2073 79 2093.5 102.5Q2114 126 2126 162Q2138 198 2138 247Q2138 296 2126 332Q2114 368 2093 391.5Q2072 415 2044 426.5Q2016 438 1985 438Q1953 438 1925.5 426.5Q1898 415 1877 391.5Q1856 368 1844 332Q1832 296 1832 247Q1832 198 1844 162Q1856 126 1877 102.5Q1898 79 1925.5 67.5Q1953 56 1985 56ZM1831 415Q1857 457 1900 481Q1943 505 2000 505Q2049 505 2089 487Q2129 469 2158 436Q2187 403 2203 356Q2219 309 2219 250Q2219 193 2203.5 145Q2188 97 2159.5 62.5Q2131 28 2090 9Q2049 -10 1997 -10Q1946 -10 1903.5 10Q1861 30 1833 75V-160H1905Q1918 -160 1926.5 -168.5Q1935 -177 1935 -190Q1935 -203 1926.5 -211.5Q1918 -220 1905 -220H1696Q1683 -220 1674.5 -211.5Q1666 -203 1666 -190Q1666 -177 1674.5 -168.5Q1683 -160 1696 -160H1752V435H1704Q1691 435 1682.5 443.5Q1674 452 1674 465Q1674 478 1682.5 486.5Q1691 495 1704 495H1801Q1814 495 1822.5 486.5Q1831 478 1831 465ZM771 435Q758 435 749.5 443.5Q741 452 741 465Q741 478 749.5 486.5Q758 495 771 495H868Q881 495 889.5 486.5Q898 478 898 465V415Q949 462 993 483.5Q1037 505 1085 505Q1146 505 1177 476.5Q1208 448 1217 411Q1267 461 1315.5 483Q1364 505 1415 505Q1460 505 1487 490Q1514 475 1529 453.5Q1544 432 1548.5 407Q1553 382 1553 362V60H1605Q1618 60 1626.5 51.5Q1635 43 1635 30Q1635 17 1626.5 8.5Q1618 0 1605 0H1416Q1403 0 1394.5 8.5Q1386 17 1386 30Q1386 43 1394.5 51.5Q1403 60 1416 60H1472V356Q1472 392 1453 413.5Q1434 435 1394 435Q1353 435 1311 412.5Q1269 390 1226 350V60H1278Q1291 60 1299.5 51.5Q1308 43 1308 30Q1308 17 1299.5 8.5Q1291 0 1278 0H1089Q1076 0 1067.5 8.5Q1059 17 1059 30Q1059 43 1067.5 51.5Q1076 60 1089 60H1145V356Q1145 392 1126 413.5Q1107 435 1067 435Q1026 435 984 412.5Q942 390 900 350V60H956Q969 60 977.5 51.5Q986 43 986 30Q986 17 977.5 8.5Q969 0 956 0H501Q488 0 479.5 8.5Q471 17 471 30Q471 43 479.5 51.5Q488 60 501 60H569L506 277H269L208 60H276Q289 60 297.5 51.5Q306 43 306 30Q306 17 297.5 8.5Q289 0 276 0H60Q47 0 38.5 8.5Q30 17 30 30Q30 43 38.5 51.5Q47 60 60 60H124L301 640H216Q203 640 194.5 648.5Q186 657 186 670Q186 683 194.5 691.5Q203 700 216 700H433Q448 700 458 692Q468 684 472 670L659 60H819V435Z" glyph-name="logicalnot" horiz-adv-x="3805" unicode="&#172;" /><glyph d="M282 -85Q280 -90 275 -94Q270 -98 260 -98Q250 -98 245 -94Q240 -90 238 -85L32 351L238 787Q240 792 245 796Q250 800 260 800Q270 800 275 796Q280 792 282 787L488 351ZM260 -32 438 351 260 734 82 351Z" glyph-name="lozenge" horiz-adv-x="520" unicode="&#9674;" /><glyph d="M143 700Q151 700 156.5 694.5Q162 689 162 681V342L228 372Q237 376 244.5 373Q252 370 255 363.5Q258 357 256 349Q254 341 244 337L162 300V38H228Q236 38 241.5 32.5Q247 27 247 19Q247 11 241.5 5.5Q236 0 228 0H49Q41 0 35.5 5.5Q30 11 30 19Q30 27 35.5 32.5Q41 38 49 38H115V278L56 252Q47 248 40 251.5Q33 255 30 261.5Q27 268 29 275.5Q31 283 41 288L115 321V662H49Q41 662 35.5 667.5Q30 673 30 681Q30 689 35.5 694.5Q41 700 49 700Z" glyph-name="lslash" horiz-adv-x="279" unicode="&#322;" /><glyph d="M455 366Q455 405 438 431Q421 457 377 457Q326 457 277 430Q228 403 169 354V38H235Q243 38 248.5 32.5Q254 27 254 19Q254 11 248.5 5.5Q243 0 235 0H56Q48 0 42.5 5.5Q37 11 37 19Q37 27 42.5 32.5Q48 38 56 38H122V452H56Q48 452 42.5 457.5Q37 463 37 471Q37 479 42.5 484.5Q48 490 56 490H150Q158 490 163.5 484.5Q169 479 169 471V397Q222 443 273.5 471.5Q325 500 376 500Q411 500 434 491Q457 482 471 467Q485 452 491.5 433Q498 414 500 395Q552 442 605 471Q658 500 709 500Q751 500 776 487Q801 474 814 454Q827 434 831 410.5Q835 387 835 366V38H901Q909 38 914.5 32.5Q920 27 920 19Q920 11 914.5 5.5Q909 0 901 0H722Q714 0 708.5 5.5Q703 11 703 19Q703 27 708.5 32.5Q714 38 722 38H788V366Q788 405 771 431Q754 457 710 457Q659 457 610 430Q561 403 502 354V38H568Q576 38 581.5 32.5Q587 27 587 19Q587 11 581.5 5.5Q576 0 568 0H389Q381 0 375.5 5.5Q370 11 370 19Q370 27 375.5 32.5Q381 38 389 38H455Z" glyph-name="m" horiz-adv-x="942" unicode="m" /><glyph d="M59 587Q51 587 45.5 592.5Q40 598 40 606Q40 614 45.5 619.5Q51 625 59 625H293Q301 625 306.5 619.5Q312 614 312 606Q312 598 306.5 592.5Q301 587 293 587Z" glyph-name="macron" horiz-adv-x="352" unicode="&#175;" /><glyph d="M95 322Q87 322 81.5 327.5Q76 333 76 341Q76 349 81.5 354.5Q87 360 95 360H445Q453 360 458.5 354.5Q464 349 464 341Q464 333 458.5 327.5Q453 322 445 322Z" glyph-name="minus" horiz-adv-x="540" unicode="&#8722;" /><glyph d="M501 38H567Q575 38 580.5 32.5Q586 27 586 19Q586 11 580.5 5.5Q575 0 567 0H473Q465 0 459.5 5.5Q454 11 454 19V95Q416 47 365.5 18.5Q315 -10 261 -10Q220 -10 196.5 3Q173 16 162 32V-195Q162 -204 156 -211Q150 -218 140 -218Q130 -218 124.5 -211Q119 -204 119 -195V452H53Q45 452 39.5 457.5Q34 463 34 471Q34 479 39.5 484.5Q45 490 53 490H147Q155 490 160.5 484.5Q166 479 166 471V133Q166 87 190.5 58.5Q215 30 261 30Q318 30 367.5 63Q417 96 454 141V452H388Q380 452 374.5 457.5Q369 463 369 471Q369 479 374.5 484.5Q380 490 388 490H482Q490 490 495.5 484.5Q501 479 501 471Z" glyph-name="mu" horiz-adv-x="623" unicode="&#181;" /><glyph d="M270 314 114 158Q109 153 100.5 153Q92 153 87 158Q82 163 82 171.5Q82 180 87 185L243 341L87 497Q82 502 82 510.5Q82 519 87 524Q92 529 100.5 529Q109 529 114 524L270 368L426 524Q431 529 439.5 529Q448 529 453 524Q458 519 458 510.5Q458 502 453 497L297 341L453 185Q458 180 458 171.5Q458 163 453 158Q448 153 439.5 153Q431 153 426 158Z" glyph-name="multiply" horiz-adv-x="540" unicode="&#215;" /><glyph d="M235 38Q243 38 248.5 32.5Q254 27 254 19Q254 11 248.5 5.5Q243 0 235 0H56Q48 0 42.5 5.5Q37 11 37 19Q37 27 42.5 32.5Q48 38 56 38H122V452H56Q48 452 42.5 457.5Q37 463 37 471Q37 479 42.5 484.5Q48 490 56 490H150Q158 490 163.5 484.5Q169 479 169 471V397Q229 445 282 472.5Q335 500 386 500Q428 500 453 487Q478 474 491 454Q504 434 508 410.5Q512 387 512 366V38H578Q586 38 591.5 32.5Q597 27 597 19Q597 11 591.5 5.5Q586 0 578 0H399Q391 0 385.5 5.5Q380 11 380 19Q380 27 385.5 32.5Q391 38 399 38H465V366Q465 405 448 431Q431 457 387 457Q336 457 285 429Q234 401 169 354V38Z" glyph-name="n" horiz-adv-x="619" unicode="n" /><glyph d="M263 289Q300 289 332.5 300Q365 311 390 334.5Q415 358 429.5 393.5Q444 429 444 478Q444 527 429.5 563Q415 599 390 623Q365 647 332.5 659Q300 671 263 671Q226 671 193.5 659.5Q161 648 136.5 624.5Q112 601 98 565Q84 529 84 480Q84 433 98 397Q112 361 136.5 337Q161 313 193.5 301Q226 289 263 289ZM263 710Q311 710 352.5 693.5Q394 677 424.5 647Q455 617 472.5 574.5Q490 532 490 479Q490 411 469.5 349Q449 287 417 232.5Q385 178 345 132.5Q305 87 265 52Q241 30 219 13.5Q197 -3 177 -16Q166 -23 156.5 -18.5Q147 -14 145 -4Q144 1 146.5 7.5Q149 14 157 20Q178 36 199 51.5Q220 67 240 86Q291 133 336.5 190Q382 247 412 310Q385 281 342.5 265Q300 249 258 249Q209 249 168.5 265.5Q128 282 98.5 312Q69 342 53 384.5Q37 427 37 480Q37 533 54 575.5Q71 618 101.5 648Q132 678 173.5 694Q215 710 263 710Z" glyph-name="nine" horiz-adv-x="540" unicode="9" /><glyph d="M217 221 156 115Q152 108 145 107Q138 106 132 109Q126 112 123.5 118.5Q121 125 126 133L177 221H94Q86 221 80.5 226.5Q75 232 75 240Q75 248 80.5 253.5Q86 259 94 259H199L293 422H94Q86 422 80.5 427.5Q75 433 75 441Q75 449 80.5 454.5Q86 460 94 460H315L390 588Q394 595 401 596Q408 597 414 594Q420 591 422.5 584.5Q425 578 420 570L356 460H444Q452 460 457.5 454.5Q463 449 463 441Q463 433 457.5 427.5Q452 422 444 422H334L239 259H444Q452 259 457.5 253.5Q463 248 463 240Q463 232 457.5 226.5Q452 221 444 221Z" glyph-name="notequal" horiz-adv-x="540" unicode="&#8800;" /><glyph d="M236 689Q257 689 278 676Q299 663 318.5 647Q338 631 355.5 618Q373 605 389 605Q413 605 421 623Q429 641 430 665V670Q430 678 435.5 683.5Q441 689 449 689Q457 689 462.5 683.5Q468 678 468 670V659Q468 623 447.5 595Q427 567 385 567Q363 567 342 580Q321 593 302 609Q283 625 265.5 638Q248 651 232 651Q208 651 200 633Q192 615 191 591V586Q191 578 185.5 572.5Q180 567 172 567Q164 567 158.5 572.5Q153 578 153 586V597Q153 633 173.5 661Q194 689 236 689ZM235 38Q243 38 248.5 32.5Q254 27 254 19Q254 11 248.5 5.5Q243 0 235 0H56Q48 0 42.5 5.5Q37 11 37 19Q37 27 42.5 32.5Q48 38 56 38H122V452H56Q48 452 42.5 457.5Q37 463 37 471Q37 479 42.5 484.5Q48 490 56 490H150Q158 490 163.5 484.5Q169 479 169 471V397Q229 445 282 472.5Q335 500 386 500Q428 500 453 487Q478 474 491 454Q504 434 508 410.5Q512 387 512 366V38H578Q586 38 591.5 32.5Q597 27 597 19Q597 11 591.5 5.5Q586 0 578 0H399Q391 0 385.5 5.5Q380 11 380 19Q380 27 385.5 32.5Q391 38 399 38H465V366Q465 405 448 431Q431 457 387 457Q336 457 285 429Q234 401 169 354V38Z" glyph-name="ntilde" horiz-adv-x="619" unicode="&#241;" /><glyph d="M222 290H383L411 413H250ZM462 452H578Q597 452 597 433Q597 425 591.5 419Q586 413 578 413H454L426 290H549Q568 290 568 271Q568 263 562.5 257Q557 251 549 251H418L364 9Q362 -1 354 -5Q346 -9 338.5 -8Q331 -7 325.5 -1.5Q320 4 322 13L375 251H214L160 9Q158 -1 150 -5Q142 -9 134.5 -8Q127 -7 121.5 -1.5Q116 4 118 13L171 251H61Q42 251 42 270Q42 278 47.5 284Q53 290 61 290H179L207 413H90Q71 413 71 432Q71 440 76.5 446Q82 452 90 452H215L268 688Q270 698 278 702Q286 706 293.5 705Q301 704 306.5 698.5Q312 693 310 684L258 452H419L472 688Q474 698 482 702Q490 706 497.5 705Q505 704 510.5 698.5Q516 693 514 684Z" glyph-name="numbersign" horiz-adv-x="639" unicode="#" /><glyph d="M274 461Q238 461 206 448Q174 435 150.5 408Q127 381 113 340.5Q99 300 99 245Q99 190 113 149.5Q127 109 150.5 82Q174 55 206 42Q238 29 274 29Q310 29 342 42Q374 55 397.5 82Q421 109 435 149.5Q449 190 449 245Q449 300 435 340.5Q421 381 397.5 408Q374 435 342 448Q310 461 274 461ZM274 -10Q226 -10 185.5 8Q145 26 115.5 59Q86 92 69 139Q52 186 52 245Q52 303 69 350.5Q86 398 115.5 431Q145 464 185.5 482Q226 500 274 500Q322 500 362.5 482Q403 464 432.5 431Q462 398 479 350.5Q496 303 496 245Q496 186 479 139Q462 92 432.5 59Q403 26 362.5 8Q322 -10 274 -10Z" glyph-name="o" horiz-adv-x="548" unicode="o" /><glyph d="M180 558Q171 552 163.5 553.5Q156 555 152 561Q148 567 149 574.5Q150 582 158 588L351 731Q362 739 372.5 736.5Q383 734 388.5 726.5Q394 719 392.5 708.5Q391 698 379 690ZM274 461Q238 461 206 448Q174 435 150.5 408Q127 381 113 340.5Q99 300 99 245Q99 190 113 149.5Q127 109 150.5 82Q174 55 206 42Q238 29 274 29Q310 29 342 42Q374 55 397.5 82Q421 109 435 149.5Q449 190 449 245Q449 300 435 340.5Q421 381 397.5 408Q374 435 342 448Q310 461 274 461ZM274 -10Q226 -10 185.5 8Q145 26 115.5 59Q86 92 69 139Q52 186 52 245Q52 303 69 350.5Q86 398 115.5 431Q145 464 185.5 482Q226 500 274 500Q322 500 362.5 482Q403 464 432.5 431Q462 398 479 350.5Q496 303 496 245Q496 186 479 139Q462 92 432.5 59Q403 26 362.5 8Q322 -10 274 -10Z" glyph-name="oacute" horiz-adv-x="548" unicode="&#243;" /><glyph d="M274 737Q283 737 292 728L434 588Q441 581 440.5 573.5Q440 566 435 560.5Q430 555 422 554.5Q414 554 405 562L274 686L143 562Q134 554 126 554.5Q118 555 113 560.5Q108 566 107.5 573.5Q107 581 114 588L256 728Q265 737 274 737ZM274 461Q238 461 206 448Q174 435 150.5 408Q127 381 113 340.5Q99 300 99 245Q99 190 113 149.5Q127 109 150.5 82Q174 55 206 42Q238 29 274 29Q310 29 342 42Q374 55 397.5 82Q421 109 435 149.5Q449 190 449 245Q449 300 435 340.5Q421 381 397.5 408Q374 435 342 448Q310 461 274 461ZM274 -10Q226 -10 185.5 8Q145 26 115.5 59Q86 92 69 139Q52 186 52 245Q52 303 69 350.5Q86 398 115.5 431Q145 464 185.5 482Q226 500 274 500Q322 500 362.5 482Q403 464 432.5 431Q462 398 479 350.5Q496 303 496 245Q496 186 479 139Q462 92 432.5 59Q403 26 362.5 8Q322 -10 274 -10Z" glyph-name="ocircumflex" horiz-adv-x="548" unicode="&#244;" /><glyph d="M319 635Q319 655 332.5 668.5Q346 682 366 682Q386 682 399.5 668.5Q413 655 413 635Q413 615 399.5 601.5Q386 588 366 588Q346 588 332.5 601.5Q319 615 319 635ZM135 635Q135 655 148.5 668.5Q162 682 182 682Q202 682 215.5 668.5Q229 655 229 635Q229 615 215.5 601.5Q202 588 182 588Q162 588 148.5 601.5Q135 615 135 635ZM274 461Q238 461 206 448Q174 435 150.5 408Q127 381 113 340.5Q99 300 99 245Q99 190 113 149.5Q127 109 150.5 82Q174 55 206 42Q238 29 274 29Q310 29 342 42Q374 55 397.5 82Q421 109 435 149.5Q449 190 449 245Q449 300 435 340.5Q421 381 397.5 408Q374 435 342 448Q310 461 274 461ZM274 -10Q226 -10 185.5 8Q145 26 115.5 59Q86 92 69 139Q52 186 52 245Q52 303 69 350.5Q86 398 115.5 431Q145 464 185.5 482Q226 500 274 500Q322 500 362.5 482Q403 464 432.5 431Q462 398 479 350.5Q496 303 496 245Q496 186 479 139Q462 92 432.5 59Q403 26 362.5 8Q322 -10 274 -10Z" glyph-name="odieresis" horiz-adv-x="548" unicode="&#246;" /><glyph d="M274 461Q238 461 206 448Q174 435 150.5 408Q127 381 113 340.5Q99 300 99 245Q99 190 113 149.5Q127 109 150.5 82Q174 55 206 42Q238 29 274 29Q310 29 342 42Q374 55 397.5 82Q421 109 435 149.5Q449 190 449 245Q449 300 435 340.5Q421 381 397.5 408Q374 435 342 448Q310 461 274 461ZM659 462Q627 462 599.5 450Q572 438 550.5 415.5Q529 393 515.5 362Q502 331 499 292H798Q798 336 787.5 368Q777 400 758 421Q739 442 714 452Q689 462 659 462ZM470 127Q444 59 392.5 24.5Q341 -10 274 -10Q226 -10 185.5 8Q145 26 115.5 59Q86 92 69 139Q52 186 52 245Q52 303 69 350.5Q86 398 115.5 431Q145 464 185.5 482Q226 500 274 500Q342 500 393 465.5Q444 431 469 366Q495 432 545 466Q595 500 660 500Q744 500 793 446.5Q842 393 842 293V288Q842 271 833 263Q824 255 809 255H497V248Q497 191 512.5 150Q528 109 553.5 82Q579 55 612.5 42.5Q646 30 682 30Q708 30 738 37Q768 44 804 66Q817 74 827 68.5Q837 63 837 52Q837 40 825.5 31Q814 22 803 17Q783 7 752 -1.5Q721 -10 677 -10Q610 -10 554 24Q498 58 470 127Z" glyph-name="oe" horiz-adv-x="895" unicode="&#339;" /><glyph d="M194 1Q180 -7 161 -19Q142 -31 125 -47.5Q108 -64 96 -83Q84 -102 84 -123Q84 -146 96 -161Q105 -172 117.5 -176Q130 -180 143 -180Q154 -180 164.5 -178.5Q175 -177 187 -175Q195 -175 199.5 -180Q204 -185 204 -191Q204 -196 201 -201.5Q198 -207 190 -209Q179 -213 165.5 -215Q152 -217 139 -217Q120 -217 102 -211.5Q84 -206 70.5 -195Q57 -184 48.5 -167Q40 -150 40 -127Q40 -92 60 -65.5Q80 -39 104 -20Q132 2 169 18L194 10Z" glyph-name="ogonek" horiz-adv-x="244" unicode="&#731;" /><glyph d="M168 690Q156 698 154.5 708.5Q153 719 158.5 726.5Q164 734 174.5 736.5Q185 739 196 731L389 588Q397 582 398 574.5Q399 567 395 561Q391 555 383.5 553.5Q376 552 367 558ZM274 461Q238 461 206 448Q174 435 150.5 408Q127 381 113 340.5Q99 300 99 245Q99 190 113 149.5Q127 109 150.5 82Q174 55 206 42Q238 29 274 29Q310 29 342 42Q374 55 397.5 82Q421 109 435 149.5Q449 190 449 245Q449 300 435 340.5Q421 381 397.5 408Q374 435 342 448Q310 461 274 461ZM274 -10Q226 -10 185.5 8Q145 26 115.5 59Q86 92 69 139Q52 186 52 245Q52 303 69 350.5Q86 398 115.5 431Q145 464 185.5 482Q226 500 274 500Q322 500 362.5 482Q403 464 432.5 431Q462 398 479 350.5Q496 303 496 245Q496 186 479 139Q462 92 432.5 59Q403 26 362.5 8Q322 -10 274 -10Z" glyph-name="ograve" horiz-adv-x="548" unicode="&#242;" /><glyph d="M455 38Q463 38 468.5 32.5Q474 27 474 19Q474 11 468.5 5.5Q463 0 455 0H116Q108 0 102.5 5.5Q97 11 97 19Q97 27 102.5 32.5Q108 38 116 38H262V652L127 582Q115 577 107 580.5Q99 584 96 591.5Q93 599 96 607.5Q99 616 110 621L263 699Q283 710 296 703Q309 696 309 679V38Z" glyph-name="one" horiz-adv-x="540" unicode="1" /><glyph d="M158 -3Q152 -10 144 -10Q136 -10 131 -5.5Q126 -1 124.5 6Q123 13 129 20L724 703Q730 710 738 710Q746 710 751 705.5Q756 701 757.5 693.5Q759 686 752 678ZM251 367Q257 367 262.5 361Q268 355 268 349Q268 341 262.5 336Q257 331 251 331H73Q65 331 59.5 336Q54 341 54 349Q54 355 59.5 361Q65 367 73 367H142V664L84 634Q77 630 71 633Q65 636 62 642Q59 648 59.5 654.5Q60 661 66 664L146 706Q161 714 171.5 708Q182 702 182 690V367ZM665 256Q663 237 646 237Q628 237 628 257V363Q628 370 633 374.5Q638 379 646 379Q661 379 663 363L664 356Q680 367 700.5 374.5Q721 382 746 382Q765 382 783.5 376Q802 370 817 358Q832 346 841.5 327.5Q851 309 851 284Q851 243 826 208Q801 173 764 134L671 35H842Q860 35 860 17Q860 10 855 5Q850 0 842 0H635Q627 0 622 5.5Q617 11 617 19Q617 28 622 34L714 132Q762 183 786 217.5Q810 252 810 281Q810 316 788.5 331.5Q767 347 742 347Q722 347 701 338Q680 329 667 318Z" glyph-name="onehalf" horiz-adv-x="907" unicode="&#189;" /><glyph d="M158 -3Q152 -10 144 -10Q136 -10 131 -5.5Q126 -1 124.5 6Q123 13 129 20L724 703Q730 710 738 710Q746 710 751 705.5Q756 701 757.5 693.5Q759 686 752 678ZM251 367Q257 367 262.5 361Q268 355 268 349Q268 341 262.5 336Q257 331 251 331H73Q65 331 59.5 336Q54 341 54 349Q54 355 59.5 361Q65 367 73 367H142V664L84 634Q77 630 71 633Q65 636 62 642Q59 648 59.5 654.5Q60 661 66 664L146 706Q161 714 171.5 708Q182 702 182 690V367ZM786 134H843Q850 134 854 129Q858 124 858 119Q858 114 854 109.5Q850 105 843 105H786V15Q786 7 781 2Q776 -3 768 -3Q760 -3 755 2Q750 7 750 15V105H579Q566 105 561 111.5Q556 118 556 126Q556 132 559 137L703 389Q707 396 714 397.5Q721 399 727 396Q733 393 735.5 386.5Q738 380 734 372L598 134H750V236Q750 244 755 248.5Q760 253 768 253Q776 253 781 248.5Q786 244 786 236Z" glyph-name="onequarter" horiz-adv-x="891" unicode="&#188;" /><glyph d="M261 364Q267 364 272.5 358Q278 352 278 346Q278 338 272.5 333Q267 328 261 328H83Q75 328 69.5 333Q64 338 64 346Q64 352 69.5 358Q75 364 83 364H152V661L94 631Q87 627 81 630Q75 633 72 639Q69 645 69.5 651.5Q70 658 76 661L156 703Q171 711 181.5 705Q192 699 192 687V364Z" glyph-name="onesuperior" horiz-adv-x="323" unicode="&#185;" /><glyph d="M174 353Q193 353 212 359.5Q231 366 247.5 376Q264 386 277 398.5Q290 411 298 424V511Q265 509 223 503.5Q181 498 148 486Q125 478 111 462.5Q97 447 97 423Q97 394 118.5 373.5Q140 353 174 353ZM210 710Q265 710 300 683.5Q335 657 335 593V413Q335 385 340.5 368Q346 351 372 351Q379 351 386 353Q393 355 398 355Q406 355 409.5 351Q413 347 413 342Q413 330 400 325Q387 320 366 320Q347 320 335 326.5Q323 333 315.5 342.5Q308 352 305 363Q302 374 301 384Q284 362 250.5 341Q217 320 170 320Q146 320 125.5 327.5Q105 335 90 349Q75 363 66.5 381.5Q58 400 58 423Q58 462 84 486.5Q110 511 150 522Q182 530 221.5 535Q261 540 298 542V588Q298 638 274.5 658Q251 678 204 678Q183 678 159.5 672Q136 666 119 658L115 590Q115 584 110 580.5Q105 577 99 577Q93 577 88 580Q83 583 83 590V694Q83 710 98 710Q109 710 112 697L114 687Q129 695 154.5 702.5Q180 710 210 710Z" glyph-name="ordfeminine" horiz-adv-x="458" unicode="&#170;" /><glyph d="M225 679Q198 679 174 669Q150 659 132 638.5Q114 618 103.5 587Q93 556 93 515Q93 474 103.5 443Q114 412 132 392Q150 372 174 362Q198 352 225 352Q252 352 276 362Q300 372 318 392Q336 412 346.5 443Q357 474 357 515Q357 556 346.5 587Q336 618 318 638.5Q300 659 276 669Q252 679 225 679ZM225 320Q188 320 157 333.5Q126 347 103.5 372.5Q81 398 68 434Q55 470 55 515Q55 560 68 596Q81 632 103.5 657.5Q126 683 157 696.5Q188 710 225 710Q262 710 293 696.5Q324 683 346.5 657.5Q369 632 382 596Q395 560 395 515Q395 470 382 434Q369 398 346.5 372.5Q324 347 293 333.5Q262 320 225 320Z" glyph-name="ordmasculine" horiz-adv-x="450" unicode="&#186;" /><glyph d="M449 245Q449 298 436 337.5Q423 377 401 404L178 58Q198 43 222.5 36Q247 29 274 29Q310 29 342 42Q374 55 397.5 82Q421 109 435 149.5Q449 190 449 245ZM274 461Q238 461 206 448Q174 435 150.5 408Q127 381 113 340.5Q99 300 99 245Q99 191 111.5 151.5Q124 112 147 86L370 432Q329 461 274 461ZM101 -61Q95 -69 87 -70Q79 -71 72.5 -67.5Q66 -64 63 -56.5Q60 -49 66 -40L124 50Q90 83 71 132.5Q52 182 52 245Q52 303 69 350.5Q86 398 115.5 431Q145 464 185.5 482Q226 500 274 500Q339 500 392 466L448 552Q454 560 462 561Q470 562 476.5 558.5Q483 555 486 547.5Q489 540 483 531L424 440Q458 406 477 357Q496 308 496 245Q496 186 479 139Q462 92 432.5 59Q403 26 362.5 8Q322 -10 274 -10Q207 -10 156 24Z" glyph-name="oslash" horiz-adv-x="548" unicode="&#248;" /><glyph d="M199 689Q220 689 241 676Q262 663 281.5 647Q301 631 318.5 618Q336 605 352 605Q376 605 384 623Q392 641 393 665V670Q393 678 398.5 683.5Q404 689 412 689Q420 689 425.5 683.5Q431 678 431 670V659Q431 623 410.5 595Q390 567 348 567Q326 567 305 580Q284 593 265 609Q246 625 228.5 638Q211 651 195 651Q171 651 163 633Q155 615 154 591V586Q154 578 148.5 572.5Q143 567 135 567Q127 567 121.5 572.5Q116 578 116 586V597Q116 633 136.5 661Q157 689 199 689ZM274 461Q238 461 206 448Q174 435 150.5 408Q127 381 113 340.5Q99 300 99 245Q99 190 113 149.5Q127 109 150.5 82Q174 55 206 42Q238 29 274 29Q310 29 342 42Q374 55 397.5 82Q421 109 435 149.5Q449 190 449 245Q449 300 435 340.5Q421 381 397.5 408Q374 435 342 448Q310 461 274 461ZM274 -10Q226 -10 185.5 8Q145 26 115.5 59Q86 92 69 139Q52 186 52 245Q52 303 69 350.5Q86 398 115.5 431Q145 464 185.5 482Q226 500 274 500Q322 500 362.5 482Q403 464 432.5 431Q462 398 479 350.5Q496 303 496 245Q496 186 479 139Q462 92 432.5 59Q403 26 362.5 8Q322 -10 274 -10Z" glyph-name="otilde" horiz-adv-x="548" unicode="&#245;" /><glyph d="M153 245Q153 190 167 149.5Q181 109 205.5 82Q230 55 262 42Q294 29 330 29Q366 29 398 42Q430 55 454 82Q478 109 492 149.5Q506 190 506 245Q506 300 492 340.5Q478 381 454 408Q430 435 398 448Q366 461 330 461Q294 461 262 448Q230 435 205.5 408Q181 381 167 340.5Q153 300 153 245ZM156 394Q183 445 229.5 472.5Q276 500 335 500Q383 500 423 482Q463 464 492 431Q521 398 537.5 350.5Q554 303 554 245Q554 186 537.5 139Q521 92 492 59Q463 26 423 8Q383 -10 335 -10Q276 -10 229.5 17.5Q183 45 156 96V-172H232Q240 -172 245.5 -177.5Q251 -183 251 -191Q251 -199 245.5 -204.5Q240 -210 232 -210H43Q35 -210 29.5 -204.5Q24 -199 24 -191Q24 -183 29.5 -177.5Q35 -172 43 -172H109V452H43Q35 452 29.5 457.5Q24 463 24 471Q24 479 29.5 484.5Q35 490 43 490H137Q145 490 150.5 484.5Q156 479 156 471Z" glyph-name="p" horiz-adv-x="606" unicode="p" /><glyph d="M386 0Q324 0 265.5 21Q207 42 162 85Q117 128 89.5 194Q62 260 62 350Q62 440 88.5 506Q115 572 159 615Q203 658 261 679Q319 700 381 700H684Q692 700 697.5 694.5Q703 689 703 681Q703 673 697.5 667.5Q692 662 684 662H571V38H684Q692 38 697.5 32.5Q703 27 703 19Q703 11 697.5 5.5Q692 0 684 0Z" glyph-name="paragraph" horiz-adv-x="751" unicode="&#182;" /><glyph d="M100 306Q100 225 122.5 152.5Q145 80 173 22Q193 -20 212.5 -51Q232 -82 245 -100Q251 -109 248.5 -117.5Q246 -126 239 -130Q232 -134 222.5 -132.5Q213 -131 205 -120Q188 -98 162 -56Q136 -14 111.5 42Q87 98 69 165.5Q51 233 51 306Q51 379 69 446.5Q87 514 111.5 570Q136 626 162 667.5Q188 709 205 732Q213 742 222.5 744Q232 746 239 742Q246 738 248.5 729.5Q251 721 245 712Q232 694 212.5 663Q193 632 173 590Q145 532 122.5 459.5Q100 387 100 306Z" glyph-name="parenleft" horiz-adv-x="278" unicode="(" /><glyph d="M178 306Q178 387 155.5 459.5Q133 532 105 590Q85 632 65.5 663Q46 694 33 712Q27 721 29.5 729.5Q32 738 39 742Q46 746 55.5 744Q65 742 73 732Q89 709 115.5 667.5Q142 626 166.5 570Q191 514 209 446.5Q227 379 227 306Q227 233 209 165.5Q191 98 166.5 42Q142 -14 115.5 -56Q89 -98 73 -120Q65 -131 55.5 -132.5Q46 -134 39 -130Q32 -126 29.5 -117.5Q27 -109 33 -100Q46 -82 65.5 -51Q85 -20 105 22Q133 80 155.5 152.5Q178 225 178 306Z" glyph-name="parenright" horiz-adv-x="278" unicode=")" /><glyph d="M271 461Q235 461 204 448Q173 435 149.5 408Q126 381 113 340.5Q100 300 100 245Q100 190 114 149.5Q128 109 151.5 82Q175 55 207 42Q239 29 275 29Q311 29 343 42Q375 55 398.5 82Q422 109 436 149.5Q450 190 450 245Q450 300 435.5 340.5Q421 381 396.5 408Q372 435 339.5 448Q307 461 271 461ZM53 245Q53 305 69 352Q85 399 114 432Q143 465 182.5 482.5Q222 500 270 500Q313 500 348.5 486Q384 472 413 441Q391 492 354.5 537.5Q318 583 275 619Q243 646 210 665Q177 684 145 701Q139 704 137 712Q135 720 138.5 726.5Q142 733 150.5 736Q159 739 173 733Q203 719 248 691Q293 663 338 619Q371 587 399.5 549Q428 511 449.5 465.5Q471 420 483.5 365.5Q496 311 496 246Q496 185 479 137.5Q462 90 432.5 57Q403 24 362.5 7Q322 -10 274 -10Q226 -10 185.5 6Q145 22 115.5 53.5Q86 85 69.5 133Q53 181 53 245Z" glyph-name="partialdiff" horiz-adv-x="551" unicode="&#8706;" /><glyph d="M450 150Q450 87 473 57.5Q496 28 530 28Q565 28 588 57.5Q611 87 611 150Q611 212 588 242Q565 272 530 272Q496 272 473 242Q450 212 450 150ZM408 150Q408 190 418 220Q428 250 445 269.5Q462 289 484 299Q506 309 530 309Q554 309 576 299Q598 289 615.5 269.5Q633 250 643 220Q653 190 653 150Q653 110 643 80Q633 50 615.5 30Q598 10 576 0Q554 -10 530 -10Q506 -10 484 0Q462 10 445 30Q428 50 418 80Q408 110 408 150ZM98 541Q98 479 121 449Q144 419 178 419Q213 419 236 449Q259 479 259 541Q259 603 236 633Q213 663 178 663Q144 663 121 633Q98 603 98 541ZM56 541Q56 581 66 611Q76 641 93 660.5Q110 680 132 690Q154 700 178 700Q202 700 224 690Q246 680 263.5 660.5Q281 641 291 611Q301 581 301 541Q301 501 291 471Q281 441 263.5 421.5Q246 402 224 392Q202 382 178 382Q154 382 132 392Q110 402 93 421.5Q76 441 66 471Q56 501 56 541ZM104 -2Q98 -10 89.5 -10.5Q81 -11 75.5 -6.5Q70 -2 68.5 6Q67 14 74 23L618 702Q624 710 632.5 710Q641 710 646.5 705.5Q652 701 653.5 693.5Q655 686 648 677Z" glyph-name="percent" horiz-adv-x="712" unicode="%" /><glyph d="M63 54Q63 80 82 99Q101 118 127 118Q153 118 172 99Q191 80 191 54Q191 28 172 9Q153 -10 127 -10Q101 -10 82 9Q63 28 63 54Z" glyph-name="period" horiz-adv-x="254" unicode="." /><glyph d="M69 354Q69 380 88 399Q107 418 133 418Q159 418 178 399Q197 380 197 354Q197 328 178 309Q159 290 133 290Q107 290 88 309Q69 328 69 354Z" glyph-name="periodcentered" horiz-adv-x="266" unicode="&#183;" /><glyph d="M765 150Q765 87 788 57.5Q811 28 845 28Q880 28 903 57.5Q926 87 926 150Q926 212 903 242Q880 272 845 272Q811 272 788 242Q765 212 765 150ZM723 150Q723 190 733 220Q743 250 760 269.5Q777 289 799 299Q821 309 845 309Q869 309 891 299Q913 289 930.5 269.5Q948 250 958 220Q968 190 968 150Q968 110 958 80Q948 50 930.5 30Q913 10 891 0Q869 -10 845 -10Q821 -10 799 0Q777 10 760 30Q743 50 733 80Q723 110 723 150ZM450 150Q450 87 473 57.5Q496 28 530 28Q565 28 588 57.5Q611 87 611 150Q611 212 588 242Q565 272 530 272Q496 272 473 242Q450 212 450 150ZM408 150Q408 190 418 220Q428 250 445 269.5Q462 289 484 299Q506 309 530 309Q554 309 576 299Q598 289 615.5 269.5Q633 250 643 220Q653 190 653 150Q653 110 643 80Q633 50 615.5 30Q598 10 576 0Q554 -10 530 -10Q506 -10 484 0Q462 10 445 30Q428 50 418 80Q408 110 408 150ZM98 541Q98 479 121 449Q144 419 178 419Q213 419 236 449Q259 479 259 541Q259 603 236 633Q213 663 178 663Q144 663 121 633Q98 603 98 541ZM56 541Q56 581 66 611Q76 641 93 660.5Q110 680 132 690Q154 700 178 700Q202 700 224 690Q246 680 263.5 660.5Q281 641 291 611Q301 581 301 541Q301 501 291 471Q281 441 263.5 421.5Q246 402 224 392Q202 382 178 382Q154 382 132 392Q110 402 93 421.5Q76 441 66 471Q56 501 56 541ZM104 -2Q98 -10 89.5 -10.5Q81 -11 75.5 -6.5Q70 -2 68.5 6Q67 14 74 23L618 702Q624 710 632.5 710Q641 710 646.5 705.5Q652 701 653.5 693.5Q655 686 648 677Z" glyph-name="perthousand" horiz-adv-x="1007" unicode="&#8240;" /><glyph d="M662 490Q670 490 675.5 484.5Q681 479 681 471Q681 463 675.5 457.5Q670 452 662 452H483V128Q483 86 503.5 58Q524 30 575 30Q596 30 613 33.5Q630 37 643 41.5Q656 46 665 50Q674 54 678 54Q687 54 692.5 48.5Q698 43 698 35Q698 23 684.5 14.5Q671 6 651.5 0.5Q632 -5 611 -7.5Q590 -10 575 -10Q536 -10 509.5 1.5Q483 13 466.5 31.5Q450 50 443 73.5Q436 97 436 121V452H193Q193 348 182 272Q171 196 156 142Q141 88 125 54.5Q109 21 100 4Q92 -10 77 -10Q63 -10 56 0.5Q49 11 54 24Q57 31 72 59.5Q87 88 103.5 139.5Q120 191 133 268.5Q146 346 146 452H57Q49 452 43.5 457.5Q38 463 38 471Q38 479 43.5 484.5Q49 490 57 490Z" glyph-name="pi" horiz-adv-x="735" unicode="&#960;" /><glyph d="M290 360H455Q463 360 468.5 354.5Q474 349 474 341Q474 333 468.5 327.5Q463 322 455 322H290V156Q290 148 284 142.5Q278 137 270 137Q262 137 256 142.5Q250 148 250 156V322H85Q77 322 71.5 327.5Q66 333 66 341Q66 349 71.5 354.5Q77 360 85 360H250V526Q250 534 256 539.5Q262 545 270 545Q278 545 284 539.5Q290 534 290 526Z" glyph-name="plus" horiz-adv-x="540" unicode="+" /><glyph d="M290 360H455Q463 360 468.5 354.5Q474 349 474 341Q474 333 468.5 327.5Q463 322 455 322H290V156Q290 148 284 142.5Q278 137 270 137Q262 137 256 142.5Q250 148 250 156V322H85Q77 322 71.5 327.5Q66 333 66 341Q66 349 71.5 354.5Q77 360 85 360H250V526Q250 534 256 539.5Q262 545 270 545Q278 545 284 539.5Q290 534 290 526ZM85 0Q77 0 71.5 5.5Q66 11 66 19Q66 27 71.5 32.5Q77 38 85 38H455Q463 38 468.5 32.5Q474 27 474 19Q474 11 468.5 5.5Q463 0 455 0Z" glyph-name="plusminus" horiz-adv-x="540" unicode="&#177;" /><glyph d="M200 38H286Q294 38 299.5 32.5Q305 27 305 19Q305 11 299.5 5.5Q294 0 286 0H67Q59 0 53.5 5.5Q48 11 48 19Q48 27 53.5 32.5Q59 38 67 38H153V662H67Q59 662 53.5 667.5Q48 673 48 681Q48 689 53.5 694.5Q59 700 67 700H721Q729 700 734.5 694.5Q740 689 740 681Q740 673 734.5 667.5Q729 662 721 662H635V38H721Q729 38 734.5 32.5Q740 27 740 19Q740 11 734.5 5.5Q729 0 721 0H502Q494 0 488.5 5.5Q483 11 483 19Q483 27 488.5 32.5Q494 38 502 38H588V662H200Z" glyph-name="product" horiz-adv-x="788" unicode="&#8719;" /><glyph d="M453 245Q453 300 439 340.5Q425 381 400.5 408Q376 435 344 448Q312 461 276 461Q240 461 208 448Q176 435 152 408Q128 381 114 340.5Q100 300 100 245Q100 190 114 149.5Q128 109 152 82Q176 55 208 42Q240 29 276 29Q312 29 344 42Q376 55 400.5 82Q425 109 439 149.5Q453 190 453 245ZM450 96Q423 45 376.5 17.5Q330 -10 271 -10Q223 -10 183 8Q143 26 114 59Q85 92 68.5 139Q52 186 52 245Q52 303 68.5 350.5Q85 398 114 431Q143 464 183 482Q223 500 271 500Q330 500 376.5 472.5Q423 445 450 394V471Q450 481 456.5 488Q463 495 473 495Q483 495 490 488Q497 481 497 471V-172H563Q571 -172 576.5 -177.5Q582 -183 582 -191Q582 -199 576.5 -204.5Q571 -210 563 -210H364Q356 -210 350.5 -204.5Q345 -199 345 -191Q345 -183 350.5 -177.5Q356 -172 364 -172H450Z" glyph-name="q" horiz-adv-x="585" unicode="q" /><glyph d="M52 690Q52 699 57.5 704.5Q63 710 70 710Q77 710 83.5 704.5Q90 699 91 686L94 649Q117 672 153.5 691Q190 710 237 710Q271 710 299.5 700Q328 690 349 672Q370 654 381.5 628Q393 602 393 571Q393 535 379 504Q365 473 344 443.5Q323 414 299.5 385.5Q276 357 258 326Q231 281 225 230Q224 222 217.5 217.5Q211 213 202 213Q194 213 188 218.5Q182 224 182 232Q182 264 194 293Q206 322 224 350Q242 378 263 404.5Q284 431 302 458Q320 485 332 512Q344 539 344 568Q344 617 313 643.5Q282 670 229 670Q209 670 189.5 663.5Q170 657 152 647.5Q134 638 119.5 626.5Q105 615 96 605L94 540Q94 531 88 525Q82 519 73 519Q64 519 58 525Q52 531 52 540ZM140 54Q140 80 159 99Q178 118 204 118Q230 118 249 99Q268 80 268 54Q268 28 249 9Q230 -10 204 -10Q178 -10 159 9Q140 28 140 54Z" glyph-name="question" horiz-adv-x="434" unicode="?" /><glyph d="M377 -200Q377 -209 371.5 -214.5Q366 -220 359 -220Q352 -220 345.5 -214.5Q339 -209 338 -196L335 -159Q312 -182 275.5 -201Q239 -220 192 -220Q158 -220 129.5 -210Q101 -200 80 -182Q59 -164 47.5 -138.5Q36 -113 36 -81Q36 -45 50 -14Q64 17 85 46.5Q106 76 129.5 104.5Q153 133 171 164Q198 209 204 260Q205 268 211.5 272.5Q218 277 227 277Q235 277 241 271.5Q247 266 247 258Q247 226 235 197Q223 168 205 140Q187 112 166 85.5Q145 59 127 32Q109 5 97 -22Q85 -49 85 -78Q85 -127 116 -153.5Q147 -180 200 -180Q220 -180 239.5 -173.5Q259 -167 277 -157.5Q295 -148 309.5 -136.5Q324 -125 333 -115L335 -50Q335 -41 341 -35Q347 -29 356 -29Q365 -29 371 -35Q377 -41 377 -50ZM289 436Q289 410 270 391Q251 372 225 372Q199 372 180 391Q161 410 161 436Q161 462 180 481Q199 500 225 500Q251 500 270 481Q289 462 289 436Z" glyph-name="questiondown" horiz-adv-x="425" unicode="&#191;" /><glyph d="M257 679Q257 696 266 703Q275 710 285 709.5Q295 709 303 701Q311 693 310 679L294 445Q293 436 287 432Q281 428 274.5 428Q268 428 262.5 432.5Q257 437 257 445ZM76 679Q76 696 85 703Q94 710 104 709.5Q114 709 122 701Q130 693 129 679L113 445Q112 436 106 432Q100 428 93.5 428Q87 428 81.5 432.5Q76 437 76 445Z" glyph-name="quotedbl" horiz-adv-x="377" unicode="&quot;" /><glyph d="M313 116Q342 116 361.5 96Q381 76 381 43Q381 1 353 -35Q325 -71 288 -92Q282 -95 276 -95Q268 -95 262.5 -90Q257 -85 257 -78Q257 -70 269 -61Q291 -44 304.5 -30.5Q318 -17 326 -2Q312 -5 298.5 -2Q285 1 274.5 9Q264 17 258 29Q252 41 252 56Q252 81 270 98.5Q288 116 313 116ZM124 116Q153 116 172.5 96Q192 76 192 43Q192 1 164 -35Q136 -71 99 -92Q93 -95 87 -95Q79 -95 73.5 -90Q68 -85 68 -78Q68 -70 80 -61Q102 -44 115.5 -30.5Q129 -17 137 -2Q123 -5 109.5 -2Q96 1 85.5 9Q75 17 69 29Q63 41 63 56Q63 81 81 98.5Q99 116 124 116Z" glyph-name="quotedblbase" horiz-adv-x="445" unicode="&#8222;" /><glyph d="M314 499Q285 499 265.5 519Q246 539 246 572Q246 614 274 650Q302 686 339 707Q345 710 351 710Q359 710 364.5 705Q370 700 370 693Q370 685 358 676Q336 659 322.5 645.5Q309 632 301 617Q315 620 328.5 617Q342 614 352.5 606Q363 598 369 586Q375 574 375 559Q375 534 357 516.5Q339 499 314 499ZM125 499Q96 499 76.5 519Q57 539 57 572Q57 614 85 650Q113 686 150 707Q156 710 162 710Q170 710 175.5 705Q181 700 181 693Q181 685 169 676Q147 659 133.5 645.5Q120 632 112 617Q126 620 139.5 617Q153 614 163.5 606Q174 598 180 586Q186 574 186 559Q186 534 168 516.5Q150 499 125 499Z" glyph-name="quotedblleft" horiz-adv-x="436" unicode="&#8220;" /><glyph d="M316 710Q345 710 364.5 690Q384 670 384 637Q384 595 356 559Q328 523 291 502Q285 499 279 499Q271 499 265.5 504Q260 509 260 516Q260 524 272 533Q294 550 307.5 563.5Q321 577 329 592Q315 589 301.5 592Q288 595 277.5 603Q267 611 261 623Q255 635 255 650Q255 675 273 692.5Q291 710 316 710ZM127 710Q156 710 175.5 690Q195 670 195 637Q195 595 167 559Q139 523 102 502Q96 499 90 499Q82 499 76.5 504Q71 509 71 516Q71 524 83 533Q105 550 118.5 563.5Q132 577 140 592Q126 589 112.5 592Q99 595 88.5 603Q78 611 72 623Q66 635 66 650Q66 675 84 692.5Q102 710 127 710Z" glyph-name="quotedblright" horiz-adv-x="435" unicode="&#8221;" /><glyph d="M125 499Q96 499 76.5 519Q57 539 57 572Q57 614 85 650Q113 686 150 707Q156 710 162 710Q170 710 175.5 705Q181 700 181 693Q181 685 169 676Q147 659 133.5 645.5Q120 632 112 617Q126 620 139.5 617Q153 614 163.5 606Q174 598 180 586Q186 574 186 559Q186 534 168 516.5Q150 499 125 499Z" glyph-name="quoteleft" horiz-adv-x="247" unicode="&#8216;" /><glyph d="M127 710Q156 710 175.5 690Q195 670 195 637Q195 595 167 559Q139 523 102 502Q96 499 90 499Q82 499 76.5 504Q71 509 71 516Q71 524 83 533Q105 550 118.5 563.5Q132 577 140 592Q126 589 112.5 592Q99 595 88.5 603Q78 611 72 623Q66 635 66 650Q66 675 84 692.5Q102 710 127 710Z" glyph-name="quoteright" horiz-adv-x="246" unicode="&#8217;" /><glyph d="M124 116Q153 116 172.5 96Q192 76 192 43Q192 1 164 -35Q136 -71 99 -92Q93 -95 87 -95Q79 -95 73.5 -90Q68 -85 68 -78Q68 -70 80 -61Q102 -44 115.5 -30.5Q129 -17 137 -2Q123 -5 109.5 -2Q96 1 85.5 9Q75 17 69 29Q63 41 63 56Q63 81 81 98.5Q99 116 124 116Z" glyph-name="quotesinglbase" horiz-adv-x="256" unicode="&#8218;" /><glyph d="M76 679Q76 696 85 703Q94 710 104 709.5Q114 709 122 701Q130 693 129 679L113 445Q112 436 106 432Q100 428 93.5 428Q87 428 81.5 432.5Q76 437 76 445Z" glyph-name="quotesingle" horiz-adv-x="196" unicode="&apos;" /><glyph d="M313 458Q307 458 301 456.5Q295 455 287 451Q279 447 268 439Q257 431 241 418L169 358V38H255Q263 38 268.5 32.5Q274 27 274 19Q274 11 268.5 5.5Q263 0 255 0H56Q48 0 42.5 5.5Q37 11 37 19Q37 27 42.5 32.5Q48 38 56 38H122V452H56Q48 452 42.5 457.5Q37 463 37 471Q37 479 42.5 484.5Q48 490 56 490H150Q158 490 163.5 484.5Q169 479 169 471V404L242 467Q258 481 275 490.5Q292 500 315 500Q332 500 353 494.5Q374 489 388 482Q401 476 404.5 469.5Q408 463 408 458Q408 449 402.5 443Q397 437 386 437Q377 437 361 444Q350 449 337 453.5Q324 458 313 458Z" glyph-name="r" horiz-adv-x="425" unicode="r" /><glyph d="M586 750Q590 762 598.5 766Q607 770 615 768Q623 766 628 758.5Q633 751 630 741L345 -123Q340 -136 332 -140.5Q324 -145 316 -145Q308 -145 299.5 -140.5Q291 -136 286 -123L137 314H44Q36 314 30.5 319.5Q25 325 25 333Q25 341 30.5 346.5Q36 352 44 352H154Q173 352 179 333L316 -88Z" glyph-name="radical" horiz-adv-x="646" unicode="&#8730;" /><glyph d="M210 603H181Q175 603 170.5 607.5Q166 612 166 618Q166 624 170.5 628.5Q175 633 181 633H292Q331 633 355 612.5Q379 592 379 557Q379 531 362 512Q345 493 319 488Q329 485 338.5 474.5Q348 464 354 453L385 393H414Q420 393 424.5 388.5Q429 384 429 378Q429 372 424.5 367.5Q420 363 414 363H379Q362 363 351 380L322 439Q311 462 295 469Q279 476 256 476H245V393H278Q284 393 288.5 388.5Q293 384 293 378Q293 372 288.5 367.5Q284 363 278 363H181Q175 363 170.5 367.5Q166 372 166 378Q166 384 170.5 388.5Q175 393 181 393H210ZM91 491Q91 442 107.5 405Q124 368 151 343.5Q178 319 213.5 306.5Q249 294 288 294Q326 294 361.5 306.5Q397 319 424.5 343.5Q452 368 468.5 405Q485 442 485 491Q485 540 468.5 577.5Q452 615 424.5 639.5Q397 664 361.5 676.5Q326 689 288 689Q249 689 213.5 676.5Q178 664 151 639.5Q124 615 107.5 577.5Q91 540 91 491ZM343 555Q343 581 327 592Q311 603 285 603H245V506H276Q302 506 322.5 517.5Q343 529 343 555ZM57 491Q57 545 76 587.5Q95 630 127 659.5Q159 689 200.5 704.5Q242 720 288 720Q333 720 375 704.5Q417 689 449 659.5Q481 630 500 587.5Q519 545 519 491Q519 438 500 395.5Q481 353 449 323.5Q417 294 375 278.5Q333 263 288 263Q242 263 200.5 278.5Q159 294 127 323.5Q95 353 76 395.5Q57 438 57 491Z" glyph-name="registered" horiz-adv-x="576" unicode="&#174;" /><glyph d="M143 723Q118 723 100 706.5Q82 690 82 658Q82 626 100 609.5Q118 593 143 593Q168 593 186 609.5Q204 626 204 658Q204 690 186 706.5Q168 723 143 723ZM143 556Q122 556 103.5 563Q85 570 71 583.5Q57 597 48.5 615.5Q40 634 40 658Q40 682 48.5 700.5Q57 719 71 732.5Q85 746 103.5 753Q122 760 143 760Q164 760 182.5 753Q201 746 215 732.5Q229 719 237.5 700.5Q246 682 246 658Q246 634 237.5 615.5Q229 597 215 583.5Q201 570 182.5 563Q164 556 143 556Z" glyph-name="ring" horiz-adv-x="286" unicode="&#730;" /><glyph d="M347 477Q366 471 366 449V379Q366 371 360.5 365Q355 359 347 359Q329 359 327 378L323 445Q310 450 281 457Q252 464 221 464Q190 464 168.5 456Q147 448 133 435.5Q119 423 112.5 406.5Q106 390 106 373Q106 338 127 318.5Q148 299 180 286.5Q212 274 248.5 264Q285 254 317 238.5Q349 223 370 197.5Q391 172 391 129Q391 66 343.5 28Q296 -10 211 -10Q166 -10 131 -4Q96 2 76 7Q57 12 57 34V119Q57 127 63 133Q69 139 77 139Q85 139 91 133Q97 127 97 119L101 44Q113 40 130 36Q144 33 165 30.5Q186 28 213 28Q234 28 257 33Q280 38 300 49Q320 60 333 79Q346 98 346 127Q346 161 324.5 179.5Q303 198 271.5 210.5Q240 223 202.5 233Q165 243 133.5 258.5Q102 274 80.5 300.5Q59 327 59 372Q59 429 102.5 464.5Q146 500 221 500Q241 500 260.5 497.5Q280 495 296.5 491Q313 487 326 483.5Q339 480 347 477Z" glyph-name="s" horiz-adv-x="438" unicode="s" /><glyph d="M347 477Q366 471 366 449V379Q366 371 360.5 365Q355 359 347 359Q329 359 327 378L323 445Q310 450 281 457Q252 464 221 464Q190 464 168.5 456Q147 448 133 435.5Q119 423 112.5 406.5Q106 390 106 373Q106 338 127 318.5Q148 299 180 286.5Q212 274 248.5 264Q285 254 317 238.5Q349 223 370 197.5Q391 172 391 129Q391 66 343.5 28Q296 -10 211 -10Q166 -10 131 -4Q96 2 76 7Q57 12 57 34V119Q57 127 63 133Q69 139 77 139Q85 139 91 133Q97 127 97 119L101 44Q113 40 130 36Q144 33 165 30.5Q186 28 213 28Q234 28 257 33Q280 38 300 49Q320 60 333 79Q346 98 346 127Q346 161 324.5 179.5Q303 198 271.5 210.5Q240 223 202.5 233Q165 243 133.5 258.5Q102 274 80.5 300.5Q59 327 59 372Q59 425 97.5 460Q136 495 204 499V539Q204 579 216.5 609Q229 639 251 659.5Q273 680 303 690Q333 700 369 700H574Q584 700 591 693Q598 686 598 676V490H777Q785 490 790.5 484.5Q796 479 796 471Q796 463 790.5 457.5Q785 452 777 452H598V128Q598 86 618.5 58Q639 30 690 30Q711 30 728 33.5Q745 37 758 41.5Q771 46 780 50Q789 54 793 54Q802 54 807.5 48.5Q813 43 813 35Q813 18 784 7Q762 -1 736 -5.5Q710 -10 690 -10Q651 -10 624.5 1.5Q598 13 581.5 31.5Q565 50 558 73.5Q551 97 551 121V452H472Q464 452 458.5 457.5Q453 463 453 471Q453 479 458.5 484.5Q464 490 472 490H551V663H370Q310 663 276.5 628.5Q243 594 243 533V499Q277 497 305.5 489.5Q334 482 347 477Z" glyph-name="s_t" horiz-adv-x="824" unicode="&#64262;" /><glyph d="M220 554Q211 554 202 563L60 703Q53 710 53.5 717.5Q54 725 59 730.5Q64 736 72 736.5Q80 737 89 729L220 605L351 729Q360 737 368 736.5Q376 736 381 730.5Q386 725 386.5 717.5Q387 710 380 703L238 563Q229 554 220 554ZM347 477Q366 471 366 449V379Q366 371 360.5 365Q355 359 347 359Q329 359 327 378L323 445Q310 450 281 457Q252 464 221 464Q190 464 168.5 456Q147 448 133 435.5Q119 423 112.5 406.5Q106 390 106 373Q106 338 127 318.5Q148 299 180 286.5Q212 274 248.5 264Q285 254 317 238.5Q349 223 370 197.5Q391 172 391 129Q391 66 343.5 28Q296 -10 211 -10Q166 -10 131 -4Q96 2 76 7Q57 12 57 34V119Q57 127 63 133Q69 139 77 139Q85 139 91 133Q97 127 97 119L101 44Q113 40 130 36Q144 33 165 30.5Q186 28 213 28Q234 28 257 33Q280 38 300 49Q320 60 333 79Q346 98 346 127Q346 161 324.5 179.5Q303 198 271.5 210.5Q240 223 202.5 233Q165 243 133.5 258.5Q102 274 80.5 300.5Q59 327 59 372Q59 429 102.5 464.5Q146 500 221 500Q241 500 260.5 497.5Q280 495 296.5 491Q313 487 326 483.5Q339 480 347 477Z" glyph-name="scaron" horiz-adv-x="438" unicode="&#353;" /><glyph d="M275 -67Q225 -67 191.5 -58Q158 -49 143 -44Q124 -38 124 -16L126 66Q126 74 131.5 80Q137 86 145 86Q163 86 165 67L169 -10Q182 -15 211 -22Q240 -29 272 -29Q296 -29 320.5 -24Q345 -19 365 -7.5Q385 4 397.5 23.5Q410 43 410 72Q410 102 398 124Q386 146 363 162Q336 181 300 193.5Q264 206 226 218Q188 230 151.5 243.5Q115 257 88 278Q65 296 50 321.5Q35 347 35 382Q35 399 41.5 423Q48 447 69 469Q89 490 124 505Q133 508 140 504.5Q147 501 150.5 494.5Q154 488 152 480.5Q150 473 140 469Q107 455 93.5 432Q80 409 80 387Q80 349 104 325.5Q128 302 165 285Q191 273 221.5 264Q252 255 282.5 245Q313 235 342 223Q371 211 394 194Q421 174 438.5 145.5Q456 117 456 75Q456 38 440 11Q424 -16 398.5 -33Q373 -50 340.5 -58.5Q308 -67 275 -67ZM334 775Q384 775 417.5 766Q451 757 466 752Q485 746 485 724L483 642Q483 634 477.5 628Q472 622 464 622Q446 622 444 641L440 718Q427 723 398 730Q369 737 337 737Q313 737 288.5 732Q264 727 244 715.5Q224 704 211.5 684.5Q199 665 199 636Q199 606 211 584Q223 562 246 546Q270 529 300.5 517.5Q331 506 364.5 495.5Q398 485 431 474Q464 463 492 448Q527 429 550.5 400Q574 371 574 326Q574 309 567.5 285Q561 261 540 239Q520 218 485 203Q476 200 469 203.5Q462 207 458.5 213.5Q455 220 457 227Q459 234 469 239Q502 253 515.5 276Q529 299 529 321Q529 359 505 382.5Q481 406 444 423Q418 435 387.5 444Q357 453 326.5 463Q296 473 267 485Q238 497 215 514Q188 534 170.5 562.5Q153 591 153 633Q153 670 169 697Q185 724 210.5 741Q236 758 268.5 766.5Q301 775 334 775Z" glyph-name="section" horiz-adv-x="609" unicode="&#167;" /><glyph d="M136 116Q165 116 184.5 96Q204 76 204 43Q204 1 176 -35Q148 -71 111 -92Q105 -95 99 -95Q91 -95 85.5 -90Q80 -85 80 -78Q80 -70 92 -61Q114 -44 127.5 -30.5Q141 -17 149 -2Q135 -5 121.5 -2Q108 1 97.5 9Q87 17 81 29Q75 41 75 56Q75 81 93 98.5Q111 116 136 116ZM75 426Q75 452 94 471Q113 490 139 490Q165 490 184 471Q203 452 203 426Q203 400 184 381Q165 362 139 362Q113 362 94 381Q75 400 75 426Z" glyph-name="semicolon" horiz-adv-x="280" unicode=";" /><glyph d="M488 700Q500 700 506 691Q512 682 504 670L481 632Q435 557 396.5 486Q358 415 329 345Q294 264 271.5 182.5Q249 101 235 13Q233 -1 226 -5.5Q219 -10 207 -10Q196 -10 189.5 -3Q183 4 185 15Q199 100 220.5 177Q242 254 272 327Q302 400 341 472.5Q380 545 428 622L453 662H107L100 531Q99 522 93.5 516Q88 510 79 510Q70 510 64 516Q58 522 58 531V681Q58 689 63.5 694.5Q69 700 77 700Z" glyph-name="seven" horiz-adv-x="540" unicode="7" /><glyph d="M277 411Q240 411 207 399.5Q174 388 149.5 365Q125 342 110.5 306.5Q96 271 96 222Q96 173 110.5 137Q125 101 149.5 77Q174 53 207 41Q240 29 277 29Q314 29 346.5 40.5Q379 52 403.5 75.5Q428 99 442 135Q456 171 456 220Q456 267 442 303Q428 339 403.5 363Q379 387 346.5 399Q314 411 277 411ZM277 -10Q229 -10 187.5 6.5Q146 23 115.5 53Q85 83 67.5 125.5Q50 168 50 221Q50 289 70 351Q90 413 122.5 467.5Q155 522 195 567.5Q235 613 275 648Q299 670 321 686.5Q343 703 363 716Q374 723 383.5 718.5Q393 714 395 704Q396 699 393.5 692.5Q391 686 383 680Q362 664 341 648.5Q320 633 300 614Q249 567 203.5 510Q158 453 128 390Q155 419 197.5 435Q240 451 282 451Q331 451 371.5 434.5Q412 418 441 388Q470 358 486.5 315.5Q503 273 503 220Q503 167 486 124.5Q469 82 438.5 52Q408 22 366.5 6Q325 -10 277 -10Z" glyph-name="six" horiz-adv-x="540" unicode="6" /><glyph d="M416 740Q421 750 429.5 752.5Q438 755 445 752Q452 749 455.5 741Q459 733 454 723L66 -80Q61 -90 52.5 -92.5Q44 -95 37 -92Q30 -89 26.5 -81Q23 -73 28 -63Z" glyph-name="slash" horiz-adv-x="482" unicode="/" /><glyph glyph-name="space" horiz-adv-x="254" unicode=" " /><glyph d="M211 386Q212 356 213 326.5Q214 297 214 265H418Q426 265 431.5 259.5Q437 254 437 246Q437 238 431.5 232.5Q426 227 418 227H213Q212 200 207.5 173.5Q203 147 192.5 122Q182 97 164.5 75.5Q147 54 120 38H521Q529 38 534.5 32.5Q540 27 540 19Q540 11 534.5 5.5Q529 0 521 0H70Q63 0 58.5 4.5Q54 9 53 15Q52 21 54.5 27.5Q57 34 64 38Q95 56 115.5 78.5Q136 101 147.5 126Q159 151 164 177Q169 203 170 227H83Q75 227 69.5 232.5Q64 238 64 246Q64 254 69.5 259.5Q75 265 83 265H171Q170 299 169 327.5Q168 356 166 386H83Q75 386 69.5 391.5Q64 397 64 405Q64 413 69.5 418.5Q75 424 83 424H164Q163 444 162.5 467.5Q162 491 162 519Q162 565 177.5 601Q193 637 220 661Q247 685 283 697.5Q319 710 360 710Q395 710 438 700.5Q481 691 514 674Q522 670 523.5 662Q525 654 522 647Q519 640 511 636Q503 632 493 637Q465 649 431 659.5Q397 670 365 670Q333 670 305 661Q277 652 256 633Q235 614 222.5 585.5Q210 557 210 517Q210 491 210 468Q210 445 211 424H418Q426 424 431.5 418.5Q437 413 437 405Q437 397 431.5 391.5Q426 386 418 386Z" glyph-name="sterling" horiz-adv-x="593" unicode="&#163;" /><glyph d="M336 296Q340 291 340 283.5Q340 276 336 271L99 -95H535L539 10Q540 20 547 24.5Q554 29 561.5 28.5Q569 28 574.5 22.5Q580 17 579 6L580 -114Q579 -122 574 -127.5Q569 -133 561 -133H65Q51 -133 44.5 -121Q38 -109 47 -95L293 284L47 662Q38 676 44.5 688Q51 700 65 700H561Q569 700 574 694.5Q579 689 580 681L579 561Q580 550 574.5 544.5Q569 539 561.5 538.5Q554 538 547 542.5Q540 547 539 557L535 662H99Z" glyph-name="summation" horiz-adv-x="644" unicode="&#8721;" /><glyph d="M158 490H327Q335 490 340.5 484.5Q346 479 346 471Q346 463 340.5 457.5Q335 452 327 452H158V128Q158 86 178.5 58Q199 30 250 30Q271 30 288 33.5Q305 37 318 41.5Q331 46 340 50Q349 54 353 54Q362 54 367.5 48.5Q373 43 373 35Q373 18 344 7Q322 -1 296 -5.5Q270 -10 250 -10Q211 -10 184.5 1.5Q158 13 141.5 31.5Q125 50 118 73.5Q111 97 111 121V452H32Q24 452 18.5 457.5Q13 463 13 471Q13 479 18.5 484.5Q24 490 32 490H111V656Q111 666 117.5 673Q124 680 134 680Q144 680 151 673Q158 666 158 656Z" glyph-name="t" horiz-adv-x="382" unicode="t" /><glyph d="M127 245Q127 190 141 149.5Q155 109 179.5 82Q204 55 236 42Q268 29 304 29Q340 29 372 42Q404 55 428 82Q452 109 466 149.5Q480 190 480 245Q480 300 466 340.5Q452 381 428 408Q404 435 372 448Q340 461 304 461Q268 461 236 448Q204 435 179.5 408Q155 381 141 340.5Q127 300 127 245ZM130 394Q157 445 203.5 472.5Q250 500 309 500Q357 500 397 482Q437 464 466 431Q495 398 511.5 350.5Q528 303 528 245Q528 186 511.5 139Q495 92 466 59Q437 26 397 8Q357 -10 309 -10Q250 -10 203.5 17.5Q157 45 130 96V-172H206Q214 -172 219.5 -177.5Q225 -183 225 -191Q225 -199 219.5 -204.5Q214 -210 206 -210H17Q9 -210 3.5 -204.5Q-2 -199 -2 -191Q-2 -183 3.5 -177.5Q9 -172 17 -172H83V662H17Q9 662 3.5 667.5Q-2 673 -2 681Q-2 689 3.5 694.5Q9 700 17 700H111Q119 700 124.5 694.5Q130 689 130 681Z" glyph-name="thorn" horiz-adv-x="580" unicode="&#254;" /><glyph d="M440 700Q460 700 465 684.5Q470 669 456 655L214 421Q235 424 256 424Q299 424 339.5 412.5Q380 401 411 378Q442 355 460.5 321.5Q479 288 479 244Q479 205 467.5 172Q456 139 436 113Q416 87 388.5 66.5Q361 46 330 32Q276 8 215.5 -1Q155 -10 99 -10Q90 -10 81.5 -8.5Q73 -7 67 -3Q58 3 58 14Q58 22 64.5 27.5Q71 33 86 33Q90 33 97.5 33Q105 33 113 33Q121 33 129 33.5Q137 34 142 34Q189 37 232.5 46Q276 55 311 72Q366 98 398.5 139.5Q431 181 431 241Q431 305 382 344.5Q333 384 240 384Q224 384 210.5 382Q197 380 182 378Q169 375 161 378.5Q153 382 150 388.5Q147 395 148 402.5Q149 410 154 414L407 662H83Q75 662 69.5 667.5Q64 673 64 681Q64 689 69.5 694.5Q75 700 83 700Z" glyph-name="three" horiz-adv-x="540" unicode="3" /><glyph d="M146 -3Q140 -10 132 -10Q124 -10 119 -5.5Q114 -1 112.5 6Q111 13 117 20L712 703Q718 710 726 710Q734 710 739 705.5Q744 701 745.5 693.5Q747 686 740 678ZM269 707Q286 707 290 695Q294 683 283 672L168 565H170Q194 565 216.5 558.5Q239 552 255.5 539Q272 526 282 507Q292 488 292 463Q292 421 267.5 391.5Q243 362 209 346Q181 334 149 328.5Q117 323 87 323Q73 323 65 327.5Q57 332 57 343Q57 349 62 354.5Q67 360 79 360Q84 360 93 360Q102 360 108 361Q131 362 156.5 368Q182 374 203 385.5Q224 397 238 415.5Q252 434 252 461Q252 491 229 511Q206 531 161 531Q147 531 131 528Q113 524 107 536Q101 548 112 558L233 672H77Q70 672 65 677.5Q60 683 60 691Q60 696 65 701.5Q70 707 77 707ZM774 134H831Q838 134 842 129Q846 124 846 119Q846 114 842 109.5Q838 105 831 105H774V15Q774 7 769 2Q764 -3 756 -3Q748 -3 743 2Q738 7 738 15V105H567Q554 105 549 111.5Q544 118 544 126Q544 132 547 137L691 389Q695 396 702 397.5Q709 399 715 396Q721 393 723.5 386.5Q726 380 722 372L586 134H738V236Q738 244 743 248.5Q748 253 756 253Q764 253 769 248.5Q774 244 774 236Z" glyph-name="threequarters" horiz-adv-x="879" unicode="&#190;" /><glyph d="M278 704Q295 704 299 692Q303 680 292 669L177 562H179Q203 562 225.5 555.5Q248 549 264.5 536Q281 523 291 504Q301 485 301 460Q301 418 276.5 388.5Q252 359 218 343Q190 331 158 325.5Q126 320 96 320Q82 320 74 324.5Q66 329 66 340Q66 346 71 351.5Q76 357 88 357Q93 357 102 357Q111 357 117 358Q140 359 165.5 365Q191 371 212 382.5Q233 394 247 412.5Q261 431 261 458Q261 488 238 508Q215 528 170 528Q156 528 140 525Q122 521 116 533Q110 545 121 555L242 669H86Q79 669 74 674.5Q69 680 69 688Q69 693 74 698.5Q79 704 86 704Z" glyph-name="threesuperior" horiz-adv-x="360" unicode="&#179;" /><glyph d="M123 689Q144 689 165 676Q186 663 205.5 647Q225 631 242.5 618Q260 605 276 605Q300 605 308 623Q316 641 317 665V670Q317 678 322.5 683.5Q328 689 336 689Q344 689 349.5 683.5Q355 678 355 670V659Q355 623 334.5 595Q314 567 272 567Q250 567 229 580Q208 593 189 609Q170 625 152.5 638Q135 651 119 651Q95 651 87 633Q79 615 78 591V586Q78 578 72.5 572.5Q67 567 59 567Q51 567 45.5 572.5Q40 578 40 586V597Q40 633 60.5 661Q81 689 123 689Z" glyph-name="tilde" horiz-adv-x="395" unicode="&#732;" /><glyph d="M296 666V296H367Q374 296 379 291Q384 286 384 279Q384 272 379 267Q374 262 367 262H185Q178 262 173 267Q168 272 168 279Q168 286 173 291Q178 296 185 296H256V666H123L109 558Q108 551 102.5 547.5Q97 544 90.5 545Q84 546 79 550Q74 554 75 562L84 683Q85 690 89.5 695Q94 700 101 700H455Q462 700 466.5 695Q471 690 472 683L481 562Q482 554 477 550Q472 546 465.5 545Q459 544 453.5 547.5Q448 551 447 558L433 666ZM1089 700Q1096 700 1101 695Q1106 690 1106 683Q1106 676 1101 671Q1096 666 1089 666H1018V296H1089Q1096 296 1101 291Q1106 286 1106 279Q1106 272 1101 267Q1096 262 1089 262H907Q900 262 895 267Q890 272 890 279Q890 286 895 291Q900 296 907 296H978V631L841 428Q836 420 827 420Q818 420 813 428L676 631V296H747Q754 296 759 291Q764 286 764 279Q764 272 759 267Q754 262 747 262H565Q558 262 553 267Q548 272 548 279Q548 286 553 291Q558 296 565 296H636V666H565Q558 666 553 671Q548 676 548 683Q548 690 553 695Q558 700 565 700H655Q672 700 682 686L827 467L973 686Q983 700 1000 700Z" glyph-name="trademark" horiz-adv-x="1177" unicode="&#8482;" /><glyph d="M113 480Q112 471 106.5 465Q101 459 92 459Q83 459 77 465Q71 471 71 480V690Q71 699 76.5 704.5Q82 710 89 710Q96 710 102.5 704.5Q109 699 110 686L114 644Q144 675 187.5 692.5Q231 710 282 710Q317 710 351 699.5Q385 689 412 667Q439 645 455.5 612Q472 579 472 534Q472 496 459.5 462.5Q447 429 425.5 396Q404 363 374 328.5Q344 294 309 255L112 38H471Q479 38 484.5 32.5Q490 27 490 19Q490 11 484.5 5.5Q479 0 471 0H72Q57 0 52 14Q47 28 57 39L235 235Q286 291 322 332.5Q358 374 380.5 407.5Q403 441 413.5 469.5Q424 498 424 528Q424 564 411.5 591Q399 618 378 635.5Q357 653 330.5 661.5Q304 670 277 670Q226 670 185 648.5Q144 627 117 601Z" glyph-name="two" horiz-adv-x="540" unicode="2" /><glyph d="M116 584Q114 565 97 565Q79 565 79 585V691Q79 698 84 702.5Q89 707 97 707Q112 707 114 691L115 684Q131 695 151.5 702.5Q172 710 197 710Q216 710 234.5 704Q253 698 268 686Q283 674 292.5 655.5Q302 637 302 612Q302 571 277 536Q252 501 215 462L122 363H293Q311 363 311 345Q311 338 306 333Q301 328 293 328H86Q78 328 73 333.5Q68 339 68 347Q68 356 73 362L165 460Q213 511 237 545.5Q261 580 261 609Q261 644 239.5 659.5Q218 675 193 675Q173 675 152 666Q131 657 118 646Z" glyph-name="twosuperior" horiz-adv-x="378" unicode="&#178;" /><glyph d="M488 38H554Q562 38 567.5 32.5Q573 27 573 19Q573 11 567.5 5.5Q562 0 554 0H460Q452 0 446.5 5.5Q441 11 441 19V95Q403 47 347.5 18.5Q292 -10 238 -10Q196 -10 170 4Q144 18 129.5 38.5Q115 59 110.5 83.5Q106 108 106 129V452H40Q32 452 26.5 457.5Q21 463 21 471Q21 479 26.5 484.5Q32 490 40 490H134Q142 490 147.5 484.5Q153 479 153 471V132Q153 86 175 58Q197 30 241 30Q299 30 350 60.5Q401 91 441 141V452H375Q367 452 361.5 457.5Q356 463 356 471Q356 479 361.5 484.5Q367 490 375 490H469Q477 490 482.5 484.5Q488 479 488 471Z" glyph-name="u" horiz-adv-x="597" unicode="u" /><glyph d="M197 558Q188 552 180.5 553.5Q173 555 169 561Q165 567 166 574.5Q167 582 175 588L368 731Q379 739 389.5 736.5Q400 734 405.5 726.5Q411 719 409.5 708.5Q408 698 396 690ZM488 38H554Q562 38 567.5 32.5Q573 27 573 19Q573 11 567.5 5.5Q562 0 554 0H460Q452 0 446.5 5.5Q441 11 441 19V95Q403 47 347.5 18.5Q292 -10 238 -10Q196 -10 170 4Q144 18 129.5 38.5Q115 59 110.5 83.5Q106 108 106 129V452H40Q32 452 26.5 457.5Q21 463 21 471Q21 479 26.5 484.5Q32 490 40 490H134Q142 490 147.5 484.5Q153 479 153 471V132Q153 86 175 58Q197 30 241 30Q299 30 350 60.5Q401 91 441 141V452H375Q367 452 361.5 457.5Q356 463 356 471Q356 479 361.5 484.5Q367 490 375 490H469Q477 490 482.5 484.5Q488 479 488 471Z" glyph-name="uacute" horiz-adv-x="597" unicode="&#250;" /><glyph d="M291 737Q300 737 309 728L451 588Q458 581 457.5 573.5Q457 566 452 560.5Q447 555 439 554.5Q431 554 422 562L291 686L160 562Q151 554 143 554.5Q135 555 130 560.5Q125 566 124.5 573.5Q124 581 131 588L273 728Q282 737 291 737ZM488 38H554Q562 38 567.5 32.5Q573 27 573 19Q573 11 567.5 5.5Q562 0 554 0H460Q452 0 446.5 5.5Q441 11 441 19V95Q403 47 347.5 18.5Q292 -10 238 -10Q196 -10 170 4Q144 18 129.5 38.5Q115 59 110.5 83.5Q106 108 106 129V452H40Q32 452 26.5 457.5Q21 463 21 471Q21 479 26.5 484.5Q32 490 40 490H134Q142 490 147.5 484.5Q153 479 153 471V132Q153 86 175 58Q197 30 241 30Q299 30 350 60.5Q401 91 441 141V452H375Q367 452 361.5 457.5Q356 463 356 471Q356 479 361.5 484.5Q367 490 375 490H469Q477 490 482.5 484.5Q488 479 488 471Z" glyph-name="ucircumflex" horiz-adv-x="597" unicode="&#251;" /><glyph d="M335 635Q335 655 348.5 668.5Q362 682 382 682Q402 682 415.5 668.5Q429 655 429 635Q429 615 415.5 601.5Q402 588 382 588Q362 588 348.5 601.5Q335 615 335 635ZM151 635Q151 655 164.5 668.5Q178 682 198 682Q218 682 231.5 668.5Q245 655 245 635Q245 615 231.5 601.5Q218 588 198 588Q178 588 164.5 601.5Q151 615 151 635ZM488 38H554Q562 38 567.5 32.5Q573 27 573 19Q573 11 567.5 5.5Q562 0 554 0H460Q452 0 446.5 5.5Q441 11 441 19V95Q403 47 347.5 18.5Q292 -10 238 -10Q196 -10 170 4Q144 18 129.5 38.5Q115 59 110.5 83.5Q106 108 106 129V452H40Q32 452 26.5 457.5Q21 463 21 471Q21 479 26.5 484.5Q32 490 40 490H134Q142 490 147.5 484.5Q153 479 153 471V132Q153 86 175 58Q197 30 241 30Q299 30 350 60.5Q401 91 441 141V452H375Q367 452 361.5 457.5Q356 463 356 471Q356 479 361.5 484.5Q367 490 375 490H469Q477 490 482.5 484.5Q488 479 488 471Z" glyph-name="udieresis" horiz-adv-x="597" unicode="&#252;" /><glyph d="M185 690Q173 698 171.5 708.5Q170 719 175.5 726.5Q181 734 191.5 736.5Q202 739 213 731L406 588Q414 582 415 574.5Q416 567 412 561Q408 555 400.5 553.5Q393 552 384 558ZM488 38H554Q562 38 567.5 32.5Q573 27 573 19Q573 11 567.5 5.5Q562 0 554 0H460Q452 0 446.5 5.5Q441 11 441 19V95Q403 47 347.5 18.5Q292 -10 238 -10Q196 -10 170 4Q144 18 129.5 38.5Q115 59 110.5 83.5Q106 108 106 129V452H40Q32 452 26.5 457.5Q21 463 21 471Q21 479 26.5 484.5Q32 490 40 490H134Q142 490 147.5 484.5Q153 479 153 471V132Q153 86 175 58Q197 30 241 30Q299 30 350 60.5Q401 91 441 141V452H375Q367 452 361.5 457.5Q356 463 356 471Q356 479 361.5 484.5Q367 490 375 490H469Q477 490 482.5 484.5Q488 479 488 471Z" glyph-name="ugrave" horiz-adv-x="597" unicode="&#249;" /><glyph d="M93 -148Q85 -148 79.5 -142.5Q74 -137 74 -129Q74 -121 79.5 -115.5Q85 -110 93 -110H418Q426 -110 431.5 -115.5Q437 -121 437 -129Q437 -137 431.5 -142.5Q426 -148 418 -148Z" glyph-name="underscore" horiz-adv-x="512" unicode="_" /><glyph d="M127 452 291 50 455 452H382Q374 452 368.5 457.5Q363 463 363 471Q363 479 368.5 484.5Q374 490 382 490H548Q556 490 561.5 484.5Q567 479 567 471Q567 463 561.5 457.5Q556 452 548 452H505L319 14Q314 1 306 -3Q298 -7 290 -7Q282 -7 273.5 -3Q265 1 260 14L75 452H26Q18 452 12.5 457.5Q7 463 7 471Q7 479 12.5 484.5Q18 490 26 490H192Q200 490 205.5 484.5Q211 479 211 471Q211 463 205.5 457.5Q200 452 192 452Z" glyph-name="v" horiz-adv-x="577" unicode="v" /><glyph d="M505 490Q513 490 518.5 484.5Q524 479 524 471Q524 463 518.5 457.5Q513 452 505 452H462L596 50L725 452H655Q647 452 641.5 457.5Q636 463 636 471Q636 479 641.5 484.5Q647 490 655 490H821Q829 490 834.5 484.5Q840 479 840 471Q840 463 834.5 457.5Q829 452 821 452H772L627 14Q622 1 613.5 -3Q605 -7 597 -7Q589 -7 581 -3Q573 1 568 14L425 439L282 14Q277 1 269 -3Q261 -7 253 -7Q245 -7 236.5 -3Q228 1 223 14L78 452H29Q21 452 15.5 457.5Q10 463 10 471Q10 479 15.5 484.5Q21 490 29 490H195Q203 490 208.5 484.5Q214 479 214 471Q214 463 208.5 457.5Q203 452 195 452H125L254 50L388 452H345Q337 452 331.5 457.5Q326 463 326 471Q326 479 331.5 484.5Q337 490 345 490Z" glyph-name="w" horiz-adv-x="850" unicode="w" /><glyph d="M84 38 256 245 88 452H49Q41 452 35.5 457.5Q30 463 30 471Q30 479 35.5 484.5Q41 490 49 490H215Q223 490 228.5 484.5Q234 479 234 471Q234 463 228.5 457.5Q223 452 215 452H142L283 275L425 452H350Q342 452 336.5 457.5Q331 463 331 471Q331 479 336.5 484.5Q342 490 350 490H516Q524 490 529.5 484.5Q535 479 535 471Q535 463 529.5 457.5Q524 452 516 452H477L309 246L481 38H520Q528 38 533.5 32.5Q539 27 539 19Q539 11 533.5 5.5Q528 0 520 0H354Q346 0 340.5 5.5Q335 11 335 19Q335 27 340.5 32.5Q346 38 354 38H427L282 217L136 38H211Q219 38 224.5 32.5Q230 27 230 19Q230 11 224.5 5.5Q219 0 211 0H45Q37 0 31.5 5.5Q26 11 26 19Q26 27 31.5 32.5Q37 38 45 38Z" glyph-name="x" horiz-adv-x="565" unicode="x" /><glyph d="M193 490Q201 490 206.5 484.5Q212 479 212 471Q212 463 206.5 457.5Q201 452 193 452H127L293 56L456 452H383Q375 452 369.5 457.5Q364 463 364 471Q364 479 369.5 484.5Q375 490 383 490H549Q557 490 562.5 484.5Q568 479 568 471Q568 463 562.5 457.5Q557 452 549 452H506L324 21Q301 -34 279 -82Q257 -130 227 -162Q195 -197 160 -209.5Q125 -222 87 -222Q69 -222 52.5 -219.5Q36 -217 25 -212Q13 -207 13 -193Q13 -183 21 -176.5Q29 -170 41 -173Q52 -176 63.5 -178.5Q75 -181 94 -181Q125 -181 149 -168Q173 -155 192 -135Q206 -120 217.5 -102.5Q229 -85 238 -67Q247 -49 254 -32.5Q261 -16 266 -4L268 1L76 452H27Q19 452 13.5 457.5Q8 463 8 471Q8 479 13.5 484.5Q19 490 27 490Z" glyph-name="y" horiz-adv-x="580" unicode="y" /><glyph d="M200 558Q191 552 183.5 553.5Q176 555 172 561Q168 567 169 574.5Q170 582 178 588L371 731Q382 739 392.5 736.5Q403 734 408.5 726.5Q414 719 412.5 708.5Q411 698 399 690ZM193 490Q201 490 206.5 484.5Q212 479 212 471Q212 463 206.5 457.5Q201 452 193 452H127L293 56L456 452H383Q375 452 369.5 457.5Q364 463 364 471Q364 479 369.5 484.5Q375 490 383 490H549Q557 490 562.5 484.5Q568 479 568 471Q568 463 562.5 457.5Q557 452 549 452H506L324 21Q301 -34 279 -82Q257 -130 227 -162Q195 -197 160 -209.5Q125 -222 87 -222Q69 -222 52.5 -219.5Q36 -217 25 -212Q13 -207 13 -193Q13 -183 21 -176.5Q29 -170 41 -173Q52 -176 63.5 -178.5Q75 -181 94 -181Q125 -181 149 -168Q173 -155 192 -135Q206 -120 217.5 -102.5Q229 -85 238 -67Q247 -49 254 -32.5Q261 -16 266 -4L268 1L76 452H27Q19 452 13.5 457.5Q8 463 8 471Q8 479 13.5 484.5Q19 490 27 490Z" glyph-name="yacute" horiz-adv-x="580" unicode="&#253;" /><glyph d="M341 635Q341 655 354.5 668.5Q368 682 388 682Q408 682 421.5 668.5Q435 655 435 635Q435 615 421.5 601.5Q408 588 388 588Q368 588 354.5 601.5Q341 615 341 635ZM157 635Q157 655 170.5 668.5Q184 682 204 682Q224 682 237.5 668.5Q251 655 251 635Q251 615 237.5 601.5Q224 588 204 588Q184 588 170.5 601.5Q157 615 157 635ZM193 490Q201 490 206.5 484.5Q212 479 212 471Q212 463 206.5 457.5Q201 452 193 452H127L293 56L456 452H383Q375 452 369.5 457.5Q364 463 364 471Q364 479 369.5 484.5Q375 490 383 490H549Q557 490 562.5 484.5Q568 479 568 471Q568 463 562.5 457.5Q557 452 549 452H506L324 21Q301 -34 279 -82Q257 -130 227 -162Q195 -197 160 -209.5Q125 -222 87 -222Q69 -222 52.5 -219.5Q36 -217 25 -212Q13 -207 13 -193Q13 -183 21 -176.5Q29 -170 41 -173Q52 -176 63.5 -178.5Q75 -181 94 -181Q125 -181 149 -168Q173 -155 192 -135Q206 -120 217.5 -102.5Q229 -85 238 -67Q247 -49 254 -32.5Q261 -16 266 -4L268 1L76 452H27Q19 452 13.5 457.5Q8 463 8 471Q8 479 13.5 484.5Q19 490 27 490Z" glyph-name="ydieresis" horiz-adv-x="580" unicode="&#255;" /><glyph d="M492 662Q484 662 478.5 667.5Q473 673 473 681Q473 689 478.5 694.5Q484 700 492 700H692Q700 700 705.5 694.5Q711 689 711 681Q711 673 705.5 667.5Q700 662 692 662H626L501 444H609Q617 444 622.5 438.5Q628 433 628 425Q628 417 622.5 411.5Q617 406 609 406H479L410 285H609Q617 285 622.5 279.5Q628 274 628 266Q628 258 622.5 252.5Q617 247 609 247H396V38H492Q500 38 505.5 32.5Q511 27 511 19Q511 11 505.5 5.5Q500 0 492 0H253Q245 0 239.5 5.5Q234 11 234 19Q234 27 239.5 32.5Q245 38 253 38H349V247H133Q125 247 119.5 252.5Q114 258 114 266Q114 274 119.5 279.5Q125 285 133 285H334L264 406H133Q125 406 119.5 411.5Q114 417 114 425Q114 433 119.5 438.5Q125 444 133 444H242L116 662H50Q42 662 36.5 667.5Q31 673 31 681Q31 689 36.5 694.5Q42 700 50 700H250Q258 700 263.5 694.5Q269 689 269 681Q269 673 263.5 667.5Q258 662 250 662H168L373 300L578 662Z" glyph-name="yen" horiz-adv-x="742" unicode="&#165;" /><glyph d="M114 452 108 347Q107 339 101.5 333Q96 327 88 327Q80 327 74 333Q68 339 68 347L69 462Q69 475 75.5 482.5Q82 490 99 490H442Q451 490 456 485Q461 480 462.5 473.5Q464 467 462.5 459.5Q461 452 457 448L100 38H427L435 143Q436 151 441.5 157Q447 163 455 163Q463 163 469 157Q475 151 475 143L472 28Q472 15 465.5 7.5Q459 0 442 0H63Q54 0 49 5Q44 10 42.5 16.5Q41 23 42.5 30Q44 37 48 42L409 452Z" glyph-name="z" horiz-adv-x="525" unicode="z" /><glyph d="M263 554Q254 554 245 563L103 703Q96 710 96.5 717.5Q97 725 102 730.5Q107 736 115 736.5Q123 737 132 729L263 605L394 729Q403 737 411 736.5Q419 736 424 730.5Q429 725 429.5 717.5Q430 710 423 703L281 563Q272 554 263 554ZM114 452 108 347Q107 339 101.5 333Q96 327 88 327Q80 327 74 333Q68 339 68 347L69 462Q69 475 75.5 482.5Q82 490 99 490H442Q451 490 456 485Q461 480 462.5 473.5Q464 467 462.5 459.5Q461 452 457 448L100 38H427L435 143Q436 151 441.5 157Q447 163 455 163Q463 163 469 157Q475 151 475 143L472 28Q472 15 465.5 7.5Q459 0 442 0H63Q54 0 49 5Q44 10 42.5 16.5Q41 23 42.5 30Q44 37 48 42L409 452Z" glyph-name="zcaron" horiz-adv-x="525" unicode="&#382;" /><glyph d="M270 670Q232 670 201 650.5Q170 631 147 591.5Q124 552 111.5 492Q99 432 99 350Q99 190 147 110Q195 30 270 30Q345 30 393 110Q441 190 441 350Q441 432 428.5 492Q416 552 393 591.5Q370 631 338.5 650.5Q307 670 270 670ZM270 -10Q224 -10 184 12.5Q144 35 114.5 80Q85 125 68 192.5Q51 260 51 350Q51 441 68 508.5Q85 576 114.5 621Q144 666 184 688Q224 710 270 710Q316 710 356 688Q396 666 425.5 621Q455 576 472 508.5Q489 441 489 350Q489 260 472 192.5Q455 125 425.5 80Q396 35 356 12.5Q316 -10 270 -10Z" glyph-name="zero" horiz-adv-x="540" unicode="0" /></font>
</defs>
</svg>
