<?xml version="1.0" encoding="utf-8"?>
<!-- Generator: Adobe Illustrator 16.0.0, SVG Export Plug-In . SVG Version: 6.00 Build 0)  -->
<!DOCTYPE svg PUBLIC "-//W3C//DTD SVG 1.1//EN" "http://www.w3.org/Graphics/SVG/1.1/DTD/svg11.dtd">
<svg version="1.1" id="Layer_1" xmlns="http://www.w3.org/2000/svg" xmlns:xlink="http://www.w3.org/1999/xlink" x="0px" y="0px"
	 width="64px" height="44px" viewBox="0 0 64 44" enable-background="new 0 0 64 44" xml:space="preserve">
<path fill="#FFFFFF" d="M38.331,10.293l-4.999-4.999c-0.093-0.093-0.203-0.166-0.326-0.217c-0.244-0.101-0.52-0.101-0.764,0
	c-0.123,0.051-0.233,0.124-0.326,0.217l-4.999,4.999c-0.391,0.391-0.391,1.023,0,1.414s1.023,0.391,1.414,0l3.293-3.293V25
	c0,0.553,0.447,1,1,1c0.553,0,1-0.447,1-1V8.414l3.293,3.293C37.111,11.902,37.368,12,37.624,12s0.512-0.098,0.707-0.293
	C38.723,11.316,38.723,10.684,38.331,10.293z"/>
<polygon fill="#FFFFFF" points="36.624,22 36.624,24 40.624,24 40.624,35 24.624,35 24.624,24 28.624,24 28.624,22 22.624,22 
	22.624,37 42.624,37 42.624,22 "/>
<rect x="27.624" y="27" fill="#FFFFFF" width="10" height="5"/>
</svg>
