<?xml version="1.0"?>
<!--Icons from directory ""-->
<svg xmlns="http://www.w3.org/2000/svg" width="34" height="151" viewBox="0 0 34 151"><svg xmlns:xlink="http://www.w3.org/1999/xlink" id="snl-icon-double-hl" xml:space="preserve" height="30" viewBox="0 0 32.688 30.125" width="33" version="1.1" y="0" x="0px" enable-background="new 0 0 32.688 30.125"><rect y="-11.11" x="-67.121" height="49" width="338.48" fill="#253842"/>				<g fill="#FF7936">					<path stroke="#FF7936" stroke-miterlimit="10" d="m30.589 24.925h-28.422c-0.145 0-0.262-0.117-0.262-0.262s0.117-0.262 0.262-0.262h28.422c0.145 0 0.262 0.117 0.262 0.262s-0.118 0.262-0.262 0.262z"/>					<path d="m30.589 25.425h-28.422c-0.42 0-0.762-0.342-0.762-0.762s0.342-0.762 0.762-0.762h28.422c0.42 0 0.762 0.342 0.762 0.762s-0.342 0.762-0.762 0.762z"/>				</g>				<g stroke="#FF7936" stroke-miterlimit="10" fill="#FF7936">					<path d="m5.983 29.071c-0.119 0-0.238-0.041-0.334-0.129l-4.318-3.908c-0.105-0.096-0.164-0.23-0.164-0.371s0.059-0.277 0.164-0.371l4.318-3.91c0.205-0.186 0.521-0.17 0.705 0.035 0.186 0.205 0.17 0.521-0.035 0.707l-3.908 3.539 3.908 3.539c0.205 0.184 0.221 0.5 0.035 0.705-0.097 0.11-0.234 0.164-0.371 0.164z"/>					<path d="m3.521 26.342l2.463 2.229h0.002l-2.465-2.229zm2.462-5.589l-4.316 3.91 4.316-3.91z"/>				</g>							<path stroke="#FF7936" stroke-miterlimit="10" d="m26.771 29.073c-0.137 0-0.273-0.057-0.371-0.166-0.186-0.203-0.17-0.521 0.035-0.705l3.908-3.539-3.908-3.539c-0.205-0.186-0.221-0.502-0.035-0.705 0.186-0.207 0.502-0.223 0.705-0.035l4.32 3.908c0.104 0.094 0.164 0.23 0.164 0.371s-0.061 0.275-0.164 0.371l-4.32 3.908c-0.096 0.088-0.215 0.131-0.334 0.131z" fill="#FF7936"/>				<g fill="#FF7936">					<path stroke="#FF7936" stroke-miterlimit="10" d="m30.589 6.233h-28.422c-0.145 0-0.262-0.117-0.262-0.262s0.117-0.261 0.262-0.261h28.422c0.145 0 0.262 0.117 0.262 0.262s-0.118 0.261-0.262 0.261z"/>					<path d="m30.589 6.733h-28.422c-0.42 0-0.762-0.342-0.762-0.762s0.342-0.761 0.762-0.761h28.422c0.42 0 0.762 0.342 0.762 0.762s-0.342 0.761-0.762 0.761z"/>				</g>				<g stroke="#FF7936" stroke-miterlimit="10" fill="#FF7936">					<path d="m5.983 10.38c-0.119 0-0.238-0.041-0.334-0.129l-4.318-3.908c-0.105-0.096-0.164-0.23-0.164-0.371s0.059-0.277 0.164-0.371l4.318-3.91c0.205-0.186 0.521-0.17 0.705 0.035 0.186 0.205 0.17 0.521-0.035 0.707l-3.908 3.539 3.908 3.539c0.205 0.184 0.221 0.5 0.035 0.705-0.097 0.109-0.234 0.164-0.371 0.164z"/>					<path d="m5.983 2.062l-4.316 3.91 4.316-3.91z"/>				</g>							<path stroke="#FF7936" stroke-miterlimit="10" d="m26.771 10.382c-0.137 0-0.273-0.057-0.371-0.166-0.186-0.203-0.17-0.521 0.035-0.705l3.908-3.539-3.908-3.539c-0.205-0.186-0.221-0.502-0.035-0.705 0.186-0.207 0.502-0.223 0.705-0.035l4.32 3.908c0.104 0.094 0.164 0.23 0.164 0.371s-0.061 0.275-0.164 0.371l-4.32 3.908c-0.096 0.088-0.215 0.131-0.334 0.131z" fill="#FF7936"/></svg><svg xmlns:xlink="http://www.w3.org/1999/xlink" id="snl-icon-double" xml:space="preserve" height="29" viewBox="0 0 31.562 29.333" width="32" version="1.1" y="30" x="0px" enable-background="new 0 0 31.562 29.333">			<path stroke="#4E5A69" stroke-miterlimit="10" d="m30.036 24.263h-28.422c-0.145 0-0.262-0.117-0.262-0.262s0.117-0.262 0.262-0.262h28.422c0.145 0 0.262 0.117 0.262 0.262s-0.117 0.262-0.262 0.262z" fill="#4E5A69"/>			<path stroke="#4E5A69" stroke-miterlimit="10" d="m5.431 28.409c-0.119 0-0.238-0.041-0.334-0.129l-4.318-3.908c-0.105-0.096-0.164-0.23-0.164-0.371s0.059-0.277 0.164-0.371l4.318-3.91c0.205-0.186 0.521-0.17 0.705 0.035 0.186 0.205 0.17 0.521-0.035 0.707l-3.908 3.539 3.908 3.539c0.205 0.184 0.221 0.5 0.035 0.705-0.098 0.109-0.235 0.164-0.371 0.164z" fill="#4E5A69"/>					<path stroke="#4E5A69" stroke-miterlimit="10" d="m26.218 28.411c-0.137 0-0.273-0.057-0.371-0.166-0.186-0.203-0.17-0.521 0.035-0.705l3.908-3.539-3.908-3.539c-0.205-0.186-0.221-0.502-0.035-0.705 0.186-0.207 0.502-0.223 0.705-0.035l4.32 3.908c0.104 0.094 0.164 0.23 0.164 0.371s-0.061 0.275-0.164 0.371l-4.32 3.908c-0.096 0.088-0.215 0.131-0.334 0.131z" fill="#4E5A69"/>			<path stroke="#4E5A69" stroke-miterlimit="10" d="m30.036 5.571h-28.422c-0.145 0-0.262-0.117-0.262-0.262s0.118-0.261 0.262-0.261h28.422c0.145 0 0.262 0.117 0.262 0.262s-0.117 0.261-0.262 0.261z" fill="#4E5A69"/>			<path stroke="#4E5A69" stroke-miterlimit="10" d="m5.431 9.718c-0.119 0-0.238-0.041-0.334-0.129l-4.319-3.908c-0.105-0.096-0.164-0.231-0.164-0.371s0.059-0.277 0.164-0.371l4.318-3.91c0.205-0.186 0.521-0.17 0.705 0.035 0.186 0.205 0.17 0.521-0.035 0.707l-3.908 3.539 3.908 3.539c0.205 0.184 0.221 0.5 0.035 0.705-0.097 0.109-0.234 0.164-0.37 0.164z" fill="#4E5A69"/>					<path stroke="#4E5A69" stroke-miterlimit="10" d="m26.218 9.72c-0.137 0-0.273-0.057-0.371-0.166-0.186-0.203-0.17-0.521 0.035-0.705l3.908-3.539-3.908-3.539c-0.205-0.186-0.221-0.502-0.035-0.705 0.186-0.207 0.502-0.223 0.705-0.035l4.32 3.908c0.104 0.094 0.164 0.23 0.164 0.371s-0.061 0.275-0.164 0.371l-4.32 3.908c-0.096 0.088-0.215 0.131-0.334 0.131z" fill="#4E5A69"/></svg><svg xmlns:xlink="http://www.w3.org/1999/xlink" id="snl-icon-draw-hl" xml:space="preserve" height="25" viewBox="0 0 27 25.25" width="27" version="1.1" y="59" x="0px" enable-background="new 0 0 27 25.25"><rect y="-13.798" x="-119.87" height="49" width="338.48" fill="#253842"/>	<path d="m8.301 11.69" fill="#fff"/>				<path d="m22.518 21.479l-16.896-16.863c-0.197-0.198-0.197-0.518-0.001-0.715 0.196-0.195 0.515-0.197 0.712 0l16.896 16.863c0.197 0.198 0.197 0.516 0.001 0.713-0.196 0.198-0.516 0.198-0.712 0.002z" fill="#FF7936"/>	<g stroke="#FF7936" stroke-miterlimit="10" fill="#FF7936">		<path d="m21.382 19.638c1.019-1.02 2.67-1.021 3.688-0.004s1.02 2.667 0.005 3.686c-1.016 1.019-2.667 1.021-3.688 0.003-1.017-1.015-1.019-2.666-0.005-3.685z"/>		<path d="m23.229 24.689c-0.856 0-1.663-0.333-2.27-0.938-1.252-1.249-1.255-3.285-0.007-4.54 1.215-1.218 3.331-1.218 4.544-0.005 1.251 1.251 1.254 3.288 0.006 4.54-0.606 0.608-1.413 0.943-2.273 0.943zm0-5.212c-0.535 0-1.04 0.209-1.419 0.589-0.776 0.781-0.775 2.051 0.005 2.829 0.757 0.755 2.078 0.752 2.831-0.002 0.778-0.781 0.776-2.051-0.004-2.831-0.377-0.377-0.879-0.585-1.413-0.585z"/>	</g>	<g stroke="#FF7936" stroke-miterlimit="10" fill="#FF7936">		<path d="m3.774 2.063c1.016-1.021 2.665-1.024 3.687-0.004 1.019 1.015 1.021 2.665 0.004 3.684-1.019 1.02-2.667 1.022-3.685 0.004-1.019-1.016-1.021-2.667-0.006-3.684z"/>		<path d="m5.619 7.114c-0.856 0-1.661-0.334-2.267-0.939-0.607-0.605-0.942-1.411-0.943-2.27-0.001-0.857 0.332-1.663 0.938-2.27 1.209-1.215 3.325-1.218 4.542-0.004 0.606 0.604 0.941 1.409 0.942 2.267s-0.332 1.664-0.938 2.272c-0.608 0.608-1.415 0.944-2.274 0.944zm0-5.214c-0.535 0-1.038 0.21-1.416 0.59-0.378 0.378-0.585 0.88-0.584 1.414 0.001 0.535 0.21 1.037 0.588 1.414 0.758 0.758 2.072 0.754 2.83-0.004 0.377-0.378 0.585-0.881 0.584-1.415s-0.209-1.035-0.587-1.412c-0.379-0.379-0.882-0.587-1.415-0.587z"/>	</g></svg><svg xmlns:xlink="http://www.w3.org/1999/xlink" id="snl-icon-draw" xml:space="preserve" height="25" viewBox="0 0 24.5 25.333" width="25" version="1.1" y="84" x="0px" enable-background="new 0 0 24.5 25.333"><path stroke="#C4CBCF" stroke-width=".5" stroke-miterlimit="10" d="m6.262 11.561" fill="none"/>			<path d="m20.479 21.349l-16.896-16.862c-0.197-0.199-0.197-0.52-0.001-0.715s0.515-0.197 0.712 0l16.896 16.864c0.197 0.197 0.197 0.516 0.001 0.713-0.195 0.197-0.516 0.197-0.712 0z" fill="#4E5A69"/>	<path stroke="#4E5A69" stroke-width="1.21" stroke-miterlimit="10" d="m19.343 19.509c1.019-1.02 2.67-1.021 3.688-0.004s1.02 2.666 0.005 3.686c-1.016 1.018-2.667 1.02-3.688 0.002-1.016-1.014-1.018-2.665-0.005-3.684z" fill="#4E5A69"/>	<path stroke="#4E5A69" stroke-width="1.21" stroke-miterlimit="10" d="m1.736 1.935c1.016-1.021 2.665-1.025 3.687-0.006 1.019 1.016 1.021 2.666 0.004 3.684-1.019 1.021-2.668 1.023-3.685 0.005-1.02-1.015-1.022-2.668-0.006-3.683z" fill="#4E5A69"/></svg><svg xmlns:xlink="http://www.w3.org/1999/xlink" id="snl-icon-partitions-hl" xml:space="preserve" height="10" viewBox="0 0 31.625 10.188" width="32" version="1.1" y="109" x="0px" enable-background="new 0 0 31.625 10.188"><rect y="-21.485" x="-170.37" height="49" width="338.48" fill="#253842"/>		<path d="m15.892 8.326c-0.279 0-0.506-0.225-0.506-0.504v-5.625c0-0.279 0.227-0.506 0.506-0.506 0.277 0 0.504 0.227 0.504 0.506v5.625c0 0.28-0.227 0.504-0.504 0.504z" fill="#FF7936"/>				<path stroke="#FF7936" stroke-miterlimit="10" d="m30.101 5.271h-28.422c-0.145 0-0.262-0.117-0.262-0.262s0.117-0.262 0.262-0.262h28.422c0.144 0 0.261 0.117 0.261 0.262s-0.118 0.262-0.261 0.262z" fill="#FF7936"/>				<path d="m9.226 8.326c-0.279 0-0.506-0.225-0.506-0.504v-5.625c0-0.279 0.227-0.506 0.506-0.506 0.277 0 0.504 0.227 0.504 0.506v5.625c-0.001 0.28-0.227 0.504-0.504 0.504z" fill="#FF7936"/>				<path stroke="#FF7936" stroke-miterlimit="10" d="m5.495 9.418c-0.119 0-0.238-0.041-0.334-0.129l-4.318-3.908c-0.106-0.096-0.164-0.231-0.164-0.371s0.059-0.277 0.164-0.371l4.318-3.91c0.205-0.186 0.521-0.17 0.705 0.035 0.186 0.205 0.17 0.521-0.035 0.707l-3.908 3.539 3.908 3.539c0.205 0.184 0.221 0.5 0.035 0.705-0.097 0.109-0.234 0.164-0.371 0.164z" fill="#FF7936"/>						<path d="m22.554 1.691c0.279 0 0.506 0.227 0.506 0.506v5.625c0 0.279-0.227 0.504-0.506 0.504-0.277 0-0.504-0.225-0.504-0.504v-5.625c0-0.279 0.226-0.506 0.504-0.506z" fill="#FF7936"/>						<path stroke="#FF7936" stroke-miterlimit="10" d="m26.282 9.42c-0.137 0-0.273-0.057-0.371-0.166-0.186-0.203-0.17-0.521 0.035-0.705l3.908-3.539-3.908-3.539c-0.205-0.186-0.221-0.502-0.035-0.705 0.186-0.207 0.502-0.223 0.705-0.035l4.319 3.908c0.105 0.093 0.165 0.23 0.165 0.371s-0.06 0.275-0.164 0.371l-4.319 3.908c-0.096 0.088-0.216 0.131-0.335 0.131z" fill="#FF7936"/></svg><svg xmlns:xlink="http://www.w3.org/1999/xlink" id="snl-icon-partitions" xml:space="preserve" height="10" viewBox="0 0 31.688 10.062" width="32" version="1.1" y="119" x="0px" enable-background="new 0 0 31.688 10.062">		<path d="m15.936 8.388c-0.279 0-0.506-0.225-0.506-0.504v-5.625c0-0.279 0.227-0.506 0.506-0.506 0.277 0 0.504 0.227 0.504 0.506v5.625c-0.001 0.279-0.227 0.504-0.504 0.504z" fill="#4E5A69"/>				<path stroke="#4E5A69" stroke-miterlimit="10" d="m30.145 5.333h-28.422c-0.145 0-0.262-0.117-0.262-0.262s0.117-0.261 0.262-0.261h28.422c0.144 0 0.261 0.117 0.261 0.262s-0.118 0.261-0.261 0.261z" fill="#4E5A69"/>				<path d="m9.27 8.388c-0.279 0-0.506-0.225-0.506-0.504v-5.625c0-0.279 0.227-0.506 0.506-0.506 0.277 0 0.504 0.227 0.504 0.506v5.625c-0.001 0.279-0.227 0.504-0.504 0.504z" fill="#4E5A69"/>				<path stroke="#4E5A69" stroke-miterlimit="10" d="m5.539 9.479c-0.119 0-0.238-0.041-0.334-0.129l-4.318-3.908c-0.105-0.096-0.164-0.23-0.164-0.371s0.058-0.277 0.164-0.371l4.318-3.91c0.205-0.186 0.522-0.17 0.705 0.035 0.186 0.205 0.17 0.522-0.035 0.707l-3.908 3.539 3.908 3.539c0.205 0.184 0.221 0.5 0.035 0.705-0.098 0.11-0.234 0.164-0.371 0.164z" fill="#4E5A69"/>						<path d="m22.598 1.753c0.279 0 0.506 0.227 0.506 0.506v5.625c0 0.279-0.227 0.504-0.506 0.504-0.277 0-0.504-0.225-0.504-0.504v-5.625c0-0.28 0.226-0.506 0.504-0.506z" fill="#4E5A69"/>						<path stroke="#4E5A69" stroke-miterlimit="10" d="m26.326 9.481c-0.137 0-0.273-0.057-0.371-0.166-0.186-0.203-0.17-0.521 0.035-0.705l3.908-3.539-3.908-3.539c-0.205-0.186-0.221-0.502-0.035-0.705 0.186-0.207 0.502-0.223 0.705-0.035l4.319 3.908c0.104 0.094 0.164 0.23 0.164 0.371s-0.06 0.275-0.164 0.371l-4.319 3.909c-0.096 0.087-0.215 0.13-0.334 0.13z" fill="#4E5A69"/></svg><svg xmlns:xlink="http://www.w3.org/1999/xlink" id="snl-icon-single-hl" xml:space="preserve" height="11" viewBox="0 0 34.375 11.139" width="34" version="1.1" y="129" x="0px" enable-background="new 0 0 34.375 11.139"><rect y="-19.735" x="-20.496" height="49" width="338.48" fill="#253842"/><path stroke="#4E5A69" stroke-miterlimit="10" d="m11.348 3.11" fill="#4E5A69"/>				<path stroke="#FF7936" stroke-miterlimit="10" d="m32.886 5.425h-28.422c-0.145 0-0.262-0.117-0.262-0.262s0.117-0.262 0.262-0.262h28.422c0.145 0 0.262 0.117 0.262 0.262s-0.118 0.262-0.262 0.262z" fill="#FF7936"/>				<path stroke="#FF7936" stroke-miterlimit="10" d="m8.28 9.571c-0.119 0-0.238-0.041-0.334-0.129l-4.318-3.908c-0.105-0.096-0.164-0.23-0.164-0.371s0.059-0.277 0.164-0.371l4.318-3.91c0.205-0.186 0.521-0.17 0.705 0.035 0.186 0.205 0.17 0.521-0.035 0.707l-3.908 3.539 3.908 3.539c0.205 0.184 0.221 0.5 0.035 0.705-0.097 0.11-0.234 0.164-0.371 0.164z" fill="#FF7936"/>						<path stroke="#FF7936" stroke-miterlimit="10" d="m29.067 9.573c-0.137 0-0.273-0.057-0.371-0.166-0.186-0.203-0.17-0.521 0.035-0.705l3.908-3.539-3.908-3.539c-0.205-0.186-0.221-0.502-0.035-0.705 0.186-0.207 0.502-0.223 0.705-0.035l4.32 3.908c0.104 0.094 0.164 0.23 0.164 0.371s-0.061 0.275-0.164 0.371l-4.32 3.908c-0.095 0.088-0.214 0.131-0.334 0.131z" fill="#FF7936"/></svg><svg xmlns:xlink="http://www.w3.org/1999/xlink" id="snl-icon-single" xml:space="preserve" height="11" viewBox="0 0 31.75 11.181" width="32" version="1.1" y="140" x="0px" enable-background="new 0 0 31.75 11.181"><path stroke="#4E5A69" stroke-miterlimit="10" d="m8.518 3.411" fill="#4E5A69"/>			<path stroke="#4E5A69" stroke-miterlimit="10" d="m30.056 5.726h-28.422c-0.145 0-0.262-0.117-0.262-0.262s0.117-0.262 0.262-0.262h28.422c0.145 0 0.262 0.117 0.262 0.262s-0.118 0.262-0.262 0.262z" fill="#4E5A69"/>			<path stroke="#4E5A69" stroke-miterlimit="10" d="m5.45 9.872c-0.119 0-0.238-0.041-0.334-0.129l-4.318-3.908c-0.105-0.096-0.164-0.23-0.164-0.371s0.059-0.277 0.164-0.371l4.318-3.91c0.205-0.186 0.521-0.17 0.705 0.035 0.186 0.205 0.17 0.521-0.035 0.707l-3.908 3.539 3.908 3.539c0.205 0.184 0.221 0.5 0.035 0.705-0.097 0.109-0.234 0.164-0.371 0.164z" fill="#4E5A69"/>					<path stroke="#4E5A69" stroke-miterlimit="10" d="m26.237 9.874c-0.137 0-0.273-0.057-0.371-0.166-0.186-0.203-0.17-0.521 0.035-0.705l3.908-3.539-3.908-3.539c-0.205-0.186-0.221-0.502-0.035-0.705 0.186-0.207 0.502-0.223 0.705-0.035l4.32 3.908c0.104 0.094 0.164 0.23 0.164 0.371s-0.061 0.275-0.164 0.371l-4.32 3.908c-0.095 0.088-0.215 0.131-0.334 0.131z" fill="#4E5A69"/></svg></svg>
