<?xml version="1.0" encoding="UTF-8"?>
<!DOCTYPE svg PUBLIC "-//W3C//DTD SVG 1.1//EN" "http://www.w3.org/Graphics/SVG/1.1/DTD/svg11.dtd">
<svg version="1.1" xmlns="http://www.w3.org/2000/svg" xmlns:xlink="http://www.w3.org/1999/xlink" width="26" height="9"  xml:space="preserve">
    <defs>
        <filter id="linesCopy8InnerShadow-inner" filterUnits="userSpaceOnUse">
            <feGaussianBlur in="SourceAlpha" stdDeviation="0.5" result="blur"/>
            <feOffset dx="-1.1" dy="1.1"/>
            <feComposite in2="SourceAlpha" operator="arithmetic" k2="-1.15" k3="1.15" result="shadowDiff"/>
            <feFlood flood-color="rgb(0, 0, 0)" flood-opacity="0.15"/>
            <feComposite in2="shadowDiff" operator="in"/>
            <feComposite in2="SourceGraphic" operator="over"/>
        </filter>
    </defs>
    <path id="arrowLeft" stroke="none" fill="rgb(188, 190, 192)" d="M 8,6.62 L 8,9 0,4.5 8,-0 8,2.37 8,6.62 Z M 8,6.62" />
    <path id="arrowRight" stroke="none" fill="rgb(188, 190, 192)" d="M 18,2.38 L 18,0 26,4.5 18,9 18,6.63 18,2.38 Z M 18,2.38" />
    <path id="lineRight" stroke="none" fill="rgb(188, 190, 192)" filter="url(#linesCopy8InnerShadow-inner)" d="M 16,-0 C 16.55,-0 17,0.41 17,0.92 L 17,8.08 C 17,8.59 16.55,9.01 16,9.01 15.44,9.01 15,8.59 15,8.08 L 15,0.92 C 15,0.41 15.44,-0 16,-0 Z M 16,-0" />
    <path id="lineMiddle" stroke="none" fill="rgb(188, 190, 192)" filter="url(#linesCopy8InnerShadow-inner)" d="M 13,-0 C 13.55,-0 14,0.41 14,0.92 L 14,8.08 C 14,8.59 13.55,9.01 13,9.01 12.44,9.01 12,8.59 12,8.08 L 12,0.92 C 12,0.41 12.44,-0 13,-0 Z M 13,-0" />
    <path id="lineLeft" stroke="none" fill="rgb(188, 190, 192)" filter="url(#linesCopy8InnerShadow-inner)" d="M 10,-0 C 10.55,-0 11,0.41 11,0.92 L 11,8.08 C 11,8.59 10.55,9.01 10,9.01 9.44,9.01 9,8.59 9,8.08 L 9,0.92 C 9,0.41 9.44,-0 10,-0 Z M 10,-0" />
</svg>
