<?xml version="1.0" standalone="no"?>
<!DOCTYPE svg PUBLIC "-//W3C//DTD SVG 1.1//EN"
    "http://www.w3.org/Graphics/SVG/1.1/DTD/svg11.dtd">
<svg contentScriptType="text/ecmascript" width="51" xmlns:xlink="http://www.w3.org/1999/xlink" baseProfile="full"
    zoomAndPan="magnify" contentStyleType="text/css" height="51" preserveAspectRatio="xMidYMid meet" xmlns="http://www.w3.org/2000/svg"
    xml:space="preserve" version="1.1">          
    <defs>                  
        <filter id="linesCopy5DropShadow-outer" filterUnits="userSpaceOnUse">                          
            <feGaussianBlur stdDeviation="0"/>                          
            <feOffset result="blur" dx="0.1" dy="1.1"/>                          
            <feFlood flood-color="rgb(255, 255, 255)" flood-opacity="1"/>                          
            <feComposite result="colorShadow" in2="blur" operator="in"/>                          
            <feComposite in2="colorShadow" in="SourceGraphic" operator="over"/>         </filter>                  
        <filter id="linesCopy5InnerShadow-inner" filterUnits="userSpaceOnUse">                          
            <feGaussianBlur stdDeviation="0.5" result="blur" in="SourceAlpha"/>                          
            <feOffset dx="-1.1" dy="1.1"/>                          
            <feComposite k2="-1.15" k3="1.15" operator="arithmetic" in2="SourceAlpha" result="shadowDiff"/>                          
            <feFlood flood-color="rgb(0, 0, 0)" flood-opacity="0.15"/>                          
            <feComposite in2="shadowDiff" operator="in"/>                          
            <feComposite in2="SourceGraphic" operator="over"/>         </filter>     </defs>          
    <path fill="#cef6ce" d="M 46.8387 45.75 L 6.581299 45.75 C 6.0602217 45.75 5.639998 45.34972 5.639998 44.853374 L 
        46.8387 5.6099997 C 47.35978 5.6099997 47.78 6.0102787 47.78 6.5066247 L 47.78 44.853374 C 47.78 45.34972 
        47.35978 45.75 46.8387 45.75 z M 46.8387 45.75" id="roundedRectangle1" transform="matrix(1.0 0.0 0.0 1.0 2.25 4.25)"
        stroke="#0b243b"/>          
    <g filter="url(#linesCopy5DropShadow-outer)">                  
        <path fill="rgb(77, 77, 79)" d="M 39.66 29.07 C 40.17 29.58 40.16 30.43 39.63 30.96 L 30.35 40.24 C 29.82 40.78 
            28.97 40.79 28.45 40.27 C 27.94 39.76 27.95 38.91 28.48 38.38 L 37.76 29.1 C 38.29 28.56 39.14 28.55 39.66 
            29.07 z M 42.46 31.86 C 42.98 32.379997 42.96 33.23 42.43 33.760002 L 33.15 43.05 C 32.61 43.58 31.76 43.59 
            31.25 43.08 C 30.73 42.56 30.75 41.71 31.28 41.18 L 40.56 31.89 C 41.1 31.36 41.94 31.35 42.46 31.86 z M 
            45.26 34.67 C 45.77 35.18 45.76 36.03 45.23 36.56 L 35.95 45.84 C 35.42 46.37 34.57 46.39 34.05 45.87 C 
            33.54 45.36 33.55 44.51 34.08 43.98 L 43.36 34.7 C 43.89 34.16 44.74 34.15 45.26 34.67 z M 45.26 34.67" id="linesCopy5"
            stroke="none" filter="url(#linesCopy5InnerShadow-inner)"/>     </g> </svg>