<?xml version="1.0" standalone="no"?>
<!--Created with Sketsa SVG Editor (http://www.kiyut.com)-->
<svg contentScriptType="text/ecmascript" width="28.0px" xmlns:xlink="http://www.w3.org/1999/xlink" baseProfile="full"
    zoomAndPan="magnify" contentStyleType="text/css" height="28.0px" preserveAspectRatio="xMidYMid meet" xmlns="http://www.w3.org/2000/svg"
    version="1.0">
    <path fill="#FFFFFF" d="M 72.184814 31.572264 C 72.69481 32.08226 72.684814 32.932262 72.154816 33.46226 L
        62.874813 42.742264 C 62.344807 43.28226 61.49481 43.292263 60.97481 42.772263 C 60.46481 42.26226 60.47481
        41.412262 61.00481 40.882263 L 70.28481 31.602262 C 70.81481 31.062262 71.66481 31.052263 72.184814 31.572264 z
        M 74.98481 34.362263 C 75.504814 34.88226 75.48481 35.73226 74.95481 36.262264 L 65.67481 45.55226 C 65.13481
        46.082264 64.28481 46.092262 63.774807 45.582264 C 63.25481 45.062263 63.274807 44.21226 63.804813 43.682262 L
        73.084816 34.39226 C 73.62481 33.862263 74.46481 33.85226 74.98481 34.362263 z M 77.78481 37.17226 C 78.294815
        37.682262 78.28481 38.53226 77.754814 39.062263 L 68.474815 48.342262 C 67.94481 48.87226 67.09481 48.89226
        66.574814 48.37226 C 66.06481 47.862263 66.074814 47.01226 66.60481 46.48226 L 75.88481 37.202263 C 76.41481
        36.662262 77.26482 36.652264 77.78481 37.17226 z M 77.78481 37.17226" id="linesCopy5" transform="matrix(-0.70770204 -0.70651114 0.70651114 -0.70770204 34.96439 91.52606)"
        stroke="none"/>
    <rect fill-opacity="0.0" x="0.39999962" width="27.0" height="27.0" y="0.39999962" stroke="none"/>
    <path fill="#FFFFFF" d="M 72.184814 31.572264 C 72.69481 32.08226 72.684814 32.932262 72.154816 33.46226 L
        62.874813 42.742264 C 62.344807 43.28226 61.49481 43.292263 60.97481 42.772263 C 60.46481 42.26226 60.47481
        41.412262 61.00481 40.882263 L 70.28481 31.602262 C 70.81481 31.062262 71.66481 31.052263 72.184814 31.572264 z
        M 74.98481 34.362263 C 75.504814 34.88226 75.48481 35.73226 74.95481 36.262264 L 65.67481 45.55226 C 65.13481
        46.082264 64.28481 46.092262 63.774807 45.582264 C 63.25481 45.062263 63.274807 44.21226 63.804813 43.682262 L
        73.084816 34.39226 C 73.62481 33.862263 74.46481 33.85226 74.98481 34.362263 z M 77.78481 37.17226 C 78.294815
        37.682262 78.28481 38.53226 77.754814 39.062263 L 68.474815 48.342262 C 67.94481 48.87226 67.09481 48.89226
        66.574814 48.37226 C 66.06481 47.862263 66.074814 47.01226 66.60481 46.48226 L 75.88481 37.202263 C 76.41481
        36.662262 77.26482 36.652264 77.78481 37.17226 z M 77.78481 37.17226" id="linesCopy5" transform="matrix(-0.70770204 -0.70651114 0.70651114 -0.70770204 34.96439 91.52606)"
        stroke="none"/>
</svg>
