<svg xmlns="http://www.w3.org/2000/svg" version="1.1" x="0px" y="0px" viewBox="0 0 45 45" enable-background="new 0 0 45 45" xml:space="preserve"><path fill="#808080" d="M9.2 18.4h1.6v3.2h3.2v1.6h-3.2v3.2H9.2v-3.2H6v-1.6h3.2V18.4z"/><path fill="#FF00FF" d="M38.7 14.5h-1v-1h1V14.5zM36.7 14.5h-1v-1h1V14.5zM34.7 14.5h-1v-1h1V14.5zM32.7 14.5h-1v-1h1V14.5zM30.7 14.5h-1v-1h1V14.5zM28.7 14.5h-1v-1h1V14.5zM26.7 14.5h-1v-1h1V14.5zM24.7 14.5h-1v-1h1V14.5zM22.7 14.5h-1v-1h1V14.5zM20.7 14.5h-1v-1h1V14.5zM18.7 14.5h-1v-1h1V14.5z"/><path fill="#FF00FF" d="M38.7 22.5h-1v-1h1V22.5zM36.7 22.5h-1v-1h1V22.5zM34.7 22.5h-1v-1h1V22.5zM32.7 22.5h-1v-1h1V22.5zM30.7 22.5h-1v-1h1V22.5zM28.7 22.5h-1v-1h1V22.5zM26.7 22.5h-1v-1h1V22.5zM24.7 22.5h-1v-1h1V22.5zM22.7 22.5h-1v-1h1V22.5zM20.7 22.5h-1v-1h1V22.5zM18.7 22.5h-1v-1h1V22.5z"/><path fill="#FF00FF" d="M38.7 30.5h-1v-1h1V30.5zM36.7 30.5h-1v-1h1V30.5zM34.7 30.5h-1v-1h1V30.5zM32.7 30.5h-1v-1h1V30.5zM30.7 30.5h-1v-1h1V30.5zM28.7 30.5h-1v-1h1V30.5zM26.7 30.5h-1v-1h1V30.5zM24.7 30.5h-1v-1h1V30.5zM22.7 30.5h-1v-1h1V30.5zM20.7 30.5h-1v-1h1V30.5zM18.7 30.5h-1v-1h1V30.5z"/><g display="none"><g display="inline"><path fill="#B3B3B3" d="M9.2 18.4h1.6v3.2h3.2v1.6h-3.2v3.2H9.2v-3.2H6v-1.6h3.2V18.4z"/></g><g display="inline"><path fill="#B3B3B3" d="M38.7 14.5h-1v-1h1V14.5zM36.7 14.5h-1v-1h1V14.5zM34.7 14.5h-1v-1h1V14.5zM32.7 14.5h-1v-1h1V14.5zM30.7 14.5h-1v-1h1V14.5zM28.7 14.5h-1v-1h1V14.5zM26.7 14.5h-1v-1h1V14.5zM24.7 14.5h-1v-1h1V14.5zM22.7 14.5h-1v-1h1V14.5zM20.7 14.5h-1v-1h1V14.5zM18.7 14.5h-1v-1h1V14.5z"/></g><g display="inline"><path fill="#B3B3B3" d="M38.7 22.5h-1v-1h1V22.5zM36.7 22.5h-1v-1h1V22.5zM34.7 22.5h-1v-1h1V22.5zM32.7 22.5h-1v-1h1V22.5zM30.7 22.5h-1v-1h1V22.5zM28.7 22.5h-1v-1h1V22.5zM26.7 22.5h-1v-1h1V22.5zM24.7 22.5h-1v-1h1V22.5zM22.7 22.5h-1v-1h1V22.5zM20.7 22.5h-1v-1h1V22.5zM18.7 22.5h-1v-1h1V22.5z"/></g><g display="inline"><path fill="#B3B3B3" d="M38.7 30.5h-1v-1h1V30.5zM36.7 30.5h-1v-1h1V30.5zM34.7 30.5h-1v-1h1V30.5zM32.7 30.5h-1v-1h1V30.5zM30.7 30.5h-1v-1h1V30.5zM28.7 30.5h-1v-1h1V30.5zM26.7 30.5h-1v-1h1V30.5zM24.7 30.5h-1v-1h1V30.5zM22.7 30.5h-1v-1h1V30.5zM20.7 30.5h-1v-1h1V30.5zM18.7 30.5h-1v-1h1V30.5z"/></g></g></svg>