<svg xmlns="http://www.w3.org/2000/svg" version="1.1" x="0px" y="0px" viewBox="0 0 45 45" enable-background="new 0 0 45 45" xml:space="preserve"><g display="none"><g display="inline"><path fill="#808080" d="M9.2 18.4h1.6v3.2h3.2v1.6h-3.2v3.2H9.2v-3.2H6v-1.6h3.2V18.4z"/></g><g display="inline"><path fill="#FF00FF" d="M38.7 14.5h-1v-1h1V14.5zM36.7 14.5h-1v-1h1V14.5zM34.7 14.5h-1v-1h1V14.5zM32.7 14.5h-1v-1h1V14.5zM30.7 14.5h-1v-1h1V14.5zM28.7 14.5h-1v-1h1V14.5zM26.7 14.5h-1v-1h1V14.5zM24.7 14.5h-1v-1h1V14.5zM22.7 14.5h-1v-1h1V14.5zM20.7 14.5h-1v-1h1V14.5zM18.7 14.5h-1v-1h1V14.5z"/></g><g display="inline"><path fill="#FF00FF" d="M38.7 22.5h-1v-1h1V22.5zM36.7 22.5h-1v-1h1V22.5zM34.7 22.5h-1v-1h1V22.5zM32.7 22.5h-1v-1h1V22.5zM30.7 22.5h-1v-1h1V22.5zM28.7 22.5h-1v-1h1V22.5zM26.7 22.5h-1v-1h1V22.5zM24.7 22.5h-1v-1h1V22.5zM22.7 22.5h-1v-1h1V22.5zM20.7 22.5h-1v-1h1V22.5zM18.7 22.5h-1v-1h1V22.5z"/></g><g display="inline"><path fill="#FF00FF" d="M38.7 30.5h-1v-1h1V30.5zM36.7 30.5h-1v-1h1V30.5zM34.7 30.5h-1v-1h1V30.5zM32.7 30.5h-1v-1h1V30.5zM30.7 30.5h-1v-1h1V30.5zM28.7 30.5h-1v-1h1V30.5zM26.7 30.5h-1v-1h1V30.5zM24.7 30.5h-1v-1h1V30.5zM22.7 30.5h-1v-1h1V30.5zM20.7 30.5h-1v-1h1V30.5zM18.7 30.5h-1v-1h1V30.5z"/></g></g><g display="none"><g display="inline"><path fill="#B3B3B3" d="M9.2 18.4h1.6v3.2h3.2v1.6h-3.2v3.2H9.2v-3.2H6v-1.6h3.2V18.4z"/></g><g display="inline"><path fill="#B3B3B3" d="M38.7 14.5h-1v-1h1V14.5zM36.7 14.5h-1v-1h1V14.5zM34.7 14.5h-1v-1h1V14.5zM32.7 14.5h-1v-1h1V14.5zM30.7 14.5h-1v-1h1V14.5zM28.7 14.5h-1v-1h1V14.5zM26.7 14.5h-1v-1h1V14.5zM24.7 14.5h-1v-1h1V14.5zM22.7 14.5h-1v-1h1V14.5zM20.7 14.5h-1v-1h1V14.5zM18.7 14.5h-1v-1h1V14.5z"/></g><g display="inline"><path fill="#B3B3B3" d="M38.7 22.5h-1v-1h1V22.5zM36.7 22.5h-1v-1h1V22.5zM34.7 22.5h-1v-1h1V22.5zM32.7 22.5h-1v-1h1V22.5zM30.7 22.5h-1v-1h1V22.5zM28.7 22.5h-1v-1h1V22.5zM26.7 22.5h-1v-1h1V22.5zM24.7 22.5h-1v-1h1V22.5zM22.7 22.5h-1v-1h1V22.5zM20.7 22.5h-1v-1h1V22.5zM18.7 22.5h-1v-1h1V22.5z"/></g><g display="inline"><path fill="#B3B3B3" d="M38.7 30.5h-1v-1h1V30.5zM36.7 30.5h-1v-1h1V30.5zM34.7 30.5h-1v-1h1V30.5zM32.7 30.5h-1v-1h1V30.5zM30.7 30.5h-1v-1h1V30.5zM28.7 30.5h-1v-1h1V30.5zM26.7 30.5h-1v-1h1V30.5zM24.7 30.5h-1v-1h1V30.5zM22.7 30.5h-1v-1h1V30.5zM20.7 30.5h-1v-1h1V30.5zM18.7 30.5h-1v-1h1V30.5z"/></g></g><path fill="#B3B3B3" d="M9 17.9h1.6v3.2h3.2v1.6h-3.2V26H9v-3.2H5.8v-1.6H9V17.9z"/><path fill="#B3B3B3" d="M20 37h-1v-1h1V37zM20 35h-1v-1h1V35zM20 33h-1v-1h1V33zM20 31h-1v-1h1V31zM20 29h-1v-1h1V29zM20 27h-1v-1h1V27zM20 25h-1v-1h1V25zM20 23h-1v-1h1V23zM20 21h-1v-1h1V21zM20 19h-1v-1h1V19zM20 17h-1v-1h1V17zM20 15h-1v-1h1V15zM20 13h-1v-1h1V13zM20 11h-1v-1h1V11zM20 9h-1V8h1V9zM20 7h-1V6h1V7z"/><path fill="#B3B3B3" d="M28 37h-1v-1h1V37zM28 35h-1v-1h1V35zM28 33h-1v-1h1V33zM28 31h-1v-1h1V31zM28 29h-1v-1h1V29zM28 27h-1v-1h1V27zM28 25h-1v-1h1V25zM28 23h-1v-1h1V23zM28 21h-1v-1h1V21zM28 19h-1v-1h1V19zM28 17h-1v-1h1V17zM28 15h-1v-1h1V15zM28 13h-1v-1h1V13zM28 11h-1v-1h1V11zM28 9h-1V8h1V9zM28 7h-1V6h1V7z"/><path fill="#B3B3B3" d="M36 37h-1v-1h1V37zM36 35h-1v-1h1V35zM36 33h-1v-1h1V33zM36 31h-1v-1h1V31zM36 29h-1v-1h1V29zM36 27h-1v-1h1V27zM36 25h-1v-1h1V25zM36 23h-1v-1h1V23zM36 21h-1v-1h1V21zM36 19h-1v-1h1V19zM36 17h-1v-1h1V17zM36 15h-1v-1h1V15zM36 13h-1v-1h1V13zM36 11h-1v-1h1V11zM36 9h-1V8h1V9zM36 7h-1V6h1V7z"/></svg>