<?xml version="1.0" encoding="utf-8"?>
<!-- Generator: Adobe Illustrator 16.0.4, SVG Export Plug-In . SVG Version: 6.00 Build 0)  -->
<!DOCTYPE svg PUBLIC "-//W3C//DTD SVG 1.1//EN" "http://www.w3.org/Graphics/SVG/1.1/DTD/svg11.dtd">
<svg version="1.1" id="Layer_1" xmlns="http://www.w3.org/2000/svg" xmlns:xlink="http://www.w3.org/1999/xlink" x="0px" y="0px"
	 width="301.389px" height="500px" viewBox="0 0 301.389 500" enable-background="new 0 0 301.389 500" xml:space="preserve">
<g>
	<g>
		<path fill="#9DA4AC" d="M206.105,363.261c0,0.714-0.578,1.292-1.291,1.292l0,0c-0.713,0-1.291-0.577-1.291-1.292V191.19
			c0-0.713,0.578-1.291,1.291-1.291l0,0c0.713,0,1.291,0.578,1.291,1.291V363.261z"/>
		<path fill="#CDCED0" d="M203.523,362.384c0,0-15.922-56.99-15.922-85.663c0-28.673,15.922-85.668,15.922-85.668"/>
	</g>
	<g>
		<g>
			<g>
				<path fill="#E3E4E6" d="M180.475,260.465v3.293h-35.979c-6.848,0-12.422-5.571-12.422-12.421v-46.703h3.295v46.703
					c0,5.033,4.096,9.128,9.127,9.128H180.475z"/>
			</g>
			<g>
				<rect x="143.828" y="259.521" fill="#E3E4E6" width="2.096" height="4.957"/>
			</g>
			<g>
				<rect x="167.527" y="259.521" fill="#E3E4E6" width="2.098" height="4.957"/>
			</g>
			<g>
				<rect x="131.086" y="248.604" fill="#E3E4E6" width="4.955" height="2.095"/>
			</g>
			<g>
				<rect x="131.086" y="225.556" fill="#E3E4E6" width="4.955" height="2.097"/>
			</g>
			<g>
				<rect x="131.086" y="197.655" fill="#E3E4E6" width="4.955" height="2.095"/>
			</g>
			<g>
				<g>
					<path fill="#9DA4AC" d="M170.004,268.409c-6.4,0-11.607-5.205-11.607-11.605v-53.93v-14.261v-5.407
						c0-12.8-10.412-23.215-23.215-23.215h-12.643v11.608h12.643c6.4,0,11.607,5.207,11.607,11.606v5.407v14.261v53.93
						c0,12.8,10.412,23.215,23.215,23.215h12.135v-11.61H170.004z"/>
					<g>
						<rect x="177.572" y="268.409" fill="#ABAFB6" width="2.902" height="11.61"/>
						<rect x="171.268" y="268.409" fill="#ABAFB6" width="2.902" height="11.61"/>
						<path fill="#ABAFB6" d="M167.172,279.839l1.406-11.525c-0.99-0.122-1.939-0.37-2.836-0.725l-1.43,11.721
							C165.244,279.545,166.199,279.72,167.172,279.839z"/>
						<path fill="#ABAFB6" d="M147.16,260.909l11.422-2.101c-0.115-0.652-0.186-1.318-0.186-2.004v-0.912l-11.574,2.128
							C146.873,259.001,146.992,259.963,147.16,260.909z"/>
						<rect x="146.789" y="248.309" fill="#ABAFB6" width="11.607" height="2.899"/>
						<rect x="146.789" y="241.421" fill="#ABAFB6" width="11.607" height="2.902"/>
						<rect x="146.789" y="234.538" fill="#ABAFB6" width="11.607" height="2.902"/>
						<rect x="146.789" y="227.652" fill="#ABAFB6" width="11.607" height="2.903"/>
						<rect x="146.789" y="220.768" fill="#ABAFB6" width="11.607" height="2.902"/>
						<rect x="146.789" y="213.882" fill="#ABAFB6" width="11.607" height="2.9"/>
						<rect x="146.789" y="206.752" fill="#ABAFB6" width="11.607" height="2.901"/>
						<rect x="146.789" y="199.622" fill="#ABAFB6" width="11.607" height="2.9"/>
						<rect x="146.789" y="192.491" fill="#ABAFB6" width="11.607" height="2.9"/>
						<rect x="146.789" y="185.36" fill="#ABAFB6" width="11.607" height="2.9"/>
						<path fill="#ABAFB6" d="M150.227,268.942l10.215-5.574c-0.547-0.794-0.988-1.663-1.326-2.584l-10.252,5.593
							C149.266,267.263,149.719,268.12,150.227,268.942z"/>
						<path fill="#ABAFB6" d="M156.518,275.679c0.785,0.564,1.605,1.086,2.457,1.548l5.818-10.065
							c-0.873-0.444-1.684-0.989-2.412-1.627L156.518,275.679z"/>
					</g>
				</g>
			</g>
			<g>
				<rect x="176.016" y="263.697" fill="#9DA4AC" width="3.156" height="18.757"/>
				<rect x="178.717" y="218.049" fill="#9DA4AC" width="5.639" height="112.231"/>
			</g>
		</g>
		<g>
			<path fill="#E3E4E6" d="M122.538,187.333v-3.295h0.435c6.85,0,12.424,5.573,12.424,12.422v33.004h-3.295V196.46
				c0-5.033-4.094-9.126-9.129-9.126H122.538z"/>
		</g>
	</g>
	<linearGradient id="SVGID_1_" gradientUnits="userSpaceOnUse" x1="193.9395" y1="254.9561" x2="193.9395" y2="331.9623">
		<stop  offset="0" style="stop-color:#CDCED0"/>
		<stop  offset="1" style="stop-color:#666466"/>
	</linearGradient>
	<path fill="url(#SVGID_1_)" d="M203.523,191.054c0,0-1.336,5.304-3.23,13.375h-15.938v144.582h15.938
		c1.895,8.071,3.23,13.374,3.23,13.374V191.054z"/>
</g>
</svg>
