<?xml version="1.0" encoding="utf-8"?>
<!-- Generator: Adobe Illustrator 16.0.4, SVG Export Plug-In . SVG Version: 6.00 Build 0)  -->
<!DOCTYPE svg PUBLIC "-//W3C//DTD SVG 1.1//EN" "http://www.w3.org/Graphics/SVG/1.1/DTD/svg11.dtd">
<svg version="1.1" id="Layer_1" xmlns="http://www.w3.org/2000/svg" xmlns:xlink="http://www.w3.org/1999/xlink" x="0px" y="0px"
	 width="765.994px" height="500px" viewBox="0 0 765.994 500" enable-background="new 0 0 765.994 500" xml:space="preserve">
<g>
	<g>
		<g>
			<g>
				<g>
					<g>
						<g>
							<path fill="#9DA4AC" d="M194.334,352.932h-7.778v-9.892c0-8.578,6.979-15.555,15.555-15.555h32.658v7.775h-32.658
								c-4.289,0-7.777,3.489-7.777,7.779V352.932z"/>
						</g>
						<g>
							<rect x="186.557" y="348.11" fill="#ABAFB6" width="7.778" height="1.943"/>
							<rect x="186.557" y="343.885" fill="#ABAFB6" width="7.778" height="1.946"/>
							<path fill="#ABAFB6" d="M186.676,341.142l7.723,0.941c0.082-0.662,0.248-1.298,0.486-1.898l-7.854-0.961
								C186.874,339.851,186.756,340.489,186.676,341.142z"/>
							<path fill="#ABAFB6" d="M199.362,327.732l1.406,7.653c0.438-0.078,0.883-0.125,1.344-0.125h0.611l-1.427-7.756
								C200.639,327.54,199.995,327.62,199.362,327.732z"/>
							<rect x="205.86" y="327.485" fill="#ABAFB6" width="1.943" height="7.775"/>
							<rect x="210.475" y="327.485" fill="#ABAFB6" width="1.941" height="7.775"/>
							<rect x="215.086" y="327.485" fill="#ABAFB6" width="1.943" height="7.775"/>
							<rect x="219.698" y="327.485" fill="#ABAFB6" width="1.947" height="7.775"/>
							<rect x="224.313" y="327.485" fill="#ABAFB6" width="1.943" height="7.775"/>
							<rect x="228.926" y="327.485" fill="#ABAFB6" width="1.943" height="7.775"/>
							<path fill="#ABAFB6" d="M193.977,329.786l3.736,6.846c0.531-0.365,1.113-0.663,1.73-0.889l-3.746-6.869
								C195.104,329.144,194.53,329.447,193.977,329.786z"/>
							<path fill="#ABAFB6" d="M189.463,334.003c-0.379,0.528-0.727,1.076-1.035,1.649l6.746,3.896
								c0.295-0.586,0.66-1.129,1.088-1.616L189.463,334.003z"/>
						</g>
					</g>
				</g>
				<g>
					<rect x="184.926" y="347.068" fill="#9DA4AC" width="12.566" height="2.113"/>
					<rect x="180.436" y="348.878" fill="#9DA4AC" width="20.082" height="4.054"/>
				</g>
			</g>
			<rect x="210.704" y="278.933" fill="#797E85" width="65.053" height="73.999"/>
			<g>
				<g>
					<path fill="#878787" d="M223.538,331.923c0.144-0.184,0.297-0.359,0.455-0.529h38.227c0.24,0.256,0.459,0.525,0.662,0.812
						h-39.344V331.923z"/>
					<path fill="#878787" d="M223.254,339.354v-0.812h40.328c0.09,0.194,0.172,0.389,0.248,0.59v0.222H223.254z"/>
					<path fill="#878787" d="M222.792,335.991v-0.81h40.328c0.09,0.191,0.174,0.388,0.25,0.589v0.221H222.792z"/>
					<rect x="222.393" y="341.872" fill="#878787" width="41.961" height="0.812"/>
					<rect x="222.106" y="345.753" fill="#878787" width="42.248" height="0.811"/>
					<rect x="222.379" y="349.632" fill="#878787" width="41.381" height="0.816"/>
				</g>
				<g>
					<path fill="#878787" d="M263.131,352.932h1.582v-16.927c0-4.383-3.564-7.947-7.943-7.947h-27.08
						c-4.379,0-7.943,3.564-7.943,7.947v16.927h1.584v-16.927c0-3.51,2.854-6.363,6.359-6.363h27.08
						c3.508,0,6.361,2.854,6.361,6.363V352.932z"/>
				</g>
			</g>
		</g>
		<g>
			<g>
				<g>
					<g>
						<circle fill="#797E85" cx="243.392" cy="304.425" r="15.774"/>
						<circle fill="#FFFFFF" cx="243.393" cy="304.425" r="12.6"/>
						<g>
							<path fill="#B3B8BF" d="M243.313,294.82c3.783,0,7.092,2.036,8.893,5.069l-2.006,1.022c-1.426-2.308-3.979-3.847-6.887-3.847
								c-0.725,0-1.426,0.097-2.09,0.272l-0.505-2.186C241.543,294.936,242.415,294.82,243.313,294.82z"/>
							<path fill="#E0E0E0" d="M253.647,305.158c0,2.901-1.197,5.528-3.125,7.406l-1.305-1.877c1.357-1.451,2.188-3.393,2.188-5.528
								c0-1.363-0.342-2.649-0.936-3.774l2-1.019C253.221,301.797,253.647,303.43,253.647,305.158z"/>
							<path fill="#B7CBD6" d="M240.192,295.298l0.508,2.197c-1.117,0.383-2.129,1.003-2.969,1.802l-1.586-1.587
								C237.278,296.619,238.659,295.785,240.192,295.298z"/>
							<path fill="#E3E4E6" d="M235.762,298.098l1.588,1.588c-1.326,1.441-2.133,3.36-2.133,5.473c0,1.421,0.365,2.758,1.012,3.921
								l-2.137,0.756c-0.715-1.404-1.12-2.994-1.12-4.677C232.973,302.43,234.032,299.944,235.762,298.098z"/>
						</g>
						<circle fill="#B7CBD6" cx="243.393" cy="304.425" r="1.549"/>
						<polygon fill="#B7CBD6" points="250.805,311.285 244.5,304.425 239.633,299.558 238.415,300.887 243.725,305.201 						"/>
					</g>
				</g>
			</g>
		</g>
	</g>
	<g>
		<g>
			<g>
				<g>
					<path fill="#B3B8BF" d="M431.031,262.756H321c-9.334,0-16.928,7.595-16.928,16.929v15.666h4.488v-15.666
						c0-6.859,5.58-12.439,12.439-12.439h110.031V262.756z"/>
				</g>
				<g>
					<rect x="302.7" y="274.935" fill="#B3B8BF" width="7.803" height="2.858"/>
				</g>
				<g>
					<rect x="320.366" y="261.406" fill="#B3B8BF" width="2.857" height="6.755"/>
				</g>
				<g>
					<rect x="350.45" y="261.406" fill="#B3B8BF" width="2.857" height="6.755"/>
				</g>
				<g>
					<rect x="380.534" y="261.406" fill="#B3B8BF" width="2.857" height="6.755"/>
				</g>
				<g>
					<rect x="410.618" y="261.406" fill="#B3B8BF" width="2.855" height="6.755"/>
				</g>
			</g>
			<g>
				<rect x="274.766" y="281.82" fill="#8C8D8F" width="43.969" height="34.953"/>
				<g>
					<circle fill="#DCDDDE" cx="285.471" cy="300.624" r="6.148"/>
					<g>
						<path fill="#E3E4E6" d="M280.702,300.624c0,2.633,2.137,4.77,4.768,4.77c2.635,0,4.77-2.136,4.77-4.77
							c0-2.631-2.135-4.764-4.77-4.764C282.838,295.86,280.702,297.993,280.702,300.624z"/>
					</g>
				</g>
				<g>
					<g>
						<g>
							<g>
								<circle fill="#B3B8BF" cx="313.733" cy="289.292" r="1.68"/>
								<polygon fill="#9DA3AA" points="314.788,289.061 313.928,289.085 313.905,288.228 313.502,288.237 313.526,289.096 
									312.668,289.119 312.678,289.522 313.538,289.499 313.563,290.357 313.963,290.347 313.938,289.489 314.799,289.463 
																	"/>
							</g>
							<g>
								<path fill="#B3B8BF" d="M315.413,313.414c0.025,0.925-0.703,1.699-1.631,1.724c-0.93,0.023-1.701-0.705-1.729-1.633
									c-0.025-0.926,0.707-1.701,1.635-1.723C314.616,311.755,315.387,312.485,315.413,313.414z"/>
								<polygon fill="#9DA3AA" points="314.792,313.23 313.928,313.253 313.905,312.394 313.502,312.405 313.526,313.263 
									312.668,313.288 312.68,313.688 313.538,313.667 313.563,314.524 313.963,314.513 313.94,313.653 314.801,313.632 								
									"/>
							</g>
						</g>
						<g>
							<g>
								<circle fill="#B3B8BF" cx="294.342" cy="289.292" r="1.68"/>
								<polygon fill="#9DA3AA" points="295.397,289.061 294.538,289.085 294.514,288.228 294.112,288.237 294.135,289.096 
									293.276,289.119 293.288,289.522 294.145,289.499 294.168,290.357 294.573,290.347 294.547,289.489 295.407,289.463 
																	"/>
							</g>
							<g>
								<path fill="#B3B8BF" d="M296.022,313.414c0.027,0.925-0.707,1.699-1.633,1.724c-0.929,0.023-1.701-0.705-1.726-1.633
									c-0.025-0.926,0.707-1.701,1.635-1.723C295.223,311.755,295.997,312.485,296.022,313.414z"/>
								<polygon fill="#9DA3AA" points="295.397,313.23 294.538,313.253 294.514,312.394 294.114,312.405 294.135,313.263 
									293.276,313.288 293.288,313.688 294.147,313.667 294.168,314.524 294.573,314.513 294.547,313.653 295.409,313.632 
																	"/>
							</g>
						</g>
					</g>
					<rect x="294.834" y="293.111" fill="#A0A2A4" width="18.408" height="16.61"/>
				</g>
			</g>
			<g>
				<rect x="296.875" y="299.98" fill="#F0F0F0" width="3.805" height="6.557"/>
				<g>
					<g>
						<rect x="308.938" y="300.47" fill="#DCDDDE" width="2.592" height="2.44"/>
						<rect x="305.047" y="300.47" fill="#DCDDDE" width="2.596" height="2.44"/>
						<rect x="301.542" y="300.47" fill="#DCDDDE" width="2.592" height="2.44"/>
					</g>
					<g>
						<rect x="308.938" y="304.129" fill="#DCDDDE" width="2.592" height="2.441"/>
						<rect x="305.047" y="304.129" fill="#DCDDDE" width="2.596" height="2.441"/>
						<rect x="301.542" y="304.129" fill="#DCDDDE" width="2.592" height="2.441"/>
					</g>
					<g>
						<g>
							<rect x="308.938" y="296.809" fill="#DCDDDE" width="2.592" height="2.441"/>
							<rect x="305.047" y="296.809" fill="#DCDDDE" width="2.596" height="2.441"/>
							<rect x="301.542" y="296.809" fill="#DCDDDE" width="2.592" height="2.441"/>
						</g>
						<rect x="296.875" y="296.809" fill="#E3E4E6" width="3.834" height="2.435"/>
					</g>
				</g>
			</g>
		</g>
		<g>
			<g>
				<g>
					<path fill="#CDCED0" d="M53.36,352.932h6.814v-69.232c0-10.411,8.473-18.885,18.887-18.885h23.779V258H79.061
						c-14.172,0-25.701,11.529-25.701,25.699V352.932z"/>
				</g>
				<g>
					<rect x="83.282" y="256.512" fill="#ABAFB6" width="4.338" height="10.258"/>
				</g>
				<g>
					<rect x="51.311" y="285.021" fill="#ABAFB6" width="10.258" height="4.337"/>
				</g>
				<g>
					<rect x="51.311" y="313.384" fill="#ABAFB6" width="10.258" height="4.336"/>
				</g>
			</g>
			<g>
				<rect x="101.319" y="240.388" fill="#A6A7A8" width="185.316" height="39.308"/>
				<g>
					<g>
						<g>
							<path fill="#5C5C5C" d="M217.962,247.656c-0.025,0.913,0.695,1.675,1.605,1.701c0.916,0.025,1.676-0.695,1.701-1.608
								c0.025-0.914-0.695-1.676-1.609-1.699C218.745,246.025,217.987,246.743,217.962,247.656z"/>
							<polygon fill="#9DA3AA" points="218.577,247.476 219.425,247.5 219.444,246.654 219.841,246.664 219.817,247.509 
								220.663,247.533 220.651,247.927 219.806,247.906 219.782,248.75 219.39,248.742 219.411,247.894 218.567,247.871 							"/>
						</g>
						<g>
							<circle fill="#5C5C5C" cx="219.615" cy="271.488" r="1.654"/>
							<polygon fill="#9DA3AA" points="218.575,271.26 219.421,271.283 219.444,270.436 219.841,270.449 219.817,271.294 
								220.663,271.317 220.651,271.713 219.806,271.691 219.782,272.536 219.39,272.525 219.411,271.68 218.565,271.656 							"/>
						</g>
					</g>
					<g>
						<g>
							<circle fill="#5C5C5C" cx="277.103" cy="247.702" r="1.653"/>
							<polygon fill="#9DA3AA" points="276.065,247.476 276.911,247.5 276.937,246.654 277.331,246.664 277.308,247.509 
								278.153,247.533 278.142,247.927 277.296,247.906 277.272,248.75 276.876,248.742 276.901,247.894 276.056,247.871 							
								"/>
						</g>
						<g>
							<circle fill="#5C5C5C" cx="277.103" cy="271.488" r="1.653"/>
							<polygon fill="#9DA3AA" points="276.063,271.26 276.911,271.283 276.937,270.436 277.331,270.449 277.308,271.294 
								278.151,271.317 278.142,271.713 277.296,271.691 277.272,272.536 276.876,272.525 276.901,271.68 276.056,271.656 							
								"/>
						</g>
					</g>
				</g>
				<g>
					<polygon fill="#CDCED0" points="242.89,228.1 248.325,228.1 254.337,228.1 252.655,226.909 244.532,226.909 					"/>
					<rect x="244.495" y="226.94" fill="#CDCED0" width="8.24" height="9.859"/>
					<rect x="244.138" y="228.81" fill="#CDCED0" width="8.951" height="0.758"/>
					<rect x="244.069" y="230.128" fill="#CDCED0" width="8.949" height="1.846"/>
				</g>
				<rect x="241.202" y="233.247" fill="#B3B8BF" width="15.447" height="7.107"/>
			</g>
			<g>
				<path fill="#D6FF8F" d="M274.282,267.523c0,2.575-2.088,4.661-4.662,4.661h-41.523c-2.575,0-4.662-2.086-4.662-4.661v-15.847
					c0-2.572,2.087-4.658,4.662-4.658h41.523c2.574,0,4.662,2.086,4.662,4.658V267.523z"/>
			</g>
		</g>
	</g>
</g>
<g>
	<g>
		<g>
			<path fill="#B3B8BF" d="M580.676,282.79h45.92c10.301,0,18.68,8.381,18.68,18.682v17.285h-4.953v-17.285
				c0-7.569-6.158-13.727-13.727-13.727h-45.92V282.79z"/>
		</g>
		<g>
			<rect x="638.18" y="296.23" fill="#B3B8BF" width="8.611" height="3.153"/>
		</g>
		<g>
			<rect x="624.143" y="281.299" fill="#B3B8BF" width="3.152" height="7.457"/>
		</g>
	</g>
	<g>
		<g>
			<path fill="#CDCED0" d="M561.865,278.758h-6.354v-58.885c0-9.708-7.898-17.606-17.605-17.606h-22.168v-6.354h22.168
				c13.211,0,23.959,10.748,23.959,23.959V278.758z"/>
		</g>
		<g>
			<rect x="529.926" y="194.528" fill="#ABAFB6" width="4.045" height="9.562"/>
		</g>
		<g>
			<rect x="554.213" y="221.104" fill="#ABAFB6" width="9.562" height="4.042"/>
		</g>
		<g>
			<rect x="554.213" y="247.545" fill="#ABAFB6" width="9.562" height="4.043"/>
		</g>
	</g>
	<g>
		<g>
			<g>
				<path fill="#B3B8BF" d="M539.107,269.376h8.379v-35.184c0-9.239-7.518-16.756-16.756-16.756h-35.186v8.378h35.186
					c4.617,0,8.377,3.759,8.377,8.378V269.376z"/>
			</g>
			<g>
				<rect x="539.107" y="259.533" fill="#CDCED0" width="8.379" height="2.094"/>
				<rect x="539.107" y="254.564" fill="#CDCED0" width="8.379" height="2.094"/>
				<rect x="539.107" y="249.595" fill="#CDCED0" width="8.379" height="2.095"/>
				<rect x="539.107" y="244.624" fill="#CDCED0" width="8.379" height="2.095"/>
				<rect x="539.107" y="239.656" fill="#CDCED0" width="8.379" height="2.093"/>
				<rect x="539.107" y="235.104" fill="#CDCED0" width="8.379" height="2.095"/>
				<path fill="#CDCED0" d="M547.355,232.146l-8.321,1.016c-0.083-0.715-0.263-1.398-0.519-2.045l8.459-1.033
					C547.145,230.757,547.271,231.447,547.355,232.146z"/>
				<path fill="#CDCED0" d="M533.691,217.704l-1.516,8.243c-0.471-0.082-0.951-0.133-1.445-0.133h-0.66l1.537-8.356
					C532.314,217.496,533.01,217.582,533.691,217.704z"/>
				<rect x="524.598" y="217.436" fill="#CDCED0" width="2.092" height="8.378"/>
				<rect x="519.625" y="217.436" fill="#CDCED0" width="2.096" height="8.378"/>
				<rect x="514.656" y="217.436" fill="#CDCED0" width="2.096" height="8.378"/>
				<rect x="509.688" y="217.436" fill="#CDCED0" width="2.096" height="8.378"/>
				<rect x="504.719" y="217.436" fill="#CDCED0" width="2.096" height="8.378"/>
				<rect x="499.75" y="217.436" fill="#CDCED0" width="2.092" height="8.378"/>
				<path fill="#CDCED0" d="M539.488,219.916l-4.02,7.375c-0.574-0.394-1.201-0.713-1.865-0.957l4.037-7.401
					C538.279,219.223,538.898,219.551,539.488,219.916z"/>
				<path fill="#CDCED0" d="M544.355,224.459c0.406,0.566,0.781,1.158,1.115,1.773l-7.264,4.197c-0.318-0.63-0.715-1.213-1.176-1.74
					L544.355,224.459z"/>
			</g>
		</g>
		<g>
			<g>
				<rect x="537.461" y="258.381" fill="#E3E4E6" width="12.299" height="21.575"/>
			</g>
		</g>
	</g>
	<g>
		<g>
			<g>
				<g>
					<g>
						<path fill="#9DA4AC" d="M596.629,341.648h7.25v-7.58c0-7.997-6.504-14.5-14.5-14.5h-30.445v7.248h30.445
							c3.998,0,7.25,3.252,7.25,7.252V341.648z"/>
					</g>
					<g>
						<rect x="596.629" y="338.794" fill="#ABAFB6" width="7.25" height="1.812"/>
						<rect x="596.629" y="334.856" fill="#ABAFB6" width="7.25" height="1.813"/>
						<path fill="#ABAFB6" d="M603.77,332.298l-7.199,0.876c-0.078-0.617-0.232-1.209-0.453-1.769l7.32-0.895
							C603.586,331.095,603.695,331.69,603.77,332.298z"/>
						<path fill="#ABAFB6" d="M591.941,319.798l-1.312,7.134c-0.406-0.072-0.822-0.117-1.25-0.117h-0.57l1.33-7.23
							C590.75,319.618,591.352,319.692,591.941,319.798z"/>
						<rect x="584.07" y="319.568" fill="#ABAFB6" width="1.814" height="7.248"/>
						<rect x="579.771" y="319.568" fill="#ABAFB6" width="1.811" height="7.248"/>
						<rect x="575.471" y="319.568" fill="#ABAFB6" width="1.812" height="7.248"/>
						<rect x="571.168" y="319.568" fill="#ABAFB6" width="1.814" height="7.248"/>
						<rect x="566.868" y="319.568" fill="#ABAFB6" width="1.813" height="7.248"/>
						<rect x="562.568" y="319.568" fill="#ABAFB6" width="1.812" height="7.248"/>
						<path fill="#ABAFB6" d="M596.963,321.712l-3.484,6.383c-0.496-0.342-1.037-0.619-1.613-0.83l3.494-6.403
							C595.912,321.112,596.447,321.396,596.963,321.712z"/>
						<path fill="#ABAFB6" d="M601.172,325.644c0.352,0.49,0.676,1.002,0.965,1.535l-6.289,3.633
							c-0.275-0.544-0.615-1.053-1.014-1.506L601.172,325.644z"/>
					</g>
				</g>
			</g>
			<g>
				<rect x="593.686" y="337.823" fill="#9DA4AC" width="12.718" height="1.971"/>
				<polygon fill="#9DA4AC" points="590.863,352.932 609.586,352.932 607.584,341.648 592.865,341.648 				"/>
			</g>
		</g>
		<rect x="520.725" y="274.304" fill="#9E9E9E" width="60.643" height="78.628"/>
		<g>
			<g>
				<path fill="#9DA4AC" d="M569.402,323.704c-0.133-0.171-0.273-0.335-0.422-0.494h-35.637c-0.223,0.239-0.428,0.491-0.617,0.757
					h36.676V323.704z"/>
				<path fill="#9DA4AC" d="M569.668,330.632v-0.758h-37.594c-0.084,0.18-0.162,0.363-0.234,0.55v0.208H569.668z"/>
				<path fill="#9DA4AC" d="M570.1,327.498v-0.758h-37.596c-0.084,0.18-0.162,0.364-0.232,0.551v0.208H570.1z"/>
				<rect x="531.354" y="332.977" fill="#9DA4AC" width="39.117" height="0.758"/>
				<rect x="531.354" y="336.597" fill="#9DA4AC" width="39.385" height="0.755"/>
				<rect x="531.906" y="340.214" fill="#9DA4AC" width="38.576" height="0.759"/>
			</g>
			<g>
				<path fill="#9DA4AC" d="M532.492,343.024h-1.473v-15.516c0-4.084,3.322-7.408,7.404-7.408h25.244
					c4.082,0,7.406,3.324,7.406,7.408v15.497h-1.477v-15.497c0-3.271-2.66-5.931-5.93-5.931h-25.244c-3.27,0-5.932,2.66-5.932,5.931
					V343.024z"/>
			</g>
		</g>
	</g>
	<g>
		<rect x="487.955" y="176.374" fill="#A0A2A4" width="35.562" height="33.97"/>
	</g>
	<g>
		<g>
			<g>
				<g>
					<path fill="#9DA4AC" d="M346.66,341.236h-18.682v-19.525c0-20.602,16.76-37.36,37.357-37.36h78.441v18.682h-78.441
						c-10.297,0-18.676,8.375-18.676,18.678V341.236z"/>
				</g>
				<g>
					<rect x="327.978" y="333.889" fill="#ABAFB6" width="18.682" height="4.67"/>
					<rect x="327.978" y="323.742" fill="#ABAFB6" width="18.682" height="4.67"/>
					<path fill="#ABAFB6" d="M328.267,317.15l18.547,2.264c0.195-1.591,0.596-3.121,1.164-4.562l-18.859-2.301
						C328.74,314.051,328.458,315.586,328.267,317.15z"/>
					<path fill="#ABAFB6" d="M358.732,284.949l3.381,18.381c1.049-0.184,2.119-0.297,3.223-0.297h1.469l-3.424-18.628
						C361.8,284.485,360.253,284.679,358.732,284.949z"/>
					<rect x="374.341" y="284.351" fill="#ABAFB6" width="4.666" height="18.682"/>
					<rect x="385.423" y="284.351" fill="#ABAFB6" width="4.666" height="18.682"/>
					<rect x="396.5" y="284.351" fill="#ABAFB6" width="4.668" height="18.682"/>
					<rect x="407.578" y="284.351" fill="#ABAFB6" width="4.672" height="18.682"/>
					<rect x="418.658" y="284.351" fill="#ABAFB6" width="4.671" height="18.682"/>
					<rect x="429.739" y="284.351" fill="#ABAFB6" width="4.668" height="18.682"/>
					<path fill="#ABAFB6" d="M345.802,289.882l8.969,16.44c1.279-0.881,2.678-1.59,4.158-2.133l-9-16.5
						C348.505,288.338,347.125,289.066,345.802,289.882z"/>
					<path fill="#ABAFB6" d="M334.96,300.008c-0.908,1.266-1.744,2.582-2.49,3.955l16.197,9.36c0.713-1.405,1.592-2.708,2.617-3.879
						L334.96,300.008z"/>
				</g>
			</g>
		</g>
		<g>
			<rect x="322.056" y="331.385" fill="#9DA4AC" width="30.186" height="5.079"/>
			<rect x="313.279" y="333.707" fill="#9DA4AC" width="48.232" height="9.703"/>
		</g>
	</g>
	<g>
		<g>
			<g>
				<path fill="#CDCED0" d="M369.008,207.746h-15.029v15.712c0,16.575,13.484,30.058,30.057,30.058h48.044v-15.029h-48.044
					c-8.285,0-15.027-6.741-15.027-15.028V207.746z"/>
			</g>
			<g>
				<path fill="#B3B8BF" d="M354.211,227.127l14.922-1.821c0.158,1.28,0.479,2.509,0.938,3.67l-15.176,1.851
					C354.59,229.62,354.364,228.383,354.211,227.127z"/>
				<path fill="#B3B8BF" d="M378.723,253.037l2.721-14.789c0.844,0.148,1.705,0.238,2.592,0.238h1.182l-2.756,14.987
					C381.192,253.409,379.948,253.255,378.723,253.037z"/>
				<path fill="#B3B8BF" d="M367.456,248.547l7.162-13.428c1.029,0.71,2.072,1.567,3.264,2.004l-7.105,13.188
					C369.629,249.79,368.52,249.204,367.456,248.547z"/>
				<path fill="#B3B8BF" d="M359.594,240.919c-0.727-1.017-1.404-2.076-2.002-3.182l13.033-7.532
					c0.572,1.131,1.279,2.179,2.105,3.121L359.594,240.919z"/>
			</g>
		</g>
		<rect x="389.987" y="238.486" fill="#B3B8BF" width="3.043" height="15.029"/>
		<rect x="398.737" y="238.486" fill="#B3B8BF" width="3.043" height="15.029"/>
		<rect x="407.487" y="238.486" fill="#B3B8BF" width="3.043" height="15.029"/>
		<rect x="416.237" y="238.486" fill="#B3B8BF" width="3.043" height="15.029"/>
		<rect x="424.987" y="238.486" fill="#B3B8BF" width="3.043" height="15.029"/>
	</g>
	<g>
		<rect x="620.338" y="310.447" fill="#CDCED0" width="40.988" height="42.485"/>
		<g>
			<circle fill="#DCDDDE" cx="652.798" cy="327.978" r="6.856"/>
			<g>
				<path fill="#E3E4E6" d="M658.115,327.978c0,2.938-2.381,5.318-5.314,5.318c-2.939,0-5.318-2.38-5.318-5.318
					c0-2.936,2.379-5.312,5.318-5.312C655.734,322.666,658.115,325.042,658.115,327.978z"/>
			</g>
		</g>
		<g>
			<g>
				<g>
					<g>
						<path fill="#B3B8BF" d="M623.434,317.37c-0.024,0.866,0.658,1.584,1.521,1.612c0.867,0.021,1.586-0.661,1.611-1.526
							c0.023-0.865-0.658-1.586-1.523-1.609C624.18,315.823,623.459,316.505,623.434,317.37z"/>
						<polygon fill="#9DA3AA" points="624.018,317.199 624.818,317.222 624.84,316.421 625.215,316.431 625.193,317.232 
							625.994,317.253 625.982,317.628 625.182,317.606 625.158,318.407 624.785,318.398 624.809,317.597 624.006,317.573 						"/>
					</g>
					<g>
						<circle fill="#B3B8BF" cx="625" cy="339.943" r="1.567"/>
						<polygon fill="#9DA3AA" points="624.016,339.728 624.818,339.751 624.84,338.949 625.215,338.96 625.193,339.758 
							625.992,339.782 625.98,340.155 625.182,340.135 625.158,340.937 624.785,340.926 624.807,340.124 624.006,340.103 						"/>
					</g>
				</g>
				<g>
					<g>
						<path fill="#B3B8BF" d="M641.512,317.37c-0.023,0.866,0.658,1.584,1.521,1.612c0.867,0.021,1.585-0.661,1.609-1.526
							c0.025-0.865-0.658-1.586-1.524-1.609C642.256,315.823,641.535,316.505,641.512,317.37z"/>
						<polygon fill="#9DA3AA" points="642.094,317.199 642.896,317.222 642.918,316.421 643.293,316.431 643.27,317.232 
							644.07,317.253 644.059,317.628 643.26,317.606 643.238,318.407 642.863,318.398 642.887,317.597 642.084,317.573 						"/>
					</g>
					<g>
						<circle fill="#B3B8BF" cx="643.077" cy="339.943" r="1.566"/>
						<polygon fill="#9DA3AA" points="642.094,339.728 642.896,339.751 642.918,338.949 643.291,338.96 643.27,339.758 
							644.07,339.782 644.059,340.155 643.26,340.135 643.238,340.937 642.863,340.926 642.887,340.124 642.084,340.103 						"/>
					</g>
				</g>
			</g>
			<rect x="625.459" y="320.974" fill="#A0A2A4" width="17.16" height="15.484"/>
		</g>
	</g>
	<g>
		<g>
			<path fill="#B3B8BF" d="M376.073,202.791c0-8.08-6.551-14.633-14.631-14.633c-8.082,0-14.633,6.553-14.633,14.633
				c0,5.364,2.889,10.054,7.193,12.601h14.875C373.184,212.845,376.073,208.155,376.073,202.791z"/>
		</g>
		<rect x="346.807" y="186.431" fill="#9DA4AC" width="29.266" height="17.776"/>
	</g>
	<g>
		<polygon fill="#CDCED0" points="436.439,197.835 441.508,197.835 447.113,197.835 445.543,196.726 437.973,196.726 		"/>
		<rect x="437.937" y="196.755" fill="#CDCED0" width="7.681" height="9.192"/>
		<rect x="437.604" y="198.498" fill="#CDCED0" width="8.344" height="0.708"/>
		<rect x="437.539" y="199.727" fill="#CDCED0" width="8.344" height="1.722"/>
	</g>
	<rect x="434.867" y="202.633" fill="#B3B8BF" width="14.4" height="6.626"/>
	<g>
		<rect x="378.918" y="274.304" fill="#CDCED0" width="40.168" height="78.628"/>
		<g>
			<circle fill="#9DA4AC" cx="404.233" cy="331.988" r="3.326"/>
			<g>
				<polygon fill="#9DA4AC" points="406.368,333.087 402.928,330.392 412.895,319.258 414.639,320.626 				"/>
				<circle fill="#9DA4AC" cx="414.633" cy="318.995" r="2.183"/>
			</g>
		</g>
		<g>
			<rect x="389.329" y="312.4" fill="#F0F0F0" width="5.023" height="8.656"/>
			<g>
				<g>
					<rect x="405.252" y="313.046" fill="#9DA4AC" width="3.422" height="3.221"/>
					<rect x="400.118" y="313.046" fill="#9DA4AC" width="3.424" height="3.221"/>
					<rect x="395.489" y="313.046" fill="#9DA4AC" width="3.422" height="3.221"/>
				</g>
				<g>
					<rect x="405.252" y="317.876" fill="#9DA4AC" width="3.422" height="3.223"/>
					<rect x="400.118" y="317.876" fill="#9DA4AC" width="3.424" height="3.223"/>
					<rect x="395.489" y="317.876" fill="#9DA4AC" width="3.422" height="3.223"/>
				</g>
				<g>
					<g>
						<rect x="405.252" y="308.214" fill="#9DA4AC" width="3.422" height="3.221"/>
						<rect x="400.118" y="308.214" fill="#9DA4AC" width="3.424" height="3.221"/>
						<rect x="395.489" y="308.214" fill="#9DA4AC" width="3.422" height="3.221"/>
					</g>
					<rect x="389.329" y="308.214" fill="#E3E4E6" width="5.062" height="3.212"/>
				</g>
			</g>
		</g>
		<g>
			<circle fill="#DCDDDE" cx="393.344" cy="330.984" r="4.334"/>
			<g>
				<path fill="#E3E4E6" d="M396.706,330.984c0,1.855-1.506,3.357-3.359,3.357c-1.859,0-3.359-1.502-3.359-3.357
					c0-1.856,1.5-3.362,3.359-3.362C395.2,327.622,396.706,329.128,396.706,330.984z"/>
			</g>
		</g>
		<path fill="#E7E9EC" d="M410.733,299.681c0,2.4-1.945,4.345-4.346,4.345h-14.771c-2.4,0-4.346-1.945-4.346-4.345v-14.772
			c0-2.398,1.945-4.343,4.346-4.343h14.771c2.4,0,4.346,1.945,4.346,4.343V299.681z"/>
		<g>
			<g>
				<g>
					<circle fill="#B3B8BF" cx="384.174" cy="281.123" r="1.542"/>
					<polygon fill="#9DA3AA" points="383.208,280.911 383.995,280.934 384.016,280.146 384.383,280.155 384.364,280.944 
						385.151,280.965 385.141,281.332 384.352,281.312 384.331,282.1 383.963,282.091 383.985,281.301 383.198,281.281 					"/>
				</g>
				<g>
					<path fill="#B3B8BF" d="M382.633,303.255c-0.023,0.848,0.646,1.559,1.496,1.58c0.854,0.025,1.562-0.646,1.586-1.496
						s-0.648-1.561-1.498-1.582C383.364,301.732,382.655,302.401,382.633,303.255z"/>
					<polygon fill="#9DA3AA" points="383.206,303.085 383.995,303.106 384.016,302.317 384.383,302.329 384.364,303.117 
						385.151,303.138 385.141,303.507 384.352,303.485 384.331,304.272 383.963,304.263 383.985,303.476 383.196,303.454 					"/>
				</g>
			</g>
			<g>
				<g>
					<circle fill="#B3B8BF" cx="413.829" cy="281.123" r="1.542"/>
					<polygon fill="#9DA3AA" points="412.864,280.911 413.651,280.934 413.672,280.146 414.042,280.155 414.02,280.944 
						414.807,280.965 414.797,281.332 414.01,281.312 413.987,282.1 413.618,282.091 413.641,281.301 412.852,281.281 					"/>
				</g>
				<g>
					<path fill="#B3B8BF" d="M412.288,303.255c-0.024,0.848,0.648,1.559,1.5,1.58c0.851,0.025,1.562-0.646,1.582-1.496
						c0.023-0.85-0.647-1.561-1.498-1.582C413.02,301.732,412.313,302.401,412.288,303.255z"/>
					<polygon fill="#9DA3AA" points="412.86,303.085 413.651,303.106 413.672,302.317 414.042,302.329 414.02,303.117 
						414.807,303.138 414.797,303.507 414.01,303.485 413.987,304.272 413.618,304.263 413.641,303.476 412.852,303.454 					"/>
				</g>
			</g>
		</g>
	</g>
	<g>
		<rect x="428.52" y="208.644" fill="#CDCED0" width="94.998" height="144.288"/>
		<g>
			<g>
				<path fill="#E7E9EC" d="M519.189,287.685h-0.5c-0.424,0-0.768-0.343-0.768-0.767c0-0.343,0.225-0.633,0.535-0.733
					c0.098-0.31,0.389-0.534,0.732-0.534c0.424,0,0.768,0.346,0.768,0.769v0.499C519.957,287.341,519.613,287.685,519.189,287.685z"
					/>
			</g>
			<g>
				<path fill="#E7E9EC" d="M513.549,287.685h-1.027c-0.424,0-0.77-0.343-0.77-0.767c0-0.425,0.346-0.769,0.77-0.769h1.027
					c0.424,0,0.77,0.344,0.77,0.769C514.318,287.341,513.973,287.685,513.549,287.685z M507.379,287.685h-1.027
					c-0.426,0-0.768-0.343-0.768-0.767c0-0.425,0.342-0.769,0.768-0.769h1.027c0.426,0,0.768,0.344,0.768,0.769
					C508.146,287.341,507.805,287.685,507.379,287.685z M501.209,287.685h-1.027c-0.424,0-0.768-0.343-0.768-0.767
					c0-0.425,0.344-0.769,0.768-0.769h1.027c0.426,0,0.77,0.344,0.77,0.769C501.979,287.341,501.635,287.685,501.209,287.685z
					 M495.041,287.685h-1.029c-0.424,0-0.768-0.343-0.768-0.767c0-0.425,0.344-0.769,0.768-0.769h1.029
					c0.426,0,0.768,0.344,0.768,0.769C495.809,287.341,495.467,287.685,495.041,287.685z M488.871,287.685h-1.027
					c-0.424,0-0.77-0.343-0.77-0.767c0-0.425,0.346-0.769,0.77-0.769h1.027c0.424,0,0.768,0.344,0.768,0.769
					C489.639,287.341,489.295,287.685,488.871,287.685z M482.703,287.685h-1.029c-0.426,0-0.768-0.343-0.768-0.767
					c0-0.425,0.342-0.769,0.768-0.769h1.029c0.422,0,0.768,0.344,0.768,0.769C483.471,287.341,483.125,287.685,482.703,287.685z
					 M476.533,287.685h-1.029c-0.424,0-0.768-0.343-0.768-0.767c0-0.425,0.344-0.769,0.768-0.769h1.029
					c0.424,0,0.768,0.344,0.768,0.769C477.301,287.341,476.957,287.685,476.533,287.685z M470.363,287.685h-1.027
					c-0.426,0-0.77-0.343-0.77-0.767c0-0.425,0.343-0.769,0.77-0.769h1.027c0.424,0,0.768,0.344,0.768,0.769
					C471.131,287.341,470.787,287.685,470.363,287.685z M464.195,287.685h-1.029c-0.424,0-0.768-0.343-0.768-0.767
					c0-0.425,0.344-0.769,0.768-0.769h1.029c0.424,0,0.768,0.344,0.768,0.769C464.962,287.341,464.619,287.685,464.195,287.685z
					 M458.023,287.685h-1.027c-0.426,0-0.768-0.343-0.768-0.767c0-0.425,0.342-0.769,0.768-0.769h1.027
					c0.425,0,0.767,0.344,0.767,0.769C458.791,287.341,458.449,287.685,458.023,287.685z M451.857,287.685h-1.03
					c-0.427,0-0.769-0.343-0.769-0.767c0-0.425,0.342-0.769,0.769-0.769h1.03c0.422,0,0.766,0.344,0.766,0.769
					C452.623,287.341,452.279,287.685,451.857,287.685z M445.686,287.685h-1.029c-0.422,0-0.768-0.343-0.768-0.767
					c0-0.425,0.346-0.769,0.768-0.769h1.029c0.424,0,0.767,0.344,0.767,0.769C446.453,287.341,446.109,287.685,445.686,287.685z
					 M439.516,287.685h-1.025c-0.426,0-0.77-0.343-0.77-0.767c0-0.425,0.344-0.769,0.77-0.769h1.025
					c0.426,0,0.769,0.344,0.769,0.769C440.285,287.341,439.941,287.685,439.516,287.685z"/>
			</g>
			<g>
				<path fill="#E7E9EC" d="M433.348,287.685h-0.498c-0.426,0-0.77-0.343-0.77-0.767v-0.499c0-0.423,0.344-0.769,0.77-0.769
					c0.342,0,0.631,0.225,0.73,0.534c0.311,0.1,0.535,0.39,0.535,0.733C434.115,287.341,433.77,287.685,433.348,287.685z"/>
			</g>
			<g>
				<path fill="#E7E9EC" d="M432.85,282.218c-0.426,0-0.77-0.343-0.77-0.767v-0.994c0-0.424,0.344-0.768,0.77-0.768
					c0.424,0,0.768,0.343,0.768,0.768v0.994C433.617,281.875,433.273,282.218,432.85,282.218z M432.85,276.257
					c-0.426,0-0.77-0.343-0.77-0.767v-0.995c0-0.423,0.344-0.768,0.77-0.768c0.424,0,0.768,0.344,0.768,0.768v0.995
					C433.617,275.914,433.273,276.257,432.85,276.257z M432.85,270.296c-0.426,0-0.77-0.344-0.77-0.769v-0.993
					c0-0.424,0.344-0.768,0.77-0.768c0.424,0,0.768,0.344,0.768,0.768v0.993C433.617,269.953,433.273,270.296,432.85,270.296z
					 M432.85,264.335c-0.426,0-0.77-0.344-0.77-0.767v-0.994c0-0.424,0.344-0.767,0.77-0.767c0.424,0,0.768,0.343,0.768,0.767v0.994
					C433.617,263.991,433.273,264.335,432.85,264.335z M432.85,258.375c-0.426,0-0.77-0.344-0.77-0.767v-0.995
					c0-0.425,0.344-0.769,0.77-0.769c0.424,0,0.768,0.344,0.768,0.769v0.995C433.617,258.031,433.273,258.375,432.85,258.375z
					 M432.85,252.414c-0.426,0-0.77-0.344-0.77-0.769v-0.993c0-0.423,0.344-0.77,0.77-0.77c0.424,0,0.768,0.346,0.768,0.77v0.993
					C433.617,252.069,433.273,252.414,432.85,252.414z M432.85,246.451c-0.426,0-0.77-0.343-0.77-0.768v-0.993
					c0-0.423,0.344-0.768,0.77-0.768c0.424,0,0.768,0.345,0.768,0.768v0.993C433.617,246.108,433.273,246.451,432.85,246.451z
					 M432.85,240.491c-0.426,0-0.77-0.344-0.77-0.768v-0.993c0-0.425,0.344-0.769,0.77-0.769c0.424,0,0.768,0.344,0.768,0.769v0.993
					C433.617,240.146,433.273,240.491,432.85,240.491z M432.85,234.531c-0.426,0-0.77-0.345-0.77-0.768v-0.995
					c0-0.424,0.344-0.769,0.77-0.769c0.424,0,0.768,0.345,0.768,0.769v0.995C433.617,234.186,433.273,234.531,432.85,234.531z
					 M432.85,228.568c-0.426,0-0.77-0.343-0.77-0.768v-0.994c0-0.424,0.344-0.767,0.77-0.767c0.424,0,0.768,0.343,0.768,0.767v0.994
					C433.617,228.226,433.273,228.568,432.85,228.568z M432.85,222.608c-0.426,0-0.77-0.345-0.77-0.767v-0.995
					c0-0.423,0.344-0.768,0.77-0.768c0.424,0,0.768,0.344,0.768,0.768v0.995C433.617,222.263,433.273,222.608,432.85,222.608z"/>
			</g>
			<g>
				<path fill="#E7E9EC" d="M432.85,216.648c-0.426,0-0.77-0.347-0.77-0.769v-0.5c0-0.423,0.344-0.768,0.77-0.768h0.498
					c0.422,0,0.768,0.344,0.768,0.768c0,0.344-0.225,0.635-0.535,0.734C433.48,216.422,433.191,216.648,432.85,216.648z"/>
			</g>
			<g>
				<path fill="#E7E9EC" d="M513.549,216.148h-1.027c-0.424,0-0.77-0.343-0.77-0.77c0-0.423,0.346-0.768,0.77-0.768h1.027
					c0.424,0,0.77,0.344,0.77,0.768C514.318,215.805,513.973,216.148,513.549,216.148z M507.379,216.148h-1.027
					c-0.426,0-0.768-0.343-0.768-0.77c0-0.423,0.342-0.768,0.768-0.768h1.027c0.424,0,0.768,0.344,0.768,0.768
					C508.146,215.805,507.803,216.148,507.379,216.148z M501.209,216.148h-1.027c-0.424,0-0.768-0.343-0.768-0.77
					c0-0.423,0.344-0.768,0.768-0.768h1.027c0.426,0,0.77,0.344,0.77,0.768C501.979,215.805,501.635,216.148,501.209,216.148z
					 M495.041,216.148h-1.029c-0.424,0-0.768-0.343-0.768-0.77c0-0.423,0.344-0.768,0.768-0.768h1.029
					c0.424,0,0.768,0.344,0.768,0.768C495.809,215.805,495.465,216.148,495.041,216.148z M488.871,216.148h-1.027
					c-0.424,0-0.77-0.343-0.77-0.77c0-0.423,0.346-0.768,0.77-0.768h1.027c0.424,0,0.768,0.344,0.768,0.768
					C489.639,215.805,489.295,216.148,488.871,216.148z M482.703,216.148h-1.029c-0.426,0-0.768-0.343-0.768-0.77
					c0-0.423,0.342-0.768,0.768-0.768h1.029c0.422,0,0.768,0.344,0.768,0.768C483.471,215.805,483.125,216.148,482.703,216.148z
					 M476.533,216.148h-1.029c-0.424,0-0.768-0.343-0.768-0.77c0-0.423,0.344-0.768,0.768-0.768h1.029
					c0.424,0,0.768,0.344,0.768,0.768C477.301,215.805,476.957,216.148,476.533,216.148z M470.363,216.148h-1.027
					c-0.426,0-0.77-0.343-0.77-0.77c0-0.423,0.343-0.768,0.77-0.768h1.027c0.424,0,0.768,0.344,0.768,0.768
					C471.131,215.805,470.787,216.148,470.363,216.148z M464.195,216.148h-1.029c-0.424,0-0.768-0.343-0.768-0.77
					c0-0.423,0.344-0.768,0.768-0.768h1.029c0.424,0,0.766,0.344,0.766,0.768C464.96,215.805,464.619,216.148,464.195,216.148z
					 M458.023,216.148h-1.027c-0.426,0-0.768-0.343-0.768-0.77c0-0.423,0.342-0.768,0.768-0.768h1.027
					c0.425,0,0.767,0.344,0.767,0.768C458.791,215.805,458.449,216.148,458.023,216.148z M451.857,216.148h-1.03
					c-0.427,0-0.769-0.343-0.769-0.77c0-0.423,0.342-0.768,0.769-0.768h1.03c0.422,0,0.766,0.344,0.766,0.768
					C452.623,215.805,452.279,216.148,451.857,216.148z M445.686,216.148h-1.029c-0.422,0-0.768-0.343-0.768-0.77
					c0-0.423,0.346-0.768,0.768-0.768h1.029c0.424,0,0.767,0.344,0.767,0.768C446.453,215.805,446.109,216.148,445.686,216.148z
					 M439.516,216.148h-1.025c-0.426,0-0.77-0.343-0.77-0.77c0-0.423,0.344-0.768,0.77-0.768h1.025c0.426,0,0.769,0.344,0.769,0.768
					C440.285,215.805,439.941,216.148,439.516,216.148z"/>
			</g>
			<g>
				<path fill="#E7E9EC" d="M519.189,216.648c-0.344,0-0.635-0.226-0.732-0.535c-0.311-0.1-0.535-0.39-0.535-0.734
					c0-0.423,0.344-0.768,0.768-0.768h0.5c0.424,0,0.768,0.344,0.768,0.768v0.5C519.957,216.301,519.613,216.648,519.189,216.648z"
					/>
			</g>
			<g>
				<path fill="#E7E9EC" d="M519.189,282.218c-0.426,0-0.77-0.343-0.77-0.767v-0.994c0-0.424,0.344-0.768,0.77-0.768
					c0.424,0,0.768,0.343,0.768,0.768v0.994C519.957,281.875,519.613,282.218,519.189,282.218z M519.189,276.257
					c-0.426,0-0.77-0.343-0.77-0.767v-0.995c0-0.423,0.344-0.768,0.77-0.768c0.424,0,0.768,0.344,0.768,0.768v0.995
					C519.957,275.914,519.613,276.257,519.189,276.257z M519.189,270.296c-0.426,0-0.77-0.344-0.77-0.769v-0.993
					c0-0.424,0.344-0.768,0.77-0.768c0.424,0,0.768,0.344,0.768,0.768v0.993C519.957,269.953,519.613,270.296,519.189,270.296z
					 M519.189,264.335c-0.426,0-0.77-0.344-0.77-0.767v-0.994c0-0.424,0.344-0.767,0.77-0.767c0.424,0,0.768,0.343,0.768,0.767
					v0.994C519.957,263.991,519.613,264.335,519.189,264.335z M519.189,258.375c-0.426,0-0.77-0.344-0.77-0.767v-0.995
					c0-0.425,0.344-0.769,0.77-0.769c0.424,0,0.768,0.344,0.768,0.769v0.995C519.957,258.031,519.613,258.375,519.189,258.375z
					 M519.189,252.414c-0.426,0-0.77-0.344-0.77-0.769v-0.993c0-0.423,0.344-0.77,0.77-0.77c0.424,0,0.768,0.346,0.768,0.77v0.993
					C519.957,252.069,519.613,252.414,519.189,252.414z M519.189,246.451c-0.426,0-0.77-0.343-0.77-0.768v-0.993
					c0-0.423,0.344-0.768,0.77-0.768c0.424,0,0.768,0.345,0.768,0.768v0.993C519.957,246.108,519.613,246.451,519.189,246.451z
					 M519.189,240.491c-0.426,0-0.77-0.344-0.77-0.768v-0.993c0-0.425,0.344-0.769,0.77-0.769c0.424,0,0.768,0.344,0.768,0.769
					v0.993C519.957,240.146,519.613,240.491,519.189,240.491z M519.189,234.531c-0.426,0-0.77-0.345-0.77-0.768v-0.995
					c0-0.424,0.344-0.769,0.77-0.769c0.424,0,0.768,0.345,0.768,0.769v0.995C519.957,234.186,519.613,234.531,519.189,234.531z
					 M519.189,228.568c-0.426,0-0.77-0.343-0.77-0.768v-0.994c0-0.424,0.344-0.767,0.77-0.767c0.424,0,0.768,0.343,0.768,0.767
					v0.994C519.957,228.226,519.613,228.568,519.189,228.568z M519.189,222.608c-0.426,0-0.77-0.345-0.77-0.767v-0.995
					c0-0.423,0.344-0.768,0.77-0.768c0.424,0,0.768,0.344,0.768,0.768v0.995C519.957,222.263,519.613,222.608,519.189,222.608z"/>
			</g>
		</g>
		<g>
			<circle fill="#DCDDDE" cx="495.572" cy="312.194" r="10.137"/>
			<g>
				<g>
					<g>
						<rect x="493.205" y="292.436" fill="#B3B8BF" width="4.732" height="39.519"/>
					</g>
					<rect x="492.748" y="292.436" fill="#B3B8BF" width="5.646" height="8.583"/>
					<rect x="492.748" y="323.371" fill="#B3B8BF" width="5.646" height="8.582"/>
				</g>
				<g>
					<g>
						<rect x="475.945" y="309.827" fill="#B3B8BF" width="39.521" height="4.734"/>
					</g>
					<rect x="506.883" y="309.37" fill="#B3B8BF" width="8.584" height="5.65"/>
					<rect x="475.676" y="309.37" fill="#B3B8BF" width="8.582" height="5.65"/>
				</g>
				<g>
					<circle fill="#B3B8BF" cx="495.571" cy="312.194" r="4.894"/>
				</g>
			</g>
		</g>
		<g>
			<g>
				<g>
					<g>
						<circle fill="#9DA4AC" cx="455.674" cy="311.839" r="14.705"/>
						<path fill="#FFFFFF" d="M467.42,311.839c0,6.488-5.26,11.748-11.746,11.748c-6.486,0-11.744-5.26-11.744-11.748
							c0-6.484,5.258-11.744,11.744-11.744C462.16,300.095,467.42,305.354,467.42,311.839z"/>
						<g>
							<path fill="#B3B8BF" d="M455.75,302.885c-3.529,0-6.613,1.897-8.291,4.725l1.871,0.954c1.328-2.15,3.707-3.588,6.42-3.588
								c0.674,0,1.328,0.092,1.947,0.256l0.471-2.038C457.398,302.993,456.586,302.885,455.75,302.885z"/>
							<path fill="#E0E0E0" d="M446.115,312.522c0,2.705,1.117,5.152,2.912,6.902l1.216-1.75c-1.265-1.351-2.037-3.161-2.037-5.152
								c0-1.271,0.316-2.469,0.871-3.518l-1.865-0.951C446.512,309.39,446.115,310.911,446.115,312.522z"/>
							<path fill="#B7CBD6" d="M458.658,303.332l-0.475,2.049c1.043,0.355,1.984,0.934,2.768,1.677l1.48-1.479
								C461.375,304.562,460.087,303.786,458.658,303.332z"/>
							<path fill="#E3E4E6" d="M462.787,305.94l-1.479,1.48c1.236,1.344,1.988,3.133,1.988,5.102c0,1.325-0.342,2.57-0.943,3.654
								l1.99,0.706c0.666-1.309,1.045-2.792,1.045-4.36C465.388,309.98,464.4,307.661,462.787,305.94z"/>
						</g>
						<circle fill="#B7CBD6" cx="455.674" cy="311.839" r="1.444"/>
						<polygon fill="#B7CBD6" points="448.764,318.233 454.643,311.839 459.179,307.301 460.316,308.54 455.365,312.562 						"/>
					</g>
				</g>
			</g>
		</g>
		<g>
			<g>
				<g>
					<rect x="439.086" y="225.947" fill="#9E9E9E" width="74.252" height="39.535"/>
				</g>
				<g>
					<g>
						<rect x="439.252" y="231.205" fill="#9DA4AC" width="73.92" height="1.173"/>
					</g>
					<g>
						<rect x="439.252" y="239.646" fill="#9DA4AC" width="73.92" height="1.154"/>
					</g>
					<g>
						<rect x="439.252" y="245.36" fill="#9DA4AC" width="73.92" height="1.153"/>
					</g>
					<g>
						<rect x="439.252" y="251.075" fill="#9DA4AC" width="73.92" height="1.153"/>
					</g>
					<g>
						<rect x="439.252" y="256.79" fill="#9DA4AC" width="73.92" height="1.154"/>
					</g>
					<g>
						<rect x="439.252" y="262.502" fill="#9DA4AC" width="73.92" height="1.155"/>
					</g>
				</g>
			</g>
		</g>
		<g>
			<path fill="#E0E0E0" d="M461.671,275.507c0,2.065-1.674,3.74-3.738,3.74H444.34c-2.064,0-3.74-1.675-3.74-3.74l0,0
				c0-2.065,1.676-3.739,3.74-3.739h13.594C459.998,271.769,461.671,273.442,461.671,275.507L461.671,275.507z"/>
			<g>
				<circle fill="#9E9E9E" cx="504.573" cy="275.508" r="5.202"/>
				<circle fill="#9DA4AC" cx="504.572" cy="275.509" r="3.927"/>
				<g>
					<path fill="#9E9E9E" d="M507.211,278.146c-0.406,0.404-1.062,0.404-1.469,0l-3.807-3.81c-0.406-0.405-0.404-1.061,0-1.465
						c0.404-0.407,1.062-0.407,1.469,0l3.807,3.804C507.615,277.082,507.615,277.741,507.211,278.146z"/>
				</g>
			</g>
			<g>
				<path fill="#B3B8BF" d="M467.707,272.009c0.398-0.47,1.045-0.47,1.441,0l1.895,2.258c0.398,0.473,0.266,0.859-0.297,0.859
					h-4.635c-0.562,0-0.695-0.386-0.299-0.859L467.707,272.009z"/>
				<path fill="#B3B8BF" d="M469.148,279.006c-0.396,0.469-1.043,0.469-1.441,0l-1.895-2.258c-0.396-0.471-0.264-0.857,0.299-0.857
					h4.635c0.562,0,0.695,0.386,0.297,0.857L469.148,279.006z"/>
			</g>
			<g>
				<path fill="#E3E4E6" d="M475.523,272.009c0.398-0.47,1.047-0.47,1.443,0l1.895,2.258c0.395,0.473,0.264,0.859-0.297,0.859
					h-4.639c-0.561,0-0.693-0.386-0.297-0.859L475.523,272.009z"/>
				<path fill="#E3E4E6" d="M476.967,279.006c-0.396,0.469-1.045,0.469-1.443,0l-1.895-2.258c-0.396-0.471-0.264-0.857,0.297-0.857
					h4.639c0.561,0,0.691,0.386,0.297,0.857L476.967,279.006z"/>
			</g>
			<g>
				<circle fill="#9E9E9E" cx="491.494" cy="275.514" r="5.201"/>
				<path fill="#9DA4AC" d="M496.684,275.779c0.004-0.089,0.012-0.179,0.012-0.266c0-0.105-0.008-0.206-0.014-0.311h-4.361
					l3.098-3.097c-0.123-0.146-0.258-0.281-0.4-0.413l-3.238,3.24v-4.607c-0.096-0.006-0.188-0.014-0.287-0.014
					c-0.096,0-0.189,0.008-0.287,0.014v4.466l-3.16-3.164c-0.146,0.129-0.281,0.264-0.41,0.407l3.17,3.168h-4.496
					c-0.006,0.104-0.016,0.206-0.016,0.311c0,0.087,0.01,0.177,0.016,0.266h4.627l-3.26,3.257c0.131,0.141,0.268,0.274,0.412,0.402
					l3.117-3.118v4.38c0.098,0.003,0.191,0.012,0.287,0.012c0.1,0,0.191-0.009,0.287-0.012v-4.521l3.193,3.192
					c0.143-0.127,0.277-0.264,0.406-0.407l-3.188-3.186H496.684z"/>
				<g>
					<circle fill="#9DA4AC" cx="491.495" cy="275.514" r="3.54"/>
					<path fill="#9E9E9E" d="M491.492,279.438c-2.162,0-3.922-1.761-3.922-3.924c0-2.164,1.76-3.925,3.922-3.925
						c2.167,0,3.926,1.761,3.926,3.925C495.418,277.676,493.66,279.438,491.492,279.438z M491.492,272.354
						c-1.738,0-3.154,1.417-3.154,3.16c0,1.741,1.416,3.156,3.154,3.156c1.742,0,3.16-1.415,3.16-3.156
						C494.652,273.771,493.234,272.354,491.492,272.354z"/>
				</g>
			</g>
		</g>
		<g>
			<g>
				<g>
					<path fill="#B3B8BF" d="M438.332,220.88c-0.043,1.515,1.152,2.779,2.666,2.822c1.518,0.04,2.777-1.154,2.82-2.671
						c0.041-1.514-1.154-2.778-2.666-2.82C439.637,218.17,438.373,219.367,438.332,220.88z"/>
					<polygon fill="#9DA3AA" points="439.352,220.578 440.756,220.619 440.793,219.216 441.449,219.234 441.412,220.634 
						442.814,220.675 442.797,221.332 441.395,221.293 441.354,222.695 440.699,222.681 440.736,221.277 439.336,221.236 					"/>
				</g>
			</g>
			<g>
				<g>
					<path fill="#B3B8BF" d="M507.674,220.88c-0.039,1.515,1.154,2.779,2.668,2.822c1.516,0.04,2.779-1.154,2.82-2.671
						c0.041-1.514-1.154-2.778-2.67-2.82C508.98,218.17,507.717,219.367,507.674,220.88z"/>
					<polygon fill="#9DA3AA" points="508.697,220.578 510.1,220.619 510.137,219.216 510.793,219.234 510.756,220.634 
						512.158,220.675 512.141,221.332 510.738,221.293 510.701,222.695 510.041,222.681 510.082,221.277 508.678,221.236 					"/>
				</g>
			</g>
		</g>
	</g>
	<polygon fill="#9E9E9E" points="384.053,189.902 336.563,189.902 307.424,149.835 414.489,149.835 	"/>
	<rect x="296.997" y="143.706" fill="#9DA4AC" width="124.312" height="12.259"/>
	<g>
		<g>
			<g>
				<g>
					<circle fill="#9DA4AC" cx="550.484" cy="297.343" r="14.705"/>
					<path fill="#FFFFFF" d="M562.23,297.343c0,6.488-5.26,11.748-11.746,11.748s-11.744-5.259-11.744-11.748
						c0-6.485,5.258-11.746,11.744-11.746S562.23,290.858,562.23,297.343z"/>
					<g>
						<path fill="#B3B8BF" d="M550.561,288.39c-3.527,0-6.611,1.897-8.289,4.726l1.869,0.953c1.328-2.151,3.707-3.586,6.42-3.586
							c0.674,0,1.328,0.091,1.947,0.254l0.471-2.039C552.209,288.498,551.396,288.39,550.561,288.39z"/>
						<path fill="#E0E0E0" d="M540.926,298.028c0,2.706,1.117,5.153,2.914,6.901l1.215-1.748c-1.264-1.352-2.037-3.162-2.037-5.153
							c0-1.271,0.318-2.469,0.871-3.519l-1.863-0.95C541.322,294.895,540.926,296.416,540.926,298.028z"/>
						<path fill="#B7CBD6" d="M553.469,288.836l-0.475,2.047c1.043,0.357,1.987,0.935,2.768,1.679l1.48-1.479
							C556.186,290.068,554.898,289.29,553.469,288.836z"/>
						<path fill="#E3E4E6" d="M557.598,291.445l-1.479,1.48c1.237,1.344,1.989,3.132,1.989,5.103c0,1.325-0.342,2.571-0.943,3.655
							l1.99,0.705c0.666-1.311,1.045-2.791,1.045-4.36C560.199,295.484,559.211,293.166,557.598,291.445z"/>
					</g>
					<path fill="#B7CBD6" d="M551.93,297.343c0,0.8-0.646,1.445-1.443,1.445c-0.799,0-1.445-0.645-1.445-1.445
						c0-0.795,0.646-1.443,1.445-1.443C551.283,295.9,551.93,296.548,551.93,297.343z"/>
					<polygon fill="#B7CBD6" points="543.574,303.739 549.453,297.343 553.99,292.807 555.127,294.045 550.176,298.066 					"/>
				</g>
			</g>
		</g>
	</g>
	<polyline fill="none" stroke="#CCCCCC" stroke-width="2" stroke-miterlimit="10" points="387.27,292.436 391.86,292.436 
		394.764,283.258 397.096,299.866 400.907,286.148 402.928,295.161 405.252,291.562 410.733,291.562 	"/>
	<g>
		<path fill="#FFFFFF" d="M503.188,253.811c0,3.713-3.01,6.722-6.721,6.722h-40.443c-3.711,0-6.721-3.009-6.721-6.722V236.91
			c0-3.713,3.01-6.723,6.721-6.723h40.443c3.711,0,6.721,3.009,6.721,6.723V253.811z"/>
	</g>
	<g>
		<g>
			<circle fill="#E6E6E6" cx="505.708" cy="192.482" r="10.153"/>
		</g>
		
			<polyline fill-rule="evenodd" clip-rule="evenodd" fill="none" stroke="#CCCCCC" stroke-width="2" stroke-miterlimit="10" points="
			497.518,191.967 501.211,191.967 504.152,187.644 505.287,197.32 507.094,192.458 513.898,192.458 		"/>
	</g>
</g>
<rect x="302.837" y="342.278" fill="#9E9E9E" width="69.235" height="10.653"/>
</svg>
