<?xml version="1.0" encoding="utf-8"?>
<!-- Generator: Adobe Illustrator 16.0.4, SVG Export Plug-In . SVG Version: 6.00 Build 0)  -->
<!DOCTYPE svg PUBLIC "-//W3C//DTD SVG 1.1//EN" "http://www.w3.org/Graphics/SVG/1.1/DTD/svg11.dtd">
<svg version="1.1" id="Layer_1" xmlns="http://www.w3.org/2000/svg" xmlns:xlink="http://www.w3.org/1999/xlink" x="0px" y="0px"
	 width="301.389px" height="500px" viewBox="0 0 301.389 500" enable-background="new 0 0 301.389 500" xml:space="preserve">
<g>
	<g>
		<g>
			<path fill="#CDCED0" d="M181.414,214.441h-6.354v47.057c0,9.707-7.898,17.605-17.605,17.605h-39.391v6.354h39.391
				c13.211,0,23.959-10.748,23.959-23.959V214.441z"/>
		</g>
		<g>
			<rect x="149.475" y="277.281" fill="#ABAFB6" width="4.045" height="9.562"/>
		</g>
		<g>
			<rect x="123.293" y="277.281" fill="#ABAFB6" width="4.045" height="9.562"/>
		</g>
		<g>
			<rect x="173.762" y="256.224" fill="#ABAFB6" width="9.562" height="4.042"/>
		</g>
		<g>
			<rect x="173.762" y="229.783" fill="#ABAFB6" width="9.562" height="4.043"/>
		</g>
	</g>
	<g>
		<g>
			<g>
				<path fill="#B3B8BF" d="M158.656,214.441h8.379v32.738c0,9.239-7.518,16.756-16.756,16.756h-32.215v-8.378h32.215
					c4.617,0,8.377-3.759,8.377-8.378V214.441z"/>
			</g>
			<g>
				<rect x="158.656" y="219.744" fill="#CDCED0" width="8.379" height="2.094"/>
				<rect x="158.656" y="224.712" fill="#CDCED0" width="8.379" height="2.095"/>
				<rect x="158.656" y="229.681" fill="#CDCED0" width="8.379" height="2.095"/>
				<rect x="158.656" y="234.653" fill="#CDCED0" width="8.379" height="2.095"/>
				<rect x="158.656" y="239.621" fill="#CDCED0" width="8.379" height="2.094"/>
				<rect x="158.656" y="244.172" fill="#CDCED0" width="8.379" height="2.094"/>
				<path fill="#CDCED0" d="M166.904,249.224l-8.32-1.016c-0.084,0.715-0.264,1.398-0.52,2.045l8.459,1.034
					C166.693,250.613,166.82,249.924,166.904,249.224z"/>
				<path fill="#CDCED0" d="M153.24,263.667l-1.516-8.243c-0.471,0.082-0.951,0.133-1.445,0.133h-0.66l1.537,8.355
					C151.863,263.875,152.559,263.789,153.24,263.667z"/>
				<rect x="144.146" y="255.557" fill="#CDCED0" width="2.092" height="8.378"/>
				<rect x="139.174" y="255.557" fill="#CDCED0" width="2.096" height="8.378"/>
				<rect x="134.205" y="255.557" fill="#CDCED0" width="2.096" height="8.378"/>
				<rect x="129.236" y="255.557" fill="#CDCED0" width="2.096" height="8.378"/>
				<rect x="124.268" y="255.557" fill="#CDCED0" width="2.096" height="8.378"/>
				<rect x="119.299" y="255.557" fill="#CDCED0" width="2.092" height="8.378"/>
				<path fill="#CDCED0" d="M159.037,261.456l-4.02-7.375c-0.574,0.394-1.201,0.714-1.865,0.957l4.037,7.4
					C157.828,262.148,158.447,261.819,159.037,261.456z"/>
				<path fill="#CDCED0" d="M163.904,256.912c0.406-0.566,0.781-1.157,1.115-1.773l-7.264-4.197c-0.318,0.63-0.715,1.212-1.176,1.74
					L163.904,256.912z"/>
			</g>
		</g>
		<g>
			<g>
				<rect x="157.01" y="214.441" fill="#E3E4E6" width="12.299" height="8.548"/>
			</g>
		</g>
	</g>
</g>
</svg>
