<?xml version="1.0" encoding="utf-8"?>
<!-- Generator: Adobe Illustrator 16.0.4, SVG Export Plug-In . SVG Version: 6.00 Build 0)  -->
<!DOCTYPE svg PUBLIC "-//W3C//DTD SVG 1.1//EN" "http://www.w3.org/Graphics/SVG/1.1/DTD/svg11.dtd">
<svg version="1.1" id="Layer_1" xmlns="http://www.w3.org/2000/svg" xmlns:xlink="http://www.w3.org/1999/xlink" x="0px" y="0px"
	 width="301.389px" height="500px" viewBox="0 0 301.389 500" enable-background="new 0 0 301.389 500" xml:space="preserve">
<g>
	<g>
		<path fill="#9DA4AC" d="M108.891,354.462c0,0.713,0.578,1.292,1.291,1.292l0,0c0.713,0,1.291-0.579,1.291-1.292v-172.07
			c0-0.713-0.578-1.291-1.291-1.291l0,0c-0.713,0-1.291,0.578-1.291,1.291V354.462z"/>
		<path fill="#CDCED0" d="M111.473,353.586c0,0,15.922-56.99,15.922-85.663s-15.922-85.668-15.922-85.668"/>
	</g>
	<g>
		<g>
			<g>
				<path fill="#E3E4E6" d="M134.521,251.667v3.293H170.5c6.848,0,12.422-5.571,12.422-12.422v-46.702h-3.295v46.702
					c0,5.033-4.096,9.129-9.127,9.129H134.521z"/>
			</g>
			<g>
				<rect x="169.072" y="250.722" fill="#E3E4E6" width="2.096" height="4.957"/>
			</g>
			<g>
				<rect x="145.371" y="250.722" fill="#E3E4E6" width="2.098" height="4.957"/>
			</g>
			<g>
				<rect x="178.955" y="239.806" fill="#E3E4E6" width="4.955" height="2.095"/>
			</g>
			<g>
				<rect x="178.955" y="216.757" fill="#E3E4E6" width="4.955" height="2.097"/>
			</g>
			<g>
				<rect x="178.955" y="188.856" fill="#E3E4E6" width="4.955" height="2.095"/>
			</g>
			<g>
				<g>
					<path fill="#9DA4AC" d="M144.992,259.61c6.401,0,11.608-5.205,11.608-11.605v-53.931v-14.26v-5.407
						c0-12.8,10.412-23.215,23.215-23.215h12.684v11.607h-12.684c-6.4,0-11.607,5.208-11.607,11.607v5.407v14.26v53.931
						c0,12.8-10.412,23.215-23.215,23.215h-12.135V259.61H144.992z"/>
					<g>
						<rect x="134.521" y="259.61" fill="#ABAFB6" width="2.902" height="11.609"/>
						<rect x="140.826" y="259.61" fill="#ABAFB6" width="2.903" height="11.609"/>
						<path fill="#ABAFB6" d="M147.824,271.04l-1.406-11.525c0.99-0.122,1.939-0.37,2.836-0.725l1.43,11.721
							C149.752,270.746,148.797,270.921,147.824,271.04z"/>
						<path fill="#ABAFB6" d="M167.836,252.109l-11.422-2.101c0.115-0.652,0.186-1.318,0.186-2.003v-0.913l11.574,2.128
							C168.123,250.202,168.004,251.164,167.836,252.109z"/>
						<rect x="156.6" y="239.509" fill="#ABAFB6" width="11.607" height="2.9"/>
						<rect x="156.6" y="232.622" fill="#ABAFB6" width="11.607" height="2.902"/>
						<rect x="156.6" y="225.739" fill="#ABAFB6" width="11.607" height="2.901"/>
						<rect x="156.6" y="218.853" fill="#ABAFB6" width="11.607" height="2.903"/>
						<rect x="156.6" y="211.968" fill="#ABAFB6" width="11.607" height="2.903"/>
						<rect x="156.6" y="205.083" fill="#ABAFB6" width="11.607" height="2.901"/>
						<rect x="156.6" y="197.953" fill="#ABAFB6" width="11.607" height="2.901"/>
						<rect x="156.6" y="190.823" fill="#ABAFB6" width="11.607" height="2.9"/>
						<rect x="156.6" y="183.693" fill="#ABAFB6" width="11.607" height="2.9"/>
						<rect x="156.6" y="176.562" fill="#ABAFB6" width="11.607" height="2.9"/>
						<path fill="#ABAFB6" d="M164.77,260.144l-10.215-5.574c0.547-0.793,0.988-1.662,1.326-2.584l10.252,5.594
							C165.73,258.464,165.277,259.321,164.77,260.144z"/>
						<path fill="#ABAFB6" d="M158.479,266.88c-0.785,0.564-1.605,1.085-2.457,1.547l-5.818-10.064
							c0.873-0.443,1.684-0.989,2.412-1.627L158.479,266.88z"/>
					</g>
				</g>
			</g>
			<g>
				<rect x="135.824" y="254.898" fill="#9DA4AC" width="3.156" height="18.757"/>
				<rect x="130.641" y="209.251" fill="#9DA4AC" width="5.639" height="112.231"/>
			</g>
		</g>
		<g>
			<path fill="#E3E4E6" d="M192.499,178.534v-3.295h-0.475c-6.85,0-12.424,5.573-12.424,12.422v33.004h3.295v-33.004
				c0-5.032,4.094-9.127,9.129-9.127H192.499z"/>
		</g>
	</g>
	
		<linearGradient id="SVGID_1_" gradientUnits="userSpaceOnUse" x1="3895.3369" y1="246.1572" x2="3895.3369" y2="323.1637" gradientTransform="matrix(-1 0 0 1 4016.3936 0)">
		<stop  offset="0" style="stop-color:#CDCED0"/>
		<stop  offset="1" style="stop-color:#666466"/>
	</linearGradient>
	<path fill="url(#SVGID_1_)" d="M111.473,182.255c0,0,1.336,5.304,3.23,13.375h15.938v144.582h-15.938
		c-1.895,8.071-3.23,13.374-3.23,13.374V182.255z"/>
</g>
</svg>
