<?xml version="1.0" encoding="utf-8"?>
<!-- Generator: Adobe Illustrator 16.0.4, SVG Export Plug-In . SVG Version: 6.00 Build 0)  -->
<!DOCTYPE svg PUBLIC "-//W3C//DTD SVG 1.1//EN" "http://www.w3.org/Graphics/SVG/1.1/DTD/svg11.dtd">
<svg version="1.1" id="Layer_1" xmlns="http://www.w3.org/2000/svg" xmlns:xlink="http://www.w3.org/1999/xlink" x="0px" y="0px"
	 width="530.936px" height="500px" viewBox="0 0 530.936 500" enable-background="new 0 0 530.936 500" xml:space="preserve">
<g>
	<g opacity="0.8">
		
			<image overflow="visible" width="250" height="143" xlink:href="1CE3239965FF7B9C.png"  transform="matrix(1 0 0 1 185.9443 70.8843)">
		</image>
	</g>
	<g>
		<path fill="#FF7070" d="M235.78,127.846c0-4.155,3.399-7.555,7.555-7.555h134.357c4.154,0,7.554,3.399,7.554,7.555v42.344
			c0,4.154-3.399,7.554-7.554,7.554H243.334c-4.155,0-7.555-3.399-7.555-7.554V127.846z"/>
	</g>
	
		<text transform="matrix(1 0 0 1 254.6499 148.1475)" fill="#FFFFFF" font-family="'BentonSans-Medium'" font-size="14" letter-spacing="1">REPAIR MODE</text>
</g>
<g>
	<g>
		<g>
			<path fill="#CDCED0" d="M445.657,273.885h-10v-92.684c0-15.278-12.432-27.71-27.711-27.71h-22.7v-10h22.7
				c20.794,0,37.711,16.917,37.711,37.71V273.885z"/>
		</g>
		<g>
			<rect x="395.385" y="141.309" fill="#ABAFB6" width="6.367" height="15.051"/>
		</g>
		<g>
			<rect x="433.612" y="183.139" fill="#ABAFB6" width="15.051" height="6.363"/>
		</g>
		<g>
			<rect x="433.612" y="224.755" fill="#ABAFB6" width="15.051" height="6.364"/>
		</g>
	</g>
	<g>
		<g>
			<g>
				<g>
					<g>
						<path fill="#9DA4AC" d="M500.373,405.893h11.411v-11.932c0-12.585-10.237-22.821-22.822-22.821h-47.919v11.407h47.919
							c6.293,0,11.411,5.119,11.411,11.414V405.893z"/>
					</g>
					<g>
						<rect x="500.373" y="401.401" fill="#ABAFB6" width="11.411" height="2.854"/>
						<rect x="500.373" y="395.205" fill="#ABAFB6" width="11.411" height="2.852"/>
						<path fill="#ABAFB6" d="M511.612,391.177l-11.332,1.38c-0.122-0.972-0.365-1.902-0.713-2.784l11.522-1.408
							C511.323,389.283,511.495,390.221,511.612,391.177z"/>
						<path fill="#ABAFB6" d="M492.995,371.503l-2.065,11.229c-0.64-0.114-1.295-0.186-1.968-0.186h-0.898l2.094-11.38
							C491.12,371.219,492.067,371.336,492.995,371.503z"/>
						<rect x="480.606" y="371.14" fill="#ABAFB6" width="2.855" height="11.407"/>
						<rect x="473.84" y="371.14" fill="#ABAFB6" width="2.85" height="11.407"/>
						<rect x="467.071" y="371.14" fill="#ABAFB6" width="2.854" height="11.407"/>
						<rect x="460.299" y="371.14" fill="#ABAFB6" width="2.854" height="11.407"/>
						<rect x="453.532" y="371.14" fill="#ABAFB6" width="2.854" height="11.407"/>
						<rect x="446.763" y="371.14" fill="#ABAFB6" width="2.853" height="11.407"/>
						<path fill="#ABAFB6" d="M500.898,374.516l-5.483,10.046c-0.781-0.538-1.633-0.975-2.54-1.307l5.499-10.077
							C499.245,373.572,500.086,374.017,500.898,374.516z"/>
						<path fill="#ABAFB6" d="M507.523,380.704c0.554,0.771,1.063,1.576,1.519,2.416l-9.898,5.718
							c-0.434-0.857-0.969-1.656-1.596-2.37L507.523,380.704z"/>
					</g>
				</g>
			</g>
			<g>
				<rect x="495.741" y="399.874" fill="#9DA4AC" width="18.44" height="3.102"/>
				<rect x="491.298" y="402.53" fill="#9DA4AC" width="29.468" height="5.542"/>
			</g>
		</g>
		<rect x="380.904" y="273.885" fill="#9E9E9E" width="95.447" height="134.187"/>
		<g>
			<g>
				<path fill="#9DA4AC" d="M457.52,377.651c-0.209-0.271-0.431-0.528-0.664-0.777h-56.09c-0.351,0.375-0.673,0.771-0.972,1.192
					h57.726V377.651z"/>
				<path fill="#9DA4AC" d="M457.938,388.555v-1.193h-59.17c-0.133,0.283-0.256,0.572-0.37,0.867v0.326H457.938z"/>
				<path fill="#9DA4AC" d="M458.617,383.621v-1.192h-59.173c-0.133,0.282-0.256,0.571-0.366,0.866v0.326H458.617z"/>
				<rect x="397.633" y="392.247" fill="#9DA4AC" width="61.567" height="1.192"/>
				<rect x="397.633" y="397.944" fill="#9DA4AC" width="61.989" height="1.188"/>
				<rect x="398.502" y="403.636" fill="#9DA4AC" width="60.718" height="1.195"/>
			</g>
			<g>
				<path fill="#9DA4AC" d="M399.425,408.06h-2.317v-24.421c0-6.428,5.229-11.66,11.654-11.66h39.732
					c6.424,0,11.656,5.232,11.656,11.66v24.391h-2.324v-24.391c0-5.149-4.187-9.336-9.332-9.336h-39.732
					c-5.146,0-9.337,4.187-9.337,9.336V408.06z"/>
			</g>
		</g>
	</g>
	<g>
		<g>
			<g>
				<g>
					<path fill="#9DA4AC" d="M155.12,404.303h-29.404v-30.731c0-32.426,26.379-58.803,58.798-58.803h123.459v29.405H184.513
						c-16.206,0-29.394,13.182-29.394,29.397V404.303z"/>
				</g>
				<g>
					<rect x="125.715" y="392.739" fill="#ABAFB6" width="29.404" height="7.35"/>
					<rect x="125.715" y="376.769" fill="#ABAFB6" width="29.404" height="7.35"/>
					<path fill="#ABAFB6" d="M126.17,366.394l29.191,3.562c0.308-2.505,0.938-4.913,1.832-7.182l-29.684-3.621
						C126.915,361.515,126.471,363.931,126.17,366.394z"/>
					<path fill="#ABAFB6" d="M174.12,315.711l5.322,28.931c1.65-0.29,3.335-0.468,5.071-0.468h2.312l-5.389-29.319
						C178.949,314.981,176.515,315.285,174.12,315.711z"/>
					<rect x="198.688" y="314.769" fill="#ABAFB6" width="7.344" height="29.405"/>
					<rect x="216.13" y="314.769" fill="#ABAFB6" width="7.345" height="29.405"/>
					<rect x="233.564" y="314.769" fill="#ABAFB6" width="7.347" height="29.405"/>
					<rect x="251" y="314.769" fill="#ABAFB6" width="7.353" height="29.405"/>
					<rect x="268.44" y="314.769" fill="#ABAFB6" width="7.35" height="29.405"/>
					<rect x="285.878" y="314.769" fill="#ABAFB6" width="7.348" height="29.405"/>
					<path fill="#ABAFB6" d="M153.77,323.475l14.116,25.876c2.013-1.387,4.214-2.503,6.545-3.357l-14.165-25.969
						C158.024,321.045,155.85,322.192,153.77,323.475z"/>
					<path fill="#ABAFB6" d="M136.705,339.415c-1.429,1.99-2.745,4.062-3.919,6.223l25.493,14.731
						c1.122-2.21,2.506-4.261,4.119-6.104L136.705,339.415z"/>
				</g>
			</g>
		</g>
		<g>
			<rect x="119.545" y="388.797" fill="#9DA4AC" width="47.511" height="7.993"/>
			<rect x="102.58" y="392.454" fill="#9DA4AC" width="75.914" height="15.271"/>
		</g>
	</g>
	<g>
		<g>
			<g>
				<path fill="#CDCED0" d="M142.115,195.14h-23.656v24.729c0,26.087,21.224,47.309,47.308,47.309h75.616v-23.654h-75.616
					c-13.041,0-23.651-10.61-23.651-23.654V195.14z"/>
			</g>
			<g>
				<path fill="#B3B8BF" d="M118.825,225.644l23.486-2.866c0.249,2.015,0.753,3.948,1.476,5.776l-23.887,2.912
					C119.421,229.569,119.065,227.623,118.825,225.644z"/>
				<path fill="#B3B8BF" d="M157.404,266.424l4.283-23.276c1.328,0.233,2.683,0.376,4.079,0.376h1.859l-4.337,23.587
					C161.291,267.009,159.333,266.768,157.404,266.424z"/>
				<path fill="#B3B8BF" d="M139.669,259.358l11.273-21.134c1.62,1.116,3.262,2.467,5.137,3.154l-11.183,20.755
					C143.092,261.315,141.345,260.393,139.669,259.358z"/>
				<path fill="#B3B8BF" d="M127.296,247.352c-1.144-1.6-2.21-3.266-3.15-5.008l20.514-11.855c0.9,1.781,2.013,3.431,3.314,4.913
					L127.296,247.352z"/>
			</g>
		</g>
		<rect x="175.133" y="243.524" fill="#B3B8BF" width="4.789" height="23.654"/>
		<rect x="188.905" y="243.524" fill="#B3B8BF" width="4.79" height="23.654"/>
		<rect x="202.677" y="243.524" fill="#B3B8BF" width="4.789" height="23.654"/>
		<rect x="216.449" y="243.524" fill="#B3B8BF" width="4.79" height="23.654"/>
		<rect x="230.22" y="243.524" fill="#B3B8BF" width="4.79" height="23.654"/>
	</g>
	<g>
		<g>
			<path fill="#B3B8BF" d="M153.233,187.341c0-12.718-10.311-23.03-23.028-23.03c-12.721,0-23.031,10.312-23.031,23.03
				c0,8.442,4.547,15.824,11.322,19.832h23.413C148.687,203.166,153.233,195.784,153.233,187.341z"/>
		</g>
		<rect x="107.17" y="161.591" fill="#9DA4AC" width="46.062" height="27.979"/>
	</g>
	<g>
		<polygon fill="#CDCED0" points="248.245,179.542 256.221,179.542 265.043,179.542 262.573,177.794 250.658,177.794 		"/>
		<rect x="250.601" y="177.841" fill="#CDCED0" width="12.091" height="14.468"/>
		<rect x="250.077" y="180.584" fill="#CDCED0" width="13.132" height="1.112"/>
		<rect x="249.975" y="182.518" fill="#CDCED0" width="13.132" height="2.71"/>
	</g>
	<rect x="245.769" y="187.094" fill="#B3B8BF" width="22.666" height="10.429"/>
	<g>
		<rect x="235.78" y="166.203" fill="#CDCED0" width="149.521" height="241.869"/>
		<g>
			<g>
				<path fill="#E7E9EC" d="M378.488,320.958h-0.787c-0.667,0-1.208-0.688-1.208-1.541c0-0.688,0.354-1.271,0.842-1.472
					c0.154-0.62,0.611-1.071,1.153-1.071c0.667,0,1.208,0.694,1.208,1.543v1C379.696,320.27,379.155,320.958,378.488,320.958z"/>
			</g>
			<g>
				<path fill="#E7E9EC" d="M369.61,320.958h-1.617c-0.667,0-1.212-0.688-1.212-1.541c0-0.854,0.545-1.542,1.212-1.542h1.617
					c0.667,0,1.211,0.688,1.211,1.542C370.821,320.27,370.277,320.958,369.61,320.958z M359.899,320.958h-1.617
					c-0.67,0-1.208-0.688-1.208-1.541c0-0.854,0.538-1.542,1.208-1.542h1.617c0.67,0,1.208,0.688,1.208,1.542
					C361.107,320.27,360.569,320.958,359.899,320.958z M350.187,320.958h-1.616c-0.668,0-1.208-0.688-1.208-1.541
					c0-0.854,0.54-1.542,1.208-1.542h1.616c0.671,0,1.212,0.688,1.212,1.542C351.399,320.27,350.858,320.958,350.187,320.958z
					 M340.479,320.958h-1.619c-0.668,0-1.208-0.688-1.208-1.541c0-0.854,0.54-1.542,1.208-1.542h1.619
					c0.671,0,1.208,0.688,1.208,1.542C341.687,320.27,341.15,320.958,340.479,320.958z M330.768,320.958h-1.617
					c-0.666,0-1.211-0.688-1.211-1.541c0-0.854,0.545-1.542,1.211-1.542h1.617c0.668,0,1.209,0.688,1.209,1.542
					C331.977,320.27,331.436,320.958,330.768,320.958z M321.061,320.958h-1.621c-0.67,0-1.208-0.688-1.208-1.541
					c0-0.854,0.538-1.542,1.208-1.542h1.621c0.663,0,1.208,0.688,1.208,1.542C322.269,320.27,321.724,320.958,321.061,320.958z
					 M311.349,320.958h-1.62c-0.667,0-1.207-0.688-1.207-1.541c0-0.854,0.54-1.542,1.207-1.542h1.62
					c0.667,0,1.208,0.688,1.208,1.542C312.557,320.27,312.016,320.958,311.349,320.958z M301.638,320.958h-1.617
					c-0.67,0-1.21-0.688-1.21-1.541c0-0.854,0.54-1.542,1.21-1.542h1.617c0.667,0,1.208,0.688,1.208,1.542
					C302.846,320.27,302.305,320.958,301.638,320.958z M291.93,320.958h-1.62c-0.667,0-1.208-0.688-1.208-1.541
					c0-0.854,0.541-1.542,1.208-1.542h1.62c0.667,0,1.209,0.688,1.209,1.542C293.139,320.27,292.597,320.958,291.93,320.958z
					 M282.215,320.958h-1.616c-0.671,0-1.208-0.688-1.208-1.541c0-0.854,0.537-1.542,1.208-1.542h1.616
					c0.671,0,1.209,0.688,1.209,1.542C283.424,320.27,282.886,320.958,282.215,320.958z M272.511,320.958h-1.62
					c-0.674,0-1.211-0.688-1.211-1.541c0-0.854,0.537-1.542,1.211-1.542h1.62c0.664,0,1.205,0.688,1.205,1.542
					C273.716,320.27,273.175,320.958,272.511,320.958z M262.797,320.958h-1.621c-0.663,0-1.208-0.688-1.208-1.541
					c0-0.854,0.545-1.542,1.208-1.542h1.621c0.667,0,1.208,0.688,1.208,1.542C264.005,320.27,263.464,320.958,262.797,320.958z
					 M253.086,320.958h-1.614c-0.671,0-1.211-0.688-1.211-1.541c0-0.854,0.54-1.542,1.211-1.542h1.614
					c0.67,0,1.211,0.688,1.211,1.542C254.297,320.27,253.756,320.958,253.086,320.958z"/>
			</g>
			<g>
				<path fill="#E7E9EC" d="M243.377,320.958h-0.783c-0.67,0-1.212-0.688-1.212-1.541v-1c0-0.849,0.542-1.543,1.212-1.543
					c0.538,0,0.993,0.451,1.149,1.071c0.488,0.201,0.842,0.783,0.842,1.472C244.585,320.27,244.042,320.958,243.377,320.958z"/>
			</g>
			<g>
				<path fill="#E7E9EC" d="M242.594,309.985c-0.67,0-1.212-0.691-1.212-1.541v-1.998c0-0.851,0.542-1.541,1.212-1.541
					c0.667,0,1.207,0.69,1.207,1.541v1.998C243.801,309.293,243.261,309.985,242.594,309.985z M242.594,298.015
					c-0.67,0-1.212-0.69-1.212-1.541v-1.996c0-0.853,0.542-1.541,1.212-1.541c0.667,0,1.207,0.688,1.207,1.541v1.996
					C243.801,297.325,243.261,298.015,242.594,298.015z M242.594,286.045c-0.67,0-1.212-0.691-1.212-1.544v-1.992
					c0-0.852,0.542-1.543,1.212-1.543c0.667,0,1.207,0.691,1.207,1.543v1.992C243.801,285.354,243.261,286.045,242.594,286.045z
					 M242.594,274.076c-0.67,0-1.212-0.692-1.212-1.538v-1.998c0-0.851,0.542-1.541,1.212-1.541c0.667,0,1.207,0.69,1.207,1.541
					v1.998C243.801,273.383,243.261,274.076,242.594,274.076z M242.594,262.109c-0.67,0-1.212-0.691-1.212-1.541v-1.996
					c0-0.854,0.542-1.542,1.212-1.542c0.667,0,1.207,0.688,1.207,1.542v1.996C243.801,261.417,243.261,262.109,242.594,262.109z
					 M242.594,250.139c-0.67,0-1.212-0.691-1.212-1.544v-1.994c0-0.85,0.542-1.542,1.212-1.542c0.667,0,1.207,0.692,1.207,1.542
					v1.994C243.801,249.448,243.261,250.139,242.594,250.139z M242.594,238.168c-0.67,0-1.212-0.689-1.212-1.541v-1.995
					c0-0.852,0.542-1.543,1.212-1.543c0.667,0,1.207,0.691,1.207,1.543v1.995C243.801,237.479,243.261,238.168,242.594,238.168z
					 M242.594,226.2c-0.67,0-1.212-0.691-1.212-1.541v-1.994c0-0.854,0.542-1.545,1.212-1.545c0.667,0,1.207,0.691,1.207,1.545
					v1.994C243.801,225.508,243.261,226.2,242.594,226.2z M242.594,214.233c-0.67,0-1.212-0.693-1.212-1.541v-1.997
					c0-0.851,0.542-1.542,1.212-1.542c0.667,0,1.207,0.691,1.207,1.542v1.997C243.801,213.54,243.261,214.233,242.594,214.233z
					 M242.594,202.262c-0.67,0-1.212-0.689-1.212-1.541v-1.996c0-0.85,0.542-1.54,1.212-1.54c0.667,0,1.207,0.69,1.207,1.54v1.996
					C243.801,201.573,243.261,202.262,242.594,202.262z M242.594,190.293c-0.67,0-1.212-0.692-1.212-1.54v-1.998
					c0-0.851,0.542-1.542,1.212-1.542c0.667,0,1.207,0.691,1.207,1.542v1.998C243.801,189.601,243.261,190.293,242.594,190.293z"/>
			</g>
			<g>
				<path fill="#E7E9EC" d="M242.594,178.327c-0.67,0-1.212-0.695-1.212-1.545v-1.003c0-0.851,0.542-1.541,1.212-1.541h0.783
					c0.664,0,1.208,0.69,1.208,1.541c0,0.69-0.354,1.274-0.842,1.476C243.587,177.874,243.132,178.327,242.594,178.327z"/>
			</g>
			<g>
				<path fill="#E7E9EC" d="M369.61,177.324h-1.617c-0.667,0-1.212-0.69-1.212-1.545c0-0.851,0.545-1.541,1.212-1.541h1.617
					c0.667,0,1.211,0.69,1.211,1.541C370.821,176.633,370.277,177.324,369.61,177.324z M359.899,177.324h-1.617
					c-0.67,0-1.208-0.69-1.208-1.545c0-0.851,0.538-1.541,1.208-1.541h1.617c0.666,0,1.208,0.69,1.208,1.541
					C361.107,176.633,360.565,177.324,359.899,177.324z M350.187,177.324h-1.616c-0.668,0-1.208-0.69-1.208-1.545
					c0-0.851,0.54-1.541,1.208-1.541h1.616c0.671,0,1.212,0.69,1.212,1.541C351.399,176.633,350.858,177.324,350.187,177.324z
					 M340.479,177.324h-1.619c-0.668,0-1.208-0.69-1.208-1.545c0-0.851,0.54-1.541,1.208-1.541h1.619
					c0.668,0,1.208,0.69,1.208,1.541C341.687,176.633,341.147,177.324,340.479,177.324z M330.768,177.324h-1.617
					c-0.666,0-1.211-0.69-1.211-1.545c0-0.851,0.545-1.541,1.211-1.541h1.617c0.668,0,1.209,0.69,1.209,1.541
					C331.977,176.633,331.436,177.324,330.768,177.324z M321.061,177.324h-1.621c-0.67,0-1.208-0.69-1.208-1.545
					c0-0.851,0.538-1.541,1.208-1.541h1.621c0.663,0,1.208,0.69,1.208,1.541C322.269,176.633,321.724,177.324,321.061,177.324z
					 M311.349,177.324h-1.62c-0.667,0-1.207-0.69-1.207-1.545c0-0.851,0.54-1.541,1.207-1.541h1.62c0.667,0,1.208,0.69,1.208,1.541
					C312.557,176.633,312.016,177.324,311.349,177.324z M301.638,177.324h-1.617c-0.67,0-1.21-0.69-1.21-1.545
					c0-0.851,0.54-1.541,1.21-1.541h1.617c0.667,0,1.208,0.69,1.208,1.541C302.846,176.633,302.305,177.324,301.638,177.324z
					 M291.93,177.324h-1.62c-0.667,0-1.208-0.69-1.208-1.545c0-0.851,0.541-1.541,1.208-1.541h1.62c0.667,0,1.205,0.69,1.205,1.541
					C293.135,176.633,292.597,177.324,291.93,177.324z M282.215,177.324h-1.616c-0.671,0-1.208-0.69-1.208-1.545
					c0-0.851,0.537-1.541,1.208-1.541h1.616c0.671,0,1.209,0.69,1.209,1.541C283.424,176.633,282.886,177.324,282.215,177.324z
					 M272.511,177.324h-1.62c-0.674,0-1.211-0.69-1.211-1.545c0-0.851,0.537-1.541,1.211-1.541h1.62c0.664,0,1.205,0.69,1.205,1.541
					C273.716,176.633,273.175,177.324,272.511,177.324z M262.797,177.324h-1.621c-0.663,0-1.208-0.69-1.208-1.545
					c0-0.851,0.545-1.541,1.208-1.541h1.621c0.667,0,1.208,0.69,1.208,1.541C264.005,176.633,263.464,177.324,262.797,177.324z
					 M253.086,177.324h-1.614c-0.671,0-1.211-0.69-1.211-1.545c0-0.851,0.54-1.541,1.211-1.541h1.614c0.67,0,1.211,0.69,1.211,1.541
					C254.297,176.633,253.756,177.324,253.086,177.324z"/>
			</g>
			<g>
				<path fill="#E7E9EC" d="M378.488,178.327c-0.542,0-0.999-0.453-1.153-1.072c-0.488-0.201-0.842-0.785-0.842-1.476
					c0-0.851,0.541-1.541,1.208-1.541h0.787c0.667,0,1.208,0.69,1.208,1.541v1.003C379.696,177.631,379.155,178.327,378.488,178.327
					z"/>
			</g>
			<g>
				<path fill="#E7E9EC" d="M378.488,309.985c-0.671,0-1.211-0.691-1.211-1.541v-1.998c0-0.851,0.54-1.541,1.211-1.541
					c0.667,0,1.208,0.69,1.208,1.541v1.998C379.696,309.293,379.155,309.985,378.488,309.985z M378.488,298.015
					c-0.671,0-1.211-0.69-1.211-1.541v-1.996c0-0.853,0.54-1.541,1.211-1.541c0.667,0,1.208,0.688,1.208,1.541v1.996
					C379.696,297.325,379.155,298.015,378.488,298.015z M378.488,286.045c-0.671,0-1.211-0.691-1.211-1.544v-1.992
					c0-0.852,0.54-1.543,1.211-1.543c0.667,0,1.208,0.691,1.208,1.543v1.992C379.696,285.354,379.155,286.045,378.488,286.045z
					 M378.488,274.076c-0.671,0-1.211-0.692-1.211-1.538v-1.998c0-0.851,0.54-1.541,1.211-1.541c0.667,0,1.208,0.69,1.208,1.541
					v1.998C379.696,273.383,379.155,274.076,378.488,274.076z M378.488,262.109c-0.671,0-1.211-0.691-1.211-1.541v-1.996
					c0-0.854,0.54-1.542,1.211-1.542c0.667,0,1.208,0.688,1.208,1.542v1.996C379.696,261.417,379.155,262.109,378.488,262.109z
					 M378.488,250.139c-0.671,0-1.211-0.691-1.211-1.544v-1.994c0-0.85,0.54-1.542,1.211-1.542c0.667,0,1.208,0.692,1.208,1.542
					v1.994C379.696,249.448,379.155,250.139,378.488,250.139z M378.488,238.168c-0.671,0-1.211-0.689-1.211-1.541v-1.995
					c0-0.852,0.54-1.543,1.211-1.543c0.667,0,1.208,0.691,1.208,1.543v1.995C379.696,237.479,379.155,238.168,378.488,238.168z
					 M378.488,226.2c-0.671,0-1.211-0.691-1.211-1.541v-1.994c0-0.854,0.54-1.545,1.211-1.545c0.667,0,1.208,0.691,1.208,1.545
					v1.994C379.696,225.508,379.155,226.2,378.488,226.2z M378.488,214.233c-0.671,0-1.211-0.693-1.211-1.541v-1.997
					c0-0.851,0.54-1.542,1.211-1.542c0.667,0,1.208,0.691,1.208,1.542v1.997C379.696,213.54,379.155,214.233,378.488,214.233z
					 M378.488,202.262c-0.671,0-1.211-0.689-1.211-1.541v-1.996c0-0.85,0.54-1.54,1.211-1.54c0.667,0,1.208,0.69,1.208,1.54v1.996
					C379.696,201.573,379.155,202.262,378.488,202.262z M378.488,190.293c-0.671,0-1.211-0.692-1.211-1.54v-1.998
					c0-0.851,0.54-1.542,1.211-1.542c0.667,0,1.208,0.691,1.208,1.542v1.998C379.696,189.601,379.155,190.293,378.488,190.293z"/>
			</g>
		</g>
		<g>
			<path fill="#DCDDDE" d="M357.27,359.535c0,8.811-7.145,15.955-15.957,15.955c-8.811,0-15.952-7.145-15.952-15.955
				c0-8.81,7.142-15.95,15.952-15.95C350.125,343.584,357.27,350.725,357.27,359.535z"/>
			<g>
				<g>
					<g>
						<rect x="337.589" y="328.436" fill="#B3B8BF" width="7.449" height="62.2"/>
					</g>
					<rect x="336.87" y="328.436" fill="#B3B8BF" width="8.889" height="13.51"/>
					<rect x="336.87" y="377.127" fill="#B3B8BF" width="8.889" height="13.508"/>
				</g>
				<g>
					<g>
						<rect x="310.423" y="355.809" fill="#B3B8BF" width="62.205" height="7.452"/>
					</g>
					<rect x="359.118" y="355.09" fill="#B3B8BF" width="13.511" height="8.894"/>
					<rect x="310" y="355.09" fill="#B3B8BF" width="13.507" height="8.894"/>
				</g>
				<g>
					<circle fill="#B3B8BF" cx="341.314" cy="359.535" r="7.702"/>
				</g>
			</g>
		</g>
		<g>
			<g>
				<g>
					<g>
						<path fill="#9DA4AC" d="M301.663,358.976c0,12.788-10.359,23.15-23.146,23.15c-12.784,0-23.144-10.362-23.144-23.15
							c0-12.782,10.359-23.145,23.144-23.145C291.303,335.832,301.663,346.194,301.663,358.976z"/>
						<path fill="#FFFFFF" d="M297.006,358.976c0,10.212-8.279,18.491-18.489,18.491c-10.208,0-18.484-8.279-18.484-18.491
							c0-10.207,8.276-18.485,18.484-18.485C288.727,340.491,297.006,348.769,297.006,358.976z"/>
						<g>
							<path fill="#B3B8BF" d="M278.638,344.884c-5.555,0-10.409,2.985-13.05,7.437l2.945,1.5c2.09-3.385,5.834-5.646,10.104-5.646
								c1.06,0,2.09,0.144,3.064,0.401l0.741-3.206C281.233,345.053,279.954,344.884,278.638,344.884z"/>
							<path fill="#E0E0E0" d="M263.473,360.052c0,4.258,1.758,8.109,4.584,10.864l1.915-2.755
								c-1.993-2.128-3.206-4.978-3.206-8.109c0-2.001,0.497-3.887,1.371-5.537l-2.936-1.496
								C264.097,355.121,263.473,357.515,263.473,360.052z"/>
							<path fill="#B7CBD6" d="M283.215,345.585l-0.747,3.224c1.642,0.561,3.123,1.47,4.356,2.642l2.33-2.327
								C287.491,347.522,285.465,346.301,283.215,345.585z"/>
							<path fill="#E3E4E6" d="M289.713,349.692l-2.327,2.33c1.946,2.115,3.13,4.931,3.13,8.03c0,2.084-0.538,4.045-1.485,5.751
								l3.133,1.11c1.049-2.06,1.645-4.394,1.645-6.861C293.808,356.049,292.253,352.4,289.713,349.692z"/>
						</g>
						<path fill="#B7CBD6" d="M280.792,358.976c0,1.257-1.018,2.271-2.275,2.271c-1.257,0-2.271-1.015-2.271-2.271
							c0-1.251,1.014-2.272,2.271-2.272C279.775,356.704,280.792,357.725,280.792,358.976z"/>
						<polygon fill="#B7CBD6" points="267.642,369.041 276.895,358.976 284.036,351.834 285.825,353.784 278.032,360.114 						"/>
					</g>
				</g>
			</g>
		</g>
		<g>
			<g>
				<g>
					<rect x="252.41" y="192.309" fill="#9E9E9E" width="116.868" height="93.705"/>
				</g>
				<g>
					<g>
						<rect x="252.67" y="232.063" fill="#9DA4AC" width="116.346" height="1.848"/>
					</g>
					<g>
						<rect x="252.67" y="245.349" fill="#9DA4AC" width="116.346" height="1.817"/>
					</g>
					<g>
						<rect x="252.67" y="254.343" fill="#9DA4AC" width="116.346" height="1.814"/>
					</g>
					<g>
						<rect x="252.67" y="263.337" fill="#9DA4AC" width="116.346" height="1.815"/>
					</g>
					<g>
						<rect x="252.67" y="272.332" fill="#9DA4AC" width="116.346" height="1.815"/>
					</g>
					<g>
						<rect x="252.67" y="281.323" fill="#9DA4AC" width="116.346" height="1.816"/>
					</g>
				</g>
				<g>
					<g>
						<rect x="252.67" y="200.834" fill="#9DA4AC" width="116.346" height="1.848"/>
					</g>
					<g>
						<rect x="252.67" y="214.121" fill="#9DA4AC" width="116.346" height="1.817"/>
					</g>
					<g>
						<rect x="252.67" y="223.115" fill="#9DA4AC" width="116.346" height="1.814"/>
					</g>
					<g>
						<rect x="252.67" y="232.109" fill="#9DA4AC" width="116.346" height="1.815"/>
					</g>
					<g>
						<rect x="252.67" y="241.103" fill="#9DA4AC" width="116.346" height="1.815"/>
					</g>
					<g>
						<rect x="252.67" y="250.094" fill="#9DA4AC" width="116.346" height="1.816"/>
					</g>
				</g>
			</g>
		</g>
		<g>
			<path fill="#E0E0E0" d="M287.958,301.792c0,3.25-2.635,5.886-5.884,5.886h-21.396c-3.249,0-5.887-2.636-5.887-5.886l0,0
				c0-3.251,2.638-5.885,5.887-5.885h21.396C285.324,295.908,287.958,298.542,287.958,301.792L287.958,301.792z"/>
			<g>
				<circle fill="#9E9E9E" cx="355.483" cy="301.793" r="8.188"/>
				<circle fill="#9DA4AC" cx="355.481" cy="301.793" r="6.182"/>
				<g>
					<path fill="#9E9E9E" d="M359.634,305.947c-0.64,0.636-1.673,0.636-2.312,0l-5.991-5.997c-0.64-0.638-0.637-1.67,0-2.307
						c0.636-0.64,1.671-0.64,2.312,0l5.991,5.988C360.27,304.271,360.27,305.307,359.634,305.947z"/>
				</g>
			</g>
			<g>
				<path fill="#B3B8BF" d="M297.458,296.288c0.627-0.741,1.646-0.741,2.27,0l2.98,3.554c0.627,0.743,0.419,1.353-0.467,1.353
					h-7.295c-0.885,0-1.094-0.609-0.47-1.353L297.458,296.288z"/>
				<path fill="#B3B8BF" d="M299.727,307.298c-0.624,0.739-1.643,0.739-2.27,0l-2.981-3.553c-0.624-0.742-0.415-1.351,0.47-1.351
					h7.295c0.886,0,1.094,0.608,0.467,1.351L299.727,307.298z"/>
			</g>
			<g>
				<path fill="#E3E4E6" d="M309.76,296.288c0.627-0.741,1.646-0.741,2.271,0l2.981,3.554c0.621,0.743,0.416,1.353-0.466,1.353
					h-7.302c-0.882,0-1.092-0.609-0.468-1.353L309.76,296.288z"/>
				<path fill="#E3E4E6" d="M312.032,307.298c-0.625,0.739-1.645,0.739-2.271,0l-2.982-3.553c-0.624-0.742-0.414-1.351,0.468-1.351
					h7.302c0.882,0,1.087,0.608,0.466,1.351L312.032,307.298z"/>
			</g>
			<g>
				<path fill="#9E9E9E" d="M343.083,301.802c0,4.519-3.665,8.183-8.189,8.183c-4.519,0-8.184-3.664-8.184-8.183
					c0-4.523,3.665-8.187,8.184-8.187C339.418,293.616,343.083,297.279,343.083,301.802z"/>
				<path fill="#9DA4AC" d="M343.065,302.22c0.006-0.14,0.019-0.281,0.019-0.418c0-0.166-0.013-0.324-0.022-0.489h-6.863
					l4.875-4.875c-0.193-0.229-0.406-0.442-0.631-0.648l-5.096,5.1v-7.251c-0.15-0.01-0.296-0.022-0.452-0.022
					c-0.151,0-0.298,0.013-0.452,0.022v7.028l-4.974-4.979c-0.23,0.202-0.443,0.414-0.646,0.64l4.99,4.986h-7.077
					c-0.01,0.165-0.024,0.323-0.024,0.489c0,0.137,0.015,0.278,0.024,0.418h7.283l-5.131,5.126c0.206,0.223,0.421,0.433,0.648,0.634
					l4.906-4.908v6.894c0.154,0.006,0.301,0.02,0.452,0.02c0.156,0,0.302-0.014,0.452-0.02v-7.115l5.025,5.023
					c0.226-0.199,0.437-0.415,0.64-0.64l-5.017-5.014H343.065z"/>
				<g>
					<path fill="#9DA4AC" d="M340.47,301.802c0,3.076-2.496,5.571-5.576,5.571c-3.074,0-5.567-2.495-5.567-5.571
						c0-3.081,2.493-5.574,5.567-5.574C337.974,296.228,340.47,298.721,340.47,301.802z"/>
					<path fill="#9E9E9E" d="M334.894,307.978c-3.403,0-6.173-2.771-6.173-6.176c0-3.406,2.77-6.178,6.173-6.178
						c3.411,0,6.179,2.771,6.179,6.178C341.073,305.208,338.305,307.978,334.894,307.978z M334.894,296.829
						c-2.736,0-4.964,2.229-4.964,4.974c0,2.74,2.228,4.968,4.964,4.968c2.742,0,4.974-2.228,4.974-4.968
						C339.868,299.058,337.636,296.829,334.894,296.829z"/>
				</g>
			</g>
		</g>
		<g>
			<g>
				<g>
					<path fill="#B3B8BF" d="M251.223,184.788c-0.067,2.385,1.813,4.375,4.195,4.442c2.389,0.062,4.372-1.816,4.44-4.205
						c0.064-2.382-1.817-4.371-4.196-4.438C253.277,180.522,251.288,182.408,251.223,184.788z"/>
					<polygon fill="#9DA3AA" points="252.827,184.312 255.038,184.376 255.096,182.17 256.129,182.198 256.071,184.402 
						258.278,184.466 258.25,185.5 256.043,185.438 255.978,187.644 254.949,187.623 255.007,185.414 252.803,185.349 					"/>
				</g>
			</g>
			<g>
				<g>
					<path fill="#B3B8BF" d="M360.364,184.788c-0.062,2.385,1.815,4.375,4.198,4.442c2.385,0.062,4.375-1.816,4.439-4.205
						c0.064-2.382-1.817-4.371-4.203-4.438C362.419,180.522,360.431,182.408,360.364,184.788z"/>
					<polygon fill="#9DA3AA" points="361.973,184.312 364.181,184.376 364.239,182.17 365.272,182.198 365.213,184.402 
						367.42,184.466 367.393,185.5 365.186,185.438 365.127,187.644 364.088,187.623 364.153,185.414 361.943,185.349 					"/>
				</g>
			</g>
		</g>
		<rect x="233.439" y="374.625" fill="#A0A2A4" width="19.137" height="33.246"/>
	</g>
	<polygon fill="#9E9E9E" points="165.793,167.055 91.047,167.055 45.185,103.992 213.698,103.992 	"/>
	<rect x="28.772" y="94.345" fill="#9DA4AC" width="195.66" height="19.295"/>
	<g>
		<g>
			<g>
				<g>
					<path fill="#9DA4AC" d="M450.888,316.146c0,12.786-10.358,23.149-23.144,23.149c-12.786,0-23.146-10.363-23.146-23.149
						c0-12.784,10.359-23.146,23.146-23.146C440.53,293,450.888,303.362,450.888,316.146z"/>
					<path fill="#FFFFFF" d="M446.232,316.146c0,10.211-8.278,18.489-18.487,18.489c-10.211,0-18.485-8.278-18.485-18.489
						c0-10.207,8.274-18.488,18.485-18.488C437.954,297.658,446.232,305.939,446.232,316.146z"/>
					<g>
						<path fill="#B3B8BF" d="M427.864,302.052c-5.553,0-10.406,2.987-13.046,7.438l2.941,1.5c2.091-3.386,5.834-5.646,10.104-5.646
							c1.061,0,2.09,0.143,3.064,0.399l0.742-3.208C430.458,302.221,429.18,302.052,427.864,302.052z"/>
						<path fill="#E0E0E0" d="M412.699,317.221c0,4.26,1.76,8.111,4.587,10.863l1.912-2.752c-1.989-2.127-3.206-4.977-3.206-8.111
							c0-1.999,0.501-3.885,1.371-5.535l-2.933-1.498C413.323,312.291,412.699,314.684,412.699,317.221z"/>
						<path fill="#B7CBD6" d="M432.441,302.754l-0.747,3.224c1.643,0.562,3.126,1.472,4.356,2.643l2.329-2.327
							C436.717,304.694,434.691,303.469,432.441,302.754z"/>
						<path fill="#E3E4E6" d="M438.94,306.862l-2.326,2.331c1.945,2.114,3.129,4.929,3.129,8.028c0,2.086-0.539,4.048-1.485,5.754
							l3.133,1.109c1.048-2.062,1.644-4.393,1.644-6.863C443.034,313.217,441.479,309.57,438.94,306.862z"/>
					</g>
					<path fill="#B7CBD6" d="M430.019,316.146c0,1.259-1.019,2.272-2.272,2.272c-1.257,0-2.274-1.014-2.274-2.272
						c0-1.253,1.018-2.271,2.274-2.271C429,313.875,430.019,314.893,430.019,316.146z"/>
					<polygon fill="#B7CBD6" points="416.868,326.211 426.121,316.146 433.262,309.004 435.051,310.954 427.258,317.283 					"/>
				</g>
			</g>
		</g>
	</g>
	<g>
		
			<image overflow="visible" opacity="0.2" width="97" height="97" xlink:href="1CE3239965FF7B9B.png"  transform="matrix(1 0 0 1 261.9443 189.8843)">
		</image>
		<g>
			<path fill="#29C8FC" d="M349.064,270.962c0,3.3-2.7,6-6,6H277.56c-3.3,0-6-2.7-6-6v-65.5c0-3.3,2.7-6,6-6h65.504c3.3,0,6,2.7,6,6
				V270.962z"/>
		</g>
	</g>
</g>
</svg>
