<?xml version="1.0"?>
<!--Icons from directory ""-->
<svg xmlns="http://www.w3.org/2000/svg" width="22" height="117" viewBox="0 0 22 117"><svg xmlns:xlink="http://www.w3.org/1999/xlink" id="corner-clos-hl" xml:space="preserve" height="16" viewBox="0 0 16.017 16.117" width="16" version="1.1" y="0" x="0px" enable-background="new 0 0 16.017 16.117"><rect width="16.017" height="16.117" fill="#4E5A69"/><line stroke-linejoin="round" x1="14.646" y2="14.329" x2="1.736" stroke="#fff" stroke-linecap="round" stroke-miterlimit="10" y1="1.419" stroke-width="2" fill="none"/><line stroke-linejoin="round" x1="1.736" y2="14.329" x2="14.646" stroke="#fff" stroke-linecap="round" stroke-miterlimit="10" y1="1.419" stroke-width="2" fill="none"/></svg><svg xmlns:xlink="http://www.w3.org/1999/xlink" id="corner-close" xml:space="preserve" height="15" viewBox="0 0 14.875 14.969" width="15" version="1.1" y="16" x="0px" enable-background="new 0 0 14.875 14.969"><g stroke-linejoin="round" stroke="#4E5A69" stroke-linecap="round" stroke-miterlimit="10" stroke-width="2" fill="none">		<line x1="13.893" y2="13.94" x2=".982" y1="1.03"/>		<line x1=".982" y2="13.94" x2="13.893" y1="1.03"/></g></svg><svg xmlns:xlink="http://www.w3.org/1999/xlink" id="corner-move-hl" xml:space="preserve" height="22" viewBox="0 0 21.959 22.485" width="22" version="1.1" y="31" x="0px" enable-background="new 0 0 21.959 22.485"><rect width="21.959" height="22.485" fill="#4E5A69"/><g fill="#fff">	<polygon points="13.919 4.41 10.976 0 8.04 4.41"/>	<polygon points="8.04 17.602 10.983 22.014 13.919 17.602"/></g><g fill="#fff">	<polygon points="4.41 8.068 0 11.01 4.41 13.945"/>	<polygon points="17.947 13.68 21.959 11.006 17.947 8.334"/></g></svg><svg xmlns:xlink="http://www.w3.org/1999/xlink" id="corner-move" xml:space="preserve" height="22" viewBox="0 0 21.345 22.485" width="21" version="1.1" y="53" x="0px" enable-background="new 0 0 21.345 22.485"><g fill="#4E5A69">		<polygon points="13.404 4.41 10.461 0 7.525 4.41"/>		<polygon points="7.525 17.602 10.469 22.014 13.404 17.602"/>		<polygon points="3.797 8.068 -0.613 11.01 3.797 13.945"/>		<polygon points="17.334 13.68 21.346 11.006 17.334 8.334"/></g></svg><svg xmlns:xlink="http://www.w3.org/1999/xlink" id="corner-settings-hl" xml:space="preserve" height="21" viewBox="0 0 21.959 20.734" width="22" version="1.1" y="75" x="0px" enable-background="new 0 0 21.959 20.734"><rect width="21.959" height="20.734" fill="#4E5A69"/>		<path d="m15.612 0.811l-2.264-0.811-0.219 0.281-1.654 2.149-1.794 0.086-2.188-2.176-2.17 1.025 0.043 0.355 0.346 2.682-1.203 1.33-3.089 0.008-0.806 2.262 0.283 0.228 2.138 1.648 0.099 1.789-2.195 2.191 1.042 2.172 0.351-0.049 2.681-0.348 1.332 1.213 0.016 3.08 2.258 0.807 0.221-0.279 1.65-2.143 1.79-0.092 2.185 2.186 2.172-1.027-0.036-0.367-0.349-2.678 1.206-1.33 3.081-0.003 0.806-2.262-0.277-0.225-2.14-1.652-0.095-1.795 2.185-2.188-1.037-2.17-0.351 0.046-2.686 0.348-1.33-1.207-0.002-3.084z" fill="#fff"/><path d="m17.002 12.516c-1.186 3.314-4.842 5.059-8.154 3.873-3.34-1.189-5.068-4.852-3.893-8.164 1.182-3.311 4.834-5.059 8.18-3.869 3.316 1.183 5.047 4.847 3.867 8.16z" fill="#4E5A69"/></svg><svg xmlns:xlink="http://www.w3.org/1999/xlink" id="corner-settings" xml:space="preserve" height="21" viewBox="0 0 20.73 20.734" width="21" version="1.1" y="96" x="0px" enable-background="new 0 0 20.73 20.734">		<path d="m14.998 0.811l-2.264-0.811-0.219 0.281-1.654 2.149-1.795 0.086-2.187-2.176-2.17 1.025 0.043 0.355 0.346 2.682-1.203 1.33-3.088 0.008-0.807 2.262 0.283 0.228 2.139 1.648 0.098 1.789-2.195 2.191 1.043 2.172 0.35-0.049 2.682-0.348 1.332 1.213 0.016 3.08 2.258 0.807 0.221-0.279 1.65-2.143 1.789-0.092 2.186 2.186 2.172-1.027-0.037-0.367-0.348-2.678 1.205-1.33 3.082-0.003 0.805-2.262-0.277-0.225-2.139-1.652-0.096-1.795 2.186-2.188-1.037-2.17-0.352 0.045-2.686 0.349-1.33-1.207-0.002-3.084z" fill="#4E5A69"/><path d="m16.389 12.516c-1.186 3.314-4.842 5.059-8.155 3.873-3.339-1.189-5.068-4.852-3.893-8.164 1.182-3.311 4.834-5.059 8.181-3.869 3.315 1.183 5.046 4.847 3.867 8.16z" fill="#fff"/></svg></svg>
