<?xml version="1.0" encoding="utf-8"?>
<!-- Generator: Adobe Illustrator 16.0.4, SVG Export Plug-In . SVG Version: 6.00 Build 0)  -->
<!DOCTYPE svg PUBLIC "-//W3C//DTD SVG 1.0//EN" "http://www.w3.org/TR/2001/REC-SVG-20010904/DTD/svg10.dtd">
<svg version="1.0" xmlns="http://www.w3.org/2000/svg" xmlns:xlink="http://www.w3.org/1999/xlink" x="0px" y="0px" width="45px"
	 height="45px" viewBox="0 0 45 45" enable-background="new 0 0 45 45" xml:space="preserve">
<g id="Tab_area">
</g>
<g id="Art">
	<g opacity="0.5">
		<g>
			<path d="M35.39,27.432l-5.38-3.587v2.242h-0.001h-3.846l-2.202-2.694l-1.738,2.124l2.262,2.767
				c0.255,0.312,0.637,0.491,1.042,0.491h4.482h0.001v2.244L35.39,27.432z"/>
			<path d="M17.456,16.224h-4.484c-0.742,0-1.345,0.601-1.345,1.345c0,0.742,0.603,1.345,1.345,1.345l3.846-0.002l2.177,2.674
				l1.738-2.124l-2.235-2.746C18.241,16.403,17.859,16.224,17.456,16.224z"/>
		</g>
		<path d="M35.39,17.568l-5.38-3.587v2.242h-0.001h-4.482c-0.405,0-0.787,0.18-1.042,0.491l-7.667,9.372h-3.846
			c-0.742,0-1.345,0.602-1.345,1.345s0.603,1.343,1.345,1.343h4.484c0.403,0,0.785-0.18,1.041-0.491l7.666-9.372h3.846h0.001v2.244
			L35.39,17.568z"/>
	</g>
</g>
<g id="Label">
</g>
</svg>
