<?xml version="1.0"?>
<!--Icons from directory ""-->
<svg xmlns="http://www.w3.org/2000/svg" width="23" height="197" viewBox="0 0 23 197"><svg xmlns:xlink="http://www.w3.org/1999/xlink" id="Gen-Icon-clear-hl" xml:space="preserve" height="18" viewBox="0 0 22 17.661" width="22" version="1.1" y="0" x="0px" enable-background="new 0 0 22 17.661"><rect y="-17.656" x="-9.746" height="49" width="393.25" fill="#253842"/>			<rect transform="matrix(-.7088 .7054 -.7054 -.7088 27.669 6.2387)" height="7.956" width="1.42" y="4.852" x="11.837" fill="#fff"/>			<rect transform="matrix(.7081 .7061 -.7061 .7081 9.8969 -6.2825)" height="7.958" width="1.419" y="4.851" x="11.838" fill="#fff"/>		<path d="m20.675 1.318v15.023h-13.86l-4.921-7.511 4.922-7.512h13.859m1.319-1.318h-15.891l-5.787 8.83 5.786 8.832h15.892v-17.662z" fill="#fff"/><rect id="Gen-Icon-clear-hl-_x3C_Slice_x3E__5_" width="22" height="17.661" fill="none"/></svg><svg xmlns:xlink="http://www.w3.org/1999/xlink" id="Gen-Icon-clear" xml:space="preserve" height="22" viewBox="0 0 21.684 22.272" width="22" version="1.1" y="18" x="0px" enable-background="new 0 0 21.684 22.272"><g fill="#4E5A69">		<rect transform="matrix(-.7088 .7054 -.7054 -.7088 28.731 10.345)" height="7.956" width="1.42" y="7.125" x="11.52"/>		<rect transform="matrix(.7081 .7061 -.7061 .7081 11.409 -5.3959)" height="7.958" width="1.419" y="7.123" x="11.522"/>	<path d="m20.358 3.591v15.023h-13.859l-4.922-7.512 4.922-7.512h13.859m1.32-1.318h-15.892l-5.786 8.831 5.786 8.832h15.892v-17.663z"/></g><rect id="Gen-Icon-clear-_x3C_Slice_x3E_" height="19" width="22" y="1.494" x="-.316" fill="none"/></svg><svg xmlns:xlink="http://www.w3.org/1999/xlink" id="Gen-Icon-duplicate-hl" xml:space="preserve" height="22" viewBox="0 0 20.862 22.265" width="21" version="1.1" y="40" x="0px" enable-background="new 0 0 20.862 22.265"><rect y="-15.151" x="-83.135" height="49" width="393.25" fill="#253842"/>		<polygon points="1.488 1.898 13.41 1.898 13.41 3.386 14.901 3.386 14.901 0.408 0 0.408 0 18.291 4.967 18.291 4.967 16.798 1.488 16.798" fill="#fff"/>	<path d="m5.96 4.38v17.885h11.177l3.726-3.727v-14.158h-14.903zm13.411 13.627h-2.979v2.98h-8.942v-14.902h11.921v11.922z" fill="#fff"/>		<rect y="8.99" x="12.778" height="7.092" width="1.265" fill="#fff"/>		<rect y="11.906" x="9.865" height="1.264" width="7.092" fill="#fff"/><rect id="Gen-Icon-duplicate-hl-_x3C_Slice_x3E__6_" height="21.857" width="22" y=".408" x="-.389" fill="none"/></svg><svg xmlns:xlink="http://www.w3.org/1999/xlink" id="Gen-Icon-duplicate" xml:space="preserve" height="22" viewBox="0 0 20.862 22.097" width="21" version="1.1" y="62" x="0px" enable-background="new 0 0 20.862 22.097"><g fill="#4E5A69">	<polygon points="1.488 1.49 13.41 1.49 13.41 2.979 14.901 2.979 14.901 0 0 0 0 17.883 4.967 17.883 4.967 16.391 1.488 16.391"/>	<path d="m5.96 3.973v17.885h11.177l3.726-3.727v-14.158h-14.903zm13.411 13.627h-2.979v2.98h-8.942v-14.902h11.921v11.922z"/>	<rect y="8.582" x="12.778" height="7.092" width="1.265"/>	<rect y="11.498" x="9.865" height="1.264" width="7.092"/></g><rect id="Gen-Icon-duplicate-_x3C_Slice_x3E__1_" y="-.175" width="20.862" height="22.272" fill="none"/></svg><svg xmlns:xlink="http://www.w3.org/1999/xlink" id="Gen-Icon-export-hl" xml:space="preserve" height="18" viewBox="0 0 23.1 17.626" width="23" version="1.1" y="84" x="0px" enable-background="new 0 0 23.1 17.626"><rect y="-17.151" x="-332" height="49" width="393.25" fill="#253842"/><polygon points="1.043 17.626 20.588 17.626 20.588 11.199 18.748 12.91 18.748 15.785 2.881 15.785 2.881 5.515 5.969 5.515 10.18 3.673 1.043 3.673" fill="#fff"/><path d="m15.059 1.046v3.994c-1.467 0.162-4.998 0.834-7.482 3.475-0.84 0.893-1.564 1.996-2.045 3.395 0 0 0.893-1.51 3.307-2.648 1.461-0.689 3.488-1.236 6.221-1.234v3.824l7.37-4.952 0.67-0.449-0.621-0.416-7.42-4.989z" fill="#fff"/><rect id="Gen-Icon-export-hl-_x3C_Slice_x3E__9_" height="16.58" width="23" y="1.046" x=".75" fill="none"/></svg><svg xmlns:xlink="http://www.w3.org/1999/xlink" id="Gen-Icon-export" xml:space="preserve" height="17" viewBox="0 0 22.251 17.062" width="22" version="1.1" y="102" x="0px" enable-background="new 0 0 22.251 17.062"><polygon points="0.194 16.962 19.739 16.962 19.739 10.534 17.899 12.245 17.899 15.12 2.032 15.12 2.032 4.851 5.12 4.851 9.331 3.009 0.194 3.009" fill="#4E5A69"/><path d="m14.21 0.382v3.994c-1.467 0.162-4.998 0.834-7.482 3.475-0.84 0.893-1.564 1.996-2.045 3.395 0 0 0.893-1.51 3.307-2.648 1.46-0.691 3.488-1.238 6.22-1.236v3.824l7.371-4.951 0.67-0.449-0.621-0.416-7.42-4.988z" fill="#4E5A69"/><rect id="Gen-Icon-export-_x3C_Slice_x3E__4_" y=".382" width="22.251" height="16.681" fill="none"/></svg><svg xmlns:xlink="http://www.w3.org/1999/xlink" id="Gen-Icon-link-hl" xml:space="preserve" height="19" viewBox="0 0 19 19.213" width="19" version="1.1" y="119" x="0px" enable-background="new 0 0 19 19.213"><rect y="-16.317" x="-163.75" height="49" width="393.25" fill="#253842"/>	<path d="m17.608 2.283l-0.801-0.762c-1.324-1.264-3.422-1.215-4.686 0.113l-2.757 2.895c-0.986 1.033-1.174 2.535-0.578 3.746l5.307-5.514c0.557-0.582 1.479-0.604 2.062-0.049l0.35 0.334c0.582 0.555 0.604 1.477 0.051 2.059l-5.309 5.516c1.238 0.535 2.732 0.277 3.717-0.758l2.758-2.893c1.263-1.325 1.213-3.425-0.114-4.687z" fill="#fff"/>	<path d="m10.37 11.543l-5.195 5.336c-0.553 0.58-1.477 0.604-2.059 0.049l-0.35-0.336c-0.584-0.555-0.605-1.477-0.049-2.059l5.189-5.338c-1.235-0.533-2.729-0.275-3.714 0.758l-2.756 2.895c-1.266 1.324-1.215 3.424 0.111 4.688l0.799 0.762c1.324 1.264 3.426 1.213 4.689-0.111l2.758-2.896c0.983-1.035 1.171-2.537 0.577-3.748z" fill="#fff"/>	<path d="m6.274 13.936c0.207 0.195 0.564 0.152 0.801-0.094l6.311-6.623c0.236-0.248 0.26-0.607 0.055-0.805l-0.559-0.531c-0.205-0.195-0.564-0.154-0.801 0.096l-6.309 6.621c-0.236 0.246-0.262 0.607-0.055 0.803l0.557 0.533z" fill="#fff"/>	<path d="m17.597 2.283l-0.799-0.762c-1.326-1.264-3.422-1.213-4.686 0.111l-2.76 2.895c-0.982 1.035-1.17 2.537-0.576 3.75l5.307-5.516c0.555-0.582 1.479-0.604 2.059-0.049l0.354 0.334c0.582 0.555 0.604 1.479 0.049 2.061l-5.307 5.514c1.238 0.535 2.73 0.277 3.713-0.756l2.76-2.895c1.263-1.325 1.214-3.423-0.114-4.687z" fill="#fff"/>	<path d="m10.358 11.543l-5.195 5.336c-0.551 0.582-1.475 0.604-2.057 0.049l-0.352-0.336c-0.582-0.555-0.604-1.477-0.051-2.059l5.193-5.336c-1.235-0.535-2.729-0.277-3.713 0.756l-2.758 2.895c-1.264 1.326-1.213 3.426 0.113 4.688l0.799 0.762c1.322 1.264 3.424 1.211 4.688-0.113l2.758-2.895c0.984-1.034 1.171-2.538 0.575-3.747z" fill="#fff"/>	<path d="m6.263 13.936c0.207 0.195 0.566 0.154 0.801-0.096l6.312-6.619c0.234-0.25 0.26-0.609 0.055-0.805l-0.561-0.533c-0.205-0.197-0.562-0.154-0.799 0.094l-6.31 6.623c-0.236 0.248-0.262 0.607-0.057 0.803l0.559 0.533z" fill="#fff"/>	<path d="m17.597 2.283l-0.799-0.762c-1.326-1.264-3.422-1.213-4.686 0.111l-2.76 2.895c-0.982 1.035-1.17 2.537-0.576 3.75l5.307-5.516c0.555-0.582 1.479-0.604 2.059-0.049l0.354 0.334c0.582 0.555 0.604 1.479 0.049 2.061l-5.307 5.514c1.238 0.535 2.73 0.277 3.713-0.756l2.76-2.895c1.263-1.325 1.214-3.423-0.114-4.687z" fill="#fff"/>	<path d="m10.358 11.543l-5.195 5.336c-0.551 0.582-1.475 0.604-2.057 0.049l-0.352-0.336c-0.582-0.555-0.604-1.477-0.051-2.059l5.193-5.336c-1.235-0.535-2.729-0.277-3.713 0.756l-2.758 2.895c-1.264 1.326-1.213 3.426 0.113 4.688l0.799 0.762c1.322 1.264 3.424 1.211 4.688-0.113l2.758-2.895c0.984-1.034 1.171-2.538 0.575-3.747z" fill="#fff"/>	<path d="m6.263 13.936c0.207 0.195 0.566 0.154 0.801-0.096l6.312-6.619c0.234-0.25 0.26-0.609 0.055-0.805l-0.561-0.533c-0.205-0.197-0.562-0.154-0.799 0.094l-6.31 6.623c-0.236 0.248-0.262 0.607-0.057 0.803l0.559 0.533z" fill="#fff"/><rect id="Gen-Icon-link-hl-_x3C_Slice_x3E__7_" y=".605" width="19" height="18.607" fill="none"/></svg><svg xmlns:xlink="http://www.w3.org/1999/xlink" id="Gen-Icon-link" xml:space="preserve" height="19" viewBox="0 0 18.549 18.9" width="19" version="1.1" y="138" x="0px" enable-background="new 0 0 18.549 18.9"><g fill="#4E5A69"><path d="m17.52 1.972l-0.801-0.762c-1.324-1.264-3.422-1.215-4.686 0.113l-2.758 2.895c-0.986 1.033-1.173 2.535-0.578 3.746l5.307-5.514c0.557-0.582 1.479-0.604 2.062-0.049l0.35 0.334c0.582 0.555 0.604 1.477 0.051 2.059l-5.309 5.516c1.238 0.535 2.732 0.277 3.717-0.758l2.758-2.893c1.263-1.326 1.213-3.426-0.113-4.687z"/><path d="m10.281 11.231l-5.195 5.336c-0.553 0.58-1.477 0.604-2.059 0.049l-0.35-0.336c-0.584-0.555-0.605-1.477-0.049-2.059l5.189-5.338c-1.236-0.533-2.73-0.275-3.715 0.758l-2.756 2.895c-1.266 1.324-1.215 3.424 0.111 4.688l0.799 0.762c1.324 1.264 3.426 1.213 4.689-0.111l2.758-2.896c0.985-1.035 1.172-2.537 0.578-3.748z"/><path d="m6.186 13.624c0.207 0.195 0.564 0.152 0.801-0.094l6.311-6.623c0.236-0.248 0.26-0.607 0.055-0.805l-0.559-0.531c-0.205-0.195-0.564-0.154-0.801 0.096l-6.309 6.621c-0.236 0.246-0.262 0.607-0.055 0.803l0.557 0.533z"/><path d="m17.508 1.972l-0.799-0.762c-1.326-1.264-3.422-1.213-4.686 0.111l-2.76 2.895c-0.982 1.035-1.17 2.537-0.576 3.75l5.307-5.516c0.555-0.582 1.479-0.604 2.059-0.049l0.354 0.334c0.582 0.555 0.604 1.479 0.049 2.061l-5.307 5.514c1.238 0.535 2.73 0.277 3.713-0.756l2.76-2.895c1.263-1.326 1.214-3.424-0.114-4.687z"/><path d="m10.27 11.231l-5.195 5.336c-0.551 0.582-1.475 0.604-2.057 0.049l-0.352-0.336c-0.582-0.555-0.604-1.477-0.051-2.059l5.193-5.336c-1.236-0.535-2.73-0.277-3.715 0.756l-2.758 2.895c-1.264 1.326-1.213 3.426 0.113 4.688l0.799 0.762c1.322 1.264 3.424 1.211 4.688-0.113l2.758-2.895c0.985-1.034 1.172-2.538 0.577-3.747z"/><path d="m6.174 13.624c0.207 0.195 0.566 0.154 0.801-0.096l6.312-6.619c0.234-0.25 0.26-0.609 0.055-0.805l-0.561-0.533c-0.205-0.197-0.562-0.154-0.799 0.094l-6.311 6.623c-0.236 0.248-0.262 0.607-0.057 0.803l0.56 0.533z"/><path d="m17.508 1.972l-0.799-0.762c-1.326-1.264-3.422-1.213-4.686 0.111l-2.76 2.895c-0.982 1.035-1.17 2.537-0.576 3.75l5.307-5.516c0.555-0.582 1.479-0.604 2.059-0.049l0.354 0.334c0.582 0.555 0.604 1.479 0.049 2.061l-5.307 5.514c1.238 0.535 2.73 0.277 3.713-0.756l2.76-2.895c1.263-1.326 1.214-3.424-0.114-4.687z"/><path d="m10.27 11.231l-5.195 5.336c-0.551 0.582-1.475 0.604-2.057 0.049l-0.352-0.336c-0.582-0.555-0.604-1.477-0.051-2.059l5.193-5.336c-1.236-0.535-2.73-0.277-3.715 0.756l-2.758 2.895c-1.264 1.326-1.213 3.426 0.113 4.688l0.799 0.762c1.322 1.264 3.424 1.211 4.688-0.113l2.758-2.895c0.985-1.034 1.172-2.538 0.577-3.747z"/><path d="m6.174 13.624c0.207 0.195 0.566 0.154 0.801-0.096l6.312-6.619c0.234-0.25 0.26-0.609 0.055-0.805l-0.561-0.533c-0.205-0.197-0.562-0.154-0.799 0.094l-6.311 6.623c-0.236 0.248-0.262 0.607-0.057 0.803l0.56 0.533z"/></g><rect id="Gen-Icon-link-_x3C_Slice_x3E__2_" y="-1.75" width="18.911" height="21" fill="none"/></svg><svg xmlns:xlink="http://www.w3.org/1999/xlink" id="Gen-Icon-lock-hl" xml:space="preserve" height="20" viewBox="0 0 16 19.85" width="16" version="1.1" y="157" x="0px" enable-background="new 0 0 16 19.85"><rect y="-16.562" x="-243.75" height="49" width="393.25" fill="#253842"/><path d="m4.825 3.211c0-0.59 0.479-1.068 1.07-1.068h4.746c0.59 0 1.068 0.479 1.068 1.068v4.078h2.145v-4.078c0-1.77-1.443-3.211-3.213-3.211h-4.745c-1.77 0-3.213 1.441-3.213 3.211v4.078h2.143v-4.078z" fill="#fff"/><path d="m14.19 8.574h-11.845c-0.941 0-1.713 0.771-1.713 1.713v7.848c0 0.941 0.771 1.715 1.713 1.715h11.845c0.943 0 1.711-0.773 1.711-1.715v-7.848c0-0.941-0.767-1.713-1.711-1.713zm-5.066 5.697v2.176c0 0.234-0.191 0.428-0.426 0.428h-0.859c-0.236 0-0.43-0.193-0.43-0.428v-2.176c-0.316-0.252-0.523-0.641-0.523-1.08 0-0.764 0.619-1.383 1.383-1.383s1.381 0.619 1.381 1.383c-0.001 0.44-0.208 0.829-0.526 1.08z" fill="#fff"/><rect id="Gen-Icon-lock-hl-_x3C_Slice_x3E__8_" y="-.245" width="16" height="20.095" fill="none"/></svg><svg xmlns:xlink="http://www.w3.org/1999/xlink" id="Gen-Icon-lock" xml:space="preserve" height="20" viewBox="0 0 15.27 20.284" width="15" version="1.1" y="177" x="0px" enable-background="new 0 0 15.27 20.284"><path d="m4.193 3.646c0-0.59 0.479-1.068 1.07-1.068h4.746c0.59 0 1.068 0.479 1.068 1.068v4.078h2.145v-4.078c0-1.77-1.443-3.211-3.213-3.211h-4.745c-1.77 0-3.213 1.441-3.213 3.211v4.078h2.143v-4.078z" fill="#4E5A69"/><path d="m13.559 9.009h-11.846c-0.942 0-1.713 0.771-1.713 1.713v7.848c0 0.941 0.771 1.715 1.713 1.715h11.846c0.943 0 1.711-0.773 1.711-1.715v-7.848c0-0.942-0.768-1.713-1.711-1.713zm-5.067 5.697v2.176c0 0.234-0.191 0.428-0.426 0.428h-0.859c-0.236 0-0.43-0.193-0.43-0.428v-2.176c-0.316-0.252-0.523-0.641-0.523-1.08 0-0.764 0.619-1.383 1.383-1.383s1.381 0.619 1.381 1.383c0 0.439-0.207 0.828-0.526 1.08z" fill="#4E5A69"/><rect id="Gen-Icon-lock-_x3C_Slice_x3E__3_" y=".435" width="15.27" height="19.85" fill="none"/></svg></svg>
