<?xml version="1.0" encoding="utf-8"?>
<!-- Generator: Adobe Illustrator 16.0.4, SVG Export Plug-In . SVG Version: 6.00 Build 0)  -->
<!DOCTYPE svg PUBLIC "-//W3C//DTD SVG 1.0//EN" "http://www.w3.org/TR/2001/REC-SVG-20010904/DTD/svg10.dtd">
<svg version="1.0" xmlns="http://www.w3.org/2000/svg" xmlns:xlink="http://www.w3.org/1999/xlink" x="0px" y="0px" width="45px"
	 height="45px" viewBox="0 0 45 45" enable-background="new 0 0 45 45" xml:space="preserve">
<g id="Tab_area">
</g>
<g id="Art">
	<path opacity="0.5" d="M12.669,25.004c0.396-0.644,0.896-1.279,1.496-1.91c0.602-0.628,1.325-1.196,2.172-1.703
		c0.848-0.506,1.664-0.928,2.791-1.263c1.126-0.336,2.418-0.538,3.875-0.603v-5.595l11.088,8.632l-11.088,8.506v-6.177
		c-0.368,0-0.857,0.012-1.462,0.035c-0.605,0.024-1.281,0.089-2.023,0.198c-0.744,0.109-1.354,0.271-2.172,0.49
		c-0.819,0.219-1.624,0.521-2.414,0.907c-0.792,0.39-1.534,0.818-2.228,1.401c-0.697,0.581-1.296,1.294-1.798,2.135
		C11.144,28.166,11.732,26.52,12.669,25.004z"/>
</g>
<g id="Label">
</g>
</svg>
