<?xml version="1.0" encoding="utf-8"?>
<!-- Generator: Adobe Illustrator 16.0.0, SVG Export Plug-In . SVG Version: 6.00 Build 0)  -->
<!DOCTYPE svg PUBLIC "-//W3C//DTD SVG 1.1//EN" "http://www.w3.org/Graphics/SVG/1.1/DTD/svg11.dtd">
<svg version="1.1" id="Layer_1" xmlns="http://www.w3.org/2000/svg" xmlns:xlink="http://www.w3.org/1999/xlink" x="0px" y="0px"
	 width="32.931px" height="32.931px" viewBox="33.607 33.754 32.931 32.931" enable-background="new 33.607 33.754 32.931 32.931"
	 xml:space="preserve">
<g id="Captions" display="none">
</g>
<circle fill="#F2F3F4" stroke="#D8DDE3" stroke-width="0.9222" stroke-miterlimit="10" cx="50.073" cy="50.219" r="16.004"/>
<g>
	<path fill="#757F8D" d="M50,48.629c1.215,0,2.2,0.985,2.2,2.2c0,1.214-0.984,2.199-2.2,2.199c-1.214,0-2.199-0.985-2.199-2.199
		C47.8,49.614,48.786,48.629,50,48.629 M50,47.629c-1.764,0-3.199,1.436-3.199,3.2c0,1.764,1.435,3.199,3.199,3.199
		s3.2-1.436,3.2-3.199C53.199,49.064,51.764,47.629,50,47.629L50,47.629z"/>
</g>
<polygon fill="#757F8D" points="52.445,43.892 50.071,40.326 47.698,43.892 "/>
<polygon fill="#757F8D" points="47.698,56.546 50.075,60.111 52.445,56.546 "/>
<polygon fill="#757F8D" points="43.764,47.847 40.202,50.223 43.764,52.595 "/>
<polygon fill="#757F8D" points="56.701,52.38 59.941,50.219 56.701,48.06 "/>
<circle fill="#F2F3F4" stroke="#D8DDE3" stroke-width="0.9222" stroke-miterlimit="10" cx="620.703" cy="553.779" r="16.004"/>
<g>
	<path fill="#757F8D" d="M620.63,552.188c1.216,0,2.2,0.985,2.2,2.2c0,1.214-0.984,2.199-2.2,2.199
		c-1.214,0-2.199-0.985-2.199-2.199C618.431,553.174,619.416,552.188,620.63,552.188 M620.63,551.188
		c-1.764,0-3.199,1.436-3.199,3.2c0,1.764,1.436,3.199,3.199,3.199c1.765,0,3.2-1.436,3.2-3.199
		C623.83,552.624,622.395,551.188,620.63,551.188L620.63,551.188z"/>
</g>
<polygon fill="#757F8D" points="623.076,547.451 620.701,543.886 618.328,547.451 "/>
<polygon fill="#757F8D" points="618.328,560.105 620.705,563.671 623.076,560.105 "/>
<polygon fill="#757F8D" points="614.395,551.406 610.832,553.782 614.395,556.154 "/>
<polygon fill="#757F8D" points="627.332,555.939 630.572,553.778 627.332,551.619 "/>
<circle fill="#F2F3F4" stroke="#3939FF" stroke-width="0.9222" stroke-miterlimit="10" cx="50.073" cy="50.219" r="16.004"/>
<g>
	<g>
		<path fill="#3939FF" d="M50,48.629c1.215,0,2.2,0.985,2.2,2.2c0,1.214-0.984,2.199-2.2,2.199c-1.214,0-2.199-0.985-2.199-2.199
			C47.8,49.614,48.786,48.629,50,48.629 M50,47.629c-1.764,0-3.199,1.436-3.199,3.2c0,1.764,1.435,3.199,3.199,3.199
			s3.2-1.436,3.2-3.199C53.199,49.064,51.764,47.629,50,47.629L50,47.629z"/>
	</g>
</g>
<polygon fill="#3939FF" points="52.445,43.892 50.071,40.326 47.698,43.892 "/>
<polygon fill="#3939FF" points="47.698,56.546 50.075,60.111 52.445,56.546 "/>
<polygon fill="#3939FF" points="43.764,47.847 40.202,50.223 43.764,52.595 "/>
<polygon fill="#3939FF" points="56.701,52.38 59.941,50.219 56.701,48.06 "/>
</svg>
