<?xml version="1.0" encoding="UTF-8"?>
<!DOCTYPE svg PUBLIC "-//W3C//DTD SVG 1.1//EN" "http://www.w3.org/Graphics/SVG/1.1/DTD/svg11.dtd">
<svg version="1.1" xmlns="http://www.w3.org/2000/svg" xmlns:xlink="http://www.w3.org/1999/xlink" width="165" height="121"  xml:space="preserve">
    <g id="group">
        <path id="bezier" stroke="none" fill="rgb(255, 255, 255)" d="M 109.45,76.13 L 109.45,55.91 98.12,55.91 C 97.02,51.17 95.18,46.71 92.61,42.59 L 100.62,34.58 86.31,20.28 78.3,28.28 C 74.19,25.72 69.72,23.87 64.99,22.77 L 64.99,11.44 44.75,11.44 44.75,22.77 C 40.02,23.87 35.55,25.72 31.44,28.28 L 23.43,20.28 9.13,34.58 17.13,42.59 C 14.57,46.7 12.72,51.17 11.62,55.91 L 0.29,55.91 0.29,76.13 11.62,76.13 C 12.72,80.87 14.57,85.34 17.13,89.46 L 9.13,97.46 23.43,111.77 31.44,103.76 C 35.55,106.33 40.02,108.18 44.75,109.28 L 44.75,120.6 64.99,120.6 64.99,109.28 C 69.72,108.18 74.19,106.33 78.3,103.76 L 86.31,111.77 100.62,97.46 92.61,89.46 C 95.18,85.34 97.02,80.87 98.12,76.13 L 109.45,76.13 Z M 54.87,90.16 C 41.56,90.16 30.73,79.33 30.73,66.02 30.73,52.71 41.56,41.88 54.87,41.88 68.19,41.88 79.01,52.71 79.01,66.02 79.01,79.33 68.19,90.16 54.87,90.16 Z M 54.87,90.16" />
        <path id="bezier2" stroke="none" fill="rgb(255, 255, 255)" d="M 54.87,46.16 C 43.92,46.16 35.01,55.07 35.01,66.02 35.01,76.97 43.92,85.88 54.87,85.88 65.83,85.88 74.74,76.97 74.74,66.02 74.74,55.07 65.83,46.16 54.87,46.16 Z M 54.87,46.16" />
    </g>
    <path id="bezier3" stroke="none" fill="rgb(255, 255, 255)" d="M 158.73,37.21 C 159.14,34.25 159.06,31.25 158.49,28.31 L 164.88,25.45 159.78,14.03 153.39,16.88 C 151.58,14.49 149.4,12.43 146.92,10.75 L 149.42,4.22 137.74,-0.25 135.24,6.28 C 132.27,5.87 129.28,5.95 126.33,6.53 L 123.47,0.13 112.05,5.23 114.91,11.62 C 112.51,13.44 110.45,15.61 108.77,18.09 L 102.24,15.59 97.77,27.27 104.3,29.78 C 103.89,32.75 103.98,35.74 104.55,38.68 L 98.16,41.54 103.25,52.96 109.65,50.11 C 111.46,52.5 113.63,54.56 116.11,56.24 L 113.62,62.77 125.3,67.24 127.8,60.71 C 130.77,61.12 133.76,61.03 136.71,60.46 L 139.56,66.85 150.98,61.76 148.13,55.36 C 150.52,53.55 152.58,51.38 154.26,48.9 L 160.8,51.4 165.26,39.72 158.73,37.21 Z M 137.6,47.13 C 130.09,50.48 121.25,47.1 117.89,39.58 114.54,32.06 117.92,23.22 125.44,19.87 132.95,16.51 141.79,19.9 145.15,27.41 148.5,34.93 145.12,43.77 137.6,47.13 Z M 137.6,47.13" />
</svg>
