<?xml version="1.0" encoding="UTF-8"?>
<!DOCTYPE svg PUBLIC "-//W3C//DTD SVG 1.1//EN" "http://www.w3.org/Graphics/SVG/1.1/DTD/svg11.dtd">
<svg version="1.1" xmlns="http://www.w3.org/2000/svg" xmlns:xlink="http://www.w3.org/1999/xlink" width="147" height="147"  xml:space="preserve">
    <path id="bezier" stroke="none" fill="rgb(255, 255, 255)" d="M 134.17,82.96 L 111.94,82.95 C 107.8,82.95 104.44,79.6 104.44,75.45 104.44,57.75 90.04,43.34 72.33,43.34 68.7,43.34 65.14,43.94 61.75,45.12 57.84,46.49 53.56,44.43 52.2,40.52 50.84,36.6 52.9,32.33 56.81,30.96 61.79,29.23 67.02,28.34 72.33,28.34 95.76,28.34 115.25,45.53 118.85,67.96 126.84,67.96 137.06,67.96 138.14,67.96 138.2,67.95 138.25,67.95 138.31,67.95 142.44,67.98 145.8,71.35 145.78,75.48 145.78,76.21 145.54,82.37 138.21,82.92 L 138.21,82.95 C 138.08,82.95 137.95,82.95 137.81,82.94 137.6,82.95 137.38,82.96 137.15,82.96 L 134.17,82.96 Z M 134.17,82.96" />
    <path id="bezier2" stroke="none" fill="rgb(255, 255, 255)" d="M 74.11,120.31 C 50.68,120.31 31.19,103.12 27.59,80.7 19.37,80.7 8.73,80.7 7.64,80.7 7.58,80.7 7.52,80.7 7.47,80.7 3.33,80.67 -0.01,77.31 0,73.18 0,72.45 0.25,66.3 7.57,65.74 L 7.57,65.7 C 7.71,65.7 7.84,65.71 7.98,65.72 8.2,65.71 8.42,65.7 8.66,65.7 L 11.72,65.7 34.49,65.7 C 38.64,65.7 41.99,69.06 41.99,73.2 41.99,90.91 56.4,105.31 74.1,105.31 77.55,105.31 80.94,104.77 84.18,103.7 88.1,102.41 92.35,104.54 93.65,108.47 94.95,112.41 92.81,116.65 88.88,117.95 84.12,119.52 79.15,120.31 74.11,120.31 Z M 74.11,120.31" />
    <path id="bezier3" stroke="none" fill="rgb(255, 255, 255)" d="M 73.22,146.4 C 32.86,146.4 0.02,113.56 0.02,73.2 0.02,32.84 32.86,0 73.22,0 113.58,0 146.42,32.84 146.42,73.2 146.42,113.56 113.58,146.4 73.22,146.4 Z M 73.22,7 C 36.72,7 7.02,36.7 7.02,73.2 7.02,109.7 36.72,139.4 73.22,139.4 109.72,139.4 139.42,109.7 139.42,73.2 139.42,36.7 109.72,7 73.22,7 Z M 73.22,7" />
    <path id="bezier4" stroke="none" fill="rgb(255, 255, 255)" d="M 94.56,74.59 C 94.56,62.81 85.01,53.25 73.22,53.25 61.43,53.25 51.87,62.81 51.87,74.59 51.87,86.39 61.43,95.94 73.22,95.94 85.01,95.94 94.56,86.39 94.56,74.59 Z M 94.56,74.59" />
</svg>
