<?xml version="1.0" standalone="no"?>
<!DOCTYPE svg PUBLIC "-//W3C//DTD SVG 1.1//EN" "http://www.w3.org/Graphics/SVG/1.1/DTD/svg11.dtd">
<svg xmlns="http://www.w3.org/2000/svg"><metadata>This SVG WebFont was generated by YouWorkForThem.
Copyright (c) Mark Simonson, 2005. All rights reserved.</metadata><defs><font horiz-adv-x="1206" id="ywftsvg"><font-face ascent="1618" bbox="-352 -606 2417 1862" cap-height="1366" descent="-430" font-family="" font-stretch="normal" font-weight="800" panose-1="2 0 5 6 3 0 0 2 0 4" underline-position="0" underline-thickness="0" unicode-range="U+000D-FB04" units-per-em="2048" x-height="989"/><missing-glyph d="M776 -123v1602h-590v-1602h590zM842 -184h-719v1724h719v-1724z" horiz-adv-x="964"/><glyph d="M498 0h-316v715h-164v274h164v49q0 156 100 252t271 96q172 0 268 -98l-116 -180q-37 39 -91 39t-86 -29q-31 -29 -30 -80v-49h200v-274h-200v-715zM1477 -401q-95 0 -147 15t-113 54l79 232q55 -43 127 -43q121 0 121 151v981h316v-981q0 -188 -96 -298t-287 -111z M1702 1077q-76 0 -128 53q-52 54 -52 130t52 128t128 52t128 -52t52 -128t-52 -130t-128 -53zM1212 0h-315v715h-164v274h164v49q0 156 99 252q100 96 240 96t224 -45l-59 -219q-31 25 -81 25t-79 -30t-29 -79v-49h201v-274h-201v-715z" glyph-name="uniE004" horiz-adv-x="1976" unicode="ffj"/><glyph d="M762 -401q-96 0 -148 15t-112 54l80 232q55 -43 127 -43q121 0 120 151v981h316v-981q0 -188 -96 -299q-97 -110 -287 -110zM987 1077q-76 0 -128 53q-52 54 -52 130t52 128t128 52t128 -52t52 -128t-52 -130t-128 -53zM498 0h-316v715h-164v274h164v49q0 156 100 252 t240 96t223 -45l-59 -219q-31 25 -81 25t-79 -30t-28 -79v-49h200v-274h-200v-715z" glyph-name="uniE005" horiz-adv-x="1259" unicode="fj"/><glyph d="M1212 0h-315v715h-164v274h164v49q0 156 99 252t271 96t269 -98l-117 -180q-37 39 -91 39t-85 -29t-31 -80v-49h201v-274h-201v-715zM498 0h-316v715h-164v274h164v49q0 156 100 252t271 96q172 0 268 -98l-116 -180q-37 39 -91 39t-86 -29q-31 -29 -30 -80v-49h200v-274 h-200v-715z" glyph-name="uniFB00" horiz-adv-x="1429" unicode="ff"/><glyph d="M1145 0h-316v989h316v-989zM987 1077q-76 0 -128 53q-52 54 -52 130t52 128t128 52t128 -52t52 -128t-52 -130t-128 -53zM498 0h-316v715h-164v274h164v49q0 156 100 252t240 96t223 -45l-59 -219q-31 25 -81 25t-79 -30t-28 -79v-49h200v-274h-200v-715z" glyph-name="uniFB01" horiz-adv-x="1259" unicode="fi"/><glyph d="M1145 0h-316v1366h316v-1366zM498 0h-316v715h-164v274h164v49q0 156 100 252t240 96t223 -45l-59 -219q-31 25 -81 25t-79 -30t-28 -79v-49h200v-274h-200v-715z" glyph-name="uniFB02" horiz-adv-x="1259" unicode="fl"/><glyph d="M498 0h-316v715h-164v274h164v49q0 156 100 252t271 96q172 0 268 -98l-116 -180q-37 39 -91 39t-86 -29q-31 -29 -30 -80v-49h200v-274h-200v-715zM1860 0h-316v989h316v-989zM1702 1077q-76 0 -128 53q-52 54 -52 130t52 128t128 52t128 -52t52 -128t-52 -130t-128 -53 zM1212 0h-315v715h-164v274h164v49q0 156 99 252q100 96 240 96t224 -45l-59 -219q-31 25 -81 25t-79 -30t-29 -79v-49h201v-274h-201v-715z" glyph-name="uniFB03" horiz-adv-x="1976" unicode="ffi"/><glyph d="M498 0h-316v715h-164v274h164v49q0 156 100 252t271 96q172 0 268 -98l-116 -180q-37 39 -91 39t-86 -29q-31 -29 -30 -80v-49h200v-274h-200v-715zM1860 0h-316v1366h316v-1366zM1212 0h-315v715h-164v274h164v49q0 156 99 252q100 96 240 96t224 -45l-59 -219 q-31 25 -81 25t-79 -30t-29 -79v-49h201v-274h-201v-715z" glyph-name="uniFB04" horiz-adv-x="1976" unicode="ffl"/><glyph d="M1145 0h-316v1366h316v-494q113 142 297 142t308 -140t124 -382q0 -240 -123 -378t-304 -138t-302 139v-115zM1333 254q96 0 158 65q61 66 61 176q0 109 -61 175t-158 65q-51 1 -105 -25t-83 -65v-303q29 -40 83 -64t105 -24zM498 0h-316v715h-164v274h164v49 q0 156 100 252t240 96t223 -45l-59 -219q-31 25 -81 25t-79 -30t-28 -79v-49h200v-274h-200v-715z" glyph-name="f_b.liga" horiz-adv-x="1925" unicode="fb"/><glyph d="M1817 0h-316v575q0 160 -164 160q-113 0 -190 -96v-639h-316v1366h316v-498q125 145 342 146q164 0 246 -83t82 -226v-705zM498 0h-316v715h-164v274h164v49q0 156 100 252t240 96t223 -45l-59 -219q-31 25 -81 25t-79 -30t-28 -79v-49h200v-274h-200v-715z" glyph-name="f_h.liga" horiz-adv-x="1931" unicode="fh"/><glyph d="M1145 0h-316v1366h316v-772l301 395h381l-365 -450l383 -539h-389l-217 350l-94 -112v-238zM498 0h-316v715h-164v274h164v49q0 156 100 252t240 96t223 -45l-59 -219q-31 25 -81 25t-79 -30t-28 -79v-49h200v-274h-200v-715z" glyph-name="f_k.liga" horiz-adv-x="1832" unicode="fk"/><glyph d="M776 -123v1602h-590v-1602h590zM842 -184h-719v1724h719v-1724z" glyph-name=".notdef" horiz-adv-x="964"/><glyph glyph-name="glyph1" horiz-adv-x="0"/><glyph glyph-name="glyph1" horiz-adv-x="0"/><glyph glyph-name="glyph2" horiz-adv-x="681"/><glyph glyph-name="space" horiz-adv-x="524" unicode=" "/><glyph d="M274 -23q-78 1 -134 57t-56 134t56 135t134 57t136 -57t57 -135q1 -78 -57 -134t-136 -57zM416 477h-281l-49 889h377z" glyph-name="exclam" horiz-adv-x="548" unicode="!"/><glyph d="M652 1386q68 0 117 -48q48 -48 48 -102t-74 -392l-24 -113h-131q-98 449 -98 505t46 102q48 48 116 48zM80 1236q0 56 48 102q48 48 116 48t116 -48t50 -115q0 -28 -74 -379l-25 -113h-133q-98 449 -98 505z" glyph-name="quotedbl" horiz-adv-x="897" unicode="&quot;"/><glyph d="M682 530l102 304h-176l-100 -304h174zM733 0h-227l112 336h-178l-110 -336h-226l111 336h-186l63 194h191l98 304h-188l61 192h195l112 340h225l-112 -340h176l113 340h227l-115 -340h191l-60 -192h-194l-103 -304h197l-62 -194h-200z" glyph-name="numbersign" horiz-adv-x="1294" unicode="#"/><glyph d="M541 -205v187q-303 29 -492 211l187 264q180 -180 436 -181q90 0 142 32t52 78q0 85 -195 114t-378 113q-86 40 -143 128t-58 211q0 162 119 283t330 145v193h227v-195q248 -35 424 -182l-193 -252q-172 141 -399 141q-147 0 -147 -98q0 -75 199 -108q199 -32 372 -115 q86 -41 143 -127t58 -205q0 -186 -119 -306t-338 -144v-187h-227z" glyph-name="dollar" horiz-adv-x="1280" unicode="$"/><glyph d="M1036 315q0 -75 38 -113t101 -38q62 0 101 39t39 113t-40 114q-40 41 -101 41q-62 0 -100 -41t-38 -115zM401 891q61 0 102 40q40 41 40 113t-40 113q-39 41 -101 41t-100 -41t-38 -114t38 -113t99 -39zM1532 316q0 -146 -99 -244t-258 -97q-159 -1 -257 97t-98 244 t98 244t257 99q159 0 258 -98q99 -99 99 -245zM442 0h-176l873 1366h178zM403 702q-160 0 -258 98t-98 243q0 147 98 245t258 98q159 0 259 -98t100 -244t-100 -244t-259 -98z" glyph-name="percent" horiz-adv-x="1579" unicode="%"/><glyph d="M602 887q170 79 170 174q0 51 -28 77t-74 26t-81 -34q-34 -32 -34 -90t47 -153zM546 219q73 0 148 43q-136 151 -250 311q-78 -67 -78 -157t54 -144q53 -54 126 -53zM496 -25q-198 1 -328 105q-131 104 -131 299q0 141 77 231t212 156q-82 164 -82 296t116 228 q117 96 286 96t282 -82q112 -82 112 -220t-86 -218t-243 -149q41 -53 86 -111t106 -131q72 115 113 242l248 -117q-86 -184 -193 -317q110 -125 262 -283h-393l-82 84q-164 -109 -362 -109z" glyph-name="ampersand" horiz-adv-x="1329" unicode="&amp;"/><glyph d="M80 1236q0 56 48 102q48 48 116 48t116 -48t50 -115q0 -28 -74 -379l-25 -113h-133q-98 449 -98 505z" glyph-name="quotesingle" horiz-adv-x="489" unicode="'"/><glyph d="M80 498q0 250 94 500t250 405l199 -152q-109 -184 -157 -360t-48 -392q0 -215 48 -393t157 -360l-199 -154q-156 156 -250 406t-94 500z" glyph-name="parenleft" horiz-adv-x="659" unicode="("/><glyph d="M240 498q0 217 -49 393q-48 176 -154 360l199 152q156 -156 250 -406q188 -503 -1 -999q-93 -250 -249 -406l-199 154q203 346 203 752z" glyph-name="parenright" horiz-adv-x="659" unicode=")"/><glyph d="M440 727h-149l10 219l-184 -119l-74 129l195 101l-195 100l74 127l184 -117l-10 219h149l-12 -219l184 117l76 -127l-194 -100l194 -101l-76 -129l-184 119z" glyph-name="asterisk" horiz-adv-x="731" unicode="*"/><glyph d="M979 596h-356v-406h-207v406h-357v188h357v392h207v-392h356v-188z" glyph-name="plus" horiz-adv-x="1038" unicode="+"/><glyph d="M479 125q0 -252 -233 -416l-131 107q51 27 104 84t70 110q-31 -6 -47 -6q-68 0 -114 47t-46 123t55 131t137 55t144 -63t61 -172z" glyph-name="comma" horiz-adv-x="548" unicode=","/><glyph d="M553 365h-492v264h492v-264z" glyph-name="hyphen" horiz-adv-x="614" unicode="-"/><glyph d="M274 -25q-78 -1 -135 57t-57 136t57 135t135 57t136 -57t57 -135q1 -78 -57 -136t-136 -57z" glyph-name="period" horiz-adv-x="552" unicode="."/><glyph d="M223 -41h-223l485 1448h224z" glyph-name="slash" horiz-adv-x="708" unicode="/"/><glyph d="M639 287q229 0 229 394t-229 394t-229 -394t229 -394zM639 -25q-145 -1 -259 59t-184 160q-142 203 -143 488q0 408 259 602q136 102 326 102t328 -102q257 -192 259 -602q0 -286 -143 -487q-70 -100 -184 -160t-259 -60z" glyph-name="zero" horiz-adv-x="1277" unicode="0"/><glyph d="M793 0h-353v915l-229 -231l-201 211l477 471h306v-1366z" glyph-name="one" horiz-adv-x="915" unicode="1"/><glyph d="M1161 0h-1071v274q455 328 579 443t124 215q-1 68 -55 106t-134 37q-205 0 -364 -149l-195 233q103 115 251 171t302 56q244 0 398 -124t155 -330q0 -154 -115 -299t-374 -326h499v-307z" glyph-name="two" horiz-adv-x="1243" unicode="2"/><glyph d="M598 -25q-188 -1 -334 59t-231 156l178 240q70 -70 173 -106t207 -37q104 0 163 37t59 96t-54 87t-204 28t-170 -3v314q27 -2 184 -2q221 0 222 106q1 61 -63 93t-167 32q-193 0 -340 -131l-170 221q197 221 547 221q258 0 400 -101t143 -273q0 -117 -87 -202t-212 -105 q123 -11 222 -99t99 -225q1 -180 -155 -293t-410 -113z" glyph-name="three" horiz-adv-x="1232" unicode="3"/><glyph d="M698 559v500l-311 -500h311zM1053 0h-355v250h-653v274l518 842h490v-807h166v-309h-166v-250z" glyph-name="four" horiz-adv-x="1261" unicode="4"/><glyph d="M633 -25q-348 0 -551 199l192 246q145 -133 355 -133q106 0 165 45q58 44 58 114t-55 113t-158 43q-162 0 -270 -102l-244 59v807h991v-307h-639v-264q113 109 293 109t310 -124q130 -122 130 -332t-155 -342q-156 -131 -422 -131z" glyph-name="five" horiz-adv-x="1263" unicode="5"/><glyph d="M640 287q104 0 164 47q58 48 58 118t-66 111q-67 41 -157 41q-139 0 -229 -92q8 -94 67 -160t163 -65zM674 -25q-309 0 -465 196q-156 195 -156 515q1 320 183 510t493 190q248 0 416 -131l-154 -270q-111 90 -251 90t-235 -87t-95 -224v-16q51 70 142 112t193 43 q197 0 335 -120q138 -119 138 -329t-152 -344q-154 -134 -392 -135z" glyph-name="six" horiz-adv-x="1263" unicode="6"/><glyph d="M43 1059v307h1071v-244l-481 -1122h-387l463 1059h-666z" glyph-name="seven" horiz-adv-x="1146" unicode="7"/><glyph d="M632 268q97 0 160 37q62 37 62 95t-72 96t-149 49q-80 -10 -151 -48q-70 -39 -70 -97t62 -95t158 -37zM829 974q0 54 -54 87t-143 33q-90 0 -144 -33t-54 -87t62 -88t137 -44q76 10 136 44t60 88zM53 360q0 113 77 205t200 140q-254 96 -254 317q0 94 48 167t130 115 q160 82 379 82q315 0 471 -154q86 -85 86 -210q0 -219 -256 -317q123 -47 200 -139q76 -92 76 -213q0 -120 -85 -210q-159 -168 -492 -168q-242 1 -411 99t-169 286z" glyph-name="eight" horiz-adv-x="1265" unicode="8"/><glyph d="M623 760q143 0 229 92q-6 94 -66 160t-166 66q-104 0 -161 -48t-57 -118t66 -111q67 -41 155 -41zM532 -23q-250 0 -413 132l151 270q111 -90 258 -90t236 91q88 91 88 220v16q-51 -70 -142 -114t-192 -43q-195 0 -335 121q-140 120 -140 330t154 344t391 135 q309 0 465 -196q155 -195 155 -515t-182 -510t-494 -191z" glyph-name="nine" horiz-adv-x="1263" unicode="9"/><glyph d="M274 -25q-78 -1 -135 57t-57 136t57 135t135 57t136 -57t57 -135q1 -78 -57 -136t-136 -57zM274 618q-78 0 -135 58t-57 135q0 78 57 135q57 58 135 58t136 -58t57 -135q1 -77 -57 -135t-136 -58z" glyph-name="colon" horiz-adv-x="530" unicode=":"/><glyph d="M479 127q0 -250 -233 -414l-131 107q51 25 104 82t70 112q-20 -8 -47 -8q-68 0 -114 47t-46 124t55 132t138 55t143 -64t61 -173zM274 618q-78 0 -135 58t-57 137q0 78 57 134q57 57 135 57t136 -56t57 -135q1 -79 -57 -137t-136 -58z" glyph-name="semicolon" horiz-adv-x="548" unicode=";"/><glyph d="M979 184l-920 387v228l920 389v-225l-707 -279l707 -276v-224z" glyph-name="less" horiz-adv-x="1038" unicode="&lt;"/><glyph d="M979 399h-920v189h920v-189zM979 780h-920v189h920v-189z" glyph-name="equal" horiz-adv-x="1038" unicode="="/><glyph d="M979 571l-920 -387v224l707 276l-707 279v225l920 -389v-228z" glyph-name="greater" horiz-adv-x="1038" unicode=">"/><glyph d="M465 -25q-78 -1 -135 57t-58 136q0 78 58 135t135 57q78 0 135 -57t57 -135t-57 -136t-135 -57zM543 995q0 80 -122 80t-214 -106l-197 225q82 94 202 143t249 49q201 0 319 -90t119 -239q0 -149 -112 -247q-46 -40 -93 -73q-114 -80 -112 -147q0 -51 30 -82l-272 -70 q-64 78 -64 193t95 196q39 33 78 60q94 65 94 108z" glyph-name="question" horiz-adv-x="927" unicode="?"/><glyph d="M727 393q106 0 188 109l46 217q-45 82 -147 82t-169 -76t-67 -162t40 -128t109 -42zM721 -143q-279 0 -464 185t-185 458q0 324 246 566t550 241q306 1 484 -179t178 -438q0 -127 -41 -229q-72 -179 -246 -255q-74 -32 -143 -32q-170 0 -207 143l-2 15q-53 -76 -128 -117 t-153 -41q-147 0 -233 98t-86 252q0 199 138 346q138 148 315 148t253 -125l21 98h278l-100 -471q-4 -20 -4 -53q0 -84 66 -84t122 81q55 81 56 226q0 242 -152 386t-424 144t-487 -213q-215 -214 -215 -501q0 -242 163 -404t410 -161q193 0 369 110l47 -65 q-201 -129 -426 -129z" glyph-name="at" horiz-adv-x="1603" unicode="@"/><glyph d="M887 504l-174 514l-174 -514h348zM1450 0h-399l-68 197h-539l-67 -197h-400l515 1366h442z" glyph-name="A" horiz-adv-x="1427" unicode="A"/><glyph d="M829 297q63 0 100 34q36 34 36 88t-36 89t-100 35h-354v-246h354zM817 842q53 0 87 32t34 81q0 50 -34 82t-87 32h-342v-227h342zM922 0h-799v1366h774q191 0 295 -103t104 -235t-66 -217q-66 -84 -167 -106q111 -15 185 -111t75 -238q0 -142 -104 -250 q-104 -106 -297 -106z" glyph-name="B" horiz-adv-x="1392" unicode="B"/><glyph d="M793 -25q-317 0 -529 198q-211 198 -211 510t210 509t530 197q412 0 596 -367l-304 -143q-35 84 -115 141q-81 57 -177 57q-166 1 -274 -113q-107 -114 -107 -282t108 -282t273 -113q96 0 177 57t115 141l304 -143q-79 -156 -225 -262t-371 -105z" glyph-name="C" horiz-adv-x="1417" unicode="C"/><glyph d="M696 307q174 0 277 110q102 109 102 271t-98 266t-279 105h-223v-752h221zM698 0h-575v1366h573q328 0 534 -184t206 -498t-206 -498q-206 -186 -532 -186z" glyph-name="D" horiz-adv-x="1488" unicode="D"/><glyph d="M1124 0h-1001v1366h1001v-307h-649v-213h635v-307h-635v-232h649v-307z" glyph-name="E" unicode="E"/><glyph d="M475 0h-352v1366h1001v-307h-649v-213h635v-307h-635v-539z" glyph-name="F" horiz-adv-x="1191" unicode="F"/><glyph d="M793 -25q-313 0 -527 195q-213 195 -213 512t213 512t527 195q213 -1 358 -95t225 -237l-295 -154q-41 74 -117 124q-77 50 -171 50q-166 1 -274 -113q-107 -114 -107 -282t108 -282t273 -113q73 1 143 25t108 57v106h-307v309h660v-542q-242 -267 -604 -267z" glyph-name="G" horiz-adv-x="1480" unicode="G"/><glyph d="M1395 0h-353v549h-567v-549h-352v1366h352v-510h567v510h353v-1366z" glyph-name="H" horiz-adv-x="1517" unicode="H"/><glyph d="M475 0h-352v1366h352v-1366z" glyph-name="I" horiz-adv-x="598" unicode="I"/><glyph d="M885 469q1 -246 -135 -370t-370 -124t-374 123l148 269q96 -80 188 -80t141 50t49 136v893h353v-897z" glyph-name="J" horiz-adv-x="1007" unicode="J"/><glyph d="M475 0h-352v1366h352v-561l420 561h434l-530 -639l559 -727h-432l-359 514l-92 -115v-399z" glyph-name="K" horiz-adv-x="1339" unicode="K"/><glyph d="M1024 0h-901v1366h352v-1059h549v-307z" glyph-name="L" horiz-adv-x="1083" unicode="L"/><glyph d="M1673 0h-352v889l-346 -889h-156l-344 889v-889h-352v1366h489l285 -741l287 741h489v-1366z" glyph-name="M" horiz-adv-x="1796" unicode="M"/><glyph d="M1393 0h-340l-578 791v-791h-352v1366h362l553 -752v752h355v-1366z" glyph-name="N" horiz-adv-x="1515" unicode="N"/><glyph d="M412 682q0 -170 102 -282t269 -113q167 0 270 112q102 113 102 283t-102 283q-101 113 -269 113t-270 -114q-102 -112 -102 -282zM784 -25q-315 0 -523 199t-208 508t208 508t523 199q314 0 522 -199t208 -508t-208 -508q-207 -199 -522 -199z" glyph-name="O" horiz-adv-x="1568" unicode="O"/><glyph d="M760 766q72 0 118 39t46 107t-46 108q-46 39 -118 39h-285v-293h285zM475 0h-352v1366h684q221 0 348 -130t127 -324t-127 -324t-348 -129h-332v-459z" glyph-name="P" horiz-adv-x="1316" unicode="P"/><glyph d="M784 287q45 0 80 8l-125 151l244 197l129 -156q43 92 43 195q0 170 -102 283q-101 113 -269 113t-270 -114q-102 -112 -102 -282t102 -282t270 -113zM784 -25q-315 0 -523 199t-208 508t208 508t523 199q314 0 522 -199t208 -494t-173 -487l86 -105l-245 -196l-101 123 q-143 -56 -297 -56z" glyph-name="Q" horiz-adv-x="1568" unicode="Q"/><glyph d="M754 766q72 0 120 39t50 107q0 68 -50 108q-50 39 -120 39h-279v-293h279zM475 459v-459h-352v1366h684q221 0 348 -129t127 -309t-81 -284q-81 -103 -191 -142l278 -502h-403l-230 459h-180z" glyph-name="R" horiz-adv-x="1353" unicode="R"/><glyph d="M631 -25q-379 0 -606 218l186 264q180 -180 436 -181q90 0 143 32q52 32 52 78q0 85 -193 114t-381 113q-86 40 -143 128t-57 211q0 180 146 308t398 126q334 0 555 -190l-192 -252q-172 141 -400 141q-147 0 -147 -98q0 -76 198 -108t373 -115q85 -41 143 -127t58 -205 q0 -209 -150 -333t-419 -124z" glyph-name="S" horiz-adv-x="1241" unicode="S"/><glyph d="M780 0h-352v1059h-383v307h1116v-307h-381v-1059z" glyph-name="T" unicode="T"/><glyph d="M769 -25q-318 0 -482 158t-164 420v813h358v-801q0 -125 75 -201t213 -77q138 0 213 77t75 201v801h356v-811q0 -264 -163 -422t-481 -158z" glyph-name="U" horiz-adv-x="1536" unicode="U"/><glyph d="M934 0h-442l-515 1366h400l336 -985l338 985h399z" glyph-name="V" horiz-adv-x="1427" unicode="V"/><glyph d="M1538 0h-373l-207 856l-206 -856h-373l-391 1366h395l207 -911l233 911h271l233 -911l205 911h397z" glyph-name="W" horiz-adv-x="1916" unicode="W"/><glyph d="M1405 0h-416l-297 459l-297 -459h-418l478 700l-447 666h416l268 -428l264 428h418l-444 -664z" glyph-name="X" horiz-adv-x="1384" unicode="X"/><glyph d="M848 0h-352v551l-519 815h398l297 -504l293 504h399l-516 -815v-551z" glyph-name="Y" horiz-adv-x="1341" unicode="Y"/><glyph d="M1141 0h-1061v281l582 778h-582v307h1046v-281l-583 -778h598v-307z" glyph-name="Z" horiz-adv-x="1220" unicode="Z"/><glyph d="M575 -389h-471v1778h471v-203h-249v-1372h249v-203z" glyph-name="bracketleft" horiz-adv-x="610" unicode="["/><glyph d="M485 -41l-485 1448h223l486 -1448h-224z" glyph-name="backslash" horiz-adv-x="708" unicode="\"/><glyph d="M508 -389h-471v203h250v1372h-250v203h471v-1778z" glyph-name="bracketright" horiz-adv-x="610" unicode="]"/><glyph d="M872 682h-223l-192 473l-191 -473h-227l305 684h227z" glyph-name="asciicircum" horiz-adv-x="911" unicode="^"/><glyph d="M1161 -285h-1167v203h1167v-203z" glyph-name="underscore" horiz-adv-x="1155" unicode="_"/><glyph d="M539 1139h-213l-326 295h279z" glyph-name="grave" horiz-adv-x="538" unicode="`"/><glyph d="M522 182q127 0 176 72v88q-51 70 -176 70q-68 0 -112 -30t-45 -85q1 -55 45 -85t112 -30zM1014 0h-316v98q-47 -55 -130 -89q-82 -34 -194 -34t-217 85t-105 245t102 237t237 76q215 0 307 -114v119q0 67 -53 105t-147 38q-158 0 -281 -104l-113 198q180 154 449 154 q192 0 318 -82q143 -92 143 -314v-618z" glyph-name="a" horiz-adv-x="1128" unicode="a"/><glyph d="M430 0h-315v1366h315v-494q113 142 297 142t308 -140t124 -382q0 -240 -123 -378t-304 -138t-302 139v-115zM618 254q96 0 158 65q62 66 62 176q0 109 -62 175t-158 65q-51 1 -105 -25t-83 -65v-303q29 -40 83 -64t105 -24z" glyph-name="b" horiz-adv-x="1210" unicode="b"/><glyph d="M590 -25q-233 1 -387 145t-154 374t154 375q154 144 387 145q146 0 250 -53t155 -130l-204 -190q-63 94 -175 94q-112 -1 -178 -65t-66 -174t66 -177q66 -65 176 -65t177 96l204 -192q-51 -76 -155 -130t-250 -53z" glyph-name="c" horiz-adv-x="1024" unicode="c"/><glyph d="M590 254q51 0 105 26t85 64v303q-31 39 -85 64t-105 24q-96 0 -157 -65q-60 -66 -60 -174q-1 -108 61 -176q62 -66 156 -66zM1094 0h-314v115q-121 -139 -302 -139t-305 138t-124 379t124 381t308 140t299 -142v494h314v-1366z" glyph-name="d" horiz-adv-x="1210" unicode="d"/><glyph d="M578 770q-96 0 -144 -51q-49 -51 -61 -119h407q-8 66 -57 118t-145 52zM590 -25q-233 1 -387 143t-154 370q1 228 149 376q148 150 374 150t368 -151t141 -400v-68h-704q14 -74 80 -125t168 -51q57 0 132 24t113 60l134 -197q-72 -63 -184 -97t-230 -34z" glyph-name="e" horiz-adv-x="1122" unicode="e"/><glyph d="M498 0h-316v715h-164v274h164v49q0 156 100 252t271 96q172 0 268 -98l-116 -180q-37 39 -91 39t-86 -29q-31 -29 -30 -80v-49h200v-274h-200v-715z" glyph-name="f" horiz-adv-x="714" unicode="f"/><glyph d="M590 295q51 1 105 25t83 63v264q-29 39 -83 64t-105 24q-96 0 -156 -57q-60 -56 -61 -162q0 -106 60 -164q61 -57 157 -57zM88 -254l137 225q106 -115 301 -114q98 0 175 51t77 176v76q-123 -144 -303 -144t-303 130t-123 369t122 369t307 130t300 -142v117h314v-901 q0 -117 -36 -206t-91 -141q-150 -142 -424 -142q-273 0 -453 147z" glyph-name="g" horiz-adv-x="1208" unicode="g"/><glyph d="M1102 0h-316v575q0 160 -163 160q-113 0 -191 -96v-639h-315v1366h315v-498q125 145 342 146q164 0 246 -83t82 -226v-705z" glyph-name="h" horiz-adv-x="1216" unicode="h"/><glyph d="M430 0h-315v989h315v-989zM272 1077q-76 0 -128 53q-52 54 -52 130t52 128t128 52t128 -52t52 -128t-52 -130t-128 -53z" glyph-name="i" horiz-adv-x="544" unicode="i"/><glyph d="M47 -401q-96 0 -147 15t-113 54l80 232q55 -43 127 -43q121 0 121 151v981h315v-981q0 -188 -96 -299q-97 -110 -287 -110zM272 1077q-76 0 -128 53q-52 54 -52 130t52 128t128 52t128 -52t52 -128t-52 -130t-128 -53z" glyph-name="j" horiz-adv-x="544" unicode="j"/><glyph d="M430 0h-315v1366h315v-772l301 395h381l-364 -450l382 -539h-389l-217 350l-94 -112v-238z" glyph-name="k" horiz-adv-x="1118" unicode="k"/><glyph d="M430 0h-315v1366h315v-1366z" glyph-name="l" horiz-adv-x="544" unicode="l"/><glyph d="M1675 0h-313v602q0 133 -131 133q-106 0 -178 -96v-639h-316v602q0 133 -131 133q-98 0 -176 -96v-639h-315v989h315v-121q39 50 129 98t197 48q219 0 280 -176q46 72 140 124t218 52t203 -75q78 -75 78 -222v-717z" glyph-name="m" horiz-adv-x="1792" unicode="m"/><glyph d="M1100 0h-316v571q0 164 -161 164q-115 0 -193 -96v-639h-315v989h315v-121q125 145 342 146q164 0 246 -85t82 -229v-700z" glyph-name="n" horiz-adv-x="1214" unicode="n"/><glyph d="M588 254q100 0 158 69t58 172t-58 172t-158 69t-157 -69q-56 -69 -56 -172q1 -103 57 -172t156 -69zM589 -25q-245 0 -392 152t-148 369q-1 218 147 368t393 150t392 -151t147 -367t-147 -369q-147 -152 -392 -152z" glyph-name="o" horiz-adv-x="1179" unicode="o"/><glyph d="M618 254q94 0 156 65q62 66 62 176q0 109 -62 175t-156 65q-51 1 -105 -25t-83 -65v-301q29 -38 83 -64t105 -26zM1157 495q-1 -245 -121 -383t-304 -137q-184 0 -302 142v-494h-315v1366h315v-115q114 140 300 140t306 -137t121 -382z" glyph-name="p" unicode="p"/><glyph d="M474 -25q-184 -1 -304 137t-121 383q0 245 121 382t306 137t300 -140v115h316v-1366h-316v494q-118 -142 -302 -142zM590 254q49 0 104 26t82 64v301q-29 39 -83 65t-103 25q-96 0 -158 -65q-61 -66 -61 -176t61 -175q62 -65 158 -65z" glyph-name="q" unicode="q"/><glyph d="M430 0h-315v989h315v-121q51 60 137 104t172 44v-303q-37 8 -90 8t-122 -26t-97 -64v-631z" glyph-name="r" horiz-adv-x="768" unicode="r"/><glyph d="M494 -25q-134 0 -260 41t-203 111l131 217q56 -51 160 -91t188 -40q133 0 133 76q0 35 -59 52q-60 17 -144 31t-169 40t-144 96t-59 194t112 218q113 94 329 94t396 -131l-121 -209q-47 45 -127 77q-80 31 -149 31q-68 0 -104 -20t-36 -51t60 -46q59 -15 143 -31t169 -44 q84 -29 144 -102t60 -185q0 -145 -120 -237t-330 -91z" glyph-name="s" horiz-adv-x="991" unicode="s"/><glyph d="M494 354q0 -100 97 -100q50 0 71 25l61 -238q-70 -66 -228 -66q-315 0 -315 291v449h-164v274h164v271h314v-271h200v-274h-200v-361z" glyph-name="t" horiz-adv-x="737" unicode="t"/><glyph d="M1098 0h-316v119q-127 -143 -342 -144q-164 0 -244 83t-81 227v704h315v-575q0 -160 164 -160q113 0 188 96v639h316v-989z" glyph-name="u" horiz-adv-x="1212" unicode="u"/><glyph d="M705 0h-336l-389 989h331l224 -627l225 627h334z" glyph-name="v" horiz-adv-x="1073" unicode="v"/><glyph d="M1331 0h-340l-186 612l-184 -612h-340l-293 989h323l160 -606l195 606h280l195 -606l157 606h326z" glyph-name="w" horiz-adv-x="1611" unicode="w"/><glyph d="M1061 0h-346l-191 299l-192 -299h-344l338 508l-318 481h346l170 -268l168 268h346l-315 -481z" glyph-name="x" horiz-adv-x="1048" unicode="x"/><glyph d="M94 -385l45 281q33 -18 78 -19q111 0 133 55l23 54l-393 1003h331l224 -627l225 627h334l-447 -1130q-55 -145 -157 -201t-223 -57q-120 -2 -173 14z" glyph-name="y" horiz-adv-x="1073" unicode="y"/><glyph d="M911 0h-833v231l397 484h-397v274h825v-223l-405 -494h413v-272z" glyph-name="z" horiz-adv-x="989" unicode="z"/><glyph d="M584 -389h-123q-143 0 -246 96q-102 96 -102 254v320q0 59 -28 97t-79 38v168q51 0 79 38t28 97v317q0 158 102 255t246 98h123v-203h-123q-53 0 -90 -41t-37 -109v-352q0 -143 -94 -184q94 -41 94 -185v-352q0 -65 37 -107t90 -42h123v-203z" glyph-name="braceleft" horiz-adv-x="618" unicode="{"/><glyph d="M326 -41h-203v1448h203v-1448z" glyph-name="bar" horiz-adv-x="448" unicode="|"/><glyph d="M35 -389v203h123q53 0 90 42t37 107v352q0 143 94 185q-94 41 -94 184v352q0 68 -37 109t-90 41h-123v203h123q143 1 245 -97t103 -256v-317q0 -59 28 -97t78 -38v-168q-50 0 -78 -38t-28 -97v-320q0 -158 -102 -254t-246 -96h-123z" glyph-name="braceright" horiz-adv-x="618" unicode="}"/><glyph d="M684 834q-90 0 -146 54t-73 119q-42 171 -96 173q-78 0 -107 -349l-211 25q28 367 170 467q61 43 151 43t145 -54q57 -54 73 -120q44 -174 96 -174q82 0 109 348l204 -25q-16 -212 -71 -343q-68 -164 -244 -164z" glyph-name="asciitilde" horiz-adv-x="1052" unicode="~"/><glyph glyph-name="uni00A0" horiz-adv-x="524" unicode=" "/><glyph d="M82 821q0 78 56 134q56 57 134 57t134 -56t57 -135q0 -78 -56 -135q-57 -57 -135 -57t-134 57t-56 135zM86 -377l47 889h281l49 -889h-377z" glyph-name="exclamdown" horiz-adv-x="548" unicode="¡"/><glyph d="M481 -205v191q-193 31 -313 169t-119 340q0 202 120 339t312 170v153h224v-153q195 -35 290 -173l-204 -190q-63 94 -175 94q-112 -1 -178 -65t-66 -174t66 -177q66 -65 176 -65t177 96l204 -192q-96 -137 -290 -172v-191h-224z" glyph-name="cent" horiz-adv-x="1024" unicode="¢"/><glyph d="M831 969q-49 133 -189 133q-69 0 -118 -44t-49 -116t70 -194h286v-197h-225v-14q0 -61 -35 -119t-88 -88q43 16 101 16t130 -30q73 -30 117 -29q115 0 166 71l138 -278q-96 -104 -316 -105q-96 0 -212 44t-161 44q-98 0 -235 -77l-117 235q199 98 199 225q0 53 -23 105 h-221v197h107q-68 106 -68 204q0 197 161 316t355 118q375 0 508 -256z" glyph-name="sterling" horiz-adv-x="1157" unicode="£"/><glyph d="M651 449q104 0 165 66q60 67 61 167q-1 100 -61 166t-164 66t-166 -67q-60 -67 -60 -166t60 -166q61 -66 165 -66zM648 170q-150 0 -267 61l-152 -153l-184 184l143 144q-76 126 -76 278t78 277l-145 145l184 184l154 -155q123 59 267 59t268 -59l155 155l182 -184 l-145 -145q80 -127 80 -282t-80 -278l145 -139l-182 -184l-155 149q-120 -57 -270 -57z" glyph-name="currency" horiz-adv-x="1300" unicode="¤"/><glyph d="M848 0h-352v227h-447v189h447v135h-447v188h326l-398 627h398l297 -504l293 504h399l-397 -627h327v-188h-446v-135h446v-189h-446v-227z" glyph-name="yen" horiz-adv-x="1341" unicode="¥"/><glyph d="M326 760h-203v647h203v-647zM326 -41h-203v647h203v-647z" glyph-name="brokenbar" horiz-adv-x="448" unicode="¦"/><glyph d="M635 614q0 96 -141 129q-125 -29 -125 -125q-1 -40 27 -68t61 -39t82 -22q96 39 96 125zM944 690q0 -190 -164 -274q164 -76 164 -241t-126 -253t-324 -88q-268 0 -457 162l125 199q59 -57 151 -101t181 -45q150 0 149 86q0 45 -59 71q-60 26 -144 43t-169 45t-144 96 t-59 169q0 100 56 166t126 94q-182 76 -182 262q0 131 119 218q120 87 302 87q262 0 414 -135l-119 -186q-115 104 -265 104t-150 -82q0 -39 59 -61t143 -36q84 -15 169 -42t145 -95q59 -69 59 -163z" glyph-name="section" horiz-adv-x="1007" unicode="§"/><glyph d="M94 1098q-68 0 -114 46t-46 114t46 114t114 47q68 -1 115 -47t47 -114t-47 -114t-115 -46zM533 1098q-67 0 -113 47t-47 114q0 67 47 113q48 46 114 47q66 -1 113 -47t47 -114t-47 -114t-114 -46z" glyph-name="dieresis" horiz-adv-x="626" unicode="¨"/><glyph d="M815 254q-182 0 -306 123t-124 308t124 307t307 122t300 -137l-72 -70q-88 119 -228 119t-234 -96t-94 -242t94 -246t234 -100t231 121l71 -68q-121 -141 -303 -141zM1423 684q0 258 -184 442t-442 184q-259 0 -443 -184t-184 -442t184 -442t442 -184t443 184 q184 184 184 442zM1503 684q0 -293 -207 -500q-208 -207 -500 -207t-499 208t-207 500t207 499t500 207t499 -207t207 -500z" glyph-name="copyright" horiz-adv-x="1593" unicode="©"/><glyph d="M371 788q76 0 108 50v51q-33 47 -108 47q-98 0 -99 -74q1 -74 99 -74zM702 668h-223v61q-68 -78 -203 -78q-88 -1 -156 55t-69 156q0 100 69 154t156 53q139 0 203 -72v64q0 45 -34 73t-95 27q-102 0 -182 -80l-80 146q121 100 301 100q313 0 313 -270v-389z" glyph-name="ordfeminine" horiz-adv-x="796" unicode="ª"/><glyph d="M674 129h-285l-328 369l328 362h285l-328 -362zM1108 129h-285l-327 369l327 362h285l-328 -362z" glyph-name="guillemotleft" horiz-adv-x="1169" unicode="«"/><glyph d="M979 969v-570h-193v381h-727v189h920z" glyph-name="logicalnot" horiz-adv-x="1067" unicode="¬"/><glyph d="M553 365h-492v264h492v-264z" glyph-name="uni00AD" horiz-adv-x="614" unicode="­"/><glyph d="M541 963q35 1 63 25t27 62q0 38 -28 64t-62 25h-129v-176h129zM412 899v-197h-74v498h203q65 0 115 -43t50 -111t-46 -107q-46 -38 -80 -38l133 -199h-90l-129 197h-82zM870 953q0 153 -106 258t-259 105t-259 -104q-106 -106 -106 -259t107 -261t259 -106q152 0 258 107 t106 260zM72 952q0 180 127 308t308 126q181 0 307 -126t126 -307t-127 -308t-307 -127t-307 127t-127 307z" glyph-name="registered" horiz-adv-x="1011" unicode="®"/><glyph d="M743 1139h-743v174h743v-174z" glyph-name="macron" horiz-adv-x="743" unicode="¯"/><glyph d="M457 1096q0 51 -38 90t-90 39t-89 -38t-37 -91t37 -90t89 -37t90 38t38 89zM618 1096q0 -121 -84 -206t-206 -85q-121 0 -206 85t-85 206t86 206q86 84 205 84q118 0 204 -84t86 -206z" glyph-name="degree" horiz-adv-x="657" unicode="°"/><glyph d="M979 0h-920v188h920v-188zM979 670h-356v-406h-207v406h-357v188h357v389h207v-389h356v-188z" glyph-name="plusminus" horiz-adv-x="1038" unicode="±"/><glyph d="M758 862h-668v168q276 194 352 262t76 117t-33 75t-92 26t-121 -32q-62 -30 -94 -69l-119 147q127 137 344 138q158 0 253 -70t96 -192q0 -88 -73 -174t-251 -211h330v-185z" glyph-name="uni00B2" horiz-adv-x="823" unicode="²"/><glyph d="M764 1092q0 -109 -97 -177t-257 -67q-238 0 -353 129l111 151q94 -96 231 -96q63 0 99 22q34 22 34 62t-40 54q-41 16 -125 16t-97 -2v182q18 -2 96 -2t116 16q36 16 36 58q0 72 -130 72t-216 -87l-104 138q123 133 342 133q164 0 252 -62t88 -164q0 -68 -52 -120 t-131 -64q77 -6 137 -58t60 -134z" glyph-name="uni00B3" horiz-adv-x="823" unicode="³"/><glyph d="M539 1434l-326 -295h-213l260 295h279z" glyph-name="acute" horiz-adv-x="538" unicode="´"/><glyph d="M430 -377h-315v1366h315v-575q0 -160 164 -160q113 0 188 96v639h316v-657q0 -37 21 -58q22 -20 50 -20t43 6l21 -266q-55 -18 -139 -19q-233 0 -293 179q-41 -80 -109 -129t-146 -49t-116 36v-389z" glyph-name="uni00B5" horiz-adv-x="1241" unicode="µ"/><glyph d="M850 -205h-145v1426h-152v-1426h-145v867q-145 0 -249 103q-103 103 -103 249t102 248q104 104 250 104h442v-1571z" glyph-name="paragraph" horiz-adv-x="919" unicode="¶"/><glyph d="M467 500q0 -78 -57 -134q-58 -56 -136 -56t-134 56t-56 134t56 135t134 57t136 -57t57 -135z" glyph-name="periodcentered" horiz-adv-x="552" unicode="·"/><glyph d="M233 -406q-150 0 -233 68l57 119q84 -61 168 -62q39 -1 68 15t29 43q0 45 -52 45q-33 0 -59 -27l-109 62l64 166h145l-51 -123q35 20 81 20t87 -42t41 -114t-68 -122q-68 -48 -168 -48z" glyph-name="cedilla" horiz-adv-x="468" unicode="¸"/><glyph d="M514 862h-233v522l-142 -141l-131 139l305 299h201v-819z" glyph-name="uni00B9" horiz-adv-x="636" unicode="¹"/><glyph d="M283 989q0 -76 35 -118t97 -42t98 42t36 118t-36 116t-99 40q-131 0 -131 -156zM778 990q0 -142 -99 -240t-264 -99q-165 1 -264 99t-100 239t99 239t265 99q165 0 264 -98q99 -97 99 -239z" glyph-name="ordmasculine" horiz-adv-x="829" unicode="º"/><glyph d="M1108 498l-328 -369h-284l327 369l-327 362h284zM674 498l-328 -369h-285l328 369l-328 362h285z" glyph-name="guillemotright" horiz-adv-x="1169" unicode="»"/><glyph d="M1366 1366l-877 -1366h-176l873 1366h180zM1401 342v283l-174 -283h174zM1735 160h-103v-160h-231v160h-404v157l308 502h327v-477h103v-182zM514 547h-233v522l-142 -141l-131 139l305 299h201v-819z" glyph-name="onequarter" horiz-adv-x="1771" unicode="¼"/><glyph d="M1366 1366l-877 -1366h-176l873 1366h180zM1769 0h-667v168q276 194 352 262t76 117t-33 75t-92 26t-121 -32q-62 -31 -94 -69l-119 147q127 137 344 137q158 1 253 -69t95 -193q-1 -88 -73 -174t-250 -211h329v-184zM514 547h-233v522l-142 -141l-131 139l305 299h201 v-819z" glyph-name="onehalf" horiz-adv-x="1837" unicode="½"/><glyph d="M168 813q94 -96 230 -96t134 83q0 40 -40 55q-41 15 -125 15t-97 -2v183q18 -2 96 -2t116 16q36 16 36 57q0 72 -130 72t-216 -86l-104 137q123 133 342 133q164 0 252 -61t88 -164q0 -68 -52 -120t-131 -64q77 -7 137 -59t60 -134q0 -108 -97 -176t-257 -68 q-238 0 -353 130zM1524 1366l-877 -1366h-176l872 1366h181zM1559 342v283l-175 -283h175zM1892 160h-102v-160h-231v160h-404v157l307 502h328v-477h102v-182z" glyph-name="threequarters" horiz-adv-x="1929" unicode="¾"/><glyph d="M463 1012q78 0 135 -58t57 -135q0 -78 -57 -134t-135 -56t-135 56t-58 134q0 77 58 135t135 58zM385 -8q0 -80 120 -80t216 106l197 -225q-82 -94 -202 -143t-249 -49q-201 0 -320 90t-119 240t112 246q46 40 93 73q113 79 113 149q0 51 -31 82l273 68q61 -72 61 -191 t-94 -198q-39 -33 -77 -60q-93 -66 -93 -108z" glyph-name="questiondown" horiz-adv-x="817" unicode="¿"/><glyph d="M848 1481h-213l-326 295h279zM887 504l-174 514l-174 -514h348zM1450 0h-399l-68 197h-539l-67 -197h-400l515 1366h442z" glyph-name="Agrave" horiz-adv-x="1427" unicode="À"/><glyph d="M1116 1776l-325 -295h-213l260 295h278zM887 504l-174 514l-174 -514h348zM1450 0h-399l-68 197h-539l-67 -197h-400l515 1366h442z" glyph-name="Aacute" horiz-adv-x="1427" unicode="Á"/><glyph d="M887 504l-174 514l-174 -514h348zM1450 0h-399l-68 197h-539l-67 -197h-400l515 1366h442zM1042 1481h-188l-141 166l-135 -166h-187l184 295h277z" glyph-name="Acircumflex" horiz-adv-x="1427" unicode="Â"/><glyph d="M825 1477q-90 0 -141 56t-90 56q-61 0 -62 -100h-159q0 274 231 274q85 0 175 -84q32 -29 57 -28q61 0 61 100h160q-1 -274 -232 -274zM887 504l-174 514l-174 -514h348zM1450 0h-399l-68 197h-539l-67 -197h-400l515 1366h442z" glyph-name="Atilde" horiz-adv-x="1427" unicode="Ã"/><glyph d="M887 504l-174 514l-174 -514h348zM1450 0h-399l-68 197h-539l-67 -197h-400l515 1366h442zM494 1761q68 -1 114 -47t47 -114q0 -68 -47 -114q-46 -46 -114 -46t-114 46t-46 114t46 114t114 47zM772 1600q0 68 47 114t114 47q67 -1 114 -47t47 -114t-47 -114t-115 -46 t-114 46t-46 114z" glyph-name="Adieresis" horiz-adv-x="1427" unicode="Ä"/><glyph d="M716 1546q34 0 58 24t23 58q0 34 -24 60q-23 24 -57 24t-59 -24t-25 -60q0 -34 26 -58q24 -24 58 -24zM716 1407q-91 0 -157 66q-65 67 -65 157t65 156q66 66 157 66t154 -66q64 -66 64 -157t-64 -157t-154 -65zM887 504l-174 514l-174 -514h348zM1450 0h-399l-68 197 h-539l-67 -197h-400l515 1366h442z" glyph-name="Aring" horiz-adv-x="1427" unicode="Å"/><glyph d="M930 504v514l-289 -514h289zM1931 0h-1001v197h-453l-110 -197h-402l819 1366h1147v-307h-649v-213h635v-307h-635v-232h649v-307z" glyph-name="AE" horiz-adv-x="2004" unicode="Æ"/><glyph d="M780 -397q-150 0 -233 67l57 119q84 -61 168 -61q39 0 68 15t28 42q0 45 -51 45q-33 0 -59 -27l-109 62l43 117q-281 31 -460 222t-179 491t210 497t530 197q412 0 596 -367l-304 -143q-35 84 -115 141q-81 57 -177 57q-166 1 -274 -113q-107 -114 -107 -282t108 -282 t273 -113q96 0 177 57t115 141l304 -143q-174 -346 -553 -365l-29 -69q35 20 81 20t87 -42t41 -114t-68 -121q-68 -48 -168 -48z" glyph-name="Ccedilla" horiz-adv-x="1417" unicode="Ç"/><glyph d="M752 1481h-213l-326 295h279zM1124 0h-1001v1366h1001v-307h-649v-213h635v-307h-635v-232h649v-307z" glyph-name="Egrave" unicode="È"/><glyph d="M1124 0h-1001v1366h1001v-307h-649v-213h635v-307h-635v-232h649v-307zM1028 1776l-326 -295h-213l261 295h278z" glyph-name="Eacute" unicode="É"/><glyph d="M1124 0h-1001v1366h1001v-307h-649v-213h635v-307h-635v-232h649v-307zM950 1481h-188l-141 166l-136 -166h-186l184 295h277z" glyph-name="Ecircumflex" unicode="Ê"/><glyph d="M1124 0h-1001v1366h1001v-307h-649v-213h635v-307h-635v-232h649v-307zM408 1761q68 -1 114 -47t47 -114q0 -68 -47 -114q-46 -46 -114 -46t-114 46t-46 114t46 114t114 47zM686 1600q0 68 47 114t114 47q67 -1 114 -47t47 -114t-47 -114t-115 -46t-114 46t-46 114z" glyph-name="Edieresis" unicode="Ë"/><glyph d="M436 1481h-213l-325 295h278zM475 0h-352v1366h352v-1366z" glyph-name="Igrave" horiz-adv-x="598" unicode="Ì"/><glyph d="M705 1776l-326 -295h-213l260 295h279zM475 0h-352v1366h352v-1366z" glyph-name="Iacute" horiz-adv-x="598" unicode="Í"/><glyph d="M475 0h-352v1366h352v-1366zM625 1481h-189l-141 166l-135 -166h-187l185 295h276z" glyph-name="Icircumflex" horiz-adv-x="598" unicode="Î"/><glyph d="M475 0h-352v1366h352v-1366zM80 1761q68 -1 115 -47t47 -114t-47 -114t-115 -46t-114 46t-46 114t46 114t114 47zM358 1600q0 68 48 114t114 47q66 -1 113 -47t47 -114t-47 -114t-115 -46t-114 46t-46 114z" glyph-name="Idieresis" horiz-adv-x="598" unicode="Ï"/><glyph d="M743 307q174 0 277 110q102 109 102 271t-98 266t-279 105h-223v-246h287v-268h-287v-238h221zM745 0h-575v545h-154v268h154v553h573q328 0 534 -184t206 -498t-206 -498q-206 -186 -532 -186z" glyph-name="Eth" horiz-adv-x="1536" unicode="Ð"/><glyph d="M1393 0h-340l-578 791v-791h-352v1366h362l553 -752v752h355v-1366zM864 1477q-90 0 -141 56t-90 56q-61 0 -62 -100h-159q0 274 231 274q57 1 100 -27t75 -57t56 -28q61 0 62 100h160q-1 -274 -232 -274z" glyph-name="Ntilde" horiz-adv-x="1515" unicode="Ñ"/><glyph d="M412 682q0 -170 102 -282t269 -113q167 0 270 112q102 113 102 283t-102 283q-101 113 -269 113t-270 -114q-102 -112 -102 -282zM784 -25q-315 0 -523 199t-208 508t208 508t523 199q314 0 522 -199t208 -508t-208 -508q-207 -199 -522 -199zM920 1481h-213l-326 295 h278z" glyph-name="Ograve" horiz-adv-x="1568" unicode="Ò"/><glyph d="M412 682q0 -170 102 -282t269 -113q167 0 270 112q102 113 102 283t-102 283q-101 113 -269 113t-270 -114q-102 -112 -102 -282zM784 -25q-315 0 -523 199t-208 508t208 508t523 199q314 0 522 -199t208 -508t-208 -508q-207 -199 -522 -199zM1186 1776l-326 -295h-213 l260 295h279z" glyph-name="Oacute" horiz-adv-x="1568" unicode="Ó"/><glyph d="M412 682q0 -170 102 -282t269 -113q167 0 270 112q102 113 102 283t-102 283q-101 113 -269 113t-270 -114q-102 -112 -102 -282zM784 -25q-315 0 -523 199t-208 508t208 508t523 199q314 0 522 -199t208 -508t-208 -508q-207 -199 -522 -199zM1116 1481h-188l-142 166 l-135 -166h-186l184 295h277z" glyph-name="Ocircumflex" horiz-adv-x="1568" unicode="Ô"/><glyph d="M895 1477q-90 0 -141 56t-90 56q-61 0 -62 -100h-160q0 274 232 274q57 1 100 -27t75 -57t56 -28q61 0 62 100h159q0 -274 -231 -274zM412 682q0 -170 102 -282t269 -113q167 0 270 112q102 113 102 283t-102 283q-101 113 -269 113t-270 -114q-102 -112 -102 -282z M784 -25q-315 0 -523 199t-208 508t208 508t523 199q314 0 522 -199t208 -508t-208 -508q-207 -199 -522 -199z" glyph-name="Otilde" horiz-adv-x="1568" unicode="Õ"/><glyph d="M412 682q0 -170 102 -282t269 -113q167 0 270 112q102 113 102 283t-102 283q-101 113 -269 113t-270 -114q-102 -112 -102 -282zM784 -25q-315 0 -523 199t-208 508t208 508t523 199q314 0 522 -199t208 -508t-208 -508q-207 -199 -522 -199zM569 1440q-67 0 -113 46 t-46 114t46 114t114 47q68 -1 114 -47q47 -46 47 -114t-47 -114t-115 -46zM848 1600q0 68 47 114t114 47q67 -1 113 -47t47 -114q0 -68 -47 -114q-48 -46 -114 -46t-113 46t-47 114z" glyph-name="Odieresis" horiz-adv-x="1568" unicode="Ö"/><glyph d="M801 270l-281 281l-280 -281l-136 131l283 283l-283 283l136 131l280 -281l281 281l133 -131l-281 -283l281 -283z" glyph-name="multiply" horiz-adv-x="1038" unicode="×"/><glyph d="M412 682q0 -123 53 -217l469 582q-68 31 -150 30q-168 -1 -270 -113t-102 -282zM784 287q166 0 269 112q102 113 102 267t-72 260l-481 -596q86 -43 182 -43zM784 -25q-217 0 -389 99l-59 -74h-246l154 190q-190 195 -190 498t207 502q208 199 523 199q199 0 359 -82 l49 59h246l-138 -170q213 -201 213 -512t-207 -510t-522 -199z" glyph-name="Oslash" horiz-adv-x="1568" unicode="Ø"/><glyph d="M903 1481h-213l-325 295h278zM769 -25q-318 0 -482 158t-164 420v813h358v-801q0 -125 75 -201t213 -77q138 0 213 77t75 201v801h356v-811q0 -264 -163 -422t-481 -158z" glyph-name="Ugrave" horiz-adv-x="1536" unicode="Ù"/><glyph d="M769 -25q-318 0 -482 158t-164 420v813h358v-801q0 -125 75 -201t213 -77q138 0 213 77t75 201v801h356v-811q0 -264 -163 -422t-481 -158zM1171 1776l-325 -295h-213l260 295h278z" glyph-name="Uacute" horiz-adv-x="1536" unicode="Ú"/><glyph d="M769 -25q-318 0 -482 158t-164 420v813h358v-801q0 -125 75 -201t213 -77q138 0 213 77t75 201v801h356v-811q0 -264 -163 -422t-481 -158zM1106 1481h-188l-142 166l-135 -166h-186l184 295h276z" glyph-name="Ucircumflex" horiz-adv-x="1536" unicode="Û"/><glyph d="M769 -25q-318 0 -482 158t-164 420v813h358v-801q0 -125 75 -201t213 -77q138 0 213 77t75 201v801h356v-811q0 -264 -163 -422t-481 -158zM555 1761q68 -1 115 -47t47 -114t-47 -114t-115 -46t-114 46t-46 114t46 114t114 47zM993 1440q-67 0 -113 46t-46 114t47 114 t113 47q66 -1 114 -47q47 -46 47 -114t-47 -114t-115 -46z" glyph-name="Udieresis" horiz-adv-x="1536" unicode="Ü"/><glyph d="M1073 1776l-325 -295h-213l260 295h278zM848 0h-352v551l-519 815h398l297 -504l293 504h399l-516 -815v-551z" glyph-name="Yacute" horiz-adv-x="1341" unicode="Ý"/><glyph d="M754 559q72 0 120 38q48 37 50 105q0 68 -50 108t-120 40h-279v-291h279zM475 0h-352v1366h352v-209h332q221 0 348 -131t127 -326q0 -194 -126 -322t-349 -128h-332v-250z" glyph-name="Thorn" horiz-adv-x="1316" unicode="Þ"/><glyph d="M1335 305q-1 -147 -119 -238t-309 -92q-242 0 -413 152l124 217q43 -53 126 -92q82 -39 152 -39t103 23q33 22 33 54t-52 51t-127 35t-149 45t-125 97q-53 68 -53 156t36 146t79 89q115 83 115 119t-40 58t-111 22t-122 -42t-51 -118v-948h-315v948q0 184 137 312 t371 126q184 0 318 -87t134 -219t-88 -210q-37 -34 -74 -60q-88 -63 -88 -105q1 -29 53 -43t127 -28t149 -43t127 -101q52 -72 52 -185z" glyph-name="germandbls" horiz-adv-x="1361" unicode="ß"/><glyph d="M690 1139h-213l-325 295h278zM522 182q127 0 176 72v88q-51 70 -176 70q-68 0 -112 -30t-45 -85q1 -55 45 -85t112 -30zM1014 0h-316v98q-47 -55 -130 -89q-82 -34 -194 -34t-217 85t-105 245t102 237t237 76q215 0 307 -114v119q0 67 -53 105t-147 38q-158 0 -281 -104 l-113 198q180 154 449 154q192 0 318 -82q143 -92 143 -314v-618z" glyph-name="agrave" horiz-adv-x="1128" unicode="à"/><glyph d="M956 1434l-325 -295h-213l260 295h278zM522 182q127 0 176 72v88q-51 70 -176 70q-68 0 -112 -30t-45 -85q1 -55 45 -85t112 -30zM1014 0h-316v98q-47 -55 -130 -89q-82 -34 -194 -34t-217 85t-105 245t102 237t237 76q215 0 307 -114v119q0 67 -53 105t-147 38 q-158 0 -281 -104l-113 198q180 154 449 154q192 0 318 -82q143 -92 143 -314v-618z" glyph-name="aacute" horiz-adv-x="1128" unicode="á"/><glyph d="M889 1139h-189l-141 166l-135 -166h-186l184 295h276zM522 182q127 0 176 72v88q-51 70 -176 70q-68 0 -112 -30t-45 -85q1 -55 45 -85t112 -30zM1014 0h-316v98q-47 -55 -130 -89q-82 -34 -194 -34t-217 85t-105 245t102 237t237 76q215 0 307 -114v119q0 67 -53 105 t-147 38q-158 0 -281 -104l-113 198q180 154 449 154q192 0 318 -82q143 -92 143 -314v-618z" glyph-name="acircumflex" horiz-adv-x="1128" unicode="â"/><glyph d="M670 1135q-85 0 -176 85q-31 28 -56 27q-61 0 -61 -100h-160q0 274 232 274q57 -1 100 -29t75 -56t56 -27q61 0 61 100h160q0 -274 -231 -274zM522 182q127 0 176 72v88q-51 70 -176 70q-68 0 -112 -30t-45 -85q1 -55 45 -85t112 -30zM1014 0h-316v98q-47 -55 -130 -89 q-82 -34 -194 -34t-217 85t-105 245t102 237t237 76q215 0 307 -114v119q0 67 -53 105t-147 38q-158 0 -281 -104l-113 198q180 154 449 154q192 0 318 -82q143 -92 143 -314v-618z" glyph-name="atilde" horiz-adv-x="1128" unicode="ã"/><glyph d="M336 1419q68 -1 115 -47t47 -114t-47 -114t-115 -46t-114 46t-46 114t46 114t114 47zM775 1098q-67 0 -113 47t-48 114q0 67 48 113t114 47q66 -1 113 -47t47 -114t-47 -114t-114 -46zM522 182q127 0 176 72v88q-51 70 -176 70q-68 0 -112 -30t-45 -85q1 -55 45 -85 t112 -30zM1014 0h-316v98q-47 -55 -130 -89q-82 -34 -194 -34t-217 85t-105 245t102 237t237 76q215 0 307 -114v119q0 67 -53 105t-147 38q-158 0 -281 -104l-113 198q180 154 449 154q192 0 318 -82q143 -92 143 -314v-618z" glyph-name="adieresis" horiz-adv-x="1128" unicode="ä"/><glyph d="M477 1296q1 -34 25 -58t58 -24t58 24t23 58q0 34 -24 60q-23 24 -57 24t-58 -24t-25 -60zM560 1520q90 0 154 -66t64 -157t-64 -157t-154 -65q-91 0 -157 66q-65 67 -65 157t65 156q66 66 157 66zM522 182q127 0 176 72v88q-51 70 -176 70q-68 0 -112 -30t-45 -85 q1 -55 45 -85t112 -30zM1014 0h-316v98q-47 -55 -130 -89q-82 -34 -194 -34t-217 85t-105 245t102 237t237 76q215 0 307 -114v119q0 67 -53 105t-147 38q-158 0 -281 -104l-113 198q180 154 449 154q192 0 318 -82q143 -92 143 -314v-618z" glyph-name="aring" horiz-adv-x="1128" unicode="å"/><glyph d="M727 330v10q-59 72 -192 72q-72 0 -121 -27t-49 -77t45 -76q44 -26 118 -26t137 41q62 40 62 83zM1232 770q-86 0 -134 -51t-58 -119h379q-8 66 -54 118t-133 52zM1720 395h-676q18 -74 80 -122t160 -48q137 0 221 84l140 -203q-70 -63 -180 -97t-212 -34 q-240 0 -368 158q-67 -70 -175 -114t-235 -44q-184 0 -304 81t-120 239q1 158 101 241t251 82q219 0 324 -110v115q0 63 -57 103t-156 40q-166 0 -297 -107l-113 201q180 154 436 154t349 -146q135 146 348 146t348 -152t135 -399v-68z" glyph-name="ae" horiz-adv-x="1761" unicode="æ"/><glyph d="M598 -401q-150 0 -233 67l57 119q84 -61 168 -61q40 0 68 15t28 42q0 45 -51 45q-33 0 -60 -27l-108 62l45 119q-205 24 -334 164t-129 360t154 365q154 144 387 145q146 0 250 -53t155 -130l-204 -190q-63 94 -175 94q-112 -1 -178 -65t-66 -174t66 -177q66 -65 176 -65 t177 96l204 -192q-106 -156 -340 -178l-30 -76q35 20 81 20t86 -42q42 -42 42 -114t-68 -121q-68 -48 -168 -48z" glyph-name="ccedilla" horiz-adv-x="1024" unicode="ç"/><glyph d="M711 1139h-213l-326 295h279zM578 770q-96 0 -144 -51q-49 -51 -61 -119h407q-8 66 -57 118t-145 52zM590 -25q-233 1 -387 143t-154 370q1 228 149 376q148 150 374 150t368 -151t141 -400v-68h-704q14 -74 80 -125t168 -51q57 0 132 24t113 60l134 -197 q-72 -63 -184 -97t-230 -34z" glyph-name="egrave" horiz-adv-x="1122" unicode="è"/><glyph d="M578 770q-96 0 -144 -51q-49 -51 -61 -119h407q-8 66 -57 118t-145 52zM590 -25q-233 1 -387 143t-154 370q1 228 149 376q148 150 374 150t368 -151t141 -400v-68h-704q14 -74 80 -125t168 -51q57 0 132 24t113 60l134 -197q-72 -63 -184 -97t-230 -34zM977 1434 l-326 -295h-213l260 295h279z" glyph-name="eacute" horiz-adv-x="1122" unicode="é"/><glyph d="M578 770q-96 0 -144 -51q-49 -51 -61 -119h407q-8 66 -57 118t-145 52zM590 -25q-233 1 -387 143t-154 370q1 228 149 376q148 150 374 150t368 -151t141 -400v-68h-704q14 -74 80 -125t168 -51q57 0 132 24t113 60l134 -197q-72 -63 -184 -97t-230 -34zM903 1139h-188 l-142 166l-135 -166h-186l184 295h277z" glyph-name="ecircumflex" horiz-adv-x="1122" unicode="ê"/><glyph d="M578 770q-96 0 -144 -51q-49 -51 -61 -119h407q-8 66 -57 118t-145 52zM590 -25q-233 1 -387 143t-154 370q1 228 149 376q148 150 374 150t368 -151t141 -400v-68h-704q14 -74 80 -125t168 -51q57 0 132 24t113 60l134 -197q-72 -63 -184 -97t-230 -34zM358 1098 q-68 0 -114 46t-45 114q0 68 46 114q45 46 113 47q68 -1 115 -47t47 -114t-47 -114t-115 -46zM637 1259q0 67 47 113t114 47q68 -1 114 -47t46 -114t-47 -114t-115 -46t-113 47q-46 47 -46 114z" glyph-name="edieresis" horiz-adv-x="1122" unicode="ë"/><glyph d="M410 1139h-213l-326 295h279zM430 0h-315v989h315v-989z" glyph-name="igrave" horiz-adv-x="544" unicode="ì"/><glyph d="M430 0h-315v989h315v-989zM676 1434l-326 -295h-213l260 295h279z" glyph-name="iacute" horiz-adv-x="544" unicode="í"/><glyph d="M430 0h-315v989h315v-989zM600 1139h-188l-142 166l-135 -166h-186l184 295h277z" glyph-name="icircumflex" horiz-adv-x="544" unicode="î"/><glyph d="M430 0h-315v989h315v-989zM53 1098q-67 0 -113 46t-46 114t46 114t114 47q68 -1 114 -47q47 -46 47 -114t-47 -114t-115 -46zM332 1259q0 67 47 113t114 47q67 -1 113 -47t47 -114q0 -68 -47 -114q-48 -46 -114 -46t-113 47t-47 114z" glyph-name="idieresis" horiz-adv-x="544" unicode="ï"/><glyph d="M589 254q101 0 159 55q57 55 57 141q-1 86 -59 140q-58 55 -158 55t-156 -55t-57 -140q0 -85 56 -141q57 -55 158 -55zM593 -25q-247 1 -395 133t-148 341t124 341q125 132 309 132q213 0 328 -193q-57 150 -317 336l-304 -135l-57 141l211 92l-113 68l170 250 q160 -98 265 -176l204 90l60 -135l-137 -62q336 -307 335 -676q0 -248 -144 -398t-391 -149z" glyph-name="eth" horiz-adv-x="1179" unicode="ð"/><glyph d="M721 1135q-57 1 -101 29t-75 56t-56 27q-61 0 -61 -100h-160q0 274 232 274q57 -1 100 -29t75 -56t56 -27q61 0 62 100h159q0 -274 -231 -274zM1100 0h-316v571q0 164 -161 164q-115 0 -193 -96v-639h-315v989h315v-121q125 145 342 146q164 0 246 -85t82 -229v-700z" glyph-name="ntilde" horiz-adv-x="1214" unicode="ñ"/><glyph d="M725 1139h-213l-326 295h279zM588 254q100 0 158 69t58 172t-58 172t-158 69t-157 -69q-56 -69 -56 -172q1 -103 57 -172t156 -69zM589 -25q-245 0 -392 152t-148 369q-1 218 147 368t393 150t392 -151t147 -367t-147 -369q-147 -152 -392 -152z" glyph-name="ograve" horiz-adv-x="1179" unicode="ò"/><glyph d="M588 254q100 0 158 69t58 172t-58 172t-158 69t-157 -69q-56 -69 -56 -172q1 -103 57 -172t156 -69zM589 -25q-245 0 -392 152t-148 369q-1 218 147 368t393 150t392 -151t147 -367t-147 -369q-147 -152 -392 -152zM991 1434l-325 -295h-213l260 295h278z" glyph-name="oacute" horiz-adv-x="1179" unicode="ó"/><glyph d="M588 254q100 0 158 69t58 172t-58 172t-158 69t-157 -69q-56 -69 -56 -172q1 -103 57 -172t156 -69zM589 -25q-245 0 -392 152t-148 369q-1 218 147 368t393 150t392 -151t147 -367t-147 -369q-147 -152 -392 -152zM918 1139h-189l-141 166l-135 -166h-187l185 295h276z " glyph-name="ocircumflex" horiz-adv-x="1179" unicode="ô"/><glyph d="M700 1135q-57 1 -101 29t-75 56t-55 27q-61 0 -61 -100h-160q0 274 231 274q57 -1 101 -29t74 -56q32 -28 57 -27q61 0 61 100h160q-1 -274 -232 -274zM588 254q100 0 158 69t58 172t-58 172t-158 69t-157 -69q-56 -69 -56 -172q1 -103 57 -172t156 -69zM589 -25 q-245 0 -392 152t-148 369q-1 218 147 368t393 150t392 -151t147 -367t-147 -369q-147 -152 -392 -152z" glyph-name="otilde" horiz-adv-x="1179" unicode="õ"/><glyph d="M588 254q100 0 158 69t58 172t-58 172t-158 69t-157 -69q-56 -69 -56 -172q1 -103 57 -172t156 -69zM589 -25q-245 0 -392 152t-148 369q-1 218 147 368t393 150t392 -151t147 -367t-147 -369q-147 -152 -392 -152zM369 1419q69 -1 115 -47t46 -114t-47 -114t-115 -46 t-113 46q-46 46 -46 114t46 114t114 47zM647 1259q0 67 47 113t114 47q67 -1 114 -47t47 -114t-47 -114t-114 -46t-114 47t-47 114z" glyph-name="odieresis" horiz-adv-x="1179" unicode="ö"/><glyph d="M523 475q57 0 99 -41t42 -99t-42 -99t-100 -41t-98 41q-41 41 -41 99t41 99t99 41zM987 596h-928v188h928v-188zM664 1044q0 -57 -41 -99t-99 -42t-100 41q-41 41 -41 99q0 57 40 99t99 42t101 -41q41 -42 41 -99z" glyph-name="divide" horiz-adv-x="1046" unicode="÷"/><glyph d="M375 514q0 -84 20 -131l291 330q-45 23 -98 22q-100 0 -157 -68q-56 -69 -56 -153zM588 254q100 0 158 69t59 173q0 59 -23 114l-295 -334q40 -22 101 -22zM49 500q-1 214 147 364t392 150q166 0 295 -76l45 51h188l-123 -139q135 -145 135 -358t-147 -365t-393 -152 q-170 0 -297 78l-47 -53h-185l123 141q-133 145 -133 359z" glyph-name="oslash" horiz-adv-x="1179" unicode="ø"/><glyph d="M741 1139h-213l-325 295h278zM1098 0h-316v119q-127 -143 -342 -144q-164 0 -244 83t-81 227v704h315v-575q0 -160 164 -160q113 0 188 96v639h316v-989z" glyph-name="ugrave" horiz-adv-x="1212" unicode="ù"/><glyph d="M1098 0h-316v119q-127 -143 -342 -144q-164 0 -244 83t-81 227v704h315v-575q0 -160 164 -160q113 0 188 96v639h316v-989zM1008 1434l-326 -295h-213l260 295h279z" glyph-name="uacute" horiz-adv-x="1212" unicode="ú"/><glyph d="M1098 0h-316v119q-127 -143 -342 -144q-164 0 -244 83t-81 227v704h315v-575q0 -160 164 -160q113 0 188 96v639h316v-989zM936 1139h-188l-142 166l-135 -166h-186l184 295h276z" glyph-name="ucircumflex" horiz-adv-x="1212" unicode="û"/><glyph d="M1098 0h-316v119q-127 -143 -342 -144q-164 0 -244 83t-81 227v704h315v-575q0 -160 164 -160q113 0 188 96v639h316v-989zM389 1419q68 -1 115 -47t47 -114t-47 -114t-115 -46t-114 46t-46 114t46 114t114 47zM828 1098q-68 0 -114 47t-46 114t47 113t113 47 q66 -1 114 -47q47 -46 47 -114t-47 -114t-114 -46z" glyph-name="udieresis" horiz-adv-x="1212" unicode="ü"/><glyph d="M938 1434l-326 -295h-213l260 295h279zM94 -385l45 281q33 -18 78 -19q111 0 133 55l23 54l-393 1003h331l224 -627l225 627h334l-447 -1130q-55 -145 -157 -201t-223 -57q-120 -2 -173 14z" glyph-name="yacute" horiz-adv-x="1073" unicode="ý"/><glyph d="M618 254q94 0 156 65q62 66 62 176q0 109 -62 175t-156 65q-51 1 -105 -25t-83 -65v-301q29 -38 83 -64t105 -26zM1157 495q-1 -245 -121 -383t-304 -137q-184 0 -302 142v-494h-315v1743h315v-492q114 140 300 140t306 -137t121 -382z" glyph-name="thorn" unicode="þ"/><glyph d="M315 1098q-67 0 -113 46t-46 114t46 114t114 47q68 -1 114 -47q47 -46 47 -114t-47 -114t-115 -46zM594 1259q0 67 47 113t114 47q67 -1 113 -47t47 -114q0 -68 -47 -114q-48 -46 -114 -46t-113 47t-47 114zM94 -385l45 281q33 -18 78 -19q111 0 133 55l23 54l-393 1003 h331l224 -627l225 627h334l-447 -1130q-55 -145 -157 -201t-223 -57q-120 -2 -173 14z" glyph-name="ydieresis" horiz-adv-x="1073" unicode="ÿ"/><glyph d="M1083 1481h-743v174h743v-174zM887 504l-174 514l-174 -514h348zM1450 0h-399l-68 197h-539l-67 -197h-400l515 1366h442z" glyph-name="Amacron" horiz-adv-x="1427" unicode="Ā"/><glyph d="M930 1139h-744v174h744v-174zM522 182q127 0 176 72v88q-51 70 -176 70q-68 0 -112 -30t-45 -85q1 -55 45 -85t112 -30zM1014 0h-316v98q-47 -55 -130 -89q-82 -34 -194 -34t-217 85t-105 245t102 237t237 76q215 0 307 -114v119q0 67 -53 105t-147 38q-158 0 -281 -104 l-113 198q180 154 449 154q192 0 318 -82q143 -92 143 -314v-618z" glyph-name="amacron" horiz-adv-x="1128" unicode="ā"/><glyph d="M716 1595q140 0 220 119l135 -110q-133 -180 -357 -180t-362 180l135 110q89 -119 229 -119zM887 504l-174 514l-174 -514h348zM1450 0h-399l-68 197h-539l-67 -197h-400l515 1366h442z" glyph-name="Abreve" horiz-adv-x="1427" unicode="Ă"/><glyph d="M562 1253q140 0 220 119l136 -110q-134 -180 -358 -180t-361 180l135 110q88 -119 228 -119zM522 182q127 0 176 72v88q-51 70 -176 70q-68 0 -112 -30t-45 -85q1 -55 45 -85t112 -30zM1014 0h-316v98q-47 -55 -130 -89q-82 -34 -194 -34t-217 85t-105 245t102 237 t237 76q215 0 307 -114v119q0 67 -53 105t-147 38q-158 0 -281 -104l-113 198q180 154 449 154q192 0 318 -82q143 -92 143 -314v-618z" glyph-name="abreve" horiz-adv-x="1128" unicode="ă"/><glyph d="M887 504l-174 514l-174 -514h348zM1378 -381q-92 0 -153 47q-61 46 -61 150t85 184h-198l-68 197h-539l-67 -197h-400l515 1366h442l516 -1366q-139 -72 -139 -178q0 -78 67 -78q55 0 80 63l121 -75q-68 -113 -201 -113z" glyph-name="Aogonek" horiz-adv-x="1427" unicode="Ą"/><glyph d="M522 182q127 0 176 72v88q-51 70 -176 70q-68 0 -112 -30t-45 -85q1 -55 45 -85t112 -30zM942 -381q-92 0 -154 47q-61 46 -61 150t86 184h-115v98q-47 -55 -130 -89q-82 -34 -194 -34t-217 85t-105 245t102 237t237 76q215 0 307 -114v119q0 67 -53 105t-147 38 q-158 0 -281 -104l-113 198q180 154 449 154q192 0 318 -82q143 -92 143 -314v-618q-139 -72 -140 -178q0 -78 68 -78q55 0 80 63l121 -75q-68 -113 -201 -113z" glyph-name="aogonek" horiz-adv-x="1128" unicode="ą"/><glyph d="M793 -25q-317 0 -529 198q-211 198 -211 510t210 509t530 197q412 0 596 -367l-304 -143q-35 84 -115 141q-81 57 -177 57q-166 1 -274 -113q-107 -114 -107 -282t108 -282t273 -113q96 0 177 57t115 141l304 -143q-79 -156 -225 -262t-371 -105zM1194 1776l-326 -295 h-213l260 295h279z" glyph-name="Cacute" horiz-adv-x="1417" unicode="Ć"/><glyph d="M590 -25q-233 1 -387 145t-154 374t154 375q154 144 387 145q146 0 250 -53t155 -130l-204 -190q-63 94 -175 94q-112 -1 -178 -65t-66 -174t66 -177q66 -65 176 -65t177 96l204 -192q-51 -76 -155 -130t-250 -53zM993 1434l-325 -295h-213l260 295h278z" glyph-name="cacute" horiz-adv-x="1024" unicode="ć"/><glyph d="M793 -25q-317 0 -529 198q-211 198 -211 510t210 509t530 197q412 0 596 -367l-304 -143q-35 84 -115 141q-81 57 -177 57q-166 1 -274 -113q-107 -114 -107 -282t108 -282t273 -113q96 0 177 57t115 141l304 -143q-79 -156 -225 -262t-371 -105zM1116 1481h-188 l-142 166l-135 -166h-186l184 295h277z" glyph-name="Ccircumflex" horiz-adv-x="1417" unicode="Ĉ"/><glyph d="M590 -25q-233 1 -387 145t-154 374t154 375q154 144 387 145q146 0 250 -53t155 -130l-204 -190q-63 94 -175 94q-112 -1 -178 -65t-66 -174t66 -177q66 -65 176 -65t177 96l204 -192q-51 -76 -155 -130t-250 -53zM930 1139h-189l-141 166l-135 -166h-186l184 295h276z " glyph-name="ccircumflex" horiz-adv-x="1024" unicode="ĉ"/><glyph d="M797 1440q-66 0 -113 47t-47 114t47 113t113 47q67 0 113 -47q46 -48 46 -114t-46 -113t-113 -47zM793 -25q-317 0 -529 198q-211 198 -211 510t210 509t530 197q412 0 596 -367l-304 -143q-35 84 -115 141q-81 57 -177 57q-166 1 -274 -113q-107 -114 -107 -282 t108 -282t273 -113q96 0 177 57t115 141l304 -143q-79 -156 -225 -262t-371 -105z" glyph-name="Cdotaccent" horiz-adv-x="1417" unicode="Ċ"/><glyph d="M588 1098q-66 0 -113 47t-47 114t47 113t113 47q66 0 112 -47q46 -48 48 -114q0 -66 -47 -113t-113 -47zM590 -25q-233 1 -387 145t-154 374t154 375q154 144 387 145q146 0 250 -53t155 -130l-204 -190q-63 94 -175 94q-112 -1 -178 -65t-66 -174t66 -177 q66 -65 176 -65t177 96l204 -192q-51 -76 -155 -130t-250 -53z" glyph-name="cdotaccent" horiz-adv-x="1024" unicode="ċ"/><glyph d="M793 -25q-317 0 -529 198q-211 198 -211 510t210 509t530 197q412 0 596 -367l-304 -143q-35 84 -115 141q-81 57 -177 57q-166 1 -274 -113q-107 -114 -107 -282t108 -282t273 -113q96 0 177 57t115 141l304 -143q-79 -156 -225 -262t-371 -105zM932 1481h-277l-190 295 h186l142 -166l135 166h188z" glyph-name="Ccaron" horiz-adv-x="1417" unicode="Č"/><glyph d="M590 -25q-233 1 -387 145t-154 374t154 375q154 144 387 145q146 0 250 -53t155 -130l-204 -190q-63 94 -175 94q-112 -1 -178 -65t-66 -174t66 -177q66 -65 176 -65t177 96l204 -192q-51 -76 -155 -130t-250 -53zM745 1139h-276l-190 295h186l141 -166l135 166h189z" glyph-name="ccaron" horiz-adv-x="1024" unicode="č"/><glyph d="M696 307q174 0 277 110q102 109 102 271t-98 266t-279 105h-223v-752h221zM698 0h-575v1366h573q328 0 534 -184t206 -498t-206 -498q-206 -186 -532 -186zM895 1481h-277l-190 295h186l142 -166l135 166h188z" glyph-name="Dcaron" horiz-adv-x="1488" unicode="Ď"/><glyph d="M590 254q51 0 105 26t85 64v303q-31 39 -85 64t-105 24q-96 0 -157 -65q-60 -66 -60 -174q-1 -108 61 -176q62 -66 156 -66zM1094 0h-314v115q-121 -139 -302 -139t-305 138t-124 379t124 381t308 140t299 -142v494h314v-1366zM1470 1206q0 -193 -180 -321l-100 80 q41 23 81 69t52 88q-8 -6 -47 -6t-74 36t-35 94t42 102t105 43q64 -1 110 -51t46 -134z" glyph-name="dcaron" horiz-adv-x="1460" unicode="ď"/><glyph d="M743 307q174 0 277 110q102 109 102 271t-98 266t-279 105h-223v-246h287v-268h-287v-238h221zM745 0h-575v545h-154v268h154v553h573q328 0 534 -184t206 -498t-206 -498q-206 -186 -532 -186z" glyph-name="Dcroat" horiz-adv-x="1536" unicode="Đ"/><glyph d="M590 254q51 0 105 26t85 64v303q-31 39 -85 64t-105 24q-96 0 -157 -65q-60 -66 -60 -174q-1 -108 61 -176q62 -66 156 -66zM1094 0h-314v115q-121 -139 -302 -139t-305 138t-124 379t124 381t308 140t299 -142v201h-286v174h286v119h314v-119h110v-174h-110v-1073z" glyph-name="dcroat" horiz-adv-x="1220" unicode="đ"/><glyph d="M991 1481h-743v174h743v-174zM1124 0h-1001v1366h1001v-307h-649v-213h635v-307h-635v-232h649v-307z" glyph-name="Emacron" unicode="Ē"/><glyph d="M940 1139h-743v174h743v-174zM578 770q-96 0 -144 -51q-49 -51 -61 -119h407q-8 66 -57 118t-145 52zM590 -25q-233 1 -387 143t-154 370q1 228 149 376q148 150 374 150t368 -151t141 -400v-68h-704q14 -74 80 -125t168 -51q57 0 132 24t113 60l134 -197 q-72 -63 -184 -97t-230 -34z" glyph-name="emacron" horiz-adv-x="1122" unicode="ē"/><glyph d="M621 1595q140 0 221 119l135 -110q-133 -180 -357 -180t-362 180l135 110q88 -119 228 -119zM1124 0h-1001v1366h1001v-307h-649v-213h635v-307h-635v-232h649v-307z" glyph-name="Ebreve" unicode="Ĕ"/><glyph d="M582 1253q140 0 221 119l135 -110q-133 -180 -357 -180t-362 180l135 110q88 -119 228 -119zM578 770q-96 0 -144 -51q-49 -51 -61 -119h407q-8 66 -57 118t-145 52zM590 -25q-233 1 -387 143t-154 370q1 228 149 376q148 150 374 150t368 -151t141 -400v-68h-704 q14 -74 80 -125t168 -51q57 0 132 24t113 60l134 -197q-72 -63 -184 -97t-230 -34z" glyph-name="ebreve" horiz-adv-x="1122" unicode="ĕ"/><glyph d="M623 1440q-66 0 -113 47t-47 114t47 113t113 47q67 0 113 -47q46 -48 46 -114t-46 -113t-113 -47zM1124 0h-1001v1366h1001v-307h-649v-213h635v-307h-635v-232h649v-307z" glyph-name="Edotaccent" unicode="Ė"/><glyph d="M580 1098q-66 0 -113 47t-47 114t47 113t113 47q66 0 112 -47q46 -48 47 -114q-1 -66 -47 -113t-112 -47zM578 770q-96 0 -144 -51q-49 -51 -61 -119h407q-8 66 -57 118t-145 52zM590 -25q-233 1 -387 143t-154 370q1 228 149 376q148 150 374 150t368 -151t141 -400v-68 h-704q14 -74 80 -125t168 -51q57 0 132 24t113 60l134 -197q-72 -63 -184 -97t-230 -34z" glyph-name="edotaccent" horiz-adv-x="1122" unicode="ė"/><glyph d="M985 -178q0 -78 68 -78q55 0 80 63l120 -75q-68 -113 -200 -113q-92 0 -154 47q-61 46 -61 150t86 184h-801v1366h1001v-307h-649v-213h635v-307h-635v-232h649v-307q-139 -72 -139 -178z" glyph-name="Eogonek" unicode="Ę"/><glyph d="M578 770q-96 0 -144 -51q-49 -51 -61 -119h407q-8 66 -57 118t-145 52zM717 -381q-92 0 -154 47q-61 47 -61 140t63 169q-225 7 -370 149t-145 366t148 374t374 150t368 -151t141 -400v-68h-704q14 -74 80 -125t168 -51q57 0 132 24t113 60l134 -197q-82 -74 -216 -106 q-139 -72 -139 -178q0 -78 68 -78q55 0 80 63l121 -75q-68 -113 -201 -113z" glyph-name="eogonek" horiz-adv-x="1122" unicode="ę"/><glyph d="M1124 0h-1001v1366h1001v-307h-649v-213h635v-307h-635v-232h649v-307zM766 1481h-277l-190 295h186l142 -166l135 166h188z" glyph-name="Ecaron" unicode="Ě"/><glyph d="M578 770q-96 0 -144 -51q-49 -51 -61 -119h407q-8 66 -57 118t-145 52zM590 -25q-233 1 -387 143t-154 370q1 228 149 376q148 150 374 150t368 -151t141 -400v-68h-704q14 -74 80 -125t168 -51q57 0 132 24t113 60l134 -197q-72 -63 -184 -97t-230 -34zM715 1139h-277 l-190 295h186l141 -166l136 166h188z" glyph-name="ecaron" horiz-adv-x="1122" unicode="ě"/><glyph d="M793 -25q-313 0 -527 195q-213 195 -213 512t213 512t527 195q213 -1 358 -95t225 -237l-295 -154q-41 74 -117 124q-77 50 -171 50q-166 1 -274 -113q-107 -114 -107 -282t108 -282t273 -113q73 1 143 25t108 57v106h-307v309h660v-542q-242 -267 -604 -267zM1122 1481 h-188l-141 166l-136 -166h-186l184 295h277z" glyph-name="Gcircumflex" horiz-adv-x="1480" unicode="Ĝ"/><glyph d="M590 295q51 1 105 25t83 63v264q-29 39 -83 64t-105 24q-96 0 -156 -57q-60 -56 -61 -162q0 -106 60 -164q61 -57 157 -57zM88 -254l137 225q106 -115 301 -114q98 0 175 51t77 176v76q-123 -144 -303 -144t-303 130t-123 369t122 369t307 130t300 -142v117h314v-901 q0 -117 -36 -206t-91 -141q-150 -142 -424 -142q-273 0 -453 147zM944 1139h-188l-142 166l-135 -166h-186l184 295h277z" glyph-name="gcircumflex" horiz-adv-x="1208" unicode="ĝ"/><glyph d="M798 1595q140 0 220 119l135 -110q-133 -180 -357 -180t-362 180l135 110q89 -119 229 -119zM793 -25q-313 0 -527 195q-213 195 -213 512t213 512t527 195q213 -1 358 -95t225 -237l-295 -154q-41 74 -117 124q-77 50 -171 50q-166 1 -274 -113q-107 -114 -107 -282 t108 -282t273 -113q73 1 143 25t108 57v106h-307v309h660v-542q-242 -267 -604 -267z" glyph-name="Gbreve" horiz-adv-x="1480" unicode="Ğ"/><glyph d="M605 1253q140 0 220 119l136 -110q-133 -180 -357 -180t-362 180l135 110q88 -119 228 -119zM590 295q51 1 105 25t83 63v264q-29 39 -83 64t-105 24q-96 0 -156 -57q-60 -56 -61 -162q0 -106 60 -164q61 -57 157 -57zM88 -254l137 225q106 -115 301 -114q98 0 175 51 t77 176v76q-123 -144 -303 -144t-303 130t-123 369t122 369t307 130t300 -142v117h314v-901q0 -117 -36 -206t-91 -141q-150 -142 -424 -142q-273 0 -453 147z" glyph-name="gbreve" horiz-adv-x="1208" unicode="ğ"/><glyph d="M795 1440q-66 0 -113 47t-47 114t47 113t113 47q67 0 113 -47q46 -48 46 -114t-46 -113t-113 -47zM793 -25q-313 0 -527 195q-213 195 -213 512t213 512t527 195q213 -1 358 -95t225 -237l-295 -154q-41 74 -117 124q-77 50 -171 50q-166 1 -274 -113 q-107 -114 -107 -282t108 -282t273 -113q73 1 143 25t108 57v106h-307v309h660v-542q-242 -267 -604 -267z" glyph-name="Gdotaccent" horiz-adv-x="1480" unicode="Ġ"/><glyph d="M618 1098q-66 0 -112 47t-47 114q0 67 47 113q46 46 112 47q66 0 113 -47q47 -48 47 -114t-47 -113t-113 -47zM590 295q51 1 105 25t83 63v264q-29 39 -83 64t-105 24q-96 0 -156 -57q-60 -56 -61 -162q0 -106 60 -164q61 -57 157 -57zM88 -254l137 225 q106 -115 301 -114q98 0 175 51t77 176v76q-123 -144 -303 -144t-303 130t-123 369t122 369t307 130t300 -142v117h314v-901q0 -117 -36 -206t-91 -141q-150 -142 -424 -142q-273 0 -453 147z" glyph-name="gdotaccent" horiz-adv-x="1208" unicode="ġ"/><glyph d="M793 -25q-313 0 -527 195q-213 195 -213 512t213 512t527 195q213 -1 358 -95t225 -237l-295 -154q-41 74 -117 124q-77 50 -171 50q-166 1 -274 -113q-107 -114 -107 -282t108 -282t273 -113q73 1 143 25t108 57v106h-307v309h660v-542q-242 -267 -604 -267zM954 -285 q0 -193 -180 -321l-100 80q41 22 81 68t52 89q-8 -6 -47 -6t-74 36t-35 94q0 57 42 101t105 44q64 0 110 -50t46 -135z" glyph-name="Gcommaaccent" horiz-adv-x="1480" unicode="Ģ"/><glyph d="M590 295q51 1 105 25t83 63v264q-29 39 -83 64t-105 24q-96 0 -156 -57q-60 -56 -61 -162q0 -106 60 -164q61 -57 157 -57zM88 -254l137 225q106 -115 301 -114q98 0 175 51t77 176v76q-123 -144 -303 -144t-303 130t-123 369t122 369t307 130t300 -142v117h314v-901 q0 -117 -36 -206t-91 -141q-150 -142 -424 -142q-273 0 -453 147zM453 1253q0 213 174 332l100 -80q-39 -18 -82 -61t-49 -82l4 2h8q52 0 96 -40t44 -98t-43 -102t-101 -43q-58 0 -105 40q-46 40 -46 132z" glyph-name="gcommaaccent" horiz-adv-x="1208" unicode="ģ"/><glyph d="M1395 0h-353v549h-567v-549h-352v1366h352v-510h567v510h353v-1366zM1083 1481h-188l-141 166l-136 -166h-186l184 295h277z" glyph-name="Hcircumflex" horiz-adv-x="1517" unicode="Ĥ"/><glyph d="M1102 0h-316v575q0 160 -163 160q-113 0 -191 -96v-639h-315v1366h315v-498q125 145 342 146q164 0 246 -83t82 -226v-705zM936 1481h-188l-142 166l-135 -166h-186l184 295h276z" glyph-name="hcircumflex" horiz-adv-x="1216" unicode="ĥ"/><glyph d="M492 856h567v166h-567v-166zM1411 0h-352v549h-567v-549h-353v1022h-123v174h123v170h353v-170h567v170h352v-170h123v-174h-123v-1022z" glyph-name="Hbar" horiz-adv-x="1550" unicode="Ħ"/><glyph d="M727 1073h-287v-205q125 145 342 146q164 0 246 -83t82 -226v-705h-315v575q0 160 -164 160q-113 0 -191 -96v-639h-315v1073h-109v174h109v119h315v-119h287v-174z" glyph-name="hbar" horiz-adv-x="1224" unicode="ħ"/><glyph d="M412 1477q-89 0 -141 56t-91 56q-61 0 -61 -100h-160q0 274 231 274q83 0 176 -84q32 -29 56 -28q61 0 61 100h160q0 -274 -231 -274zM475 0h-352v1366h352v-1366z" glyph-name="Itilde" horiz-adv-x="598" unicode="Ĩ"/><glyph d="M385 1135q-57 1 -101 29t-75 56t-55 27q-61 0 -62 -100h-160q0 274 232 274q57 -1 100 -29t75 -56t56 -27q61 0 62 100h159q0 -274 -231 -274zM430 0h-315v989h315v-989z" glyph-name="itilde" horiz-adv-x="544" unicode="ĩ"/><glyph d="M672 1481h-744v174h744v-174zM475 0h-352v1366h352v-1366z" glyph-name="Imacron" horiz-adv-x="598" unicode="Ī"/><glyph d="M645 1139h-743v174h743v-174zM430 0h-315v989h315v-989z" glyph-name="imacron" horiz-adv-x="544" unicode="ī"/><glyph d="M310 1595q140 0 220 119l136 -110q-134 -180 -358 -180t-361 180l135 110q88 -119 228 -119zM475 0h-352v1366h352v-1366z" glyph-name="Ibreve" horiz-adv-x="598" unicode="Ĭ"/><glyph d="M279 1253q140 0 221 119l135 -110q-133 -180 -357 -180t-362 180l135 110q88 -119 228 -119zM430 0h-315v989h315v-989z" glyph-name="ibreve" horiz-adv-x="544" unicode="ĭ"/><glyph d="M406 -381q-92 0 -154 47t-62 149t87 185h-154v1366h352v-1365l2 -1q-139 -72 -139 -178q0 -78 68 -78q54 0 79 63l121 -75q-68 -113 -200 -113z" glyph-name="Iogonek" horiz-adv-x="598" unicode="Į"/><glyph d="M272 1077q-76 0 -128 53q-52 54 -52 130t52 128t128 52t128 -52t52 -128t-52 -130t-128 -53zM358 -381q-92 0 -153 47q-61 46 -61 150t85 184h-114v989h315v-989q-139 -72 -139 -178q0 -78 67 -78q55 0 80 63l121 -75q-68 -113 -201 -113z" glyph-name="iogonek" horiz-adv-x="544" unicode="į"/><glyph d="M303 1440q-66 0 -113 47t-47 114t47 113t113 47q66 0 113 -47q47 -48 47 -114t-47 -113t-113 -47zM475 0h-352v1366h352v-1366z" glyph-name="Idotaccent" horiz-adv-x="598" unicode="İ"/><glyph d="M430 0h-315v989h315v-989z" glyph-name="dotlessi" horiz-adv-x="544" unicode="ı"/><glyph d="M1483 469q1 -246 -135 -370t-370 -124t-374 123l148 269q96 -80 188 -80t141 50t49 136v893h353v-897zM475 0h-352v1366h352v-1366z" glyph-name="IJ" horiz-adv-x="1605" unicode="Ĳ"/><glyph d="M592 -401q-96 0 -148 15t-112 54l80 232q55 -43 127 -43q121 0 120 151v981h316v-981q0 -188 -96 -299q-97 -110 -287 -110zM817 1077q-76 0 -128 53q-52 54 -52 130t52 128t128 52t128 -52t52 -128t-52 -130t-128 -53zM430 0h-315v989h315v-989zM272 1077q-76 0 -128 53 q-52 54 -52 130t52 128t128 52t128 -52t52 -128t-52 -130t-128 -53z" glyph-name="ij" horiz-adv-x="1091" unicode="ĳ"/><glyph d="M885 469q1 -246 -135 -370t-370 -124t-374 123l148 269q96 -80 188 -80t141 50t49 136v893h353v-897zM1038 1481h-188l-141 166l-136 -166h-186l184 295h277z" glyph-name="Jcircumflex" horiz-adv-x="1007" unicode="Ĵ"/><glyph d="M47 -401q-96 0 -147 15t-113 54l80 248q57 -45 119 -45t96 37q33 37 33 100v981h315v-981q0 -188 -96 -299q-97 -110 -287 -110zM604 1139h-188l-142 166l-135 -166h-186l184 295h277z" glyph-name="jcircumflex" horiz-adv-x="544" unicode="ĵ"/><glyph d="M475 0h-352v1366h352v-561l420 561h434l-530 -639l559 -727h-432l-359 514l-92 -115v-399zM844 -285q0 -193 -180 -321l-101 80q41 22 81 68t52 89q-8 -6 -46 -6t-75 36q-35 36 -35 94q0 57 43 101t105 44t109 -50t47 -135z" glyph-name="Kcommaaccent" horiz-adv-x="1368" unicode="Ķ"/><glyph d="M430 0h-315v1366h315v-772l301 395h381l-364 -450l382 -539h-389l-217 350l-94 -112v-238zM719 -285q0 -193 -180 -321l-101 80q41 22 81 68t52 89q-9 -6 -47 -6t-73 36t-35 94q0 57 42 101t104 44t110 -50q47 -50 47 -135z" glyph-name="kcommaaccent" horiz-adv-x="1118" unicode="ķ"/><glyph d="M430 0h-315v989h315v-395l301 395h381l-364 -450l382 -539h-389l-217 350l-94 -112v-238z" glyph-name="kgreenlandic" horiz-adv-x="1118" unicode="ĸ"/><glyph d="M1024 0h-901v1366h352v-1059h549v-307zM973 1776l-326 -295h-213l260 295h279z" glyph-name="Lacute" horiz-adv-x="1083" unicode="Ĺ"/><glyph d="M430 0h-315v1366h315v-1366zM676 1776l-326 -295h-213l260 295h279z" glyph-name="lacute" horiz-adv-x="544" unicode="ĺ"/><glyph d="M1024 0h-901v1366h352v-1059h549v-307zM696 -285q0 -193 -180 -321l-100 80q41 22 81 68t52 89q-8 -6 -47 -6t-74 36t-35 94q0 57 42 101t105 44q64 0 110 -50t46 -135z" glyph-name="Lcommaaccent" horiz-adv-x="1083" unicode="Ļ"/><glyph d="M430 0h-315v1366h315v-1366zM434 -285q0 -193 -180 -321l-100 80q40 22 80 68t53 89q-8 -6 -47 -6t-74 36t-35 94q0 57 42 101q43 44 105 44t109 -50t47 -135z" glyph-name="lcommaaccent" horiz-adv-x="544" unicode="ļ"/><glyph d="M1024 0h-901v1366h352v-1059h549v-307zM928 1210q0 -193 -180 -321l-101 80q41 23 81 69t52 88q-10 -6 -48 -6t-73 36t-35 94t43 102t105 43t109 -51t47 -134z" glyph-name="Lcaron" horiz-adv-x="1083" unicode="Ľ"/><glyph d="M430 0h-315v1366h315v-1366zM825 1210q0 -193 -180 -321l-100 80q41 23 81 69t52 88q-8 -6 -47 -6t-74 36t-35 94t42 102t105 43t109 -51t47 -134z" glyph-name="lcaron" horiz-adv-x="790" unicode="ľ"/><glyph d="M1075 700q0 -78 -57 -134t-135 -56t-134 56t-57 134q0 78 56 136t135 57q78 1 135 -57t57 -136zM1024 0h-901v1366h352v-1059h549v-307z" glyph-name="Ldot" horiz-adv-x="1167" unicode="Ŀ"/><glyph d="M897 500q0 -78 -57 -134t-135 -56q-79 0 -135 56t-56 134t56 135t134 57t136 -57q57 -57 57 -135zM430 0h-315v1366h315v-1366z" glyph-name="ldot" horiz-adv-x="866" unicode="ŀ"/><glyph d="M145 1366h353v-442l137 80v-285l-137 -80v-332h549v-307h-902v436l-129 -74v283l129 74v647z" glyph-name="Lslash" horiz-adv-x="1107" unicode="Ł"/><glyph d="M168 1366h315v-481l154 90v-223l-154 -90v-662h-315v479l-152 -86v223l152 86v664z" glyph-name="lslash" horiz-adv-x="653" unicode="ł"/><glyph d="M1393 0h-340l-578 791v-791h-352v1366h362l553 -752v752h355v-1366zM1161 1776l-325 -295h-213l260 295h278z" glyph-name="Nacute" horiz-adv-x="1515" unicode="Ń"/><glyph d="M1100 0h-316v571q0 164 -161 164q-115 0 -193 -96v-639h-315v989h315v-121q125 145 342 146q164 0 246 -85t82 -229v-700zM1010 1434l-326 -295h-213l260 295h279z" glyph-name="nacute" horiz-adv-x="1214" unicode="ń"/><glyph d="M1393 0h-340l-578 791v-791h-352v1366h362l553 -752v752h355v-1366zM915 -285q0 -193 -180 -321l-100 80q41 22 81 68t52 89q-10 -6 -48 -6t-73 36t-35 94q0 57 42 101t105 44t109 -50t47 -135z" glyph-name="Ncommaaccent" horiz-adv-x="1515" unicode="Ņ"/><glyph d="M1100 0h-316v571q0 164 -161 164q-115 0 -193 -96v-639h-315v989h315v-121q125 145 342 146q164 0 246 -85t82 -229v-700zM764 -285q0 -193 -180 -321l-101 80q41 22 81 68t52 89q-8 -6 -46 -6t-74 36q-35 36 -35 94q0 57 42 101q43 44 105 44t109 -50t47 -135z" glyph-name="ncommaaccent" horiz-adv-x="1214" unicode="ņ"/><glyph d="M1393 0h-340l-578 791v-791h-352v1366h362l553 -752v752h355v-1366zM897 1481h-276l-191 295h186l142 -166l135 166h188z" glyph-name="Ncaron" horiz-adv-x="1515" unicode="Ň"/><glyph d="M1100 0h-316v571q0 164 -161 164q-115 0 -193 -96v-639h-315v989h315v-121q125 145 342 146q164 0 246 -85t82 -229v-700zM750 1139h-277l-190 295h186l141 -166l135 166h189z" glyph-name="ncaron" horiz-adv-x="1214" unicode="ň"/><glyph d="M1100 0h-316v571q0 164 -161 164q-115 0 -193 -96v-639h-315v989h315v-121q125 145 342 146q164 0 246 -85t82 -229v-700zM373 1403q0 -193 -180 -322l-101 80q41 23 81 69t52 89q-10 -6 -48 -6t-73 36q-34 36 -34 94t42 101t104 43t110 -50q47 -50 47 -134z" glyph-name="napostrophe" horiz-adv-x="1214" unicode="ŉ"/><glyph d="M1393 90q-1 -244 -137 -368t-368 -123q-232 0 -376 122l147 269q96 -80 197 -80q137 0 174 121l-555 760v-791h-352v1366h362l553 -752v752h355v-1276z" glyph-name="Eng" horiz-adv-x="1515" unicode="Ŋ"/><glyph d="M1100 700v-692q0 -188 -96 -299t-287 -110q-95 0 -147 15t-113 54l80 254q53 -45 117 -45t98 35q33 35 32 96v563q0 164 -161 164q-115 0 -193 -96v-639h-315v989h315v-121q125 145 342 146q164 0 246 -86t82 -228z" glyph-name="eng" horiz-adv-x="1214" unicode="ŋ"/><glyph d="M412 682q0 -170 102 -282t269 -113q167 0 270 112q102 113 102 283t-102 283q-101 113 -269 113t-270 -114q-102 -112 -102 -282zM784 -25q-315 0 -523 199t-208 508t208 508t523 199q314 0 522 -199t208 -508t-208 -508q-207 -199 -522 -199zM1155 1481h-743v174h743 v-174z" glyph-name="Omacron" horiz-adv-x="1568" unicode="Ō"/><glyph d="M588 254q100 0 158 69t58 172t-58 172t-158 69t-157 -69q-56 -69 -56 -172q1 -103 57 -172t156 -69zM589 -25q-245 0 -392 152t-148 369q-1 218 147 368t393 150t392 -151t147 -367t-147 -369q-147 -152 -392 -152zM961 1139h-744v174h744v-174z" glyph-name="omacron" horiz-adv-x="1179" unicode="ō"/><glyph d="M787 1595q140 0 221 119l135 -110q-133 -180 -357 -180t-362 180l135 110q88 -119 228 -119zM412 682q0 -170 102 -282t269 -113q167 0 270 112q102 113 102 283t-102 283q-101 113 -269 113t-270 -114q-102 -112 -102 -282zM784 -25q-315 0 -523 199t-208 508t208 508 t523 199q314 0 522 -199t208 -508t-208 -508q-207 -199 -522 -199z" glyph-name="Obreve" horiz-adv-x="1568" unicode="Ŏ"/><glyph d="M590 1253q140 0 221 119l135 -110q-133 -180 -357 -180t-362 180l135 110q88 -119 228 -119zM588 254q100 0 158 69t58 172t-58 172t-158 69t-157 -69q-56 -69 -56 -172q1 -103 57 -172t156 -69zM589 -25q-245 0 -392 152t-148 369q-1 218 147 368t393 150t392 -151 t147 -367t-147 -369q-147 -152 -392 -152z" glyph-name="obreve" horiz-adv-x="1179" unicode="ŏ"/><glyph d="M412 682q0 -170 102 -282t269 -113q167 0 270 112q102 113 102 283t-102 283q-101 113 -269 113t-270 -114q-102 -112 -102 -282zM784 -25q-315 0 -523 199t-208 508t208 508t523 199q314 0 522 -199t208 -508t-208 -508q-207 -199 -522 -199zM1245 1776l-235 -295h-179 l170 295h244zM932 1776l-236 -295h-178l172 295h242z" glyph-name="Ohungarumlaut" horiz-adv-x="1568" unicode="Ő"/><glyph d="M588 254q100 0 158 69t58 172t-58 172t-158 69t-157 -69q-56 -69 -56 -172q1 -103 57 -172t156 -69zM589 -25q-245 0 -392 152t-148 369q-1 218 147 368t393 150t392 -151t147 -367t-147 -369q-147 -152 -392 -152zM1053 1434l-236 -295h-178l170 295h244zM739 1434 l-235 -295h-178l172 295h241z" glyph-name="ohungarumlaut" horiz-adv-x="1179" unicode="ő"/><glyph d="M797 1075q-176 0 -281 -110q-104 -111 -104 -283t104 -284t281 -111q109 0 195 51t130 141v408q-45 90 -130 139t-195 49zM2124 0h-1002v117q-64 -70 -168 -106t-209 -36q-301 0 -497 197t-195 509q0 312 196 509t496 196q103 0 207 -36t170 -101v117h1002v-307h-649 v-213h634v-307h-634v-232h649v-307z" glyph-name="OE" horiz-adv-x="2197" unicode="Œ"/><glyph d="M805 496q1 112 -59 176t-156 64t-156 -66q-59 -66 -59 -176t59 -176q60 -66 156 -66t156 66t59 178zM1332 772q-96 0 -144 -52q-50 -52 -60 -120h406q-8 66 -57 119t-145 53zM1835 395h-705q20 -74 85 -125t189 -51t216 82l139 -195q-150 -131 -416 -131q-133 1 -219 51 t-161 136q-155 -186 -387 -186t-379 151q-147 152 -148 369q-1 218 147 368t392 150q207 0 377 -189q149 189 369 189t360 -151t141 -400v-68z" glyph-name="oe" horiz-adv-x="1875" unicode="œ"/><glyph d="M754 766q72 0 120 39t50 107q0 68 -50 108q-50 39 -120 39h-279v-293h279zM475 459v-459h-352v1366h684q221 0 348 -129t127 -309t-81 -284q-81 -103 -191 -142l278 -502h-403l-230 459h-180zM1100 1776l-326 -295h-213l260 295h279z" glyph-name="Racute" horiz-adv-x="1353" unicode="Ŕ"/><glyph d="M430 0h-315v989h315v-121q51 60 137 104t172 44v-303q-37 8 -90 8t-122 -26t-97 -64v-631zM827 1434l-325 -295h-213l260 295h278z" glyph-name="racute" horiz-adv-x="768" unicode="ŕ"/><glyph d="M754 766q72 0 120 39t50 107q0 68 -50 108q-50 39 -120 39h-279v-293h279zM475 459v-459h-352v1366h684q221 0 348 -129t127 -309t-81 -284q-81 -103 -191 -142l278 -502h-403l-230 459h-180zM842 -285q0 -193 -180 -321l-101 80q41 22 81 68t52 89q-10 -6 -48 -6t-73 36 t-35 94q0 57 43 101t105 44t109 -50t47 -135z" glyph-name="Rcommaaccent" horiz-adv-x="1353" unicode="Ŗ"/><glyph d="M430 0h-315v989h315v-121q51 60 137 104t172 44v-303q-37 8 -90 8t-122 -26t-97 -64v-631zM543 -285q0 -193 -181 -321l-100 80q41 22 81 68t52 89q-8 -6 -47 -6t-74 36q-34 36 -34 94q0 57 42 101t104 44t110 -50q47 -50 47 -135z" glyph-name="rcommaaccent" horiz-adv-x="768" unicode="ŗ"/><glyph d="M754 766q72 0 120 39t50 107q0 68 -50 108q-50 39 -120 39h-279v-293h279zM475 459v-459h-352v1366h684q221 0 348 -129t127 -309t-81 -284q-81 -103 -191 -142l278 -502h-403l-230 459h-180zM823 1481h-276l-191 295h187l141 -166l135 166h189z" glyph-name="Rcaron" horiz-adv-x="1353" unicode="Ř"/><glyph d="M430 0h-315v989h315v-121q51 60 137 104t172 44v-303q-37 8 -90 8t-122 -26t-97 -64v-631zM567 1139h-276l-191 295h187l141 -166l135 166h189z" glyph-name="rcaron" horiz-adv-x="768" unicode="ř"/><glyph d="M631 -25q-379 0 -606 218l186 264q180 -180 436 -181q90 0 143 32q52 32 52 78q0 85 -193 114t-381 113q-86 40 -143 128t-57 211q0 180 146 308t398 126q334 0 555 -190l-192 -252q-172 141 -400 141q-147 0 -147 -98q0 -76 198 -108t373 -115q85 -41 143 -127t58 -205 q0 -209 -150 -333t-419 -124zM1024 1776l-326 -295h-213l260 295h279z" glyph-name="Sacute" horiz-adv-x="1241" unicode="Ś"/><glyph d="M494 -25q-134 0 -260 41t-203 111l131 217q56 -51 160 -91t188 -40q133 0 133 76q0 35 -59 52q-60 17 -144 31t-169 40t-144 96t-59 194t112 218q113 94 329 94t396 -131l-121 -209q-47 45 -127 77q-80 31 -149 31q-68 0 -104 -20t-36 -51t60 -46q59 -15 143 -31t169 -44 q84 -29 144 -102t60 -185q0 -145 -120 -237t-330 -91zM897 1434l-326 -295h-213l260 295h279z" glyph-name="sacute" horiz-adv-x="991" unicode="ś"/><glyph d="M631 -25q-379 0 -606 218l186 264q180 -180 436 -181q90 0 143 32q52 32 52 78q0 85 -193 114t-381 113q-86 40 -143 128t-57 211q0 180 146 308t398 126q334 0 555 -190l-192 -252q-172 141 -400 141q-147 0 -147 -98q0 -76 198 -108t373 -115q85 -41 143 -127t58 -205 q0 -209 -150 -333t-419 -124zM932 1481h-189l-141 166l-135 -166h-186l184 295h276z" glyph-name="Scircumflex" horiz-adv-x="1241" unicode="Ŝ"/><glyph d="M494 -25q-134 0 -260 41t-203 111l131 217q56 -51 160 -91t188 -40q133 0 133 76q0 35 -59 52q-60 17 -144 31t-169 40t-144 96t-59 194t112 218q113 94 329 94t396 -131l-121 -209q-47 45 -127 77q-80 31 -149 31q-68 0 -104 -20t-36 -51t60 -46q59 -15 143 -31t169 -44 q84 -29 144 -102t60 -185q0 -145 -120 -237t-330 -91zM821 1139h-188l-141 166l-136 -166h-186l184 295h277z" glyph-name="scircumflex" horiz-adv-x="991" unicode="ŝ"/><glyph d="M600 -406q-150 0 -233 68l57 119q84 -61 168 -62q40 -1 68 15t28 43q0 45 -51 45q-33 0 -59 -27l-109 62l47 125q-303 29 -491 211l186 264q180 -180 436 -181q90 0 143 32q52 32 52 78q0 85 -193 114t-381 113q-86 40 -143 128t-57 211q0 180 146 308t398 126 q334 0 555 -190l-192 -252q-172 141 -400 141q-147 0 -147 -98q0 -76 198 -108t373 -115q85 -41 143 -127t58 -205q0 -205 -141 -327t-402 -130l-30 -75q35 20 81 20t86 -42q42 -42 42 -114t-68 -122q-68 -48 -168 -48z" glyph-name="Scedilla" horiz-adv-x="1241" unicode="Ş"/><glyph d="M492 -406q-150 0 -234 68l57 119q84 -61 168 -62q39 -1 68 15t29 43q0 45 -52 45q-33 0 -59 -27l-109 62l48 123q-244 27 -377 147l131 217q56 -51 160 -91t188 -40q133 0 133 76q0 35 -59 52q-60 17 -144 31t-169 40t-144 96t-59 194t112 218q113 94 329 94t396 -131 l-121 -209q-47 45 -127 77q-80 31 -149 31q-68 0 -104 -20t-36 -51t60 -46q59 -15 143 -31t169 -44q84 -29 144 -102q60 -72 60 -196t-104 -212t-289 -103l-33 -77q35 20 81 20t87 -42t41 -114q1 -72 -67 -122q-68 -48 -168 -48z" glyph-name="scedilla" horiz-adv-x="991" unicode="ş"/><glyph d="M631 -25q-379 0 -606 218l186 264q180 -180 436 -181q90 0 143 32q52 32 52 78q0 85 -193 114t-381 113q-86 40 -143 128t-57 211q0 180 146 308t398 126q334 0 555 -190l-192 -252q-172 141 -400 141q-147 0 -147 -98q0 -76 198 -108t373 -115q85 -41 143 -127t58 -205 q0 -209 -150 -333t-419 -124zM748 1481h-277l-190 295h186l141 -166l135 166h189z" glyph-name="Scaron" horiz-adv-x="1241" unicode="Š"/><glyph d="M494 -25q-134 0 -260 41t-203 111l131 217q56 -51 160 -91t188 -40q133 0 133 76q0 35 -59 52q-60 17 -144 31t-169 40t-144 96t-59 194t112 218q113 94 329 94t396 -131l-121 -209q-47 45 -127 77q-80 31 -149 31q-68 0 -104 -20t-36 -51t60 -46q59 -15 143 -31t169 -44 q84 -29 144 -102t60 -185q0 -145 -120 -237t-330 -91zM637 1139h-277l-190 295h186l142 -166l135 166h188z" glyph-name="scaron" horiz-adv-x="991" unicode="š"/><glyph d="M780 0h-352v1059h-383v307h1116v-307h-381v-1059zM762 -285q0 -193 -180 -321l-101 80q41 22 81 68t52 89q-8 -6 -46 -6t-74 36q-35 36 -35 94q0 57 42 101q43 44 105 44t109 -50t47 -135z" glyph-name="Tcommaaccent" unicode="Ţ"/><glyph d="M494 354q0 -100 97 -100q50 0 71 25l61 -238q-70 -66 -228 -66q-315 0 -315 291v449h-164v274h164v271h314v-271h200v-274h-200v-361zM528 -285q0 -193 -180 -321l-100 80q41 22 81 68t52 89q-8 -6 -47 -6t-74 36t-35 94q0 57 42 101t105 44q64 0 110 -50t46 -135z" glyph-name="tcommaaccent" horiz-adv-x="737" unicode="ţ"/><glyph d="M780 0h-352v1059h-383v307h1116v-307h-381v-1059zM745 1481h-276l-190 295h186l141 -166l135 166h189z" glyph-name="Tcaron" unicode="Ť"/><glyph d="M494 354q0 -100 97 -100q50 0 71 25l61 -238q-70 -66 -228 -66q-315 0 -315 291v449h-164v274h164v271h314v-271h200v-274h-200v-361zM901 1403q0 -193 -180 -322l-100 80q41 23 81 69t52 89q-8 -6 -47 -6t-74 36t-35 94t42 101t104 43t110 -50q47 -50 47 -134z" glyph-name="tcaron" horiz-adv-x="845" unicode="ť"/><glyph d="M780 0h-352v504h-256v174h256v381h-383v307h1116v-307h-381v-381h258v-174h-258v-504z" glyph-name="Tbar" unicode="Ŧ"/><glyph d="M494 354q0 -100 97 -100q50 0 71 25l61 -238q-70 -66 -228 -66q-315 0 -315 291v142h-164v174h164v133h-164v274h164v271h314v-271h200v-274h-200v-133h139v-174h-139v-54z" glyph-name="tbar" horiz-adv-x="737" unicode="ŧ"/><glyph d="M883 1477q-89 0 -141 56t-91 56q-61 0 -61 -100h-160q0 274 232 274q57 1 100 -27t75 -57t56 -28q61 0 61 100h160q0 -274 -231 -274zM769 -25q-318 0 -482 158t-164 420v813h358v-801q0 -125 75 -201t213 -77q138 0 213 77t75 201v801h356v-811q0 -264 -163 -422 t-481 -158z" glyph-name="Utilde" horiz-adv-x="1536" unicode="Ũ"/><glyph d="M719 1135q-85 0 -176 85q-31 28 -56 27q-61 0 -61 -100h-160q0 274 232 274q57 -1 100 -29t75 -56t56 -27q61 0 62 100h159q0 -274 -231 -274zM1098 0h-316v119q-127 -143 -342 -144q-164 0 -244 83t-81 227v704h315v-575q0 -160 164 -160q113 0 188 96v639h316v-989z " glyph-name="utilde" horiz-adv-x="1212" unicode="ũ"/><glyph d="M1145 1481h-744v174h744v-174zM769 -25q-318 0 -482 158t-164 420v813h358v-801q0 -125 75 -201t213 -77q138 0 213 77t75 201v801h356v-811q0 -264 -163 -422t-481 -158z" glyph-name="Umacron" horiz-adv-x="1536" unicode="Ū"/><glyph d="M977 1139h-744v174h744v-174zM1098 0h-316v119q-127 -143 -342 -144q-164 0 -244 83t-81 227v704h315v-575q0 -160 164 -160q113 0 188 96v639h316v-989z" glyph-name="umacron" horiz-adv-x="1212" unicode="ū"/><glyph d="M777 1595q140 0 220 119l136 -110q-133 -180 -357 -180t-362 180l135 110q88 -119 228 -119zM769 -25q-318 0 -482 158t-164 420v813h358v-801q0 -125 75 -201t213 -77q138 0 213 77t75 201v801h356v-811q0 -264 -163 -422t-481 -158z" glyph-name="Ubreve" horiz-adv-x="1536" unicode="Ŭ"/><glyph d="M613 1253q140 0 221 119l135 -110q-133 -180 -357 -180t-362 180l135 110q88 -119 228 -119zM1098 0h-316v119q-127 -143 -342 -144q-164 0 -244 83t-81 227v704h315v-575q0 -160 164 -160q113 0 188 96v639h316v-989z" glyph-name="ubreve" horiz-adv-x="1212" unicode="ŭ"/><glyph d="M769 -25q-318 0 -482 158t-164 420v813h358v-801q0 -125 75 -201t213 -77q138 0 213 77t75 201v801h356v-811q0 -264 -163 -422t-481 -158zM690 1638q0 -34 24 -58t59 -24q33 0 57 24t24 58t-24 60q-24 24 -58 24t-58 -24t-24 -60zM773 1862q91 0 155 -66t63 -157 q1 -91 -63 -157t-155 -65q-91 0 -157 66q-66 67 -66 157t66 156t157 66z" glyph-name="Uring" horiz-adv-x="1536" unicode="Ů"/><glyph d="M1098 0h-316v119q-127 -143 -342 -144q-164 0 -244 83t-81 227v704h315v-575q0 -160 164 -160q113 0 188 96v639h316v-989zM526 1296q0 -34 24 -58t59 -24q34 0 58 24q23 24 23 58t-23 60q-24 24 -58 24q-35 0 -59 -24t-24 -60zM610 1520q90 0 154 -66t63 -157 q1 -91 -63 -157t-155 -65q-91 0 -157 66q-66 67 -65 157q0 90 66 156q67 66 157 66z" glyph-name="uring" horiz-adv-x="1212" unicode="ů"/><glyph d="M1237 1776l-236 -295h-178l170 295h244zM924 1776l-236 -295h-178l172 295h242zM769 -25q-318 0 -482 158t-164 420v813h358v-801q0 -125 75 -201t213 -77q138 0 213 77t75 201v801h356v-811q0 -264 -163 -422t-481 -158z" glyph-name="Uhungarumlaut" horiz-adv-x="1536" unicode="Ű"/><glyph d="M1069 1434l-235 -295h-179l170 295h244zM756 1434l-236 -295h-178l172 295h242zM1098 0h-316v119q-127 -143 -342 -144q-164 0 -244 83t-81 227v704h315v-575q0 -160 164 -160q113 0 188 96v639h316v-989z" glyph-name="uhungarumlaut" horiz-adv-x="1212" unicode="ű"/><glyph d="M920 -381q-92 0 -154 47q-61 47 -61 140t63 169q-319 2 -482 159t-163 419v813h358v-801q0 -125 75 -201t213 -77q138 0 213 77t75 201v801h356v-811q0 -213 -106 -359t-316 -196q-139 -72 -139 -178q0 -78 68 -78q54 0 79 63l121 -75q-68 -113 -200 -113z" glyph-name="Uogonek" horiz-adv-x="1536" unicode="Ų"/><glyph d="M1026 -256q55 0 80 63l121 -75q-68 -113 -201 -113q-92 0 -154 47q-61 46 -61 150t86 184h-115v119q-127 -143 -342 -144q-164 0 -244 83t-81 227v704h315v-575q0 -160 164 -160q113 0 188 96v639h316v-989q-139 -72 -140 -178q0 -78 68 -78z" glyph-name="uogonek" horiz-adv-x="1212" unicode="ų"/><glyph d="M1538 0h-373l-207 856l-206 -856h-373l-391 1366h395l207 -911l233 911h271l233 -911l205 911h397zM1286 1481h-188l-142 166l-135 -166h-186l184 295h277z" glyph-name="Wcircumflex" horiz-adv-x="1916" unicode="Ŵ"/><glyph d="M1331 0h-340l-186 612l-184 -612h-340l-293 989h323l160 -606l195 606h280l195 -606l157 606h326zM1133 1139h-189l-141 166l-135 -166h-187l185 295h276z" glyph-name="wcircumflex" horiz-adv-x="1611" unicode="ŵ"/><glyph d="M848 0h-352v551l-519 815h398l297 -504l293 504h399l-516 -815v-551zM1001 1481h-188l-141 166l-135 -166h-187l185 295h276z" glyph-name="Ycircumflex" horiz-adv-x="1341" unicode="Ŷ"/><glyph d="M862 1139h-188l-142 166l-135 -166h-186l184 295h277zM94 -385l45 281q33 -18 78 -19q111 0 133 55l23 54l-393 1003h331l224 -627l225 627h334l-447 -1130q-55 -145 -157 -201t-223 -57q-120 -2 -173 14z" glyph-name="ycircumflex" horiz-adv-x="1073" unicode="ŷ"/><glyph d="M848 0h-352v551l-519 815h398l297 -504l293 504h399l-516 -815v-551zM453 1761q69 -1 115 -47t46 -114t-47 -114t-115 -46t-113 46q-46 46 -46 114t46 114t114 47zM731 1600q0 68 47 114t114 47q67 -1 114 -47t47 -114t-47 -114t-115 -46t-114 46t-46 114z" glyph-name="Ydieresis" horiz-adv-x="1341" unicode="Ÿ"/><glyph d="M1141 0h-1061v281l582 778h-582v307h1046v-281l-583 -778h598v-307zM946 1776l-325 -295h-213l260 295h278z" glyph-name="Zacute" horiz-adv-x="1220" unicode="Ź"/><glyph d="M911 0h-833v231l397 484h-397v274h825v-223l-405 -494h413v-272zM897 1434l-326 -295h-213l260 295h279z" glyph-name="zacute" horiz-adv-x="989" unicode="ź"/><glyph d="M596 1440q-66 0 -113 47t-47 114t47 113t113 47q66 0 113 -47q47 -48 47 -114t-47 -113t-113 -47zM1141 0h-1061v281l582 778h-582v307h1046v-281l-583 -778h598v-307z" glyph-name="Zdotaccent" horiz-adv-x="1220" unicode="Ż"/><glyph d="M489 1098q-67 0 -113 47t-46 114t47 113t113 47q66 0 112 -47q47 -48 47 -114t-47 -113t-113 -47zM911 0h-833v231l397 484h-397v274h825v-223l-405 -494h413v-272z" glyph-name="zdotaccent" horiz-adv-x="989" unicode="ż"/><glyph d="M1141 0h-1061v281l582 778h-582v307h1046v-281l-583 -778h598v-307zM750 1481h-277l-190 295h186l141 -166l135 166h189z" glyph-name="Zcaron" horiz-adv-x="1220" unicode="Ž"/><glyph d="M911 0h-833v231l397 484h-397v274h825v-223l-405 -494h413v-272zM627 1139h-277l-190 295h186l141 -166l136 166h188z" glyph-name="zcaron" horiz-adv-x="989" unicode="ž"/><glyph d="M498 0h-316v715h-164v274h164v49q0 156 100 252t271 96q172 0 268 -98l-116 -186q-37 41 -91 41t-86 -29q-31 -29 -30 -76v-1038z" glyph-name="longs" horiz-adv-x="714" unicode="ſ"/><glyph d="M80 473v275h156l65 299q33 151 153 245t286 94t255 -94l-127 -256q-37 43 -87 43q-50 1 -86 -29t-50 -83l-49 -219h205v-275h-264l-181 -803h-358l178 803h-96z" glyph-name="florin" horiz-adv-x="952" unicode="ƒ"/><glyph d="M412 682q0 -170 102 -282t269 -113q167 0 270 112q102 113 102 283t-102 283q-101 113 -269 113t-270 -114q-102 -112 -102 -282zM784 -25q-315 0 -523 199t-208 508t208 508q209 199 533 199t531 -218q68 51 88 119q-6 -6 -42 -6q-37 0 -67 32t-30 84t37 90t93 38 t97 -44t41 -120q0 -164 -147 -279q119 -176 118 -403q0 -309 -207 -508t-522 -199z" glyph-name="Ohorn" horiz-adv-x="1568" unicode="Ơ"/><glyph d="M588 254q100 0 158 69t58 172t-58 172t-158 69t-157 -69q-56 -69 -56 -172q1 -103 57 -172t156 -69zM1155 1092q0 -160 -137 -271q110 -139 110 -341t-147 -353q-147 -152 -392 -152t-392 152t-148 369q-1 218 147 368t374 150t370 -115q66 51 86 119q-6 -6 -42 -6 t-66 32t-31 83q0 51 38 89t93 38t96 -44t41 -118z" glyph-name="ohorn" horiz-adv-x="1179" unicode="ơ"/><glyph d="M1632 1478q0 -83 -56 -172t-163 -143v-608q0 -264 -163 -422t-481 -158t-482 158t-164 420v813h358v-801q0 -125 75 -201t213 -77q138 0 213 77t75 201v801h356v-76q72 53 90 121q-12 -4 -45 -4q-34 0 -64 32t-30 83t37 89t92 38t97 -44t42 -127z" glyph-name="Uhorn" horiz-adv-x="1536" unicode="Ư"/><glyph d="M1098 0h-316v119q-127 -143 -342 -144q-164 0 -244 83t-81 227v704h315v-575q0 -160 164 -160q113 0 188 96v639h312q20 31 30 62q-6 -7 -42 -7t-66 33q-31 33 -31 84t38 89t93 38t97 -44t42 -120q0 -172 -157 -284v-840z" glyph-name="uhorn" horiz-adv-x="1212" unicode="ư"/><glyph d="M930 504v514l-289 -514h289zM1931 0h-1001v197h-453l-110 -197h-402l819 1366h1147v-307h-649v-213h635v-307h-635v-232h649v-307zM1511 1776l-325 -295h-213l260 295h278z" glyph-name="AEacute" horiz-adv-x="2004" unicode="Ǽ"/><glyph d="M727 330v10q-59 72 -192 72q-72 0 -121 -27t-49 -77t45 -76q44 -26 118 -26t137 41q62 40 62 83zM1232 770q-86 0 -134 -51t-58 -119h379q-8 66 -54 118t-133 52zM1720 395h-676q18 -74 80 -122t160 -48q137 0 221 84l140 -203q-70 -63 -180 -97t-212 -34 q-240 0 -368 158q-67 -70 -175 -114t-235 -44q-184 0 -304 81t-120 239q1 158 101 241t251 82q219 0 324 -110v115q0 63 -57 103t-156 40q-166 0 -297 -107l-113 201q180 154 436 154t349 -146q135 146 348 146t348 -152t135 -399v-68zM1266 1434l-326 -295h-213l260 295 h279z" glyph-name="aeacute" horiz-adv-x="1761" unicode="ǽ"/><glyph d="M412 682q0 -123 53 -217l469 582q-68 31 -150 30q-168 -1 -270 -113t-102 -282zM784 287q166 0 269 112q102 113 102 267t-72 260l-481 -596q86 -43 182 -43zM784 -25q-217 0 -389 99l-59 -74h-246l154 190q-190 195 -190 498t207 502q208 199 523 199q199 0 359 -82 l49 59h246l-138 -170q213 -201 213 -512t-207 -510t-522 -199zM1186 1776l-326 -295h-213l260 295h279z" glyph-name="Oslashacute" horiz-adv-x="1568" unicode="Ǿ"/><glyph d="M375 514q0 -84 20 -131l291 330q-45 23 -98 22q-100 0 -157 -68q-56 -69 -56 -153zM588 254q100 0 158 69t59 173q0 59 -23 114l-295 -334q40 -22 101 -22zM49 500q-1 214 147 364t392 150q166 0 295 -76l45 51h188l-123 -139q135 -145 135 -358t-147 -365t-393 -152 q-170 0 -297 78l-47 -53h-185l123 141q-133 145 -133 359zM991 1434l-325 -295h-213l260 295h278z" glyph-name="oslashacute" horiz-adv-x="1179" unicode="ǿ"/><glyph d="M631 -25q-379 0 -606 218l186 264q180 -180 436 -181q90 0 143 32q52 32 52 78q0 85 -193 114t-381 113q-86 40 -143 128t-57 211q0 180 146 308t398 126q334 0 555 -190l-192 -252q-172 141 -400 141q-147 0 -147 -98q0 -76 198 -108t373 -115q85 -41 143 -127t58 -205 q0 -209 -150 -333t-419 -124zM774 -285q0 -193 -180 -321l-100 80q40 22 80 68t53 89q-8 -6 -47 -6t-74 36t-35 94q0 57 42 101q43 44 105 44t109 -50t47 -135z" glyph-name="Scommaaccent" horiz-adv-x="1241" unicode="Ș"/><glyph d="M494 -25q-134 0 -260 41t-203 111l131 217q56 -51 160 -91t188 -40q133 0 133 76q0 35 -59 52q-60 17 -144 31t-169 40t-144 96t-59 194t112 218q113 94 329 94t396 -131l-121 -209q-47 45 -127 77q-80 31 -149 31q-68 0 -104 -20t-36 -51t60 -46q59 -15 143 -31t169 -44 q84 -29 144 -102t60 -185q0 -145 -120 -237t-330 -91zM666 -285q0 -193 -181 -321l-100 80q41 22 81 68t52 89q-8 -6 -47 -6t-74 36t-35 94q0 57 42 101t105 44t110 -50t47 -135z" glyph-name="scommaaccent" horiz-adv-x="991" unicode="ș"/><glyph d="M780 0h-352v1059h-383v307h1116v-307h-381v-1059zM762 -285q0 -193 -180 -321l-101 80q41 22 81 68t52 89q-8 -6 -46 -6t-74 36q-35 36 -35 94q0 57 42 101q43 44 105 44t109 -50t47 -135z" glyph-name="uni021A" unicode="Ț"/><glyph d="M494 354q0 -100 97 -100q50 0 71 25l61 -238q-70 -66 -228 -66q-315 0 -315 291v449h-164v274h164v271h314v-271h200v-274h-200v-361zM528 -285q0 -193 -180 -321l-100 80q41 22 81 68t52 89q-8 -6 -47 -6t-74 36t-35 94q0 57 42 101t105 44q64 0 110 -50t46 -135z" glyph-name="uni021B" horiz-adv-x="737" unicode="ț"/><glyph d="M47 -401q-96 0 -147 15t-113 54l80 248q57 -45 119 -45t96 37q33 37 33 100v981h315v-981q0 -188 -96 -299q-97 -110 -287 -110z" glyph-name="uni0237" horiz-adv-x="544" unicode="ȷ"/><glyph d="M762 668h-223v370q0 100 -107 101q-68 0 -117 -58v-413h-223v888h223v-321q80 92 228 92q109 0 164 -57t55 -152v-450z" glyph-name="uni02B0" horiz-adv-x="854" unicode="ʰ"/><glyph d="M479 1149q0 -250 -233 -416l-131 107q51 27 104 84t70 112q-20 -8 -47 -8q-68 0 -114 47t-46 124t55 132t138 55t143 -64t61 -173z" glyph-name="afii57929" horiz-adv-x="548" unicode="ʼ"/><glyph d="M651 1139h-188l-141 166l-136 -166h-186l184 295h277z" glyph-name="circumflex" horiz-adv-x="651" unicode="ˆ"/><glyph d="M467 1139h-277l-190 295h186l142 -166l135 166h188z" glyph-name="caron" horiz-adv-x="651" unicode="ˇ"/><glyph d="M743 1210h-743v174h743v-174z" glyph-name="uni02C9" horiz-adv-x="743" unicode="ˉ"/><glyph d="M539 1139h-213l-326 295h279z" glyph-name="uni02CB" horiz-adv-x="538" unicode="ˋ"/><glyph d="M363 1253q140 0 221 119l135 -110q-133 -180 -357 -180t-362 180l135 110q88 -119 228 -119z" glyph-name="breve" horiz-adv-x="718" unicode="˘"/><glyph d="M211 1098q-66 0 -113 47t-47 114t47 113t113 47q66 0 113 -47q47 -48 47 -114t-47 -113t-113 -47z" glyph-name="dotaccent" horiz-adv-x="421" unicode="˙"/><glyph d="M139 1296q1 -34 25 -58t58 -24t58 24t24 58t-24 60q-24 24 -58 24t-58 -24t-25 -60zM222 1520q90 0 154 -66t64 -157t-64 -157t-154 -65q-90 0 -156 66q-66 67 -66 157t66 156t156 66z" glyph-name="ring" horiz-adv-x="440" unicode="˚"/><glyph d="M215 -381q-92 0 -154 47q-61 47 -61 141q0 160 182 263l105 -70q-139 -72 -140 -178q0 -78 68 -78q55 0 80 63l121 -75q-68 -113 -201 -113z" glyph-name="ogonek" horiz-adv-x="415" unicode="˛"/><glyph d="M453 1135q-83 0 -177 85q-31 28 -55 27q-61 0 -61 -100h-160q0 274 231 274q57 -1 101 -29t75 -56q32 -28 56 -27q61 0 61 100h160q0 -274 -231 -274z" glyph-name="tilde" horiz-adv-x="684" unicode="˜"/><glyph d="M727 1434l-235 -295h-179l170 295h244zM414 1434l-236 -295h-178l172 295h242z" glyph-name="hungarumlaut" horiz-adv-x="727" unicode="˝"/><glyph d="M208 1618q67 0 116 -38t49 -114q0 -43 -29 -100h-127q37 39 37 96t-53 58q-46 -1 -64 -54l-106 35q37 117 177 117z" glyph-name="hookabovecomb" horiz-adv-x="415" unicode="̉"/><glyph d="M479 127q0 -250 -233 -414l-131 107q51 25 104 82t70 112q-20 -8 -47 -8q-68 0 -114 47t-46 124t55 132t138 55t143 -64t61 -173zM274 618q-78 0 -135 58t-57 137q0 78 57 134q57 57 135 57t136 -56t57 -135q1 -79 -57 -137t-136 -58z" glyph-name="uni037E" horiz-adv-x="548" unicode=";"/><glyph d="M367 1120h-134l43 447h246z" glyph-name="tonos" horiz-adv-x="489" unicode="΄"/><glyph d="M283 1419q67 -1 113 -47t46 -114t-46 -114t-114 -46t-113 46q-46 46 -46 114t46 114t114 47zM768 1259q0 67 47 113t114 47q67 -1 114 -47t47 -114t-48 -114t-114 -46q-68 0 -114 47t-46 114zM635 1120h-135l43 447h245z" glyph-name="dieresistonos" horiz-adv-x="1214" unicode="΅"/><glyph d="M887 504l-174 514l-174 -514h348zM1450 0h-399l-68 197h-539l-67 -197h-400l515 1366h442zM319 1120h-133l43 447h246z" glyph-name="Alphatonos" horiz-adv-x="1427" unicode="Ά"/><glyph d="M1219 0h-1002v1366h1002v-307h-650v-213h635v-307h-635v-232h650v-307zM92 1120h-133l43 447h246z" glyph-name="Epsilontonos" horiz-adv-x="1302" unicode="Έ"/><glyph d="M1489 0h-352v549h-568v-549h-352v1366h352v-510h568v510h352v-1366zM92 1120h-133l43 447h246z" glyph-name="Etatonos" horiz-adv-x="1611" unicode="Ή"/><glyph d="M569 0h-352v1366h352v-1366zM92 1120h-133l43 447h246z" glyph-name="Iotatonos" horiz-adv-x="692" unicode="Ί"/><glyph d="M412 682q0 -170 102 -282t269 -113q167 0 270 112q102 113 102 283t-102 283q-101 113 -269 113t-270 -114q-102 -112 -102 -282zM784 -25q-315 0 -523 199t-208 508t208 508t523 199q314 0 522 -199t208 -508t-208 -508q-207 -199 -522 -199zM111 1120h-134l43 447h246z " glyph-name="Omicrontonos" horiz-adv-x="1568" unicode="Ό"/><glyph d="M1049 0h-353v551l-518 815h397l297 -504l293 504h400l-516 -815v-551zM92 1120h-133l43 447h246z" glyph-name="Upsilontonos" horiz-adv-x="1540" unicode="Ύ"/><glyph d="M113 307h227q-262 190 -262 468t206 446t525 168t524 -168q205 -167 205 -447t-260 -467h225v-307h-579v307q120 35 188 141t68 248t-92 260t-279 119q-129 0 -217 -63q-156 -112 -156 -326q0 -131 69 -237t189 -142v-307h-581v307zM111 1120h-134l43 447h246z" glyph-name="Omegatonos" horiz-adv-x="1591" unicode="Ώ"/><glyph d="M426 -25q-152 0 -232 74t-79 217v723h315v-657q0 -38 22 -58t50 -20t43 6l20 -266q-55 -19 -139 -19zM-37 1419q68 -1 114 -47t46 -114t-46 -114t-114 -46t-114 46t-46 114t46 114t114 47zM608 1098q-68 0 -114 47t-45 114q0 67 47 113q48 46 114 47q66 -1 113 -47 t47 -114t-47 -114t-115 -46zM315 1120h-135l43 447h246z" glyph-name="iotadieresistonos" horiz-adv-x="573" unicode="ΐ"/><glyph d="M887 504l-174 514l-174 -514h348zM1450 0h-399l-68 197h-539l-67 -197h-400l515 1366h442z" glyph-name="Alpha" horiz-adv-x="1427" unicode="Α"/><glyph d="M829 297q63 0 100 34q36 34 36 88t-36 89t-100 35h-354v-246h354zM817 842q53 0 87 32t34 81q0 50 -34 82t-87 32h-342v-227h342zM922 0h-799v1366h774q191 0 295 -103t104 -235t-66 -217q-66 -84 -167 -106q111 -15 185 -111t75 -238q0 -142 -104 -250 q-104 -106 -297 -106z" glyph-name="Beta" horiz-adv-x="1392" unicode="Β"/><glyph d="M475 0h-352v1366h1001v-307h-649v-1059z" glyph-name="Gamma" horiz-adv-x="1191" unicode="Γ"/><glyph d="M954 307l-241 711l-240 -711h481zM1450 0h-1473l515 1366h442z" glyph-name="Delta" horiz-adv-x="1427" unicode="Δ"/><glyph d="M1124 0h-1001v1366h1001v-307h-649v-213h635v-307h-635v-232h649v-307z" glyph-name="Epsilon" unicode="Ε"/><glyph d="M1141 0h-1061v281l582 778h-582v307h1046v-281l-583 -778h598v-307z" glyph-name="Zeta" horiz-adv-x="1220" unicode="Ζ"/><glyph d="M1395 0h-353v549h-567v-549h-352v1366h352v-510h567v510h353v-1366z" glyph-name="Eta" horiz-adv-x="1517" unicode="Η"/><glyph d="M412 682q0 -170 102 -282t269 -113q167 0 270 112q102 113 102 283t-102 283q-101 113 -269 113t-270 -114q-102 -112 -102 -282zM784 -25q-315 0 -523 199t-208 508t208 508t523 199q314 0 522 -199t208 -508t-208 -508q-207 -199 -522 -199zM1063 539h-559v307h559 v-307z" glyph-name="Theta" horiz-adv-x="1568" unicode="Θ"/><glyph d="M475 0h-352v1366h352v-1366z" glyph-name="Iota" horiz-adv-x="598" unicode="Ι"/><glyph d="M475 0h-352v1366h352v-561l420 561h434l-530 -639l559 -727h-432l-359 514l-92 -115v-399z" glyph-name="Kappa" horiz-adv-x="1339" unicode="Κ"/><glyph d="M1450 0h-399l-338 1018l-336 -1018h-400l515 1366h442z" glyph-name="Lambda" horiz-adv-x="1427" unicode="Λ"/><glyph d="M1673 0h-352v889l-346 -889h-156l-344 889v-889h-352v1366h489l285 -741l287 741h489v-1366z" glyph-name="Mu" horiz-adv-x="1796" unicode="Μ"/><glyph d="M1393 0h-340l-578 791v-791h-352v1366h362l553 -752v752h355v-1366z" glyph-name="Nu" horiz-adv-x="1515" unicode="Ν"/><glyph d="M1188 539h-1090v307h1090v-307zM1202 0h-1118v307h1118v-307zM1200 1059h-1116v307h1116v-307z" glyph-name="Xi" horiz-adv-x="1286" unicode="Ξ"/><glyph d="M412 682q0 -170 102 -282t269 -113q167 0 270 112q102 113 102 283t-102 283q-101 113 -269 113t-270 -114q-102 -112 -102 -282zM784 -25q-315 0 -523 199t-208 508t208 508t523 199q314 0 522 -199t208 -508t-208 -508q-207 -199 -522 -199z" glyph-name="Omicron" horiz-adv-x="1568" unicode="Ο"/><glyph d="M1395 0h-353v1059h-567v-1059h-352v1366h1272v-1366z" glyph-name="Pi" horiz-adv-x="1517" unicode="Π"/><glyph d="M760 766q72 0 118 39t46 107t-46 108q-46 39 -118 39h-285v-293h285zM475 0h-352v1366h684q221 0 348 -130t127 -324t-127 -324t-348 -129h-332v-459z" glyph-name="Rho" horiz-adv-x="1316" unicode="Ρ"/><glyph d="M1126 307v-307h-1042v307l387 389l-385 363v307h1040v-307h-600l377 -361l-393 -391h616z" glyph-name="Sigma" horiz-adv-x="1210" unicode="Σ"/><glyph d="M780 0h-352v1059h-383v307h1116v-307h-381v-1059z" glyph-name="Tau" unicode="Τ"/><glyph d="M848 0h-352v551l-519 815h398l297 -504l293 504h399l-516 -815v-551z" glyph-name="Upsilon" horiz-adv-x="1341" unicode="Υ"/><glyph d="M412 682q0 -188 311 -229v458q-311 -41 -311 -229zM1389 682q0 188 -312 229v-458q312 41 312 229zM1077 0h-354v139q-322 29 -496 167t-174 375t175 376t495 168v141h354v-141q319 -29 495 -168t175 -376q0 -237 -174 -375t-496 -167v-139z" glyph-name="Phi" horiz-adv-x="1802" unicode="Φ"/><glyph d="M1405 0h-416l-297 459l-297 -459h-418l478 700l-447 666h416l268 -428l264 428h418l-444 -664z" glyph-name="Chi" horiz-adv-x="1384" unicode="Χ"/><glyph d="M1100 0h-352v262q-309 35 -467 187t-158 382v535h358v-522q0 -213 267 -264v786h352v-786q264 53 264 264v522h360v-532q0 -233 -158 -385t-466 -187v-262z" glyph-name="Psi" horiz-adv-x="1847" unicode="Ψ"/><glyph d="M88 307h227q-262 190 -262 468t206 446t525 168q318 0 524 -168q206 -167 206 -447t-261 -467h226v-307h-580v307q121 35 189 141t67 248q0 142 -92 260t-279 119q-129 0 -217 -63q-157 -113 -155 -326q0 -131 68 -237t190 -142v-307h-582v307z" glyph-name="Omega" horiz-adv-x="1568" unicode="Ω"/><glyph d="M242 1634q0 -68 -47 -114t-115 -45q-68 0 -114 46q-46 45 -46 113t46 115t114 47t115 -47t47 -115zM680 1634q0 -68 -47 -114t-115 -45q-68 0 -114 47q-46 48 -46 114t48 113t114 47t113 -47t47 -115zM475 0h-352v1366h352v-1366z" glyph-name="Iotadieresis" horiz-adv-x="598" unicode="Ϊ"/><glyph d="M449 1796q69 0 115 -47t46 -115t-47 -114t-115 -45q-68 0 -113 46q-46 45 -46 113t46 115t114 47zM888 1796q67 0 114 -47t47 -115q1 -68 -47 -114t-116 -45q-68 0 -113 47q-46 48 -46 114t47 113t114 47zM848 0h-352v551l-519 815h398l297 -504l293 504h399l-516 -815 v-551z" glyph-name="Upsilondieresis" horiz-adv-x="1341" unicode="Ϋ"/><glyph d="M590 254q51 0 105 26t85 64v301q-31 39 -85 64t-105 24q-96 0 -157 -64q-60 -65 -60 -173q-1 -108 61 -176q62 -66 156 -66zM496 -25q-199 1 -323 139t-124 379t124 381t308 140t297 -142v117h316v-657q0 -37 21 -58q21 -20 49 -20t46 6l19 -266q-53 -18 -139 -19 q-229 0 -289 172q-106 -172 -305 -172zM664 1120h-134l43 447h246z" glyph-name="alphatonos" horiz-adv-x="1239" unicode="ά"/><glyph d="M49 274q0 100 86 164t189 70q-106 18 -180 82t-74 147q0 129 127 203t379 73t417 -167l-149 -180q-117 106 -295 106q-70 0 -112 -20t-42 -54q0 -82 158 -82h195v-235h-195q-176 0 -176 -86q-1 -78 177 -78t310 102l142 -186q-162 -158 -467 -158q-223 2 -357 84 q-133 82 -133 215zM553 1120h-133l43 447h246z" glyph-name="epsilontonos" horiz-adv-x="1019" unicode="έ"/><glyph d="M1100 -377h-316v948q0 164 -161 164q-115 0 -193 -96v-639h-315v989h315v-121q125 145 342 146q164 0 246 -85t82 -229v-1077zM651 1120h-133l43 447h246z" glyph-name="etatonos" horiz-adv-x="1214" unicode="ή"/><glyph d="M426 -25q-152 0 -232 74t-79 217v723h315v-657q0 -38 22 -58t50 -20t43 6l20 -266q-55 -19 -139 -19zM332 1120h-133l43 447h245z" glyph-name="iotatonos" horiz-adv-x="573" unicode="ί"/><glyph d="M1147 549q1 -258 -145 -416t-392 -158t-370 130t-125 348v536h315v-530q0 -89 47 -147t140 -58t150 76q56 76 56 211q0 199 -106 352l289 121q141 -207 141 -465zM274 1098q-68 0 -114 46t-45 114q0 68 46 114q45 46 113 47q68 -1 114 -47t46 -114t-46 -114t-114 -46z M760 1259q0 67 47 113t114 47q67 -1 113 -47t47 -114q0 -68 -47 -114q-46 -46 -114 -46t-114 47t-46 114zM627 1120h-135l43 447h245z" glyph-name="upsilondieresistonos" horiz-adv-x="1196" unicode="ΰ"/><glyph d="M590 254q51 0 105 26t85 64v301q-31 39 -85 64t-105 24q-96 0 -157 -64q-60 -65 -60 -173q-1 -108 61 -176q62 -66 156 -66zM496 -25q-199 1 -323 139t-124 379t124 381t308 140t297 -142v117h316v-657q0 -37 21 -58q21 -20 49 -20t46 6l19 -266q-53 -18 -139 -19 q-229 0 -289 172q-106 -172 -305 -172z" glyph-name="alpha" horiz-adv-x="1239" unicode="α"/><glyph d="M430 -377h-315v1288q0 125 48 221t127 148q161 108 351 106q235 0 361 -101t126 -273q0 -117 -82 -202t-206 -105q125 -11 222 -105t97 -251t-121 -265t-280 -109q-207 1 -328 140v-492zM430 911v-569q82 -88 215 -88q92 0 142 42q51 42 51 108t-52 106q-52 39 -143 39 h-86v280h76q82 0 127 37t45 102q0 66 -45 102t-129 36t-143 -53q-58 -54 -58 -142z" glyph-name="beta" horiz-adv-x="1210" unicode="β"/><glyph d="M692 -377h-313v191q0 332 -118 649t-302 526h352q94 -119 171 -304t93 -329q61 100 107 288t47 345h313q0 -242 -100 -516t-250 -463v-387z" glyph-name="gamma" horiz-adv-x="1073" unicode="γ"/><glyph d="M825 486q0 100 -71 156q-72 56 -209 101q-82 -39 -126 -109t-44 -158q0 -86 60 -154q59 -68 163 -68t166 65q61 67 61 167zM1128 473q0 -205 -139 -351t-388 -147q-249 0 -401 150t-151 360q-1 127 59 225t154 152q-98 74 -98 207t114 227t328 94t395 -130l-120 -224 q-47 45 -127 77t-150 32q-70 1 -103 -19q-34 -20 -34 -47q0 -46 168 -81t321 -142q74 -51 123 -150t49 -233z" glyph-name="delta" horiz-adv-x="1179" unicode="δ"/><glyph d="M49 274q0 100 86 164t189 70q-106 18 -180 82t-74 147q0 129 127 203t379 73t417 -167l-149 -180q-117 106 -295 106q-70 0 -112 -20t-42 -54q0 -82 158 -82h195v-235h-195q-176 0 -176 -86q-1 -78 177 -78t310 102l142 -186q-162 -158 -467 -158q-223 2 -357 84 q-133 82 -133 215z" glyph-name="epsilon" horiz-adv-x="1019" unicode="ε"/><glyph d="M621 -57q0 33 -41 32q-244 0 -387 123t-143 328t123 379q124 174 339 287h-430v274h836v-223q-221 -117 -383 -304t-162 -380q0 -205 248 -205q175 0 249 -57t74 -183t-119 -336h-329q39 56 82 140t43 125z" glyph-name="zeta" horiz-adv-x="991" unicode="ζ"/><glyph d="M1100 -377h-316v948q0 164 -161 164q-115 0 -193 -96v-639h-315v989h315v-121q125 145 342 146q164 0 246 -85t82 -229v-1077z" glyph-name="eta" horiz-adv-x="1214" unicode="η"/><glyph d="M589 1112q-179 0 -208 -289h418q-31 289 -210 289zM590 254q182 0 209 295h-418q27 -295 209 -295zM590 -25q-250 0 -395 205t-146 504q-1 194 61 352t187 256t291 99q252 0 396 -204t144 -503t-144 -504t-394 -205z" glyph-name="theta" horiz-adv-x="1179" unicode="θ"/><glyph d="M426 -25q-152 0 -232 74t-79 217v723h315v-657q0 -38 22 -58t50 -20t43 6l20 -266q-55 -19 -139 -19z" glyph-name="iota" horiz-adv-x="573" unicode="ι"/><glyph d="M430 0h-315v989h315v-395l301 395h381l-364 -450l382 -539h-389l-217 350l-94 -112v-238z" glyph-name="kappa" horiz-adv-x="1118" unicode="κ"/><glyph d="M217 1112q-45 0 -78 -18l-45 280q53 16 135 17q160 -7 261 -61t157 -200l447 -1130h-334l-225 627l-224 -627h-331l393 1004l-23 53q-23 55 -133 55z" glyph-name="lambda" horiz-adv-x="1073" unicode="λ"/><glyph d="M430 -377h-315v1366h315v-575q0 -160 164 -160q113 0 188 96v639h316v-657q0 -37 21 -58q22 -20 50 -20t43 6l21 -266q-55 -18 -139 -19q-233 0 -293 179q-41 -80 -109 -129t-146 -49t-116 36v-389z" glyph-name="mu" horiz-adv-x="1241" unicode="μ"/><glyph d="M729 989h313q0 -243 -103 -523t-255 -466h-315l-389 989h331l240 -676q84 133 131 319t47 357z" glyph-name="nu" horiz-adv-x="1073" unicode="ν"/><glyph d="M580 -25q-258 1 -394 99t-137 262q0 118 65 192t167 107q-89 15 -149 71t-60 140t51 150t133 96h-162v274h819v-274h-391q-57 -14 -91 -52t-34 -93q1 -56 55 -89t150 -33h303v-270h-303q-227 0 -227 -154q0 -147 246 -147q175 0 249 -57t74 -183t-119 -336h-329 q39 56 82 140t43 125q0 32 -41 32z" glyph-name="xi" horiz-adv-x="991" unicode="ξ"/><glyph d="M588 254q100 0 158 69t58 172t-58 172t-158 69t-157 -69q-56 -69 -56 -172q1 -103 57 -172t156 -69zM589 -25q-245 0 -392 152t-148 369q-1 218 147 368t393 150t392 -151t147 -367t-147 -369q-147 -152 -392 -152z" glyph-name="omicron" horiz-adv-x="1179" unicode="ο"/><glyph d="M1163 0h-313v715h-356v-715h-314v715h-164v274h1311v-274h-164v-715z" glyph-name="pi" horiz-adv-x="1343" unicode="π"/><glyph d="M618 254q94 0 156 65q62 67 62 173t-54 175t-149 69q-94 0 -149 -69q-54 -69 -54 -171v-152q29 -38 83 -64t105 -26zM1157 481q-1 -231 -121 -369t-304 -137q-184 0 -302 142v-494h-315v873q0 218 142 368t380 150t379 -151t141 -382z" glyph-name="rho" unicode="ρ"/><glyph d="M604 -25q-242 1 -398 143t-157 374q0 232 154 377q154 144 387 145q146 0 250 -53t155 -130l-204 -190q-63 94 -175 94q-112 -1 -178 -65t-66 -176t69 -177q69 -63 177 -63q346 0 347 -234q0 -133 -119 -342h-328q39 56 82 140t43 125q0 32 -39 32z" glyph-name="sigma1" horiz-adv-x="1017" unicode="ς"/><glyph d="M805 494q0 143 -113 217h-96q-104 1 -162 -63t-59 -160q0 -96 56 -165q57 -69 157 -69t158 69t59 171zM1104 420q0 -186 -136 -315q-136 -130 -380 -130t-391 152t-147 367t146 355q148 140 400 140h547v-278h-158q119 -105 119 -291z" glyph-name="sigma" horiz-adv-x="1179" unicode="σ"/><glyph d="M659 -25q-157 0 -237 75t-80 216v449h-305v274h928v-274h-308v-361q0 -44 24 -72q23 -28 73 -28t71 25l62 -238q-70 -66 -228 -66z" glyph-name="tau" horiz-adv-x="999" unicode="τ"/><glyph d="M1147 549q1 -258 -145 -416t-392 -158t-370 130t-125 348v536h315v-530q0 -89 47 -147t140 -58t150 76q56 76 56 211q0 199 -106 352l289 121q141 -207 141 -465z" glyph-name="upsilon" horiz-adv-x="1196" unicode="υ"/><glyph d="M1305 496q0 104 -84 162t-224 69v-465q308 35 308 234zM838 1014q392 0 592 -135t200 -371q0 -472 -633 -524v-361h-315v361q-315 28 -474 164t-159 376q0 330 389 490l129 -246q-94 -38 -143 -104t-49 -140q1 -114 73 -178t234 -84v752h156z" glyph-name="phi" horiz-adv-x="1679" unicode="φ"/><glyph d="M1061 -377h-344l-193 410l-192 -410h-344l338 703l-318 663h346l170 -368l170 368h344l-315 -663z" glyph-name="chi" horiz-adv-x="1048" unicode="χ"/><glyph d="M997 -377h-315v361q-283 31 -425 167t-142 357v481h315v-479q0 -195 252 -244v1100h315v-1100q252 49 252 244v479h316v-481q1 -219 -143 -356t-425 -168v-361z" glyph-name="psi" horiz-adv-x="1679" unicode="ψ"/><glyph d="M1739 496q0 -217 -125 -369t-334 -152q-272 0 -385 271q-117 -270 -385 -271q-209 0 -335 152t-126 369q0 319 221 518l240 -176q-135 -145 -135 -342q0 -104 48 -173t133 -69t133 69t48 173v247h316v-247q0 -104 48 -173t133 -69t133 69t48 173q0 197 -137 342l242 176 q219 -196 219 -518z" glyph-name="omega" horiz-adv-x="1792" unicode="ω"/><glyph d="M426 -25q-152 0 -232 74t-79 217v723h315v-657q0 -38 22 -58t50 -20t43 6l20 -266q-55 -19 -139 -19zM68 1419q68 -1 114 -47t47 -114q0 -68 -47 -114q-46 -46 -114 -46t-114 46t-46 114t46 114t114 47zM346 1259q0 67 47 113t114 47q67 -1 114 -47t47 -114t-47 -114 t-115 -46t-114 47t-46 114z" glyph-name="iotadieresis" horiz-adv-x="573" unicode="ϊ"/><glyph d="M1147 549q1 -258 -145 -416t-392 -158t-370 130t-125 348v536h315v-530q0 -89 47 -147t140 -58t150 76q56 76 56 211q0 199 -106 352l289 121q141 -207 141 -465zM377 1419q68 -1 115 -47t47 -114t-47 -114t-115 -46t-114 46t-46 114t46 114t114 47zM655 1259 q0 67 47 113t114 47q67 -1 114 -47t47 -114t-47 -114t-114 -46t-114 47t-47 114z" glyph-name="upsilondieresis" horiz-adv-x="1196" unicode="ϋ"/><glyph d="M588 254q100 0 158 69t58 172t-58 172t-158 69t-157 -69q-56 -69 -56 -172q1 -103 57 -172t156 -69zM589 -25q-245 0 -392 152t-148 369q-1 218 147 368t393 150t392 -151t147 -367t-147 -369q-147 -152 -392 -152zM633 1120h-133l43 447h245z" glyph-name="omicrontonos" horiz-adv-x="1179" unicode="ό"/><glyph d="M1147 549q1 -258 -145 -416t-392 -158t-370 130t-125 348v536h315v-530q0 -89 47 -147t140 -58t150 76q56 76 56 211q0 199 -106 352l289 121q141 -207 141 -465zM643 1120h-133l43 447h246z" glyph-name="upsilontonos" horiz-adv-x="1196" unicode="ύ"/><glyph d="M1739 496q0 -217 -125 -369t-334 -152q-272 0 -385 271q-117 -270 -385 -271q-209 0 -335 152t-126 369q0 319 221 518l240 -176q-135 -145 -135 -342q0 -104 48 -173t133 -69t133 69t48 173v247h316v-247q0 -104 48 -173t133 -69t133 69t48 173q0 197 -137 342l242 176 q219 -196 219 -518zM940 1120h-133l43 447h246z" glyph-name="omegatonos" horiz-adv-x="1792" unicode="ώ"/><glyph d="M1124 0h-1001v1366h1001v-307h-649v-213h635v-307h-635v-232h649v-307zM403 1440q-67 0 -113 46t-46 114t46 114t114 47q68 -1 114 -47q47 -46 47 -114t-47 -114t-115 -46zM682 1600q0 68 47 114t114 47q67 -1 114 -47t47 -114t-48 -114t-114 -46q-68 0 -114 46t-46 114z " glyph-name="afii10023" unicode="Ё"/><glyph d="M1229 416q-1 153 -233 153q-116 0 -216 -39v-530h-352v1059h-383v307h1116v-307h-381v-219q158 37 277 37q262 0 395 -125t133 -332v-17q-1 -193 -143 -311t-367 -117v295q72 0 113 38t41 98v10z" glyph-name="afii10051" horiz-adv-x="1619" unicode="Ђ"/><glyph d="M475 0h-352v1366h1001v-307h-649v-1059zM1014 1776l-326 -295h-213l260 295h279z" glyph-name="afii10052" horiz-adv-x="1191" unicode="Ѓ"/><glyph d="M793 -25q-317 0 -529 198q-211 198 -211 510t210 509t530 197q412 0 596 -367l-304 -143q-35 84 -117 141q-83 57 -197 57t-203 -62t-128 -169h557v-307h-565q37 -115 128 -184q92 -69 208 -69t200 58q83 57 117 141l304 -143q-79 -156 -225 -262t-371 -105z" glyph-name="afii10053" horiz-adv-x="1417" unicode="Є"/><glyph d="M631 -25q-379 0 -606 218l186 264q180 -180 436 -181q90 0 143 32q52 32 52 78q0 85 -193 114t-381 113q-86 40 -143 128t-57 211q0 180 146 308t398 126q334 0 555 -190l-192 -252q-172 141 -400 141q-147 0 -147 -98q0 -76 198 -108t373 -115q85 -41 143 -127t58 -205 q0 -209 -150 -333t-419 -124z" glyph-name="afii10054" horiz-adv-x="1241" unicode="Ѕ"/><glyph d="M475 0h-352v1366h352v-1366z" glyph-name="afii10055" horiz-adv-x="598" unicode="І"/><glyph d="M80 1761q68 -1 115 -47t47 -114t-47 -114t-115 -46t-114 46t-46 114t46 114t114 47zM358 1600q0 68 48 114t114 47q66 -1 113 -47t47 -114t-47 -114t-115 -46t-114 46t-46 114zM475 0h-352v1366h352v-1366z" glyph-name="afii10056" horiz-adv-x="598" unicode="Ї"/><glyph d="M885 469q1 -246 -135 -370t-370 -124t-374 123l148 269q96 -80 188 -80t141 50t49 136v893h353v-897z" glyph-name="afii10057" horiz-adv-x="1007" unicode="Ј"/><glyph d="M1679 600h-284v-293h284q72 0 118 39t46 108q0 70 -46 108t-118 38zM47 -25v312q102 0 161 83q58 83 87 304l82 692h1018v-459h331q220 0 348 -130q128 -129 128 -323t-127 -324t-349 -130h-684v1059h-348l-49 -412q-50 -403 -213 -544q-82 -71 -173 -99t-212 -29z" glyph-name="afii10058" horiz-adv-x="2236" unicode="Љ"/><glyph d="M1395 307h315q57 0 95 33t38 89t-37 88t-96 32h-315v-242zM123 0v1366h352v-510h567v510h353v-510h358q211 0 330 -123t119 -305t-119 -305t-330 -123h-711v549h-567v-549h-352z" glyph-name="afii10059" horiz-adv-x="2236" unicode="Њ"/><glyph d="M1229 0v360q0 209 -219 209q-129 0 -230 -39v-530h-352v1059h-383v307h1116v-307h-381v-219q158 37 277 37q264 -1 396 -139t132 -378v-360h-356z" glyph-name="afii10060" horiz-adv-x="1693" unicode="Ћ"/><glyph d="M475 0h-352v1366h352v-561l420 561h434l-530 -639l559 -727h-432l-359 514l-92 -115v-399zM1098 1776l-326 -295h-213l260 295h279z" glyph-name="afii10061" horiz-adv-x="1339" unicode="Ќ"/><glyph d="M672 1595q140 0 221 119l135 -110q-133 -180 -357 -180t-362 180l135 110q88 -119 228 -119zM334 -25q-217 0 -346 105l139 274q91 -68 165 -68t110 24t69 79l-494 977h398l295 -639l297 639h397l-555 -1098q-149 -293 -475 -293z" glyph-name="afii10062" horiz-adv-x="1341" unicode="Ў"/><glyph d="M123 0v1366h352v-1059h567v1059h353v-1366h-459v-256h-352v256h-461z" glyph-name="afii10145" horiz-adv-x="1517" unicode="Џ"/><glyph d="M887 504l-174 514l-174 -514h348zM1450 0h-399l-68 197h-539l-67 -197h-400l515 1366h442z" glyph-name="afii10017" horiz-adv-x="1427" unicode="А"/><glyph d="M776 575h-301v-268h301q66 0 107 36t41 98t-41 98t-107 36zM123 1366h1067v-307h-715v-176h344q217 0 340 -126q123 -127 123 -315t-123 -315t-340 -127h-696v1366z" glyph-name="afii10018" horiz-adv-x="1316" unicode="Б"/><glyph d="M829 297q63 0 100 34q36 34 36 88t-36 89t-100 35h-354v-246h354zM817 842q53 0 87 32t34 81q0 50 -34 82t-87 32h-342v-227h342zM922 0h-799v1366h774q191 0 295 -103t104 -235t-66 -217q-66 -84 -167 -106q111 -15 185 -111t75 -238q0 -142 -104 -250 q-104 -106 -297 -106z" glyph-name="afii10019" horiz-adv-x="1392" unicode="В"/><glyph d="M475 0h-352v1366h1001v-307h-649v-1059z" glyph-name="afii10020" horiz-adv-x="1191" unicode="Г"/><glyph d="M1042 307v752h-348l-49 -412q-27 -217 -149 -340h546zM47 -252v539q109 16 165 92t83 295l82 692h1018v-1059h123v-559h-355v252h-764v-252h-352z" glyph-name="afii10021" horiz-adv-x="1546" unicode="Д"/><glyph d="M1124 0h-1001v1366h1001v-307h-649v-213h635v-307h-635v-232h649v-307z" glyph-name="afii10022" unicode="Е"/><glyph d="M819 1366h352v-502l375 502h432l-528 -639l559 -727h-432l-360 514l-46 -57v-457h-352v453l-47 61l-360 -514h-430l559 727l-531 639h432l377 -504v504z" glyph-name="afii10024" horiz-adv-x="1988" unicode="Ж"/><glyph d="M618 -25q-190 -1 -347 59t-238 156l178 240q69 -68 183 -106t222 -37q108 0 175 37q66 37 65 96q0 59 -60 87t-204 28h-279v309h279q242 0 242 106q0 61 -69 93t-181 32q-215 0 -363 -131l-170 221q91 101 239 161t331 60q261 0 413 -102t152 -272q0 -117 -87 -202 t-212 -105q123 -11 222 -99t99 -225q0 -178 -166 -292t-424 -114z" glyph-name="afii10025" horiz-adv-x="1277" unicode="З"/><glyph d="M123 0v1366h352v-805l553 805h365v-1366h-355v844l-575 -844h-340z" glyph-name="afii10026" horiz-adv-x="1515" unicode="И"/><glyph d="M760 1595q140 0 221 119l135 -110q-133 -180 -357 -180t-362 180l135 110q88 -119 228 -119zM123 0v1366h352v-805l553 805h365v-1366h-355v844l-575 -844h-340z" glyph-name="afii10027" horiz-adv-x="1515" unicode="Й"/><glyph d="M475 0h-352v1366h352v-561l420 561h434l-530 -639l559 -727h-432l-359 514l-92 -115v-399z" glyph-name="afii10028" horiz-adv-x="1339" unicode="К"/><glyph d="M47 -25v312q102 0 161 83q58 83 87 304l82 692h1018v-1366h-353v1059h-348l-49 -412q-50 -403 -213 -544q-82 -71 -173 -99t-212 -29z" glyph-name="afii10029" horiz-adv-x="1517" unicode="Л"/><glyph d="M1673 0h-352v889l-346 -889h-156l-344 889v-889h-352v1366h489l285 -741l287 741h489v-1366z" glyph-name="afii10030" horiz-adv-x="1796" unicode="М"/><glyph d="M1395 0h-353v549h-567v-549h-352v1366h352v-510h567v510h353v-1366z" glyph-name="afii10031" horiz-adv-x="1517" unicode="Н"/><glyph d="M412 682q0 -170 102 -282t269 -113q167 0 270 112q102 113 102 283t-102 283q-101 113 -269 113t-270 -114q-102 -112 -102 -282zM784 -25q-315 0 -523 199t-208 508t208 508t523 199q314 0 522 -199t208 -508t-208 -508q-207 -199 -522 -199z" glyph-name="afii10032" horiz-adv-x="1568" unicode="О"/><glyph d="M1395 0h-353v1059h-567v-1059h-352v1366h1272v-1366z" glyph-name="afii10033" horiz-adv-x="1517" unicode="П"/><glyph d="M760 766q72 0 118 39t46 107t-46 108q-46 39 -118 39h-285v-293h285zM475 0h-352v1366h684q221 0 348 -130t127 -324t-127 -324t-348 -129h-332v-459z" glyph-name="afii10034" horiz-adv-x="1316" unicode="Р"/><glyph d="M793 -25q-317 0 -529 198q-211 198 -211 510t210 509t530 197q412 0 596 -367l-304 -143q-35 84 -115 141q-81 57 -177 57q-166 1 -274 -113q-107 -114 -107 -282t108 -282t273 -113q96 0 177 57t115 141l304 -143q-79 -156 -225 -262t-371 -105z" glyph-name="afii10035" horiz-adv-x="1417" unicode="С"/><glyph d="M780 0h-352v1059h-383v307h1116v-307h-381v-1059z" glyph-name="afii10036" unicode="Т"/><glyph d="M334 -25q-217 0 -346 105l139 274q91 -68 165 -68t110 24t69 79l-494 977h398l295 -639l297 639h397l-555 -1098q-149 -293 -475 -293z" glyph-name="afii10037" horiz-adv-x="1341" unicode="У"/><glyph d="M412 682q0 -188 311 -229v458q-311 -41 -311 -229zM1389 682q0 188 -312 229v-458q312 41 312 229zM1077 0h-354v139q-322 29 -496 167t-174 375t175 376t495 168v141h354v-141q319 -29 495 -168t175 -376q0 -237 -174 -375t-496 -167v-139z" glyph-name="afii10038" horiz-adv-x="1802" unicode="Ф"/><glyph d="M1405 0h-416l-297 459l-297 -459h-418l478 700l-447 666h416l268 -428l264 428h418l-444 -664z" glyph-name="afii10039" horiz-adv-x="1384" unicode="Х"/><glyph d="M1163 -252v252h-1040v1366h352v-1059h567v1059h353v-1059h123v-559h-355z" glyph-name="afii10040" horiz-adv-x="1546" unicode="Ц"/><glyph d="M449 1366v-408q0 -209 219 -208q129 0 229 38v578h352v-1366h-352v479q-158 -37 -279 -37q-262 0 -394 138t-132 378v408h357z" glyph-name="afii10041" horiz-adv-x="1372" unicode="Ч"/><glyph d="M1608 1366h352v-1366h-1837v1366h352v-1059h391v1059h353v-1059h389v1059z" glyph-name="afii10042" horiz-adv-x="2082" unicode="Ш"/><glyph d="M1608 1366h352v-1059h123v-559h-352v252h-1608v1366h352v-1059h391v1059h353v-1059h389v1059z" glyph-name="afii10043" horiz-adv-x="2113" unicode="Щ"/><glyph d="M1065 600h-285v-293h285q72 0 118 39t46 108q0 70 -46 108t-118 38zM1112 0h-684v1059h-383v307h735v-459h332q221 0 348 -130q127 -129 127 -323t-127 -324t-348 -130z" glyph-name="afii10044" horiz-adv-x="1622" unicode="Ъ"/><glyph d="M1735 0h-353v1366h353v-1366zM760 600h-285v-293h285q72 0 118 39t46 108q0 70 -46 108t-118 38zM123 1366h352v-459h332q221 0 348 -130q127 -129 127 -323t-127 -324t-348 -130h-684v1366z" glyph-name="afii10045" horiz-adv-x="1857" unicode="Ы"/><glyph d="M760 600h-285v-293h285q72 0 118 39t46 108q0 70 -46 108t-118 38zM123 1366h352v-459h332q221 0 348 -130q127 -129 127 -323t-127 -324t-348 -130h-684v1366z" glyph-name="afii10046" horiz-adv-x="1316" unicode="Ь"/><glyph d="M625 -25q-225 -1 -371 105t-225 262l303 143q35 -86 117 -142q81 -56 199 -56q118 1 208 69t125 183h-561v307h555q-39 106 -127 168t-202 63q-114 0 -197 -56q-82 -56 -117 -142l-303 143q78 158 223 262t373 105q317 0 528 -197t211 -509t-211 -510t-528 -198z" glyph-name="afii10047" horiz-adv-x="1417" unicode="Э"/><glyph d="M1417 287q166 0 270 112q103 113 103 283t-103 283t-269 113t-269 -114q-102 -112 -102 -282t102 -282t268 -113zM1435 -25q-297 0 -495 158t-242 416h-223v-549h-352v1366h352v-510h232q57 240 250 386q194 146 460 147q315 0 523 -199t208 -508t-208 -508t-505 -199z " glyph-name="afii10048" horiz-adv-x="2201" unicode="Ю"/><glyph d="M598 766h279v293h-279q-72 0 -120 -39t-48 -108q0 -70 48 -108t120 -38zM70 928q0 180 128 309t349 129h684v-1366h-354v459h-181l-227 -459h-403l278 502q-114 39 -194 142q-80 104 -80 284z" glyph-name="afii10049" horiz-adv-x="1353" unicode="Я"/><glyph d="M522 182q127 0 176 72v88q-51 70 -176 70q-68 0 -112 -30t-45 -85q1 -55 45 -85t112 -30zM1014 0h-316v98q-47 -55 -130 -89q-82 -34 -194 -34t-217 85t-105 245t102 237t237 76q215 0 307 -114v119q0 67 -53 105t-147 38q-158 0 -281 -104l-113 198q180 154 449 154 q192 0 318 -82q143 -92 143 -314v-618z" glyph-name="afii10065" horiz-adv-x="1128" unicode="а"/><glyph d="M588 -25q-248 0 -392 159t-145 407q0 354 131 534t398 217q172 27 172 74h340q0 -215 -404 -272q-295 -43 -344 -226q119 146 323 146q205 0 333 -152t128 -368t-146 -367q-146 -152 -394 -152zM588 254q100 0 158 70t58 172t-58 171t-157 69t-157 -69q-57 -69 -57 -171 q1 -102 57 -172t156 -70z" glyph-name="afii10066" horiz-adv-x="1181" unicode="б"/><glyph d="M780 684q0 61 -67 61h-283v-122h283q31 0 49 17t18 44zM725 244q35 0 57 18t21 49q0 31 -22 50t-56 20h-295v-137h295zM805 0h-690v989h671q150 0 231 -76t81 -169t-47 -152t-123 -82q86 -16 139 -83t53 -169t-82 -180t-233 -78z" glyph-name="afii10067" horiz-adv-x="1232" unicode="в"/><glyph d="M899 989v-274h-469v-715h-315v989h784z" glyph-name="afii10068" horiz-adv-x="931" unicode="г"/><glyph d="M784 274v441h-258l-26 -211q-18 -147 -97 -230h381zM37 -252v514q63 6 97 54t54 198l66 475h846v-715h108v-526h-315v252h-541v-252h-315z" glyph-name="afii10069" horiz-adv-x="1239" unicode="д"/><glyph d="M578 770q-96 0 -144 -51q-49 -51 -61 -119h407q-8 66 -57 118t-145 52zM590 -25q-233 1 -387 143t-154 370q1 228 149 376q148 150 374 150t368 -151t141 -400v-68h-704q14 -74 80 -125t168 -51q57 0 132 24t113 60l134 -197q-72 -63 -184 -97t-230 -34z" glyph-name="afii10070" horiz-adv-x="1122" unicode="е"/><glyph d="M633 989h315v-323l246 323h381l-365 -450l383 -539h-389l-217 350l-39 -47v-303h-315v303l-39 47l-217 -350h-389l383 539l-365 450h381l246 -323v323z" glyph-name="afii10072" horiz-adv-x="1581" unicode="ж"/><glyph d="M468 217q177 0 177 78q0 86 -178 86h-195v235h195q160 0 160 82q0 34 -43 54t-113 20q-180 0 -293 -106l-151 180q166 166 417 167q250 1 378 -73t130 -203q0 -84 -74 -147t-182 -82q102 -6 188 -70t87 -164q3 -133 -131 -215t-359 -84q-303 0 -467 158l142 186 q135 -102 312 -102z" glyph-name="afii10073" horiz-adv-x="1019" unicode="з"/><glyph d="M115 0v989h315v-518l352 518h318v-989h-316v545l-368 -545h-301z" glyph-name="afii10074" horiz-adv-x="1214" unicode="и"/><glyph d="M611 1253q140 0 220 119l136 -110q-133 -180 -357 -180t-362 180l135 110q88 -119 228 -119zM115 0v989h315v-518l352 518h318v-989h-316v545l-368 -545h-301z" glyph-name="afii10075" horiz-adv-x="1214" unicode="й"/><glyph d="M430 0h-315v989h315v-395l301 395h381l-364 -450l382 -539h-389l-217 350l-94 -112v-238z" glyph-name="afii10076" horiz-adv-x="1118" unicode="к"/><glyph d="M37 -25v258q57 1 94 63t57 218l66 475h846v-989h-316v715h-258l-30 -242q-32 -252 -140 -375t-319 -123z" glyph-name="afii10077" horiz-adv-x="1214" unicode="л"/><glyph d="M1360 0h-313v592l-228 -592h-162l-227 592v-592h-315v989h415l207 -534l207 534h416v-989z" glyph-name="afii10078" horiz-adv-x="1474" unicode="м"/><glyph d="M430 0h-315v989h315v-340h354v340h316v-989h-316v375h-354v-375z" glyph-name="afii10079" horiz-adv-x="1214" unicode="н"/><glyph d="M588 254q100 0 158 69t58 172t-58 172t-158 69t-157 -69q-56 -69 -56 -172q1 -103 57 -172t156 -69zM589 -25q-245 0 -392 152t-148 369q-1 218 147 368t393 150t392 -151t147 -367t-147 -369q-147 -152 -392 -152z" glyph-name="afii10080" horiz-adv-x="1179" unicode="о"/><glyph d="M1100 0h-316v715h-354v-715h-315v989h985v-989z" glyph-name="afii10081" horiz-adv-x="1214" unicode="п"/><glyph d="M618 254q94 0 156 65q62 66 62 176q0 109 -62 175t-156 65q-51 1 -105 -25t-83 -65v-301q29 -38 83 -64t105 -26zM1157 495q-1 -245 -121 -383t-304 -137q-184 0 -302 142v-494h-315v1366h315v-115q114 140 300 140t306 -137t121 -382z" glyph-name="afii10082" unicode="р"/><glyph d="M590 -25q-233 1 -387 145t-154 374t154 375q154 144 387 145q146 0 250 -53t155 -130l-204 -190q-63 94 -175 94q-112 -1 -178 -65t-66 -174t66 -177q66 -65 176 -65t177 96l204 -192q-51 -76 -155 -130t-250 -53z" glyph-name="afii10083" horiz-adv-x="1024" unicode="с"/><glyph d="M618 0h-315v715h-270v274h854v-274h-269v-715z" glyph-name="afii10084" horiz-adv-x="919" unicode="т"/><glyph d="M94 -385l45 281q33 -18 78 -19q111 0 133 55l23 54l-393 1003h331l224 -627l225 627h334l-447 -1130q-55 -145 -157 -201t-223 -57q-120 -2 -173 14z" glyph-name="afii10085" horiz-adv-x="1073" unicode="у"/><glyph d="M1182 254q78 0 129 67t51 175t-51 174t-129 65q-41 1 -85 -25t-71 -65v-301q25 -38 70 -64t86 -26zM557 735q-78 1 -128 -65t-50 -176t50 -175q50 -66 128 -65q43 0 87 26t69 64v301q-25 39 -70 65t-86 25zM444 1014q165 0 269 -142v494h313v-492q102 140 268 140 t275 -137t109 -382t-110 -382q-108 -137 -272 -137t-270 141v-494h-313v492q-102 -139 -268 -139t-275 136q-109 138 -109 383t109 382t274 137z" glyph-name="afii10086" horiz-adv-x="1738" unicode="ф"/><glyph d="M1061 0h-346l-191 299l-192 -299h-344l338 508l-318 481h346l170 -268l168 268h346l-315 -481z" glyph-name="afii10087" horiz-adv-x="1048" unicode="х"/><glyph d="M893 -252v252h-778v989h315v-715h354v715h316v-715h108v-526h-315z" glyph-name="afii10088" horiz-adv-x="1239" unicode="ц"/><glyph d="M90 989h316v-272q0 -88 43 -125t141 -37t170 41v393h313v-989h-313v346q-117 -70 -297 -70q-373 0 -373 338v375z" glyph-name="afii10089" horiz-adv-x="1189" unicode="ч"/><glyph d="M1329 989h316v-989h-1530v989h315v-715h293v715h315v-715h291v715z" glyph-name="afii10090" horiz-adv-x="1759" unicode="ш"/><glyph d="M1329 989h316v-715h114v-526h-313v252h-1331v989h315v-715h293v715h315v-715h291v715z" glyph-name="afii10091" horiz-adv-x="1789" unicode="щ"/><glyph d="M889 418h-271v-164h271q43 0 69 22t27 60q-1 38 -27 60t-69 22zM944 0h-641v715h-270v274h585v-317h326q172 0 266 -96t94 -239q0 -141 -98 -239t-262 -98z" glyph-name="afii10092" horiz-adv-x="1353" unicode="ъ"/><glyph d="M1538 0h-315v989h315v-989zM700 418h-270v-164h270q43 0 70 22t27 60t-27 60t-70 22zM115 989h315v-317h326q172 0 266 -96t94 -239q0 -141 -97 -239t-263 -98h-641v989z" glyph-name="afii10093" horiz-adv-x="1652" unicode="ы"/><glyph d="M700 418h-270v-164h270q43 0 70 22t27 60t-27 60t-70 22zM115 989h315v-317h326q172 0 266 -96t94 -239q0 -141 -97 -239t-263 -98h-641v989z" glyph-name="afii10094" horiz-adv-x="1165" unicode="ь"/><glyph d="M434 -25q-144 -1 -248 53t-157 130l192 166q74 -106 195 -107q80 0 138 45t83 127h-342v217h340q-25 80 -83 123t-136 43q-119 0 -195 -104l-192 163q53 75 155 129t250 54q233 0 387 -144t154 -375q0 -230 -154 -375t-387 -145z" glyph-name="afii10095" horiz-adv-x="1024" unicode="э"/><glyph d="M1112 254q100 0 159 69q58 69 58 172t-58 172q-59 69 -159 69t-158 -69q-57 -69 -57 -172q-1 -103 57 -172t158 -69zM1130 -25q-228 0 -366 112q-139 112 -178 288h-156v-375h-315v989h315v-340h164q49 162 184 263t334 102q246 0 393 -151t147 -367t-146 -369 q-148 -152 -376 -152z" glyph-name="afii10096" horiz-adv-x="1701" unicode="ю"/><glyph d="M510 571h270v164h-270q-43 1 -70 -23q-26 -24 -26 -60t26 -58t70 -23zM455 989h641v-989h-316v317h-174l-166 -317h-352l213 344q-84 29 -145 107q-62 79 -62 211t97 230t264 97z" glyph-name="afii10097" horiz-adv-x="1204" unicode="я"/><glyph d="M578 770q-96 0 -144 -51q-49 -51 -61 -119h407q-8 66 -57 118t-145 52zM590 -25q-233 1 -387 143t-154 370q1 228 149 376q148 150 374 150t368 -151t141 -400v-68h-704q14 -74 80 -125t168 -51q57 0 132 24t113 60l134 -197q-72 -63 -184 -97t-230 -34zM360 1098 q-68 0 -114 46t-45 114q0 68 46 114q45 46 113 47q68 -1 115 -47t47 -114t-47 -114t-115 -46zM639 1259q0 67 47 113t114 47q67 -1 114 -47t47 -114q1 -68 -47 -114t-114 -46t-114 47q-47 47 -47 114z" glyph-name="afii10071" horiz-adv-x="1122" unicode="ё"/><glyph d="M727 1075h-287v-207q125 145 344 146q162 0 244 -83t82 -226v-697q0 -188 -96 -299t-287 -110q-96 0 -147 15t-113 54l80 232q55 -43 127 -43q121 0 121 151v567q0 160 -164 160q-106 0 -191 -96v-639h-315v1075h-109v172h109v119h315v-119h287v-172z" glyph-name="afii10099" horiz-adv-x="1224" unicode="ђ"/><glyph d="M899 989v-274h-469v-715h-315v989h784zM913 1434l-325 -295h-213l260 295h278z" glyph-name="afii10100" horiz-adv-x="931" unicode="ѓ"/><glyph d="M590 -25q-233 1 -387 145t-154 374t154 375q154 144 387 145q146 0 250 -53t155 -130l-192 -163q-76 104 -193 104q-80 0 -139 -43t-84 -123h344v-217h-344q25 -82 84 -127t139 -45q119 0 193 107l192 -166q-51 -76 -155 -130t-250 -53z" glyph-name="afii10101" horiz-adv-x="1024" unicode="є"/><glyph d="M494 -25q-134 0 -260 41t-203 111l131 217q56 -51 160 -91t188 -40q133 0 133 76q0 35 -59 52q-60 17 -144 31t-169 40t-144 96t-59 194t112 218q113 94 329 94t396 -131l-121 -209q-47 45 -127 77q-80 31 -149 31q-68 0 -104 -20t-36 -51t60 -46q59 -15 143 -31t169 -44 q84 -29 144 -102t60 -185q0 -145 -120 -237t-330 -91z" glyph-name="afii10102" horiz-adv-x="991" unicode="ѕ"/><glyph d="M430 0h-315v989h315v-989zM272 1077q-76 0 -128 53q-52 54 -52 130t52 128t128 52t128 -52t52 -128t-52 -130t-128 -53z" glyph-name="afii10103" horiz-adv-x="544" unicode="і"/><glyph d="M430 0h-315v989h315v-989zM53 1098q-67 0 -113 46t-46 114t46 114t114 47q68 -1 114 -47q47 -46 47 -114t-47 -114t-115 -46zM332 1259q0 67 47 113t114 47q67 -1 113 -47t47 -114q0 -68 -47 -114q-48 -46 -114 -46t-113 47t-47 114z" glyph-name="afii10104" horiz-adv-x="544" unicode="ї"/><glyph d="M47 -401q-96 0 -147 15t-113 54l80 232q55 -43 127 -43q121 0 121 151v981h315v-981q0 -188 -96 -299q-97 -110 -287 -110zM272 1077q-76 0 -128 53q-52 54 -52 130t52 128t128 52t128 -52t52 -128t-52 -130t-128 -53z" glyph-name="afii10105" horiz-adv-x="544" unicode="ј"/><glyph d="M1370 418h-270v-164h270q43 0 70 22t26 60q0 38 -26 60t-70 22zM37 -25v258q57 1 94 63t57 218l66 475h846v-317h325q173 0 267 -96t94 -239q0 -141 -97 -239t-264 -98h-641v715h-258l-30 -242q-32 -252 -140 -375t-319 -123z" glyph-name="afii10106" horiz-adv-x="1835" unicode="љ"/><glyph d="M1376 408h-276v-154h276q41 0 66 22q24 22 24 55t-24 55t-66 22zM430 0h-315v989h315v-327h354v327h316v-327h332q168 0 261 -96t93 -234q0 -140 -96 -236t-258 -96h-648v387h-354v-387z" glyph-name="afii10107" horiz-adv-x="1835" unicode="њ"/><glyph d="M727 1073h-287v-205q125 145 342 146q164 0 246 -83t82 -226v-705h-315v575q0 160 -164 160q-113 0 -191 -96v-639h-315v1073h-109v174h109v119h315v-119h287v-174z" glyph-name="afii10108" horiz-adv-x="1224" unicode="ћ"/><glyph d="M430 0h-315v989h315v-395l301 395h381l-364 -450l382 -539h-389l-217 350l-94 -112v-238zM967 1434l-326 -295h-213l260 295h279z" glyph-name="afii10109" horiz-adv-x="1118" unicode="ќ"/><glyph d="M540 1253q140 0 220 119l135 -110q-133 -180 -357 -180t-362 180l135 110q89 -119 229 -119zM94 -385l45 281q33 -18 78 -19q111 0 133 55l23 54l-393 1003h331l224 -627l225 627h334l-447 -1130q-55 -145 -157 -201t-223 -57q-120 -2 -173 14z" glyph-name="afii10110" horiz-adv-x="1073" unicode="ў"/><glyph d="M451 -254v254h-336v989h315v-715h354v715h316v-989h-336v-254h-313z" glyph-name="afii10193" horiz-adv-x="1214" unicode="џ"/><glyph d="M475 1059v-1059h-352v1366h649v252h352v-559h-649z" glyph-name="afii10050" horiz-adv-x="1191" unicode="Ґ"/><glyph d="M430 715v-715h-315v989h469v254h315v-528h-469z" glyph-name="afii10098" horiz-adv-x="931" unicode="ґ"/><glyph d="M696 1440q-66 0 -112 47t-47 114q0 67 47 113q46 46 112 47q66 0 113 -47q47 -48 47 -114t-47 -113t-113 -47zM829 297q63 0 100 34q36 34 36 88t-36 89t-100 35h-354v-246h354zM817 842q53 0 87 32t34 81q0 50 -34 82t-87 32h-342v-227h342zM922 0h-799v1366h774 q191 0 295 -103t104 -235t-66 -217q-66 -84 -167 -106q111 -15 185 -111t75 -238q0 -142 -104 -250q-104 -106 -297 -106z" glyph-name="uni1E02" horiz-adv-x="1392" unicode="Ḃ"/><glyph d="M618 1440q-66 0 -112 47t-47 114q0 67 47 113q46 46 112 47q66 0 113 -47q47 -48 47 -114t-47 -113t-113 -47zM430 0h-315v1366h315v-494q113 142 297 142t308 -140t124 -382q0 -240 -123 -378t-304 -138t-302 139v-115zM618 254q96 0 158 65q62 66 62 176q0 109 -62 175 t-158 65q-51 1 -105 -25t-83 -65v-303q29 -40 83 -64t105 -24z" glyph-name="uni1E03" horiz-adv-x="1210" unicode="ḃ"/><glyph d="M743 1440q-67 0 -113 47t-46 114t47 113t113 47q66 0 112 -47q47 -48 47 -114t-47 -113t-113 -47zM696 307q174 0 277 110q102 109 102 271t-98 266t-279 105h-223v-752h221zM698 0h-575v1366h573q328 0 534 -184t206 -498t-206 -498q-206 -186 -532 -186z" glyph-name="uni1E0A" horiz-adv-x="1488" unicode="Ḋ"/><glyph d="M594 1440q-66 0 -113 47t-47 114t47 113t113 47q66 0 113 -47q47 -48 47 -114t-47 -113t-113 -47zM590 254q51 0 105 26t85 64v303q-31 39 -85 64t-105 24q-96 0 -157 -65q-60 -66 -60 -174q-1 -108 61 -176q62 -66 156 -66zM1094 0h-314v115q-121 -139 -302 -139 t-305 138t-124 379t124 381t308 140t299 -142v494h314v-1366z" glyph-name="uni1E0B" horiz-adv-x="1210" unicode="ḋ"/><glyph d="M475 0h-352v1366h1001v-307h-649v-213h635v-307h-635v-539zM629 1440q-66 0 -113 47t-47 114t47 113t113 47q67 0 113 -47q46 -48 46 -114t-46 -113t-113 -47z" glyph-name="uni1E1E" horiz-adv-x="1191" unicode="Ḟ"/><glyph d="M498 0h-316v715h-164v274h164v49q0 156 100 252t271 96q172 0 268 -98l-116 -180q-37 39 -91 39t-86 -29q-31 -29 -30 -80v-49h200v-274h-200v-715zM539 1440q-66 0 -113 47t-47 114t47 113t113 47q67 0 113 -47q46 -48 46 -114t-46 -113t-113 -47z" glyph-name="uni1E1F" horiz-adv-x="714" unicode="ḟ"/><glyph d="M760 1440q-66 0 -113 47t-47 114t47 113t113 47q66 0 112 -47q46 -48 48 -114q0 -66 -47 -113t-113 -47zM1395 0h-353v549h-567v-549h-352v1366h352v-510h567v510h353v-1366z" glyph-name="uni1E22" horiz-adv-x="1517" unicode="Ḣ"/><glyph d="M608 1440q-66 0 -112 47t-47 114q0 67 47 113q46 46 112 47q66 0 113 -47q47 -48 47 -114t-47 -113t-113 -47zM1102 0h-316v575q0 160 -163 160q-113 0 -191 -96v-639h-315v1366h315v-498q125 145 342 146q164 0 246 -83t82 -226v-705z" glyph-name="uni1E23" horiz-adv-x="1216" unicode="ḣ"/><glyph d="M657 1440q-67 0 -113 47t-46 114t47 113t113 47q66 0 112 -47q47 -48 47 -114t-47 -113t-113 -47zM760 766q72 0 118 39t46 107t-46 108q-46 39 -118 39h-285v-293h285zM475 0h-352v1366h684q221 0 348 -130t127 -324t-127 -324t-348 -129h-332v-459z" glyph-name="uni1E56" horiz-adv-x="1316" unicode="Ṗ"/><glyph d="M618 1098q-66 0 -112 47t-47 114q0 67 47 113q46 46 112 47q66 0 113 -47q47 -48 47 -114t-47 -113t-113 -47zM618 254q94 0 156 65q62 66 62 176q0 109 -62 175t-156 65q-51 1 -105 -25t-83 -65v-301q29 -38 83 -64t105 -26zM1157 495q-1 -245 -121 -383t-304 -137 q-184 0 -302 142v-494h-315v1366h315v-115q114 140 300 140t306 -137t121 -382z" glyph-name="uni1E57" unicode="ṗ"/><glyph d="M621 1440q-66 0 -113 47t-47 114t47 113t113 47q67 0 113 -47q46 -48 46 -114t-46 -113t-113 -47zM631 -25q-379 0 -606 218l186 264q180 -180 436 -181q90 0 143 32q52 32 52 78q0 85 -193 114t-381 113q-86 40 -143 128t-57 211q0 180 146 308t398 126q334 0 555 -190 l-192 -252q-172 141 -400 141q-147 0 -147 -98q0 -76 198 -108t373 -115q85 -41 143 -127t58 -205q0 -209 -150 -333t-419 -124z" glyph-name="uni1E60" horiz-adv-x="1241" unicode="Ṡ"/><glyph d="M496 1098q-66 0 -113 47t-47 114t47 113t113 47q66 0 112 -47q46 -48 47 -114q-1 -66 -47 -113t-112 -47zM494 -25q-134 0 -260 41t-203 111l131 217q56 -51 160 -91t188 -40q133 0 133 76q0 35 -59 52q-60 17 -144 31t-169 40t-144 96t-59 194t112 218q113 94 329 94 t396 -131l-121 -209q-47 45 -127 77q-80 31 -149 31q-68 0 -104 -20t-36 -51t60 -46q59 -15 143 -31t169 -44q84 -29 144 -102t60 -185q0 -145 -120 -237t-330 -91z" glyph-name="uni1E61" horiz-adv-x="991" unicode="ṡ"/><glyph d="M602 1440q-66 0 -113 47t-47 114t47 113t113 47q66 0 113 -47q47 -48 47 -114t-47 -113t-113 -47zM780 0h-352v1059h-383v307h1116v-307h-381v-1059z" glyph-name="uni1E6A" unicode="Ṫ"/><glyph d="M344 1440q-66 0 -113 47t-47 114t47 113t113 47q66 0 113 -47q47 -48 47 -114t-47 -113t-113 -47zM494 354q0 -100 97 -100q50 0 71 25l61 -238q-70 -66 -228 -66q-315 0 -315 291v449h-164v274h164v271h314v-271h200v-274h-200v-361z" glyph-name="uni1E6B" horiz-adv-x="737" unicode="ṫ"/><glyph d="M1096 1481h-213l-326 295h279zM1538 0h-373l-207 856l-206 -856h-373l-391 1366h395l207 -911l233 911h271l233 -911l205 911h397z" glyph-name="Wgrave" horiz-adv-x="1916" unicode="Ẁ"/><glyph d="M938 1139h-213l-326 295h279zM1331 0h-340l-186 612l-184 -612h-340l-293 989h323l160 -606l195 606h280l195 -606l157 606h326z" glyph-name="wgrave" horiz-adv-x="1611" unicode="ẁ"/><glyph d="M1538 0h-373l-207 856l-206 -856h-373l-391 1366h395l207 -911l233 911h271l233 -911l205 911h397zM1362 1776l-326 -295h-213l260 295h279z" glyph-name="Wacute" horiz-adv-x="1916" unicode="Ẃ"/><glyph d="M1331 0h-340l-186 612l-184 -612h-340l-293 989h323l160 -606l195 606h280l195 -606l157 606h326zM1206 1434l-325 -295h-213l260 295h278z" glyph-name="wacute" horiz-adv-x="1611" unicode="ẃ"/><glyph d="M1538 0h-373l-207 856l-206 -856h-373l-391 1366h395l207 -911l233 911h271l233 -911l205 911h397zM737 1440q-67 0 -113 46t-46 114t46 114t114 47q68 -1 114 -47q47 -46 47 -114t-47 -114t-115 -46zM1016 1600q0 68 47 114t114 47q67 -1 113 -47t47 -114 q0 -68 -47 -114q-48 -46 -114 -46t-113 46t-47 114z" glyph-name="Wdieresis" horiz-adv-x="1916" unicode="Ẅ"/><glyph d="M1331 0h-340l-186 612l-184 -612h-340l-293 989h323l160 -606l195 606h280l195 -606l157 606h326zM586 1419q68 -1 115 -47t47 -114t-48 -114t-114 -46q-68 0 -114 46t-46 114t46 114t114 47zM864 1259q0 67 47 113t114 47q67 -1 114 -47t47 -114t-47 -114t-114 -46 t-114 47t-47 114z" glyph-name="wdieresis" horiz-adv-x="1611" unicode="ẅ"/><glyph d="M715 -416q-66 0 -113 47t-47 114t47 114t113 47q67 0 113 -47t46 -114t-46 -114t-113 -47zM887 504l-174 514l-174 -514h348zM1450 0h-399l-68 197h-539l-67 -197h-400l515 1366h442z" glyph-name="uni1EA0" horiz-adv-x="1427" unicode="Ạ"/><glyph d="M565 -416q-67 0 -113 47t-46 114t47 114t113 47t112 -47q47 -47 47 -114t-47 -114t-113 -47zM522 182q127 0 176 72v88q-51 70 -176 70q-68 0 -112 -30t-45 -85q1 -55 45 -85t112 -30zM1014 0h-316v98q-47 -55 -130 -89q-82 -34 -194 -34t-217 85t-105 245t102 237 t237 76q215 0 307 -114v119q0 67 -53 105t-147 38q-158 0 -281 -104l-113 198q180 154 449 154q192 0 318 -82q143 -92 143 -314v-618z" glyph-name="uni1EA1" horiz-adv-x="1128" unicode="ạ"/><glyph d="M885 1544q0 -59 -29 -117h-127q37 39 37 97t-53 57q-46 0 -64 -53l-106 35q37 119 177 117q67 0 116 -39q49 -38 49 -97zM887 504l-174 514l-174 -514h348zM1450 0h-399l-68 197h-539l-67 -197h-400l515 1366h442z" glyph-name="uni1EA2" horiz-adv-x="1427" unicode="Ả"/><glyph d="M563 1331q74 0 123 -38t49 -97t-28 -117h-127q36 39 36 97t-53 57q-45 0 -63 -53l-107 34q41 117 170 117zM522 182q127 0 176 72v88q-51 70 -176 70q-68 0 -112 -30t-45 -85q1 -55 45 -85t112 -30zM1014 0h-316v98q-47 -55 -130 -89q-82 -34 -194 -34t-217 85t-105 245 t102 237t237 76q215 0 307 -114v119q0 67 -53 105t-147 38q-158 0 -281 -104l-113 198q180 154 449 154q192 0 318 -82q143 -92 143 -314v-618z" glyph-name="uni1EA3" horiz-adv-x="1128" unicode="ả"/><glyph d="M1509 1726l-325 -221h-213l260 221h278zM887 504l-174 514l-174 -514h348zM1450 0h-399l-68 197h-539l-67 -197h-400l515 1366h442zM1042 1397h-188l-141 125l-135 -125h-187l184 221h277z" glyph-name="uni1EA4" horiz-adv-x="1427" unicode="Ấ"/><glyph d="M1343 1577l-325 -295h-213l260 295h278zM889 1139h-189l-141 166l-135 -166h-186l184 295h276zM522 182q127 0 176 72v88q-51 70 -176 70q-68 0 -112 -30t-45 -85q1 -55 45 -85t112 -30zM1014 0h-316v98q-47 -55 -130 -89q-82 -34 -194 -34t-217 85t-105 245t102 237 t237 76q215 0 307 -114v119q0 67 -53 105t-147 38q-158 0 -281 -104l-113 198q180 154 449 154q192 0 318 -82q143 -92 143 -314v-618z" glyph-name="uni1EA5" horiz-adv-x="1128" unicode="ấ"/><glyph d="M465 1505h-213l-326 221h279zM887 504l-174 514l-174 -514h348zM1450 0h-399l-68 197h-539l-67 -197h-400l515 1366h442zM1042 1397h-188l-141 125l-135 -125h-187l184 221h277z" glyph-name="uni1EA6" horiz-adv-x="1427" unicode="Ầ"/><glyph d="M311 1282h-213l-325 295h278zM889 1139h-189l-141 166l-135 -166h-186l184 295h276zM522 182q127 0 176 72v88q-51 70 -176 70q-68 0 -112 -30t-45 -85q1 -55 45 -85t112 -30zM1014 0h-316v98q-47 -55 -130 -89q-82 -34 -194 -34t-217 85t-105 245t102 237t237 76 q215 0 307 -114v119q0 67 -53 105t-147 38q-158 0 -281 -104l-113 198q180 154 449 154q192 0 318 -82q143 -92 143 -314v-618z" glyph-name="uni1EA7" horiz-adv-x="1128" unicode="ầ"/><glyph d="M1061 1714q74 0 123 -28t49 -72q0 -45 -29 -88h-127q37 30 37 72t-50 42t-67 -38l-106 26q39 86 170 86zM887 504l-174 514l-174 -514h348zM1450 0h-399l-68 197h-539l-67 -197h-400l515 1366h442zM1042 1397h-188l-141 125l-135 -125h-187l184 221h277z" glyph-name="uni1EA8" horiz-adv-x="1427" unicode="Ẩ"/><glyph d="M788 1618q74 0 123 -38t49 -98t-28 -116h-127q37 39 37 96t-54 58q-45 -1 -63 -54l-107 35q41 117 170 117zM889 1139h-189l-141 166l-135 -166h-186l184 295h276zM522 182q127 0 176 72v88q-51 70 -176 70q-68 0 -112 -30t-45 -85q1 -55 45 -85t112 -30zM1014 0h-316v98 q-47 -55 -130 -89q-82 -34 -194 -34t-217 85t-105 245t102 237t237 76q215 0 307 -114v119q0 67 -53 105t-147 38q-158 0 -281 -104l-113 198q180 154 449 154q192 0 318 -82q143 -92 143 -314v-618z" glyph-name="uni1EA9" horiz-adv-x="1128" unicode="ẩ"/><glyph d="M823 1550q-75 0 -141 28t-90 28q-61 0 -62 -50h-159q0 137 231 138q74 0 140 -29t92 -29q61 0 61 52h160q-1 -138 -232 -138zM887 504l-174 514l-174 -514h348zM1450 0h-399l-68 197h-539l-67 -197h-400l515 1366h442zM1042 1389h-188l-141 81l-135 -81h-187l184 147h277 z" glyph-name="uni1EAA" horiz-adv-x="1427" unicode="Ẫ"/><glyph d="M674 1397q-85 0 -176 85q-31 28 -56 27q-61 0 -61 -100h-160q0 274 232 274q57 -1 100 -29t75 -56t56 -27q61 0 61 100h160q0 -274 -231 -274zM889 1071h-189l-141 166l-135 -166h-186l184 295h276zM522 182q127 0 176 72v88q-51 70 -176 70q-68 0 -112 -30t-45 -85 q1 -55 45 -85t112 -30zM1014 0h-316v98q-47 -55 -130 -89q-82 -34 -194 -34t-217 85t-105 245t102 237t237 76q215 0 307 -114v119q0 67 -53 105t-147 38q-158 0 -281 -104l-113 198q180 154 449 154q192 0 318 -82q143 -92 143 -314v-618z" glyph-name="uni1EAB" horiz-adv-x="1128" unicode="ẫ"/><glyph d="M715 -416q-66 0 -113 47t-47 114t47 114t113 47q67 0 113 -47t46 -114t-46 -114t-113 -47zM1040 1481h-188l-141 166l-136 -166h-186l184 295h277zM887 504l-174 514l-174 -514h348zM1450 0h-399l-68 197h-539l-67 -197h-400l515 1366h442z" glyph-name="uni1EAC" horiz-adv-x="1427" unicode="Ậ"/><glyph d="M565 -416q-67 0 -113 47t-46 114t47 114t113 47t112 -47q47 -47 47 -114t-47 -114t-113 -47zM891 1139h-189l-141 166l-135 -166h-186l184 295h276zM522 182q127 0 176 72v88q-51 70 -176 70q-68 0 -112 -30t-45 -85q1 -55 45 -85t112 -30zM1014 0h-316v98 q-47 -55 -130 -89q-82 -34 -194 -34t-217 85t-105 245t102 237t237 76q215 0 307 -114v119q0 67 -53 105t-147 38q-158 0 -281 -104l-113 198q180 154 449 154q192 0 318 -82q143 -92 143 -314v-618z" glyph-name="uni1EAD" horiz-adv-x="1128" unicode="ậ"/><glyph d="M714 1401q-224 0 -362 106l135 66q89 -70 229 -70t220 70l135 -66q-133 -106 -357 -106zM1120 1698l-325 -162h-213l260 162h278zM887 504l-174 514l-174 -514h348zM1450 0h-399l-68 197h-539l-67 -197h-400l515 1366h442z" glyph-name="uni1EAE" horiz-adv-x="1427" unicode="Ắ"/><glyph d="M560 1053q-224 0 -361 180l135 110q88 -119 228 -119t220 119l136 -110q-134 -180 -358 -180zM971 1606l-326 -295h-213l260 295h279zM522 182q127 0 176 72v88q-51 70 -176 70q-68 0 -112 -30t-45 -85q1 -55 45 -85t112 -30zM1014 0h-316v98q-47 -55 -130 -89 q-82 -34 -194 -34t-217 85t-105 245t102 237t237 76q215 0 307 -114v119q0 67 -53 105t-147 38q-158 0 -281 -104l-113 198q180 154 449 154q192 0 318 -82q143 -92 143 -314v-618z" glyph-name="uni1EAF" horiz-adv-x="1128" unicode="ắ"/><glyph d="M714 1393q-224 0 -362 106l135 66q89 -70 229 -70t220 70l135 -66q-133 -106 -357 -106zM850 1536h-213l-326 162h279zM887 504l-174 514l-174 -514h348zM1450 0h-399l-68 197h-539l-67 -197h-400l515 1366h442z" glyph-name="uni1EB0" horiz-adv-x="1427" unicode="Ằ"/><glyph d="M560 1055q-224 0 -361 180l135 111q88 -119 228 -119t220 119l136 -111q-134 -180 -358 -180zM688 1311h-213l-325 295h278zM522 182q127 0 176 72v88q-51 70 -176 70q-68 0 -112 -30t-45 -85q1 -55 45 -85t112 -30zM1014 0h-316v98q-47 -55 -130 -89q-82 -34 -194 -34 t-217 85t-105 245t102 237t237 76q215 0 307 -114v119q0 67 -53 105t-147 38q-158 0 -281 -104l-113 198q180 154 449 154q192 0 318 -82q143 -92 143 -314v-618z" glyph-name="uni1EB1" horiz-adv-x="1128" unicode="ằ"/><glyph d="M714 1393q-224 0 -362 106l135 66q89 -70 229 -70t220 70l135 -66q-133 -106 -357 -106zM713 1677q74 1 123 -21t49 -55t-29 -61h-127q37 20 37 51t-50 31t-67 -29l-106 21q41 63 170 63zM887 504l-174 514l-174 -514h348zM1450 0h-399l-68 197h-539l-67 -197h-400 l515 1366h442z" glyph-name="uni1EB2" horiz-adv-x="1427" unicode="Ẳ"/><glyph d="M560 1055q-224 0 -361 180l135 111q88 -119 228 -119t220 119l136 -111q-134 -180 -358 -180zM559 1579q74 0 123 -38t49 -114q0 -43 -29 -100h-127q37 39 37 96t-53 58q-45 -1 -63 -54l-107 35q41 117 170 117zM522 182q127 0 176 72v88q-51 70 -176 70q-68 0 -112 -30 t-45 -85q1 -55 45 -85t112 -30zM1014 0h-316v98q-47 -55 -130 -89q-82 -34 -194 -34t-217 85t-105 245t102 237t237 76q215 0 307 -114v119q0 67 -53 105t-147 38q-158 0 -281 -104l-113 198q180 154 449 154q192 0 318 -82q143 -92 143 -314v-618z" glyph-name="uni1EB3" horiz-adv-x="1128" unicode="ẳ"/><glyph d="M823 1550q-75 0 -141 28t-90 28q-61 0 -62 -50h-159q0 137 231 138q74 0 140 -29t92 -29q61 0 61 52h160q-1 -138 -232 -138zM715 1389q-223 0 -361 94l135 59q89 -63 229 -63t220 63l135 -59q-135 -94 -358 -94zM887 504l-174 514l-174 -514h348zM1450 0h-399l-68 197 h-539l-67 -197h-400l515 1366h442z" glyph-name="uni1EB4" horiz-adv-x="1427" unicode="Ẵ"/><glyph d="M662 1350q-89 0 -141 56t-91 56q-61 0 -61 -100h-160q0 274 231 274q85 0 175 -84q32 -29 57 -28q61 0 61 100h160q0 -274 -231 -274zM560 1055q-224 0 -361 180l135 111q88 -119 228 -119t220 119l136 -111q-134 -180 -358 -180zM522 182q127 0 176 72v88 q-51 70 -176 70q-68 0 -112 -30t-45 -85q1 -55 45 -85t112 -30zM1014 0h-316v98q-47 -55 -130 -89q-82 -34 -194 -34t-217 85t-105 245t102 237t237 76q215 0 307 -114v119q0 67 -53 105t-147 38q-158 0 -281 -104l-113 198q180 154 449 154q192 0 318 -82q143 -92 143 -314 v-618z" glyph-name="uni1EB5" horiz-adv-x="1128" unicode="ẵ"/><glyph d="M716 1595q140 0 220 119l135 -110q-133 -180 -357 -180t-362 180l135 110q89 -119 229 -119zM715 -416q-66 0 -113 47t-47 114t47 114t113 47q67 0 113 -47t46 -114t-46 -114t-113 -47zM887 504l-174 514l-174 -514h348zM1450 0h-399l-68 197h-539l-67 -197h-400 l515 1366h442z" glyph-name="uni1EB6" horiz-adv-x="1427" unicode="Ặ"/><glyph d="M562 1253q140 0 220 119l136 -110q-134 -180 -358 -180t-361 180l135 110q88 -119 228 -119zM565 -416q-67 0 -113 47t-46 114t47 114t113 47t112 -47q47 -47 47 -114t-47 -114t-113 -47zM522 182q127 0 176 72v88q-51 70 -176 70q-68 0 -112 -30t-45 -85q1 -55 45 -85 t112 -30zM1014 0h-316v98q-47 -55 -130 -89q-82 -34 -194 -34t-217 85t-105 245t102 237t237 76q215 0 307 -114v119q0 67 -53 105t-147 38q-158 0 -281 -104l-113 198q180 154 449 154q192 0 318 -82q143 -92 143 -314v-618z" glyph-name="uni1EB7" horiz-adv-x="1128" unicode="ặ"/><glyph d="M623 -416q-66 0 -113 47t-47 114t47 114t113 47q67 0 113 -47t46 -114t-46 -114t-113 -47zM1124 0h-1001v1366h1001v-307h-649v-213h635v-307h-635v-232h649v-307z" glyph-name="uni1EB8" unicode="Ẹ"/><glyph d="M580 -416q-66 0 -113 47t-47 114t47 114t113 47t112 -47t47 -114q-1 -67 -47 -114t-112 -47zM578 770q-96 0 -144 -51q-49 -51 -61 -119h407q-8 66 -57 118t-145 52zM590 -25q-233 1 -387 143t-154 370q1 228 149 376q148 150 374 150t368 -151t141 -400v-68h-704 q14 -74 80 -125t168 -51q57 0 132 24t113 60l134 -197q-72 -63 -184 -97t-230 -34z" glyph-name="uni1EB9" horiz-adv-x="1122" unicode="ẹ"/><glyph d="M782 1544q0 -59 -28 -117h-127q37 39 37 97t-54 57q-45 0 -63 -53l-107 35q38 119 178 117q66 0 115 -39q49 -38 49 -97zM1124 0h-1001v1366h1001v-307h-649v-213h635v-307h-635v-232h649v-307z" glyph-name="uni1EBA" unicode="Ẻ"/><glyph d="M563 1331q74 0 123 -38t49 -97t-28 -117h-127q36 39 36 97t-53 57q-45 0 -63 -53l-107 34q41 117 170 117zM578 770q-96 0 -144 -51q-49 -51 -61 -119h407q-8 66 -57 118t-145 52zM590 -25q-233 1 -387 143t-154 370q1 228 149 376q148 150 374 150t368 -151t141 -400 v-68h-704q14 -74 80 -125t168 -51q57 0 132 24t113 60l134 -197q-72 -63 -184 -97t-230 -34z" glyph-name="uni1EBB" horiz-adv-x="1122" unicode="ẻ"/><glyph d="M754 1477q-89 0 -141 56t-91 56q-61 0 -61 -100h-160q0 274 231 274q83 0 176 -84q32 -29 56 -28q61 0 61 100h160q0 -274 -231 -274zM1124 0h-1001v1366h1001v-307h-649v-213h635v-307h-635v-232h649v-307z" glyph-name="uni1EBC" unicode="Ẽ"/><glyph d="M676 1135q-85 0 -176 85q-31 28 -56 27q-61 0 -61 -100h-160q0 274 232 274q57 -1 100 -29t75 -56t56 -27q61 0 62 100h159q0 -274 -231 -274zM578 770q-96 0 -144 -51q-49 -51 -61 -119h407q-8 66 -57 118t-145 52zM590 -25q-233 1 -387 143t-154 370q1 228 149 376 q148 150 374 150t368 -151t141 -400v-68h-704q14 -74 80 -125t168 -51q57 0 132 24t113 60l134 -197q-72 -63 -184 -97t-230 -34z" glyph-name="uni1EBD" horiz-adv-x="1122" unicode="ẽ"/><glyph d="M1124 0h-1001v1366h1001v-307h-649v-213h635v-307h-635v-232h649v-307zM1430 1726l-326 -221h-213l260 221h279zM963 1397h-189l-141 125l-135 -125h-187l185 221h276z" glyph-name="uni1EBE" unicode="Ế"/><glyph d="M578 770q-96 0 -144 -51q-49 -51 -61 -119h407q-8 66 -57 118t-145 52zM590 -25q-233 1 -387 143t-154 370q1 228 149 376q148 150 374 150t368 -151t141 -400v-68h-704q14 -74 80 -125t168 -51q57 0 132 24t113 60l134 -197q-72 -63 -184 -97t-230 -34zM1354 1577 l-326 -295h-213l260 295h279zM901 1139h-188l-142 166l-135 -166h-186l184 295h277z" glyph-name="uni1EBF" horiz-adv-x="1122" unicode="ế"/><glyph d="M387 1505h-213l-326 221h279zM1124 0h-1001v1366h1001v-307h-649v-213h635v-307h-635v-232h649v-307zM967 1397h-189l-141 125l-135 -125h-187l185 221h276z" glyph-name="uni1EC0" unicode="Ề"/><glyph d="M324 1282h-213l-326 295h278zM578 770q-96 0 -144 -51q-49 -51 -61 -119h407q-8 66 -57 118t-145 52zM590 -25q-233 1 -387 143t-154 370q1 228 149 376q148 150 374 150t368 -151t141 -400v-68h-704q14 -74 80 -125t168 -51q57 0 132 24t113 60l134 -197 q-72 -63 -184 -97t-230 -34zM901 1139h-188l-142 166l-135 -166h-186l184 295h277z" glyph-name="uni1EC1" horiz-adv-x="1122" unicode="ề"/><glyph d="M979 1714q74 0 123 -28t49 -72q0 -45 -29 -88h-127q37 30 37 72t-50 42t-67 -38l-106 26q39 86 170 86zM1124 0h-1001v1366h1001v-307h-649v-213h635v-307h-635v-232h649v-307zM958 1397h-188l-141 125l-135 -125h-187l185 221h276z" glyph-name="uni1EC2" unicode="Ể"/><glyph d="M801 1618q74 0 123 -38t49 -114q0 -43 -29 -100h-127q37 39 37 96t-53 58q-46 -1 -64 -54l-106 35q41 117 170 117zM578 770q-96 0 -144 -51q-49 -51 -61 -119h407q-8 66 -57 118t-145 52zM590 -25q-233 1 -387 143t-154 370q1 228 149 376q148 150 374 150t368 -151 t141 -400v-68h-704q14 -74 80 -125t168 -51q57 0 132 24t113 60l134 -197q-72 -63 -184 -97t-230 -34zM901 1139h-188l-142 166l-135 -166h-186l184 295h277z" glyph-name="uni1EC3" horiz-adv-x="1122" unicode="ể"/><glyph d="M741 1550q-75 0 -141 28t-90 28q-61 0 -61 -50h-160q0 137 231 138q74 0 140 -29t92 -29q61 0 61 52h160q-1 -138 -232 -138zM1124 0h-1001v1366h1001v-307h-649v-213h635v-307h-635v-232h649v-307zM961 1389h-189l-141 81l-135 -81h-187l185 147h276z" glyph-name="uni1EC4" unicode="Ễ"/><glyph d="M686 1397q-57 1 -101 29t-75 56t-55 27q-61 0 -62 -100h-160q0 274 232 274q57 -1 100 -29t75 -56t56 -27q61 0 62 100h160q-1 -274 -232 -274zM578 770q-96 0 -144 -51q-49 -51 -61 -119h407q-8 66 -57 118t-145 52zM590 -25q-233 1 -387 143t-154 370q1 228 149 376 q148 150 374 150t368 -151t141 -400v-68h-704q14 -74 80 -125t168 -51q57 0 132 24t113 60l134 -197q-72 -63 -184 -97t-230 -34zM901 1071h-188l-142 166l-135 -166h-186l184 295h277z" glyph-name="uni1EC5" horiz-adv-x="1122" unicode="ễ"/><glyph d="M623 -416q-66 0 -113 47t-47 114t47 114t113 47q67 0 113 -47t46 -114t-46 -114t-113 -47zM1124 0h-1001v1366h1001v-307h-649v-213h635v-307h-635v-232h649v-307zM950 1481h-188l-141 166l-136 -166h-186l184 295h277z" glyph-name="uni1EC6" unicode="Ệ"/><glyph d="M580 -416q-66 0 -113 47t-47 114t47 114t113 47t112 -47t47 -114q-1 -67 -47 -114t-112 -47zM578 770q-96 0 -144 -51q-49 -51 -61 -119h407q-8 66 -57 118t-145 52zM590 -25q-233 1 -387 143t-154 370q1 228 149 376q148 150 374 150t368 -151t141 -400v-68h-704 q14 -74 80 -125t168 -51q57 0 132 24t113 60l134 -197q-72 -63 -184 -97t-230 -34zM905 1139h-188l-142 166l-135 -166h-186l184 295h277z" glyph-name="uni1EC7" horiz-adv-x="1122" unicode="ệ"/><glyph d="M471 1544q0 -59 -29 -117h-127q37 39 37 97t-53 57q-45 0 -63 -53l-107 35q37 119 177 117q66 0 116 -39q49 -38 49 -97zM475 0h-352v1366h352v-1366z" glyph-name="uni1EC8" horiz-adv-x="598" unicode="Ỉ"/><glyph d="M272 1331q74 0 123 -38t49 -97t-28 -117h-127q37 39 37 97t-54 57q-45 0 -63 -53l-107 34q41 117 170 117zM430 0h-315v989h315v-989z" glyph-name="uni1EC9" horiz-adv-x="544" unicode="ỉ"/><glyph d="M305 -416q-67 0 -113 47t-46 114t46 114q48 47 114 47t112 -47q47 -47 47 -114t-47 -114t-113 -47zM475 0h-352v1366h352v-1366z" glyph-name="uni1ECA" horiz-adv-x="598" unicode="Ị"/><glyph d="M276 -416q-66 0 -112 47t-47 114q0 67 47 114q46 47 112 47t113 -47t47 -114t-47 -114t-113 -47zM430 0h-315v989h315v-989zM272 1077q-76 0 -128 53q-52 54 -52 130t52 128t128 52t128 -52t52 -128t-52 -130t-128 -53z" glyph-name="uni1ECB" horiz-adv-x="544" unicode="ị"/><glyph d="M788 -416q-66 0 -112 47t-47 114q0 67 47 114q46 47 112 47t113 -47t47 -114t-47 -114t-113 -47zM412 682q0 -170 102 -282t269 -113q167 0 270 112q102 113 102 283t-102 283q-101 113 -269 113t-270 -114q-102 -112 -102 -282zM784 -25q-315 0 -523 199t-208 508 t208 508t523 199q314 0 522 -199t208 -508t-208 -508q-207 -199 -522 -199z" glyph-name="uni1ECC" horiz-adv-x="1568" unicode="Ọ"/><glyph d="M592 -416q-66 0 -113 47t-47 114t47 114t113 47t113 -47t47 -114t-47 -114t-113 -47zM588 254q100 0 158 69t58 172t-58 172t-158 69t-157 -69q-56 -69 -56 -172q1 -103 57 -172t156 -69zM589 -25q-245 0 -392 152t-148 369q-1 218 147 368t393 150t392 -151t147 -367 t-147 -369q-147 -152 -392 -152z" glyph-name="uni1ECD" horiz-adv-x="1179" unicode="ọ"/><glyph d="M950 1544q0 -59 -28 -117h-127q37 39 37 97t-54 57q-45 0 -63 -53l-107 35q38 119 178 117q66 0 115 -39q49 -38 49 -97zM412 682q0 -170 102 -282t269 -113q167 0 270 112q102 113 102 283t-102 283q-101 113 -269 113t-270 -114q-102 -112 -102 -282zM784 -25 q-315 0 -523 199t-208 508t208 508t523 199q314 0 522 -199t208 -508t-208 -508q-207 -199 -522 -199z" glyph-name="uni1ECE" horiz-adv-x="1568" unicode="Ỏ"/><glyph d="M762 1196q0 -59 -29 -117h-127q37 39 37 97t-53 57q-46 0 -64 -53l-106 34q37 120 177 118q67 0 116 -39q49 -38 49 -97zM588 254q100 0 158 69t58 172t-58 172t-158 69t-157 -69q-56 -69 -56 -172q1 -103 57 -172t156 -69zM589 -25q-245 0 -392 152t-148 369 q-1 218 147 368t393 150t392 -151t147 -367t-147 -369q-147 -152 -392 -152z" glyph-name="uni1ECF" horiz-adv-x="1179" unicode="ỏ"/><glyph d="M412 682q0 -170 102 -282t269 -113q167 0 270 112q102 113 102 283t-102 283q-101 113 -269 113t-270 -114q-102 -112 -102 -282zM784 -25q-315 0 -523 199t-208 508t208 508t523 199q314 0 522 -199t208 -508t-208 -508q-207 -199 -522 -199zM1569 1726l-326 -221h-213 l260 221h279zM1102 1397h-189l-141 125l-135 -125h-186l184 221h276z" glyph-name="uni1ED0" horiz-adv-x="1568" unicode="Ố"/><glyph d="M588 254q100 0 158 69t58 172t-58 172t-158 69t-157 -69q-56 -69 -56 -172q1 -103 57 -172t156 -69zM589 -25q-245 0 -392 152t-148 369q-1 218 147 368t393 150t392 -151t147 -367t-147 -369q-147 -152 -392 -152zM1370 1577l-326 -295h-213l261 295h278zM915 1139h-188 l-141 166l-135 -166h-187l185 295h276z" glyph-name="uni1ED1" horiz-adv-x="1179" unicode="ố"/><glyph d="M520 1505h-213l-325 221h278zM412 682q0 -170 102 -282t269 -113q167 0 270 112q102 113 102 283t-102 283q-101 113 -269 113t-270 -114q-102 -112 -102 -282zM784 -25q-315 0 -523 199t-208 508t208 508t523 199q314 0 522 -199t208 -508t-208 -508 q-207 -199 -522 -199zM1100 1397h-189l-141 125l-135 -125h-186l184 221h276z" glyph-name="uni1ED2" horiz-adv-x="1568" unicode="Ồ"/><glyph d="M338 1282h-213l-326 295h279zM588 254q100 0 158 69t58 172t-58 172t-158 69t-157 -69q-56 -69 -56 -172q1 -103 57 -172t156 -69zM589 -25q-245 0 -392 152t-148 369q-1 218 147 368t393 150t392 -151t147 -367t-147 -369q-147 -152 -392 -152zM915 1139h-188l-141 166 l-135 -166h-187l185 295h276z" glyph-name="uni1ED3" horiz-adv-x="1179" unicode="ồ"/><glyph d="M1122 1714q74 0 123 -28t49 -72q0 -45 -28 -88h-127q37 30 37 72t-50 42t-67 -38l-107 26q41 86 170 86zM412 682q0 -170 102 -282t269 -113q167 0 270 112q102 113 102 283t-102 283q-101 113 -269 113t-270 -114q-102 -112 -102 -282zM784 -25q-315 0 -523 199 t-208 508t208 508t523 199q314 0 522 -199t208 -508t-208 -508q-207 -199 -522 -199zM1104 1397h-189l-141 125l-135 -125h-186l184 221h276z" glyph-name="uni1ED4" horiz-adv-x="1568" unicode="Ổ"/><glyph d="M987 1466q0 -43 -29 -100h-127q37 39 37 96t-53 58q-45 -1 -63 -54l-107 35q37 117 177 117q66 0 116 -38q49 -38 49 -114zM588 254q100 0 158 69t58 172t-58 172t-158 69t-157 -69q-56 -69 -56 -172q1 -103 57 -172t156 -69zM589 -25q-245 0 -392 152t-148 369 q-1 218 147 368t393 150t392 -151t147 -367t-147 -369q-147 -152 -392 -152zM913 1139h-188l-141 166l-135 -166h-187l184 295h277z" glyph-name="uni1ED5" horiz-adv-x="1179" unicode="ổ"/><glyph d="M887 1550q-76 0 -142 28t-90 28q-61 0 -61 -50h-160q0 137 232 138q74 0 140 -29t91 -29q61 0 61 52h160q0 -138 -231 -138zM412 682q0 -170 102 -282t269 -113q167 0 270 112q102 113 102 283t-102 283q-101 113 -269 113t-270 -114q-102 -112 -102 -282zM784 -25 q-315 0 -523 199t-208 508t208 508t523 199q314 0 522 -199t208 -508t-208 -508q-207 -199 -522 -199zM1106 1389h-188l-142 81l-135 -81h-186l184 147h276z" glyph-name="uni1ED6" horiz-adv-x="1568" unicode="Ỗ"/><glyph d="M700 1397q-57 1 -101 29t-75 56t-55 27q-61 0 -61 -100h-160q0 274 231 274q57 -1 101 -29t74 -56q32 -28 57 -27q61 0 61 100h160q-1 -274 -232 -274zM588 254q100 0 158 69t58 172t-58 172t-158 69t-157 -69q-56 -69 -56 -172q1 -103 57 -172t156 -69zM589 -25 q-245 0 -392 152t-148 369q-1 218 147 368t393 150t392 -151t147 -367t-147 -369q-147 -152 -392 -152zM913 1071h-188l-141 166l-135 -166h-187l184 295h277z" glyph-name="uni1ED7" horiz-adv-x="1179" unicode="ỗ"/><glyph d="M788 -416q-66 0 -112 47t-47 114q0 67 47 114q46 47 112 47t113 -47t47 -114t-47 -114t-113 -47zM412 682q0 -170 102 -282t269 -113q167 0 270 112q102 113 102 283t-102 283q-101 113 -269 113t-270 -114q-102 -112 -102 -282zM784 -25q-315 0 -523 199t-208 508 t208 508t523 199q314 0 522 -199t208 -508t-208 -508q-207 -199 -522 -199zM1116 1481h-188l-142 166l-135 -166h-186l184 295h277z" glyph-name="uni1ED8" horiz-adv-x="1568" unicode="Ộ"/><glyph d="M592 -416q-66 0 -113 47t-47 114t47 114t113 47t113 -47t47 -114t-47 -114t-113 -47zM588 254q100 0 158 69t58 172t-58 172t-158 69t-157 -69q-56 -69 -56 -172q1 -103 57 -172t156 -69zM589 -25q-245 0 -392 152t-148 369q-1 218 147 368t393 150t392 -151t147 -367 t-147 -369q-147 -152 -392 -152zM915 1139h-188l-141 166l-135 -166h-187l185 295h276z" glyph-name="uni1ED9" horiz-adv-x="1179" unicode="ộ"/><glyph d="M412 682q0 -170 102 -282t269 -113q167 0 270 112q102 113 102 283t-102 283q-101 113 -269 113t-270 -114q-102 -112 -102 -282zM784 -25q-315 0 -523 199t-208 508t208 508q209 199 533 199t531 -218q68 51 88 119q-6 -6 -42 -6q-37 0 -67 32t-30 84t37 90t93 38 t97 -44t41 -120q0 -164 -147 -279q119 -176 118 -403q0 -309 -207 -508t-522 -199zM1186 1776l-326 -295h-213l260 295h279z" glyph-name="uni1EDA" horiz-adv-x="1568" unicode="Ớ"/><glyph d="M588 254q100 0 158 69t58 172t-58 172t-158 69t-157 -69q-56 -69 -56 -172q1 -103 57 -172t156 -69zM1155 1092q0 -160 -137 -271q110 -139 110 -341t-147 -353q-147 -152 -392 -152t-392 152t-148 369q-1 218 147 368t374 150t370 -115q66 51 86 119q-6 -6 -42 -6 t-66 32t-31 83q0 51 38 89t93 38t96 -44t41 -118zM991 1434l-325 -295h-213l260 295h278z" glyph-name="uni1EDB" horiz-adv-x="1179" unicode="ớ"/><glyph d="M920 1481h-213l-326 295h278zM412 682q0 -170 102 -282t269 -113q167 0 270 112q102 113 102 283t-102 283q-101 113 -269 113t-270 -114q-102 -112 -102 -282zM784 -25q-315 0 -523 199t-208 508t208 508q209 199 533 199t531 -218q68 51 88 119q-6 -6 -42 -6 q-37 0 -67 32t-30 84t37 90t93 38t97 -44t41 -120q0 -164 -147 -279q119 -176 118 -403q0 -309 -207 -508t-522 -199z" glyph-name="uni1EDC" horiz-adv-x="1568" unicode="Ờ"/><glyph d="M725 1139h-213l-326 295h279zM588 254q100 0 158 69t58 172t-58 172t-158 69t-157 -69q-56 -69 -56 -172q1 -103 57 -172t156 -69zM1155 1092q0 -160 -137 -271q110 -139 110 -341t-147 -353q-147 -152 -392 -152t-392 152t-148 369q-1 218 147 368t374 150t370 -115 q66 51 86 119q-6 -6 -42 -6t-66 32t-31 83q0 51 38 89t93 38t96 -44t41 -118z" glyph-name="uni1EDD" horiz-adv-x="1179" unicode="ờ"/><glyph d="M954 1544q0 -59 -28 -117h-127q37 39 37 97t-54 57q-45 0 -63 -53l-107 35q38 119 178 117q66 0 115 -39q49 -38 49 -97zM412 682q0 -170 102 -282t269 -113q167 0 270 112q102 113 102 283t-102 283q-101 113 -269 113t-270 -114q-102 -112 -102 -282zM784 -25 q-315 0 -523 199t-208 508t208 508q209 199 533 199t531 -218q68 51 88 119q-6 -6 -42 -6q-37 0 -67 32t-30 84t37 90t93 38t97 -44t41 -120q0 -164 -147 -279q119 -176 118 -403q0 -309 -207 -508t-522 -199z" glyph-name="uni1EDE" horiz-adv-x="1568" unicode="Ở"/><glyph d="M588 1331q74 0 123 -38t49 -97t-29 -117h-127q37 39 37 97t-53 57q-46 0 -64 -53l-106 34q41 117 170 117zM588 254q100 0 158 69t58 172t-58 172t-158 69t-157 -69q-56 -69 -56 -172q1 -103 57 -172t156 -69zM1155 1092q0 -160 -137 -271q110 -139 110 -341t-147 -353 q-147 -152 -392 -152t-392 152t-148 369q-1 218 147 368t374 150t370 -115q66 51 86 119q-6 -6 -42 -6t-66 32t-31 83q0 51 38 89t93 38t96 -44t41 -118z" glyph-name="uni1EDF" horiz-adv-x="1179" unicode="ở"/><glyph d="M895 1477q-90 0 -141 56t-90 56q-61 0 -62 -100h-160q0 274 232 274q57 1 100 -27t75 -57t56 -28q61 0 62 100h159q0 -274 -231 -274zM412 682q0 -170 102 -282t269 -113q167 0 270 112q102 113 102 283t-102 283q-101 113 -269 113t-270 -114q-102 -112 -102 -282z M784 -25q-315 0 -523 199t-208 508t208 508q209 199 533 199t531 -218q68 51 88 119q-6 -6 -42 -6q-37 0 -67 32t-30 84t37 90t93 38t97 -44t41 -120q0 -164 -147 -279q119 -176 118 -403q0 -309 -207 -508t-522 -199z" glyph-name="uni1EE0" horiz-adv-x="1568" unicode="Ỡ"/><glyph d="M674 1135q-85 0 -176 85q-31 28 -56 27q-61 0 -61 -100h-160q0 274 232 274q57 -1 100 -29t75 -56t56 -27q61 0 61 100h160q0 -274 -231 -274zM588 254q100 0 158 69t58 172t-58 172t-158 69t-157 -69q-56 -69 -56 -172q1 -103 57 -172t156 -69zM1155 1092 q0 -160 -137 -271q110 -139 110 -341t-147 -353q-147 -152 -392 -152t-392 152t-148 369q-1 218 147 368t374 150t370 -115q66 51 86 119q-6 -6 -42 -6t-66 32t-31 83q0 51 38 89t93 38t96 -44t41 -118z" glyph-name="uni1EE1" horiz-adv-x="1179" unicode="ỡ"/><glyph d="M788 -416q-66 0 -112 47t-47 114q0 67 47 114q46 47 112 47t113 -47t47 -114t-47 -114t-113 -47zM412 682q0 -170 102 -282t269 -113q167 0 270 112q102 113 102 283t-102 283q-101 113 -269 113t-270 -114q-102 -112 -102 -282zM784 -25q-315 0 -523 199t-208 508 t208 508q209 199 533 199t531 -218q68 51 88 119q-6 -6 -42 -6q-37 0 -67 32t-30 84t37 90t93 38t97 -44t41 -120q0 -164 -147 -279q119 -176 118 -403q0 -309 -207 -508t-522 -199z" glyph-name="uni1EE2" horiz-adv-x="1568" unicode="Ợ"/><glyph d="M592 -416q-66 0 -113 47t-47 114t47 114t113 47t113 -47t47 -114t-47 -114t-113 -47zM588 254q100 0 158 69t58 172t-58 172t-158 69t-157 -69q-56 -69 -56 -172q1 -103 57 -172t156 -69zM1155 1092q0 -160 -137 -271q110 -139 110 -341t-147 -353q-147 -152 -392 -152 t-392 152t-148 369q-1 218 147 368t374 150t370 -115q66 51 86 119q-6 -6 -42 -6t-66 32t-31 83q0 51 38 89t93 38t96 -44t41 -118z" glyph-name="uni1EE3" horiz-adv-x="1179" unicode="ợ"/><glyph d="M774 -416q-66 0 -112 47t-48 114q0 67 48 114t112 47q66 0 113 -47t47 -114t-47 -114t-113 -47zM769 -25q-318 0 -482 158t-164 420v813h358v-801q0 -125 75 -201t213 -77q138 0 213 77t75 201v801h356v-811q0 -264 -163 -422t-481 -158z" glyph-name="uni1EE4" horiz-adv-x="1536" unicode="Ụ"/><glyph d="M610 -416q-66 0 -112 47t-47 114q0 67 47 114q46 47 112 47t113 -47t47 -114t-47 -114t-113 -47zM1098 0h-316v119q-127 -143 -342 -144q-164 0 -244 83t-81 227v704h315v-575q0 -160 164 -160q113 0 188 96v639h316v-989z" glyph-name="uni1EE5" horiz-adv-x="1212" unicode="ụ"/><glyph d="M940 1544q0 -59 -29 -117h-127q37 39 37 97t-53 57q-45 0 -63 -53l-107 35q41 117 170 116q74 0 123 -38t49 -97zM769 -25q-318 0 -482 158t-164 420v813h358v-801q0 -125 75 -201t213 -77q138 0 213 77t75 201v801h356v-811q0 -264 -163 -422t-481 -158z" glyph-name="uni1EE6" horiz-adv-x="1536" unicode="Ủ"/><glyph d="M778 1196q0 -59 -28 -117h-127q37 39 37 97t-54 57q-45 0 -63 -53l-107 34q18 58 64 88t114 30q66 0 115 -39q49 -38 49 -97zM1098 0h-316v119q-127 -143 -342 -144q-164 0 -244 83t-81 227v704h315v-575q0 -160 164 -160q113 0 188 96v639h316v-989z" glyph-name="uni1EE7" horiz-adv-x="1212" unicode="ủ"/><glyph d="M1632 1478q0 -83 -56 -172t-163 -143v-608q0 -264 -163 -422t-481 -158t-482 158t-164 420v813h358v-801q0 -125 75 -201t213 -77q138 0 213 77t75 201v801h356v-76q72 53 90 121q-12 -4 -45 -4q-34 0 -64 32t-30 83t37 89t92 38t97 -44t42 -127zM1171 1776l-325 -295 h-213l260 295h278z" glyph-name="uni1EE8" horiz-adv-x="1536" unicode="Ứ"/><glyph d="M1098 0h-316v119q-127 -143 -342 -144q-164 0 -244 83t-81 227v704h315v-575q0 -160 164 -160q113 0 188 96v639h312q20 31 30 62q-6 -7 -42 -7t-66 33q-31 33 -31 84t38 89t93 38t97 -44t42 -120q0 -172 -157 -284v-840zM1008 1434l-326 -295h-213l260 295h279z" glyph-name="uni1EE9" horiz-adv-x="1212" unicode="ứ"/><glyph d="M1632 1478q0 -83 -56 -172t-163 -143v-608q0 -264 -163 -422t-481 -158t-482 158t-164 420v813h358v-801q0 -125 75 -201t213 -77q138 0 213 77t75 201v801h356v-76q72 53 90 121q-12 -4 -45 -4q-34 0 -64 32t-30 83t37 89t92 38t97 -44t42 -127zM903 1481h-213l-325 295 h278z" glyph-name="uni1EEA" horiz-adv-x="1536" unicode="Ừ"/><glyph d="M1098 0h-316v119q-127 -143 -342 -144q-164 0 -244 83t-81 227v704h315v-575q0 -160 164 -160q113 0 188 96v639h312q20 31 30 62q-6 -7 -42 -7t-66 33q-31 33 -31 84t38 89t93 38t97 -44t42 -120q0 -172 -157 -284v-840zM741 1139h-213l-325 295h278z" glyph-name="uni1EEB" horiz-adv-x="1212" unicode="ừ"/><glyph d="M1632 1478q0 -83 -56 -172t-163 -143v-608q0 -264 -163 -422t-481 -158t-482 158t-164 420v813h358v-801q0 -125 75 -201t213 -77q138 0 213 77t75 201v801h356v-76q72 53 90 121q-12 -4 -45 -4q-34 0 -64 32t-30 83t37 89t92 38t97 -44t42 -127zM940 1544 q0 -59 -29 -117h-127q37 39 37 97t-53 57q-45 0 -63 -53l-107 35q41 117 170 116q74 0 123 -38t49 -97z" glyph-name="uni1EEC" horiz-adv-x="1536" unicode="Ử"/><glyph d="M1098 0h-316v119q-127 -143 -342 -144q-164 0 -244 83t-81 227v704h315v-575q0 -160 164 -160q113 0 188 96v639h312q20 31 30 62q-6 -7 -42 -7t-66 33q-31 33 -31 84t38 89t93 38t97 -44t42 -120q0 -172 -157 -284v-840zM778 1196q0 -59 -28 -117h-127q37 39 37 97 t-54 57q-45 0 -63 -53l-107 34q18 58 64 88t114 30q66 0 115 -39q49 -38 49 -97z" glyph-name="uni1EED" horiz-adv-x="1212" unicode="ử"/><glyph d="M879 1477q-89 0 -141 56t-91 56q-61 0 -61 -100h-160q0 274 231 274q83 0 176 -84q32 -29 56 -28q61 0 61 100h160q0 -274 -231 -274zM1632 1478q0 -83 -56 -172t-163 -143v-608q0 -264 -163 -422t-481 -158t-482 158t-164 420v813h358v-801q0 -125 75 -201t213 -77 q138 0 213 77t75 201v801h356v-76q72 53 90 121q-12 -4 -45 -4q-34 0 -64 32t-30 83t37 89t92 38t97 -44t42 -127z" glyph-name="uni1EEE" horiz-adv-x="1536" unicode="Ữ"/><glyph d="M717 1135q-85 0 -176 85q-31 28 -56 27q-61 0 -61 -100h-160q0 274 232 274q57 -1 100 -29t75 -56t56 -27q61 0 61 100h160q0 -274 -231 -274zM1098 0h-316v119q-127 -143 -342 -144q-164 0 -244 83t-81 227v704h315v-575q0 -160 164 -160q113 0 188 96v639h312 q20 31 30 62q-6 -7 -42 -7t-66 33q-31 33 -31 84t38 89t93 38t97 -44t42 -120q0 -172 -157 -284v-840z" glyph-name="uni1EEF" horiz-adv-x="1212" unicode="ữ"/><glyph d="M1632 1478q0 -83 -56 -172t-163 -143v-608q0 -264 -163 -422t-481 -158t-482 158t-164 420v813h358v-801q0 -125 75 -201t213 -77q138 0 213 77t75 201v801h356v-76q72 53 90 121q-12 -4 -45 -4q-34 0 -64 32t-30 83t37 89t92 38t97 -44t42 -127zM774 -416q-66 0 -112 47 t-48 114q0 67 48 114t112 47q66 0 113 -47t47 -114t-47 -114t-113 -47z" glyph-name="uni1EF0" horiz-adv-x="1536" unicode="Ự"/><glyph d="M1098 0h-316v119q-127 -143 -342 -144q-164 0 -244 83t-81 227v704h315v-575q0 -160 164 -160q113 0 188 96v639h312q20 31 30 62q-6 -7 -42 -7t-66 33q-31 33 -31 84t38 89t93 38t97 -44t42 -120q0 -172 -157 -284v-840zM610 -416q-66 0 -112 47t-47 114q0 67 47 114 q46 47 112 47t113 -47t47 -114t-47 -114t-113 -47z" glyph-name="uni1EF1" horiz-adv-x="1212" unicode="ự"/><glyph d="M809 1481h-213l-326 295h279zM848 0h-352v551l-519 815h398l297 -504l293 504h399l-516 -815v-551z" glyph-name="Ygrave" horiz-adv-x="1341" unicode="Ỳ"/><glyph d="M670 1139h-213l-326 295h279zM94 -385l45 281q33 -18 78 -19q111 0 133 55l23 54l-393 1003h331l224 -627l225 627h334l-447 -1130q-55 -145 -157 -201t-223 -57q-120 -2 -173 14z" glyph-name="ygrave" horiz-adv-x="1073" unicode="ỳ"/><glyph glyph-name="uni2009" horiz-adv-x="104" unicode=" "/><glyph d="M1153 365h-1092v264h1092v-264z" glyph-name="endash" horiz-adv-x="1214" unicode="–"/><glyph d="M1645 365h-1584v264h1584v-264z" glyph-name="emdash" horiz-adv-x="1705" unicode="—"/><glyph d="M1153 365h-1092v264h1092v-264z" glyph-name="afii00208" horiz-adv-x="1214" unicode="―"/><glyph d="M70 973q0 250 233 416l131 -107q-51 -25 -103 -83t-69 -112q25 6 47 7q68 0 113 -47t45 -123t-55 -132t-136 -56q-82 0 -144 64t-62 173z" glyph-name="quoteleft" horiz-adv-x="548" unicode="‘"/><glyph d="M479 1149q0 -250 -233 -416l-131 107q51 27 104 84t70 112q-20 -8 -47 -8q-68 0 -114 47t-46 124t55 132t138 55t143 -64t61 -173z" glyph-name="quoteright" horiz-adv-x="548" unicode="’"/><glyph d="M479 125q0 -252 -233 -416l-131 107q51 27 104 84t70 110q-31 -6 -47 -6q-68 0 -114 47t-46 123t55 131t137 55t144 -63t61 -172z" glyph-name="quotesinglbase" horiz-adv-x="548" unicode="‚"/><glyph d="M70 1149q0 109 60 173t144 64t138 -55q55 -55 55 -132t-46 -124t-114 -47q-27 0 -47 8q16 -55 70 -112t104 -84l-131 -107q-233 166 -233 416z" glyph-name="quotereversed" horiz-adv-x="548" unicode="‛"/><glyph d="M528 973q0 250 234 416l131 -107q-51 -25 -103 -83t-69 -112q25 6 47 7q68 0 113 -47t45 -123t-56 -132t-136 -56q-82 0 -144 64t-62 173zM68 973q0 250 233 416l131 -107q-51 -27 -104 -84t-68 -111q25 6 47 7q66 0 112 -47t46 -123t-55 -132q-56 -56 -138 -56t-143 64 t-61 173z" glyph-name="quotedblleft" horiz-adv-x="1009" unicode="“"/><glyph d="M479 1149q0 -250 -233 -416l-131 107q51 27 104 84t70 112q-20 -8 -47 -8q-68 0 -114 47t-46 124t55 132t138 55t143 -64t61 -173zM942 1149q0 -250 -233 -416l-131 107q51 27 103 84t69 112q-16 -8 -48 -8q-68 0 -112 47t-45 124q0 77 55 132t137 55q81 0 143 -64 t62 -173z" glyph-name="quotedblright" horiz-adv-x="1009" unicode="”"/><glyph d="M942 125q0 -252 -233 -416l-131 107q51 25 103 83t69 111q-25 -6 -48 -6q-68 0 -112 47t-45 123q0 76 55 131t137 55q81 0 143 -63t62 -172zM479 125q0 -252 -233 -416l-131 107q51 27 104 84t70 110q-31 -6 -47 -6q-68 0 -114 47t-46 123t55 131t137 55t144 -63t61 -172 z" glyph-name="quotedblbase" horiz-adv-x="1011" unicode="„"/><glyph d="M545 1061l-183 8l9 -399h-162l10 399l-182 -8v145l182 -6l-10 186h162l-9 -186l183 6v-145z" glyph-name="dagger" horiz-adv-x="581" unicode="†"/><glyph d="M545 1206v-145l-183 8v-379l183 8v-145l-183 6l9 -190h-162l8 190l-180 -6v145l180 -8v379l-180 -8v145l180 -6l-8 186h162l-9 -186z" glyph-name="daggerdbl" horiz-adv-x="581" unicode="‡"/><glyph d="M623 497q0 -105 -74 -179t-180 -74t-181 73q-74 73 -74 179t74 180t180 74t181 -74q74 -74 74 -179z" glyph-name="bullet" horiz-adv-x="733" unicode="•"/><glyph d="M1569 168q1 -78 -57 -134t-136 -56t-134 56t-56 134t56 135t134 57t136 -57t57 -135zM1016 168q0 -78 -56 -134t-135 -56q-78 0 -134 56t-56 134t56 135t134 57q79 0 135 -57t56 -135zM465 168q0 -78 -56 -134q-57 -56 -135 -56t-134 56t-56 134t56 135t134 57t134 -57 t57 -135z" glyph-name="ellipsis" horiz-adv-x="1652" unicode="…"/><glyph d="M2073 315q0 84 -39 130q-38 47 -100 47t-101 -46t-39 -131q0 -84 39 -128t100 -44t101 44q39 44 39 128zM2290 316q0 -146 -100 -243t-258 -97q-159 0 -257 96q-98 98 -98 244t98 244t257 99q158 -1 258 -99t100 -244zM1315 315q0 84 -39 130q-39 47 -101 47 q-63 0 -101 -46t-38 -130q0 -85 38 -129t100 -44t102 44q39 44 39 128zM543 1042q0 84 -39 130q-40 46 -102 46t-100 -46t-38 -130t38 -128t100 -44t102 44q39 44 39 128zM1175 659q159 -1 258 -99t99 -244t-99 -243t-258 -97t-257 96q-98 98 -98 244t98 244t257 99z M1317 1366l-875 -1366h-176l873 1366h178zM762 1043q0 -146 -99 -243q-99 -98 -259 -98t-259 98q-98 98 -98 243q0 147 98 245t258 98t260 -98q99 -99 99 -245z" glyph-name="perthousand" horiz-adv-x="2336" unicode="‰"/><glyph d="M674 129h-285l-328 369l328 362h285l-328 -362z" glyph-name="guilsinglleft" horiz-adv-x="735" unicode="‹"/><glyph d="M674 498l-328 -369h-285l328 369l-328 362h285z" glyph-name="guilsinglright" horiz-adv-x="735" unicode="›"/><glyph d="M743 1139h-743v174h743v-174z" glyph-name="uni203E" horiz-adv-x="743" unicode="‾"/><glyph d="M700 1366l-876 -1366h-176l872 1366h180z" glyph-name="fraction" horiz-adv-x="348" unicode="⁄"/><glyph d="M414 1032q127 0 127 239t-127 238q-133 -1 -133 -239t133 -238zM776 1271q0 -177 -94 -300t-270 -123t-271 123q-94 123 -94 301t94 300q95 122 271 122t270 -123t94 -300z" glyph-name="uni2070" horiz-adv-x="823" unicode="⁰"/><glyph d="M453 1204v283l-174 -283h174zM786 1022h-102v-160h-231v160h-404v158l307 501h328v-477h102v-182z" glyph-name="uni2074" horiz-adv-x="823" unicode="⁴"/><glyph d="M498 1399q114 1 190 -67t76 -195t-96 -208t-265 -81q-229 0 -342 119l123 149q84 -84 219 -84q61 0 97 30q35 30 35 72t-33 70t-92 27q-100 0 -164 -62l-160 50v462h623v-184h-390v-164q66 66 179 66z" glyph-name="uni2075" horiz-adv-x="823" unicode="⁵"/><glyph d="M417 1032q60 0 93 30t33 74q0 45 -40 72q-41 27 -105 27t-115 -53q4 -62 39 -106t95 -44zM480 1415q122 -1 209 -75t87 -201t-95 -209t-243 -82q-195 0 -292 117t-97 311t115 306t311 112q152 0 258 -74l-96 -166q-70 55 -158 55t-142 -50t-54 -126v-10q75 92 197 92z " glyph-name="uni2076" horiz-adv-x="823" unicode="⁶"/><glyph d="M47 1497v184h670v-161l-285 -658h-258l291 635h-418z" glyph-name="uni2077" horiz-adv-x="768" unicode="⁷"/><glyph d="M545 1104q0 45 -47 71q-47 25 -86 25t-86 -26t-47 -70q0 -80 133 -80t133 80zM528 1440q0 78 -118 78t-117 -78q0 -37 40 -59t79 -25q36 4 76 26t40 58zM776 1079q0 -121 -105 -176t-259 -55t-259 54t-106 177q0 68 53 126t136 79q-78 18 -126 70t-49 121q-1 111 103 165 t248 54t246 -54q103 -54 104 -165q0 -70 -48 -121t-126 -70q82 -20 135 -78t53 -127z" glyph-name="uni2078" horiz-adv-x="823" unicode="⁸"/><glyph d="M283 1406q0 -46 40 -73t89 -26q80 0 131 53q-4 63 -38 106q-35 43 -95 43t-94 -28q-33 -29 -33 -75zM49 1404q0 128 95 209t245 81q193 0 290 -117t97 -311t-114 -307q-114 -112 -312 -111q-156 0 -256 74l96 165q66 -55 154 -55t143 48t56 128v11q-76 -93 -198 -93 t-209 75t-87 203z" glyph-name="uni2079" horiz-adv-x="823" unicode="⁹"/><glyph d="M45 1272q0 150 61 304t158 239l142 -56q-123 -217 -123 -487t123 -488l-142 -55q-96 84 -158 238q-61 155 -61 305z" glyph-name="uni207D" horiz-adv-x="425" unicode="⁽"/><glyph d="M385 1271q0 -151 -60 -303t-159 -239l-139 55q123 226 123 488t-123 487l139 56q96 -85 158 -239t61 -305z" glyph-name="uni207E" horiz-adv-x="425" unicode="⁾"/><glyph d="M764 668h-223v366q0 104 -105 105q-70 0 -119 -58v-413h-225v643h225v-76q80 92 228 92q111 0 165 -58t54 -151v-450z" glyph-name="uni207F" horiz-adv-x="856" unicode="ⁿ"/><glyph d="M414 -129q127 0 127 239t-127 238q-133 0 -133 -238t133 -239zM776 110q0 -177 -94 -300t-270 -123t-271 123q-94 123 -94 301t94 300q95 121 271 121t270 -122t94 -300z" glyph-name="uni2080" horiz-adv-x="823" unicode="₀"/><glyph d="M514 -299h-233v522l-142 -141l-131 139l305 299h201v-819z" glyph-name="uni2081" horiz-adv-x="636" unicode="₁"/><glyph d="M758 -299h-668v168q276 193 352 261t76 118q0 49 -33 75q-33 25 -92 25t-121 -31t-94 -69l-119 147q127 137 344 137q158 0 253 -70t96 -192q0 -88 -73 -174t-251 -211h330v-184z" glyph-name="uni2082" horiz-adv-x="823" unicode="₂"/><glyph d="M168 -33q94 -96 230 -96t134 83q0 40 -40 55q-41 15 -125 15t-97 -1v182q18 -2 96 -2t116 16q36 16 36 57q0 72 -130 72t-216 -86l-104 137q123 133 342 133q164 0 252 -61t88 -164q0 -68 -52 -120t-131 -64q77 -7 137 -59t60 -134q0 -108 -97 -176t-257 -67 q-238 0 -353 129z" glyph-name="uni2083" horiz-adv-x="823" unicode="₃"/><glyph d="M453 43v283l-174 -283h174zM786 -139h-102v-160h-231v160h-404v157l307 502h328v-477h102v-182z" glyph-name="uni2084" horiz-adv-x="823" unicode="₄"/><glyph d="M498 238q114 0 190 -68t76 -195t-96 -207t-265 -81q-229 0 -342 118l123 150q84 -84 219 -84q61 0 97 30q35 29 35 71t-33 70t-92 28q-100 0 -164 -62l-160 49v463h623v-184h-390v-164q66 66 179 66z" glyph-name="uni2085" horiz-adv-x="823" unicode="₅"/><glyph d="M417 -129q60 -1 93 29t33 75t-40 72q-41 27 -105 27t-115 -54q4 -63 39 -106t95 -43zM480 254q122 0 209 -74t87 -202q0 -127 -95 -209t-243 -82q-195 1 -292 117t-97 311t115 307t311 110q152 0 258 -73l-96 -166q-70 55 -158 55t-142 -50t-54 -126v-10q75 92 197 92z " glyph-name="uni2086" horiz-adv-x="823" unicode="₆"/><glyph d="M47 336v184h670v-162l-285 -657h-258l291 635h-418z" glyph-name="uni2087" horiz-adv-x="768" unicode="₇"/><glyph d="M545 -57q0 45 -47 71t-86 25q-39 0 -86 -26t-47 -70q0 -80 133 -80t133 80zM528 279q0 77 -118 77t-117 -77q0 -37 40 -59t79 -25q36 3 76 25t40 59zM776 -82q0 -121 -105 -176t-259 -55t-259 54t-106 177q0 68 53 126t136 79q-78 17 -126 69t-49 121q-1 111 103 165 t248 54t246 -54q103 -54 104 -165q0 -71 -48 -121t-126 -69q82 -21 135 -79t53 -126z" glyph-name="uni2088" horiz-adv-x="823" unicode="₈"/><glyph d="M410 348q-60 0 -94 -28t-33 -75q0 -46 40 -73q41 -27 105 -27t115 54q-4 63 -38 106q-35 43 -95 43zM49 243q0 128 95 209t245 80q193 0 290 -116t97 -312q0 -194 -114 -306t-312 -111q-156 0 -256 73l96 166q66 -55 154 -55t143 48t56 128v10q-76 -92 -198 -92t-209 75 t-87 203z" glyph-name="uni2089" horiz-adv-x="823" unicode="₉"/><glyph d="M45 110q0 150 61 304t158 239l142 -55q-123 -218 -123 -488t123 -487l-142 -55q-96 84 -158 238t-61 304z" glyph-name="uni208D" horiz-adv-x="425" unicode="₍"/><glyph d="M385 110q0 -151 -60 -304t-159 -238l-139 55q123 227 123 489t-123 486l139 55q96 -86 158 -239t61 -304z" glyph-name="uni208E" horiz-adv-x="425" unicode="₎"/><glyph d="M432 686q0 -131 66 -235l200 610q-122 -37 -194 -141t-72 -234zM631 330q49 -25 108 -37l242 733q-47 31 -107 43zM813 -25h-6l-59 -180h-173l66 197q-63 14 -113 31l-75 -228h-172l100 301q-143 94 -225 246t-82 340q0 311 208 508t525 199l61 184h172l-67 -201 q53 -10 110 -35l78 236h172l-106 -322q113 -90 182 -229l-303 -143q-2 0 -2 2l-189 -576q63 23 115 71q51 48 76 109l303 -143q-79 -156 -225 -262t-371 -105z" glyph-name="colonmonetary" horiz-adv-x="1441" unicode="₡"/><glyph d="M492 0h-353v195h-123v174h123v997h1002v-307h-649v-213h634v-307h-634v-170h268v-174h-268v-195z" glyph-name="franc" horiz-adv-x="1208" unicode="₣"/><glyph d="M831 969q-49 133 -189 133q-69 0 -118 -44t-49 -106t23 -110h333v-154h-258q20 -43 29 -90h229v-152h-245q-37 -80 -103 -116q43 16 101 16t130 -30q73 -30 117 -29q115 0 166 71l138 -278q-96 -104 -316 -105q-96 0 -212 44t-161 44q-98 0 -235 -77l-117 235 q199 98 199 225h-244v152h201q-10 20 -57 90h-144v154h60q-20 57 -21 110q0 197 161 316t355 118q375 0 508 -256z" glyph-name="lira" horiz-adv-x="1157" unicode="₤"/><glyph d="M1055 635v104h-92l75 -104h17zM492 739v-104h112l-76 104h-36zM1409 0h-340l-338 461h-239v-461h-353v461h-123v174h123v104h-123v174h123v453h363l332 -453h221v453h354v-453h121v-174h-121v-104h121v-174h-121v-461z" glyph-name="uni20A6" horiz-adv-x="1546" unicode="₦"/><glyph d="M492 1059v-98h430q-43 98 -146 98h-284zM776 686q102 0 146 98h-430v-98h284zM1419 784h-127q-28 -178 -150 -292t-319 -113h-331v-379h-353v784h-123v177h123v405h684q197 0 320 -114t149 -291h127v-177z" glyph-name="peseta" horiz-adv-x="1425" unicode="₧"/><glyph d="M754 766q72 0 120 39t50 107q0 68 -50 108q-50 39 -120 39h-279v-293h279zM475 459v-459h-352v1366h684q221 0 348 -129t127 -309t-81 -284q-81 -103 -191 -142l278 -502h-403l-230 459h-180zM1753 -25q-133 0 -259 41t-204 111l131 217q57 -51 161 -91t187 -40 q133 0 134 76q1 35 -59 52t-145 31t-169 40q-84 27 -144 96q-59 70 -59 194t113 218q112 94 328 94t397 -131l-121 -209q-47 45 -127 77q-79 31 -149 31t-105 -20t-35 -51t60 -46t144 -31q85 -16 169 -44q84 -29 143 -102t60 -185q0 -145 -121 -237t-330 -91z" glyph-name="uni20A8" horiz-adv-x="2248" unicode="₨"/><glyph d="M930 739l-25 -104h107l-25 104h-57zM1253 739l27 -104h86l25 104h-138zM524 739l25 -104h86l27 104h-138zM18 461v174h179l-31 104h-148v174h99l-129 453h395l102 -453h222l116 453h271l114 -453h222l102 453h397l-129 -453h98v-174h-149l-29 -104h178v-174h-229 l-131 -461h-373l-110 461h-193l-110 -461h-373l-133 461h-228z" glyph-name="uni20A9" horiz-adv-x="1916" unicode="₩"/><glyph d="M741 1126q270 0 380 -114t110 -340v-297h-295v268q0 113 -42 164t-153 51h-329v-858h-297v1126h626zM1149 0h-625v750h295v-482h330q111 0 153 51t41 164v643h295v-671q0 -225 -110 -340t-379 -115z" glyph-name="afii57636" horiz-adv-x="1755" unicode="₪"/><glyph d="M590 254q51 0 105 26t85 64v303q-31 39 -85 64t-105 24q-96 0 -157 -65q-60 -66 -60 -174q-1 -108 61 -176q62 -66 156 -66zM1094 0h-314v115q-121 -139 -302 -139t-305 138t-124 379t124 381t308 140t299 -142v201h-286v174h286v119h314v-119h110v-174h-110v-1073z M999 -379h-743v174h743v-174z" glyph-name="dong" horiz-adv-x="1220" unicode="₫"/><glyph d="M828 -25q-240 0 -431 130q-190 130 -260 350h-102v174h69q-2 27 -2 55t2 55h-69v174h102q72 219 261 347t444 129q412 0 596 -367l-303 -143q-35 84 -116 141t-177 57q-205 0 -316 -164h439v-174h-500q-4 -37 -4 -65t2 -45h502v-174h-441q111 -168 318 -168q96 0 177 57 t116 141l303 -143q-78 -156 -224 -262t-386 -105z" glyph-name="Euro" horiz-adv-x="1464" unicode="€"/><glyph d="M432 979v-229l209 137q82 55 115 90q32 35 32 82t-50 79t-128 32t-128 -52q-50 -51 -50 -139zM432 324q0 -45 23 -73t67 -28t78 25l59 -207q-72 -66 -233 -66q-309 0 -309 291v713q0 178 142 293q142 114 348 114t343 -89t137 -226q0 -109 -91 -204t-251 -199l-313 -205 v-139z" glyph-name="afii61289" horiz-adv-x="1128" unicode="ℓ"/><glyph d="M1393 0h-340l-578 791v-791h-352v1366h362l553 -752v752h355v-1366zM1930 895q62 0 99 42q36 42 35 118q0 75 -36 115t-99 40q-131 0 -131 -155q0 -76 35 -118t97 -42zM1930 717q-165 0 -264 98q-99 97 -99 239t99 240t264 98t264 -98q100 -98 100 -239t-100 -239 t-264 -99z" glyph-name="afii61352" horiz-adv-x="2344" unicode="№"/><glyph d="M881 696q61 0 107 44t46 110t-46 111t-107 45h-230v-310h230zM881 1098q104 0 182 -70t78 -178t-77 -177t-183 -69h-230v-336h-102v830h332zM1423 683q0 257 -185 442t-442 185q-258 0 -442 -184q-184 -186 -184 -443t184 -441t442 -184t442 184q185 184 185 441z M1503 684q0 -291 -207 -499q-208 -208 -500 -208t-499 208t-207 499t207 499t500 208t499 -208t207 -499z" glyph-name="uni2117" horiz-adv-x="1593" unicode="℗"/><glyph d="M385 1034q0 -61 -46 -98q-45 -37 -145 -37t-163 74l37 43q55 -63 139 -64q111 0 110 78q0 39 -44 62q-44 22 -95 30t-95 40t-44 88t46 92t118 36q113 0 168 -65l-37 -39q-47 55 -129 55q-43 0 -71 -20q-28 -21 -28 -55q0 -58 140 -84q53 -9 96 -42t43 -94zM899 915h-57 v373l-154 -373h-16l-154 373v-373h-57v451h88l131 -328l131 328h88v-451z" glyph-name="uni2120" horiz-adv-x="974" unicode="℠"/><glyph d="M346 1313h-127v-398h-57v398h-127v53h311v-53zM858 915h-57v373l-154 -373h-16l-154 373v-373h-57v451h88l131 -328l131 328h88v-451z" glyph-name="trademark" horiz-adv-x="929" unicode="™"/><glyph d="M88 307h227q-262 190 -262 468t206 446t525 168q318 0 524 -168q206 -167 206 -447t-261 -467h226v-307h-580v307q121 35 189 141t67 248q0 142 -92 260t-279 119q-129 0 -217 -63q-157 -113 -155 -326q0 -131 68 -237t190 -142v-307h-582v307z" glyph-name="uni2126" horiz-adv-x="1568" unicode="Ω"/><glyph d="M1368 715v391q0 29 -20 49q-199 203 -484 203t-487 -209q-20 -20 -21 -49v-385q0 -12 11 -13h993q8 1 8 13zM1661 664h-1294q-10 0 -11 -11v-389q0 -29 19 -47q201 -211 501 -211t502 236h117q-111 -129 -277 -204t-356 -75q-330 0 -564 211t-235 508q1 297 235 508 t564 211t564 -211t235 -508v-18z" glyph-name="estimated" horiz-adv-x="1724" unicode="℮"/><glyph d="M1180 266q94 -96 229 -96t135 83q0 40 -41 55q-41 16 -125 16t-96 -2v182q18 -2 96 -2t115 16t37 57q0 72 -130 72t-216 -86l-105 137q123 133 342 133q164 0 252 -61t88 -164q0 -68 -52 -120t-130 -64q77 -6 137 -58t60 -135q0 -109 -98 -177t-257 -66q-238 0 -352 129z M1366 1366l-877 -1366h-176l873 1366h180zM514 547h-233v522l-142 -141l-131 139l305 299h201v-819z" glyph-name="onethird" horiz-adv-x="1837" unicode="⅓"/><glyph d="M1339 266q93 -96 229 -96t136 83q0 40 -41 55q-41 16 -125 16t-96 -2v182q18 -2 96 -2t115 16t37 57q0 72 -130 72t-217 -86l-104 137q123 133 342 133q164 0 252 -61t88 -164q0 -68 -52 -120t-130 -64q76 -6 136 -58t60 -135q0 -109 -97 -177t-257 -66q-238 0 -352 129z M1524 1366l-877 -1366h-176l872 1366h181zM518 1094q0 100 -125 100q-59 0 -121 -31t-94 -69l-119 147q127 137 344 137q158 0 253 -70t96 -192q0 -88 -73 -174t-251 -211h330v-184h-668v168q276 193 352 261t76 118z" glyph-name="twothirds" horiz-adv-x="1994" unicode="⅔"/><glyph d="M1366 1366l-877 -1366h-176l873 1366h180zM1556 242q0 44 -47 70t-86 26t-86 -26t-47 -70q0 -80 133 -80t133 80zM1540 578q0 78 -118 78t-117 -78q0 -37 40 -59t78 -25q37 4 77 26t40 58zM1788 217q0 -121 -106 -176t-259 -55q-154 0 -259 54t-105 177q0 68 53 126 t135 79q-78 18 -126 70t-48 120q-1 111 103 165t247 54t247 -54t104 -165q0 -70 -48 -120t-127 -70q81 -20 135 -78t54 -127zM514 547h-233v522l-142 -141l-131 139l305 299h201v-819z" glyph-name="oneeighth" horiz-adv-x="1837" unicode="⅛"/><glyph d="M168 813q94 -96 230 -96t134 83q0 40 -40 55q-41 15 -125 15t-97 -2v183q18 -2 96 -2t116 16q36 16 36 57q0 72 -130 72t-216 -86l-104 137q123 133 342 133q164 0 252 -61t88 -164q0 -68 -52 -120t-131 -64q77 -7 137 -59t60 -134q0 -108 -97 -176t-257 -68 q-238 0 -353 130zM1524 1366l-877 -1366h-176l872 1366h181zM1716 242q0 44 -47 70t-86 26t-86 -26t-47 -70q0 -80 133 -80t133 80zM1700 578q0 78 -118 78t-118 -78q0 -37 40 -59t79 -25q37 4 77 26t40 58zM1948 217q0 -121 -106 -176t-259 -55q-154 0 -259 54t-105 177 q0 68 53 126t135 79q-78 18 -126 70t-48 120q0 111 103 165q102 54 246 54t248 -54t103 -165q0 -70 -48 -120t-126 -70q81 -20 135 -78t54 -127z" glyph-name="threeeighths" horiz-adv-x="1994" unicode="⅜"/><glyph d="M1507 1366l-876 -1366h-176l872 1366h180zM764 821q0 -127 -96 -208t-265 -81q-229 0 -342 119l123 150q84 -84 219 -84q61 0 97 29q35 30 35 72t-33 70t-92 27q-100 0 -164 -61l-160 49v463h623v-184h-390v-164q66 66 179 66q114 0 190 -68t76 -195zM1700 242 q0 44 -47 70t-86 26t-86 -26t-47 -70q0 -80 133 -80t133 80zM1683 578q1 78 -117 78t-118 -78q0 -37 40 -59t79 -25q37 4 77 25q39 22 39 59zM1931 217q0 -121 -105 -176t-259 -55t-259 54t-106 177q0 68 53 126t136 79q-78 18 -126 70t-48 120q0 111 103 165q102 54 246 54 t248 -54t103 -165q0 -70 -48 -120t-126 -70q82 -20 135 -78t53 -127z" glyph-name="fiveeighths" horiz-adv-x="1978" unicode="⅝"/><glyph d="M1360 1366l-877 -1366h-176l873 1366h180zM47 1182v184h670v-162l-285 -657h-258l291 635h-418zM1552 242q0 44 -47 70t-86 26t-86 -26t-47 -70q0 -80 133 -80t133 80zM1536 578q0 78 -118 78t-118 -78q0 -37 40 -59t79 -25q37 4 77 26t40 58zM1784 217q0 -121 -106 -176 t-259 -55q-154 0 -259 54t-105 177q0 68 53 126t135 79q-78 18 -126 70t-48 120q0 111 103 165q102 54 246 54t248 -54t103 -165q0 -70 -48 -120t-126 -70q81 -20 135 -78t54 -127z" glyph-name="seveneighths" horiz-adv-x="1830" unicode="⅞"/><glyph d="M1102 432h-551l24 -266l-575 420l575 418l-24 -265h551v-307z" glyph-name="arrowleft" horiz-adv-x="1191" unicode="←"/><glyph d="M442 35v551l-266 -25l420 576l418 -576l-264 25v-551h-308z" glyph-name="arrowup" horiz-adv-x="1191" unicode="↑"/><glyph d="M96 432v307h549l-24 265l575 -418l-575 -420l24 266h-549z" glyph-name="arrowright" horiz-adv-x="1191" unicode="→"/><glyph d="M750 1137v-551l266 24l-420 -575l-418 575l264 -24v551h308z" glyph-name="arrowdown" horiz-adv-x="1191" unicode="↓"/><glyph d="M589 254q101 0 159 54q57 54 57 142t-57 142q-56 53 -158 53t-158 -53t-57 -141q0 -88 56 -143q57 -54 158 -54zM592 -25q-248 1 -395 139t-147 334t125 334q126 138 308 140q221 0 314 -156q-115 305 -420 469l254 168q199 -125 349 -364t148 -501q0 -262 -144 -412 t-392 -151z" glyph-name="partialdiff" horiz-adv-x="1179" unicode="∂"/><glyph d="M954 307l-241 711l-240 -711h481zM1450 0h-1473l515 1366h442z" glyph-name="uni2206" horiz-adv-x="1427" unicode="∆"/><glyph d="M1444 -184h-352v1243h-486v-1243h-352v1243h-209v307h1606v-307h-207v-1243z" glyph-name="product" horiz-adv-x="1695" unicode="∏"/><glyph d="M1126 123v-307h-1042v307l387 481l-385 455v307h1040v-307h-600l377 -453l-393 -483h616z" glyph-name="summation" horiz-adv-x="1210" unicode="∑"/><glyph d="M979 592h-920v188h920v-188z" glyph-name="minus" horiz-adv-x="1038" unicode="−"/><glyph d="M700 1366l-876 -1366h-176l872 1366h180z" glyph-name="uni2215" horiz-adv-x="348" unicode="∕"/><glyph d="M467 500q0 -78 -57 -134q-58 -56 -136 -56t-134 56t-56 134t56 135t134 57t136 -57t57 -135z" glyph-name="uni2219" horiz-adv-x="552" unicode="∙"/><glyph d="M805 0h-199l-213 594l-241 -82l-58 180l436 142l181 -523l368 1055h230z" glyph-name="radical" horiz-adv-x="1351" unicode="√"/><glyph d="M436 498q72 0 124 53t79 137q-27 84 -79 136t-124 52t-123 -52t-51 -137t51 -137t123 -52zM1008 500q78 0 128 50t50 136t-50 138t-123 52q-137 1 -202 -190q62 -186 197 -186zM414 313q-176 0 -266 112q-89 111 -89 263t89 264t266 111q100 0 182 -54t127 -143 q47 88 129 142t182 55q178 0 266 -112q88 -111 88 -265t-86 -264q-87 -110 -268 -109q-100 -1 -183 53t-128 142q-45 -88 -127 -142t-182 -53z" glyph-name="infinity" horiz-adv-x="1447" unicode="∞"/><glyph d="M158 -205h-123v203h123q53 0 90 42t37 107v1074q0 158 102 255t246 97h123v-203h-123q-53 0 -90 -41t-37 -108v-1076q0 -158 -102 -254t-246 -96z" glyph-name="integral" horiz-adv-x="790" unicode="∫"/><glyph d="M748 1014q119 0 231 -45v-203q-103 57 -213 57t-234 -49t-245 -49q-122 0 -228 43v203q196 -110 446 -7q124 50 243 50zM274 545q106 0 231 49q124 49 246 49t228 -43v-203q-109 59 -216 59t-231 -49q-247 -100 -473 -8v203q109 -57 215 -57z" glyph-name="approxequal" horiz-adv-x="1038" unicode="≈"/><glyph d="M59 399v189h310l123 192h-433v189h553l131 207h179l-131 -207h188v-189h-309l-123 -192h432v-189h-551l-135 -209h-176l131 209h-189z" glyph-name="notequal" horiz-adv-x="1038" unicode="≠"/><glyph d="M979 0h-920v188h920v-188zM979 236l-920 387v227l920 389v-225l-707 -279l707 -276v-223z" glyph-name="lessequal" horiz-adv-x="1038" unicode="≤"/><glyph d="M979 0h-920v188h920v-188zM977 623l-920 -387v223l707 276l-707 279v225l920 -389v-227z" glyph-name="greaterequal" horiz-adv-x="1038" unicode="≥"/><glyph d="M1206 586l-1095 -633v1266z" glyph-name="uni22B2" horiz-adv-x="1202" unicode="⊲"/><glyph d="M1096 1219v-1266l-1096 633z" glyph-name="uni22B3" horiz-adv-x="1202" unicode="⊳"/><glyph d="M467 500q0 -78 -57 -134q-58 -56 -136 -56t-134 56t-56 134t56 135t134 57t136 -57t57 -135z" glyph-name="dotmath" horiz-adv-x="552" unicode="⋅"/><glyph d="M1280 315q0 -93 -67 -161t-161 -68t-161 68q-68 68 -68 161v127h-280v-127q0 -93 -68 -161t-162 -68q-95 0 -161 68t-66 162t67 160q67 67 160 67h127v280h-125q-93 0 -161 68t-68 162q0 95 68 161t162 66t160 -67q67 -67 67 -160v-129h280v129q0 95 68 161t162 66 q95 0 161 -67t66 -161t-67 -161q-67 -68 -160 -68h-127v-280h127q95 0 161 -67t66 -161zM1180 1053q0 51 -38 89t-90 38t-89 -37t-37 -90v-129h127q51 0 89 39t38 90zM1180 314q0 52 -38 90t-89 38h-127v-127q0 -53 37 -91t90 -38t90 38t37 90zM543 543h280v280h-280v-280z M440 924v129q0 51 -37 89t-89 38t-90 -37t-38 -90t38 -91t91 -38h125zM440 315v127h-127q-51 0 -89 -38t-38 -90t37 -90t90 -38t90 38t37 91z" glyph-name="uni2318" horiz-adv-x="1366" unicode="⌘"/><glyph d="M1266 0h-1170v1171h1170v-1171z" glyph-name="filledbox" horiz-adv-x="1353" unicode="■"/><glyph d="M1264 59l-1268 2l633 1096z" glyph-name="triagup" horiz-adv-x="1261" unicode="▲"/><glyph d="M1264 1044l-635 -1095l-633 1095h1268z" glyph-name="triagdn" horiz-adv-x="1261" unicode="▼"/><glyph d="M385 84l270 600l-272 598l-270 -598zM406 0h-44l-323 684l323 682h44l323 -682z" glyph-name="lozenge" horiz-adv-x="768" unicode="◊"/><glyph d="M1319 584q0 -252 -178 -430t-430 -178t-430 178t-179 430q0 252 178 430t431 178q252 0 430 -178t178 -430z" glyph-name="H18533" horiz-adv-x="1423" unicode="●"/><glyph d="M1554 862l-481 -350l184 -563l-481 348l-479 -348l182 563l-479 350h594l182 565l185 -565h593z" glyph-name="uni2605" horiz-adv-x="1554" unicode="★"/><glyph d="M1055 188v795h-756v-795h756zM1262 0h-1170v1171h1170v-1171z" glyph-name="uni2610" horiz-adv-x="1353" unicode="☐"/><glyph d="M1055 188v549l-299 -549h299zM299 983v-795h455l-412 502l145 137l240 -286l242 442h-670zM1262 0h-1170v1171h981l195 357l162 -98l-168 -310v-1120z" glyph-name="uni2611" horiz-adv-x="1353" unicode="☑"/><glyph d="M1026 584l-514 -512l-512 512l512 514z" glyph-name="diamond" horiz-adv-x="1026" unicode="♦"/><glyph d="M1087 1430l-673 -1244l-414 504l145 137l240 -286l541 987z" glyph-name="uni2713" horiz-adv-x="1087" unicode="✓"/><glyph d="M1651 264q0 59 -28 92t-73 33q-44 0 -72 -33t-28 -92t28 -92t72 -33t73 33q28 33 28 92zM1833 264q0 -121 -79 -203q-79 -81 -204 -81q-124 0 -202 82t-78 203q0 120 78 202t202 82t204 -82q79 -82 79 -203zM1049 264q0 59 -28 92t-73 33t-74 -33q-28 -33 -28 -92t28 -92 t74 -33q45 0 73 33t28 92zM331 741q43 0 71 33t28 91t-29 93t-71 35t-71 -35q-28 -35 -28 -92t28 -91t72 -34zM1114 1126l-784 -1126h-166l782 1126h168zM1229 264q0 -121 -78 -203q-78 -81 -203 -81t-203 82t-77 202q0 121 77 203q78 82 203 82t203 -82t78 -203zM612 866 q0 -120 -78 -202t-204 -82q-127 0 -204 82t-77 202t77 203q77 82 204 82q126 0 204 -82t78 -203z" glyph-name="uniF628" horiz-adv-x="1880" unicode=""/><glyph d="M762 668h-223v370q0 100 -107 101q-68 0 -117 -58v-413h-223v888h223v-321q80 92 228 92q109 0 164 -57t55 -152v-450z" glyph-name="uniF637" horiz-adv-x="854" unicode=""/><glyph d="M422 682q0 -94 10 -147l338 503q-49 37 -119 37q-229 0 -229 -393zM651 287q229 0 230 395q0 76 -11 152l-340 -508q45 -39 121 -39zM638 -25q-158 0 -288 82l-39 -57h-237l131 197q-139 195 -139 485q0 409 259 602q136 102 316 102t307 -81l41 61h238l-133 -199 q143 -195 143 -482t-142 -490q-71 -100 -185 -160t-272 -60z" glyph-name="uniF638" horiz-adv-x="1300" unicode=""/><glyph d="M651 287q229 0 229 394t-228 394q-230 0 -230 -394t229 -394zM651 -25q-145 -1 -259 59t-184 160q-144 205 -142 488q0 409 259 602q136 102 326 102q191 0 327 -102q260 -194 259 -602q0 -284 -142 -487q-71 -100 -185 -160t-259 -60z" glyph-name="uniF639" horiz-adv-x="1300" unicode=""/><glyph d="M1208 0h-1071v274q455 328 579 443t124 215q0 68 -54 106t-135 37q-205 0 -364 -149l-195 233q104 115 252 171t301 56q245 0 399 -124t154 -330q0 -154 -115 -299t-374 -326h499v-307z" glyph-name="uniF63A" horiz-adv-x="1300" unicode=""/><glyph d="M643 -25q-189 -1 -335 59t-230 156l178 240q70 -70 173 -106t207 -37q104 0 163 37t59 96t-54 87t-204 28t-170 -3v314q27 -2 184 -2q221 0 222 106q0 61 -64 93t-166 32q-193 0 -340 -131l-170 221q197 221 547 221q258 0 400 -101t143 -273q0 -117 -87 -202t-212 -105 q123 -11 222 -99t99 -225q0 -180 -156 -293t-409 -113z" glyph-name="uniF63B" horiz-adv-x="1300" unicode=""/><glyph d="M711 559v500l-312 -500h312zM1065 0h-354v250h-654v274l518 842h490v-807h166v-309h-166v-250z" glyph-name="uniF63C" horiz-adv-x="1300" unicode=""/><glyph d="M645 -25q-348 0 -551 199l193 246q145 -133 354 -133q106 0 165 45q58 44 58 114t-55 113t-158 43q-162 0 -270 -102l-244 59v807h991v-307h-639v-264q113 109 293 109t310 -124q130 -122 131 -332q0 -210 -156 -342t-422 -131z" glyph-name="uniF63D" horiz-adv-x="1300" unicode=""/><glyph d="M666 287q104 0 162 47q58 48 58 118t-66 111q-67 41 -156 41q-139 0 -230 -92q8 -94 68 -160t164 -65zM698 -25q-309 0 -465 196q-155 195 -155 515t182 510t494 190q248 0 415 -131l-153 -270q-111 90 -251 90q-139 0 -235 -87t-96 -224v-16q50 70 142 112t194 43 q197 0 335 -120q138 -119 138 -329q1 -210 -153 -344t-392 -135z" glyph-name="uniF63E" horiz-adv-x="1300" unicode=""/><glyph d="M117 1059v307h1071v-244l-481 -1122h-388l463 1059h-665z" glyph-name="uniF63F" horiz-adv-x="1300" unicode=""/><glyph d="M430 400q0 -58 62 -95t158 -37q97 0 160 37q62 37 62 95t-71 97q-72 38 -150 48q-81 -10 -151 -48q-70 -39 -70 -97zM650 1094q-90 0 -143 -33q-54 -33 -54 -87t61 -88t137 -44q76 10 136 44q61 34 61 88t-54 87t-144 33zM72 360q0 113 76 205q77 92 200 140 q-254 96 -254 317q0 94 48 167q86 131 309 177q95 20 219 20t245 -34t207 -120q86 -85 86 -210q0 -219 -256 -317q123 -47 200 -139t77 -213q0 -120 -85 -210q-159 -168 -493 -168q-243 1 -411 99t-168 286z" glyph-name="uniF640" horiz-adv-x="1300" unicode=""/><glyph d="M645 760q143 0 229 92q-6 94 -66 160t-164 66t-162 -48t-58 -118t66 -111t155 -41zM555 -23q-250 0 -414 132l152 270q111 -90 258 -90t235 91t88 220v16q-51 -70 -142 -114t-191 -43q-195 0 -335 121q-140 120 -140 330t153 344q154 134 391 135q309 0 465 -196 q156 -195 156 -515q-1 -320 -183 -510t-493 -191z" glyph-name="uniF641" horiz-adv-x="1300" unicode=""/><glyph d="M1049 264q0 59 -28 92t-73 33t-74 -33q-28 -33 -28 -92t28 -92t74 -33q45 0 73 33t28 92zM430 866q0 57 -29 92t-71 35t-71 -35q-28 -35 -28 -92t28 -91t71 -34q44 0 72 34t28 91zM1114 1126l-786 -1126h-166l784 1126h168zM1229 264q0 -121 -78 -203q-78 -81 -203 -81 t-203 82t-77 202q0 121 77 203q78 82 203 82t203 -82t78 -203zM612 866q0 -120 -78 -202t-204 -82q-127 0 -204 82t-77 202t77 203q77 82 204 82q126 0 204 -82t78 -203z" glyph-name="uniF642" horiz-adv-x="1277" unicode=""/><glyph d="M881 562q-1 124 -61 201t-169 77t-169 -77t-60 -201t60 -200t169 -76t169 76t61 200zM652 1151q284 0 434 -167t151 -420q0 -253 -152 -421q-153 -168 -435 -168t-434 168t-150 421q0 253 150 420q152 167 436 167z" glyph-name="uniF643" horiz-adv-x="1300" unicode=""/><glyph d="M981 0h-352v676l-230 -232l-200 211l477 471h305v-1126z" glyph-name="uniF644" horiz-adv-x="1300" unicode=""/><glyph d="M1141 0h-1000v276q356 106 511 224t155 213q0 57 -48 92t-122 35q-199 0 -354 -150l-195 234q104 115 252 171t303 56q244 0 382 -101t138 -276q0 -141 -119 -274t-274 -193h371v-307z" glyph-name="uniF645" horiz-adv-x="1300" unicode=""/><glyph d="M643 -260q-189 0 -335 59t-230 156l178 240q70 -70 173 -107t207 -37t163 37t59 96t-54 87t-204 28t-170 -2v313q27 -2 184 -2q221 0 222 107q0 61 -64 93t-166 32q-193 0 -340 -131l-170 221q197 221 547 221q258 0 400 -101t143 -274q0 -117 -87 -202t-212 -105 q123 -12 222 -99t99 -225q0 -181 -156 -293t-409 -112z" glyph-name="uniF646" horiz-adv-x="1300" unicode=""/><glyph d="M711 336v483l-312 -483h312zM1231 29h-166v-269h-354v269h-654v272l518 825h490v-790h166v-307z" glyph-name="uniF647" horiz-adv-x="1300" unicode=""/><glyph d="M645 -264q-348 0 -551 198l193 246q145 -133 354 -133q106 0 165 45q58 45 58 115q0 71 -55 113t-158 42q-162 0 -270 -102l-244 59v807h991v-307h-639v-264q113 109 293 109t310 -123t131 -333q0 -210 -156 -341t-422 -131z" glyph-name="uniF648" horiz-adv-x="1300" unicode=""/><glyph d="M666 287q104 0 162 47q58 48 58 118t-66 111q-67 41 -156 41q-139 0 -230 -92q8 -94 68 -160t164 -65zM698 -25q-309 0 -465 196q-155 195 -155 515t182 510t494 190q248 0 415 -131l-153 -270q-111 90 -251 90q-139 0 -235 -87t-96 -224v-16q50 70 142 112t194 43 q197 0 335 -120q138 -119 138 -329q1 -210 -153 -344t-392 -135z" glyph-name="uniF649" horiz-adv-x="1300" unicode=""/><glyph d="M117 819v307h1071v-243l-481 -1123h-388l463 1059h-665z" glyph-name="uniF64A" horiz-adv-x="1300" unicode=""/><glyph d="M430 400q0 -58 62 -95t158 -37q97 0 160 37q62 37 62 95t-71 97q-72 38 -150 48q-81 -10 -151 -48q-70 -39 -70 -97zM650 1094q-90 0 -143 -33q-54 -33 -54 -87t61 -88t137 -44q76 10 136 44q61 34 61 88t-54 87t-144 33zM72 360q0 113 76 205q77 92 200 140 q-254 96 -254 317q0 94 48 167q86 131 309 177q95 20 219 20t245 -34t207 -120q86 -85 86 -210q0 -219 -256 -317q123 -47 200 -139t77 -213q0 -120 -85 -210q-159 -168 -493 -168q-243 1 -411 99t-168 286z" glyph-name="uniF64B" horiz-adv-x="1300" unicode=""/><glyph d="M645 522q143 0 229 92q-6 94 -66 160t-164 66t-162 -47t-58 -118t66 -112t155 -41zM555 -260q-250 0 -414 131l152 270q111 -90 258 -90t235 91t88 220v17q-51 -70 -142 -114t-191 -44q-195 0 -335 121t-140 331t153 344q154 134 391 134q309 0 465 -196 q156 -195 156 -515q-1 -320 -183 -510t-493 -190z" glyph-name="uniF64C" horiz-adv-x="1300" unicode=""/><glyph d="M379 568q0 -97 41 -167l151 447q-88 -29 -140 -106t-52 -174zM518 301q31 -18 82 -33l191 563q-39 23 -82 29zM49 563q0 260 175 424t446 164h4l26 76h134l-31 -90q33 -6 84 -27l39 117h133l-62 -176q111 -78 179 -215l-273 -127l-12 24l-160 -465q123 33 172 148 l273 -125q-62 -135 -192 -225t-314 -91q-25 0 -37 2l-29 -86h-133l35 103q-41 8 -84 24l-43 -127h-133l61 183q-121 78 -189 205q-69 127 -69 284z" glyph-name="uniF64D" horiz-adv-x="1202" unicode=""/><glyph d="M807 608h-377q-2 -14 -2 -46t2 -46h377v-113h-338q80 -141 250 -141q78 0 140 43t93 111l273 -125q-63 -135 -193 -225t-334 -90t-366 116q-162 117 -213 311h-84v113h65q-2 14 -2 45t2 47h-65v115h84q51 195 213 311t366 117q204 0 334 -89q129 -89 193 -226l-273 -127 q-31 67 -93 111t-142 44t-147 -38t-103 -103h340v-115z" glyph-name="uniF64E" horiz-adv-x="1251" unicode=""/><glyph d="M84 401v222h127l41 174q39 172 136 262q98 90 246 90t232 -86l-104 -252q-20 31 -68 31q-72 0 -96 -103l-27 -116h148v-222h-197l-145 -645h-359l144 645h-78z" glyph-name="uniF64F" horiz-adv-x="845" unicode=""/><glyph d="M641 670h-137l-70 -207h139zM1049 831l-48 -161h-155l-70 -207h156l-51 -164h-158l-102 -299h-203l100 299h-139l-100 -299h-203l100 299h-147l51 164h153l68 207h-151l49 161h157l101 295h202l-100 -295h139l101 295h202l-100 -295h148z" glyph-name="uniF650" horiz-adv-x="1079" unicode=""/><glyph d="M33 461v162h73q-41 86 -40 157q0 162 128 266t291 103q305 0 420 -205l-241 -129q-37 104 -142 105q-57 0 -95 -40t-38 -106t41 -151h248v-162h-182q4 -29 4 -59t-25 -73q-25 -44 -51 -63q18 8 53 8t95 -22t98 -21q92 0 135 58l117 -221q-78 -88 -265 -88q-78 0 -169 32 q-90 32 -150 33q-60 0 -170 -59l-100 190q160 76 159 166q0 45 -34 119h-160z" glyph-name="uniF651" horiz-adv-x="946" unicode=""/><glyph d="M752 0h-324v215h-375v160h375v80h-375v159h269l-345 512h367l246 -397l244 397h364l-342 -512h262v-159h-366v-80h366v-160h-366v-215z" glyph-name="uniF652" horiz-adv-x="1175" unicode=""/></font>
</defs>
</svg>
